<?xml version="1.0" encoding="utf-8" standalone="no"?>
<!DOCTYPE svg PUBLIC "-//W3C//DTD SVG 1.1//EN"
  "http://www.w3.org/Graphics/SVG/1.1/DTD/svg11.dtd">
<svg xmlns:xlink="http://www.w3.org/1999/xlink" width="460.8pt" height="345.6pt" viewBox="0 0 460.8 345.6" xmlns="http://www.w3.org/2000/svg" version="1.1">
 <metadata>
  <rdf:RDF xmlns:dc="http://purl.org/dc/elements/1.1/" xmlns:cc="http://creativecommons.org/ns#" xmlns:rdf="http://www.w3.org/1999/02/22-rdf-syntax-ns#">
   <cc:Work>
    <dc:type rdf:resource="http://purl.org/dc/dcmitype/StillImage"/>
    <dc:date>2023-03-10T13:00:00.872462</dc:date>
    <dc:format>image/svg+xml</dc:format>
    <dc:creator>
     <cc:Agent>
      <dc:title>Matplotlib v3.5.3, https://matplotlib.org/</dc:title>
     </cc:Agent>
    </dc:creator>
   </cc:Work>
  </rdf:RDF>
 </metadata>
 <defs>
  <style type="text/css">*{stroke-linejoin: round; stroke-linecap: butt}</style>
 </defs>
 <g id="figure_1">
  <g id="patch_1">
   <path d="M 0 345.6 
L 460.8 345.6 
L 460.8 0 
L 0 0 
z
" style="fill: #ffffff"/>
  </g>
  <g id="axes_1">
   <g id="patch_2">
    <path d="M 50.45542 318.944323 
L 450 318.944323 
L 450 10.8 
L 50.45542 10.8 
z
" style="fill: #ffffff"/>
   </g>
   <g id="matplotlib.axis_1">
    <g id="xtick_1">
     <g id="line2d_1">
      <defs>
       <path id="m84af740e2d" d="M 0 0 
L 0 3.5 
" style="stroke: #000000; stroke-width: 0.8"/>
      </defs>
      <g>
       <use xlink:href="#m84af740e2d" x="68.616537" y="318.944323" style="stroke: #000000; stroke-width: 0.8"/>
      </g>
     </g>
     <g id="text_1">
      <!-- $\mathdefault{0}$ -->
      <g transform="translate(66.12587 332.862822)scale(0.1 -0.1)">
       <defs>
        <path id="CMR17-30" d="M 2688 2038 
C 2688 2430 2682 3099 2413 3613 
C 2176 4063 1798 4224 1466 4224 
C 1158 4224 768 4082 525 3620 
C 269 3137 243 2539 243 2038 
C 243 1671 250 1112 448 623 
C 723 -39 1216 -128 1466 -128 
C 1760 -128 2208 -7 2470 604 
C 2662 1048 2688 1568 2688 2038 
z
M 1466 -26 
C 1056 -26 813 328 723 816 
C 653 1196 653 1749 653 2109 
C 653 2604 653 3015 736 3407 
C 858 3954 1216 4121 1466 4121 
C 1728 4121 2067 3947 2189 3420 
C 2272 3054 2278 2623 2278 2109 
C 2278 1691 2278 1176 2202 797 
C 2067 96 1690 -26 1466 -26 
z
" transform="scale(0.015625)"/>
       </defs>
       <use xlink:href="#CMR17-30" transform="scale(0.996264)"/>
      </g>
     </g>
    </g>
    <g id="xtick_2">
     <g id="line2d_2">
      <g>
       <use xlink:href="#m84af740e2d" x="114.133122" y="318.944323" style="stroke: #000000; stroke-width: 0.8"/>
      </g>
     </g>
     <g id="text_2">
      <!-- $\mathdefault{50}$ -->
      <g transform="translate(109.151787 332.862822)scale(0.1 -0.1)">
       <defs>
        <path id="CMR17-35" d="M 730 3750 
C 794 3724 1056 3641 1325 3641 
C 1920 3641 2246 3961 2432 4140 
C 2432 4191 2432 4224 2394 4224 
C 2387 4224 2374 4224 2323 4198 
C 2099 4102 1837 4032 1517 4032 
C 1325 4032 1037 4055 723 4191 
C 653 4224 640 4224 634 4224 
C 602 4224 595 4217 595 4090 
L 595 2231 
C 595 2113 595 2080 659 2080 
C 691 2080 704 2093 736 2139 
C 941 2435 1222 2560 1542 2560 
C 1766 2560 2246 2415 2246 1293 
C 2246 1087 2246 716 2054 422 
C 1894 159 1645 25 1370 25 
C 947 25 518 319 403 812 
C 429 806 480 793 506 793 
C 589 793 749 838 749 1036 
C 749 1209 627 1280 506 1280 
C 358 1280 262 1190 262 1011 
C 262 454 704 -128 1382 -128 
C 2042 -128 2669 441 2669 1267 
C 2669 2054 2170 2662 1549 2662 
C 1222 2662 947 2540 730 2304 
L 730 3750 
z
" transform="scale(0.015625)"/>
       </defs>
       <use xlink:href="#CMR17-35" transform="scale(0.996264)"/>
       <use xlink:href="#CMR17-30" transform="translate(45.690477 0)scale(0.996264)"/>
      </g>
     </g>
    </g>
    <g id="xtick_3">
     <g id="line2d_3">
      <g>
       <use xlink:href="#m84af740e2d" x="159.649707" y="318.944323" style="stroke: #000000; stroke-width: 0.8"/>
      </g>
     </g>
     <g id="text_3">
      <!-- $\mathdefault{100}$ -->
      <g transform="translate(152.177704 332.862822)scale(0.1 -0.1)">
       <defs>
        <path id="CMR17-31" d="M 1702 4083 
C 1702 4217 1696 4224 1606 4224 
C 1357 3927 979 3833 621 3820 
C 602 3820 570 3820 563 3808 
C 557 3795 557 3782 557 3648 
C 755 3648 1088 3686 1344 3839 
L 1344 467 
C 1344 243 1331 166 781 166 
L 589 166 
L 589 0 
C 896 6 1216 12 1523 12 
C 1830 12 2150 6 2458 0 
L 2458 166 
L 2266 166 
C 1715 166 1702 236 1702 467 
L 1702 4083 
z
" transform="scale(0.015625)"/>
       </defs>
       <use xlink:href="#CMR17-31" transform="scale(0.996264)"/>
       <use xlink:href="#CMR17-30" transform="translate(45.690477 0)scale(0.996264)"/>
       <use xlink:href="#CMR17-30" transform="translate(91.380954 0)scale(0.996264)"/>
      </g>
     </g>
    </g>
    <g id="xtick_4">
     <g id="line2d_4">
      <g>
       <use xlink:href="#m84af740e2d" x="205.166291" y="318.944323" style="stroke: #000000; stroke-width: 0.8"/>
      </g>
     </g>
     <g id="text_4">
      <!-- $\mathdefault{150}$ -->
      <g transform="translate(197.694288 332.862822)scale(0.1 -0.1)">
       <use xlink:href="#CMR17-31" transform="scale(0.996264)"/>
       <use xlink:href="#CMR17-35" transform="translate(45.690477 0)scale(0.996264)"/>
       <use xlink:href="#CMR17-30" transform="translate(91.380954 0)scale(0.996264)"/>
      </g>
     </g>
    </g>
    <g id="xtick_5">
     <g id="line2d_5">
      <g>
       <use xlink:href="#m84af740e2d" x="250.682876" y="318.944323" style="stroke: #000000; stroke-width: 0.8"/>
      </g>
     </g>
     <g id="text_5">
      <!-- $\mathdefault{200}$ -->
      <g transform="translate(243.210873 332.862822)scale(0.1 -0.1)">
       <defs>
        <path id="CMR17-32" d="M 2669 990 
L 2554 990 
C 2490 537 2438 460 2413 422 
C 2381 371 1920 371 1830 371 
L 602 371 
C 832 620 1280 1073 1824 1596 
C 2214 1966 2669 2400 2669 3033 
C 2669 3788 2067 4224 1395 4224 
C 691 4224 262 3603 262 3027 
C 262 2777 448 2745 525 2745 
C 589 2745 781 2783 781 3007 
C 781 3206 614 3264 525 3264 
C 486 3264 448 3257 422 3244 
C 544 3788 915 4057 1306 4057 
C 1862 4057 2227 3616 2227 3033 
C 2227 2477 1901 1998 1536 1583 
L 262 147 
L 262 0 
L 2515 0 
L 2669 990 
z
" transform="scale(0.015625)"/>
       </defs>
       <use xlink:href="#CMR17-32" transform="scale(0.996264)"/>
       <use xlink:href="#CMR17-30" transform="translate(45.690477 0)scale(0.996264)"/>
       <use xlink:href="#CMR17-30" transform="translate(91.380954 0)scale(0.996264)"/>
      </g>
     </g>
    </g>
    <g id="xtick_6">
     <g id="line2d_6">
      <g>
       <use xlink:href="#m84af740e2d" x="296.19946" y="318.944323" style="stroke: #000000; stroke-width: 0.8"/>
      </g>
     </g>
     <g id="text_6">
      <!-- $\mathdefault{250}$ -->
      <g transform="translate(288.727458 332.862822)scale(0.1 -0.1)">
       <use xlink:href="#CMR17-32" transform="scale(0.996264)"/>
       <use xlink:href="#CMR17-35" transform="translate(45.690477 0)scale(0.996264)"/>
       <use xlink:href="#CMR17-30" transform="translate(91.380954 0)scale(0.996264)"/>
      </g>
     </g>
    </g>
    <g id="xtick_7">
     <g id="line2d_7">
      <g>
       <use xlink:href="#m84af740e2d" x="341.716045" y="318.944323" style="stroke: #000000; stroke-width: 0.8"/>
      </g>
     </g>
     <g id="text_7">
      <!-- $\mathdefault{300}$ -->
      <g transform="translate(334.244042 332.862822)scale(0.1 -0.1)">
       <defs>
        <path id="CMR17-33" d="M 1414 2176 
C 1984 2176 2234 1673 2234 1094 
C 2234 322 1824 25 1453 25 
C 1114 25 563 193 390 691 
C 422 678 454 678 486 678 
C 640 678 755 780 755 947 
C 755 1132 614 1216 486 1216 
C 378 1216 211 1164 211 927 
C 211 335 787 -128 1466 -128 
C 2176 -128 2720 432 2720 1087 
C 2720 1718 2208 2176 1600 2246 
C 2086 2347 2554 2776 2554 3353 
C 2554 3856 2048 4224 1472 4224 
C 890 4224 378 3862 378 3347 
C 378 3123 544 3084 627 3084 
C 762 3084 877 3167 877 3334 
C 877 3500 762 3584 627 3584 
C 602 3584 570 3584 544 3571 
C 730 3999 1235 4076 1459 4076 
C 1683 4076 2106 3966 2106 3347 
C 2106 3167 2080 2851 1862 2574 
C 1670 2329 1453 2316 1242 2297 
C 1210 2297 1062 2284 1037 2284 
C 992 2278 966 2272 966 2227 
C 966 2182 973 2176 1101 2176 
L 1414 2176 
z
" transform="scale(0.015625)"/>
       </defs>
       <use xlink:href="#CMR17-33" transform="scale(0.996264)"/>
       <use xlink:href="#CMR17-30" transform="translate(45.690477 0)scale(0.996264)"/>
       <use xlink:href="#CMR17-30" transform="translate(91.380954 0)scale(0.996264)"/>
      </g>
     </g>
    </g>
    <g id="xtick_8">
     <g id="line2d_8">
      <g>
       <use xlink:href="#m84af740e2d" x="387.23263" y="318.944323" style="stroke: #000000; stroke-width: 0.8"/>
      </g>
     </g>
     <g id="text_8">
      <!-- $\mathdefault{350}$ -->
      <g transform="translate(379.760627 332.862822)scale(0.1 -0.1)">
       <use xlink:href="#CMR17-33" transform="scale(0.996264)"/>
       <use xlink:href="#CMR17-35" transform="translate(45.690477 0)scale(0.996264)"/>
       <use xlink:href="#CMR17-30" transform="translate(91.380954 0)scale(0.996264)"/>
      </g>
     </g>
    </g>
    <g id="xtick_9">
     <g id="line2d_9">
      <g>
       <use xlink:href="#m84af740e2d" x="432.749214" y="318.944323" style="stroke: #000000; stroke-width: 0.8"/>
      </g>
     </g>
     <g id="text_9">
      <!-- $\mathdefault{400}$ -->
      <g transform="translate(425.277212 332.862822)scale(0.1 -0.1)">
       <defs>
        <path id="CMR17-34" d="M 2150 4147 
C 2150 4281 2144 4288 2029 4288 
L 128 1254 
L 128 1088 
L 1779 1088 
L 1779 460 
C 1779 230 1766 166 1318 166 
L 1197 166 
L 1197 0 
C 1402 12 1747 12 1965 12 
C 2182 12 2528 12 2733 0 
L 2733 166 
L 2611 166 
C 2163 166 2150 230 2150 460 
L 2150 1088 
L 2803 1088 
L 2803 1254 
L 2150 1254 
L 2150 4147 
z
M 1798 3723 
L 1798 1254 
L 256 1254 
L 1798 3723 
z
" transform="scale(0.015625)"/>
       </defs>
       <use xlink:href="#CMR17-34" transform="scale(0.996264)"/>
       <use xlink:href="#CMR17-30" transform="translate(45.690477 0)scale(0.996264)"/>
       <use xlink:href="#CMR17-30" transform="translate(91.380954 0)scale(0.996264)"/>
      </g>
     </g>
    </g>
   </g>
   <g id="matplotlib.axis_2">
    <g id="ytick_1">
     <g id="line2d_10">
      <defs>
       <path id="m6521557089" d="M 0 0 
L -3.5 0 
" style="stroke: #000000; stroke-width: 0.8"/>
      </defs>
      <g>
       <use xlink:href="#m6521557089" x="50.45542" y="284.895689" style="stroke: #000000; stroke-width: 0.8"/>
      </g>
     </g>
     <g id="text_10">
      <!-- $\mathdefault{0.00050}$ -->
      <g transform="translate(10.8 288.354939)scale(0.1 -0.1)">
       <defs>
        <path id="CMMI12-3a" d="M 1178 307 
C 1178 492 1024 620 870 620 
C 685 620 557 467 557 313 
C 557 128 710 0 864 0 
C 1050 0 1178 153 1178 307 
z
" transform="scale(0.015625)"/>
       </defs>
       <use xlink:href="#CMR17-30" transform="scale(0.996264)"/>
       <use xlink:href="#CMMI12-3a" transform="translate(45.690477 0)scale(0.996264)"/>
       <use xlink:href="#CMR17-30" transform="translate(72.787654 0)scale(0.996264)"/>
       <use xlink:href="#CMR17-30" transform="translate(118.478131 0)scale(0.996264)"/>
       <use xlink:href="#CMR17-30" transform="translate(164.168608 0)scale(0.996264)"/>
       <use xlink:href="#CMR17-35" transform="translate(209.859086 0)scale(0.996264)"/>
       <use xlink:href="#CMR17-30" transform="translate(255.549563 0)scale(0.996264)"/>
      </g>
     </g>
    </g>
    <g id="ytick_2">
     <g id="line2d_11">
      <g>
       <use xlink:href="#m6521557089" x="50.45542" y="245.28877" style="stroke: #000000; stroke-width: 0.8"/>
      </g>
     </g>
     <g id="text_11">
      <!-- $\mathdefault{0.00075}$ -->
      <g transform="translate(10.8 248.748019)scale(0.1 -0.1)">
       <defs>
        <path id="CMR17-37" d="M 2886 3955 
L 2886 4096 
L 1382 4096 
C 634 4096 621 4166 595 4288 
L 480 4288 
L 294 3104 
L 410 3104 
C 429 3226 474 3552 550 3673 
C 589 3724 1062 3724 1171 3724 
L 2579 3724 
L 1869 2670 
C 1395 1961 1069 1003 1069 166 
C 1069 89 1069 -128 1299 -128 
C 1530 -128 1530 89 1530 172 
L 1530 466 
C 1530 1514 1709 2204 2003 2644 
L 2886 3955 
z
" transform="scale(0.015625)"/>
       </defs>
       <use xlink:href="#CMR17-30" transform="scale(0.996264)"/>
       <use xlink:href="#CMMI12-3a" transform="translate(45.690477 0)scale(0.996264)"/>
       <use xlink:href="#CMR17-30" transform="translate(72.787654 0)scale(0.996264)"/>
       <use xlink:href="#CMR17-30" transform="translate(118.478131 0)scale(0.996264)"/>
       <use xlink:href="#CMR17-30" transform="translate(164.168608 0)scale(0.996264)"/>
       <use xlink:href="#CMR17-37" transform="translate(209.859086 0)scale(0.996264)"/>
       <use xlink:href="#CMR17-35" transform="translate(255.549563 0)scale(0.996264)"/>
      </g>
     </g>
    </g>
    <g id="ytick_3">
     <g id="line2d_12">
      <g>
       <use xlink:href="#m6521557089" x="50.45542" y="205.681851" style="stroke: #000000; stroke-width: 0.8"/>
      </g>
     </g>
     <g id="text_12">
      <!-- $\mathdefault{0.00100}$ -->
      <g transform="translate(10.8 209.1411)scale(0.1 -0.1)">
       <use xlink:href="#CMR17-30" transform="scale(0.996264)"/>
       <use xlink:href="#CMMI12-3a" transform="translate(45.690477 0)scale(0.996264)"/>
       <use xlink:href="#CMR17-30" transform="translate(72.787654 0)scale(0.996264)"/>
       <use xlink:href="#CMR17-30" transform="translate(118.478131 0)scale(0.996264)"/>
       <use xlink:href="#CMR17-31" transform="translate(164.168608 0)scale(0.996264)"/>
       <use xlink:href="#CMR17-30" transform="translate(209.859086 0)scale(0.996264)"/>
       <use xlink:href="#CMR17-30" transform="translate(255.549563 0)scale(0.996264)"/>
      </g>
     </g>
    </g>
    <g id="ytick_4">
     <g id="line2d_13">
      <g>
       <use xlink:href="#m6521557089" x="50.45542" y="166.074932" style="stroke: #000000; stroke-width: 0.8"/>
      </g>
     </g>
     <g id="text_13">
      <!-- $\mathdefault{0.00125}$ -->
      <g transform="translate(10.8 169.534181)scale(0.1 -0.1)">
       <use xlink:href="#CMR17-30" transform="scale(0.996264)"/>
       <use xlink:href="#CMMI12-3a" transform="translate(45.690477 0)scale(0.996264)"/>
       <use xlink:href="#CMR17-30" transform="translate(72.787654 0)scale(0.996264)"/>
       <use xlink:href="#CMR17-30" transform="translate(118.478131 0)scale(0.996264)"/>
       <use xlink:href="#CMR17-31" transform="translate(164.168608 0)scale(0.996264)"/>
       <use xlink:href="#CMR17-32" transform="translate(209.859086 0)scale(0.996264)"/>
       <use xlink:href="#CMR17-35" transform="translate(255.549563 0)scale(0.996264)"/>
      </g>
     </g>
    </g>
    <g id="ytick_5">
     <g id="line2d_14">
      <g>
       <use xlink:href="#m6521557089" x="50.45542" y="126.468012" style="stroke: #000000; stroke-width: 0.8"/>
      </g>
     </g>
     <g id="text_14">
      <!-- $\mathdefault{0.00150}$ -->
      <g transform="translate(10.8 129.927262)scale(0.1 -0.1)">
       <use xlink:href="#CMR17-30" transform="scale(0.996264)"/>
       <use xlink:href="#CMMI12-3a" transform="translate(45.690477 0)scale(0.996264)"/>
       <use xlink:href="#CMR17-30" transform="translate(72.787654 0)scale(0.996264)"/>
       <use xlink:href="#CMR17-30" transform="translate(118.478131 0)scale(0.996264)"/>
       <use xlink:href="#CMR17-31" transform="translate(164.168608 0)scale(0.996264)"/>
       <use xlink:href="#CMR17-35" transform="translate(209.859086 0)scale(0.996264)"/>
       <use xlink:href="#CMR17-30" transform="translate(255.549563 0)scale(0.996264)"/>
      </g>
     </g>
    </g>
    <g id="ytick_6">
     <g id="line2d_15">
      <g>
       <use xlink:href="#m6521557089" x="50.45542" y="86.861093" style="stroke: #000000; stroke-width: 0.8"/>
      </g>
     </g>
     <g id="text_15">
      <!-- $\mathdefault{0.00175}$ -->
      <g transform="translate(10.8 90.320342)scale(0.1 -0.1)">
       <use xlink:href="#CMR17-30" transform="scale(0.996264)"/>
       <use xlink:href="#CMMI12-3a" transform="translate(45.690477 0)scale(0.996264)"/>
       <use xlink:href="#CMR17-30" transform="translate(72.787654 0)scale(0.996264)"/>
       <use xlink:href="#CMR17-30" transform="translate(118.478131 0)scale(0.996264)"/>
       <use xlink:href="#CMR17-31" transform="translate(164.168608 0)scale(0.996264)"/>
       <use xlink:href="#CMR17-37" transform="translate(209.859086 0)scale(0.996264)"/>
       <use xlink:href="#CMR17-35" transform="translate(255.549563 0)scale(0.996264)"/>
      </g>
     </g>
    </g>
    <g id="ytick_7">
     <g id="line2d_16">
      <g>
       <use xlink:href="#m6521557089" x="50.45542" y="47.254174" style="stroke: #000000; stroke-width: 0.8"/>
      </g>
     </g>
     <g id="text_16">
      <!-- $\mathdefault{0.00200}$ -->
      <g transform="translate(10.8 50.713423)scale(0.1 -0.1)">
       <use xlink:href="#CMR17-30" transform="scale(0.996264)"/>
       <use xlink:href="#CMMI12-3a" transform="translate(45.690477 0)scale(0.996264)"/>
       <use xlink:href="#CMR17-30" transform="translate(72.787654 0)scale(0.996264)"/>
       <use xlink:href="#CMR17-30" transform="translate(118.478131 0)scale(0.996264)"/>
       <use xlink:href="#CMR17-32" transform="translate(164.168608 0)scale(0.996264)"/>
       <use xlink:href="#CMR17-30" transform="translate(209.859086 0)scale(0.996264)"/>
       <use xlink:href="#CMR17-30" transform="translate(255.549563 0)scale(0.996264)"/>
      </g>
     </g>
    </g>
   </g>
   <g id="line2d_17">
    <path d="M 68.616537 261.421776 
L 69.526869 115.601929 
L 70.437201 115.468873 
L 71.347532 264.07181 
L 72.257864 291.464346 
L 73.168196 272.390154 
L 74.078527 96.889149 
L 74.988859 288.44274 
L 75.899191 32.552475 
L 76.809522 278.280134 
L 77.719854 267.032094 
L 78.630186 297.723306 
L 79.540518 135.067744 
L 80.450849 287.967233 
L 81.361181 51.201791 
L 82.271513 64.401511 
L 83.181844 57.891434 
L 84.092176 271.377732 
L 85.002508 272.248958 
L 85.912839 278.899012 
L 86.823171 164.240835 
L 87.733503 271.186888 
L 88.643835 89.752905 
L 89.554166 296.194625 
L 90.464498 260.211695 
L 91.37483 104.512455 
L 92.285161 260.934205 
L 93.195493 275.329628 
L 94.105825 123.209968 
L 95.016156 264.997504 
L 95.926488 273.165957 
L 96.83682 284.099043 
L 97.747151 279.381061 
L 98.657483 52.583216 
L 99.567815 281.378424 
L 100.478147 275.131159 
L 101.388478 147.119986 
L 102.29881 66.289975 
L 103.209142 275.364629 
L 104.119473 272.114091 
L 105.029805 120.634645 
L 105.940137 293.252338 
L 106.850468 283.114774 
L 107.7608 271.450577 
L 108.671132 56.031104 
L 109.581463 126.64019 
L 110.491795 273.314803 
L 111.402127 300.932121 
L 112.312459 278.58624 
L 113.22279 96.972822 
L 114.133122 270.946189 
L 115.043454 154.347817 
L 115.953785 261.840017 
L 116.864117 65.921364 
L 117.774449 128.357482 
L 118.68478 277.821398 
L 119.595112 160.317126 
L 120.505444 292.529759 
L 121.415775 276.705334 
L 122.326107 271.994103 
L 123.236439 81.565707 
L 124.146771 111.804195 
L 125.057102 129.433706 
L 125.967434 283.806954 
L 126.877766 294.656933 
L 127.788097 77.610919 
L 128.698429 274.706082 
L 129.608761 114.538637 
L 130.519092 284.456736 
L 131.429424 135.584409 
L 132.339756 282.907882 
L 133.250087 51.326826 
L 135.070751 264.387903 
L 135.981083 146.439632 
L 136.891414 105.492191 
L 137.801746 51.730143 
L 138.712078 271.348246 
L 139.622409 24.80656 
L 140.532741 59.863097 
L 141.443073 286.967297 
L 142.353404 38.882701 
L 143.263736 267.630682 
L 145.084399 281.843057 
L 145.994731 79.683685 
L 146.905063 268.05761 
L 147.815395 278.683025 
L 148.725726 279.785184 
L 149.636058 276.983945 
L 150.54639 275.784379 
L 151.456721 269.185925 
L 152.367053 54.105571 
L 153.277385 261.713639 
L 154.187716 263.274541 
L 155.098048 284.398147 
L 156.00838 287.319733 
L 156.918711 71.263148 
L 157.829043 72.308265 
L 158.739375 272.825872 
L 159.649707 279.663269 
L 160.560038 262.809366 
L 161.47037 279.642095 
L 162.380702 277.997845 
L 163.291033 83.344977 
L 164.201365 117.169448 
L 165.111697 264.503314 
L 166.022028 166.834947 
L 166.93236 281.596879 
L 167.842692 134.692502 
L 168.753023 257.077499 
L 169.663355 53.470542 
L 170.573687 65.418189 
L 171.484019 266.624575 
L 172.39435 292.976774 
L 173.304682 262.35734 
L 174.215014 128.34427 
L 175.125345 162.569675 
L 176.035677 299.584702 
L 176.946009 136.274738 
L 177.85634 282.639742 
L 178.766672 45.898552 
L 179.677004 270.019502 
L 180.587335 268.052397 
L 181.497667 110.157852 
L 182.407999 279.383954 
L 183.318331 285.505243 
L 184.228662 49.741459 
L 185.138994 119.835878 
L 186.049326 268.078998 
L 186.959657 119.16802 
L 187.869989 45.038992 
L 188.780321 110.03695 
L 189.690652 120.035318 
L 190.600984 270.733431 
L 191.511316 86.888373 
L 192.421647 94.14939 
L 193.331979 271.281166 
L 195.152643 35.347229 
L 196.062974 72.601414 
L 196.973306 69.598052 
L 197.883638 56.712072 
L 198.793969 266.363071 
L 199.704301 279.363645 
L 200.614633 270.476031 
L 201.524964 86.321689 
L 202.435296 73.161 
L 203.345628 275.267263 
L 204.255959 265.642485 
L 205.166291 70.491608 
L 206.076623 279.513377 
L 206.986955 280.397508 
L 207.897286 92.09177 
L 208.807618 259.858638 
L 209.71795 270.965382 
L 210.628281 150.511999 
L 211.538613 81.622947 
L 212.448945 288.787409 
L 213.359276 280.220324 
L 214.269608 265.794549 
L 215.17994 168.955567 
L 216.090272 290.495193 
L 217.000603 272.510966 
L 217.910935 124.905878 
L 218.821267 80.037158 
L 219.731598 88.461904 
L 220.64193 276.065595 
L 221.552262 29.030361 
L 222.462593 138.724166 
L 223.372925 65.160827 
L 224.283257 101.02559 
L 225.193588 172.407598 
L 226.10392 283.34163 
L 227.014252 99.290134 
L 227.924584 105.820834 
L 228.834915 291.408546 
L 229.745247 296.947151 
L 230.655579 66.428062 
L 231.56591 53.768152 
L 232.476242 263.869874 
L 233.386574 30.175929 
L 234.296905 119.512619 
L 235.207237 295.243892 
L 236.117569 282.642383 
L 237.0279 115.226106 
L 237.938232 283.019698 
L 238.848564 73.452523 
L 239.758896 150.738872 
L 240.669227 156.264598 
L 241.579559 283.25431 
L 242.489891 282.025812 
L 243.400222 300.566237 
L 244.310554 280.595267 
L 245.220886 69.401134 
L 246.131217 91.732076 
L 247.041549 151.831598 
L 247.951881 107.251063 
L 248.862212 133.85954 
L 249.772544 259.033198 
L 250.682876 116.511715 
L 251.593208 63.611201 
L 252.503539 83.066845 
L 253.413871 72.185473 
L 254.324203 291.288282 
L 255.234534 279.425525 
L 256.144866 116.282008 
L 257.055198 275.951733 
L 257.965529 290.69919 
L 258.875861 163.852126 
L 259.786193 121.292295 
L 260.696524 125.89182 
L 261.606856 77.375957 
L 262.517188 106.473074 
L 263.42752 266.876925 
L 264.337851 281.121569 
L 265.248183 99.144517 
L 266.158515 282.446806 
L 267.068846 290.157258 
L 267.979178 53.73251 
L 268.88951 284.205932 
L 269.799841 136.710056 
L 270.710173 281.757241 
L 271.620505 118.977578 
L 272.530836 299.861315 
L 273.441168 86.965476 
L 274.3515 114.87848 
L 275.261832 76.066048 
L 276.172163 278.05754 
L 277.082495 57.751225 
L 277.992827 56.15652 
L 278.903158 275.82398 
L 279.81349 279.748279 
L 280.723822 98.316123 
L 281.634153 267.584744 
L 282.544485 295.500497 
L 283.454817 294.182889 
L 284.365148 98.573059 
L 285.27548 58.746674 
L 286.185812 168.531661 
L 287.096144 258.685121 
L 288.006475 120.872268 
L 288.916807 290.742868 
L 289.827139 98.140886 
L 290.73747 283.031746 
L 291.647802 282.04078 
L 292.558134 66.154863 
L 293.468465 294.55046 
L 294.378797 76.63758 
L 295.289129 272.626803 
L 296.19946 98.198668 
L 297.109792 103.90394 
L 298.020124 163.332675 
L 298.930456 277.920786 
L 299.840787 54.929471 
L 300.751119 296.707447 
L 301.661451 145.541216 
L 302.571782 268.749673 
L 303.482114 283.024289 
L 304.392446 286.323549 
L 305.302777 67.589611 
L 306.213109 285.622649 
L 307.123441 111.721768 
L 308.033772 89.194459 
L 308.944104 264.461841 
L 309.854436 73.525504 
L 310.764768 263.721262 
L 311.675099 274.197055 
L 312.585431 300.745722 
L 313.495763 267.006049 
L 314.406094 57.417583 
L 315.316426 106.066177 
L 316.226758 101.221797 
L 317.137089 119.760518 
L 318.047421 127.213327 
L 318.957753 77.306583 
L 319.868084 285.060417 
L 320.778416 131.649179 
L 321.688748 290.297251 
L 322.59908 145.291525 
L 323.509411 63.995594 
L 324.419743 92.123339 
L 325.330075 304.027307 
L 326.240406 139.464619 
L 327.150738 286.100767 
L 328.06107 80.017724 
L 328.971401 50.230853 
L 329.881733 284.626588 
L 330.792065 143.921848 
L 331.702397 279.660921 
L 332.612728 285.169283 
L 333.52306 278.575583 
L 334.433392 278.365377 
L 335.343723 41.555681 
L 336.254055 51.808223 
L 337.164387 160.546038 
L 338.98505 79.238747 
L 339.895382 291.289651 
L 340.805713 73.765649 
L 341.716045 269.750697 
L 342.626377 271.012535 
L 343.536709 135.632123 
L 344.44704 81.081276 
L 345.357372 293.317944 
L 346.267704 281.78633 
L 347.178035 274.549929 
L 348.088367 107.621506 
L 348.998699 268.299957 
L 349.90903 104.683641 
L 350.819362 264.947463 
L 351.729694 85.158117 
L 352.640025 83.003613 
L 353.550357 277.25681 
L 354.460689 135.242635 
L 355.371021 265.8928 
L 356.281352 89.625352 
L 357.191684 92.762435 
L 358.102016 134.728455 
L 359.012347 273.876944 
L 359.922679 98.573853 
L 360.833011 114.136206 
L 361.743342 300.240868 
L 362.653674 280.83591 
L 363.564006 271.769634 
L 364.474337 288.853638 
L 365.384669 125.940009 
L 366.295001 90.783191 
L 367.205333 273.029809 
L 368.115664 269.355039 
L 369.025996 116.819544 
L 369.936328 266.5646 
L 370.846659 295.542093 
L 371.756991 67.61412 
L 372.667323 161.567863 
L 373.577654 83.908576 
L 374.487986 152.959468 
L 375.398318 279.425386 
L 377.218981 268.015458 
L 378.129313 265.142068 
L 379.039645 268.276013 
L 379.949976 280.854981 
L 380.860308 115.918553 
L 381.77064 110.992496 
L 382.680971 281.752617 
L 383.591303 148.119839 
L 384.501635 270.920991 
L 385.411966 268.31166 
L 386.322298 56.137899 
L 387.23263 271.481554 
L 388.142961 292.599709 
L 389.053293 94.280248 
L 389.963625 285.290088 
L 390.873957 79.171603 
L 391.784288 295.769487 
L 392.69462 163.044248 
L 393.604952 108.03365 
L 394.515283 107.604211 
L 395.425615 161.580249 
L 396.335947 304.937763 
L 397.246278 296.032611 
L 398.15661 56.01764 
L 399.066942 278.93473 
L 399.977273 266.153341 
L 400.887605 286.03393 
L 401.797937 132.82377 
L 402.708269 303.752075 
L 403.6186 126.325231 
L 404.528932 262.358295 
L 405.439264 111.610887 
L 406.349595 128.631485 
L 407.259927 277.916459 
L 408.170259 119.908411 
L 409.08059 269.711329 
L 409.990922 89.576601 
L 410.901254 141.032914 
L 411.811585 154.148545 
L 412.721917 96.938931 
L 413.632249 281.392284 
L 414.542581 290.012963 
L 415.452912 284.880668 
L 416.363244 115.114419 
L 417.273576 118.015752 
L 418.183907 142.811587 
L 419.094239 93.246263 
L 420.004571 278.538466 
L 420.914902 281.257211 
L 421.825234 274.997772 
L 422.735566 66.634403 
L 423.645897 116.730792 
L 424.556229 79.045187 
L 425.466561 263.44641 
L 426.376893 285.485351 
L 427.287224 281.151957 
L 428.197556 70.373885 
L 429.107888 89.165311 
L 430.018219 88.243987 
L 430.928551 272.664744 
L 431.838883 270.060963 
L 431.838883 270.060963 
" clip-path="url(#pec5ccf3790)" style="fill: none; stroke: #3c74ff; stroke-width: 1.5; stroke-linecap: square"/>
   </g>
   <g id="patch_3">
    <path d="M 50.45542 318.944323 
L 50.45542 10.8 
" style="fill: none; stroke: #000000; stroke-width: 0.8; stroke-linejoin: miter; stroke-linecap: square"/>
   </g>
   <g id="patch_4">
    <path d="M 450 318.944323 
L 450 10.8 
" style="fill: none; stroke: #000000; stroke-width: 0.8; stroke-linejoin: miter; stroke-linecap: square"/>
   </g>
   <g id="patch_5">
    <path d="M 50.45542 318.944323 
L 450 318.944323 
" style="fill: none; stroke: #000000; stroke-width: 0.8; stroke-linejoin: miter; stroke-linecap: square"/>
   </g>
   <g id="patch_6">
    <path d="M 50.45542 10.8 
L 450 10.8 
" style="fill: none; stroke: #000000; stroke-width: 0.8; stroke-linejoin: miter; stroke-linecap: square"/>
   </g>
   <g id="legend_1">
    <g id="patch_7">
     <path d="M 364.49378 32.737178 
L 443 32.737178 
Q 445 32.737178 445 30.737178 
L 445 17.8 
Q 445 15.8 443 15.8 
L 364.49378 15.8 
Q 362.49378 15.8 362.49378 17.8 
L 362.49378 30.737178 
Q 362.49378 32.737178 364.49378 32.737178 
z
" style="fill: #ffffff; opacity: 0.8; stroke: #cccccc; stroke-linejoin: miter"/>
    </g>
    <g id="line2d_18">
     <path d="M 366.49378 23.3 
L 376.49378 23.3 
L 386.49378 23.3 
" style="fill: none; stroke: #3c74ff; stroke-width: 1.5; stroke-linecap: square"/>
    </g>
    <g id="text_17">
     <!-- Real values -->
     <g transform="translate(394.49378 26.8)scale(0.1 -0.1)">
      <defs>
       <path id="CMSS17-52" d="M 2522 2099 
L 2534 2105 
C 3533 2450 3539 3125 3539 3244 
C 3539 3838 2925 4416 2003 4416 
L 570 4416 
L 570 0 
L 1094 0 
L 1094 2041 
L 2035 2041 
L 3168 0 
L 3706 0 
L 2522 2099 
z
M 1094 2432 
L 1094 4057 
L 1933 4057 
C 2746 4057 3034 3607 3034 3244 
C 3034 2907 2778 2432 1933 2432 
L 1094 2432 
z
" transform="scale(0.015625)"/>
       <path id="CMSS17-65" d="M 2502 1375 
C 2502 1587 2490 2001 2285 2347 
C 2061 2713 1696 2816 1421 2816 
C 755 2816 192 2184 192 1363 
C 192 579 774 -64 1510 -64 
C 1798 -64 2150 19 2470 249 
C 2470 275 2458 414 2451 421 
C 2451 433 2432 629 2432 655 
C 2125 408 1773 326 1517 326 
C 1107 326 666 667 646 1375 
L 2502 1375 
z
M 698 1728 
C 781 2086 1062 2425 1421 2425 
C 1517 2425 1965 2412 2080 1728 
L 698 1728 
z
" transform="scale(0.015625)"/>
       <path id="CMSS17-61" d="M 2406 1789 
C 2406 2399 1978 2816 1402 2816 
C 1120 2816 813 2764 461 2559 
L 499 2133 
C 659 2250 934 2438 1395 2438 
C 1722 2438 1920 2185 1920 1782 
L 1920 1536 
C 896 1504 256 1209 256 711 
C 256 452 416 -64 947 -64 
C 1043 -64 1562 -52 1933 224 
L 1933 -13 
L 2406 -13 
L 2406 1789 
z
M 1920 824 
C 1920 711 1920 559 1728 446 
C 1562 339 1350 326 1261 326 
C 941 326 723 503 723 723 
C 723 1165 1722 1209 1920 1216 
L 1920 824 
z
" transform="scale(0.015625)"/>
       <path id="CMSS17-6c" d="M 947 4416 
L 474 4416 
L 474 0 
L 947 0 
L 947 4416 
z
" transform="scale(0.015625)"/>
       <path id="CMSS17-76" d="M 2675 2752 
L 2176 2752 
L 1747 1555 
C 1613 1164 1421 627 1389 352 
L 1382 352 
C 1370 467 1318 633 1286 748 
C 1248 889 1197 1056 1158 1171 
L 595 2752 
L 83 2752 
L 1094 0 
L 1664 0 
L 2675 2752 
z
" transform="scale(0.015625)"/>
       <path id="CMSS17-75" d="M 2618 2752 
L 2131 2752 
L 2131 976 
C 2131 500 1786 307 1421 307 
C 998 307 960 448 960 712 
L 960 2752 
L 474 2752 
L 474 680 
C 474 179 646 -64 1088 -64 
C 1306 -64 1798 -13 2144 307 
L 2144 -13 
L 2618 -13 
L 2618 2752 
z
" transform="scale(0.015625)"/>
       <path id="CMSS17-73" d="M 2061 2623 
C 1683 2803 1389 2816 1197 2816 
C 742 2816 198 2655 198 2009 
C 198 1363 902 1222 1094 1183 
C 1389 1126 1715 1062 1715 742 
C 1715 339 1254 339 1171 339 
C 915 339 563 409 243 639 
L 166 211 
C 531 0 883 -64 1178 -64 
C 1965 -64 2163 416 2163 780 
C 2163 1094 1984 1305 1862 1401 
C 1651 1567 1574 1587 1050 1695 
C 960 1708 646 1779 646 2067 
C 646 2431 1050 2431 1139 2431 
C 1555 2431 1811 2303 1984 2207 
L 2061 2623 
z
" transform="scale(0.015625)"/>
      </defs>
      <use xlink:href="#CMSS17-52" transform="scale(0.996264)"/>
      <use xlink:href="#CMSS17-65" transform="translate(60.416155 0)scale(0.996264)"/>
      <use xlink:href="#CMSS17-61" transform="translate(102.054977 0)scale(0.996264)"/>
      <use xlink:href="#CMSS17-6c" transform="translate(146.976898 0)scale(0.996264)"/>
      <use xlink:href="#CMSS17-76" transform="translate(200.386733 0)scale(0.996264)"/>
      <use xlink:href="#CMSS17-61" transform="translate(243.386875 0)scale(0.996264)"/>
      <use xlink:href="#CMSS17-6c" transform="translate(288.308796 0)scale(0.996264)"/>
      <use xlink:href="#CMSS17-75" transform="translate(310.489519 0)scale(0.996264)"/>
      <use xlink:href="#CMSS17-65" transform="translate(358.694462 0)scale(0.996264)"/>
      <use xlink:href="#CMSS17-73" transform="translate(400.333284 0)scale(0.996264)"/>
     </g>
    </g>
   </g>
  </g>
 </g>
 <defs>
  <clipPath id="pec5ccf3790">
   <rect x="50.45542" y="10.8" width="399.54458" height="308.144323"/>
  </clipPath>
 </defs>
</svg>
