<?xml version="1.0" encoding="utf-8" standalone="no"?>
<!DOCTYPE svg PUBLIC "-//W3C//DTD SVG 1.1//EN"
  "http://www.w3.org/Graphics/SVG/1.1/DTD/svg11.dtd">
<svg xmlns:xlink="http://www.w3.org/1999/xlink" width="460.8pt" height="345.6pt" viewBox="0 0 460.8 345.6" xmlns="http://www.w3.org/2000/svg" version="1.1">
 <metadata>
  <rdf:RDF xmlns:dc="http://purl.org/dc/elements/1.1/" xmlns:cc="http://creativecommons.org/ns#" xmlns:rdf="http://www.w3.org/1999/02/22-rdf-syntax-ns#">
   <cc:Work>
    <dc:type rdf:resource="http://purl.org/dc/dcmitype/StillImage"/>
    <dc:date>2023-03-13T13:11:44.537476</dc:date>
    <dc:format>image/svg+xml</dc:format>
    <dc:creator>
     <cc:Agent>
      <dc:title>Matplotlib v3.5.3, https://matplotlib.org/</dc:title>
     </cc:Agent>
    </dc:creator>
   </cc:Work>
  </rdf:RDF>
 </metadata>
 <defs>
  <style type="text/css">*{stroke-linejoin: round; stroke-linecap: butt}</style>
 </defs>
 <g id="figure_1">
  <g id="patch_1">
   <path d="M 0 345.6 
L 460.8 345.6 
L 460.8 0 
L 0 0 
z
" style="fill: #ffffff"/>
  </g>
  <g id="axes_1">
   <g id="patch_2">
    <path d="M 67.738889 301.660854 
L 450 301.660854 
L 450 10.8 
L 67.738889 10.8 
z
" style="fill: #ffffff"/>
   </g>
   <g id="matplotlib.axis_1">
    <g id="xtick_1">
     <g id="line2d_1">
      <defs>
       <path id="m60c9d3ef04" d="M 0 0 
L 0 3.5 
" style="stroke: #000000; stroke-width: 0.8"/>
      </defs>
      <g>
       <use xlink:href="#m60c9d3ef04" x="85.114394" y="301.660854" style="stroke: #000000; stroke-width: 0.8"/>
      </g>
     </g>
     <g id="text_1">
      <!-- $\mathdefault{0}$ -->
      <g transform="translate(82.623727 315.579352)scale(0.1 -0.1)">
       <defs>
        <path id="CMR17-30" d="M 2688 2038 
C 2688 2430 2682 3099 2413 3613 
C 2176 4063 1798 4224 1466 4224 
C 1158 4224 768 4082 525 3620 
C 269 3137 243 2539 243 2038 
C 243 1671 250 1112 448 623 
C 723 -39 1216 -128 1466 -128 
C 1760 -128 2208 -7 2470 604 
C 2662 1048 2688 1568 2688 2038 
z
M 1466 -26 
C 1056 -26 813 328 723 816 
C 653 1196 653 1749 653 2109 
C 653 2604 653 3015 736 3407 
C 858 3954 1216 4121 1466 4121 
C 1728 4121 2067 3947 2189 3420 
C 2272 3054 2278 2623 2278 2109 
C 2278 1691 2278 1176 2202 797 
C 2067 96 1690 -26 1466 -26 
z
" transform="scale(0.015625)"/>
       </defs>
       <use xlink:href="#CMR17-30" transform="scale(0.996264)"/>
      </g>
     </g>
    </g>
    <g id="xtick_2">
     <g id="line2d_2">
      <g>
       <use xlink:href="#m60c9d3ef04" x="128.771442" y="301.660854" style="stroke: #000000; stroke-width: 0.8"/>
      </g>
     </g>
     <g id="text_2">
      <!-- $\mathdefault{25}$ -->
      <g transform="translate(123.790107 315.579352)scale(0.1 -0.1)">
       <defs>
        <path id="CMR17-32" d="M 2669 990 
L 2554 990 
C 2490 537 2438 460 2413 422 
C 2381 371 1920 371 1830 371 
L 602 371 
C 832 620 1280 1073 1824 1596 
C 2214 1966 2669 2400 2669 3033 
C 2669 3788 2067 4224 1395 4224 
C 691 4224 262 3603 262 3027 
C 262 2777 448 2745 525 2745 
C 589 2745 781 2783 781 3007 
C 781 3206 614 3264 525 3264 
C 486 3264 448 3257 422 3244 
C 544 3788 915 4057 1306 4057 
C 1862 4057 2227 3616 2227 3033 
C 2227 2477 1901 1998 1536 1583 
L 262 147 
L 262 0 
L 2515 0 
L 2669 990 
z
" transform="scale(0.015625)"/>
        <path id="CMR17-35" d="M 730 3750 
C 794 3724 1056 3641 1325 3641 
C 1920 3641 2246 3961 2432 4140 
C 2432 4191 2432 4224 2394 4224 
C 2387 4224 2374 4224 2323 4198 
C 2099 4102 1837 4032 1517 4032 
C 1325 4032 1037 4055 723 4191 
C 653 4224 640 4224 634 4224 
C 602 4224 595 4217 595 4090 
L 595 2231 
C 595 2113 595 2080 659 2080 
C 691 2080 704 2093 736 2139 
C 941 2435 1222 2560 1542 2560 
C 1766 2560 2246 2415 2246 1293 
C 2246 1087 2246 716 2054 422 
C 1894 159 1645 25 1370 25 
C 947 25 518 319 403 812 
C 429 806 480 793 506 793 
C 589 793 749 838 749 1036 
C 749 1209 627 1280 506 1280 
C 358 1280 262 1190 262 1011 
C 262 454 704 -128 1382 -128 
C 2042 -128 2669 441 2669 1267 
C 2669 2054 2170 2662 1549 2662 
C 1222 2662 947 2540 730 2304 
L 730 3750 
z
" transform="scale(0.015625)"/>
       </defs>
       <use xlink:href="#CMR17-32" transform="scale(0.996264)"/>
       <use xlink:href="#CMR17-35" transform="translate(45.690477 0)scale(0.996264)"/>
      </g>
     </g>
    </g>
    <g id="xtick_3">
     <g id="line2d_3">
      <g>
       <use xlink:href="#m60c9d3ef04" x="172.42849" y="301.660854" style="stroke: #000000; stroke-width: 0.8"/>
      </g>
     </g>
     <g id="text_3">
      <!-- $\mathdefault{50}$ -->
      <g transform="translate(167.447155 315.579352)scale(0.1 -0.1)">
       <use xlink:href="#CMR17-35" transform="scale(0.996264)"/>
       <use xlink:href="#CMR17-30" transform="translate(45.690477 0)scale(0.996264)"/>
      </g>
     </g>
    </g>
    <g id="xtick_4">
     <g id="line2d_4">
      <g>
       <use xlink:href="#m60c9d3ef04" x="216.085538" y="301.660854" style="stroke: #000000; stroke-width: 0.8"/>
      </g>
     </g>
     <g id="text_4">
      <!-- $\mathdefault{75}$ -->
      <g transform="translate(211.104203 315.579352)scale(0.1 -0.1)">
       <defs>
        <path id="CMR17-37" d="M 2886 3955 
L 2886 4096 
L 1382 4096 
C 634 4096 621 4166 595 4288 
L 480 4288 
L 294 3104 
L 410 3104 
C 429 3226 474 3552 550 3673 
C 589 3724 1062 3724 1171 3724 
L 2579 3724 
L 1869 2670 
C 1395 1961 1069 1003 1069 166 
C 1069 89 1069 -128 1299 -128 
C 1530 -128 1530 89 1530 172 
L 1530 466 
C 1530 1514 1709 2204 2003 2644 
L 2886 3955 
z
" transform="scale(0.015625)"/>
       </defs>
       <use xlink:href="#CMR17-37" transform="scale(0.996264)"/>
       <use xlink:href="#CMR17-35" transform="translate(45.690477 0)scale(0.996264)"/>
      </g>
     </g>
    </g>
    <g id="xtick_5">
     <g id="line2d_5">
      <g>
       <use xlink:href="#m60c9d3ef04" x="259.742586" y="301.660854" style="stroke: #000000; stroke-width: 0.8"/>
      </g>
     </g>
     <g id="text_5">
      <!-- $\mathdefault{100}$ -->
      <g transform="translate(252.270583 315.579352)scale(0.1 -0.1)">
       <defs>
        <path id="CMR17-31" d="M 1702 4083 
C 1702 4217 1696 4224 1606 4224 
C 1357 3927 979 3833 621 3820 
C 602 3820 570 3820 563 3808 
C 557 3795 557 3782 557 3648 
C 755 3648 1088 3686 1344 3839 
L 1344 467 
C 1344 243 1331 166 781 166 
L 589 166 
L 589 0 
C 896 6 1216 12 1523 12 
C 1830 12 2150 6 2458 0 
L 2458 166 
L 2266 166 
C 1715 166 1702 236 1702 467 
L 1702 4083 
z
" transform="scale(0.015625)"/>
       </defs>
       <use xlink:href="#CMR17-31" transform="scale(0.996264)"/>
       <use xlink:href="#CMR17-30" transform="translate(45.690477 0)scale(0.996264)"/>
       <use xlink:href="#CMR17-30" transform="translate(91.380954 0)scale(0.996264)"/>
      </g>
     </g>
    </g>
    <g id="xtick_6">
     <g id="line2d_6">
      <g>
       <use xlink:href="#m60c9d3ef04" x="303.399633" y="301.660854" style="stroke: #000000; stroke-width: 0.8"/>
      </g>
     </g>
     <g id="text_6">
      <!-- $\mathdefault{125}$ -->
      <g transform="translate(295.927631 315.579352)scale(0.1 -0.1)">
       <use xlink:href="#CMR17-31" transform="scale(0.996264)"/>
       <use xlink:href="#CMR17-32" transform="translate(45.690477 0)scale(0.996264)"/>
       <use xlink:href="#CMR17-35" transform="translate(91.380954 0)scale(0.996264)"/>
      </g>
     </g>
    </g>
    <g id="xtick_7">
     <g id="line2d_7">
      <g>
       <use xlink:href="#m60c9d3ef04" x="347.056681" y="301.660854" style="stroke: #000000; stroke-width: 0.8"/>
      </g>
     </g>
     <g id="text_7">
      <!-- $\mathdefault{150}$ -->
      <g transform="translate(339.584678 315.579352)scale(0.1 -0.1)">
       <use xlink:href="#CMR17-31" transform="scale(0.996264)"/>
       <use xlink:href="#CMR17-35" transform="translate(45.690477 0)scale(0.996264)"/>
       <use xlink:href="#CMR17-30" transform="translate(91.380954 0)scale(0.996264)"/>
      </g>
     </g>
    </g>
    <g id="xtick_8">
     <g id="line2d_8">
      <g>
       <use xlink:href="#m60c9d3ef04" x="390.713729" y="301.660854" style="stroke: #000000; stroke-width: 0.8"/>
      </g>
     </g>
     <g id="text_8">
      <!-- $\mathdefault{175}$ -->
      <g transform="translate(383.241726 315.579352)scale(0.1 -0.1)">
       <use xlink:href="#CMR17-31" transform="scale(0.996264)"/>
       <use xlink:href="#CMR17-37" transform="translate(45.690477 0)scale(0.996264)"/>
       <use xlink:href="#CMR17-35" transform="translate(91.380954 0)scale(0.996264)"/>
      </g>
     </g>
    </g>
    <g id="xtick_9">
     <g id="line2d_9">
      <g>
       <use xlink:href="#m60c9d3ef04" x="434.370777" y="301.660854" style="stroke: #000000; stroke-width: 0.8"/>
      </g>
     </g>
     <g id="text_9">
      <!-- $\mathdefault{200}$ -->
      <g transform="translate(426.898774 315.579352)scale(0.1 -0.1)">
       <use xlink:href="#CMR17-32" transform="scale(0.996264)"/>
       <use xlink:href="#CMR17-30" transform="translate(45.690477 0)scale(0.996264)"/>
       <use xlink:href="#CMR17-30" transform="translate(91.380954 0)scale(0.996264)"/>
      </g>
     </g>
    </g>
    <g id="text_10">
     <!-- Boundary Data -->
     <g transform="translate(212.615514 331.894255)scale(0.15 -0.15)">
      <defs>
       <path id="CMSS17-42" d="M 570 4416 
L 570 0 
L 2163 0 
C 3034 0 3667 575 3667 1200 
C 3667 1684 3251 2175 2502 2316 
C 3334 2559 3501 3039 3501 3311 
C 3501 3880 2874 4416 1997 4416 
L 570 4416 
z
M 1088 2496 
L 1088 4057 
L 1824 4057 
C 2483 4057 3002 3722 3002 3305 
C 3002 2925 2592 2496 1766 2496 
L 1088 2496 
z
M 1088 358 
L 1088 2105 
L 1939 2105 
C 2630 2105 3162 1678 3162 1206 
C 3162 772 2694 358 1984 358 
L 1088 358 
z
" transform="scale(0.015625)"/>
       <path id="CMSS17-6f" d="M 2829 1356 
C 2829 2175 2221 2816 1504 2816 
C 768 2816 173 2156 173 1356 
C 173 544 787 -64 1498 -64 
C 2227 -64 2829 563 2829 1356 
z
M 1504 339 
C 1050 339 659 710 659 1407 
C 659 2150 1114 2425 1498 2425 
C 1914 2425 2342 2124 2342 1407 
C 2342 684 1926 339 1504 339 
z
" transform="scale(0.015625)"/>
       <path id="CMSS17-75" d="M 2618 2752 
L 2131 2752 
L 2131 976 
C 2131 500 1786 307 1421 307 
C 998 307 960 448 960 712 
L 960 2752 
L 474 2752 
L 474 680 
C 474 179 646 -64 1088 -64 
C 1306 -64 1798 -13 2144 307 
L 2144 -13 
L 2618 -13 
L 2618 2752 
z
" transform="scale(0.015625)"/>
       <path id="CMSS17-6e" d="M 2618 1878 
C 2618 2283 2522 2816 1798 2816 
C 1389 2816 1120 2604 941 2386 
L 941 2783 
L 474 2783 
L 474 0 
L 960 0 
L 960 1556 
C 960 1962 1114 2425 1549 2425 
C 2112 2425 2131 2045 2131 1826 
L 2131 0 
L 2618 0 
L 2618 1878 
z
" transform="scale(0.015625)"/>
       <path id="CMSS17-64" d="M 2611 4416 
L 2138 4416 
L 2138 2495 
C 1939 2662 1613 2816 1254 2816 
C 672 2816 211 2179 211 1375 
C 211 572 666 -64 1235 -64 
C 1677 -64 1971 172 2125 307 
L 2125 -13 
L 2611 -13 
L 2611 4416 
z
M 2125 851 
C 2125 760 2125 663 1926 488 
C 1798 378 1645 326 1498 326 
C 1152 326 698 585 698 1369 
C 698 2185 1210 2425 1562 2425 
C 1798 2425 1990 2308 2125 2114 
L 2125 851 
z
" transform="scale(0.015625)"/>
       <path id="CMSS17-61" d="M 2406 1789 
C 2406 2399 1978 2816 1402 2816 
C 1120 2816 813 2764 461 2559 
L 499 2133 
C 659 2250 934 2438 1395 2438 
C 1722 2438 1920 2185 1920 1782 
L 1920 1536 
C 896 1504 256 1209 256 711 
C 256 452 416 -64 947 -64 
C 1043 -64 1562 -52 1933 224 
L 1933 -13 
L 2406 -13 
L 2406 1789 
z
M 1920 824 
C 1920 711 1920 559 1728 446 
C 1562 339 1350 326 1261 326 
C 941 326 723 503 723 723 
C 723 1165 1722 1209 1920 1216 
L 1920 824 
z
" transform="scale(0.015625)"/>
       <path id="CMSS17-72" d="M 954 1369 
C 954 1974 1395 2379 1958 2392 
L 1958 2816 
C 1549 2809 1165 2604 934 2270 
L 934 2783 
L 480 2783 
L 480 0 
L 954 0 
L 954 1369 
z
" transform="scale(0.015625)"/>
       <path id="CMSS17-79" d="M 2675 2752 
L 2176 2752 
C 1632 1293 1446 701 1434 383 
L 1427 383 
C 1408 695 1126 1459 902 2006 
L 602 2752 
L 83 2752 
L 1216 14 
C 1146 -177 1043 -464 1011 -527 
C 870 -884 774 -884 672 -884 
C 646 -884 442 -877 211 -807 
L 250 -1229 
C 410 -1261 570 -1280 685 -1280 
C 845 -1280 1165 -1280 1459 -495 
L 2675 2752 
z
" transform="scale(0.015625)"/>
       <path id="CMSS17-44" d="M 570 4416 
L 570 0 
L 2144 0 
C 3194 0 4000 981 4000 2169 
C 4000 3396 3194 4416 2144 4416 
L 570 4416 
z
M 1094 358 
L 1094 4057 
L 2003 4057 
C 2861 4057 3475 3275 3475 2169 
C 3475 1108 2867 358 2003 358 
L 1094 358 
z
" transform="scale(0.015625)"/>
       <path id="CMSS17-74" d="M 1069 2380 
L 1901 2380 
L 1901 2752 
L 1069 2752 
L 1069 3520 
L 614 3520 
L 614 2752 
L 109 2752 
L 109 2380 
L 602 2380 
L 602 751 
C 602 384 685 -64 1107 -64 
C 1427 -64 1722 25 2003 172 
L 1901 551 
C 1747 416 1562 339 1363 339 
C 1082 339 1069 699 1069 860 
L 1069 2380 
z
" transform="scale(0.015625)"/>
      </defs>
      <use xlink:href="#CMSS17-42" transform="scale(0.996264)"/>
      <use xlink:href="#CMSS17-6f" transform="translate(62.33804 0)scale(0.996264)"/>
      <use xlink:href="#CMSS17-75" transform="translate(109.181664 0)scale(0.996264)"/>
      <use xlink:href="#CMSS17-6e" transform="translate(157.386607 0)scale(0.996264)"/>
      <use xlink:href="#CMSS17-64" transform="translate(205.59155 0)scale(0.996264)"/>
      <use xlink:href="#CMSS17-61" transform="translate(253.796493 0)scale(0.996264)"/>
      <use xlink:href="#CMSS17-72" transform="translate(296.11596 0)scale(0.996264)"/>
      <use xlink:href="#CMSS17-79" transform="translate(328.025732 0)scale(0.996264)"/>
      <use xlink:href="#CMSS17-44" transform="translate(402.254987 0)scale(0.996264)"/>
      <use xlink:href="#CMSS17-61" transform="translate(469.797828 0)scale(0.996264)"/>
      <use xlink:href="#CMSS17-74" transform="translate(514.719749 0)scale(0.996264)"/>
      <use xlink:href="#CMSS17-61" transform="translate(548.551316 0)scale(0.996264)"/>
     </g>
    </g>
   </g>
   <g id="matplotlib.axis_2">
    <g id="ytick_1">
     <g id="line2d_10">
      <defs>
       <path id="m34d28d5f48" d="M 0 0 
L -3.5 0 
" style="stroke: #000000; stroke-width: 0.8"/>
      </defs>
      <g>
       <use xlink:href="#m34d28d5f48" x="67.738889" y="291.323565" style="stroke: #000000; stroke-width: 0.8"/>
      </g>
     </g>
     <g id="text_11">
      <!-- $\mathdefault{0.00040}$ -->
      <g transform="translate(28.083469 294.782814)scale(0.1 -0.1)">
       <defs>
        <path id="CMMI12-3a" d="M 1178 307 
C 1178 492 1024 620 870 620 
C 685 620 557 467 557 313 
C 557 128 710 0 864 0 
C 1050 0 1178 153 1178 307 
z
" transform="scale(0.015625)"/>
        <path id="CMR17-34" d="M 2150 4147 
C 2150 4281 2144 4288 2029 4288 
L 128 1254 
L 128 1088 
L 1779 1088 
L 1779 460 
C 1779 230 1766 166 1318 166 
L 1197 166 
L 1197 0 
C 1402 12 1747 12 1965 12 
C 2182 12 2528 12 2733 0 
L 2733 166 
L 2611 166 
C 2163 166 2150 230 2150 460 
L 2150 1088 
L 2803 1088 
L 2803 1254 
L 2150 1254 
L 2150 4147 
z
M 1798 3723 
L 1798 1254 
L 256 1254 
L 1798 3723 
z
" transform="scale(0.015625)"/>
       </defs>
       <use xlink:href="#CMR17-30" transform="scale(0.996264)"/>
       <use xlink:href="#CMMI12-3a" transform="translate(45.690477 0)scale(0.996264)"/>
       <use xlink:href="#CMR17-30" transform="translate(72.787654 0)scale(0.996264)"/>
       <use xlink:href="#CMR17-30" transform="translate(118.478131 0)scale(0.996264)"/>
       <use xlink:href="#CMR17-30" transform="translate(164.168608 0)scale(0.996264)"/>
       <use xlink:href="#CMR17-34" transform="translate(209.859086 0)scale(0.996264)"/>
       <use xlink:href="#CMR17-30" transform="translate(255.549563 0)scale(0.996264)"/>
      </g>
     </g>
    </g>
    <g id="ytick_2">
     <g id="line2d_11">
      <g>
       <use xlink:href="#m34d28d5f48" x="67.738889" y="243.950585" style="stroke: #000000; stroke-width: 0.8"/>
      </g>
     </g>
     <g id="text_12">
      <!-- $\mathdefault{0.00045}$ -->
      <g transform="translate(28.083469 247.409835)scale(0.1 -0.1)">
       <use xlink:href="#CMR17-30" transform="scale(0.996264)"/>
       <use xlink:href="#CMMI12-3a" transform="translate(45.690477 0)scale(0.996264)"/>
       <use xlink:href="#CMR17-30" transform="translate(72.787654 0)scale(0.996264)"/>
       <use xlink:href="#CMR17-30" transform="translate(118.478131 0)scale(0.996264)"/>
       <use xlink:href="#CMR17-30" transform="translate(164.168608 0)scale(0.996264)"/>
       <use xlink:href="#CMR17-34" transform="translate(209.859086 0)scale(0.996264)"/>
       <use xlink:href="#CMR17-35" transform="translate(255.549563 0)scale(0.996264)"/>
      </g>
     </g>
    </g>
    <g id="ytick_3">
     <g id="line2d_12">
      <g>
       <use xlink:href="#m34d28d5f48" x="67.738889" y="196.577606" style="stroke: #000000; stroke-width: 0.8"/>
      </g>
     </g>
     <g id="text_13">
      <!-- $\mathdefault{0.00050}$ -->
      <g transform="translate(28.083469 200.036855)scale(0.1 -0.1)">
       <use xlink:href="#CMR17-30" transform="scale(0.996264)"/>
       <use xlink:href="#CMMI12-3a" transform="translate(45.690477 0)scale(0.996264)"/>
       <use xlink:href="#CMR17-30" transform="translate(72.787654 0)scale(0.996264)"/>
       <use xlink:href="#CMR17-30" transform="translate(118.478131 0)scale(0.996264)"/>
       <use xlink:href="#CMR17-30" transform="translate(164.168608 0)scale(0.996264)"/>
       <use xlink:href="#CMR17-35" transform="translate(209.859086 0)scale(0.996264)"/>
       <use xlink:href="#CMR17-30" transform="translate(255.549563 0)scale(0.996264)"/>
      </g>
     </g>
    </g>
    <g id="ytick_4">
     <g id="line2d_13">
      <g>
       <use xlink:href="#m34d28d5f48" x="67.738889" y="149.204627" style="stroke: #000000; stroke-width: 0.8"/>
      </g>
     </g>
     <g id="text_14">
      <!-- $\mathdefault{0.00055}$ -->
      <g transform="translate(28.083469 152.663876)scale(0.1 -0.1)">
       <use xlink:href="#CMR17-30" transform="scale(0.996264)"/>
       <use xlink:href="#CMMI12-3a" transform="translate(45.690477 0)scale(0.996264)"/>
       <use xlink:href="#CMR17-30" transform="translate(72.787654 0)scale(0.996264)"/>
       <use xlink:href="#CMR17-30" transform="translate(118.478131 0)scale(0.996264)"/>
       <use xlink:href="#CMR17-30" transform="translate(164.168608 0)scale(0.996264)"/>
       <use xlink:href="#CMR17-35" transform="translate(209.859086 0)scale(0.996264)"/>
       <use xlink:href="#CMR17-35" transform="translate(255.549563 0)scale(0.996264)"/>
      </g>
     </g>
    </g>
    <g id="ytick_5">
     <g id="line2d_14">
      <g>
       <use xlink:href="#m34d28d5f48" x="67.738889" y="101.831648" style="stroke: #000000; stroke-width: 0.8"/>
      </g>
     </g>
     <g id="text_15">
      <!-- $\mathdefault{0.00060}$ -->
      <g transform="translate(28.083469 105.290897)scale(0.1 -0.1)">
       <defs>
        <path id="CMR17-36" d="M 678 2198 
C 678 3712 1395 4076 1811 4076 
C 1946 4076 2272 4049 2400 3782 
C 2298 3782 2106 3782 2106 3558 
C 2106 3385 2246 3328 2336 3328 
C 2394 3328 2566 3353 2566 3571 
C 2566 3987 2246 4224 1805 4224 
C 1043 4224 243 3411 243 2011 
C 243 257 966 -128 1478 -128 
C 2099 -128 2688 431 2688 1295 
C 2688 2101 2170 2688 1517 2688 
C 1126 2688 838 2430 678 1979 
L 678 2198 
z
M 1478 25 
C 691 25 691 1212 691 1450 
C 691 1914 909 2585 1504 2585 
C 1613 2585 1926 2585 2138 2140 
C 2253 1889 2253 1624 2253 1302 
C 2253 954 2253 696 2118 438 
C 1978 173 1773 25 1478 25 
z
" transform="scale(0.015625)"/>
       </defs>
       <use xlink:href="#CMR17-30" transform="scale(0.996264)"/>
       <use xlink:href="#CMMI12-3a" transform="translate(45.690477 0)scale(0.996264)"/>
       <use xlink:href="#CMR17-30" transform="translate(72.787654 0)scale(0.996264)"/>
       <use xlink:href="#CMR17-30" transform="translate(118.478131 0)scale(0.996264)"/>
       <use xlink:href="#CMR17-30" transform="translate(164.168608 0)scale(0.996264)"/>
       <use xlink:href="#CMR17-36" transform="translate(209.859086 0)scale(0.996264)"/>
       <use xlink:href="#CMR17-30" transform="translate(255.549563 0)scale(0.996264)"/>
      </g>
     </g>
    </g>
    <g id="ytick_6">
     <g id="line2d_15">
      <g>
       <use xlink:href="#m34d28d5f48" x="67.738889" y="54.458669" style="stroke: #000000; stroke-width: 0.8"/>
      </g>
     </g>
     <g id="text_16">
      <!-- $\mathdefault{0.00065}$ -->
      <g transform="translate(28.083469 57.917918)scale(0.1 -0.1)">
       <use xlink:href="#CMR17-30" transform="scale(0.996264)"/>
       <use xlink:href="#CMMI12-3a" transform="translate(45.690477 0)scale(0.996264)"/>
       <use xlink:href="#CMR17-30" transform="translate(72.787654 0)scale(0.996264)"/>
       <use xlink:href="#CMR17-30" transform="translate(118.478131 0)scale(0.996264)"/>
       <use xlink:href="#CMR17-30" transform="translate(164.168608 0)scale(0.996264)"/>
       <use xlink:href="#CMR17-36" transform="translate(209.859086 0)scale(0.996264)"/>
       <use xlink:href="#CMR17-35" transform="translate(255.549563 0)scale(0.996264)"/>
      </g>
     </g>
    </g>
    <g id="text_17">
     <!-- Strain -->
     <g transform="translate(21.177725 174.399916)rotate(-90)scale(0.15 -0.15)">
      <defs>
       <path id="CMSS17-53" d="M 2797 4230 
C 2515 4396 2208 4544 1690 4544 
C 864 4544 333 3934 333 3309 
C 333 3064 403 2787 653 2504 
C 902 2220 1184 2143 1542 2053 
C 1690 2014 1939 1943 1984 1924 
C 2342 1782 2515 1454 2515 1144 
C 2515 738 2202 307 1645 307 
C 1453 307 890 339 358 829 
L 269 320 
C 794 -64 1363 -128 1651 -128 
C 2438 -128 3002 494 3002 1202 
C 3002 1460 2925 1789 2656 2092 
C 2394 2381 2163 2446 1638 2588 
C 1338 2665 1146 2717 986 2916 
C 877 3058 819 3193 819 3367 
C 819 3728 1126 4121 1690 4121 
C 1971 4121 2336 4063 2707 3715 
L 2797 4230 
z
" transform="scale(0.015625)"/>
       <path id="CMSS17-69" d="M 979 4224 
L 442 4224 
L 442 3686 
L 979 3686 
L 979 4224 
z
M 947 2752 
L 474 2752 
L 474 0 
L 947 0 
L 947 2752 
z
" transform="scale(0.015625)"/>
      </defs>
      <use xlink:href="#CMSS17-53" transform="scale(0.996264)"/>
      <use xlink:href="#CMSS17-74" transform="translate(52.048516 0)scale(0.996264)"/>
      <use xlink:href="#CMSS17-72" transform="translate(85.880083 0)scale(0.996264)"/>
      <use xlink:href="#CMSS17-61" transform="translate(117.789855 0)scale(0.996264)"/>
      <use xlink:href="#CMSS17-69" transform="translate(162.711776 0)scale(0.996264)"/>
      <use xlink:href="#CMSS17-6e" transform="translate(184.892499 0)scale(0.996264)"/>
     </g>
    </g>
   </g>
   <g id="line2d_16">
    <path d="M 85.114394 77.57866 
L 86.860676 252.118702 
L 88.606958 182.129701 
L 90.35324 66.63038 
L 92.099522 70.030914 
L 93.845804 186.921255 
L 97.338368 118.581237 
L 99.08465 217.084937 
L 100.830932 214.194918 
L 102.577214 183.235469 
L 104.323496 88.818338 
L 106.069777 53.278543 
L 107.816059 184.689737 
L 109.562341 234.489936 
L 111.308623 139.587732 
L 113.054905 181.985548 
L 114.801187 154.95314 
L 116.547469 258.406897 
L 118.293751 100.785709 
L 120.040033 117.809729 
L 121.786315 116.355823 
L 123.532597 36.328516 
L 125.278878 236.863728 
L 127.02516 107.61218 
L 128.771442 24.02994 
L 130.517724 80.945138 
L 134.010288 157.013993 
L 135.75657 155.781756 
L 137.502852 75.574902 
L 139.249134 232.067787 
L 140.995416 220.433964 
L 142.741698 275.238862 
L 144.487979 113.379435 
L 146.234261 173.332212 
L 147.980543 268.37351 
L 149.726825 234.508091 
L 151.473107 111.89457 
L 153.219389 187.283722 
L 154.965671 228.195358 
L 156.711953 81.666598 
L 158.458235 125.962629 
L 160.204517 193.68346 
L 161.950799 111.192157 
L 163.697081 164.437325 
L 165.443362 255.316937 
L 167.189644 87.87917 
L 168.935926 141.6551 
L 170.682208 160.422513 
L 172.42849 147.111203 
L 174.174772 126.278136 
L 175.921054 231.546028 
L 177.667336 106.65889 
L 179.413618 109.140782 
L 181.1599 239.872127 
L 182.906182 197.22144 
L 184.652463 189.035904 
L 186.398745 234.807814 
L 188.145027 265.73152 
L 189.891309 171.000181 
L 191.637591 112.249267 
L 193.383873 217.409577 
L 195.130155 107.513451 
L 196.876437 260.686553 
L 198.622719 229.514477 
L 200.369001 145.009668 
L 202.115283 150.441422 
L 203.861564 105.125576 
L 205.607846 85.459637 
L 207.354128 75.295207 
L 209.10041 90.696217 
L 210.846692 246.553642 
L 212.592974 187.99841 
L 214.339256 134.680489 
L 216.085538 142.088402 
L 217.83182 175.428364 
L 219.578102 152.006107 
L 221.324384 64.49274 
L 223.070666 106.860284 
L 224.816947 68.056626 
L 226.563229 107.612963 
L 228.309511 139.699768 
L 230.055793 166.373547 
L 231.802075 173.031093 
L 233.548357 168.439835 
L 235.294639 188.258215 
L 237.040921 46.391343 
L 238.787203 68.551567 
L 240.533485 179.452895 
L 242.279767 164.148726 
L 244.026048 89.590549 
L 245.77233 235.38682 
L 247.518612 92.351999 
L 249.264894 70.834995 
L 251.011176 132.595581 
L 252.757458 167.107881 
L 254.50374 238.10216 
L 256.250022 219.851614 
L 257.996304 195.65984 
L 259.742586 184.486094 
L 261.488868 254.757421 
L 263.23515 111.463198 
L 264.981431 174.885351 
L 266.727713 75.929146 
L 268.473995 272.726536 
L 270.220277 30.77133 
L 271.966559 107.860131 
L 273.712841 102.926354 
L 275.459123 175.625867 
L 278.951687 63.803328 
L 280.697969 168.617087 
L 282.444251 77.662662 
L 284.190532 209.039956 
L 285.936814 150.904336 
L 287.683096 134.416322 
L 289.429378 66.120084 
L 291.17566 78.443214 
L 292.921942 262.332927 
L 294.668224 74.408631 
L 296.414506 192.569839 
L 298.160788 211.256867 
L 299.90707 181.756296 
L 301.653352 174.534923 
L 303.399633 186.298506 
L 305.145915 150.967336 
L 306.892197 190.902903 
L 308.638479 155.730081 
L 310.384761 288.439906 
L 312.131043 182.972516 
L 313.877325 151.299712 
L 315.623607 130.341557 
L 317.369889 38.170427 
L 319.116171 189.139693 
L 320.862453 191.271821 
L 322.608735 192.855888 
L 324.355016 165.271641 
L 326.101298 240.31074 
L 327.84758 258.647077 
L 329.593862 106.01675 
L 331.340144 118.037559 
L 333.086426 208.757056 
L 334.832708 185.385898 
L 336.57899 181.832166 
L 338.325272 114.610175 
L 340.071554 137.34293 
L 341.817836 151.906928 
L 343.564117 160.743613 
L 345.310399 200.222975 
L 347.056681 151.372506 
L 348.802963 131.47725 
L 350.549245 149.271827 
L 352.295527 169.152004 
L 354.041809 148.516003 
L 355.788091 196.270958 
L 357.534373 151.393278 
L 359.280655 73.248038 
L 361.026937 115.558589 
L 362.773218 193.952495 
L 364.5195 209.102751 
L 366.265782 209.390097 
L 368.012064 124.576075 
L 369.758346 108.369445 
L 371.504628 168.677809 
L 373.25091 30.213926 
L 374.997192 205.845441 
L 376.743474 177.284542 
L 378.489756 130.681192 
L 380.236038 229.726427 
L 381.98232 148.811309 
L 383.728601 177.982419 
L 387.221165 79.757528 
L 388.967447 186.359935 
L 390.713729 261.607178 
L 392.460011 74.103853 
L 394.206293 211.216765 
L 395.952575 248.5666 
L 397.698857 273.29178 
L 399.445139 81.298055 
L 401.191421 115.418923 
L 402.937702 94.299517 
L 404.683984 34.348055 
L 406.430266 225.75968 
L 408.176548 168.110445 
L 409.92283 174.006891 
L 411.669112 90.355943 
L 413.415394 107.058053 
L 415.161676 200.039407 
L 416.907958 67.066419 
L 418.65424 119.399366 
L 420.400522 71.886869 
L 422.146804 60.120337 
L 423.893085 159.423442 
L 425.639367 148.267388 
L 427.385649 107.859824 
L 429.131931 178.321671 
L 430.878213 188.397769 
L 432.624495 84.491019 
L 432.624495 84.491019 
" clip-path="url(#p181a9909c6)" style="fill: none; stroke: #3c74ff; stroke-width: 1.5; stroke-linecap: square"/>
   </g>
   <g id="line2d_17">
    <path d="M 85.114394 86.165954 
L 86.860676 246.689233 
L 88.606958 187.283989 
L 90.35324 63.962197 
L 92.099522 73.756561 
L 93.845804 175.681199 
L 95.592086 161.001749 
L 97.338368 122.09772 
L 99.08465 205.440784 
L 100.830932 201.003334 
L 102.577214 191.301355 
L 104.323496 91.527484 
L 106.069777 58.381718 
L 107.816059 188.681843 
L 109.562341 235.053949 
L 111.308623 146.860087 
L 113.054905 185.213838 
L 114.801187 157.312508 
L 116.547469 265.63741 
L 118.293751 97.592883 
L 120.040033 120.062139 
L 121.786315 120.619699 
L 123.532597 44.287178 
L 125.278878 234.511049 
L 127.02516 110.576009 
L 128.771442 24.020948 
L 130.517724 81.574268 
L 132.264006 119.922432 
L 134.010288 162.987325 
L 135.75657 167.700401 
L 137.502852 76.351864 
L 139.249134 228.416978 
L 140.995416 217.703142 
L 142.741698 272.384865 
L 144.487979 118.282676 
L 146.234261 170.429776 
L 147.980543 259.259845 
L 149.726825 235.242357 
L 151.473107 109.184767 
L 153.219389 183.477975 
L 154.965671 214.084438 
L 156.711953 80.082076 
L 158.458235 132.63466 
L 160.204517 180.728642 
L 161.950799 119.300545 
L 163.697081 159.067861 
L 165.443362 261.784482 
L 167.189644 91.878409 
L 168.935926 140.643631 
L 170.682208 160.597075 
L 172.42849 146.859411 
L 174.174772 127.932984 
L 175.921054 232.399305 
L 177.667336 112.199077 
L 179.413618 112.430234 
L 181.1599 226.208929 
L 182.906182 193.878683 
L 184.652463 186.872723 
L 186.398745 238.632159 
L 188.145027 257.549819 
L 189.891309 169.106418 
L 191.637591 115.264499 
L 193.383873 218.894701 
L 195.130155 109.458985 
L 196.876437 257.107927 
L 198.622719 231.065397 
L 200.369001 153.310061 
L 202.115283 150.19274 
L 203.861564 104.592043 
L 205.607846 86.10309 
L 207.354128 77.617187 
L 209.10041 104.355657 
L 210.846692 241.554467 
L 212.592974 182.577356 
L 214.339256 128.399577 
L 216.085538 141.661124 
L 217.83182 170.000597 
L 219.578102 146.767237 
L 221.324384 64.217631 
L 223.070666 111.713701 
L 224.816947 68.920987 
L 226.563229 108.619484 
L 228.309511 136.70963 
L 230.055793 170.739702 
L 231.802075 174.609165 
L 233.548357 171.361966 
L 235.294639 191.277854 
L 237.040921 46.805746 
L 238.787203 69.252757 
L 240.533485 187.700023 
L 242.279767 170.550321 
L 244.026048 91.249838 
L 245.77233 232.255266 
L 247.518612 95.752932 
L 249.264894 79.651977 
L 251.011176 131.596389 
L 252.757458 164.682227 
L 254.50374 225.442463 
L 256.250022 217.268918 
L 257.996304 186.189174 
L 259.742586 182.224424 
L 261.488868 249.886277 
L 263.23515 105.716609 
L 264.981431 180.531842 
L 266.727713 78.316268 
L 268.473995 262.695702 
L 270.220277 34.643049 
L 271.966559 112.287377 
L 273.712841 103.46158 
L 275.459123 163.814957 
L 277.205405 123.742181 
L 278.951687 58.469905 
L 280.697969 171.151137 
L 282.444251 80.73181 
L 284.190532 210.317229 
L 285.936814 142.6426 
L 287.683096 129.472064 
L 289.429378 70.129205 
L 291.17566 93.122821 
L 292.921942 258.843343 
L 294.668224 78.718105 
L 296.414506 189.832608 
L 298.160788 197.255952 
L 299.90707 181.946675 
L 301.653352 168.404258 
L 303.399633 174.399332 
L 305.145915 154.007639 
L 306.892197 183.657024 
L 308.638479 152.091799 
L 310.384761 269.451726 
L 312.131043 180.646552 
L 313.877325 156.395141 
L 315.623607 136.237793 
L 317.369889 48.131502 
L 319.116171 195.874203 
L 320.862453 195.799965 
L 322.608735 184.018269 
L 324.355016 164.333043 
L 326.101298 244.961447 
L 327.84758 261.691586 
L 329.593862 111.94874 
L 331.340144 117.828616 
L 333.086426 211.017522 
L 334.832708 189.384141 
L 336.57899 179.259514 
L 338.325272 107.910517 
L 340.071554 141.952776 
L 341.817836 151.89111 
L 343.564117 164.218335 
L 345.310399 199.460248 
L 347.056681 157.957634 
L 348.802963 140.316268 
L 350.549245 154.007143 
L 352.295527 171.914731 
L 354.041809 150.128879 
L 355.788091 206.906783 
L 357.534373 151.109257 
L 359.280655 91.580621 
L 361.026937 114.84238 
L 362.773218 191.009805 
L 364.5195 200.511921 
L 366.265782 200.705337 
L 368.012064 129.900558 
L 369.758346 110.880991 
L 371.504628 188.738501 
L 373.25091 38.967679 
L 374.997192 194.636359 
L 376.743474 177.112514 
L 378.489756 131.336231 
L 380.236038 232.266834 
L 381.98232 145.480777 
L 383.728601 175.837054 
L 385.474883 126.296674 
L 387.221165 84.236285 
L 388.967447 195.479939 
L 390.713729 246.976961 
L 392.460011 73.461714 
L 394.206293 208.883862 
L 395.952575 256.03363 
L 397.698857 274.80046 
L 399.445139 83.510985 
L 401.191421 117.079948 
L 402.937702 92.705345 
L 404.683984 31.586416 
L 406.430266 229.851859 
L 408.176548 174.235846 
L 409.92283 177.40417 
L 411.669112 88.308204 
L 413.415394 118.843359 
L 415.161676 189.610831 
L 416.907958 70.758373 
L 418.65424 113.959263 
L 420.400522 71.313009 
L 422.146804 60.691628 
L 423.893085 164.11799 
L 425.639367 146.165937 
L 427.385649 108.410802 
L 429.131931 176.045417 
L 430.878213 192.638048 
L 432.624495 90.847869 
L 432.624495 90.847869 
" clip-path="url(#p181a9909c6)" style="fill: none; stroke-dasharray: 5.55,2.4; stroke-dashoffset: 0; stroke: #eea219; stroke-width: 1.5"/>
   </g>
   <g id="patch_3">
    <path d="M 67.738889 301.660854 
L 67.738889 10.8 
" style="fill: none; stroke: #000000; stroke-width: 0.8; stroke-linejoin: miter; stroke-linecap: square"/>
   </g>
   <g id="patch_4">
    <path d="M 450 301.660854 
L 450 10.8 
" style="fill: none; stroke: #000000; stroke-width: 0.8; stroke-linejoin: miter; stroke-linecap: square"/>
   </g>
   <g id="patch_5">
    <path d="M 67.738889 301.660854 
L 450 301.660854 
" style="fill: none; stroke: #000000; stroke-width: 0.8; stroke-linejoin: miter; stroke-linecap: square"/>
   </g>
   <g id="patch_6">
    <path d="M 67.738889 10.8 
L 450 10.8 
" style="fill: none; stroke: #000000; stroke-width: 0.8; stroke-linejoin: miter; stroke-linecap: square"/>
   </g>
   <g id="legend_1">
    <g id="patch_7">
     <path d="M 343.198637 296.660854 
L 443 296.660854 
Q 445 296.660854 445 294.660854 
L 445 267.786497 
Q 445 265.786497 443 265.786497 
L 343.198637 265.786497 
Q 341.198637 265.786497 341.198637 267.786497 
L 341.198637 294.660854 
Q 341.198637 296.660854 343.198637 296.660854 
z
" style="fill: #ffffff; opacity: 0.8; stroke: #cccccc; stroke-linejoin: miter"/>
    </g>
    <g id="line2d_18">
     <path d="M 345.198637 273.286497 
L 355.198637 273.286497 
L 365.198637 273.286497 
" style="fill: none; stroke: #3c74ff; stroke-width: 1.5; stroke-linecap: square"/>
    </g>
    <g id="text_18">
     <!-- Real values -->
     <g transform="translate(373.198637 276.786497)scale(0.1 -0.1)">
      <defs>
       <path id="CMSS17-52" d="M 2522 2099 
L 2534 2105 
C 3533 2450 3539 3125 3539 3244 
C 3539 3838 2925 4416 2003 4416 
L 570 4416 
L 570 0 
L 1094 0 
L 1094 2041 
L 2035 2041 
L 3168 0 
L 3706 0 
L 2522 2099 
z
M 1094 2432 
L 1094 4057 
L 1933 4057 
C 2746 4057 3034 3607 3034 3244 
C 3034 2907 2778 2432 1933 2432 
L 1094 2432 
z
" transform="scale(0.015625)"/>
       <path id="CMSS17-65" d="M 2502 1375 
C 2502 1587 2490 2001 2285 2347 
C 2061 2713 1696 2816 1421 2816 
C 755 2816 192 2184 192 1363 
C 192 579 774 -64 1510 -64 
C 1798 -64 2150 19 2470 249 
C 2470 275 2458 414 2451 421 
C 2451 433 2432 629 2432 655 
C 2125 408 1773 326 1517 326 
C 1107 326 666 667 646 1375 
L 2502 1375 
z
M 698 1728 
C 781 2086 1062 2425 1421 2425 
C 1517 2425 1965 2412 2080 1728 
L 698 1728 
z
" transform="scale(0.015625)"/>
       <path id="CMSS17-6c" d="M 947 4416 
L 474 4416 
L 474 0 
L 947 0 
L 947 4416 
z
" transform="scale(0.015625)"/>
       <path id="CMSS17-76" d="M 2675 2752 
L 2176 2752 
L 1747 1555 
C 1613 1164 1421 627 1389 352 
L 1382 352 
C 1370 467 1318 633 1286 748 
C 1248 889 1197 1056 1158 1171 
L 595 2752 
L 83 2752 
L 1094 0 
L 1664 0 
L 2675 2752 
z
" transform="scale(0.015625)"/>
       <path id="CMSS17-73" d="M 2061 2623 
C 1683 2803 1389 2816 1197 2816 
C 742 2816 198 2655 198 2009 
C 198 1363 902 1222 1094 1183 
C 1389 1126 1715 1062 1715 742 
C 1715 339 1254 339 1171 339 
C 915 339 563 409 243 639 
L 166 211 
C 531 0 883 -64 1178 -64 
C 1965 -64 2163 416 2163 780 
C 2163 1094 1984 1305 1862 1401 
C 1651 1567 1574 1587 1050 1695 
C 960 1708 646 1779 646 2067 
C 646 2431 1050 2431 1139 2431 
C 1555 2431 1811 2303 1984 2207 
L 2061 2623 
z
" transform="scale(0.015625)"/>
      </defs>
      <use xlink:href="#CMSS17-52" transform="scale(0.996264)"/>
      <use xlink:href="#CMSS17-65" transform="translate(60.416155 0)scale(0.996264)"/>
      <use xlink:href="#CMSS17-61" transform="translate(102.054977 0)scale(0.996264)"/>
      <use xlink:href="#CMSS17-6c" transform="translate(146.976898 0)scale(0.996264)"/>
      <use xlink:href="#CMSS17-76" transform="translate(200.386733 0)scale(0.996264)"/>
      <use xlink:href="#CMSS17-61" transform="translate(243.386875 0)scale(0.996264)"/>
      <use xlink:href="#CMSS17-6c" transform="translate(288.308796 0)scale(0.996264)"/>
      <use xlink:href="#CMSS17-75" transform="translate(310.489519 0)scale(0.996264)"/>
      <use xlink:href="#CMSS17-65" transform="translate(358.694462 0)scale(0.996264)"/>
      <use xlink:href="#CMSS17-73" transform="translate(400.333284 0)scale(0.996264)"/>
     </g>
    </g>
    <g id="line2d_19">
     <path d="M 345.198637 287.223675 
L 355.198637 287.223675 
L 365.198637 287.223675 
" style="fill: none; stroke-dasharray: 5.55,2.4; stroke-dashoffset: 0; stroke: #eea219; stroke-width: 1.5"/>
    </g>
    <g id="text_19">
     <!-- Predicted values -->
     <g transform="translate(373.198637 290.723675)scale(0.1 -0.1)">
      <defs>
       <path id="CMSS17-50" d="M 2106 1856 
C 2874 1856 3501 2447 3501 3139 
C 3501 3818 2899 4416 2067 4416 
L 570 4416 
L 570 0 
L 1107 0 
L 1107 1856 
L 2106 1856 
z
M 1926 4057 
C 2669 4057 2995 3598 2995 3139 
C 2995 2711 2694 2227 1926 2227 
L 1094 2227 
L 1094 4057 
L 1926 4057 
z
" transform="scale(0.015625)"/>
       <path id="CMSS17-63" d="M 2464 2540 
C 2464 2585 2170 2713 2093 2739 
C 1882 2816 1613 2816 1542 2816 
C 710 2816 211 2092 211 1363 
C 211 595 768 -64 1517 -64 
C 1946 -64 2253 76 2502 243 
L 2464 665 
C 2189 454 1869 339 1523 339 
C 1024 339 698 774 698 1369 
C 698 1830 909 2412 1549 2412 
C 1901 2412 2099 2342 2394 2143 
L 2464 2540 
z
" transform="scale(0.015625)"/>
      </defs>
      <use xlink:href="#CMSS17-50" transform="scale(0.996264)"/>
      <use xlink:href="#CMSS17-72" transform="translate(59.735586 0)scale(0.996264)"/>
      <use xlink:href="#CMSS17-65" transform="translate(91.645359 0)scale(0.996264)"/>
      <use xlink:href="#CMSS17-64" transform="translate(133.284181 0)scale(0.996264)"/>
      <use xlink:href="#CMSS17-69" transform="translate(181.489124 0)scale(0.996264)"/>
      <use xlink:href="#CMSS17-63" transform="translate(203.669847 0)scale(0.996264)"/>
      <use xlink:href="#CMSS17-74" transform="translate(245.308669 0)scale(0.996264)"/>
      <use xlink:href="#CMSS17-65" transform="translate(279.140236 0)scale(0.996264)"/>
      <use xlink:href="#CMSS17-64" transform="translate(320.779058 0)scale(0.996264)"/>
      <use xlink:href="#CMSS17-76" transform="translate(400.213114 0)scale(0.996264)"/>
      <use xlink:href="#CMSS17-61" transform="translate(443.213255 0)scale(0.996264)"/>
      <use xlink:href="#CMSS17-6c" transform="translate(488.135176 0)scale(0.996264)"/>
      <use xlink:href="#CMSS17-75" transform="translate(510.315899 0)scale(0.996264)"/>
      <use xlink:href="#CMSS17-65" transform="translate(558.520842 0)scale(0.996264)"/>
      <use xlink:href="#CMSS17-73" transform="translate(600.159664 0)scale(0.996264)"/>
     </g>
    </g>
   </g>
  </g>
 </g>
 <defs>
  <clipPath id="p181a9909c6">
   <rect x="67.738889" y="10.8" width="382.261111" height="290.860854"/>
  </clipPath>
 </defs>
</svg>
