<?xml version="1.0" encoding="utf-8" standalone="no"?>
<!DOCTYPE svg PUBLIC "-//W3C//DTD SVG 1.1//EN"
  "http://www.w3.org/Graphics/SVG/1.1/DTD/svg11.dtd">
<svg xmlns:xlink="http://www.w3.org/1999/xlink" width="460.8pt" height="345.6pt" viewBox="0 0 460.8 345.6" xmlns="http://www.w3.org/2000/svg" version="1.1">
 <metadata>
  <rdf:RDF xmlns:dc="http://purl.org/dc/elements/1.1/" xmlns:cc="http://creativecommons.org/ns#" xmlns:rdf="http://www.w3.org/1999/02/22-rdf-syntax-ns#">
   <cc:Work>
    <dc:type rdf:resource="http://purl.org/dc/dcmitype/StillImage"/>
    <dc:date>2023-03-09T14:04:30.848535</dc:date>
    <dc:format>image/svg+xml</dc:format>
    <dc:creator>
     <cc:Agent>
      <dc:title>Matplotlib v3.5.3, https://matplotlib.org/</dc:title>
     </cc:Agent>
    </dc:creator>
   </cc:Work>
  </rdf:RDF>
 </metadata>
 <defs>
  <style type="text/css">*{stroke-linejoin: round; stroke-linecap: butt}</style>
 </defs>
 <g id="figure_1">
  <g id="patch_1">
   <path d="M 0 345.6 
L 460.8 345.6 
L 460.8 0 
L 0 0 
z
" style="fill: #ffffff"/>
  </g>
  <g id="axes_1">
   <g id="patch_2">
    <path d="M 67.738889 301.660854 
L 450 301.660854 
L 450 10.8 
L 67.738889 10.8 
z
" style="fill: #ffffff"/>
   </g>
   <g id="matplotlib.axis_1">
    <g id="xtick_1">
     <g id="line2d_1">
      <defs>
       <path id="mf916b42998" d="M 0 0 
L 0 3.5 
" style="stroke: #000000; stroke-width: 0.8"/>
      </defs>
      <g>
       <use xlink:href="#mf916b42998" x="85.114394" y="301.660854" style="stroke: #000000; stroke-width: 0.8"/>
      </g>
     </g>
     <g id="text_1">
      <!-- $\mathdefault{0}$ -->
      <g transform="translate(82.623727 315.579352)scale(0.1 -0.1)">
       <defs>
        <path id="CMR17-30" d="M 2688 2038 
C 2688 2430 2682 3099 2413 3613 
C 2176 4063 1798 4224 1466 4224 
C 1158 4224 768 4082 525 3620 
C 269 3137 243 2539 243 2038 
C 243 1671 250 1112 448 623 
C 723 -39 1216 -128 1466 -128 
C 1760 -128 2208 -7 2470 604 
C 2662 1048 2688 1568 2688 2038 
z
M 1466 -26 
C 1056 -26 813 328 723 816 
C 653 1196 653 1749 653 2109 
C 653 2604 653 3015 736 3407 
C 858 3954 1216 4121 1466 4121 
C 1728 4121 2067 3947 2189 3420 
C 2272 3054 2278 2623 2278 2109 
C 2278 1691 2278 1176 2202 797 
C 2067 96 1690 -26 1466 -26 
z
" transform="scale(0.015625)"/>
       </defs>
       <use xlink:href="#CMR17-30" transform="scale(0.996264)"/>
      </g>
     </g>
    </g>
    <g id="xtick_2">
     <g id="line2d_2">
      <g>
       <use xlink:href="#mf916b42998" x="128.771442" y="301.660854" style="stroke: #000000; stroke-width: 0.8"/>
      </g>
     </g>
     <g id="text_2">
      <!-- $\mathdefault{25}$ -->
      <g transform="translate(123.790107 315.579352)scale(0.1 -0.1)">
       <defs>
        <path id="CMR17-32" d="M 2669 990 
L 2554 990 
C 2490 537 2438 460 2413 422 
C 2381 371 1920 371 1830 371 
L 602 371 
C 832 620 1280 1073 1824 1596 
C 2214 1966 2669 2400 2669 3033 
C 2669 3788 2067 4224 1395 4224 
C 691 4224 262 3603 262 3027 
C 262 2777 448 2745 525 2745 
C 589 2745 781 2783 781 3007 
C 781 3206 614 3264 525 3264 
C 486 3264 448 3257 422 3244 
C 544 3788 915 4057 1306 4057 
C 1862 4057 2227 3616 2227 3033 
C 2227 2477 1901 1998 1536 1583 
L 262 147 
L 262 0 
L 2515 0 
L 2669 990 
z
" transform="scale(0.015625)"/>
        <path id="CMR17-35" d="M 730 3750 
C 794 3724 1056 3641 1325 3641 
C 1920 3641 2246 3961 2432 4140 
C 2432 4191 2432 4224 2394 4224 
C 2387 4224 2374 4224 2323 4198 
C 2099 4102 1837 4032 1517 4032 
C 1325 4032 1037 4055 723 4191 
C 653 4224 640 4224 634 4224 
C 602 4224 595 4217 595 4090 
L 595 2231 
C 595 2113 595 2080 659 2080 
C 691 2080 704 2093 736 2139 
C 941 2435 1222 2560 1542 2560 
C 1766 2560 2246 2415 2246 1293 
C 2246 1087 2246 716 2054 422 
C 1894 159 1645 25 1370 25 
C 947 25 518 319 403 812 
C 429 806 480 793 506 793 
C 589 793 749 838 749 1036 
C 749 1209 627 1280 506 1280 
C 358 1280 262 1190 262 1011 
C 262 454 704 -128 1382 -128 
C 2042 -128 2669 441 2669 1267 
C 2669 2054 2170 2662 1549 2662 
C 1222 2662 947 2540 730 2304 
L 730 3750 
z
" transform="scale(0.015625)"/>
       </defs>
       <use xlink:href="#CMR17-32" transform="scale(0.996264)"/>
       <use xlink:href="#CMR17-35" transform="translate(45.690477 0)scale(0.996264)"/>
      </g>
     </g>
    </g>
    <g id="xtick_3">
     <g id="line2d_3">
      <g>
       <use xlink:href="#mf916b42998" x="172.42849" y="301.660854" style="stroke: #000000; stroke-width: 0.8"/>
      </g>
     </g>
     <g id="text_3">
      <!-- $\mathdefault{50}$ -->
      <g transform="translate(167.447155 315.579352)scale(0.1 -0.1)">
       <use xlink:href="#CMR17-35" transform="scale(0.996264)"/>
       <use xlink:href="#CMR17-30" transform="translate(45.690477 0)scale(0.996264)"/>
      </g>
     </g>
    </g>
    <g id="xtick_4">
     <g id="line2d_4">
      <g>
       <use xlink:href="#mf916b42998" x="216.085538" y="301.660854" style="stroke: #000000; stroke-width: 0.8"/>
      </g>
     </g>
     <g id="text_4">
      <!-- $\mathdefault{75}$ -->
      <g transform="translate(211.104203 315.579352)scale(0.1 -0.1)">
       <defs>
        <path id="CMR17-37" d="M 2886 3955 
L 2886 4096 
L 1382 4096 
C 634 4096 621 4166 595 4288 
L 480 4288 
L 294 3104 
L 410 3104 
C 429 3226 474 3552 550 3673 
C 589 3724 1062 3724 1171 3724 
L 2579 3724 
L 1869 2670 
C 1395 1961 1069 1003 1069 166 
C 1069 89 1069 -128 1299 -128 
C 1530 -128 1530 89 1530 172 
L 1530 466 
C 1530 1514 1709 2204 2003 2644 
L 2886 3955 
z
" transform="scale(0.015625)"/>
       </defs>
       <use xlink:href="#CMR17-37" transform="scale(0.996264)"/>
       <use xlink:href="#CMR17-35" transform="translate(45.690477 0)scale(0.996264)"/>
      </g>
     </g>
    </g>
    <g id="xtick_5">
     <g id="line2d_5">
      <g>
       <use xlink:href="#mf916b42998" x="259.742586" y="301.660854" style="stroke: #000000; stroke-width: 0.8"/>
      </g>
     </g>
     <g id="text_5">
      <!-- $\mathdefault{100}$ -->
      <g transform="translate(252.270583 315.579352)scale(0.1 -0.1)">
       <defs>
        <path id="CMR17-31" d="M 1702 4083 
C 1702 4217 1696 4224 1606 4224 
C 1357 3927 979 3833 621 3820 
C 602 3820 570 3820 563 3808 
C 557 3795 557 3782 557 3648 
C 755 3648 1088 3686 1344 3839 
L 1344 467 
C 1344 243 1331 166 781 166 
L 589 166 
L 589 0 
C 896 6 1216 12 1523 12 
C 1830 12 2150 6 2458 0 
L 2458 166 
L 2266 166 
C 1715 166 1702 236 1702 467 
L 1702 4083 
z
" transform="scale(0.015625)"/>
       </defs>
       <use xlink:href="#CMR17-31" transform="scale(0.996264)"/>
       <use xlink:href="#CMR17-30" transform="translate(45.690477 0)scale(0.996264)"/>
       <use xlink:href="#CMR17-30" transform="translate(91.380954 0)scale(0.996264)"/>
      </g>
     </g>
    </g>
    <g id="xtick_6">
     <g id="line2d_6">
      <g>
       <use xlink:href="#mf916b42998" x="303.399633" y="301.660854" style="stroke: #000000; stroke-width: 0.8"/>
      </g>
     </g>
     <g id="text_6">
      <!-- $\mathdefault{125}$ -->
      <g transform="translate(295.927631 315.579352)scale(0.1 -0.1)">
       <use xlink:href="#CMR17-31" transform="scale(0.996264)"/>
       <use xlink:href="#CMR17-32" transform="translate(45.690477 0)scale(0.996264)"/>
       <use xlink:href="#CMR17-35" transform="translate(91.380954 0)scale(0.996264)"/>
      </g>
     </g>
    </g>
    <g id="xtick_7">
     <g id="line2d_7">
      <g>
       <use xlink:href="#mf916b42998" x="347.056681" y="301.660854" style="stroke: #000000; stroke-width: 0.8"/>
      </g>
     </g>
     <g id="text_7">
      <!-- $\mathdefault{150}$ -->
      <g transform="translate(339.584678 315.579352)scale(0.1 -0.1)">
       <use xlink:href="#CMR17-31" transform="scale(0.996264)"/>
       <use xlink:href="#CMR17-35" transform="translate(45.690477 0)scale(0.996264)"/>
       <use xlink:href="#CMR17-30" transform="translate(91.380954 0)scale(0.996264)"/>
      </g>
     </g>
    </g>
    <g id="xtick_8">
     <g id="line2d_8">
      <g>
       <use xlink:href="#mf916b42998" x="390.713729" y="301.660854" style="stroke: #000000; stroke-width: 0.8"/>
      </g>
     </g>
     <g id="text_8">
      <!-- $\mathdefault{175}$ -->
      <g transform="translate(383.241726 315.579352)scale(0.1 -0.1)">
       <use xlink:href="#CMR17-31" transform="scale(0.996264)"/>
       <use xlink:href="#CMR17-37" transform="translate(45.690477 0)scale(0.996264)"/>
       <use xlink:href="#CMR17-35" transform="translate(91.380954 0)scale(0.996264)"/>
      </g>
     </g>
    </g>
    <g id="xtick_9">
     <g id="line2d_9">
      <g>
       <use xlink:href="#mf916b42998" x="434.370777" y="301.660854" style="stroke: #000000; stroke-width: 0.8"/>
      </g>
     </g>
     <g id="text_9">
      <!-- $\mathdefault{200}$ -->
      <g transform="translate(426.898774 315.579352)scale(0.1 -0.1)">
       <use xlink:href="#CMR17-32" transform="scale(0.996264)"/>
       <use xlink:href="#CMR17-30" transform="translate(45.690477 0)scale(0.996264)"/>
       <use xlink:href="#CMR17-30" transform="translate(91.380954 0)scale(0.996264)"/>
      </g>
     </g>
    </g>
    <g id="text_10">
     <!-- Boundary Data -->
     <g transform="translate(212.615514 331.894255)scale(0.15 -0.15)">
      <defs>
       <path id="CMSS17-42" d="M 570 4416 
L 570 0 
L 2163 0 
C 3034 0 3667 575 3667 1200 
C 3667 1684 3251 2175 2502 2316 
C 3334 2559 3501 3039 3501 3311 
C 3501 3880 2874 4416 1997 4416 
L 570 4416 
z
M 1088 2496 
L 1088 4057 
L 1824 4057 
C 2483 4057 3002 3722 3002 3305 
C 3002 2925 2592 2496 1766 2496 
L 1088 2496 
z
M 1088 358 
L 1088 2105 
L 1939 2105 
C 2630 2105 3162 1678 3162 1206 
C 3162 772 2694 358 1984 358 
L 1088 358 
z
" transform="scale(0.015625)"/>
       <path id="CMSS17-6f" d="M 2829 1356 
C 2829 2175 2221 2816 1504 2816 
C 768 2816 173 2156 173 1356 
C 173 544 787 -64 1498 -64 
C 2227 -64 2829 563 2829 1356 
z
M 1504 339 
C 1050 339 659 710 659 1407 
C 659 2150 1114 2425 1498 2425 
C 1914 2425 2342 2124 2342 1407 
C 2342 684 1926 339 1504 339 
z
" transform="scale(0.015625)"/>
       <path id="CMSS17-75" d="M 2618 2752 
L 2131 2752 
L 2131 976 
C 2131 500 1786 307 1421 307 
C 998 307 960 448 960 712 
L 960 2752 
L 474 2752 
L 474 680 
C 474 179 646 -64 1088 -64 
C 1306 -64 1798 -13 2144 307 
L 2144 -13 
L 2618 -13 
L 2618 2752 
z
" transform="scale(0.015625)"/>
       <path id="CMSS17-6e" d="M 2618 1878 
C 2618 2283 2522 2816 1798 2816 
C 1389 2816 1120 2604 941 2386 
L 941 2783 
L 474 2783 
L 474 0 
L 960 0 
L 960 1556 
C 960 1962 1114 2425 1549 2425 
C 2112 2425 2131 2045 2131 1826 
L 2131 0 
L 2618 0 
L 2618 1878 
z
" transform="scale(0.015625)"/>
       <path id="CMSS17-64" d="M 2611 4416 
L 2138 4416 
L 2138 2495 
C 1939 2662 1613 2816 1254 2816 
C 672 2816 211 2179 211 1375 
C 211 572 666 -64 1235 -64 
C 1677 -64 1971 172 2125 307 
L 2125 -13 
L 2611 -13 
L 2611 4416 
z
M 2125 851 
C 2125 760 2125 663 1926 488 
C 1798 378 1645 326 1498 326 
C 1152 326 698 585 698 1369 
C 698 2185 1210 2425 1562 2425 
C 1798 2425 1990 2308 2125 2114 
L 2125 851 
z
" transform="scale(0.015625)"/>
       <path id="CMSS17-61" d="M 2406 1789 
C 2406 2399 1978 2816 1402 2816 
C 1120 2816 813 2764 461 2559 
L 499 2133 
C 659 2250 934 2438 1395 2438 
C 1722 2438 1920 2185 1920 1782 
L 1920 1536 
C 896 1504 256 1209 256 711 
C 256 452 416 -64 947 -64 
C 1043 -64 1562 -52 1933 224 
L 1933 -13 
L 2406 -13 
L 2406 1789 
z
M 1920 824 
C 1920 711 1920 559 1728 446 
C 1562 339 1350 326 1261 326 
C 941 326 723 503 723 723 
C 723 1165 1722 1209 1920 1216 
L 1920 824 
z
" transform="scale(0.015625)"/>
       <path id="CMSS17-72" d="M 954 1369 
C 954 1974 1395 2379 1958 2392 
L 1958 2816 
C 1549 2809 1165 2604 934 2270 
L 934 2783 
L 480 2783 
L 480 0 
L 954 0 
L 954 1369 
z
" transform="scale(0.015625)"/>
       <path id="CMSS17-79" d="M 2675 2752 
L 2176 2752 
C 1632 1293 1446 701 1434 383 
L 1427 383 
C 1408 695 1126 1459 902 2006 
L 602 2752 
L 83 2752 
L 1216 14 
C 1146 -177 1043 -464 1011 -527 
C 870 -884 774 -884 672 -884 
C 646 -884 442 -877 211 -807 
L 250 -1229 
C 410 -1261 570 -1280 685 -1280 
C 845 -1280 1165 -1280 1459 -495 
L 2675 2752 
z
" transform="scale(0.015625)"/>
       <path id="CMSS17-44" d="M 570 4416 
L 570 0 
L 2144 0 
C 3194 0 4000 981 4000 2169 
C 4000 3396 3194 4416 2144 4416 
L 570 4416 
z
M 1094 358 
L 1094 4057 
L 2003 4057 
C 2861 4057 3475 3275 3475 2169 
C 3475 1108 2867 358 2003 358 
L 1094 358 
z
" transform="scale(0.015625)"/>
       <path id="CMSS17-74" d="M 1069 2380 
L 1901 2380 
L 1901 2752 
L 1069 2752 
L 1069 3520 
L 614 3520 
L 614 2752 
L 109 2752 
L 109 2380 
L 602 2380 
L 602 751 
C 602 384 685 -64 1107 -64 
C 1427 -64 1722 25 2003 172 
L 1901 551 
C 1747 416 1562 339 1363 339 
C 1082 339 1069 699 1069 860 
L 1069 2380 
z
" transform="scale(0.015625)"/>
      </defs>
      <use xlink:href="#CMSS17-42" transform="scale(0.996264)"/>
      <use xlink:href="#CMSS17-6f" transform="translate(62.33804 0)scale(0.996264)"/>
      <use xlink:href="#CMSS17-75" transform="translate(109.181664 0)scale(0.996264)"/>
      <use xlink:href="#CMSS17-6e" transform="translate(157.386607 0)scale(0.996264)"/>
      <use xlink:href="#CMSS17-64" transform="translate(205.59155 0)scale(0.996264)"/>
      <use xlink:href="#CMSS17-61" transform="translate(253.796493 0)scale(0.996264)"/>
      <use xlink:href="#CMSS17-72" transform="translate(296.11596 0)scale(0.996264)"/>
      <use xlink:href="#CMSS17-79" transform="translate(328.025732 0)scale(0.996264)"/>
      <use xlink:href="#CMSS17-44" transform="translate(402.254987 0)scale(0.996264)"/>
      <use xlink:href="#CMSS17-61" transform="translate(469.797828 0)scale(0.996264)"/>
      <use xlink:href="#CMSS17-74" transform="translate(514.719749 0)scale(0.996264)"/>
      <use xlink:href="#CMSS17-61" transform="translate(548.551316 0)scale(0.996264)"/>
     </g>
    </g>
   </g>
   <g id="matplotlib.axis_2">
    <g id="ytick_1">
     <g id="line2d_10">
      <defs>
       <path id="ma41409a33c" d="M 0 0 
L -3.5 0 
" style="stroke: #000000; stroke-width: 0.8"/>
      </defs>
      <g>
       <use xlink:href="#ma41409a33c" x="67.738889" y="259.431937" style="stroke: #000000; stroke-width: 0.8"/>
      </g>
     </g>
     <g id="text_11">
      <!-- $\mathdefault{0.00040}$ -->
      <g transform="translate(28.083469 262.891186)scale(0.1 -0.1)">
       <defs>
        <path id="CMMI12-3a" d="M 1178 307 
C 1178 492 1024 620 870 620 
C 685 620 557 467 557 313 
C 557 128 710 0 864 0 
C 1050 0 1178 153 1178 307 
z
" transform="scale(0.015625)"/>
        <path id="CMR17-34" d="M 2150 4147 
C 2150 4281 2144 4288 2029 4288 
L 128 1254 
L 128 1088 
L 1779 1088 
L 1779 460 
C 1779 230 1766 166 1318 166 
L 1197 166 
L 1197 0 
C 1402 12 1747 12 1965 12 
C 2182 12 2528 12 2733 0 
L 2733 166 
L 2611 166 
C 2163 166 2150 230 2150 460 
L 2150 1088 
L 2803 1088 
L 2803 1254 
L 2150 1254 
L 2150 4147 
z
M 1798 3723 
L 1798 1254 
L 256 1254 
L 1798 3723 
z
" transform="scale(0.015625)"/>
       </defs>
       <use xlink:href="#CMR17-30" transform="scale(0.996264)"/>
       <use xlink:href="#CMMI12-3a" transform="translate(45.690477 0)scale(0.996264)"/>
       <use xlink:href="#CMR17-30" transform="translate(72.787654 0)scale(0.996264)"/>
       <use xlink:href="#CMR17-30" transform="translate(118.478131 0)scale(0.996264)"/>
       <use xlink:href="#CMR17-30" transform="translate(164.168608 0)scale(0.996264)"/>
       <use xlink:href="#CMR17-34" transform="translate(209.859086 0)scale(0.996264)"/>
       <use xlink:href="#CMR17-30" transform="translate(255.549563 0)scale(0.996264)"/>
      </g>
     </g>
    </g>
    <g id="ytick_2">
     <g id="line2d_11">
      <g>
       <use xlink:href="#ma41409a33c" x="67.738889" y="216.150592" style="stroke: #000000; stroke-width: 0.8"/>
      </g>
     </g>
     <g id="text_12">
      <!-- $\mathdefault{0.00045}$ -->
      <g transform="translate(28.083469 219.609841)scale(0.1 -0.1)">
       <use xlink:href="#CMR17-30" transform="scale(0.996264)"/>
       <use xlink:href="#CMMI12-3a" transform="translate(45.690477 0)scale(0.996264)"/>
       <use xlink:href="#CMR17-30" transform="translate(72.787654 0)scale(0.996264)"/>
       <use xlink:href="#CMR17-30" transform="translate(118.478131 0)scale(0.996264)"/>
       <use xlink:href="#CMR17-30" transform="translate(164.168608 0)scale(0.996264)"/>
       <use xlink:href="#CMR17-34" transform="translate(209.859086 0)scale(0.996264)"/>
       <use xlink:href="#CMR17-35" transform="translate(255.549563 0)scale(0.996264)"/>
      </g>
     </g>
    </g>
    <g id="ytick_3">
     <g id="line2d_12">
      <g>
       <use xlink:href="#ma41409a33c" x="67.738889" y="172.869247" style="stroke: #000000; stroke-width: 0.8"/>
      </g>
     </g>
     <g id="text_13">
      <!-- $\mathdefault{0.00050}$ -->
      <g transform="translate(28.083469 176.328496)scale(0.1 -0.1)">
       <use xlink:href="#CMR17-30" transform="scale(0.996264)"/>
       <use xlink:href="#CMMI12-3a" transform="translate(45.690477 0)scale(0.996264)"/>
       <use xlink:href="#CMR17-30" transform="translate(72.787654 0)scale(0.996264)"/>
       <use xlink:href="#CMR17-30" transform="translate(118.478131 0)scale(0.996264)"/>
       <use xlink:href="#CMR17-30" transform="translate(164.168608 0)scale(0.996264)"/>
       <use xlink:href="#CMR17-35" transform="translate(209.859086 0)scale(0.996264)"/>
       <use xlink:href="#CMR17-30" transform="translate(255.549563 0)scale(0.996264)"/>
      </g>
     </g>
    </g>
    <g id="ytick_4">
     <g id="line2d_13">
      <g>
       <use xlink:href="#ma41409a33c" x="67.738889" y="129.587902" style="stroke: #000000; stroke-width: 0.8"/>
      </g>
     </g>
     <g id="text_14">
      <!-- $\mathdefault{0.00055}$ -->
      <g transform="translate(28.083469 133.047151)scale(0.1 -0.1)">
       <use xlink:href="#CMR17-30" transform="scale(0.996264)"/>
       <use xlink:href="#CMMI12-3a" transform="translate(45.690477 0)scale(0.996264)"/>
       <use xlink:href="#CMR17-30" transform="translate(72.787654 0)scale(0.996264)"/>
       <use xlink:href="#CMR17-30" transform="translate(118.478131 0)scale(0.996264)"/>
       <use xlink:href="#CMR17-30" transform="translate(164.168608 0)scale(0.996264)"/>
       <use xlink:href="#CMR17-35" transform="translate(209.859086 0)scale(0.996264)"/>
       <use xlink:href="#CMR17-35" transform="translate(255.549563 0)scale(0.996264)"/>
      </g>
     </g>
    </g>
    <g id="ytick_5">
     <g id="line2d_14">
      <g>
       <use xlink:href="#ma41409a33c" x="67.738889" y="86.306557" style="stroke: #000000; stroke-width: 0.8"/>
      </g>
     </g>
     <g id="text_15">
      <!-- $\mathdefault{0.00060}$ -->
      <g transform="translate(28.083469 89.765806)scale(0.1 -0.1)">
       <defs>
        <path id="CMR17-36" d="M 678 2198 
C 678 3712 1395 4076 1811 4076 
C 1946 4076 2272 4049 2400 3782 
C 2298 3782 2106 3782 2106 3558 
C 2106 3385 2246 3328 2336 3328 
C 2394 3328 2566 3353 2566 3571 
C 2566 3987 2246 4224 1805 4224 
C 1043 4224 243 3411 243 2011 
C 243 257 966 -128 1478 -128 
C 2099 -128 2688 431 2688 1295 
C 2688 2101 2170 2688 1517 2688 
C 1126 2688 838 2430 678 1979 
L 678 2198 
z
M 1478 25 
C 691 25 691 1212 691 1450 
C 691 1914 909 2585 1504 2585 
C 1613 2585 1926 2585 2138 2140 
C 2253 1889 2253 1624 2253 1302 
C 2253 954 2253 696 2118 438 
C 1978 173 1773 25 1478 25 
z
" transform="scale(0.015625)"/>
       </defs>
       <use xlink:href="#CMR17-30" transform="scale(0.996264)"/>
       <use xlink:href="#CMMI12-3a" transform="translate(45.690477 0)scale(0.996264)"/>
       <use xlink:href="#CMR17-30" transform="translate(72.787654 0)scale(0.996264)"/>
       <use xlink:href="#CMR17-30" transform="translate(118.478131 0)scale(0.996264)"/>
       <use xlink:href="#CMR17-30" transform="translate(164.168608 0)scale(0.996264)"/>
       <use xlink:href="#CMR17-36" transform="translate(209.859086 0)scale(0.996264)"/>
       <use xlink:href="#CMR17-30" transform="translate(255.549563 0)scale(0.996264)"/>
      </g>
     </g>
    </g>
    <g id="ytick_6">
     <g id="line2d_15">
      <g>
       <use xlink:href="#ma41409a33c" x="67.738889" y="43.025212" style="stroke: #000000; stroke-width: 0.8"/>
      </g>
     </g>
     <g id="text_16">
      <!-- $\mathdefault{0.00065}$ -->
      <g transform="translate(28.083469 46.484462)scale(0.1 -0.1)">
       <use xlink:href="#CMR17-30" transform="scale(0.996264)"/>
       <use xlink:href="#CMMI12-3a" transform="translate(45.690477 0)scale(0.996264)"/>
       <use xlink:href="#CMR17-30" transform="translate(72.787654 0)scale(0.996264)"/>
       <use xlink:href="#CMR17-30" transform="translate(118.478131 0)scale(0.996264)"/>
       <use xlink:href="#CMR17-30" transform="translate(164.168608 0)scale(0.996264)"/>
       <use xlink:href="#CMR17-36" transform="translate(209.859086 0)scale(0.996264)"/>
       <use xlink:href="#CMR17-35" transform="translate(255.549563 0)scale(0.996264)"/>
      </g>
     </g>
    </g>
    <g id="text_17">
     <!-- Strain -->
     <g transform="translate(21.177725 174.399916)rotate(-90)scale(0.15 -0.15)">
      <defs>
       <path id="CMSS17-53" d="M 2797 4230 
C 2515 4396 2208 4544 1690 4544 
C 864 4544 333 3934 333 3309 
C 333 3064 403 2787 653 2504 
C 902 2220 1184 2143 1542 2053 
C 1690 2014 1939 1943 1984 1924 
C 2342 1782 2515 1454 2515 1144 
C 2515 738 2202 307 1645 307 
C 1453 307 890 339 358 829 
L 269 320 
C 794 -64 1363 -128 1651 -128 
C 2438 -128 3002 494 3002 1202 
C 3002 1460 2925 1789 2656 2092 
C 2394 2381 2163 2446 1638 2588 
C 1338 2665 1146 2717 986 2916 
C 877 3058 819 3193 819 3367 
C 819 3728 1126 4121 1690 4121 
C 1971 4121 2336 4063 2707 3715 
L 2797 4230 
z
" transform="scale(0.015625)"/>
       <path id="CMSS17-69" d="M 979 4224 
L 442 4224 
L 442 3686 
L 979 3686 
L 979 4224 
z
M 947 2752 
L 474 2752 
L 474 0 
L 947 0 
L 947 2752 
z
" transform="scale(0.015625)"/>
      </defs>
      <use xlink:href="#CMSS17-53" transform="scale(0.996264)"/>
      <use xlink:href="#CMSS17-74" transform="translate(52.048516 0)scale(0.996264)"/>
      <use xlink:href="#CMSS17-72" transform="translate(85.880083 0)scale(0.996264)"/>
      <use xlink:href="#CMSS17-61" transform="translate(117.789855 0)scale(0.996264)"/>
      <use xlink:href="#CMSS17-69" transform="translate(162.711776 0)scale(0.996264)"/>
      <use xlink:href="#CMSS17-6e" transform="translate(184.892499 0)scale(0.996264)"/>
     </g>
    </g>
   </g>
   <g id="line2d_16">
    <path d="M 85.114394 202.96134 
L 86.860676 61.4687 
L 88.606958 122.690433 
L 90.35324 57.987105 
L 92.099522 188.96494 
L 93.845804 162.644174 
L 95.592086 99.764378 
L 97.338368 77.645672 
L 99.08465 130.824327 
L 100.830932 152.989104 
L 102.577214 227.631451 
L 104.323496 110.345839 
L 106.069777 150.575028 
L 107.816059 179.088437 
L 109.562341 166.246116 
L 111.308623 130.717874 
L 113.054905 208.454594 
L 114.801187 155.71103 
L 116.547469 149.858889 
L 118.293751 128.626293 
L 120.040033 60.936864 
L 121.786315 113.148705 
L 123.532597 118.885207 
L 125.278878 151.631573 
L 127.02516 188.142146 
L 128.771442 252.889309 
L 130.517724 164.229888 
L 132.264006 51.562768 
L 134.010288 202.382632 
L 135.75657 102.042424 
L 137.502852 170.150743 
L 139.249134 167.499816 
L 140.995416 96.65111 
L 142.741698 126.312301 
L 144.487979 94.258463 
L 146.234261 48.501372 
L 147.980543 164.117296 
L 149.726825 157.080298 
L 151.473107 132.147417 
L 153.219389 112.354048 
L 154.965671 67.224028 
L 156.711953 78.284637 
L 158.458235 170.800115 
L 160.204517 230.812449 
L 161.950799 116.083514 
L 163.697081 149.500961 
L 165.443362 160.439237 
L 167.189644 73.243807 
L 168.935926 219.446605 
L 170.682208 106.232113 
L 172.42849 143.24127 
L 174.174772 49.722826 
L 177.667336 229.410391 
L 179.413618 142.584102 
L 181.1599 218.887278 
L 182.906182 101.1503 
L 184.652463 235.580544 
L 186.398745 99.91713 
L 188.145027 152.863392 
L 189.891309 139.353923 
L 191.637591 109.592887 
L 193.383873 118.504806 
L 195.130155 103.879054 
L 196.876437 176.821413 
L 198.622719 54.145645 
L 200.369001 80.538005 
L 202.115283 143.461036 
L 203.861564 79.397553 
L 205.607846 178.523303 
L 207.354128 152.247978 
L 209.10041 67.672403 
L 210.846692 147.161753 
L 212.592974 93.476773 
L 214.339256 128.702406 
L 216.085538 150.806393 
L 217.83182 24.020948 
L 219.578102 131.198365 
L 221.324384 64.399353 
L 223.070666 187.753562 
L 224.816947 238.464093 
L 226.563229 116.024365 
L 228.309511 242.441145 
L 230.055793 78.535639 
L 231.802075 54.544023 
L 233.548357 134.216298 
L 235.294639 48.776574 
L 237.040921 110.899137 
L 238.787203 164.663955 
L 240.533485 29.658329 
L 242.279767 256.797342 
L 244.026048 159.591334 
L 245.77233 95.106225 
L 247.518612 133.5221 
L 249.264894 158.001461 
L 251.011176 36.070262 
L 252.757458 90.119104 
L 254.50374 129.944935 
L 256.250022 157.958204 
L 257.996304 99.407013 
L 259.742586 55.606371 
L 261.488868 256.713177 
L 263.23515 102.836451 
L 264.981431 133.25198 
L 266.727713 138.000528 
L 268.473995 178.451901 
L 270.220277 126.367053 
L 271.966559 209.067107 
L 273.712841 161.065141 
L 275.459123 118.750708 
L 277.205405 104.356198 
L 278.951687 245.110894 
L 280.697969 150.793833 
L 282.444251 233.719846 
L 284.190532 120.350083 
L 285.936814 138.998201 
L 287.683096 110.161502 
L 289.429378 172.030749 
L 291.17566 102.618763 
L 292.921942 53.13029 
L 294.668224 185.529208 
L 296.414506 86.427153 
L 298.160788 135.18038 
L 299.90707 188.858732 
L 301.653352 160.855239 
L 303.399633 101.991721 
L 305.145915 54.734285 
L 306.892197 76.132901 
L 308.638479 101.609473 
L 310.384761 227.690558 
L 312.131043 78.854494 
L 313.877325 38.557448 
L 315.623607 210.185186 
L 317.369889 209.837409 
L 319.116171 159.27519 
L 320.862453 132.102403 
L 322.608735 54.211969 
L 324.355016 166.073751 
L 326.101298 58.948128 
L 327.84758 232.945238 
L 331.340144 104.619417 
L 333.086426 144.267198 
L 334.832708 114.119385 
L 336.57899 206.71657 
L 338.325272 205.801198 
L 340.071554 132.056804 
L 341.817836 140.479417 
L 343.564117 127.227907 
L 345.310399 60.817543 
L 347.056681 153.694709 
L 348.802963 76.818958 
L 350.549245 72.130631 
L 352.295527 141.448193 
L 354.041809 82.192463 
L 355.788091 182.69427 
L 357.534373 97.966251 
L 359.280655 124.595245 
L 361.026937 107.18882 
L 362.773218 155.69145 
L 364.5195 106.041055 
L 366.265782 190.094751 
L 368.012064 131.502034 
L 369.758346 94.783617 
L 371.504628 83.71153 
L 373.25091 224.363349 
L 374.997192 96.294665 
L 376.743474 75.966957 
L 378.489756 63.221609 
L 380.236038 63.584713 
L 381.98232 53.133901 
L 383.728601 127.016918 
L 385.474883 206.192384 
L 387.221165 135.613484 
L 388.967447 253.12798 
L 390.713729 142.981026 
L 392.460011 89.315987 
L 394.206293 181.16559 
L 395.952575 90.13019 
L 397.698857 179.998757 
L 399.445139 156.509407 
L 401.191421 58.40619 
L 402.937702 64.225062 
L 404.683984 165.978926 
L 406.430266 116.076872 
L 408.176548 123.302681 
L 409.92283 62.8074 
L 411.669112 188.831217 
L 413.415394 136.637246 
L 415.161676 73.437289 
L 416.907958 120.550545 
L 418.65424 185.947679 
L 420.400522 58.699671 
L 422.146804 288.439906 
L 423.893085 191.254362 
L 425.639367 87.51328 
L 427.385649 82.690698 
L 429.131931 125.755264 
L 430.878213 98.847893 
L 432.624495 212.825122 
L 432.624495 212.825122 
" clip-path="url(#pee86604e16)" style="fill: none; stroke: #3c74ff; stroke-width: 1.5; stroke-linecap: square"/>
   </g>
   <g id="line2d_17">
    <path d="M 85.114394 201.012822 
L 86.860676 61.960307 
L 88.606958 124.342654 
L 90.35324 66.017499 
L 92.099522 177.317745 
L 93.845804 164.815042 
L 95.592086 99.181727 
L 97.338368 79.170381 
L 99.08465 130.439854 
L 100.830932 154.363191 
L 102.577214 222.267714 
L 104.323496 108.140309 
L 106.069777 150.059641 
L 107.816059 184.479144 
L 109.562341 165.31694 
L 111.308623 130.188147 
L 113.054905 203.502358 
L 114.801187 143.550027 
L 116.547469 160.102813 
L 118.293751 130.527551 
L 120.040033 66.249407 
L 121.786315 119.679124 
L 123.532597 126.397387 
L 125.278878 146.020212 
L 127.02516 194.29133 
L 128.771442 253.943333 
L 130.517724 165.578208 
L 132.264006 45.302233 
L 134.010288 200.377297 
L 135.75657 100.044017 
L 137.502852 166.832404 
L 139.249134 176.827607 
L 140.995416 96.7252 
L 142.741698 127.040155 
L 144.487979 100.100081 
L 146.234261 42.982999 
L 147.980543 164.48257 
L 149.726825 159.113243 
L 151.473107 131.050404 
L 153.219389 119.636984 
L 154.965671 65.551036 
L 156.711953 76.724857 
L 158.458235 172.681539 
L 160.204517 227.904891 
L 161.950799 123.253978 
L 163.697081 148.238254 
L 165.443362 161.888422 
L 167.189644 70.134054 
L 168.935926 213.680852 
L 170.682208 103.768266 
L 172.42849 149.201491 
L 174.174772 57.654959 
L 175.921054 143.957094 
L 177.667336 219.851597 
L 179.413618 138.566036 
L 181.1599 217.977738 
L 182.906182 97.961965 
L 184.652463 239.927661 
L 186.398745 109.76189 
L 188.145027 153.231422 
L 189.891309 140.294882 
L 191.637591 111.448774 
L 193.383873 125.708025 
L 195.130155 104.176541 
L 196.876437 184.009563 
L 198.622719 50.242047 
L 200.369001 89.852209 
L 202.115283 143.151779 
L 203.861564 76.333134 
L 205.607846 175.241946 
L 207.354128 157.092013 
L 209.10041 72.33622 
L 210.846692 150.428279 
L 212.592974 99.090023 
L 214.339256 128.195262 
L 216.085538 152.702139 
L 217.83182 27.358848 
L 219.578102 131.948113 
L 221.324384 68.497121 
L 223.070666 188.547747 
L 224.816947 239.481828 
L 226.563229 115.038177 
L 228.309511 238.884142 
L 230.055793 83.462414 
L 231.802075 57.02684 
L 233.548357 138.848099 
L 235.294639 43.343091 
L 237.040921 109.301306 
L 238.787203 164.338971 
L 240.533485 34.934807 
L 242.279767 245.122331 
L 244.026048 161.024247 
L 245.77233 90.370231 
L 247.518612 132.176388 
L 249.264894 161.450383 
L 251.011176 30.228641 
L 252.757458 93.121805 
L 254.50374 131.761965 
L 256.250022 156.802176 
L 257.996304 91.8901 
L 259.742586 51.706232 
L 261.488868 261.57081 
L 263.23515 103.767498 
L 264.981431 129.481501 
L 266.727713 128.508084 
L 268.473995 169.393236 
L 270.220277 134.867058 
L 271.966559 205.575006 
L 273.712841 156.581529 
L 275.459123 117.20831 
L 277.205405 105.487446 
L 278.951687 252.810577 
L 280.697969 146.98705 
L 282.444251 224.026082 
L 284.190532 122.294473 
L 285.936814 139.514439 
L 287.683096 111.15366 
L 289.429378 163.883249 
L 291.17566 116.265422 
L 292.921942 60.194287 
L 294.668224 177.435339 
L 296.414506 81.00288 
L 299.90707 179.001181 
L 301.653352 163.931602 
L 303.399633 103.925621 
L 305.145915 50.334631 
L 306.892197 89.52019 
L 308.638479 100.228611 
L 310.384761 222.537701 
L 312.131043 78.047141 
L 313.877325 43.622985 
L 315.623607 203.070087 
L 317.369889 201.752832 
L 319.116171 154.543506 
L 320.862453 120.65541 
L 322.608735 61.465929 
L 324.355016 170.775887 
L 326.101298 56.780672 
L 327.84758 230.220932 
L 329.593862 160.335672 
L 331.340144 107.399254 
L 333.086426 144.18573 
L 334.832708 114.092336 
L 336.57899 204.939044 
L 338.325272 218.565961 
L 340.071554 135.477762 
L 341.817836 141.493313 
L 343.564117 132.945573 
L 345.310399 52.048902 
L 347.056681 158.934691 
L 348.802963 75.796086 
L 350.549245 72.640182 
L 352.295527 139.19681 
L 354.041809 88.763812 
L 355.788091 179.42169 
L 357.534373 101.734268 
L 359.280655 126.376089 
L 361.026937 109.084173 
L 362.773218 156.370314 
L 364.5195 106.165355 
L 366.265782 182.900115 
L 368.012064 136.207955 
L 369.758346 99.232915 
L 371.504628 83.991138 
L 373.25091 212.819047 
L 374.997192 88.988617 
L 376.743474 76.327672 
L 378.489756 53.898874 
L 380.236038 60.773394 
L 381.98232 51.072308 
L 385.474883 202.074764 
L 387.221165 139.079684 
L 388.967447 247.376741 
L 390.713729 148.910216 
L 392.460011 90.158453 
L 394.206293 180.888116 
L 395.952575 95.284284 
L 397.698857 178.377852 
L 399.445139 155.731474 
L 401.191421 62.227974 
L 402.937702 64.824239 
L 404.683984 166.734931 
L 406.430266 109.87682 
L 408.176548 114.847095 
L 409.92283 69.530288 
L 411.669112 188.651979 
L 413.415394 132.400176 
L 415.161676 69.619911 
L 416.907958 122.522757 
L 418.65424 190.364781 
L 420.400522 60.140967 
L 422.146804 278.831123 
L 425.639367 92.208953 
L 427.385649 79.825178 
L 429.131931 131.285306 
L 430.878213 101.204939 
L 432.624495 220.324847 
L 432.624495 220.324847 
" clip-path="url(#pee86604e16)" style="fill: none; stroke-dasharray: 5.55,2.4; stroke-dashoffset: 0; stroke: #eea219; stroke-width: 1.5"/>
   </g>
   <g id="patch_3">
    <path d="M 67.738889 301.660854 
L 67.738889 10.8 
" style="fill: none; stroke: #000000; stroke-width: 0.8; stroke-linejoin: miter; stroke-linecap: square"/>
   </g>
   <g id="patch_4">
    <path d="M 450 301.660854 
L 450 10.8 
" style="fill: none; stroke: #000000; stroke-width: 0.8; stroke-linejoin: miter; stroke-linecap: square"/>
   </g>
   <g id="patch_5">
    <path d="M 67.738889 301.660854 
L 450 301.660854 
" style="fill: none; stroke: #000000; stroke-width: 0.8; stroke-linejoin: miter; stroke-linecap: square"/>
   </g>
   <g id="patch_6">
    <path d="M 67.738889 10.8 
L 450 10.8 
" style="fill: none; stroke: #000000; stroke-width: 0.8; stroke-linejoin: miter; stroke-linecap: square"/>
   </g>
   <g id="legend_1">
    <g id="patch_7">
     <path d="M 343.198637 46.674357 
L 443 46.674357 
Q 445 46.674357 445 44.674357 
L 445 17.8 
Q 445 15.8 443 15.8 
L 343.198637 15.8 
Q 341.198637 15.8 341.198637 17.8 
L 341.198637 44.674357 
Q 341.198637 46.674357 343.198637 46.674357 
z
" style="fill: #ffffff; opacity: 0.8; stroke: #cccccc; stroke-linejoin: miter"/>
    </g>
    <g id="line2d_18">
     <path d="M 345.198637 23.3 
L 355.198637 23.3 
L 365.198637 23.3 
" style="fill: none; stroke: #3c74ff; stroke-width: 1.5; stroke-linecap: square"/>
    </g>
    <g id="text_18">
     <!-- Real values -->
     <g transform="translate(373.198637 26.8)scale(0.1 -0.1)">
      <defs>
       <path id="CMSS17-52" d="M 2522 2099 
L 2534 2105 
C 3533 2450 3539 3125 3539 3244 
C 3539 3838 2925 4416 2003 4416 
L 570 4416 
L 570 0 
L 1094 0 
L 1094 2041 
L 2035 2041 
L 3168 0 
L 3706 0 
L 2522 2099 
z
M 1094 2432 
L 1094 4057 
L 1933 4057 
C 2746 4057 3034 3607 3034 3244 
C 3034 2907 2778 2432 1933 2432 
L 1094 2432 
z
" transform="scale(0.015625)"/>
       <path id="CMSS17-65" d="M 2502 1375 
C 2502 1587 2490 2001 2285 2347 
C 2061 2713 1696 2816 1421 2816 
C 755 2816 192 2184 192 1363 
C 192 579 774 -64 1510 -64 
C 1798 -64 2150 19 2470 249 
C 2470 275 2458 414 2451 421 
C 2451 433 2432 629 2432 655 
C 2125 408 1773 326 1517 326 
C 1107 326 666 667 646 1375 
L 2502 1375 
z
M 698 1728 
C 781 2086 1062 2425 1421 2425 
C 1517 2425 1965 2412 2080 1728 
L 698 1728 
z
" transform="scale(0.015625)"/>
       <path id="CMSS17-6c" d="M 947 4416 
L 474 4416 
L 474 0 
L 947 0 
L 947 4416 
z
" transform="scale(0.015625)"/>
       <path id="CMSS17-76" d="M 2675 2752 
L 2176 2752 
L 1747 1555 
C 1613 1164 1421 627 1389 352 
L 1382 352 
C 1370 467 1318 633 1286 748 
C 1248 889 1197 1056 1158 1171 
L 595 2752 
L 83 2752 
L 1094 0 
L 1664 0 
L 2675 2752 
z
" transform="scale(0.015625)"/>
       <path id="CMSS17-73" d="M 2061 2623 
C 1683 2803 1389 2816 1197 2816 
C 742 2816 198 2655 198 2009 
C 198 1363 902 1222 1094 1183 
C 1389 1126 1715 1062 1715 742 
C 1715 339 1254 339 1171 339 
C 915 339 563 409 243 639 
L 166 211 
C 531 0 883 -64 1178 -64 
C 1965 -64 2163 416 2163 780 
C 2163 1094 1984 1305 1862 1401 
C 1651 1567 1574 1587 1050 1695 
C 960 1708 646 1779 646 2067 
C 646 2431 1050 2431 1139 2431 
C 1555 2431 1811 2303 1984 2207 
L 2061 2623 
z
" transform="scale(0.015625)"/>
      </defs>
      <use xlink:href="#CMSS17-52" transform="scale(0.996264)"/>
      <use xlink:href="#CMSS17-65" transform="translate(60.416155 0)scale(0.996264)"/>
      <use xlink:href="#CMSS17-61" transform="translate(102.054977 0)scale(0.996264)"/>
      <use xlink:href="#CMSS17-6c" transform="translate(146.976898 0)scale(0.996264)"/>
      <use xlink:href="#CMSS17-76" transform="translate(200.386733 0)scale(0.996264)"/>
      <use xlink:href="#CMSS17-61" transform="translate(243.386875 0)scale(0.996264)"/>
      <use xlink:href="#CMSS17-6c" transform="translate(288.308796 0)scale(0.996264)"/>
      <use xlink:href="#CMSS17-75" transform="translate(310.489519 0)scale(0.996264)"/>
      <use xlink:href="#CMSS17-65" transform="translate(358.694462 0)scale(0.996264)"/>
      <use xlink:href="#CMSS17-73" transform="translate(400.333284 0)scale(0.996264)"/>
     </g>
    </g>
    <g id="line2d_19">
     <path d="M 345.198637 37.237178 
L 355.198637 37.237178 
L 365.198637 37.237178 
" style="fill: none; stroke-dasharray: 5.55,2.4; stroke-dashoffset: 0; stroke: #eea219; stroke-width: 1.5"/>
    </g>
    <g id="text_19">
     <!-- Predicted values -->
     <g transform="translate(373.198637 40.737178)scale(0.1 -0.1)">
      <defs>
       <path id="CMSS17-50" d="M 2106 1856 
C 2874 1856 3501 2447 3501 3139 
C 3501 3818 2899 4416 2067 4416 
L 570 4416 
L 570 0 
L 1107 0 
L 1107 1856 
L 2106 1856 
z
M 1926 4057 
C 2669 4057 2995 3598 2995 3139 
C 2995 2711 2694 2227 1926 2227 
L 1094 2227 
L 1094 4057 
L 1926 4057 
z
" transform="scale(0.015625)"/>
       <path id="CMSS17-63" d="M 2464 2540 
C 2464 2585 2170 2713 2093 2739 
C 1882 2816 1613 2816 1542 2816 
C 710 2816 211 2092 211 1363 
C 211 595 768 -64 1517 -64 
C 1946 -64 2253 76 2502 243 
L 2464 665 
C 2189 454 1869 339 1523 339 
C 1024 339 698 774 698 1369 
C 698 1830 909 2412 1549 2412 
C 1901 2412 2099 2342 2394 2143 
L 2464 2540 
z
" transform="scale(0.015625)"/>
      </defs>
      <use xlink:href="#CMSS17-50" transform="scale(0.996264)"/>
      <use xlink:href="#CMSS17-72" transform="translate(59.735586 0)scale(0.996264)"/>
      <use xlink:href="#CMSS17-65" transform="translate(91.645359 0)scale(0.996264)"/>
      <use xlink:href="#CMSS17-64" transform="translate(133.284181 0)scale(0.996264)"/>
      <use xlink:href="#CMSS17-69" transform="translate(181.489124 0)scale(0.996264)"/>
      <use xlink:href="#CMSS17-63" transform="translate(203.669847 0)scale(0.996264)"/>
      <use xlink:href="#CMSS17-74" transform="translate(245.308669 0)scale(0.996264)"/>
      <use xlink:href="#CMSS17-65" transform="translate(279.140236 0)scale(0.996264)"/>
      <use xlink:href="#CMSS17-64" transform="translate(320.779058 0)scale(0.996264)"/>
      <use xlink:href="#CMSS17-76" transform="translate(400.213114 0)scale(0.996264)"/>
      <use xlink:href="#CMSS17-61" transform="translate(443.213255 0)scale(0.996264)"/>
      <use xlink:href="#CMSS17-6c" transform="translate(488.135176 0)scale(0.996264)"/>
      <use xlink:href="#CMSS17-75" transform="translate(510.315899 0)scale(0.996264)"/>
      <use xlink:href="#CMSS17-65" transform="translate(558.520842 0)scale(0.996264)"/>
      <use xlink:href="#CMSS17-73" transform="translate(600.159664 0)scale(0.996264)"/>
     </g>
    </g>
   </g>
  </g>
 </g>
 <defs>
  <clipPath id="pee86604e16">
   <rect x="67.738889" y="10.8" width="382.261111" height="290.860854"/>
  </clipPath>
 </defs>
</svg>
