<?xml version="1.0" encoding="utf-8" standalone="no"?>
<!DOCTYPE svg PUBLIC "-//W3C//DTD SVG 1.1//EN"
  "http://www.w3.org/Graphics/SVG/1.1/DTD/svg11.dtd">
<svg xmlns:xlink="http://www.w3.org/1999/xlink" width="460.8pt" height="345.6pt" viewBox="0 0 460.8 345.6" xmlns="http://www.w3.org/2000/svg" version="1.1">
 <metadata>
  <rdf:RDF xmlns:dc="http://purl.org/dc/elements/1.1/" xmlns:cc="http://creativecommons.org/ns#" xmlns:rdf="http://www.w3.org/1999/02/22-rdf-syntax-ns#">
   <cc:Work>
    <dc:type rdf:resource="http://purl.org/dc/dcmitype/StillImage"/>
    <dc:date>2023-03-08T13:08:52.465434</dc:date>
    <dc:format>image/svg+xml</dc:format>
    <dc:creator>
     <cc:Agent>
      <dc:title>Matplotlib v3.5.3, https://matplotlib.org/</dc:title>
     </cc:Agent>
    </dc:creator>
   </cc:Work>
  </rdf:RDF>
 </metadata>
 <defs>
  <style type="text/css">*{stroke-linejoin: round; stroke-linecap: butt}</style>
 </defs>
 <g id="figure_1">
  <g id="patch_1">
   <path d="M 0 345.6 
L 460.8 345.6 
L 460.8 0 
L 0 0 
z
" style="fill: #ffffff"/>
  </g>
  <g id="axes_1">
   <g id="patch_2">
    <path d="M 50.45542 318.944323 
L 450 318.944323 
L 450 10.8 
L 50.45542 10.8 
z
" style="fill: #ffffff"/>
   </g>
   <g id="matplotlib.axis_1">
    <g id="xtick_1">
     <g id="line2d_1">
      <defs>
       <path id="ma8cf145779" d="M 0 0 
L 0 3.5 
" style="stroke: #000000; stroke-width: 0.8"/>
      </defs>
      <g>
       <use xlink:href="#ma8cf145779" x="68.616537" y="318.944323" style="stroke: #000000; stroke-width: 0.8"/>
      </g>
     </g>
     <g id="text_1">
      <!-- $\mathdefault{0}$ -->
      <g transform="translate(66.12587 332.862822)scale(0.1 -0.1)">
       <defs>
        <path id="CMR17-30" d="M 2688 2038 
C 2688 2430 2682 3099 2413 3613 
C 2176 4063 1798 4224 1466 4224 
C 1158 4224 768 4082 525 3620 
C 269 3137 243 2539 243 2038 
C 243 1671 250 1112 448 623 
C 723 -39 1216 -128 1466 -128 
C 1760 -128 2208 -7 2470 604 
C 2662 1048 2688 1568 2688 2038 
z
M 1466 -26 
C 1056 -26 813 328 723 816 
C 653 1196 653 1749 653 2109 
C 653 2604 653 3015 736 3407 
C 858 3954 1216 4121 1466 4121 
C 1728 4121 2067 3947 2189 3420 
C 2272 3054 2278 2623 2278 2109 
C 2278 1691 2278 1176 2202 797 
C 2067 96 1690 -26 1466 -26 
z
" transform="scale(0.015625)"/>
       </defs>
       <use xlink:href="#CMR17-30" transform="scale(0.996264)"/>
      </g>
     </g>
    </g>
    <g id="xtick_2">
     <g id="line2d_2">
      <g>
       <use xlink:href="#ma8cf145779" x="114.133122" y="318.944323" style="stroke: #000000; stroke-width: 0.8"/>
      </g>
     </g>
     <g id="text_2">
      <!-- $\mathdefault{50}$ -->
      <g transform="translate(109.151787 332.862822)scale(0.1 -0.1)">
       <defs>
        <path id="CMR17-35" d="M 730 3750 
C 794 3724 1056 3641 1325 3641 
C 1920 3641 2246 3961 2432 4140 
C 2432 4191 2432 4224 2394 4224 
C 2387 4224 2374 4224 2323 4198 
C 2099 4102 1837 4032 1517 4032 
C 1325 4032 1037 4055 723 4191 
C 653 4224 640 4224 634 4224 
C 602 4224 595 4217 595 4090 
L 595 2231 
C 595 2113 595 2080 659 2080 
C 691 2080 704 2093 736 2139 
C 941 2435 1222 2560 1542 2560 
C 1766 2560 2246 2415 2246 1293 
C 2246 1087 2246 716 2054 422 
C 1894 159 1645 25 1370 25 
C 947 25 518 319 403 812 
C 429 806 480 793 506 793 
C 589 793 749 838 749 1036 
C 749 1209 627 1280 506 1280 
C 358 1280 262 1190 262 1011 
C 262 454 704 -128 1382 -128 
C 2042 -128 2669 441 2669 1267 
C 2669 2054 2170 2662 1549 2662 
C 1222 2662 947 2540 730 2304 
L 730 3750 
z
" transform="scale(0.015625)"/>
       </defs>
       <use xlink:href="#CMR17-35" transform="scale(0.996264)"/>
       <use xlink:href="#CMR17-30" transform="translate(45.690477 0)scale(0.996264)"/>
      </g>
     </g>
    </g>
    <g id="xtick_3">
     <g id="line2d_3">
      <g>
       <use xlink:href="#ma8cf145779" x="159.649707" y="318.944323" style="stroke: #000000; stroke-width: 0.8"/>
      </g>
     </g>
     <g id="text_3">
      <!-- $\mathdefault{100}$ -->
      <g transform="translate(152.177704 332.862822)scale(0.1 -0.1)">
       <defs>
        <path id="CMR17-31" d="M 1702 4083 
C 1702 4217 1696 4224 1606 4224 
C 1357 3927 979 3833 621 3820 
C 602 3820 570 3820 563 3808 
C 557 3795 557 3782 557 3648 
C 755 3648 1088 3686 1344 3839 
L 1344 467 
C 1344 243 1331 166 781 166 
L 589 166 
L 589 0 
C 896 6 1216 12 1523 12 
C 1830 12 2150 6 2458 0 
L 2458 166 
L 2266 166 
C 1715 166 1702 236 1702 467 
L 1702 4083 
z
" transform="scale(0.015625)"/>
       </defs>
       <use xlink:href="#CMR17-31" transform="scale(0.996264)"/>
       <use xlink:href="#CMR17-30" transform="translate(45.690477 0)scale(0.996264)"/>
       <use xlink:href="#CMR17-30" transform="translate(91.380954 0)scale(0.996264)"/>
      </g>
     </g>
    </g>
    <g id="xtick_4">
     <g id="line2d_4">
      <g>
       <use xlink:href="#ma8cf145779" x="205.166291" y="318.944323" style="stroke: #000000; stroke-width: 0.8"/>
      </g>
     </g>
     <g id="text_4">
      <!-- $\mathdefault{150}$ -->
      <g transform="translate(197.694288 332.862822)scale(0.1 -0.1)">
       <use xlink:href="#CMR17-31" transform="scale(0.996264)"/>
       <use xlink:href="#CMR17-35" transform="translate(45.690477 0)scale(0.996264)"/>
       <use xlink:href="#CMR17-30" transform="translate(91.380954 0)scale(0.996264)"/>
      </g>
     </g>
    </g>
    <g id="xtick_5">
     <g id="line2d_5">
      <g>
       <use xlink:href="#ma8cf145779" x="250.682876" y="318.944323" style="stroke: #000000; stroke-width: 0.8"/>
      </g>
     </g>
     <g id="text_5">
      <!-- $\mathdefault{200}$ -->
      <g transform="translate(243.210873 332.862822)scale(0.1 -0.1)">
       <defs>
        <path id="CMR17-32" d="M 2669 990 
L 2554 990 
C 2490 537 2438 460 2413 422 
C 2381 371 1920 371 1830 371 
L 602 371 
C 832 620 1280 1073 1824 1596 
C 2214 1966 2669 2400 2669 3033 
C 2669 3788 2067 4224 1395 4224 
C 691 4224 262 3603 262 3027 
C 262 2777 448 2745 525 2745 
C 589 2745 781 2783 781 3007 
C 781 3206 614 3264 525 3264 
C 486 3264 448 3257 422 3244 
C 544 3788 915 4057 1306 4057 
C 1862 4057 2227 3616 2227 3033 
C 2227 2477 1901 1998 1536 1583 
L 262 147 
L 262 0 
L 2515 0 
L 2669 990 
z
" transform="scale(0.015625)"/>
       </defs>
       <use xlink:href="#CMR17-32" transform="scale(0.996264)"/>
       <use xlink:href="#CMR17-30" transform="translate(45.690477 0)scale(0.996264)"/>
       <use xlink:href="#CMR17-30" transform="translate(91.380954 0)scale(0.996264)"/>
      </g>
     </g>
    </g>
    <g id="xtick_6">
     <g id="line2d_6">
      <g>
       <use xlink:href="#ma8cf145779" x="296.19946" y="318.944323" style="stroke: #000000; stroke-width: 0.8"/>
      </g>
     </g>
     <g id="text_6">
      <!-- $\mathdefault{250}$ -->
      <g transform="translate(288.727458 332.862822)scale(0.1 -0.1)">
       <use xlink:href="#CMR17-32" transform="scale(0.996264)"/>
       <use xlink:href="#CMR17-35" transform="translate(45.690477 0)scale(0.996264)"/>
       <use xlink:href="#CMR17-30" transform="translate(91.380954 0)scale(0.996264)"/>
      </g>
     </g>
    </g>
    <g id="xtick_7">
     <g id="line2d_7">
      <g>
       <use xlink:href="#ma8cf145779" x="341.716045" y="318.944323" style="stroke: #000000; stroke-width: 0.8"/>
      </g>
     </g>
     <g id="text_7">
      <!-- $\mathdefault{300}$ -->
      <g transform="translate(334.244042 332.862822)scale(0.1 -0.1)">
       <defs>
        <path id="CMR17-33" d="M 1414 2176 
C 1984 2176 2234 1673 2234 1094 
C 2234 322 1824 25 1453 25 
C 1114 25 563 193 390 691 
C 422 678 454 678 486 678 
C 640 678 755 780 755 947 
C 755 1132 614 1216 486 1216 
C 378 1216 211 1164 211 927 
C 211 335 787 -128 1466 -128 
C 2176 -128 2720 432 2720 1087 
C 2720 1718 2208 2176 1600 2246 
C 2086 2347 2554 2776 2554 3353 
C 2554 3856 2048 4224 1472 4224 
C 890 4224 378 3862 378 3347 
C 378 3123 544 3084 627 3084 
C 762 3084 877 3167 877 3334 
C 877 3500 762 3584 627 3584 
C 602 3584 570 3584 544 3571 
C 730 3999 1235 4076 1459 4076 
C 1683 4076 2106 3966 2106 3347 
C 2106 3167 2080 2851 1862 2574 
C 1670 2329 1453 2316 1242 2297 
C 1210 2297 1062 2284 1037 2284 
C 992 2278 966 2272 966 2227 
C 966 2182 973 2176 1101 2176 
L 1414 2176 
z
" transform="scale(0.015625)"/>
       </defs>
       <use xlink:href="#CMR17-33" transform="scale(0.996264)"/>
       <use xlink:href="#CMR17-30" transform="translate(45.690477 0)scale(0.996264)"/>
       <use xlink:href="#CMR17-30" transform="translate(91.380954 0)scale(0.996264)"/>
      </g>
     </g>
    </g>
    <g id="xtick_8">
     <g id="line2d_8">
      <g>
       <use xlink:href="#ma8cf145779" x="387.23263" y="318.944323" style="stroke: #000000; stroke-width: 0.8"/>
      </g>
     </g>
     <g id="text_8">
      <!-- $\mathdefault{350}$ -->
      <g transform="translate(379.760627 332.862822)scale(0.1 -0.1)">
       <use xlink:href="#CMR17-33" transform="scale(0.996264)"/>
       <use xlink:href="#CMR17-35" transform="translate(45.690477 0)scale(0.996264)"/>
       <use xlink:href="#CMR17-30" transform="translate(91.380954 0)scale(0.996264)"/>
      </g>
     </g>
    </g>
    <g id="xtick_9">
     <g id="line2d_9">
      <g>
       <use xlink:href="#ma8cf145779" x="432.749214" y="318.944323" style="stroke: #000000; stroke-width: 0.8"/>
      </g>
     </g>
     <g id="text_9">
      <!-- $\mathdefault{400}$ -->
      <g transform="translate(425.277212 332.862822)scale(0.1 -0.1)">
       <defs>
        <path id="CMR17-34" d="M 2150 4147 
C 2150 4281 2144 4288 2029 4288 
L 128 1254 
L 128 1088 
L 1779 1088 
L 1779 460 
C 1779 230 1766 166 1318 166 
L 1197 166 
L 1197 0 
C 1402 12 1747 12 1965 12 
C 2182 12 2528 12 2733 0 
L 2733 166 
L 2611 166 
C 2163 166 2150 230 2150 460 
L 2150 1088 
L 2803 1088 
L 2803 1254 
L 2150 1254 
L 2150 4147 
z
M 1798 3723 
L 1798 1254 
L 256 1254 
L 1798 3723 
z
" transform="scale(0.015625)"/>
       </defs>
       <use xlink:href="#CMR17-34" transform="scale(0.996264)"/>
       <use xlink:href="#CMR17-30" transform="translate(45.690477 0)scale(0.996264)"/>
       <use xlink:href="#CMR17-30" transform="translate(91.380954 0)scale(0.996264)"/>
      </g>
     </g>
    </g>
   </g>
   <g id="matplotlib.axis_2">
    <g id="ytick_1">
     <g id="line2d_10">
      <defs>
       <path id="mf9c878b056" d="M 0 0 
L -3.5 0 
" style="stroke: #000000; stroke-width: 0.8"/>
      </defs>
      <g>
       <use xlink:href="#mf9c878b056" x="50.45542" y="287.535932" style="stroke: #000000; stroke-width: 0.8"/>
      </g>
     </g>
     <g id="text_10">
      <!-- $\mathdefault{0.00050}$ -->
      <g transform="translate(10.8 290.995181)scale(0.1 -0.1)">
       <defs>
        <path id="CMMI12-3a" d="M 1178 307 
C 1178 492 1024 620 870 620 
C 685 620 557 467 557 313 
C 557 128 710 0 864 0 
C 1050 0 1178 153 1178 307 
z
" transform="scale(0.015625)"/>
       </defs>
       <use xlink:href="#CMR17-30" transform="scale(0.996264)"/>
       <use xlink:href="#CMMI12-3a" transform="translate(45.690477 0)scale(0.996264)"/>
       <use xlink:href="#CMR17-30" transform="translate(72.787654 0)scale(0.996264)"/>
       <use xlink:href="#CMR17-30" transform="translate(118.478131 0)scale(0.996264)"/>
       <use xlink:href="#CMR17-30" transform="translate(164.168608 0)scale(0.996264)"/>
       <use xlink:href="#CMR17-35" transform="translate(209.859086 0)scale(0.996264)"/>
       <use xlink:href="#CMR17-30" transform="translate(255.549563 0)scale(0.996264)"/>
      </g>
     </g>
    </g>
    <g id="ytick_2">
     <g id="line2d_11">
      <g>
       <use xlink:href="#mf9c878b056" x="50.45542" y="247.526951" style="stroke: #000000; stroke-width: 0.8"/>
      </g>
     </g>
     <g id="text_11">
      <!-- $\mathdefault{0.00075}$ -->
      <g transform="translate(10.8 250.9862)scale(0.1 -0.1)">
       <defs>
        <path id="CMR17-37" d="M 2886 3955 
L 2886 4096 
L 1382 4096 
C 634 4096 621 4166 595 4288 
L 480 4288 
L 294 3104 
L 410 3104 
C 429 3226 474 3552 550 3673 
C 589 3724 1062 3724 1171 3724 
L 2579 3724 
L 1869 2670 
C 1395 1961 1069 1003 1069 166 
C 1069 89 1069 -128 1299 -128 
C 1530 -128 1530 89 1530 172 
L 1530 466 
C 1530 1514 1709 2204 2003 2644 
L 2886 3955 
z
" transform="scale(0.015625)"/>
       </defs>
       <use xlink:href="#CMR17-30" transform="scale(0.996264)"/>
       <use xlink:href="#CMMI12-3a" transform="translate(45.690477 0)scale(0.996264)"/>
       <use xlink:href="#CMR17-30" transform="translate(72.787654 0)scale(0.996264)"/>
       <use xlink:href="#CMR17-30" transform="translate(118.478131 0)scale(0.996264)"/>
       <use xlink:href="#CMR17-30" transform="translate(164.168608 0)scale(0.996264)"/>
       <use xlink:href="#CMR17-37" transform="translate(209.859086 0)scale(0.996264)"/>
       <use xlink:href="#CMR17-35" transform="translate(255.549563 0)scale(0.996264)"/>
      </g>
     </g>
    </g>
    <g id="ytick_3">
     <g id="line2d_12">
      <g>
       <use xlink:href="#mf9c878b056" x="50.45542" y="207.51797" style="stroke: #000000; stroke-width: 0.8"/>
      </g>
     </g>
     <g id="text_12">
      <!-- $\mathdefault{0.00100}$ -->
      <g transform="translate(10.8 210.977219)scale(0.1 -0.1)">
       <use xlink:href="#CMR17-30" transform="scale(0.996264)"/>
       <use xlink:href="#CMMI12-3a" transform="translate(45.690477 0)scale(0.996264)"/>
       <use xlink:href="#CMR17-30" transform="translate(72.787654 0)scale(0.996264)"/>
       <use xlink:href="#CMR17-30" transform="translate(118.478131 0)scale(0.996264)"/>
       <use xlink:href="#CMR17-31" transform="translate(164.168608 0)scale(0.996264)"/>
       <use xlink:href="#CMR17-30" transform="translate(209.859086 0)scale(0.996264)"/>
       <use xlink:href="#CMR17-30" transform="translate(255.549563 0)scale(0.996264)"/>
      </g>
     </g>
    </g>
    <g id="ytick_4">
     <g id="line2d_13">
      <g>
       <use xlink:href="#mf9c878b056" x="50.45542" y="167.508989" style="stroke: #000000; stroke-width: 0.8"/>
      </g>
     </g>
     <g id="text_13">
      <!-- $\mathdefault{0.00125}$ -->
      <g transform="translate(10.8 170.968238)scale(0.1 -0.1)">
       <use xlink:href="#CMR17-30" transform="scale(0.996264)"/>
       <use xlink:href="#CMMI12-3a" transform="translate(45.690477 0)scale(0.996264)"/>
       <use xlink:href="#CMR17-30" transform="translate(72.787654 0)scale(0.996264)"/>
       <use xlink:href="#CMR17-30" transform="translate(118.478131 0)scale(0.996264)"/>
       <use xlink:href="#CMR17-31" transform="translate(164.168608 0)scale(0.996264)"/>
       <use xlink:href="#CMR17-32" transform="translate(209.859086 0)scale(0.996264)"/>
       <use xlink:href="#CMR17-35" transform="translate(255.549563 0)scale(0.996264)"/>
      </g>
     </g>
    </g>
    <g id="ytick_5">
     <g id="line2d_14">
      <g>
       <use xlink:href="#mf9c878b056" x="50.45542" y="127.500008" style="stroke: #000000; stroke-width: 0.8"/>
      </g>
     </g>
     <g id="text_14">
      <!-- $\mathdefault{0.00150}$ -->
      <g transform="translate(10.8 130.959257)scale(0.1 -0.1)">
       <use xlink:href="#CMR17-30" transform="scale(0.996264)"/>
       <use xlink:href="#CMMI12-3a" transform="translate(45.690477 0)scale(0.996264)"/>
       <use xlink:href="#CMR17-30" transform="translate(72.787654 0)scale(0.996264)"/>
       <use xlink:href="#CMR17-30" transform="translate(118.478131 0)scale(0.996264)"/>
       <use xlink:href="#CMR17-31" transform="translate(164.168608 0)scale(0.996264)"/>
       <use xlink:href="#CMR17-35" transform="translate(209.859086 0)scale(0.996264)"/>
       <use xlink:href="#CMR17-30" transform="translate(255.549563 0)scale(0.996264)"/>
      </g>
     </g>
    </g>
    <g id="ytick_6">
     <g id="line2d_15">
      <g>
       <use xlink:href="#mf9c878b056" x="50.45542" y="87.491027" style="stroke: #000000; stroke-width: 0.8"/>
      </g>
     </g>
     <g id="text_15">
      <!-- $\mathdefault{0.00175}$ -->
      <g transform="translate(10.8 90.950276)scale(0.1 -0.1)">
       <use xlink:href="#CMR17-30" transform="scale(0.996264)"/>
       <use xlink:href="#CMMI12-3a" transform="translate(45.690477 0)scale(0.996264)"/>
       <use xlink:href="#CMR17-30" transform="translate(72.787654 0)scale(0.996264)"/>
       <use xlink:href="#CMR17-30" transform="translate(118.478131 0)scale(0.996264)"/>
       <use xlink:href="#CMR17-31" transform="translate(164.168608 0)scale(0.996264)"/>
       <use xlink:href="#CMR17-37" transform="translate(209.859086 0)scale(0.996264)"/>
       <use xlink:href="#CMR17-35" transform="translate(255.549563 0)scale(0.996264)"/>
      </g>
     </g>
    </g>
    <g id="ytick_7">
     <g id="line2d_16">
      <g>
       <use xlink:href="#mf9c878b056" x="50.45542" y="47.482046" style="stroke: #000000; stroke-width: 0.8"/>
      </g>
     </g>
     <g id="text_16">
      <!-- $\mathdefault{0.00200}$ -->
      <g transform="translate(10.8 50.941295)scale(0.1 -0.1)">
       <use xlink:href="#CMR17-30" transform="scale(0.996264)"/>
       <use xlink:href="#CMMI12-3a" transform="translate(45.690477 0)scale(0.996264)"/>
       <use xlink:href="#CMR17-30" transform="translate(72.787654 0)scale(0.996264)"/>
       <use xlink:href="#CMR17-30" transform="translate(118.478131 0)scale(0.996264)"/>
       <use xlink:href="#CMR17-32" transform="translate(164.168608 0)scale(0.996264)"/>
       <use xlink:href="#CMR17-30" transform="translate(209.859086 0)scale(0.996264)"/>
       <use xlink:href="#CMR17-30" transform="translate(255.549563 0)scale(0.996264)"/>
      </g>
     </g>
    </g>
   </g>
   <g id="line2d_17">
    <path d="M 68.616537 137.846021 
L 69.526869 105.494497 
L 70.437201 121.478936 
L 71.347532 93.506565 
L 72.257864 31.390921 
L 73.168196 286.165952 
L 74.078527 90.692956 
L 74.988859 97.793056 
L 75.899191 277.406473 
L 76.809522 89.946891 
L 77.719854 275.334096 
L 78.630186 119.49344 
L 79.540518 274.636176 
L 80.450849 89.545432 
L 81.361181 274.267967 
L 82.271513 134.784332 
L 83.181844 127.219046 
L 84.092176 126.917967 
L 85.002508 116.786077 
L 85.912839 94.283852 
L 86.823171 134.853291 
L 87.733503 287.051954 
L 88.643835 280.486122 
L 89.554166 139.051993 
L 90.464498 71.949641 
L 91.37483 95.308224 
L 92.285161 174.08865 
L 93.195493 293.608244 
L 94.105825 267.331556 
L 95.016156 284.395008 
L 95.926488 162.837588 
L 96.83682 89.84808 
L 97.747151 280.261485 
L 98.657483 268.087282 
L 99.567815 171.898689 
L 100.478147 273.690767 
L 101.388478 267.992653 
L 102.29881 294.022567 
L 103.209142 32.950089 
L 104.119473 274.361522 
L 105.029805 48.169472 
L 105.940137 286.277834 
L 106.850468 116.143982 
L 107.7608 284.922933 
L 109.581463 52.265827 
L 110.491795 40.398068 
L 111.402127 265.344132 
L 112.312459 127.215825 
L 113.22279 279.832609 
L 114.133122 270.259476 
L 115.043454 174.268972 
L 115.953785 27.61284 
L 116.864117 271.755437 
L 117.774449 257.952195 
L 118.68478 294.370555 
L 119.595112 30.842344 
L 120.505444 287.811937 
L 121.415775 144.555875 
L 122.326107 292.412288 
L 123.236439 282.630277 
L 124.146771 86.995677 
L 125.057102 79.92666 
L 125.967434 164.960466 
L 126.877766 277.53057 
L 127.788097 293.939724 
L 128.698429 302.329932 
L 129.608761 294.305873 
L 130.519092 92.257261 
L 131.429424 269.922454 
L 132.339756 271.205116 
L 133.250087 169.238485 
L 134.160419 274.215137 
L 135.070751 118.10793 
L 135.981083 298.551752 
L 136.891414 138.172458 
L 137.801746 93.441941 
L 138.712078 76.19625 
L 139.622409 153.815488 
L 140.532741 75.23082 
L 141.443073 159.703448 
L 142.353404 97.128338 
L 143.263736 285.045271 
L 144.174068 157.325241 
L 145.084399 283.525945 
L 145.994731 146.922584 
L 146.905063 148.361626 
L 147.815395 273.229908 
L 148.725726 288.120666 
L 149.636058 283.558677 
L 150.54639 75.027539 
L 151.456721 53.90454 
L 152.367053 276.140901 
L 153.277385 77.406353 
L 154.187716 276.147316 
L 155.098048 71.734743 
L 156.00838 270.260083 
L 156.918711 101.799312 
L 157.829043 161.760024 
L 158.739375 135.232162 
L 159.649707 288.854026 
L 160.560038 279.677853 
L 161.47037 106.855135 
L 162.380702 267.134311 
L 163.291033 24.80656 
L 164.201365 129.679646 
L 165.111697 273.954334 
L 166.022028 108.687112 
L 166.93236 35.483655 
L 167.842692 116.843458 
L 168.753023 284.779198 
L 169.663355 112.723178 
L 170.573687 156.771594 
L 171.484019 132.141777 
L 172.39435 288.888202 
L 173.304682 267.701792 
L 174.215014 285.062189 
L 175.125345 52.322209 
L 176.035677 124.359033 
L 176.946009 299.863007 
L 177.85634 272.774608 
L 178.766672 57.705374 
L 179.677004 87.402402 
L 180.587335 49.159624 
L 181.497667 68.861495 
L 182.407999 148.929349 
L 183.318331 285.467438 
L 184.228662 303.546862 
L 185.138994 283.990969 
L 186.049326 284.413385 
L 186.959657 272.636642 
L 188.780321 293.398346 
L 189.690652 101.851935 
L 190.600984 77.163733 
L 191.511316 134.689385 
L 192.421647 272.800633 
L 193.331979 176.412263 
L 194.242311 107.586418 
L 195.152643 106.058508 
L 196.062974 275.484696 
L 196.973306 135.844304 
L 197.883638 141.44151 
L 198.793969 298.949566 
L 199.704301 179.858158 
L 200.614633 293.135117 
L 201.524964 85.586705 
L 202.435296 66.831948 
L 204.255959 269.572582 
L 206.076623 57.035955 
L 206.986955 266.180997 
L 207.897286 278.6162 
L 208.807618 128.831444 
L 209.71795 115.548895 
L 210.628281 62.276598 
L 211.538613 299.707632 
L 212.448945 73.379022 
L 213.359276 120.474009 
L 214.269608 284.363744 
L 215.17994 281.483192 
L 216.090272 269.367572 
L 217.000603 295.599636 
L 217.910935 288.556243 
L 218.821267 276.621623 
L 219.731598 104.126757 
L 220.64193 77.839527 
L 221.552262 276.102918 
L 222.462593 285.640897 
L 223.372925 83.594389 
L 224.283257 269.124008 
L 225.193588 170.890062 
L 226.10392 154.260387 
L 227.014252 92.475722 
L 227.924584 87.198075 
L 228.834915 291.685513 
L 229.745247 121.569396 
L 230.655579 55.235258 
L 231.56591 277.408368 
L 232.476242 275.469649 
L 233.386574 283.43494 
L 234.296905 288.712677 
L 235.207237 67.40653 
L 236.117569 258.39081 
L 237.0279 107.524351 
L 237.938232 273.532708 
L 238.848564 156.969983 
L 239.758896 287.270658 
L 240.669227 105.065919 
L 241.579559 294.690752 
L 242.489891 270.095663 
L 243.400222 266.936548 
L 244.310554 107.302095 
L 245.220886 270.548529 
L 246.131217 88.821455 
L 247.041549 296.14709 
L 247.951881 283.13413 
L 248.862212 281.940765 
L 249.772544 106.891068 
L 250.682876 293.696668 
L 251.593208 150.854517 
L 252.503539 269.153087 
L 253.413871 79.337236 
L 254.324203 277.790201 
L 255.234534 288.236639 
L 256.144866 274.020403 
L 257.055198 53.911895 
L 257.965529 276.067593 
L 258.875861 152.906335 
L 259.786193 56.474763 
L 260.696524 296.592858 
L 261.606856 102.675966 
L 262.517188 286.464827 
L 263.42752 285.022681 
L 264.337851 173.20114 
L 265.248183 109.262772 
L 266.158515 299.067586 
L 267.068846 286.130699 
L 267.979178 281.162433 
L 268.88951 105.985386 
L 269.799841 54.035159 
L 270.710173 129.209999 
L 271.620505 275.459869 
L 272.530836 273.464214 
L 274.3515 94.853309 
L 275.261832 29.778621 
L 276.172163 271.782346 
L 277.082495 109.710321 
L 277.992827 283.456981 
L 278.903158 304.937763 
L 279.81349 121.847459 
L 280.723822 264.246215 
L 281.634153 276.437461 
L 282.544485 274.590037 
L 283.454817 184.876076 
L 284.365148 277.681531 
L 286.185812 45.15609 
L 287.096144 131.44136 
L 288.006475 282.057462 
L 288.916807 28.019991 
L 289.827139 275.459556 
L 290.73747 283.066383 
L 291.647802 284.761575 
L 292.558134 38.827169 
L 293.468465 268.766934 
L 294.378797 35.684983 
L 295.289129 81.125292 
L 296.19946 282.236808 
L 297.109792 290.43677 
L 298.020124 284.124683 
L 298.930456 153.855836 
L 299.840787 283.096409 
L 300.751119 125.177834 
L 301.661451 285.259751 
L 302.571782 83.939218 
L 303.482114 281.796177 
L 304.392446 283.996962 
L 305.302777 296.624814 
L 306.213109 54.402994 
L 307.123441 273.88075 
L 308.033772 278.938669 
L 308.944104 66.338733 
L 309.854436 266.474984 
L 311.675099 71.385693 
L 312.585431 59.518808 
L 313.495763 89.691252 
L 314.406094 64.803451 
L 315.316426 108.602307 
L 316.226758 289.352369 
L 317.137089 268.422264 
L 318.047421 302.223653 
L 318.957753 275.333106 
L 319.868084 290.934947 
L 320.778416 59.147375 
L 321.688748 42.589371 
L 322.59908 97.014994 
L 323.509411 273.696066 
L 324.419743 298.290411 
L 325.330075 120.355401 
L 326.240406 278.825563 
L 327.150738 278.728551 
L 328.06107 265.32316 
L 328.971401 291.560067 
L 329.881733 171.134544 
L 330.792065 285.710958 
L 331.702397 290.34732 
L 332.612728 289.382595 
L 333.52306 70.660093 
L 334.433392 269.931127 
L 335.343723 134.258572 
L 336.254055 97.51699 
L 337.164387 32.631106 
L 338.074718 288.685727 
L 338.98505 122.496881 
L 339.895382 296.867921 
L 340.805713 120.076006 
L 341.716045 279.990583 
L 342.626377 277.537538 
L 343.536709 77.908226 
L 344.44704 279.581293 
L 345.357372 290.396688 
L 346.267704 297.138504 
L 347.178035 270.783553 
L 348.088367 130.925838 
L 348.998699 36.278044 
L 349.90903 55.493389 
L 350.819362 299.467594 
L 351.729694 92.935374 
L 352.640025 50.843408 
L 353.550357 99.899143 
L 354.460689 294.091218 
L 355.371021 88.929866 
L 356.281352 134.017427 
L 357.191684 147.025274 
L 358.102016 89.818636 
L 359.012347 86.936408 
L 359.922679 283.454659 
L 360.833011 117.342085 
L 361.743342 134.966569 
L 362.653674 286.589318 
L 363.564006 269.334254 
L 364.474337 286.543239 
L 365.384669 298.015416 
L 366.295001 143.97122 
L 367.205333 70.893712 
L 368.115664 79.76747 
L 369.025996 303.420788 
L 369.936328 117.442642 
L 370.846659 40.68949 
L 371.756991 279.900313 
L 372.667323 290.571784 
L 373.577654 269.175619 
L 374.487986 278.417599 
L 375.398318 291.565522 
L 376.308649 268.015434 
L 377.218981 285.938699 
L 378.129313 286.27959 
L 379.949976 261.410903 
L 380.860308 290.766495 
L 381.77064 129.408658 
L 382.680971 279.030562 
L 383.591303 292.932177 
L 384.501635 118.263411 
L 385.411966 269.58609 
L 386.322298 92.411457 
L 387.23263 29.073238 
L 388.142961 52.3944 
L 389.053293 274.683841 
L 389.963625 45.606841 
L 390.873957 299.663018 
L 391.784288 126.740676 
L 392.69462 62.061019 
L 393.604952 63.127247 
L 394.515283 274.654518 
L 395.425615 302.757083 
L 396.335947 121.698196 
L 397.246278 279.262433 
L 398.15661 92.570153 
L 399.066942 265.695301 
L 399.977273 274.69396 
L 401.797937 285.966097 
L 403.6186 261.059292 
L 404.528932 33.035712 
L 405.439264 283.191854 
L 406.349595 129.395313 
L 407.259927 276.491779 
L 408.170259 54.026146 
L 409.08059 74.336633 
L 409.990922 276.347964 
L 410.901254 70.516801 
L 411.811585 282.107099 
L 412.721917 297.989182 
L 413.632249 278.501183 
L 414.542581 280.601886 
L 415.452912 35.916186 
L 416.363244 284.07562 
L 417.273576 285.653066 
L 418.183907 266.704266 
L 419.094239 274.14951 
L 420.004571 116.523619 
L 421.825234 73.842982 
L 422.735566 283.387912 
L 423.645897 95.682222 
L 424.556229 51.084071 
L 425.466561 52.003453 
L 426.376893 73.291743 
L 427.287224 282.010098 
L 428.197556 271.007466 
L 429.107888 67.134655 
L 430.018219 62.496469 
L 431.838883 275.040685 
L 431.838883 275.040685 
" clip-path="url(#pe4c39a75c2)" style="fill: none; stroke: #3c74ff; stroke-width: 1.5; stroke-linecap: square"/>
   </g>
   <g id="patch_3">
    <path d="M 50.45542 318.944323 
L 50.45542 10.8 
" style="fill: none; stroke: #000000; stroke-width: 0.8; stroke-linejoin: miter; stroke-linecap: square"/>
   </g>
   <g id="patch_4">
    <path d="M 450 318.944323 
L 450 10.8 
" style="fill: none; stroke: #000000; stroke-width: 0.8; stroke-linejoin: miter; stroke-linecap: square"/>
   </g>
   <g id="patch_5">
    <path d="M 50.45542 318.944323 
L 450 318.944323 
" style="fill: none; stroke: #000000; stroke-width: 0.8; stroke-linejoin: miter; stroke-linecap: square"/>
   </g>
   <g id="patch_6">
    <path d="M 50.45542 10.8 
L 450 10.8 
" style="fill: none; stroke: #000000; stroke-width: 0.8; stroke-linejoin: miter; stroke-linecap: square"/>
   </g>
   <g id="legend_1">
    <g id="patch_7">
     <path d="M 364.49378 173.340751 
L 443 173.340751 
Q 445 173.340751 445 171.340751 
L 445 158.403572 
Q 445 156.403572 443 156.403572 
L 364.49378 156.403572 
Q 362.49378 156.403572 362.49378 158.403572 
L 362.49378 171.340751 
Q 362.49378 173.340751 364.49378 173.340751 
z
" style="fill: #ffffff; opacity: 0.8; stroke: #cccccc; stroke-linejoin: miter"/>
    </g>
    <g id="line2d_18">
     <path d="M 366.49378 163.903572 
L 376.49378 163.903572 
L 386.49378 163.903572 
" style="fill: none; stroke: #3c74ff; stroke-width: 1.5; stroke-linecap: square"/>
    </g>
    <g id="text_17">
     <!-- Real values -->
     <g transform="translate(394.49378 167.403572)scale(0.1 -0.1)">
      <defs>
       <path id="CMSS17-52" d="M 2522 2099 
L 2534 2105 
C 3533 2450 3539 3125 3539 3244 
C 3539 3838 2925 4416 2003 4416 
L 570 4416 
L 570 0 
L 1094 0 
L 1094 2041 
L 2035 2041 
L 3168 0 
L 3706 0 
L 2522 2099 
z
M 1094 2432 
L 1094 4057 
L 1933 4057 
C 2746 4057 3034 3607 3034 3244 
C 3034 2907 2778 2432 1933 2432 
L 1094 2432 
z
" transform="scale(0.015625)"/>
       <path id="CMSS17-65" d="M 2502 1375 
C 2502 1587 2490 2001 2285 2347 
C 2061 2713 1696 2816 1421 2816 
C 755 2816 192 2184 192 1363 
C 192 579 774 -64 1510 -64 
C 1798 -64 2150 19 2470 249 
C 2470 275 2458 414 2451 421 
C 2451 433 2432 629 2432 655 
C 2125 408 1773 326 1517 326 
C 1107 326 666 667 646 1375 
L 2502 1375 
z
M 698 1728 
C 781 2086 1062 2425 1421 2425 
C 1517 2425 1965 2412 2080 1728 
L 698 1728 
z
" transform="scale(0.015625)"/>
       <path id="CMSS17-61" d="M 2406 1789 
C 2406 2399 1978 2816 1402 2816 
C 1120 2816 813 2764 461 2559 
L 499 2133 
C 659 2250 934 2438 1395 2438 
C 1722 2438 1920 2185 1920 1782 
L 1920 1536 
C 896 1504 256 1209 256 711 
C 256 452 416 -64 947 -64 
C 1043 -64 1562 -52 1933 224 
L 1933 -13 
L 2406 -13 
L 2406 1789 
z
M 1920 824 
C 1920 711 1920 559 1728 446 
C 1562 339 1350 326 1261 326 
C 941 326 723 503 723 723 
C 723 1165 1722 1209 1920 1216 
L 1920 824 
z
" transform="scale(0.015625)"/>
       <path id="CMSS17-6c" d="M 947 4416 
L 474 4416 
L 474 0 
L 947 0 
L 947 4416 
z
" transform="scale(0.015625)"/>
       <path id="CMSS17-76" d="M 2675 2752 
L 2176 2752 
L 1747 1555 
C 1613 1164 1421 627 1389 352 
L 1382 352 
C 1370 467 1318 633 1286 748 
C 1248 889 1197 1056 1158 1171 
L 595 2752 
L 83 2752 
L 1094 0 
L 1664 0 
L 2675 2752 
z
" transform="scale(0.015625)"/>
       <path id="CMSS17-75" d="M 2618 2752 
L 2131 2752 
L 2131 976 
C 2131 500 1786 307 1421 307 
C 998 307 960 448 960 712 
L 960 2752 
L 474 2752 
L 474 680 
C 474 179 646 -64 1088 -64 
C 1306 -64 1798 -13 2144 307 
L 2144 -13 
L 2618 -13 
L 2618 2752 
z
" transform="scale(0.015625)"/>
       <path id="CMSS17-73" d="M 2061 2623 
C 1683 2803 1389 2816 1197 2816 
C 742 2816 198 2655 198 2009 
C 198 1363 902 1222 1094 1183 
C 1389 1126 1715 1062 1715 742 
C 1715 339 1254 339 1171 339 
C 915 339 563 409 243 639 
L 166 211 
C 531 0 883 -64 1178 -64 
C 1965 -64 2163 416 2163 780 
C 2163 1094 1984 1305 1862 1401 
C 1651 1567 1574 1587 1050 1695 
C 960 1708 646 1779 646 2067 
C 646 2431 1050 2431 1139 2431 
C 1555 2431 1811 2303 1984 2207 
L 2061 2623 
z
" transform="scale(0.015625)"/>
      </defs>
      <use xlink:href="#CMSS17-52" transform="scale(0.996264)"/>
      <use xlink:href="#CMSS17-65" transform="translate(60.416155 0)scale(0.996264)"/>
      <use xlink:href="#CMSS17-61" transform="translate(102.054977 0)scale(0.996264)"/>
      <use xlink:href="#CMSS17-6c" transform="translate(146.976898 0)scale(0.996264)"/>
      <use xlink:href="#CMSS17-76" transform="translate(200.386733 0)scale(0.996264)"/>
      <use xlink:href="#CMSS17-61" transform="translate(243.386875 0)scale(0.996264)"/>
      <use xlink:href="#CMSS17-6c" transform="translate(288.308796 0)scale(0.996264)"/>
      <use xlink:href="#CMSS17-75" transform="translate(310.489519 0)scale(0.996264)"/>
      <use xlink:href="#CMSS17-65" transform="translate(358.694462 0)scale(0.996264)"/>
      <use xlink:href="#CMSS17-73" transform="translate(400.333284 0)scale(0.996264)"/>
     </g>
    </g>
   </g>
  </g>
 </g>
 <defs>
  <clipPath id="pe4c39a75c2">
   <rect x="50.45542" y="10.8" width="399.54458" height="308.144323"/>
  </clipPath>
 </defs>
</svg>
