<?xml version="1.0" encoding="utf-8" standalone="no"?>
<!DOCTYPE svg PUBLIC "-//W3C//DTD SVG 1.1//EN"
  "http://www.w3.org/Graphics/SVG/1.1/DTD/svg11.dtd">
<svg xmlns:xlink="http://www.w3.org/1999/xlink" width="460.8pt" height="345.6pt" viewBox="0 0 460.8 345.6" xmlns="http://www.w3.org/2000/svg" version="1.1">
 <metadata>
  <rdf:RDF xmlns:dc="http://purl.org/dc/elements/1.1/" xmlns:cc="http://creativecommons.org/ns#" xmlns:rdf="http://www.w3.org/1999/02/22-rdf-syntax-ns#">
   <cc:Work>
    <dc:type rdf:resource="http://purl.org/dc/dcmitype/StillImage"/>
    <dc:date>2023-03-08T13:08:56.206549</dc:date>
    <dc:format>image/svg+xml</dc:format>
    <dc:creator>
     <cc:Agent>
      <dc:title>Matplotlib v3.5.3, https://matplotlib.org/</dc:title>
     </cc:Agent>
    </dc:creator>
   </cc:Work>
  </rdf:RDF>
 </metadata>
 <defs>
  <style type="text/css">*{stroke-linejoin: round; stroke-linecap: butt}</style>
 </defs>
 <g id="figure_1">
  <g id="patch_1">
   <path d="M 0 345.6 
L 460.8 345.6 
L 460.8 0 
L 0 0 
z
" style="fill: #ffffff"/>
  </g>
  <g id="axes_1">
   <g id="patch_2">
    <path d="M 62.757554 301.660854 
L 450 301.660854 
L 450 10.8 
L 62.757554 10.8 
z
" style="fill: #ffffff"/>
   </g>
   <g id="matplotlib.axis_1">
    <g id="xtick_1">
     <g id="line2d_1">
      <defs>
       <path id="m938fbbd1bc" d="M 0 0 
L 0 3.5 
" style="stroke: #000000; stroke-width: 0.8"/>
      </defs>
      <g>
       <use xlink:href="#m938fbbd1bc" x="80.359484" y="301.660854" style="stroke: #000000; stroke-width: 0.8"/>
      </g>
     </g>
     <g id="text_1">
      <!-- $\mathdefault{0}$ -->
      <g transform="translate(77.868816 315.579352)scale(0.1 -0.1)">
       <defs>
        <path id="CMR17-30" d="M 2688 2038 
C 2688 2430 2682 3099 2413 3613 
C 2176 4063 1798 4224 1466 4224 
C 1158 4224 768 4082 525 3620 
C 269 3137 243 2539 243 2038 
C 243 1671 250 1112 448 623 
C 723 -39 1216 -128 1466 -128 
C 1760 -128 2208 -7 2470 604 
C 2662 1048 2688 1568 2688 2038 
z
M 1466 -26 
C 1056 -26 813 328 723 816 
C 653 1196 653 1749 653 2109 
C 653 2604 653 3015 736 3407 
C 858 3954 1216 4121 1466 4121 
C 1728 4121 2067 3947 2189 3420 
C 2272 3054 2278 2623 2278 2109 
C 2278 1691 2278 1176 2202 797 
C 2067 96 1690 -26 1466 -26 
z
" transform="scale(0.015625)"/>
       </defs>
       <use xlink:href="#CMR17-30" transform="scale(0.996264)"/>
      </g>
     </g>
    </g>
    <g id="xtick_2">
     <g id="line2d_2">
      <g>
       <use xlink:href="#m938fbbd1bc" x="124.585437" y="301.660854" style="stroke: #000000; stroke-width: 0.8"/>
      </g>
     </g>
     <g id="text_2">
      <!-- $\mathdefault{25}$ -->
      <g transform="translate(119.604101 315.579352)scale(0.1 -0.1)">
       <defs>
        <path id="CMR17-32" d="M 2669 990 
L 2554 990 
C 2490 537 2438 460 2413 422 
C 2381 371 1920 371 1830 371 
L 602 371 
C 832 620 1280 1073 1824 1596 
C 2214 1966 2669 2400 2669 3033 
C 2669 3788 2067 4224 1395 4224 
C 691 4224 262 3603 262 3027 
C 262 2777 448 2745 525 2745 
C 589 2745 781 2783 781 3007 
C 781 3206 614 3264 525 3264 
C 486 3264 448 3257 422 3244 
C 544 3788 915 4057 1306 4057 
C 1862 4057 2227 3616 2227 3033 
C 2227 2477 1901 1998 1536 1583 
L 262 147 
L 262 0 
L 2515 0 
L 2669 990 
z
" transform="scale(0.015625)"/>
        <path id="CMR17-35" d="M 730 3750 
C 794 3724 1056 3641 1325 3641 
C 1920 3641 2246 3961 2432 4140 
C 2432 4191 2432 4224 2394 4224 
C 2387 4224 2374 4224 2323 4198 
C 2099 4102 1837 4032 1517 4032 
C 1325 4032 1037 4055 723 4191 
C 653 4224 640 4224 634 4224 
C 602 4224 595 4217 595 4090 
L 595 2231 
C 595 2113 595 2080 659 2080 
C 691 2080 704 2093 736 2139 
C 941 2435 1222 2560 1542 2560 
C 1766 2560 2246 2415 2246 1293 
C 2246 1087 2246 716 2054 422 
C 1894 159 1645 25 1370 25 
C 947 25 518 319 403 812 
C 429 806 480 793 506 793 
C 589 793 749 838 749 1036 
C 749 1209 627 1280 506 1280 
C 358 1280 262 1190 262 1011 
C 262 454 704 -128 1382 -128 
C 2042 -128 2669 441 2669 1267 
C 2669 2054 2170 2662 1549 2662 
C 1222 2662 947 2540 730 2304 
L 730 3750 
z
" transform="scale(0.015625)"/>
       </defs>
       <use xlink:href="#CMR17-32" transform="scale(0.996264)"/>
       <use xlink:href="#CMR17-35" transform="translate(45.690477 0)scale(0.996264)"/>
      </g>
     </g>
    </g>
    <g id="xtick_3">
     <g id="line2d_3">
      <g>
       <use xlink:href="#m938fbbd1bc" x="168.81139" y="301.660854" style="stroke: #000000; stroke-width: 0.8"/>
      </g>
     </g>
     <g id="text_3">
      <!-- $\mathdefault{50}$ -->
      <g transform="translate(163.830055 315.579352)scale(0.1 -0.1)">
       <use xlink:href="#CMR17-35" transform="scale(0.996264)"/>
       <use xlink:href="#CMR17-30" transform="translate(45.690477 0)scale(0.996264)"/>
      </g>
     </g>
    </g>
    <g id="xtick_4">
     <g id="line2d_4">
      <g>
       <use xlink:href="#m938fbbd1bc" x="213.037343" y="301.660854" style="stroke: #000000; stroke-width: 0.8"/>
      </g>
     </g>
     <g id="text_4">
      <!-- $\mathdefault{75}$ -->
      <g transform="translate(208.056008 315.579352)scale(0.1 -0.1)">
       <defs>
        <path id="CMR17-37" d="M 2886 3955 
L 2886 4096 
L 1382 4096 
C 634 4096 621 4166 595 4288 
L 480 4288 
L 294 3104 
L 410 3104 
C 429 3226 474 3552 550 3673 
C 589 3724 1062 3724 1171 3724 
L 2579 3724 
L 1869 2670 
C 1395 1961 1069 1003 1069 166 
C 1069 89 1069 -128 1299 -128 
C 1530 -128 1530 89 1530 172 
L 1530 466 
C 1530 1514 1709 2204 2003 2644 
L 2886 3955 
z
" transform="scale(0.015625)"/>
       </defs>
       <use xlink:href="#CMR17-37" transform="scale(0.996264)"/>
       <use xlink:href="#CMR17-35" transform="translate(45.690477 0)scale(0.996264)"/>
      </g>
     </g>
    </g>
    <g id="xtick_5">
     <g id="line2d_5">
      <g>
       <use xlink:href="#m938fbbd1bc" x="257.263296" y="301.660854" style="stroke: #000000; stroke-width: 0.8"/>
      </g>
     </g>
     <g id="text_5">
      <!-- $\mathdefault{100}$ -->
      <g transform="translate(249.791293 315.579352)scale(0.1 -0.1)">
       <defs>
        <path id="CMR17-31" d="M 1702 4083 
C 1702 4217 1696 4224 1606 4224 
C 1357 3927 979 3833 621 3820 
C 602 3820 570 3820 563 3808 
C 557 3795 557 3782 557 3648 
C 755 3648 1088 3686 1344 3839 
L 1344 467 
C 1344 243 1331 166 781 166 
L 589 166 
L 589 0 
C 896 6 1216 12 1523 12 
C 1830 12 2150 6 2458 0 
L 2458 166 
L 2266 166 
C 1715 166 1702 236 1702 467 
L 1702 4083 
z
" transform="scale(0.015625)"/>
       </defs>
       <use xlink:href="#CMR17-31" transform="scale(0.996264)"/>
       <use xlink:href="#CMR17-30" transform="translate(45.690477 0)scale(0.996264)"/>
       <use xlink:href="#CMR17-30" transform="translate(91.380954 0)scale(0.996264)"/>
      </g>
     </g>
    </g>
    <g id="xtick_6">
     <g id="line2d_6">
      <g>
       <use xlink:href="#m938fbbd1bc" x="301.489249" y="301.660854" style="stroke: #000000; stroke-width: 0.8"/>
      </g>
     </g>
     <g id="text_6">
      <!-- $\mathdefault{125}$ -->
      <g transform="translate(294.017246 315.579352)scale(0.1 -0.1)">
       <use xlink:href="#CMR17-31" transform="scale(0.996264)"/>
       <use xlink:href="#CMR17-32" transform="translate(45.690477 0)scale(0.996264)"/>
       <use xlink:href="#CMR17-35" transform="translate(91.380954 0)scale(0.996264)"/>
      </g>
     </g>
    </g>
    <g id="xtick_7">
     <g id="line2d_7">
      <g>
       <use xlink:href="#m938fbbd1bc" x="345.715202" y="301.660854" style="stroke: #000000; stroke-width: 0.8"/>
      </g>
     </g>
     <g id="text_7">
      <!-- $\mathdefault{150}$ -->
      <g transform="translate(338.2432 315.579352)scale(0.1 -0.1)">
       <use xlink:href="#CMR17-31" transform="scale(0.996264)"/>
       <use xlink:href="#CMR17-35" transform="translate(45.690477 0)scale(0.996264)"/>
       <use xlink:href="#CMR17-30" transform="translate(91.380954 0)scale(0.996264)"/>
      </g>
     </g>
    </g>
    <g id="xtick_8">
     <g id="line2d_8">
      <g>
       <use xlink:href="#m938fbbd1bc" x="389.941156" y="301.660854" style="stroke: #000000; stroke-width: 0.8"/>
      </g>
     </g>
     <g id="text_8">
      <!-- $\mathdefault{175}$ -->
      <g transform="translate(382.469153 315.579352)scale(0.1 -0.1)">
       <use xlink:href="#CMR17-31" transform="scale(0.996264)"/>
       <use xlink:href="#CMR17-37" transform="translate(45.690477 0)scale(0.996264)"/>
       <use xlink:href="#CMR17-35" transform="translate(91.380954 0)scale(0.996264)"/>
      </g>
     </g>
    </g>
    <g id="xtick_9">
     <g id="line2d_9">
      <g>
       <use xlink:href="#m938fbbd1bc" x="434.167109" y="301.660854" style="stroke: #000000; stroke-width: 0.8"/>
      </g>
     </g>
     <g id="text_9">
      <!-- $\mathdefault{200}$ -->
      <g transform="translate(426.695106 315.579352)scale(0.1 -0.1)">
       <use xlink:href="#CMR17-32" transform="scale(0.996264)"/>
       <use xlink:href="#CMR17-30" transform="translate(45.690477 0)scale(0.996264)"/>
       <use xlink:href="#CMR17-30" transform="translate(91.380954 0)scale(0.996264)"/>
      </g>
     </g>
    </g>
    <g id="text_10">
     <!-- Boundary Data -->
     <g transform="translate(210.124846 331.894255)scale(0.15 -0.15)">
      <defs>
       <path id="CMSS17-42" d="M 570 4416 
L 570 0 
L 2163 0 
C 3034 0 3667 575 3667 1200 
C 3667 1684 3251 2175 2502 2316 
C 3334 2559 3501 3039 3501 3311 
C 3501 3880 2874 4416 1997 4416 
L 570 4416 
z
M 1088 2496 
L 1088 4057 
L 1824 4057 
C 2483 4057 3002 3722 3002 3305 
C 3002 2925 2592 2496 1766 2496 
L 1088 2496 
z
M 1088 358 
L 1088 2105 
L 1939 2105 
C 2630 2105 3162 1678 3162 1206 
C 3162 772 2694 358 1984 358 
L 1088 358 
z
" transform="scale(0.015625)"/>
       <path id="CMSS17-6f" d="M 2829 1356 
C 2829 2175 2221 2816 1504 2816 
C 768 2816 173 2156 173 1356 
C 173 544 787 -64 1498 -64 
C 2227 -64 2829 563 2829 1356 
z
M 1504 339 
C 1050 339 659 710 659 1407 
C 659 2150 1114 2425 1498 2425 
C 1914 2425 2342 2124 2342 1407 
C 2342 684 1926 339 1504 339 
z
" transform="scale(0.015625)"/>
       <path id="CMSS17-75" d="M 2618 2752 
L 2131 2752 
L 2131 976 
C 2131 500 1786 307 1421 307 
C 998 307 960 448 960 712 
L 960 2752 
L 474 2752 
L 474 680 
C 474 179 646 -64 1088 -64 
C 1306 -64 1798 -13 2144 307 
L 2144 -13 
L 2618 -13 
L 2618 2752 
z
" transform="scale(0.015625)"/>
       <path id="CMSS17-6e" d="M 2618 1878 
C 2618 2283 2522 2816 1798 2816 
C 1389 2816 1120 2604 941 2386 
L 941 2783 
L 474 2783 
L 474 0 
L 960 0 
L 960 1556 
C 960 1962 1114 2425 1549 2425 
C 2112 2425 2131 2045 2131 1826 
L 2131 0 
L 2618 0 
L 2618 1878 
z
" transform="scale(0.015625)"/>
       <path id="CMSS17-64" d="M 2611 4416 
L 2138 4416 
L 2138 2495 
C 1939 2662 1613 2816 1254 2816 
C 672 2816 211 2179 211 1375 
C 211 572 666 -64 1235 -64 
C 1677 -64 1971 172 2125 307 
L 2125 -13 
L 2611 -13 
L 2611 4416 
z
M 2125 851 
C 2125 760 2125 663 1926 488 
C 1798 378 1645 326 1498 326 
C 1152 326 698 585 698 1369 
C 698 2185 1210 2425 1562 2425 
C 1798 2425 1990 2308 2125 2114 
L 2125 851 
z
" transform="scale(0.015625)"/>
       <path id="CMSS17-61" d="M 2406 1789 
C 2406 2399 1978 2816 1402 2816 
C 1120 2816 813 2764 461 2559 
L 499 2133 
C 659 2250 934 2438 1395 2438 
C 1722 2438 1920 2185 1920 1782 
L 1920 1536 
C 896 1504 256 1209 256 711 
C 256 452 416 -64 947 -64 
C 1043 -64 1562 -52 1933 224 
L 1933 -13 
L 2406 -13 
L 2406 1789 
z
M 1920 824 
C 1920 711 1920 559 1728 446 
C 1562 339 1350 326 1261 326 
C 941 326 723 503 723 723 
C 723 1165 1722 1209 1920 1216 
L 1920 824 
z
" transform="scale(0.015625)"/>
       <path id="CMSS17-72" d="M 954 1369 
C 954 1974 1395 2379 1958 2392 
L 1958 2816 
C 1549 2809 1165 2604 934 2270 
L 934 2783 
L 480 2783 
L 480 0 
L 954 0 
L 954 1369 
z
" transform="scale(0.015625)"/>
       <path id="CMSS17-79" d="M 2675 2752 
L 2176 2752 
C 1632 1293 1446 701 1434 383 
L 1427 383 
C 1408 695 1126 1459 902 2006 
L 602 2752 
L 83 2752 
L 1216 14 
C 1146 -177 1043 -464 1011 -527 
C 870 -884 774 -884 672 -884 
C 646 -884 442 -877 211 -807 
L 250 -1229 
C 410 -1261 570 -1280 685 -1280 
C 845 -1280 1165 -1280 1459 -495 
L 2675 2752 
z
" transform="scale(0.015625)"/>
       <path id="CMSS17-44" d="M 570 4416 
L 570 0 
L 2144 0 
C 3194 0 4000 981 4000 2169 
C 4000 3396 3194 4416 2144 4416 
L 570 4416 
z
M 1094 358 
L 1094 4057 
L 2003 4057 
C 2861 4057 3475 3275 3475 2169 
C 3475 1108 2867 358 2003 358 
L 1094 358 
z
" transform="scale(0.015625)"/>
       <path id="CMSS17-74" d="M 1069 2380 
L 1901 2380 
L 1901 2752 
L 1069 2752 
L 1069 3520 
L 614 3520 
L 614 2752 
L 109 2752 
L 109 2380 
L 602 2380 
L 602 751 
C 602 384 685 -64 1107 -64 
C 1427 -64 1722 25 2003 172 
L 1901 551 
C 1747 416 1562 339 1363 339 
C 1082 339 1069 699 1069 860 
L 1069 2380 
z
" transform="scale(0.015625)"/>
      </defs>
      <use xlink:href="#CMSS17-42" transform="scale(0.996264)"/>
      <use xlink:href="#CMSS17-6f" transform="translate(62.33804 0)scale(0.996264)"/>
      <use xlink:href="#CMSS17-75" transform="translate(109.181664 0)scale(0.996264)"/>
      <use xlink:href="#CMSS17-6e" transform="translate(157.386607 0)scale(0.996264)"/>
      <use xlink:href="#CMSS17-64" transform="translate(205.59155 0)scale(0.996264)"/>
      <use xlink:href="#CMSS17-61" transform="translate(253.796493 0)scale(0.996264)"/>
      <use xlink:href="#CMSS17-72" transform="translate(296.11596 0)scale(0.996264)"/>
      <use xlink:href="#CMSS17-79" transform="translate(328.025732 0)scale(0.996264)"/>
      <use xlink:href="#CMSS17-44" transform="translate(402.254987 0)scale(0.996264)"/>
      <use xlink:href="#CMSS17-61" transform="translate(469.797828 0)scale(0.996264)"/>
      <use xlink:href="#CMSS17-74" transform="translate(514.719749 0)scale(0.996264)"/>
      <use xlink:href="#CMSS17-61" transform="translate(548.551316 0)scale(0.996264)"/>
     </g>
    </g>
   </g>
   <g id="matplotlib.axis_2">
    <g id="ytick_1">
     <g id="line2d_10">
      <defs>
       <path id="m0f7d924150" d="M 0 0 
L -3.5 0 
" style="stroke: #000000; stroke-width: 0.8"/>
      </defs>
      <g>
       <use xlink:href="#m0f7d924150" x="62.757554" y="285.595568" style="stroke: #000000; stroke-width: 0.8"/>
      </g>
     </g>
     <g id="text_11">
      <!-- $\mathdefault{0.0004}$ -->
      <g transform="translate(28.083469 289.054817)scale(0.1 -0.1)">
       <defs>
        <path id="CMMI12-3a" d="M 1178 307 
C 1178 492 1024 620 870 620 
C 685 620 557 467 557 313 
C 557 128 710 0 864 0 
C 1050 0 1178 153 1178 307 
z
" transform="scale(0.015625)"/>
        <path id="CMR17-34" d="M 2150 4147 
C 2150 4281 2144 4288 2029 4288 
L 128 1254 
L 128 1088 
L 1779 1088 
L 1779 460 
C 1779 230 1766 166 1318 166 
L 1197 166 
L 1197 0 
C 1402 12 1747 12 1965 12 
C 2182 12 2528 12 2733 0 
L 2733 166 
L 2611 166 
C 2163 166 2150 230 2150 460 
L 2150 1088 
L 2803 1088 
L 2803 1254 
L 2150 1254 
L 2150 4147 
z
M 1798 3723 
L 1798 1254 
L 256 1254 
L 1798 3723 
z
" transform="scale(0.015625)"/>
       </defs>
       <use xlink:href="#CMR17-30" transform="scale(0.996264)"/>
       <use xlink:href="#CMMI12-3a" transform="translate(45.690477 0)scale(0.996264)"/>
       <use xlink:href="#CMR17-30" transform="translate(72.787654 0)scale(0.996264)"/>
       <use xlink:href="#CMR17-30" transform="translate(118.478131 0)scale(0.996264)"/>
       <use xlink:href="#CMR17-30" transform="translate(164.168608 0)scale(0.996264)"/>
       <use xlink:href="#CMR17-34" transform="translate(209.859086 0)scale(0.996264)"/>
      </g>
     </g>
    </g>
    <g id="ytick_2">
     <g id="line2d_11">
      <g>
       <use xlink:href="#m0f7d924150" x="62.757554" y="253.040597" style="stroke: #000000; stroke-width: 0.8"/>
      </g>
     </g>
     <g id="text_12">
      <!-- $\mathdefault{0.0005}$ -->
      <g transform="translate(28.083469 256.499846)scale(0.1 -0.1)">
       <use xlink:href="#CMR17-30" transform="scale(0.996264)"/>
       <use xlink:href="#CMMI12-3a" transform="translate(45.690477 0)scale(0.996264)"/>
       <use xlink:href="#CMR17-30" transform="translate(72.787654 0)scale(0.996264)"/>
       <use xlink:href="#CMR17-30" transform="translate(118.478131 0)scale(0.996264)"/>
       <use xlink:href="#CMR17-30" transform="translate(164.168608 0)scale(0.996264)"/>
       <use xlink:href="#CMR17-35" transform="translate(209.859086 0)scale(0.996264)"/>
      </g>
     </g>
    </g>
    <g id="ytick_3">
     <g id="line2d_12">
      <g>
       <use xlink:href="#m0f7d924150" x="62.757554" y="220.485626" style="stroke: #000000; stroke-width: 0.8"/>
      </g>
     </g>
     <g id="text_13">
      <!-- $\mathdefault{0.0006}$ -->
      <g transform="translate(28.083469 223.944875)scale(0.1 -0.1)">
       <defs>
        <path id="CMR17-36" d="M 678 2198 
C 678 3712 1395 4076 1811 4076 
C 1946 4076 2272 4049 2400 3782 
C 2298 3782 2106 3782 2106 3558 
C 2106 3385 2246 3328 2336 3328 
C 2394 3328 2566 3353 2566 3571 
C 2566 3987 2246 4224 1805 4224 
C 1043 4224 243 3411 243 2011 
C 243 257 966 -128 1478 -128 
C 2099 -128 2688 431 2688 1295 
C 2688 2101 2170 2688 1517 2688 
C 1126 2688 838 2430 678 1979 
L 678 2198 
z
M 1478 25 
C 691 25 691 1212 691 1450 
C 691 1914 909 2585 1504 2585 
C 1613 2585 1926 2585 2138 2140 
C 2253 1889 2253 1624 2253 1302 
C 2253 954 2253 696 2118 438 
C 1978 173 1773 25 1478 25 
z
" transform="scale(0.015625)"/>
       </defs>
       <use xlink:href="#CMR17-30" transform="scale(0.996264)"/>
       <use xlink:href="#CMMI12-3a" transform="translate(45.690477 0)scale(0.996264)"/>
       <use xlink:href="#CMR17-30" transform="translate(72.787654 0)scale(0.996264)"/>
       <use xlink:href="#CMR17-30" transform="translate(118.478131 0)scale(0.996264)"/>
       <use xlink:href="#CMR17-30" transform="translate(164.168608 0)scale(0.996264)"/>
       <use xlink:href="#CMR17-36" transform="translate(209.859086 0)scale(0.996264)"/>
      </g>
     </g>
    </g>
    <g id="ytick_4">
     <g id="line2d_13">
      <g>
       <use xlink:href="#m0f7d924150" x="62.757554" y="187.930655" style="stroke: #000000; stroke-width: 0.8"/>
      </g>
     </g>
     <g id="text_14">
      <!-- $\mathdefault{0.0007}$ -->
      <g transform="translate(28.083469 191.389904)scale(0.1 -0.1)">
       <use xlink:href="#CMR17-30" transform="scale(0.996264)"/>
       <use xlink:href="#CMMI12-3a" transform="translate(45.690477 0)scale(0.996264)"/>
       <use xlink:href="#CMR17-30" transform="translate(72.787654 0)scale(0.996264)"/>
       <use xlink:href="#CMR17-30" transform="translate(118.478131 0)scale(0.996264)"/>
       <use xlink:href="#CMR17-30" transform="translate(164.168608 0)scale(0.996264)"/>
       <use xlink:href="#CMR17-37" transform="translate(209.859086 0)scale(0.996264)"/>
      </g>
     </g>
    </g>
    <g id="ytick_5">
     <g id="line2d_14">
      <g>
       <use xlink:href="#m0f7d924150" x="62.757554" y="155.375684" style="stroke: #000000; stroke-width: 0.8"/>
      </g>
     </g>
     <g id="text_15">
      <!-- $\mathdefault{0.0008}$ -->
      <g transform="translate(28.083469 158.834933)scale(0.1 -0.1)">
       <defs>
        <path id="CMR17-38" d="M 1741 2289 
C 2144 2494 2554 2803 2554 3298 
C 2554 3884 1990 4224 1472 4224 
C 890 4224 378 3800 378 3215 
C 378 3054 416 2777 666 2533 
C 730 2469 998 2276 1171 2154 
C 883 2006 211 1652 211 945 
C 211 282 838 -128 1459 -128 
C 2144 -128 2720 366 2720 1022 
C 2720 1607 2330 1877 2074 2051 
L 1741 2289 
z
M 902 2855 
C 851 2887 595 3086 595 3388 
C 595 3781 998 4076 1459 4076 
C 1965 4076 2336 3716 2336 3298 
C 2336 2700 1670 2359 1638 2359 
C 1632 2359 1626 2359 1574 2398 
L 902 2855 
z
M 2080 1536 
C 2176 1466 2483 1253 2483 861 
C 2483 385 2010 25 1472 25 
C 890 25 448 443 448 951 
C 448 1459 838 1884 1280 2083 
L 2080 1536 
z
" transform="scale(0.015625)"/>
       </defs>
       <use xlink:href="#CMR17-30" transform="scale(0.996264)"/>
       <use xlink:href="#CMMI12-3a" transform="translate(45.690477 0)scale(0.996264)"/>
       <use xlink:href="#CMR17-30" transform="translate(72.787654 0)scale(0.996264)"/>
       <use xlink:href="#CMR17-30" transform="translate(118.478131 0)scale(0.996264)"/>
       <use xlink:href="#CMR17-30" transform="translate(164.168608 0)scale(0.996264)"/>
       <use xlink:href="#CMR17-38" transform="translate(209.859086 0)scale(0.996264)"/>
      </g>
     </g>
    </g>
    <g id="ytick_6">
     <g id="line2d_15">
      <g>
       <use xlink:href="#m0f7d924150" x="62.757554" y="122.820713" style="stroke: #000000; stroke-width: 0.8"/>
      </g>
     </g>
     <g id="text_16">
      <!-- $\mathdefault{0.0009}$ -->
      <g transform="translate(28.083469 126.279962)scale(0.1 -0.1)">
       <defs>
        <path id="CMR17-39" d="M 2253 1871 
C 2253 448 1670 25 1190 25 
C 1043 25 685 43 538 281 
C 704 256 826 345 826 505 
C 826 678 685 736 595 736 
C 538 736 365 710 365 492 
C 365 68 742 -128 1203 -128 
C 1939 -128 2688 665 2688 2090 
C 2688 3857 1971 4224 1485 4224 
C 851 4224 243 3664 243 2800 
C 243 2000 762 1408 1414 1408 
C 1952 1408 2189 1910 2253 2122 
L 2253 1871 
z
M 1427 1510 
C 1254 1510 1011 1542 813 1929 
C 678 2181 678 2477 678 2793 
C 678 3174 678 3438 858 3722 
C 947 3857 1114 4076 1485 4076 
C 2240 4076 2240 2909 2240 2651 
C 2240 2193 2035 1510 1427 1510 
z
" transform="scale(0.015625)"/>
       </defs>
       <use xlink:href="#CMR17-30" transform="scale(0.996264)"/>
       <use xlink:href="#CMMI12-3a" transform="translate(45.690477 0)scale(0.996264)"/>
       <use xlink:href="#CMR17-30" transform="translate(72.787654 0)scale(0.996264)"/>
       <use xlink:href="#CMR17-30" transform="translate(118.478131 0)scale(0.996264)"/>
       <use xlink:href="#CMR17-30" transform="translate(164.168608 0)scale(0.996264)"/>
       <use xlink:href="#CMR17-39" transform="translate(209.859086 0)scale(0.996264)"/>
      </g>
     </g>
    </g>
    <g id="ytick_7">
     <g id="line2d_16">
      <g>
       <use xlink:href="#m0f7d924150" x="62.757554" y="90.265742" style="stroke: #000000; stroke-width: 0.8"/>
      </g>
     </g>
     <g id="text_17">
      <!-- $\mathdefault{0.0010}$ -->
      <g transform="translate(28.083469 93.724991)scale(0.1 -0.1)">
       <use xlink:href="#CMR17-30" transform="scale(0.996264)"/>
       <use xlink:href="#CMMI12-3a" transform="translate(45.690477 0)scale(0.996264)"/>
       <use xlink:href="#CMR17-30" transform="translate(72.787654 0)scale(0.996264)"/>
       <use xlink:href="#CMR17-30" transform="translate(118.478131 0)scale(0.996264)"/>
       <use xlink:href="#CMR17-31" transform="translate(164.168608 0)scale(0.996264)"/>
       <use xlink:href="#CMR17-30" transform="translate(209.859086 0)scale(0.996264)"/>
      </g>
     </g>
    </g>
    <g id="ytick_8">
     <g id="line2d_17">
      <g>
       <use xlink:href="#m0f7d924150" x="62.757554" y="57.710771" style="stroke: #000000; stroke-width: 0.8"/>
      </g>
     </g>
     <g id="text_18">
      <!-- $\mathdefault{0.0011}$ -->
      <g transform="translate(28.083469 61.17002)scale(0.1 -0.1)">
       <use xlink:href="#CMR17-30" transform="scale(0.996264)"/>
       <use xlink:href="#CMMI12-3a" transform="translate(45.690477 0)scale(0.996264)"/>
       <use xlink:href="#CMR17-30" transform="translate(72.787654 0)scale(0.996264)"/>
       <use xlink:href="#CMR17-30" transform="translate(118.478131 0)scale(0.996264)"/>
       <use xlink:href="#CMR17-31" transform="translate(164.168608 0)scale(0.996264)"/>
       <use xlink:href="#CMR17-31" transform="translate(209.859086 0)scale(0.996264)"/>
      </g>
     </g>
    </g>
    <g id="ytick_9">
     <g id="line2d_18">
      <g>
       <use xlink:href="#m0f7d924150" x="62.757554" y="25.1558" style="stroke: #000000; stroke-width: 0.8"/>
      </g>
     </g>
     <g id="text_19">
      <!-- $\mathdefault{0.0012}$ -->
      <g transform="translate(28.083469 28.615049)scale(0.1 -0.1)">
       <use xlink:href="#CMR17-30" transform="scale(0.996264)"/>
       <use xlink:href="#CMMI12-3a" transform="translate(45.690477 0)scale(0.996264)"/>
       <use xlink:href="#CMR17-30" transform="translate(72.787654 0)scale(0.996264)"/>
       <use xlink:href="#CMR17-30" transform="translate(118.478131 0)scale(0.996264)"/>
       <use xlink:href="#CMR17-31" transform="translate(164.168608 0)scale(0.996264)"/>
       <use xlink:href="#CMR17-32" transform="translate(209.859086 0)scale(0.996264)"/>
      </g>
     </g>
    </g>
    <g id="text_20">
     <!-- Strain -->
     <g transform="translate(21.177725 174.399916)rotate(-90)scale(0.15 -0.15)">
      <defs>
       <path id="CMSS17-53" d="M 2797 4230 
C 2515 4396 2208 4544 1690 4544 
C 864 4544 333 3934 333 3309 
C 333 3064 403 2787 653 2504 
C 902 2220 1184 2143 1542 2053 
C 1690 2014 1939 1943 1984 1924 
C 2342 1782 2515 1454 2515 1144 
C 2515 738 2202 307 1645 307 
C 1453 307 890 339 358 829 
L 269 320 
C 794 -64 1363 -128 1651 -128 
C 2438 -128 3002 494 3002 1202 
C 3002 1460 2925 1789 2656 2092 
C 2394 2381 2163 2446 1638 2588 
C 1338 2665 1146 2717 986 2916 
C 877 3058 819 3193 819 3367 
C 819 3728 1126 4121 1690 4121 
C 1971 4121 2336 4063 2707 3715 
L 2797 4230 
z
" transform="scale(0.015625)"/>
       <path id="CMSS17-69" d="M 979 4224 
L 442 4224 
L 442 3686 
L 979 3686 
L 979 4224 
z
M 947 2752 
L 474 2752 
L 474 0 
L 947 0 
L 947 2752 
z
" transform="scale(0.015625)"/>
      </defs>
      <use xlink:href="#CMSS17-53" transform="scale(0.996264)"/>
      <use xlink:href="#CMSS17-74" transform="translate(52.048516 0)scale(0.996264)"/>
      <use xlink:href="#CMSS17-72" transform="translate(85.880083 0)scale(0.996264)"/>
      <use xlink:href="#CMSS17-61" transform="translate(117.789855 0)scale(0.996264)"/>
      <use xlink:href="#CMSS17-69" transform="translate(162.711776 0)scale(0.996264)"/>
      <use xlink:href="#CMSS17-6e" transform="translate(184.892499 0)scale(0.996264)"/>
     </g>
    </g>
   </g>
   <g id="line2d_19">
    <path d="M 80.359484 250.253745 
L 82.128522 232.434959 
L 83.89756 228.21927 
L 85.666598 226.799539 
L 87.435636 226.050519 
L 89.204674 252.056076 
L 90.973712 238.69967 
L 92.74275 265.393071 
L 94.511789 211.94027 
L 96.280827 246.651239 
L 98.049865 238.242706 
L 99.818903 213.477591 
L 101.587941 224.876363 
L 103.356979 213.285094 
L 105.126017 266.235897 
L 106.895055 226.24083 
L 108.664094 250.481338 
L 110.433132 247.725158 
L 112.20217 207.897394 
L 113.971208 237.370275 
L 115.740246 217.896331 
L 117.509284 220.939457 
L 119.278322 192.860503 
L 121.04736 266.943786 
L 122.816399 253.602054 
L 124.585437 262.960222 
L 126.354475 243.061372 
L 128.123513 232.6874 
L 129.892551 266.067377 
L 131.661589 283.13498 
L 133.430627 266.812208 
L 135.199665 217.210751 
L 136.968704 219.819978 
L 138.737742 225.943051 
L 140.50678 275.449298 
L 142.275818 247.974023 
L 144.044856 244.883366 
L 145.813894 223.938869 
L 147.582932 254.230081 
L 149.35197 244.94995 
L 151.121009 229.860495 
L 152.890047 229.873546 
L 154.659085 217.897565 
L 156.428123 255.721902 
L 158.197161 237.055465 
L 159.966199 211.539029 
L 161.735237 225.412517 
L 163.504275 247.43277 
L 165.273314 255.791424 
L 167.042352 212.693416 
L 168.81139 248.008437 
L 170.580428 278.116691 
L 172.349466 223.012685 
L 174.118504 248.832808 
L 175.887542 285.610495 
L 177.65658 245.829331 
L 179.425619 246.688622 
L 181.194657 222.732031 
L 182.963695 244.944759 
L 184.732733 264.966089 
L 186.501771 223.065625 
L 188.270809 228.525624 
L 190.039847 276.258543 
L 191.808885 264.430622 
L 193.577924 216.499031 
L 195.346962 209.599771 
L 197.116 234.895821 
L 198.885038 277.800623 
L 200.654076 246.58764 
L 202.423114 240.727938 
L 204.192152 216.081993 
L 205.961191 269.444017 
L 207.730229 255.116143 
L 209.499267 230.838395 
L 211.268305 229.783228 
L 213.037343 249.185661 
L 214.806381 215.586528 
L 216.575419 261.481794 
L 218.344457 232.438813 
L 220.113496 228.495014 
L 221.882534 244.698242 
L 223.651572 255.434367 
L 225.42061 193.752746 
L 227.189648 224.554833 
L 228.958686 252.50097 
L 230.727724 267.595139 
L 232.496762 217.563096 
L 234.265801 211.136733 
L 236.034839 218.48433 
L 237.803877 270.557665 
L 239.572915 244.086325 
L 241.341953 241.658746 
L 243.110991 265.572945 
L 244.880029 215.645681 
L 246.649067 233.215548 
L 248.418106 254.465996 
L 250.187144 225.546917 
L 251.956182 229.711371 
L 253.72522 271.464459 
L 255.494258 250.861725 
L 257.263296 247.928069 
L 259.032334 276.498622 
L 260.801372 250.182031 
L 262.570411 240.075442 
L 264.339449 228.475119 
L 266.108487 224.415501 
L 267.877525 220.994196 
L 269.646563 244.743078 
L 271.415601 288.439906 
L 273.184639 205.66398 
L 274.953677 230.463767 
L 276.722716 226.705683 
L 278.491754 232.994489 
L 280.260792 241.896135 
L 282.02983 228.474484 
L 283.798868 243.948512 
L 285.567906 247.39692 
L 287.336944 214.860158 
L 289.105982 242.260967 
L 290.875021 258.941565 
L 292.644059 246.101336 
L 294.413097 244.009591 
L 296.182135 248.410324 
L 297.951173 241.364621 
L 299.720211 245.841522 
L 301.489249 271.529464 
L 303.258287 225.26283 
L 305.027326 235.551797 
L 306.796364 210.197808 
L 308.565402 256.735645 
L 310.33444 214.159021 
L 312.103478 282.918784 
L 313.872516 228.217256 
L 315.641554 259.954971 
L 317.410592 224.88714 
L 319.179631 274.917669 
L 320.948669 235.321712 
L 322.717707 235.124367 
L 324.486745 207.854732 
L 326.255783 261.22661 
L 328.024821 249.328183 
L 329.793859 258.759605 
L 331.562897 256.797134 
L 333.331936 217.228392 
L 335.100974 255.379544 
L 336.870012 272.024 
L 338.63905 237.691629 
L 340.408088 232.701574 
L 342.177126 236.85904 
L 343.946164 258.860029 
L 345.715202 272.574428 
L 347.484241 218.962423 
L 349.253279 277.31233 
L 351.022317 266.375549 
L 352.791355 244.738354 
L 354.560393 251.114967 
L 356.329431 216.014217 
L 358.098469 251.021231 
L 359.867507 274.358268 
L 361.636546 285.354032 
L 363.405584 237.508 
L 365.174622 259.216216 
L 366.94366 215.691516 
L 368.712698 234.49182 
L 370.481736 261.237706 
L 372.250774 213.331436 
L 374.019812 249.791459 
L 375.788851 250.484909 
L 379.326927 199.896307 
L 381.095965 259.612302 
L 382.865003 235.738727 
L 384.634041 264.017794 
L 386.403079 216.526509 
L 388.172117 226.896501 
L 389.941156 277.709866 
L 391.710194 226.836851 
L 393.479232 284.003904 
L 395.24827 236.210406 
L 397.017308 208.611753 
L 398.786346 226.917086 
L 402.324423 249.847192 
L 404.093461 222.89084 
L 405.862499 199.181049 
L 407.631537 244.203748 
L 409.400575 230.574261 
L 411.169613 230.281709 
L 412.938651 241.997108 
L 414.707689 274.3049 
L 416.476728 234.661849 
L 418.245766 238.93516 
L 420.014804 246.00153 
L 421.783842 249.210418 
L 423.55288 210.664219 
L 425.321918 225.80955 
L 427.090956 244.602576 
L 428.859994 241.799785 
L 430.629033 219.417914 
L 432.398071 227.622403 
L 432.398071 227.622403 
" clip-path="url(#p3820888193)" style="fill: none; stroke: #3c74ff; stroke-width: 1.5; stroke-linecap: square"/>
   </g>
   <g id="line2d_20">
    <path d="M 80.359484 210.32747 
L 82.128522 206.3394 
L 83.89756 220.820731 
L 85.666598 182.262403 
L 87.435636 221.373204 
L 89.204674 136.0074 
L 90.973712 193.457202 
L 92.74275 231.680479 
L 94.511789 191.538683 
L 96.280827 241.130545 
L 98.049865 175.846227 
L 99.818903 202.457172 
L 101.587941 201.496684 
L 103.356979 214.409348 
L 105.126017 257.415388 
L 106.895055 215.511368 
L 108.664094 181.347885 
L 110.433132 233.150997 
L 112.20217 199.733954 
L 113.971208 230.942419 
L 115.740246 195.758387 
L 117.509284 213.958105 
L 119.278322 190.863666 
L 121.04736 230.910233 
L 122.816399 215.671264 
L 124.585437 212.98313 
L 126.354475 241.848072 
L 128.123513 231.676273 
L 129.892551 241.521136 
L 131.661589 224.992888 
L 133.430627 255.063215 
L 135.199665 215.622422 
L 136.968704 218.478491 
L 138.737742 175.266747 
L 140.50678 199.873072 
L 142.275818 231.091062 
L 144.044856 233.743691 
L 145.813894 218.420639 
L 147.582932 48.722959 
L 149.35197 220.361108 
L 151.121009 228.032212 
L 152.890047 230.502089 
L 154.659085 201.655123 
L 156.428123 235.400693 
L 158.197161 228.737849 
L 159.966199 212.239884 
L 161.735237 210.112459 
L 163.504275 173.167478 
L 165.273314 247.036228 
L 167.042352 155.806964 
L 168.81139 191.168425 
L 170.580428 268.886836 
L 172.349466 216.735562 
L 174.118504 195.781115 
L 175.887542 239.361937 
L 177.65658 230.428155 
L 179.425619 229.764673 
L 181.194657 213.844201 
L 182.963695 238.314056 
L 184.732733 209.854587 
L 186.501771 214.548697 
L 188.270809 228.23072 
L 190.039847 259.992625 
L 191.808885 236.499137 
L 193.577924 214.99645 
L 195.346962 209.531221 
L 197.116 230.912137 
L 198.885038 275.217766 
L 200.654076 205.63783 
L 202.423114 226.63063 
L 204.192152 206.649074 
L 205.961191 217.035891 
L 207.730229 149.934663 
L 209.499267 226.51855 
L 211.268305 228.892215 
L 213.037343 235.61038 
L 214.806381 159.203443 
L 216.575419 237.252772 
L 218.344457 224.833296 
L 220.113496 206.760269 
L 221.882534 218.160323 
L 223.651572 127.827037 
L 225.42061 186.453626 
L 227.189648 206.164572 
L 228.958686 242.856869 
L 230.727724 228.40746 
L 232.496762 163.637768 
L 234.265801 212.124029 
L 236.034839 220.983646 
L 237.803877 257.362543 
L 239.572915 228.895976 
L 241.341953 231.839589 
L 243.110991 220.203188 
L 244.880029 213.198621 
L 246.649067 218.913107 
L 248.418106 248.611286 
L 250.187144 206.718888 
L 251.956182 230.483977 
L 253.72522 222.113561 
L 255.494258 173.568887 
L 257.263296 227.388155 
L 259.032334 263.738573 
L 260.801372 246.69856 
L 262.570411 238.564379 
L 264.339449 175.889227 
L 269.646563 232.155989 
L 271.415601 258.698827 
L 273.184639 45.542841 
L 274.953677 224.264456 
L 276.722716 220.113863 
L 278.491754 220.633779 
L 280.260792 226.953628 
L 282.02983 216.194684 
L 283.798868 237.929309 
L 285.567906 244.862394 
L 287.336944 215.916909 
L 289.105982 105.847072 
L 290.875021 255.403948 
L 292.644059 241.762538 
L 294.413097 201.980778 
L 296.182135 115.735673 
L 297.951173 227.687221 
L 299.720211 240.716231 
L 301.489249 249.240257 
L 303.258287 223.964554 
L 305.027326 235.218229 
L 306.796364 193.721574 
L 308.565402 232.169222 
L 310.33444 212.431112 
L 312.103478 247.011592 
L 313.872516 210.207492 
L 315.641554 113.331638 
L 317.410592 219.28276 
L 319.179631 164.277528 
L 320.948669 209.705651 
L 322.717707 181.093239 
L 324.486745 204.736857 
L 326.255783 249.129252 
L 328.024821 232.063101 
L 329.793859 233.721609 
L 331.562897 230.15439 
L 333.331936 198.225891 
L 335.100974 231.012165 
L 336.870012 225.437352 
L 338.63905 192.710848 
L 340.408088 230.416265 
L 342.177126 219.659634 
L 343.946164 259.160241 
L 345.715202 273.344359 
L 347.484241 24.020948 
L 349.253279 238.985418 
L 351.022317 201.345867 
L 352.791355 215.839656 
L 354.560393 207.381568 
L 356.329431 216.443346 
L 358.098469 227.365087 
L 359.867507 207.632823 
L 361.636546 239.66148 
L 363.405584 232.593828 
L 365.174622 247.987813 
L 366.94366 216.001912 
L 368.712698 126.304437 
L 370.481736 243.52649 
L 372.250774 212.574053 
L 374.019812 144.68253 
L 375.788851 251.885111 
L 377.557889 222.541557 
L 379.326927 198.93488 
L 381.095965 129.838444 
L 382.865003 227.352596 
L 384.634041 258.897773 
L 386.403079 212.640695 
L 388.172117 226.527472 
L 389.941156 163.205222 
L 391.710194 216.244724 
L 393.479232 248.176092 
L 395.24827 209.346711 
L 397.017308 26.72616 
L 398.786346 209.184339 
L 400.555384 235.620061 
L 402.324423 215.91897 
L 404.093461 194.270292 
L 405.862499 194.72198 
L 407.631537 239.913046 
L 409.400575 223.674796 
L 411.169613 222.015812 
L 412.938651 85.047063 
L 414.707689 267.27991 
L 416.476728 232.521315 
L 418.245766 99.007806 
L 420.014804 245.812909 
L 421.783842 246.948493 
L 423.55288 187.6828 
L 425.321918 40.87792 
L 427.090956 243.242577 
L 428.859994 204.394755 
L 430.629033 225.128729 
L 432.398071 226.776753 
L 432.398071 226.776753 
" clip-path="url(#p3820888193)" style="fill: none; stroke-dasharray: 5.55,2.4; stroke-dashoffset: 0; stroke: #eea219; stroke-width: 1.5"/>
   </g>
   <g id="patch_3">
    <path d="M 62.757554 301.660854 
L 62.757554 10.8 
" style="fill: none; stroke: #000000; stroke-width: 0.8; stroke-linejoin: miter; stroke-linecap: square"/>
   </g>
   <g id="patch_4">
    <path d="M 450 301.660854 
L 450 10.8 
" style="fill: none; stroke: #000000; stroke-width: 0.8; stroke-linejoin: miter; stroke-linecap: square"/>
   </g>
   <g id="patch_5">
    <path d="M 62.757554 301.660854 
L 450 301.660854 
" style="fill: none; stroke: #000000; stroke-width: 0.8; stroke-linejoin: miter; stroke-linecap: square"/>
   </g>
   <g id="patch_6">
    <path d="M 62.757554 10.8 
L 450 10.8 
" style="fill: none; stroke: #000000; stroke-width: 0.8; stroke-linejoin: miter; stroke-linecap: square"/>
   </g>
   <g id="legend_1">
    <g id="patch_7">
     <path d="M 69.757554 46.674357 
L 169.558917 46.674357 
Q 171.558917 46.674357 171.558917 44.674357 
L 171.558917 17.8 
Q 171.558917 15.8 169.558917 15.8 
L 69.757554 15.8 
Q 67.757554 15.8 67.757554 17.8 
L 67.757554 44.674357 
Q 67.757554 46.674357 69.757554 46.674357 
z
" style="fill: #ffffff; opacity: 0.8; stroke: #cccccc; stroke-linejoin: miter"/>
    </g>
    <g id="line2d_21">
     <path d="M 71.757554 23.3 
L 81.757554 23.3 
L 91.757554 23.3 
" style="fill: none; stroke: #3c74ff; stroke-width: 1.5; stroke-linecap: square"/>
    </g>
    <g id="text_21">
     <!-- Real values -->
     <g transform="translate(99.757554 26.8)scale(0.1 -0.1)">
      <defs>
       <path id="CMSS17-52" d="M 2522 2099 
L 2534 2105 
C 3533 2450 3539 3125 3539 3244 
C 3539 3838 2925 4416 2003 4416 
L 570 4416 
L 570 0 
L 1094 0 
L 1094 2041 
L 2035 2041 
L 3168 0 
L 3706 0 
L 2522 2099 
z
M 1094 2432 
L 1094 4057 
L 1933 4057 
C 2746 4057 3034 3607 3034 3244 
C 3034 2907 2778 2432 1933 2432 
L 1094 2432 
z
" transform="scale(0.015625)"/>
       <path id="CMSS17-65" d="M 2502 1375 
C 2502 1587 2490 2001 2285 2347 
C 2061 2713 1696 2816 1421 2816 
C 755 2816 192 2184 192 1363 
C 192 579 774 -64 1510 -64 
C 1798 -64 2150 19 2470 249 
C 2470 275 2458 414 2451 421 
C 2451 433 2432 629 2432 655 
C 2125 408 1773 326 1517 326 
C 1107 326 666 667 646 1375 
L 2502 1375 
z
M 698 1728 
C 781 2086 1062 2425 1421 2425 
C 1517 2425 1965 2412 2080 1728 
L 698 1728 
z
" transform="scale(0.015625)"/>
       <path id="CMSS17-6c" d="M 947 4416 
L 474 4416 
L 474 0 
L 947 0 
L 947 4416 
z
" transform="scale(0.015625)"/>
       <path id="CMSS17-76" d="M 2675 2752 
L 2176 2752 
L 1747 1555 
C 1613 1164 1421 627 1389 352 
L 1382 352 
C 1370 467 1318 633 1286 748 
C 1248 889 1197 1056 1158 1171 
L 595 2752 
L 83 2752 
L 1094 0 
L 1664 0 
L 2675 2752 
z
" transform="scale(0.015625)"/>
       <path id="CMSS17-73" d="M 2061 2623 
C 1683 2803 1389 2816 1197 2816 
C 742 2816 198 2655 198 2009 
C 198 1363 902 1222 1094 1183 
C 1389 1126 1715 1062 1715 742 
C 1715 339 1254 339 1171 339 
C 915 339 563 409 243 639 
L 166 211 
C 531 0 883 -64 1178 -64 
C 1965 -64 2163 416 2163 780 
C 2163 1094 1984 1305 1862 1401 
C 1651 1567 1574 1587 1050 1695 
C 960 1708 646 1779 646 2067 
C 646 2431 1050 2431 1139 2431 
C 1555 2431 1811 2303 1984 2207 
L 2061 2623 
z
" transform="scale(0.015625)"/>
      </defs>
      <use xlink:href="#CMSS17-52" transform="scale(0.996264)"/>
      <use xlink:href="#CMSS17-65" transform="translate(60.416155 0)scale(0.996264)"/>
      <use xlink:href="#CMSS17-61" transform="translate(102.054977 0)scale(0.996264)"/>
      <use xlink:href="#CMSS17-6c" transform="translate(146.976898 0)scale(0.996264)"/>
      <use xlink:href="#CMSS17-76" transform="translate(200.386733 0)scale(0.996264)"/>
      <use xlink:href="#CMSS17-61" transform="translate(243.386875 0)scale(0.996264)"/>
      <use xlink:href="#CMSS17-6c" transform="translate(288.308796 0)scale(0.996264)"/>
      <use xlink:href="#CMSS17-75" transform="translate(310.489519 0)scale(0.996264)"/>
      <use xlink:href="#CMSS17-65" transform="translate(358.694462 0)scale(0.996264)"/>
      <use xlink:href="#CMSS17-73" transform="translate(400.333284 0)scale(0.996264)"/>
     </g>
    </g>
    <g id="line2d_22">
     <path d="M 71.757554 37.237178 
L 81.757554 37.237178 
L 91.757554 37.237178 
" style="fill: none; stroke-dasharray: 5.55,2.4; stroke-dashoffset: 0; stroke: #eea219; stroke-width: 1.5"/>
    </g>
    <g id="text_22">
     <!-- Predicted values -->
     <g transform="translate(99.757554 40.737178)scale(0.1 -0.1)">
      <defs>
       <path id="CMSS17-50" d="M 2106 1856 
C 2874 1856 3501 2447 3501 3139 
C 3501 3818 2899 4416 2067 4416 
L 570 4416 
L 570 0 
L 1107 0 
L 1107 1856 
L 2106 1856 
z
M 1926 4057 
C 2669 4057 2995 3598 2995 3139 
C 2995 2711 2694 2227 1926 2227 
L 1094 2227 
L 1094 4057 
L 1926 4057 
z
" transform="scale(0.015625)"/>
       <path id="CMSS17-63" d="M 2464 2540 
C 2464 2585 2170 2713 2093 2739 
C 1882 2816 1613 2816 1542 2816 
C 710 2816 211 2092 211 1363 
C 211 595 768 -64 1517 -64 
C 1946 -64 2253 76 2502 243 
L 2464 665 
C 2189 454 1869 339 1523 339 
C 1024 339 698 774 698 1369 
C 698 1830 909 2412 1549 2412 
C 1901 2412 2099 2342 2394 2143 
L 2464 2540 
z
" transform="scale(0.015625)"/>
      </defs>
      <use xlink:href="#CMSS17-50" transform="scale(0.996264)"/>
      <use xlink:href="#CMSS17-72" transform="translate(59.735586 0)scale(0.996264)"/>
      <use xlink:href="#CMSS17-65" transform="translate(91.645359 0)scale(0.996264)"/>
      <use xlink:href="#CMSS17-64" transform="translate(133.284181 0)scale(0.996264)"/>
      <use xlink:href="#CMSS17-69" transform="translate(181.489124 0)scale(0.996264)"/>
      <use xlink:href="#CMSS17-63" transform="translate(203.669847 0)scale(0.996264)"/>
      <use xlink:href="#CMSS17-74" transform="translate(245.308669 0)scale(0.996264)"/>
      <use xlink:href="#CMSS17-65" transform="translate(279.140236 0)scale(0.996264)"/>
      <use xlink:href="#CMSS17-64" transform="translate(320.779058 0)scale(0.996264)"/>
      <use xlink:href="#CMSS17-76" transform="translate(400.213114 0)scale(0.996264)"/>
      <use xlink:href="#CMSS17-61" transform="translate(443.213255 0)scale(0.996264)"/>
      <use xlink:href="#CMSS17-6c" transform="translate(488.135176 0)scale(0.996264)"/>
      <use xlink:href="#CMSS17-75" transform="translate(510.315899 0)scale(0.996264)"/>
      <use xlink:href="#CMSS17-65" transform="translate(558.520842 0)scale(0.996264)"/>
      <use xlink:href="#CMSS17-73" transform="translate(600.159664 0)scale(0.996264)"/>
     </g>
    </g>
   </g>
  </g>
 </g>
 <defs>
  <clipPath id="p3820888193">
   <rect x="62.757554" y="10.8" width="387.242446" height="290.860854"/>
  </clipPath>
 </defs>
</svg>
