<?xml version="1.0" encoding="utf-8" standalone="no"?>
<!DOCTYPE svg PUBLIC "-//W3C//DTD SVG 1.1//EN"
  "http://www.w3.org/Graphics/SVG/1.1/DTD/svg11.dtd">
<svg xmlns:xlink="http://www.w3.org/1999/xlink" width="460.8pt" height="345.6pt" viewBox="0 0 460.8 345.6" xmlns="http://www.w3.org/2000/svg" version="1.1">
 <metadata>
  <rdf:RDF xmlns:dc="http://purl.org/dc/elements/1.1/" xmlns:cc="http://creativecommons.org/ns#" xmlns:rdf="http://www.w3.org/1999/02/22-rdf-syntax-ns#">
   <cc:Work>
    <dc:type rdf:resource="http://purl.org/dc/dcmitype/StillImage"/>
    <dc:date>2023-03-10T12:59:50.967384</dc:date>
    <dc:format>image/svg+xml</dc:format>
    <dc:creator>
     <cc:Agent>
      <dc:title>Matplotlib v3.5.3, https://matplotlib.org/</dc:title>
     </cc:Agent>
    </dc:creator>
   </cc:Work>
  </rdf:RDF>
 </metadata>
 <defs>
  <style type="text/css">*{stroke-linejoin: round; stroke-linecap: butt}</style>
 </defs>
 <g id="figure_1">
  <g id="patch_1">
   <path d="M 0 345.6 
L 460.8 345.6 
L 460.8 0 
L 0 0 
z
" style="fill: #ffffff"/>
  </g>
  <g id="axes_1">
   <g id="patch_2">
    <path d="M 67.738889 301.660854 
L 450 301.660854 
L 450 10.8 
L 67.738889 10.8 
z
" style="fill: #ffffff"/>
   </g>
   <g id="matplotlib.axis_1">
    <g id="xtick_1">
     <g id="line2d_1">
      <defs>
       <path id="m788dd1670b" d="M 0 0 
L 0 3.5 
" style="stroke: #000000; stroke-width: 0.8"/>
      </defs>
      <g>
       <use xlink:href="#m788dd1670b" x="85.114394" y="301.660854" style="stroke: #000000; stroke-width: 0.8"/>
      </g>
     </g>
     <g id="text_1">
      <!-- $\mathdefault{0}$ -->
      <g transform="translate(82.623727 315.579352)scale(0.1 -0.1)">
       <defs>
        <path id="CMR17-30" d="M 2688 2038 
C 2688 2430 2682 3099 2413 3613 
C 2176 4063 1798 4224 1466 4224 
C 1158 4224 768 4082 525 3620 
C 269 3137 243 2539 243 2038 
C 243 1671 250 1112 448 623 
C 723 -39 1216 -128 1466 -128 
C 1760 -128 2208 -7 2470 604 
C 2662 1048 2688 1568 2688 2038 
z
M 1466 -26 
C 1056 -26 813 328 723 816 
C 653 1196 653 1749 653 2109 
C 653 2604 653 3015 736 3407 
C 858 3954 1216 4121 1466 4121 
C 1728 4121 2067 3947 2189 3420 
C 2272 3054 2278 2623 2278 2109 
C 2278 1691 2278 1176 2202 797 
C 2067 96 1690 -26 1466 -26 
z
" transform="scale(0.015625)"/>
       </defs>
       <use xlink:href="#CMR17-30" transform="scale(0.996264)"/>
      </g>
     </g>
    </g>
    <g id="xtick_2">
     <g id="line2d_2">
      <g>
       <use xlink:href="#m788dd1670b" x="128.771442" y="301.660854" style="stroke: #000000; stroke-width: 0.8"/>
      </g>
     </g>
     <g id="text_2">
      <!-- $\mathdefault{25}$ -->
      <g transform="translate(123.790107 315.579352)scale(0.1 -0.1)">
       <defs>
        <path id="CMR17-32" d="M 2669 990 
L 2554 990 
C 2490 537 2438 460 2413 422 
C 2381 371 1920 371 1830 371 
L 602 371 
C 832 620 1280 1073 1824 1596 
C 2214 1966 2669 2400 2669 3033 
C 2669 3788 2067 4224 1395 4224 
C 691 4224 262 3603 262 3027 
C 262 2777 448 2745 525 2745 
C 589 2745 781 2783 781 3007 
C 781 3206 614 3264 525 3264 
C 486 3264 448 3257 422 3244 
C 544 3788 915 4057 1306 4057 
C 1862 4057 2227 3616 2227 3033 
C 2227 2477 1901 1998 1536 1583 
L 262 147 
L 262 0 
L 2515 0 
L 2669 990 
z
" transform="scale(0.015625)"/>
        <path id="CMR17-35" d="M 730 3750 
C 794 3724 1056 3641 1325 3641 
C 1920 3641 2246 3961 2432 4140 
C 2432 4191 2432 4224 2394 4224 
C 2387 4224 2374 4224 2323 4198 
C 2099 4102 1837 4032 1517 4032 
C 1325 4032 1037 4055 723 4191 
C 653 4224 640 4224 634 4224 
C 602 4224 595 4217 595 4090 
L 595 2231 
C 595 2113 595 2080 659 2080 
C 691 2080 704 2093 736 2139 
C 941 2435 1222 2560 1542 2560 
C 1766 2560 2246 2415 2246 1293 
C 2246 1087 2246 716 2054 422 
C 1894 159 1645 25 1370 25 
C 947 25 518 319 403 812 
C 429 806 480 793 506 793 
C 589 793 749 838 749 1036 
C 749 1209 627 1280 506 1280 
C 358 1280 262 1190 262 1011 
C 262 454 704 -128 1382 -128 
C 2042 -128 2669 441 2669 1267 
C 2669 2054 2170 2662 1549 2662 
C 1222 2662 947 2540 730 2304 
L 730 3750 
z
" transform="scale(0.015625)"/>
       </defs>
       <use xlink:href="#CMR17-32" transform="scale(0.996264)"/>
       <use xlink:href="#CMR17-35" transform="translate(45.690477 0)scale(0.996264)"/>
      </g>
     </g>
    </g>
    <g id="xtick_3">
     <g id="line2d_3">
      <g>
       <use xlink:href="#m788dd1670b" x="172.42849" y="301.660854" style="stroke: #000000; stroke-width: 0.8"/>
      </g>
     </g>
     <g id="text_3">
      <!-- $\mathdefault{50}$ -->
      <g transform="translate(167.447155 315.579352)scale(0.1 -0.1)">
       <use xlink:href="#CMR17-35" transform="scale(0.996264)"/>
       <use xlink:href="#CMR17-30" transform="translate(45.690477 0)scale(0.996264)"/>
      </g>
     </g>
    </g>
    <g id="xtick_4">
     <g id="line2d_4">
      <g>
       <use xlink:href="#m788dd1670b" x="216.085538" y="301.660854" style="stroke: #000000; stroke-width: 0.8"/>
      </g>
     </g>
     <g id="text_4">
      <!-- $\mathdefault{75}$ -->
      <g transform="translate(211.104203 315.579352)scale(0.1 -0.1)">
       <defs>
        <path id="CMR17-37" d="M 2886 3955 
L 2886 4096 
L 1382 4096 
C 634 4096 621 4166 595 4288 
L 480 4288 
L 294 3104 
L 410 3104 
C 429 3226 474 3552 550 3673 
C 589 3724 1062 3724 1171 3724 
L 2579 3724 
L 1869 2670 
C 1395 1961 1069 1003 1069 166 
C 1069 89 1069 -128 1299 -128 
C 1530 -128 1530 89 1530 172 
L 1530 466 
C 1530 1514 1709 2204 2003 2644 
L 2886 3955 
z
" transform="scale(0.015625)"/>
       </defs>
       <use xlink:href="#CMR17-37" transform="scale(0.996264)"/>
       <use xlink:href="#CMR17-35" transform="translate(45.690477 0)scale(0.996264)"/>
      </g>
     </g>
    </g>
    <g id="xtick_5">
     <g id="line2d_5">
      <g>
       <use xlink:href="#m788dd1670b" x="259.742586" y="301.660854" style="stroke: #000000; stroke-width: 0.8"/>
      </g>
     </g>
     <g id="text_5">
      <!-- $\mathdefault{100}$ -->
      <g transform="translate(252.270583 315.579352)scale(0.1 -0.1)">
       <defs>
        <path id="CMR17-31" d="M 1702 4083 
C 1702 4217 1696 4224 1606 4224 
C 1357 3927 979 3833 621 3820 
C 602 3820 570 3820 563 3808 
C 557 3795 557 3782 557 3648 
C 755 3648 1088 3686 1344 3839 
L 1344 467 
C 1344 243 1331 166 781 166 
L 589 166 
L 589 0 
C 896 6 1216 12 1523 12 
C 1830 12 2150 6 2458 0 
L 2458 166 
L 2266 166 
C 1715 166 1702 236 1702 467 
L 1702 4083 
z
" transform="scale(0.015625)"/>
       </defs>
       <use xlink:href="#CMR17-31" transform="scale(0.996264)"/>
       <use xlink:href="#CMR17-30" transform="translate(45.690477 0)scale(0.996264)"/>
       <use xlink:href="#CMR17-30" transform="translate(91.380954 0)scale(0.996264)"/>
      </g>
     </g>
    </g>
    <g id="xtick_6">
     <g id="line2d_6">
      <g>
       <use xlink:href="#m788dd1670b" x="303.399633" y="301.660854" style="stroke: #000000; stroke-width: 0.8"/>
      </g>
     </g>
     <g id="text_6">
      <!-- $\mathdefault{125}$ -->
      <g transform="translate(295.927631 315.579352)scale(0.1 -0.1)">
       <use xlink:href="#CMR17-31" transform="scale(0.996264)"/>
       <use xlink:href="#CMR17-32" transform="translate(45.690477 0)scale(0.996264)"/>
       <use xlink:href="#CMR17-35" transform="translate(91.380954 0)scale(0.996264)"/>
      </g>
     </g>
    </g>
    <g id="xtick_7">
     <g id="line2d_7">
      <g>
       <use xlink:href="#m788dd1670b" x="347.056681" y="301.660854" style="stroke: #000000; stroke-width: 0.8"/>
      </g>
     </g>
     <g id="text_7">
      <!-- $\mathdefault{150}$ -->
      <g transform="translate(339.584678 315.579352)scale(0.1 -0.1)">
       <use xlink:href="#CMR17-31" transform="scale(0.996264)"/>
       <use xlink:href="#CMR17-35" transform="translate(45.690477 0)scale(0.996264)"/>
       <use xlink:href="#CMR17-30" transform="translate(91.380954 0)scale(0.996264)"/>
      </g>
     </g>
    </g>
    <g id="xtick_8">
     <g id="line2d_8">
      <g>
       <use xlink:href="#m788dd1670b" x="390.713729" y="301.660854" style="stroke: #000000; stroke-width: 0.8"/>
      </g>
     </g>
     <g id="text_8">
      <!-- $\mathdefault{175}$ -->
      <g transform="translate(383.241726 315.579352)scale(0.1 -0.1)">
       <use xlink:href="#CMR17-31" transform="scale(0.996264)"/>
       <use xlink:href="#CMR17-37" transform="translate(45.690477 0)scale(0.996264)"/>
       <use xlink:href="#CMR17-35" transform="translate(91.380954 0)scale(0.996264)"/>
      </g>
     </g>
    </g>
    <g id="xtick_9">
     <g id="line2d_9">
      <g>
       <use xlink:href="#m788dd1670b" x="434.370777" y="301.660854" style="stroke: #000000; stroke-width: 0.8"/>
      </g>
     </g>
     <g id="text_9">
      <!-- $\mathdefault{200}$ -->
      <g transform="translate(426.898774 315.579352)scale(0.1 -0.1)">
       <use xlink:href="#CMR17-32" transform="scale(0.996264)"/>
       <use xlink:href="#CMR17-30" transform="translate(45.690477 0)scale(0.996264)"/>
       <use xlink:href="#CMR17-30" transform="translate(91.380954 0)scale(0.996264)"/>
      </g>
     </g>
    </g>
    <g id="text_10">
     <!-- Boundary Data -->
     <g transform="translate(212.615514 331.894255)scale(0.15 -0.15)">
      <defs>
       <path id="CMSS17-42" d="M 570 4416 
L 570 0 
L 2163 0 
C 3034 0 3667 575 3667 1200 
C 3667 1684 3251 2175 2502 2316 
C 3334 2559 3501 3039 3501 3311 
C 3501 3880 2874 4416 1997 4416 
L 570 4416 
z
M 1088 2496 
L 1088 4057 
L 1824 4057 
C 2483 4057 3002 3722 3002 3305 
C 3002 2925 2592 2496 1766 2496 
L 1088 2496 
z
M 1088 358 
L 1088 2105 
L 1939 2105 
C 2630 2105 3162 1678 3162 1206 
C 3162 772 2694 358 1984 358 
L 1088 358 
z
" transform="scale(0.015625)"/>
       <path id="CMSS17-6f" d="M 2829 1356 
C 2829 2175 2221 2816 1504 2816 
C 768 2816 173 2156 173 1356 
C 173 544 787 -64 1498 -64 
C 2227 -64 2829 563 2829 1356 
z
M 1504 339 
C 1050 339 659 710 659 1407 
C 659 2150 1114 2425 1498 2425 
C 1914 2425 2342 2124 2342 1407 
C 2342 684 1926 339 1504 339 
z
" transform="scale(0.015625)"/>
       <path id="CMSS17-75" d="M 2618 2752 
L 2131 2752 
L 2131 976 
C 2131 500 1786 307 1421 307 
C 998 307 960 448 960 712 
L 960 2752 
L 474 2752 
L 474 680 
C 474 179 646 -64 1088 -64 
C 1306 -64 1798 -13 2144 307 
L 2144 -13 
L 2618 -13 
L 2618 2752 
z
" transform="scale(0.015625)"/>
       <path id="CMSS17-6e" d="M 2618 1878 
C 2618 2283 2522 2816 1798 2816 
C 1389 2816 1120 2604 941 2386 
L 941 2783 
L 474 2783 
L 474 0 
L 960 0 
L 960 1556 
C 960 1962 1114 2425 1549 2425 
C 2112 2425 2131 2045 2131 1826 
L 2131 0 
L 2618 0 
L 2618 1878 
z
" transform="scale(0.015625)"/>
       <path id="CMSS17-64" d="M 2611 4416 
L 2138 4416 
L 2138 2495 
C 1939 2662 1613 2816 1254 2816 
C 672 2816 211 2179 211 1375 
C 211 572 666 -64 1235 -64 
C 1677 -64 1971 172 2125 307 
L 2125 -13 
L 2611 -13 
L 2611 4416 
z
M 2125 851 
C 2125 760 2125 663 1926 488 
C 1798 378 1645 326 1498 326 
C 1152 326 698 585 698 1369 
C 698 2185 1210 2425 1562 2425 
C 1798 2425 1990 2308 2125 2114 
L 2125 851 
z
" transform="scale(0.015625)"/>
       <path id="CMSS17-61" d="M 2406 1789 
C 2406 2399 1978 2816 1402 2816 
C 1120 2816 813 2764 461 2559 
L 499 2133 
C 659 2250 934 2438 1395 2438 
C 1722 2438 1920 2185 1920 1782 
L 1920 1536 
C 896 1504 256 1209 256 711 
C 256 452 416 -64 947 -64 
C 1043 -64 1562 -52 1933 224 
L 1933 -13 
L 2406 -13 
L 2406 1789 
z
M 1920 824 
C 1920 711 1920 559 1728 446 
C 1562 339 1350 326 1261 326 
C 941 326 723 503 723 723 
C 723 1165 1722 1209 1920 1216 
L 1920 824 
z
" transform="scale(0.015625)"/>
       <path id="CMSS17-72" d="M 954 1369 
C 954 1974 1395 2379 1958 2392 
L 1958 2816 
C 1549 2809 1165 2604 934 2270 
L 934 2783 
L 480 2783 
L 480 0 
L 954 0 
L 954 1369 
z
" transform="scale(0.015625)"/>
       <path id="CMSS17-79" d="M 2675 2752 
L 2176 2752 
C 1632 1293 1446 701 1434 383 
L 1427 383 
C 1408 695 1126 1459 902 2006 
L 602 2752 
L 83 2752 
L 1216 14 
C 1146 -177 1043 -464 1011 -527 
C 870 -884 774 -884 672 -884 
C 646 -884 442 -877 211 -807 
L 250 -1229 
C 410 -1261 570 -1280 685 -1280 
C 845 -1280 1165 -1280 1459 -495 
L 2675 2752 
z
" transform="scale(0.015625)"/>
       <path id="CMSS17-44" d="M 570 4416 
L 570 0 
L 2144 0 
C 3194 0 4000 981 4000 2169 
C 4000 3396 3194 4416 2144 4416 
L 570 4416 
z
M 1094 358 
L 1094 4057 
L 2003 4057 
C 2861 4057 3475 3275 3475 2169 
C 3475 1108 2867 358 2003 358 
L 1094 358 
z
" transform="scale(0.015625)"/>
       <path id="CMSS17-74" d="M 1069 2380 
L 1901 2380 
L 1901 2752 
L 1069 2752 
L 1069 3520 
L 614 3520 
L 614 2752 
L 109 2752 
L 109 2380 
L 602 2380 
L 602 751 
C 602 384 685 -64 1107 -64 
C 1427 -64 1722 25 2003 172 
L 1901 551 
C 1747 416 1562 339 1363 339 
C 1082 339 1069 699 1069 860 
L 1069 2380 
z
" transform="scale(0.015625)"/>
      </defs>
      <use xlink:href="#CMSS17-42" transform="scale(0.996264)"/>
      <use xlink:href="#CMSS17-6f" transform="translate(62.33804 0)scale(0.996264)"/>
      <use xlink:href="#CMSS17-75" transform="translate(109.181664 0)scale(0.996264)"/>
      <use xlink:href="#CMSS17-6e" transform="translate(157.386607 0)scale(0.996264)"/>
      <use xlink:href="#CMSS17-64" transform="translate(205.59155 0)scale(0.996264)"/>
      <use xlink:href="#CMSS17-61" transform="translate(253.796493 0)scale(0.996264)"/>
      <use xlink:href="#CMSS17-72" transform="translate(296.11596 0)scale(0.996264)"/>
      <use xlink:href="#CMSS17-79" transform="translate(328.025732 0)scale(0.996264)"/>
      <use xlink:href="#CMSS17-44" transform="translate(402.254987 0)scale(0.996264)"/>
      <use xlink:href="#CMSS17-61" transform="translate(469.797828 0)scale(0.996264)"/>
      <use xlink:href="#CMSS17-74" transform="translate(514.719749 0)scale(0.996264)"/>
      <use xlink:href="#CMSS17-61" transform="translate(548.551316 0)scale(0.996264)"/>
     </g>
    </g>
   </g>
   <g id="matplotlib.axis_2">
    <g id="ytick_1">
     <g id="line2d_10">
      <defs>
       <path id="mbac315d78c" d="M 0 0 
L -3.5 0 
" style="stroke: #000000; stroke-width: 0.8"/>
      </defs>
      <g>
       <use xlink:href="#mbac315d78c" x="67.738889" y="265.23953" style="stroke: #000000; stroke-width: 0.8"/>
      </g>
     </g>
     <g id="text_11">
      <!-- $\mathdefault{0.00040}$ -->
      <g transform="translate(28.083469 268.698779)scale(0.1 -0.1)">
       <defs>
        <path id="CMMI12-3a" d="M 1178 307 
C 1178 492 1024 620 870 620 
C 685 620 557 467 557 313 
C 557 128 710 0 864 0 
C 1050 0 1178 153 1178 307 
z
" transform="scale(0.015625)"/>
        <path id="CMR17-34" d="M 2150 4147 
C 2150 4281 2144 4288 2029 4288 
L 128 1254 
L 128 1088 
L 1779 1088 
L 1779 460 
C 1779 230 1766 166 1318 166 
L 1197 166 
L 1197 0 
C 1402 12 1747 12 1965 12 
C 2182 12 2528 12 2733 0 
L 2733 166 
L 2611 166 
C 2163 166 2150 230 2150 460 
L 2150 1088 
L 2803 1088 
L 2803 1254 
L 2150 1254 
L 2150 4147 
z
M 1798 3723 
L 1798 1254 
L 256 1254 
L 1798 3723 
z
" transform="scale(0.015625)"/>
       </defs>
       <use xlink:href="#CMR17-30" transform="scale(0.996264)"/>
       <use xlink:href="#CMMI12-3a" transform="translate(45.690477 0)scale(0.996264)"/>
       <use xlink:href="#CMR17-30" transform="translate(72.787654 0)scale(0.996264)"/>
       <use xlink:href="#CMR17-30" transform="translate(118.478131 0)scale(0.996264)"/>
       <use xlink:href="#CMR17-30" transform="translate(164.168608 0)scale(0.996264)"/>
       <use xlink:href="#CMR17-34" transform="translate(209.859086 0)scale(0.996264)"/>
       <use xlink:href="#CMR17-30" transform="translate(255.549563 0)scale(0.996264)"/>
      </g>
     </g>
    </g>
    <g id="ytick_2">
     <g id="line2d_11">
      <g>
       <use xlink:href="#mbac315d78c" x="67.738889" y="221.475374" style="stroke: #000000; stroke-width: 0.8"/>
      </g>
     </g>
     <g id="text_12">
      <!-- $\mathdefault{0.00045}$ -->
      <g transform="translate(28.083469 224.934623)scale(0.1 -0.1)">
       <use xlink:href="#CMR17-30" transform="scale(0.996264)"/>
       <use xlink:href="#CMMI12-3a" transform="translate(45.690477 0)scale(0.996264)"/>
       <use xlink:href="#CMR17-30" transform="translate(72.787654 0)scale(0.996264)"/>
       <use xlink:href="#CMR17-30" transform="translate(118.478131 0)scale(0.996264)"/>
       <use xlink:href="#CMR17-30" transform="translate(164.168608 0)scale(0.996264)"/>
       <use xlink:href="#CMR17-34" transform="translate(209.859086 0)scale(0.996264)"/>
       <use xlink:href="#CMR17-35" transform="translate(255.549563 0)scale(0.996264)"/>
      </g>
     </g>
    </g>
    <g id="ytick_3">
     <g id="line2d_12">
      <g>
       <use xlink:href="#mbac315d78c" x="67.738889" y="177.711219" style="stroke: #000000; stroke-width: 0.8"/>
      </g>
     </g>
     <g id="text_13">
      <!-- $\mathdefault{0.00050}$ -->
      <g transform="translate(28.083469 181.170468)scale(0.1 -0.1)">
       <use xlink:href="#CMR17-30" transform="scale(0.996264)"/>
       <use xlink:href="#CMMI12-3a" transform="translate(45.690477 0)scale(0.996264)"/>
       <use xlink:href="#CMR17-30" transform="translate(72.787654 0)scale(0.996264)"/>
       <use xlink:href="#CMR17-30" transform="translate(118.478131 0)scale(0.996264)"/>
       <use xlink:href="#CMR17-30" transform="translate(164.168608 0)scale(0.996264)"/>
       <use xlink:href="#CMR17-35" transform="translate(209.859086 0)scale(0.996264)"/>
       <use xlink:href="#CMR17-30" transform="translate(255.549563 0)scale(0.996264)"/>
      </g>
     </g>
    </g>
    <g id="ytick_4">
     <g id="line2d_13">
      <g>
       <use xlink:href="#mbac315d78c" x="67.738889" y="133.947063" style="stroke: #000000; stroke-width: 0.8"/>
      </g>
     </g>
     <g id="text_14">
      <!-- $\mathdefault{0.00055}$ -->
      <g transform="translate(28.083469 137.406312)scale(0.1 -0.1)">
       <use xlink:href="#CMR17-30" transform="scale(0.996264)"/>
       <use xlink:href="#CMMI12-3a" transform="translate(45.690477 0)scale(0.996264)"/>
       <use xlink:href="#CMR17-30" transform="translate(72.787654 0)scale(0.996264)"/>
       <use xlink:href="#CMR17-30" transform="translate(118.478131 0)scale(0.996264)"/>
       <use xlink:href="#CMR17-30" transform="translate(164.168608 0)scale(0.996264)"/>
       <use xlink:href="#CMR17-35" transform="translate(209.859086 0)scale(0.996264)"/>
       <use xlink:href="#CMR17-35" transform="translate(255.549563 0)scale(0.996264)"/>
      </g>
     </g>
    </g>
    <g id="ytick_5">
     <g id="line2d_14">
      <g>
       <use xlink:href="#mbac315d78c" x="67.738889" y="90.182907" style="stroke: #000000; stroke-width: 0.8"/>
      </g>
     </g>
     <g id="text_15">
      <!-- $\mathdefault{0.00060}$ -->
      <g transform="translate(28.083469 93.642157)scale(0.1 -0.1)">
       <defs>
        <path id="CMR17-36" d="M 678 2198 
C 678 3712 1395 4076 1811 4076 
C 1946 4076 2272 4049 2400 3782 
C 2298 3782 2106 3782 2106 3558 
C 2106 3385 2246 3328 2336 3328 
C 2394 3328 2566 3353 2566 3571 
C 2566 3987 2246 4224 1805 4224 
C 1043 4224 243 3411 243 2011 
C 243 257 966 -128 1478 -128 
C 2099 -128 2688 431 2688 1295 
C 2688 2101 2170 2688 1517 2688 
C 1126 2688 838 2430 678 1979 
L 678 2198 
z
M 1478 25 
C 691 25 691 1212 691 1450 
C 691 1914 909 2585 1504 2585 
C 1613 2585 1926 2585 2138 2140 
C 2253 1889 2253 1624 2253 1302 
C 2253 954 2253 696 2118 438 
C 1978 173 1773 25 1478 25 
z
" transform="scale(0.015625)"/>
       </defs>
       <use xlink:href="#CMR17-30" transform="scale(0.996264)"/>
       <use xlink:href="#CMMI12-3a" transform="translate(45.690477 0)scale(0.996264)"/>
       <use xlink:href="#CMR17-30" transform="translate(72.787654 0)scale(0.996264)"/>
       <use xlink:href="#CMR17-30" transform="translate(118.478131 0)scale(0.996264)"/>
       <use xlink:href="#CMR17-30" transform="translate(164.168608 0)scale(0.996264)"/>
       <use xlink:href="#CMR17-36" transform="translate(209.859086 0)scale(0.996264)"/>
       <use xlink:href="#CMR17-30" transform="translate(255.549563 0)scale(0.996264)"/>
      </g>
     </g>
    </g>
    <g id="ytick_6">
     <g id="line2d_15">
      <g>
       <use xlink:href="#mbac315d78c" x="67.738889" y="46.418752" style="stroke: #000000; stroke-width: 0.8"/>
      </g>
     </g>
     <g id="text_16">
      <!-- $\mathdefault{0.00065}$ -->
      <g transform="translate(28.083469 49.878001)scale(0.1 -0.1)">
       <use xlink:href="#CMR17-30" transform="scale(0.996264)"/>
       <use xlink:href="#CMMI12-3a" transform="translate(45.690477 0)scale(0.996264)"/>
       <use xlink:href="#CMR17-30" transform="translate(72.787654 0)scale(0.996264)"/>
       <use xlink:href="#CMR17-30" transform="translate(118.478131 0)scale(0.996264)"/>
       <use xlink:href="#CMR17-30" transform="translate(164.168608 0)scale(0.996264)"/>
       <use xlink:href="#CMR17-36" transform="translate(209.859086 0)scale(0.996264)"/>
       <use xlink:href="#CMR17-35" transform="translate(255.549563 0)scale(0.996264)"/>
      </g>
     </g>
    </g>
    <g id="text_17">
     <!-- Strain -->
     <g transform="translate(21.177725 174.399916)rotate(-90)scale(0.15 -0.15)">
      <defs>
       <path id="CMSS17-53" d="M 2797 4230 
C 2515 4396 2208 4544 1690 4544 
C 864 4544 333 3934 333 3309 
C 333 3064 403 2787 653 2504 
C 902 2220 1184 2143 1542 2053 
C 1690 2014 1939 1943 1984 1924 
C 2342 1782 2515 1454 2515 1144 
C 2515 738 2202 307 1645 307 
C 1453 307 890 339 358 829 
L 269 320 
C 794 -64 1363 -128 1651 -128 
C 2438 -128 3002 494 3002 1202 
C 3002 1460 2925 1789 2656 2092 
C 2394 2381 2163 2446 1638 2588 
C 1338 2665 1146 2717 986 2916 
C 877 3058 819 3193 819 3367 
C 819 3728 1126 4121 1690 4121 
C 1971 4121 2336 4063 2707 3715 
L 2797 4230 
z
" transform="scale(0.015625)"/>
       <path id="CMSS17-69" d="M 979 4224 
L 442 4224 
L 442 3686 
L 979 3686 
L 979 4224 
z
M 947 2752 
L 474 2752 
L 474 0 
L 947 0 
L 947 2752 
z
" transform="scale(0.015625)"/>
      </defs>
      <use xlink:href="#CMSS17-53" transform="scale(0.996264)"/>
      <use xlink:href="#CMSS17-74" transform="translate(52.048516 0)scale(0.996264)"/>
      <use xlink:href="#CMSS17-72" transform="translate(85.880083 0)scale(0.996264)"/>
      <use xlink:href="#CMSS17-61" transform="translate(117.789855 0)scale(0.996264)"/>
      <use xlink:href="#CMSS17-69" transform="translate(162.711776 0)scale(0.996264)"/>
      <use xlink:href="#CMSS17-6e" transform="translate(184.892499 0)scale(0.996264)"/>
     </g>
    </g>
   </g>
   <g id="line2d_16">
    <path d="M 85.114394 219.888019 
L 86.860676 60.72649 
L 88.606958 107.840407 
L 90.35324 102.493538 
L 92.099522 95.523084 
L 93.845804 161.93838 
L 95.592086 281.889201 
L 97.338368 147.243935 
L 99.08465 85.890635 
L 100.830932 100.503641 
L 102.577214 206.780397 
L 104.323496 142.793818 
L 106.069777 55.688438 
L 107.816059 265.279665 
L 109.562341 142.852699 
L 111.308623 78.874323 
L 113.054905 94.037984 
L 114.801187 76.435397 
L 116.547469 95.752147 
L 118.293751 199.578141 
L 120.040033 88.507514 
L 121.786315 68.576179 
L 123.532597 167.372083 
L 125.278878 74.16327 
L 127.02516 191.103602 
L 128.771442 64.818052 
L 132.264006 34.825821 
L 134.010288 48.022264 
L 135.75657 147.48959 
L 137.502852 82.325303 
L 139.249134 124.860529 
L 140.995416 82.071501 
L 142.741698 120.55284 
L 144.487979 166.728954 
L 146.234261 78.160938 
L 147.980543 102.864144 
L 149.726825 237.786907 
L 151.473107 183.999785 
L 153.219389 210.015783 
L 154.965671 197.308006 
L 156.711953 165.262123 
L 158.458235 207.55383 
L 160.204517 239.240616 
L 161.950799 139.601926 
L 163.697081 148.803082 
L 165.443362 157.027801 
L 167.189644 205.98319 
L 168.935926 224.242589 
L 170.682208 157.60931 
L 172.42849 260.393484 
L 174.174772 179.890195 
L 175.921054 181.727533 
L 177.667336 153.952192 
L 179.413618 62.663201 
L 181.1599 134.000317 
L 182.906182 139.152286 
L 184.652463 147.147712 
L 186.398745 84.683998 
L 188.145027 185.599874 
L 189.891309 112.154461 
L 191.637591 109.927928 
L 193.383873 118.603276 
L 195.130155 236.530598 
L 196.876437 143.387419 
L 198.622719 41.336792 
L 200.369001 223.880133 
L 202.115283 39.386218 
L 203.861564 158.355561 
L 205.607846 98.04532 
L 207.354128 103.600646 
L 209.10041 86.087578 
L 210.846692 236.300787 
L 212.592974 181.078887 
L 214.339256 76.766747 
L 216.085538 86.02292 
L 217.83182 123.124978 
L 219.578102 138.62709 
L 221.324384 123.027087 
L 223.070666 160.371879 
L 224.816947 244.293279 
L 226.563229 147.974954 
L 228.309511 160.846002 
L 230.055793 142.588755 
L 231.802075 167.346719 
L 233.548357 173.309896 
L 235.294639 240.135714 
L 237.040921 99.467406 
L 238.787203 72.723829 
L 240.533485 266.309489 
L 242.279767 91.852047 
L 244.026048 179.222772 
L 245.77233 84.451115 
L 247.518612 45.328527 
L 249.264894 165.247535 
L 251.011176 231.052011 
L 252.757458 176.224485 
L 254.50374 159.485914 
L 256.250022 107.095294 
L 257.996304 283.409806 
L 259.742586 75.321987 
L 261.488868 264.288047 
L 263.23515 141.16152 
L 264.981431 147.488822 
L 266.727713 180.96899 
L 268.473995 127.59173 
L 270.220277 67.777487 
L 271.966559 177.628228 
L 273.712841 101.009403 
L 275.459123 135.507849 
L 277.205405 108.62049 
L 278.951687 222.35769 
L 280.697969 262.490442 
L 282.444251 151.880702 
L 284.190532 189.156463 
L 285.936814 84.802162 
L 287.683096 147.25992 
L 289.429378 65.047184 
L 291.17566 214.001809 
L 292.921942 175.286086 
L 294.668224 32.902758 
L 296.414506 139.93173 
L 298.160788 64.409559 
L 299.90707 53.196356 
L 301.653352 110.137547 
L 303.399633 93.820487 
L 305.145915 71.340887 
L 306.892197 125.053903 
L 308.638479 124.515977 
L 310.384761 209.774471 
L 312.131043 213.02909 
L 313.877325 149.47664 
L 315.623607 109.287953 
L 317.369889 58.258442 
L 319.116171 155.387066 
L 320.862453 148.686096 
L 322.608735 106.432383 
L 324.355016 116.834724 
L 326.101298 128.926608 
L 327.84758 167.871996 
L 329.593862 111.027747 
L 331.340144 148.790109 
L 333.086426 169.125333 
L 334.832708 84.655197 
L 336.57899 213.036652 
L 338.325272 288.439906 
L 340.071554 24.020948 
L 341.817836 173.900438 
L 343.564117 199.212237 
L 345.310399 141.632472 
L 347.056681 90.917724 
L 348.802963 158.27899 
L 350.549245 194.680919 
L 352.295527 103.429501 
L 354.041809 50.332968 
L 355.788091 156.859916 
L 357.534373 234.883089 
L 359.280655 67.50102 
L 361.026937 167.41328 
L 362.773218 160.346335 
L 364.5195 184.369044 
L 366.265782 72.181013 
L 368.012064 144.77804 
L 369.758346 258.865251 
L 371.504628 149.272746 
L 373.25091 174.96239 
L 374.997192 152.859615 
L 376.743474 61.547546 
L 378.489756 164.181596 
L 380.236038 117.754292 
L 381.98232 220.274479 
L 383.728601 248.581387 
L 385.474883 112.906657 
L 387.221165 113.729 
L 388.967447 59.207986 
L 390.713729 79.018215 
L 392.460011 103.027049 
L 394.206293 171.696159 
L 395.952575 229.021252 
L 397.698857 101.972668 
L 399.445139 127.372944 
L 401.191421 100.748892 
L 402.937702 53.191078 
L 404.683984 132.461044 
L 406.430266 155.281702 
L 408.176548 100.642855 
L 409.92283 128.297544 
L 411.669112 160.532593 
L 413.415394 213.693526 
L 415.161676 208.647425 
L 416.907958 178.621307 
L 418.65424 161.855684 
L 420.400522 242.968959 
L 422.146804 144.580706 
L 423.893085 168.642905 
L 425.639367 105.192234 
L 427.385649 139.176187 
L 429.131931 121.415557 
L 430.878213 123.764027 
L 432.624495 231.640252 
L 432.624495 231.640252 
" clip-path="url(#pe1b01ec3e9)" style="fill: none; stroke: #3c74ff; stroke-width: 1.5; stroke-linecap: square"/>
   </g>
   <g id="line2d_17">
    <path d="M 85.114394 217.752877 
L 86.860676 60.643358 
L 88.606958 109.757833 
L 90.35324 111.05069 
L 92.099522 101.125717 
L 93.845804 162.743612 
L 95.592086 273.993853 
L 97.338368 142.163465 
L 99.08465 92.771524 
L 100.830932 97.74312 
L 102.577214 206.266229 
L 104.323496 144.650192 
L 106.069777 54.3988 
L 107.816059 257.488413 
L 109.562341 140.961045 
L 111.308623 82.18089 
L 113.054905 95.282751 
L 114.801187 76.998056 
L 116.547469 97.401078 
L 118.293751 199.776419 
L 120.040033 90.829276 
L 121.786315 74.869029 
L 123.532597 171.019075 
L 125.278878 78.889743 
L 127.02516 186.974675 
L 128.771442 68.766 
L 130.517724 60.672739 
L 132.264006 35.872908 
L 134.010288 51.973992 
L 135.75657 153.427576 
L 137.502852 87.089267 
L 139.249134 120.542311 
L 140.995416 80.594751 
L 142.741698 118.564615 
L 144.487979 170.949128 
L 146.234261 79.938028 
L 147.980543 101.027526 
L 149.726825 225.988214 
L 151.473107 183.363571 
L 153.219389 210.929671 
L 154.965671 199.820975 
L 156.711953 161.419253 
L 158.458235 204.298641 
L 160.204517 227.420334 
L 161.950799 137.396844 
L 163.697081 156.986115 
L 165.443362 158.821729 
L 167.189644 204.471178 
L 168.935926 229.893956 
L 170.682208 160.143368 
L 172.42849 260.360752 
L 174.174772 175.38863 
L 175.921054 188.194521 
L 177.667336 148.43143 
L 179.413618 61.393643 
L 181.1599 137.421899 
L 182.906182 134.812664 
L 184.652463 141.281215 
L 186.398745 90.90115 
L 188.145027 191.229353 
L 189.891309 111.430944 
L 191.637591 106.44544 
L 193.383873 118.494943 
L 195.130155 237.096654 
L 198.622719 59.478626 
L 200.369001 220.414561 
L 202.115283 35.311033 
L 203.861564 147.57784 
L 205.607846 90.733133 
L 207.354128 112.617719 
L 209.10041 92.472235 
L 210.846692 233.65062 
L 212.592974 182.275725 
L 214.339256 80.7862 
L 216.085538 94.940363 
L 217.83182 131.298203 
L 219.578102 140.465536 
L 221.324384 130.437098 
L 223.070666 156.046611 
L 224.816947 242.746085 
L 226.563229 145.467648 
L 228.309511 159.867626 
L 230.055793 139.440893 
L 231.802075 166.747184 
L 233.548357 176.94434 
L 235.294639 234.690544 
L 237.040921 106.710624 
L 238.787203 70.393844 
L 240.533485 259.201063 
L 242.279767 98.305683 
L 244.026048 179.367766 
L 245.77233 76.861741 
L 247.518612 52.333924 
L 249.264894 167.454701 
L 251.011176 222.086025 
L 252.757458 176.410384 
L 254.50374 156.6889 
L 256.250022 120.134522 
L 257.996304 278.479029 
L 259.742586 68.224979 
L 261.488868 242.132356 
L 263.23515 148.502841 
L 264.981431 152.528878 
L 266.727713 181.475165 
L 268.473995 117.810306 
L 270.220277 74.442966 
L 271.966559 176.169637 
L 273.712841 107.048354 
L 275.459123 137.888064 
L 277.205405 116.464854 
L 278.951687 226.565451 
L 280.697969 264.786831 
L 282.444251 154.956338 
L 284.190532 179.586044 
L 285.936814 92.892319 
L 287.683096 156.107999 
L 289.429378 67.937279 
L 291.17566 211.704267 
L 292.921942 173.680665 
L 294.668224 46.33779 
L 296.414506 132.73049 
L 298.160788 58.964809 
L 299.90707 54.52148 
L 301.653352 114.819456 
L 303.399633 95.672303 
L 305.145915 77.787577 
L 306.892197 123.632307 
L 308.638479 120.998369 
L 310.384761 207.091735 
L 312.131043 211.995048 
L 313.877325 157.153668 
L 317.369889 55.965725 
L 319.116171 169.334371 
L 320.862453 147.602368 
L 322.608735 104.868524 
L 324.355016 118.786458 
L 326.101298 128.396846 
L 327.84758 165.758692 
L 329.593862 110.636464 
L 331.340144 149.60683 
L 333.086426 169.045749 
L 334.832708 84.342695 
L 336.57899 206.555939 
L 338.325272 284.126511 
L 340.071554 32.070973 
L 341.817836 167.010592 
L 343.564117 197.108983 
L 345.310399 149.139565 
L 347.056681 92.7442 
L 348.802963 155.441325 
L 350.549245 191.825654 
L 352.295527 97.352427 
L 354.041809 48.856559 
L 355.788091 159.921068 
L 357.534373 224.738225 
L 359.280655 65.16785 
L 361.026937 165.468653 
L 362.773218 156.311968 
L 364.5195 186.37805 
L 366.265782 86.674174 
L 368.012064 144.066885 
L 369.758346 252.055677 
L 371.504628 141.779443 
L 373.25091 174.817327 
L 374.997192 155.941564 
L 376.743474 69.014673 
L 378.489756 161.93615 
L 380.236038 120.00202 
L 381.98232 212.426549 
L 383.728601 247.259145 
L 385.474883 117.252238 
L 387.221165 112.773813 
L 388.967447 75.116244 
L 390.713729 74.566218 
L 392.460011 110.01629 
L 394.206293 175.779498 
L 395.952575 214.217631 
L 397.698857 104.417192 
L 399.445139 126.704428 
L 401.191421 106.456642 
L 402.937702 62.50173 
L 404.683984 132.111161 
L 406.430266 157.392152 
L 408.176548 100.027344 
L 409.92283 123.812273 
L 411.669112 158.806163 
L 413.415394 206.614881 
L 415.161676 203.469926 
L 416.907958 182.46451 
L 418.65424 152.230976 
L 420.400522 241.212566 
L 422.146804 136.05137 
L 423.893085 174.396955 
L 425.639367 102.538477 
L 427.385649 148.901894 
L 429.131931 112.417181 
L 430.878213 121.314157 
L 432.624495 236.012213 
L 432.624495 236.012213 
" clip-path="url(#pe1b01ec3e9)" style="fill: none; stroke-dasharray: 5.55,2.4; stroke-dashoffset: 0; stroke: #eea219; stroke-width: 1.5"/>
   </g>
   <g id="patch_3">
    <path d="M 67.738889 301.660854 
L 67.738889 10.8 
" style="fill: none; stroke: #000000; stroke-width: 0.8; stroke-linejoin: miter; stroke-linecap: square"/>
   </g>
   <g id="patch_4">
    <path d="M 450 301.660854 
L 450 10.8 
" style="fill: none; stroke: #000000; stroke-width: 0.8; stroke-linejoin: miter; stroke-linecap: square"/>
   </g>
   <g id="patch_5">
    <path d="M 67.738889 301.660854 
L 450 301.660854 
" style="fill: none; stroke: #000000; stroke-width: 0.8; stroke-linejoin: miter; stroke-linecap: square"/>
   </g>
   <g id="patch_6">
    <path d="M 67.738889 10.8 
L 450 10.8 
" style="fill: none; stroke: #000000; stroke-width: 0.8; stroke-linejoin: miter; stroke-linecap: square"/>
   </g>
   <g id="legend_1">
    <g id="patch_7">
     <path d="M 343.198637 46.674357 
L 443 46.674357 
Q 445 46.674357 445 44.674357 
L 445 17.8 
Q 445 15.8 443 15.8 
L 343.198637 15.8 
Q 341.198637 15.8 341.198637 17.8 
L 341.198637 44.674357 
Q 341.198637 46.674357 343.198637 46.674357 
z
" style="fill: #ffffff; opacity: 0.8; stroke: #cccccc; stroke-linejoin: miter"/>
    </g>
    <g id="line2d_18">
     <path d="M 345.198637 23.3 
L 355.198637 23.3 
L 365.198637 23.3 
" style="fill: none; stroke: #3c74ff; stroke-width: 1.5; stroke-linecap: square"/>
    </g>
    <g id="text_18">
     <!-- Real values -->
     <g transform="translate(373.198637 26.8)scale(0.1 -0.1)">
      <defs>
       <path id="CMSS17-52" d="M 2522 2099 
L 2534 2105 
C 3533 2450 3539 3125 3539 3244 
C 3539 3838 2925 4416 2003 4416 
L 570 4416 
L 570 0 
L 1094 0 
L 1094 2041 
L 2035 2041 
L 3168 0 
L 3706 0 
L 2522 2099 
z
M 1094 2432 
L 1094 4057 
L 1933 4057 
C 2746 4057 3034 3607 3034 3244 
C 3034 2907 2778 2432 1933 2432 
L 1094 2432 
z
" transform="scale(0.015625)"/>
       <path id="CMSS17-65" d="M 2502 1375 
C 2502 1587 2490 2001 2285 2347 
C 2061 2713 1696 2816 1421 2816 
C 755 2816 192 2184 192 1363 
C 192 579 774 -64 1510 -64 
C 1798 -64 2150 19 2470 249 
C 2470 275 2458 414 2451 421 
C 2451 433 2432 629 2432 655 
C 2125 408 1773 326 1517 326 
C 1107 326 666 667 646 1375 
L 2502 1375 
z
M 698 1728 
C 781 2086 1062 2425 1421 2425 
C 1517 2425 1965 2412 2080 1728 
L 698 1728 
z
" transform="scale(0.015625)"/>
       <path id="CMSS17-6c" d="M 947 4416 
L 474 4416 
L 474 0 
L 947 0 
L 947 4416 
z
" transform="scale(0.015625)"/>
       <path id="CMSS17-76" d="M 2675 2752 
L 2176 2752 
L 1747 1555 
C 1613 1164 1421 627 1389 352 
L 1382 352 
C 1370 467 1318 633 1286 748 
C 1248 889 1197 1056 1158 1171 
L 595 2752 
L 83 2752 
L 1094 0 
L 1664 0 
L 2675 2752 
z
" transform="scale(0.015625)"/>
       <path id="CMSS17-73" d="M 2061 2623 
C 1683 2803 1389 2816 1197 2816 
C 742 2816 198 2655 198 2009 
C 198 1363 902 1222 1094 1183 
C 1389 1126 1715 1062 1715 742 
C 1715 339 1254 339 1171 339 
C 915 339 563 409 243 639 
L 166 211 
C 531 0 883 -64 1178 -64 
C 1965 -64 2163 416 2163 780 
C 2163 1094 1984 1305 1862 1401 
C 1651 1567 1574 1587 1050 1695 
C 960 1708 646 1779 646 2067 
C 646 2431 1050 2431 1139 2431 
C 1555 2431 1811 2303 1984 2207 
L 2061 2623 
z
" transform="scale(0.015625)"/>
      </defs>
      <use xlink:href="#CMSS17-52" transform="scale(0.996264)"/>
      <use xlink:href="#CMSS17-65" transform="translate(60.416155 0)scale(0.996264)"/>
      <use xlink:href="#CMSS17-61" transform="translate(102.054977 0)scale(0.996264)"/>
      <use xlink:href="#CMSS17-6c" transform="translate(146.976898 0)scale(0.996264)"/>
      <use xlink:href="#CMSS17-76" transform="translate(200.386733 0)scale(0.996264)"/>
      <use xlink:href="#CMSS17-61" transform="translate(243.386875 0)scale(0.996264)"/>
      <use xlink:href="#CMSS17-6c" transform="translate(288.308796 0)scale(0.996264)"/>
      <use xlink:href="#CMSS17-75" transform="translate(310.489519 0)scale(0.996264)"/>
      <use xlink:href="#CMSS17-65" transform="translate(358.694462 0)scale(0.996264)"/>
      <use xlink:href="#CMSS17-73" transform="translate(400.333284 0)scale(0.996264)"/>
     </g>
    </g>
    <g id="line2d_19">
     <path d="M 345.198637 37.237178 
L 355.198637 37.237178 
L 365.198637 37.237178 
" style="fill: none; stroke-dasharray: 5.55,2.4; stroke-dashoffset: 0; stroke: #eea219; stroke-width: 1.5"/>
    </g>
    <g id="text_19">
     <!-- Predicted values -->
     <g transform="translate(373.198637 40.737178)scale(0.1 -0.1)">
      <defs>
       <path id="CMSS17-50" d="M 2106 1856 
C 2874 1856 3501 2447 3501 3139 
C 3501 3818 2899 4416 2067 4416 
L 570 4416 
L 570 0 
L 1107 0 
L 1107 1856 
L 2106 1856 
z
M 1926 4057 
C 2669 4057 2995 3598 2995 3139 
C 2995 2711 2694 2227 1926 2227 
L 1094 2227 
L 1094 4057 
L 1926 4057 
z
" transform="scale(0.015625)"/>
       <path id="CMSS17-63" d="M 2464 2540 
C 2464 2585 2170 2713 2093 2739 
C 1882 2816 1613 2816 1542 2816 
C 710 2816 211 2092 211 1363 
C 211 595 768 -64 1517 -64 
C 1946 -64 2253 76 2502 243 
L 2464 665 
C 2189 454 1869 339 1523 339 
C 1024 339 698 774 698 1369 
C 698 1830 909 2412 1549 2412 
C 1901 2412 2099 2342 2394 2143 
L 2464 2540 
z
" transform="scale(0.015625)"/>
      </defs>
      <use xlink:href="#CMSS17-50" transform="scale(0.996264)"/>
      <use xlink:href="#CMSS17-72" transform="translate(59.735586 0)scale(0.996264)"/>
      <use xlink:href="#CMSS17-65" transform="translate(91.645359 0)scale(0.996264)"/>
      <use xlink:href="#CMSS17-64" transform="translate(133.284181 0)scale(0.996264)"/>
      <use xlink:href="#CMSS17-69" transform="translate(181.489124 0)scale(0.996264)"/>
      <use xlink:href="#CMSS17-63" transform="translate(203.669847 0)scale(0.996264)"/>
      <use xlink:href="#CMSS17-74" transform="translate(245.308669 0)scale(0.996264)"/>
      <use xlink:href="#CMSS17-65" transform="translate(279.140236 0)scale(0.996264)"/>
      <use xlink:href="#CMSS17-64" transform="translate(320.779058 0)scale(0.996264)"/>
      <use xlink:href="#CMSS17-76" transform="translate(400.213114 0)scale(0.996264)"/>
      <use xlink:href="#CMSS17-61" transform="translate(443.213255 0)scale(0.996264)"/>
      <use xlink:href="#CMSS17-6c" transform="translate(488.135176 0)scale(0.996264)"/>
      <use xlink:href="#CMSS17-75" transform="translate(510.315899 0)scale(0.996264)"/>
      <use xlink:href="#CMSS17-65" transform="translate(558.520842 0)scale(0.996264)"/>
      <use xlink:href="#CMSS17-73" transform="translate(600.159664 0)scale(0.996264)"/>
     </g>
    </g>
   </g>
  </g>
 </g>
 <defs>
  <clipPath id="pe1b01ec3e9">
   <rect x="67.738889" y="10.8" width="382.261111" height="290.860854"/>
  </clipPath>
 </defs>
</svg>
