<?xml version="1.0" encoding="utf-8" standalone="no"?>
<!DOCTYPE svg PUBLIC "-//W3C//DTD SVG 1.1//EN"
  "http://www.w3.org/Graphics/SVG/1.1/DTD/svg11.dtd">
<svg xmlns:xlink="http://www.w3.org/1999/xlink" width="460.8pt" height="345.6pt" viewBox="0 0 460.8 345.6" xmlns="http://www.w3.org/2000/svg" version="1.1">
 <metadata>
  <rdf:RDF xmlns:dc="http://purl.org/dc/elements/1.1/" xmlns:cc="http://creativecommons.org/ns#" xmlns:rdf="http://www.w3.org/1999/02/22-rdf-syntax-ns#">
   <cc:Work>
    <dc:type rdf:resource="http://purl.org/dc/dcmitype/StillImage"/>
    <dc:date>2023-03-13T13:11:56.902470</dc:date>
    <dc:format>image/svg+xml</dc:format>
    <dc:creator>
     <cc:Agent>
      <dc:title>Matplotlib v3.5.3, https://matplotlib.org/</dc:title>
     </cc:Agent>
    </dc:creator>
   </cc:Work>
  </rdf:RDF>
 </metadata>
 <defs>
  <style type="text/css">*{stroke-linejoin: round; stroke-linecap: butt}</style>
 </defs>
 <g id="figure_1">
  <g id="patch_1">
   <path d="M 0 345.6 
L 460.8 345.6 
L 460.8 0 
L 0 0 
z
" style="fill: #ffffff"/>
  </g>
  <g id="axes_1">
   <g id="patch_2">
    <path d="M 50.45542 318.944323 
L 450 318.944323 
L 450 10.8 
L 50.45542 10.8 
z
" style="fill: #ffffff"/>
   </g>
   <g id="matplotlib.axis_1">
    <g id="xtick_1">
     <g id="line2d_1">
      <defs>
       <path id="mfba15ce579" d="M 0 0 
L 0 3.5 
" style="stroke: #000000; stroke-width: 0.8"/>
      </defs>
      <g>
       <use xlink:href="#mfba15ce579" x="68.616537" y="318.944323" style="stroke: #000000; stroke-width: 0.8"/>
      </g>
     </g>
     <g id="text_1">
      <!-- $\mathdefault{0}$ -->
      <g transform="translate(66.12587 332.862822)scale(0.1 -0.1)">
       <defs>
        <path id="CMR17-30" d="M 2688 2038 
C 2688 2430 2682 3099 2413 3613 
C 2176 4063 1798 4224 1466 4224 
C 1158 4224 768 4082 525 3620 
C 269 3137 243 2539 243 2038 
C 243 1671 250 1112 448 623 
C 723 -39 1216 -128 1466 -128 
C 1760 -128 2208 -7 2470 604 
C 2662 1048 2688 1568 2688 2038 
z
M 1466 -26 
C 1056 -26 813 328 723 816 
C 653 1196 653 1749 653 2109 
C 653 2604 653 3015 736 3407 
C 858 3954 1216 4121 1466 4121 
C 1728 4121 2067 3947 2189 3420 
C 2272 3054 2278 2623 2278 2109 
C 2278 1691 2278 1176 2202 797 
C 2067 96 1690 -26 1466 -26 
z
" transform="scale(0.015625)"/>
       </defs>
       <use xlink:href="#CMR17-30" transform="scale(0.996264)"/>
      </g>
     </g>
    </g>
    <g id="xtick_2">
     <g id="line2d_2">
      <g>
       <use xlink:href="#mfba15ce579" x="114.133122" y="318.944323" style="stroke: #000000; stroke-width: 0.8"/>
      </g>
     </g>
     <g id="text_2">
      <!-- $\mathdefault{50}$ -->
      <g transform="translate(109.151787 332.862822)scale(0.1 -0.1)">
       <defs>
        <path id="CMR17-35" d="M 730 3750 
C 794 3724 1056 3641 1325 3641 
C 1920 3641 2246 3961 2432 4140 
C 2432 4191 2432 4224 2394 4224 
C 2387 4224 2374 4224 2323 4198 
C 2099 4102 1837 4032 1517 4032 
C 1325 4032 1037 4055 723 4191 
C 653 4224 640 4224 634 4224 
C 602 4224 595 4217 595 4090 
L 595 2231 
C 595 2113 595 2080 659 2080 
C 691 2080 704 2093 736 2139 
C 941 2435 1222 2560 1542 2560 
C 1766 2560 2246 2415 2246 1293 
C 2246 1087 2246 716 2054 422 
C 1894 159 1645 25 1370 25 
C 947 25 518 319 403 812 
C 429 806 480 793 506 793 
C 589 793 749 838 749 1036 
C 749 1209 627 1280 506 1280 
C 358 1280 262 1190 262 1011 
C 262 454 704 -128 1382 -128 
C 2042 -128 2669 441 2669 1267 
C 2669 2054 2170 2662 1549 2662 
C 1222 2662 947 2540 730 2304 
L 730 3750 
z
" transform="scale(0.015625)"/>
       </defs>
       <use xlink:href="#CMR17-35" transform="scale(0.996264)"/>
       <use xlink:href="#CMR17-30" transform="translate(45.690477 0)scale(0.996264)"/>
      </g>
     </g>
    </g>
    <g id="xtick_3">
     <g id="line2d_3">
      <g>
       <use xlink:href="#mfba15ce579" x="159.649707" y="318.944323" style="stroke: #000000; stroke-width: 0.8"/>
      </g>
     </g>
     <g id="text_3">
      <!-- $\mathdefault{100}$ -->
      <g transform="translate(152.177704 332.862822)scale(0.1 -0.1)">
       <defs>
        <path id="CMR17-31" d="M 1702 4083 
C 1702 4217 1696 4224 1606 4224 
C 1357 3927 979 3833 621 3820 
C 602 3820 570 3820 563 3808 
C 557 3795 557 3782 557 3648 
C 755 3648 1088 3686 1344 3839 
L 1344 467 
C 1344 243 1331 166 781 166 
L 589 166 
L 589 0 
C 896 6 1216 12 1523 12 
C 1830 12 2150 6 2458 0 
L 2458 166 
L 2266 166 
C 1715 166 1702 236 1702 467 
L 1702 4083 
z
" transform="scale(0.015625)"/>
       </defs>
       <use xlink:href="#CMR17-31" transform="scale(0.996264)"/>
       <use xlink:href="#CMR17-30" transform="translate(45.690477 0)scale(0.996264)"/>
       <use xlink:href="#CMR17-30" transform="translate(91.380954 0)scale(0.996264)"/>
      </g>
     </g>
    </g>
    <g id="xtick_4">
     <g id="line2d_4">
      <g>
       <use xlink:href="#mfba15ce579" x="205.166291" y="318.944323" style="stroke: #000000; stroke-width: 0.8"/>
      </g>
     </g>
     <g id="text_4">
      <!-- $\mathdefault{150}$ -->
      <g transform="translate(197.694288 332.862822)scale(0.1 -0.1)">
       <use xlink:href="#CMR17-31" transform="scale(0.996264)"/>
       <use xlink:href="#CMR17-35" transform="translate(45.690477 0)scale(0.996264)"/>
       <use xlink:href="#CMR17-30" transform="translate(91.380954 0)scale(0.996264)"/>
      </g>
     </g>
    </g>
    <g id="xtick_5">
     <g id="line2d_5">
      <g>
       <use xlink:href="#mfba15ce579" x="250.682876" y="318.944323" style="stroke: #000000; stroke-width: 0.8"/>
      </g>
     </g>
     <g id="text_5">
      <!-- $\mathdefault{200}$ -->
      <g transform="translate(243.210873 332.862822)scale(0.1 -0.1)">
       <defs>
        <path id="CMR17-32" d="M 2669 990 
L 2554 990 
C 2490 537 2438 460 2413 422 
C 2381 371 1920 371 1830 371 
L 602 371 
C 832 620 1280 1073 1824 1596 
C 2214 1966 2669 2400 2669 3033 
C 2669 3788 2067 4224 1395 4224 
C 691 4224 262 3603 262 3027 
C 262 2777 448 2745 525 2745 
C 589 2745 781 2783 781 3007 
C 781 3206 614 3264 525 3264 
C 486 3264 448 3257 422 3244 
C 544 3788 915 4057 1306 4057 
C 1862 4057 2227 3616 2227 3033 
C 2227 2477 1901 1998 1536 1583 
L 262 147 
L 262 0 
L 2515 0 
L 2669 990 
z
" transform="scale(0.015625)"/>
       </defs>
       <use xlink:href="#CMR17-32" transform="scale(0.996264)"/>
       <use xlink:href="#CMR17-30" transform="translate(45.690477 0)scale(0.996264)"/>
       <use xlink:href="#CMR17-30" transform="translate(91.380954 0)scale(0.996264)"/>
      </g>
     </g>
    </g>
    <g id="xtick_6">
     <g id="line2d_6">
      <g>
       <use xlink:href="#mfba15ce579" x="296.19946" y="318.944323" style="stroke: #000000; stroke-width: 0.8"/>
      </g>
     </g>
     <g id="text_6">
      <!-- $\mathdefault{250}$ -->
      <g transform="translate(288.727458 332.862822)scale(0.1 -0.1)">
       <use xlink:href="#CMR17-32" transform="scale(0.996264)"/>
       <use xlink:href="#CMR17-35" transform="translate(45.690477 0)scale(0.996264)"/>
       <use xlink:href="#CMR17-30" transform="translate(91.380954 0)scale(0.996264)"/>
      </g>
     </g>
    </g>
    <g id="xtick_7">
     <g id="line2d_7">
      <g>
       <use xlink:href="#mfba15ce579" x="341.716045" y="318.944323" style="stroke: #000000; stroke-width: 0.8"/>
      </g>
     </g>
     <g id="text_7">
      <!-- $\mathdefault{300}$ -->
      <g transform="translate(334.244042 332.862822)scale(0.1 -0.1)">
       <defs>
        <path id="CMR17-33" d="M 1414 2176 
C 1984 2176 2234 1673 2234 1094 
C 2234 322 1824 25 1453 25 
C 1114 25 563 193 390 691 
C 422 678 454 678 486 678 
C 640 678 755 780 755 947 
C 755 1132 614 1216 486 1216 
C 378 1216 211 1164 211 927 
C 211 335 787 -128 1466 -128 
C 2176 -128 2720 432 2720 1087 
C 2720 1718 2208 2176 1600 2246 
C 2086 2347 2554 2776 2554 3353 
C 2554 3856 2048 4224 1472 4224 
C 890 4224 378 3862 378 3347 
C 378 3123 544 3084 627 3084 
C 762 3084 877 3167 877 3334 
C 877 3500 762 3584 627 3584 
C 602 3584 570 3584 544 3571 
C 730 3999 1235 4076 1459 4076 
C 1683 4076 2106 3966 2106 3347 
C 2106 3167 2080 2851 1862 2574 
C 1670 2329 1453 2316 1242 2297 
C 1210 2297 1062 2284 1037 2284 
C 992 2278 966 2272 966 2227 
C 966 2182 973 2176 1101 2176 
L 1414 2176 
z
" transform="scale(0.015625)"/>
       </defs>
       <use xlink:href="#CMR17-33" transform="scale(0.996264)"/>
       <use xlink:href="#CMR17-30" transform="translate(45.690477 0)scale(0.996264)"/>
       <use xlink:href="#CMR17-30" transform="translate(91.380954 0)scale(0.996264)"/>
      </g>
     </g>
    </g>
    <g id="xtick_8">
     <g id="line2d_8">
      <g>
       <use xlink:href="#mfba15ce579" x="387.23263" y="318.944323" style="stroke: #000000; stroke-width: 0.8"/>
      </g>
     </g>
     <g id="text_8">
      <!-- $\mathdefault{350}$ -->
      <g transform="translate(379.760627 332.862822)scale(0.1 -0.1)">
       <use xlink:href="#CMR17-33" transform="scale(0.996264)"/>
       <use xlink:href="#CMR17-35" transform="translate(45.690477 0)scale(0.996264)"/>
       <use xlink:href="#CMR17-30" transform="translate(91.380954 0)scale(0.996264)"/>
      </g>
     </g>
    </g>
    <g id="xtick_9">
     <g id="line2d_9">
      <g>
       <use xlink:href="#mfba15ce579" x="432.749214" y="318.944323" style="stroke: #000000; stroke-width: 0.8"/>
      </g>
     </g>
     <g id="text_9">
      <!-- $\mathdefault{400}$ -->
      <g transform="translate(425.277212 332.862822)scale(0.1 -0.1)">
       <defs>
        <path id="CMR17-34" d="M 2150 4147 
C 2150 4281 2144 4288 2029 4288 
L 128 1254 
L 128 1088 
L 1779 1088 
L 1779 460 
C 1779 230 1766 166 1318 166 
L 1197 166 
L 1197 0 
C 1402 12 1747 12 1965 12 
C 2182 12 2528 12 2733 0 
L 2733 166 
L 2611 166 
C 2163 166 2150 230 2150 460 
L 2150 1088 
L 2803 1088 
L 2803 1254 
L 2150 1254 
L 2150 4147 
z
M 1798 3723 
L 1798 1254 
L 256 1254 
L 1798 3723 
z
" transform="scale(0.015625)"/>
       </defs>
       <use xlink:href="#CMR17-34" transform="scale(0.996264)"/>
       <use xlink:href="#CMR17-30" transform="translate(45.690477 0)scale(0.996264)"/>
       <use xlink:href="#CMR17-30" transform="translate(91.380954 0)scale(0.996264)"/>
      </g>
     </g>
    </g>
   </g>
   <g id="matplotlib.axis_2">
    <g id="ytick_1">
     <g id="line2d_10">
      <defs>
       <path id="m5a0dab8dab" d="M 0 0 
L -3.5 0 
" style="stroke: #000000; stroke-width: 0.8"/>
      </defs>
      <g>
       <use xlink:href="#m5a0dab8dab" x="50.45542" y="289.496787" style="stroke: #000000; stroke-width: 0.8"/>
      </g>
     </g>
     <g id="text_10">
      <!-- $\mathdefault{0.00050}$ -->
      <g transform="translate(10.8 292.956036)scale(0.1 -0.1)">
       <defs>
        <path id="CMMI12-3a" d="M 1178 307 
C 1178 492 1024 620 870 620 
C 685 620 557 467 557 313 
C 557 128 710 0 864 0 
C 1050 0 1178 153 1178 307 
z
" transform="scale(0.015625)"/>
       </defs>
       <use xlink:href="#CMR17-30" transform="scale(0.996264)"/>
       <use xlink:href="#CMMI12-3a" transform="translate(45.690477 0)scale(0.996264)"/>
       <use xlink:href="#CMR17-30" transform="translate(72.787654 0)scale(0.996264)"/>
       <use xlink:href="#CMR17-30" transform="translate(118.478131 0)scale(0.996264)"/>
       <use xlink:href="#CMR17-30" transform="translate(164.168608 0)scale(0.996264)"/>
       <use xlink:href="#CMR17-35" transform="translate(209.859086 0)scale(0.996264)"/>
       <use xlink:href="#CMR17-30" transform="translate(255.549563 0)scale(0.996264)"/>
      </g>
     </g>
    </g>
    <g id="ytick_2">
     <g id="line2d_11">
      <g>
       <use xlink:href="#m5a0dab8dab" x="50.45542" y="249.682573" style="stroke: #000000; stroke-width: 0.8"/>
      </g>
     </g>
     <g id="text_11">
      <!-- $\mathdefault{0.00075}$ -->
      <g transform="translate(10.8 253.141822)scale(0.1 -0.1)">
       <defs>
        <path id="CMR17-37" d="M 2886 3955 
L 2886 4096 
L 1382 4096 
C 634 4096 621 4166 595 4288 
L 480 4288 
L 294 3104 
L 410 3104 
C 429 3226 474 3552 550 3673 
C 589 3724 1062 3724 1171 3724 
L 2579 3724 
L 1869 2670 
C 1395 1961 1069 1003 1069 166 
C 1069 89 1069 -128 1299 -128 
C 1530 -128 1530 89 1530 172 
L 1530 466 
C 1530 1514 1709 2204 2003 2644 
L 2886 3955 
z
" transform="scale(0.015625)"/>
       </defs>
       <use xlink:href="#CMR17-30" transform="scale(0.996264)"/>
       <use xlink:href="#CMMI12-3a" transform="translate(45.690477 0)scale(0.996264)"/>
       <use xlink:href="#CMR17-30" transform="translate(72.787654 0)scale(0.996264)"/>
       <use xlink:href="#CMR17-30" transform="translate(118.478131 0)scale(0.996264)"/>
       <use xlink:href="#CMR17-30" transform="translate(164.168608 0)scale(0.996264)"/>
       <use xlink:href="#CMR17-37" transform="translate(209.859086 0)scale(0.996264)"/>
       <use xlink:href="#CMR17-35" transform="translate(255.549563 0)scale(0.996264)"/>
      </g>
     </g>
    </g>
    <g id="ytick_3">
     <g id="line2d_12">
      <g>
       <use xlink:href="#m5a0dab8dab" x="50.45542" y="209.868359" style="stroke: #000000; stroke-width: 0.8"/>
      </g>
     </g>
     <g id="text_12">
      <!-- $\mathdefault{0.00100}$ -->
      <g transform="translate(10.8 213.327608)scale(0.1 -0.1)">
       <use xlink:href="#CMR17-30" transform="scale(0.996264)"/>
       <use xlink:href="#CMMI12-3a" transform="translate(45.690477 0)scale(0.996264)"/>
       <use xlink:href="#CMR17-30" transform="translate(72.787654 0)scale(0.996264)"/>
       <use xlink:href="#CMR17-30" transform="translate(118.478131 0)scale(0.996264)"/>
       <use xlink:href="#CMR17-31" transform="translate(164.168608 0)scale(0.996264)"/>
       <use xlink:href="#CMR17-30" transform="translate(209.859086 0)scale(0.996264)"/>
       <use xlink:href="#CMR17-30" transform="translate(255.549563 0)scale(0.996264)"/>
      </g>
     </g>
    </g>
    <g id="ytick_4">
     <g id="line2d_13">
      <g>
       <use xlink:href="#m5a0dab8dab" x="50.45542" y="170.054145" style="stroke: #000000; stroke-width: 0.8"/>
      </g>
     </g>
     <g id="text_13">
      <!-- $\mathdefault{0.00125}$ -->
      <g transform="translate(10.8 173.513395)scale(0.1 -0.1)">
       <use xlink:href="#CMR17-30" transform="scale(0.996264)"/>
       <use xlink:href="#CMMI12-3a" transform="translate(45.690477 0)scale(0.996264)"/>
       <use xlink:href="#CMR17-30" transform="translate(72.787654 0)scale(0.996264)"/>
       <use xlink:href="#CMR17-30" transform="translate(118.478131 0)scale(0.996264)"/>
       <use xlink:href="#CMR17-31" transform="translate(164.168608 0)scale(0.996264)"/>
       <use xlink:href="#CMR17-32" transform="translate(209.859086 0)scale(0.996264)"/>
       <use xlink:href="#CMR17-35" transform="translate(255.549563 0)scale(0.996264)"/>
      </g>
     </g>
    </g>
    <g id="ytick_5">
     <g id="line2d_14">
      <g>
       <use xlink:href="#m5a0dab8dab" x="50.45542" y="130.239932" style="stroke: #000000; stroke-width: 0.8"/>
      </g>
     </g>
     <g id="text_14">
      <!-- $\mathdefault{0.00150}$ -->
      <g transform="translate(10.8 133.699181)scale(0.1 -0.1)">
       <use xlink:href="#CMR17-30" transform="scale(0.996264)"/>
       <use xlink:href="#CMMI12-3a" transform="translate(45.690477 0)scale(0.996264)"/>
       <use xlink:href="#CMR17-30" transform="translate(72.787654 0)scale(0.996264)"/>
       <use xlink:href="#CMR17-30" transform="translate(118.478131 0)scale(0.996264)"/>
       <use xlink:href="#CMR17-31" transform="translate(164.168608 0)scale(0.996264)"/>
       <use xlink:href="#CMR17-35" transform="translate(209.859086 0)scale(0.996264)"/>
       <use xlink:href="#CMR17-30" transform="translate(255.549563 0)scale(0.996264)"/>
      </g>
     </g>
    </g>
    <g id="ytick_6">
     <g id="line2d_15">
      <g>
       <use xlink:href="#m5a0dab8dab" x="50.45542" y="90.425718" style="stroke: #000000; stroke-width: 0.8"/>
      </g>
     </g>
     <g id="text_15">
      <!-- $\mathdefault{0.00175}$ -->
      <g transform="translate(10.8 93.884967)scale(0.1 -0.1)">
       <use xlink:href="#CMR17-30" transform="scale(0.996264)"/>
       <use xlink:href="#CMMI12-3a" transform="translate(45.690477 0)scale(0.996264)"/>
       <use xlink:href="#CMR17-30" transform="translate(72.787654 0)scale(0.996264)"/>
       <use xlink:href="#CMR17-30" transform="translate(118.478131 0)scale(0.996264)"/>
       <use xlink:href="#CMR17-31" transform="translate(164.168608 0)scale(0.996264)"/>
       <use xlink:href="#CMR17-37" transform="translate(209.859086 0)scale(0.996264)"/>
       <use xlink:href="#CMR17-35" transform="translate(255.549563 0)scale(0.996264)"/>
      </g>
     </g>
    </g>
    <g id="ytick_7">
     <g id="line2d_16">
      <g>
       <use xlink:href="#m5a0dab8dab" x="50.45542" y="50.611504" style="stroke: #000000; stroke-width: 0.8"/>
      </g>
     </g>
     <g id="text_16">
      <!-- $\mathdefault{0.00200}$ -->
      <g transform="translate(10.8 54.070753)scale(0.1 -0.1)">
       <use xlink:href="#CMR17-30" transform="scale(0.996264)"/>
       <use xlink:href="#CMMI12-3a" transform="translate(45.690477 0)scale(0.996264)"/>
       <use xlink:href="#CMR17-30" transform="translate(72.787654 0)scale(0.996264)"/>
       <use xlink:href="#CMR17-30" transform="translate(118.478131 0)scale(0.996264)"/>
       <use xlink:href="#CMR17-32" transform="translate(164.168608 0)scale(0.996264)"/>
       <use xlink:href="#CMR17-30" transform="translate(209.859086 0)scale(0.996264)"/>
       <use xlink:href="#CMR17-30" transform="translate(255.549563 0)scale(0.996264)"/>
      </g>
     </g>
    </g>
   </g>
   <g id="line2d_17">
    <path d="M 68.616537 286.371154 
L 69.526869 265.409893 
L 70.437201 114.089836 
L 71.347532 296.774088 
L 72.257864 73.858302 
L 73.168196 299.37018 
L 74.078527 300.27275 
L 74.988859 281.741835 
L 75.899191 154.63782 
L 76.809522 281.901831 
L 77.719854 133.401543 
L 78.630186 288.542936 
L 79.540518 43.852014 
L 80.450849 112.56973 
L 81.361181 160.192466 
L 82.271513 94.877034 
L 83.181844 108.298697 
L 84.092176 65.119505 
L 85.002508 171.047869 
L 85.912839 24.80656 
L 86.823171 267.97711 
L 87.733503 55.499944 
L 88.643835 287.768991 
L 89.554166 283.473512 
L 90.464498 60.785064 
L 91.37483 282.639482 
L 92.285161 292.458051 
L 93.195493 284.234621 
L 94.105825 285.589508 
L 95.016156 288.604947 
L 95.926488 275.719022 
L 96.83682 274.542741 
L 97.747151 287.005498 
L 98.657483 127.985957 
L 99.567815 274.542873 
L 100.478147 153.652028 
L 101.388478 158.659489 
L 102.29881 276.295125 
L 103.209142 113.722873 
L 104.119473 287.934594 
L 105.029805 110.04389 
L 105.940137 80.855223 
L 106.850468 271.225853 
L 107.7608 99.235519 
L 108.671132 57.694492 
L 109.581463 142.69685 
L 110.491795 288.823128 
L 111.402127 68.482832 
L 112.312459 167.120371 
L 113.22279 284.886865 
L 114.133122 112.091476 
L 115.043454 287.209931 
L 115.953785 109.48469 
L 116.864117 269.8607 
L 117.774449 92.70668 
L 118.68478 287.779316 
L 119.595112 100.677595 
L 120.505444 158.065339 
L 121.415775 31.326377 
L 122.326107 174.9962 
L 123.236439 139.404042 
L 124.146771 126.637193 
L 125.057102 264.252236 
L 125.967434 285.941847 
L 126.877766 284.419838 
L 127.788097 131.564886 
L 128.698429 267.727474 
L 129.608761 271.977683 
L 130.519092 271.383716 
L 131.429424 269.494458 
L 132.339756 117.253558 
L 133.250087 97.10558 
L 134.160419 287.498575 
L 135.070751 287.044033 
L 135.981083 151.261229 
L 136.891414 276.466165 
L 137.801746 58.326973 
L 138.712078 84.090972 
L 139.622409 120.131458 
L 140.532741 34.052805 
L 141.443073 96.357946 
L 142.353404 287.464345 
L 143.263736 294.401952 
L 144.174068 262.870396 
L 145.084399 145.954382 
L 145.994731 82.011981 
L 146.905063 281.886103 
L 147.815395 34.598711 
L 148.725726 92.741996 
L 149.636058 267.568406 
L 150.54639 295.46227 
L 151.456721 268.961614 
L 152.367053 268.910384 
L 153.277385 275.190052 
L 154.187716 275.854963 
L 155.098048 95.715506 
L 156.00838 133.355755 
L 156.918711 125.037126 
L 157.829043 302.718822 
L 158.739375 275.512149 
L 159.649707 182.343197 
L 160.560038 55.428104 
L 161.47037 269.110637 
L 162.380702 153.959202 
L 163.291033 283.251607 
L 164.201365 92.663982 
L 165.111697 274.382504 
L 166.022028 106.980463 
L 166.93236 279.540132 
L 167.842692 92.771297 
L 168.753023 76.653921 
L 169.663355 88.713829 
L 170.573687 289.055536 
L 171.484019 268.766531 
L 172.39435 274.670028 
L 173.304682 102.77343 
L 174.215014 110.140344 
L 175.125345 86.405097 
L 176.035677 160.755797 
L 176.946009 73.852219 
L 177.85634 277.68027 
L 178.766672 295.033089 
L 179.677004 301.564837 
L 180.587335 274.799681 
L 181.497667 90.453141 
L 182.407999 278.55418 
L 183.318331 262.2279 
L 184.228662 287.068263 
L 185.138994 283.419539 
L 186.049326 76.85032 
L 186.959657 274.274568 
L 187.869989 59.420837 
L 188.780321 276.527677 
L 189.690652 285.850573 
L 190.600984 292.943829 
L 191.511316 122.301591 
L 192.421647 142.536438 
L 193.331979 287.615592 
L 194.242311 57.856088 
L 195.152643 69.885745 
L 196.062974 109.024083 
L 196.973306 289.010315 
L 197.883638 269.508578 
L 198.793969 284.045872 
L 199.704301 296.476578 
L 200.614633 62.233792 
L 201.524964 284.711791 
L 202.435296 285.702914 
L 203.345628 282.846607 
L 204.255959 100.200776 
L 205.166291 270.060324 
L 206.076623 296.847814 
L 206.986955 295.374569 
L 207.897286 295.869405 
L 208.807618 300.427496 
L 209.71795 54.364599 
L 210.628281 135.792929 
L 211.538613 261.626694 
L 212.448945 273.755109 
L 213.359276 302.29653 
L 214.269608 150.083222 
L 215.17994 136.743476 
L 216.090272 281.418194 
L 217.000603 96.592181 
L 217.910935 165.405485 
L 218.821267 281.988169 
L 219.731598 287.873667 
L 220.64193 79.492759 
L 221.552262 67.461849 
L 222.462593 269.217194 
L 223.372925 77.382361 
L 224.283257 170.818139 
L 225.193588 282.630796 
L 226.10392 279.917457 
L 227.014252 123.77357 
L 227.924584 281.830235 
L 228.834915 121.892499 
L 229.745247 155.668629 
L 230.655579 130.339351 
L 231.56591 285.975045 
L 232.476242 78.067845 
L 233.386574 74.398786 
L 234.296905 280.33779 
L 235.207237 137.934444 
L 236.117569 275.144493 
L 237.0279 79.55926 
L 237.938232 267.654181 
L 238.848564 291.650416 
L 239.758896 86.548049 
L 240.669227 304.937763 
L 241.579559 260.493546 
L 242.489891 270.181593 
L 243.400222 299.276132 
L 244.310554 109.322537 
L 245.220886 165.13628 
L 246.131217 102.198982 
L 247.041549 108.584767 
L 247.951881 274.416356 
L 248.862212 100.548574 
L 249.772544 302.391541 
L 250.682876 119.969362 
L 251.593208 267.178986 
L 252.503539 45.742647 
L 253.413871 188.936216 
L 254.324203 192.88946 
L 255.234534 81.079803 
L 256.144866 97.75216 
L 257.055198 86.310624 
L 257.965529 69.274657 
L 258.875861 137.557418 
L 259.786193 285.79167 
L 260.696524 74.100119 
L 261.606856 103.654529 
L 262.517188 41.847614 
L 263.42752 296.268412 
L 264.337851 75.339817 
L 265.248183 285.197521 
L 266.158515 281.54524 
L 267.068846 90.337524 
L 267.979178 293.408875 
L 268.88951 274.124772 
L 269.799841 287.25413 
L 270.710173 284.543271 
L 271.620505 73.072326 
L 272.530836 275.322181 
L 273.441168 284.767157 
L 274.3515 298.832594 
L 275.261832 279.936289 
L 276.172163 75.673288 
L 277.082495 268.537735 
L 277.992827 292.998397 
L 278.903158 72.667146 
L 279.81349 74.560713 
L 280.723822 297.897173 
L 281.634153 275.262561 
L 282.544485 50.105726 
L 283.454817 274.584419 
L 284.365148 150.366299 
L 285.27548 160.221271 
L 286.185812 288.121852 
L 287.096144 290.109531 
L 288.006475 281.467832 
L 288.916807 262.560792 
L 289.827139 29.041515 
L 290.73747 287.018251 
L 291.647802 101.365996 
L 292.558134 291.957458 
L 293.468465 280.264957 
L 294.378797 276.012445 
L 295.289129 281.376405 
L 296.19946 291.602117 
L 297.109792 121.21829 
L 298.020124 102.843965 
L 298.930456 261.533001 
L 299.840787 281.898339 
L 300.751119 272.305038 
L 301.661451 276.524029 
L 302.571782 282.250535 
L 303.482114 125.818679 
L 304.392446 101.204351 
L 305.302777 120.275451 
L 306.213109 61.774211 
L 307.123441 65.125569 
L 308.033772 91.430254 
L 308.944104 284.807158 
L 309.854436 113.1807 
L 310.764768 103.63168 
L 311.675099 293.506761 
L 312.585431 267.294868 
L 313.495763 133.592376 
L 314.406094 90.134192 
L 315.316426 282.500202 
L 316.226758 298.235528 
L 317.137089 140.703254 
L 318.047421 160.587854 
L 318.957753 164.333166 
L 319.868084 70.438994 
L 320.778416 89.524301 
L 321.688748 149.161963 
L 322.59908 270.656345 
L 323.509411 118.939188 
L 324.419743 76.295557 
L 325.330075 291.591562 
L 326.240406 149.567957 
L 327.150738 271.699366 
L 328.06107 49.522575 
L 328.971401 285.538894 
L 329.881733 286.618324 
L 330.792065 39.462044 
L 331.702397 271.64217 
L 332.612728 289.342521 
L 333.52306 282.00484 
L 334.433392 291.054601 
L 335.343723 288.246561 
L 336.254055 139.326367 
L 337.164387 296.020161 
L 338.074718 278.420372 
L 338.98505 270.119645 
L 339.895382 108.888406 
L 340.805713 276.386511 
L 341.716045 271.513516 
L 342.626377 281.819645 
L 343.536709 155.736266 
L 344.44704 120.885578 
L 345.357372 270.819158 
L 346.267704 269.63978 
L 347.178035 284.094382 
L 348.088367 273.395291 
L 348.998699 286.428178 
L 349.90903 162.286602 
L 350.819362 74.156591 
L 351.729694 108.375128 
L 352.640025 97.883703 
L 353.550357 290.078675 
L 354.460689 110.137183 
L 355.371021 160.84783 
L 356.281352 279.092607 
L 357.191684 279.048203 
L 358.102016 133.221147 
L 359.012347 132.324925 
L 359.922679 132.044588 
L 360.833011 108.79062 
L 361.743342 295.922837 
L 362.653674 146.63096 
L 363.564006 123.573086 
L 365.384669 67.05414 
L 366.295001 288.054724 
L 367.205333 146.972765 
L 368.115664 77.020333 
L 369.025996 286.253849 
L 369.936328 107.290906 
L 370.846659 274.584367 
L 371.756991 275.878439 
L 372.667323 106.946284 
L 373.577654 121.735844 
L 374.487986 173.682382 
L 375.398318 94.442313 
L 376.308649 129.957132 
L 377.218981 274.526146 
L 378.129313 288.87121 
L 379.039645 277.627237 
L 379.949976 299.889566 
L 380.860308 124.376034 
L 381.77064 289.605008 
L 382.680971 301.12075 
L 383.591303 65.014887 
L 384.501635 32.182286 
L 385.411966 266.559919 
L 386.322298 267.893916 
L 387.23263 101.683053 
L 388.142961 281.182064 
L 389.053293 52.486889 
L 389.963625 143.981589 
L 390.873957 118.645451 
L 391.784288 164.7972 
L 392.69462 295.872457 
L 393.604952 83.570194 
L 394.515283 157.024321 
L 395.425615 98.20486 
L 396.335947 149.822148 
L 397.246278 291.54401 
L 398.15661 174.422476 
L 399.066942 89.801167 
L 399.977273 278.363283 
L 400.887605 53.757657 
L 401.797937 300.549486 
L 402.708269 162.685311 
L 403.6186 277.959902 
L 404.528932 268.225771 
L 405.439264 289.445243 
L 406.349595 63.286419 
L 407.259927 129.271518 
L 408.170259 114.68342 
L 409.08059 276.25683 
L 409.990922 140.991349 
L 410.901254 112.575806 
L 411.811585 111.376399 
L 412.721917 43.111288 
L 413.632249 274.449599 
L 414.542581 280.828821 
L 415.452912 291.964199 
L 416.363244 43.825087 
L 417.273576 277.394173 
L 419.094239 299.929938 
L 420.004571 294.81136 
L 420.914902 139.816845 
L 421.825234 81.517829 
L 422.735566 113.029948 
L 423.645897 268.360927 
L 424.556229 278.742158 
L 425.466561 155.473126 
L 426.376893 269.15765 
L 427.287224 55.911995 
L 428.197556 295.068715 
L 429.107888 85.228816 
L 430.018219 284.796951 
L 430.928551 288.098395 
L 431.838883 82.112419 
L 431.838883 82.112419 
" clip-path="url(#p3add7791ec)" style="fill: none; stroke: #3c74ff; stroke-width: 1.5; stroke-linecap: square"/>
   </g>
   <g id="patch_3">
    <path d="M 50.45542 318.944323 
L 50.45542 10.8 
" style="fill: none; stroke: #000000; stroke-width: 0.8; stroke-linejoin: miter; stroke-linecap: square"/>
   </g>
   <g id="patch_4">
    <path d="M 450 318.944323 
L 450 10.8 
" style="fill: none; stroke: #000000; stroke-width: 0.8; stroke-linejoin: miter; stroke-linecap: square"/>
   </g>
   <g id="patch_5">
    <path d="M 50.45542 318.944323 
L 450 318.944323 
" style="fill: none; stroke: #000000; stroke-width: 0.8; stroke-linejoin: miter; stroke-linecap: square"/>
   </g>
   <g id="patch_6">
    <path d="M 50.45542 10.8 
L 450 10.8 
" style="fill: none; stroke: #000000; stroke-width: 0.8; stroke-linejoin: miter; stroke-linecap: square"/>
   </g>
   <g id="legend_1">
    <g id="patch_7">
     <path d="M 364.49378 32.737178 
L 443 32.737178 
Q 445 32.737178 445 30.737178 
L 445 17.8 
Q 445 15.8 443 15.8 
L 364.49378 15.8 
Q 362.49378 15.8 362.49378 17.8 
L 362.49378 30.737178 
Q 362.49378 32.737178 364.49378 32.737178 
z
" style="fill: #ffffff; opacity: 0.8; stroke: #cccccc; stroke-linejoin: miter"/>
    </g>
    <g id="line2d_18">
     <path d="M 366.49378 23.3 
L 376.49378 23.3 
L 386.49378 23.3 
" style="fill: none; stroke: #3c74ff; stroke-width: 1.5; stroke-linecap: square"/>
    </g>
    <g id="text_17">
     <!-- Real values -->
     <g transform="translate(394.49378 26.8)scale(0.1 -0.1)">
      <defs>
       <path id="CMSS17-52" d="M 2522 2099 
L 2534 2105 
C 3533 2450 3539 3125 3539 3244 
C 3539 3838 2925 4416 2003 4416 
L 570 4416 
L 570 0 
L 1094 0 
L 1094 2041 
L 2035 2041 
L 3168 0 
L 3706 0 
L 2522 2099 
z
M 1094 2432 
L 1094 4057 
L 1933 4057 
C 2746 4057 3034 3607 3034 3244 
C 3034 2907 2778 2432 1933 2432 
L 1094 2432 
z
" transform="scale(0.015625)"/>
       <path id="CMSS17-65" d="M 2502 1375 
C 2502 1587 2490 2001 2285 2347 
C 2061 2713 1696 2816 1421 2816 
C 755 2816 192 2184 192 1363 
C 192 579 774 -64 1510 -64 
C 1798 -64 2150 19 2470 249 
C 2470 275 2458 414 2451 421 
C 2451 433 2432 629 2432 655 
C 2125 408 1773 326 1517 326 
C 1107 326 666 667 646 1375 
L 2502 1375 
z
M 698 1728 
C 781 2086 1062 2425 1421 2425 
C 1517 2425 1965 2412 2080 1728 
L 698 1728 
z
" transform="scale(0.015625)"/>
       <path id="CMSS17-61" d="M 2406 1789 
C 2406 2399 1978 2816 1402 2816 
C 1120 2816 813 2764 461 2559 
L 499 2133 
C 659 2250 934 2438 1395 2438 
C 1722 2438 1920 2185 1920 1782 
L 1920 1536 
C 896 1504 256 1209 256 711 
C 256 452 416 -64 947 -64 
C 1043 -64 1562 -52 1933 224 
L 1933 -13 
L 2406 -13 
L 2406 1789 
z
M 1920 824 
C 1920 711 1920 559 1728 446 
C 1562 339 1350 326 1261 326 
C 941 326 723 503 723 723 
C 723 1165 1722 1209 1920 1216 
L 1920 824 
z
" transform="scale(0.015625)"/>
       <path id="CMSS17-6c" d="M 947 4416 
L 474 4416 
L 474 0 
L 947 0 
L 947 4416 
z
" transform="scale(0.015625)"/>
       <path id="CMSS17-76" d="M 2675 2752 
L 2176 2752 
L 1747 1555 
C 1613 1164 1421 627 1389 352 
L 1382 352 
C 1370 467 1318 633 1286 748 
C 1248 889 1197 1056 1158 1171 
L 595 2752 
L 83 2752 
L 1094 0 
L 1664 0 
L 2675 2752 
z
" transform="scale(0.015625)"/>
       <path id="CMSS17-75" d="M 2618 2752 
L 2131 2752 
L 2131 976 
C 2131 500 1786 307 1421 307 
C 998 307 960 448 960 712 
L 960 2752 
L 474 2752 
L 474 680 
C 474 179 646 -64 1088 -64 
C 1306 -64 1798 -13 2144 307 
L 2144 -13 
L 2618 -13 
L 2618 2752 
z
" transform="scale(0.015625)"/>
       <path id="CMSS17-73" d="M 2061 2623 
C 1683 2803 1389 2816 1197 2816 
C 742 2816 198 2655 198 2009 
C 198 1363 902 1222 1094 1183 
C 1389 1126 1715 1062 1715 742 
C 1715 339 1254 339 1171 339 
C 915 339 563 409 243 639 
L 166 211 
C 531 0 883 -64 1178 -64 
C 1965 -64 2163 416 2163 780 
C 2163 1094 1984 1305 1862 1401 
C 1651 1567 1574 1587 1050 1695 
C 960 1708 646 1779 646 2067 
C 646 2431 1050 2431 1139 2431 
C 1555 2431 1811 2303 1984 2207 
L 2061 2623 
z
" transform="scale(0.015625)"/>
      </defs>
      <use xlink:href="#CMSS17-52" transform="scale(0.996264)"/>
      <use xlink:href="#CMSS17-65" transform="translate(60.416155 0)scale(0.996264)"/>
      <use xlink:href="#CMSS17-61" transform="translate(102.054977 0)scale(0.996264)"/>
      <use xlink:href="#CMSS17-6c" transform="translate(146.976898 0)scale(0.996264)"/>
      <use xlink:href="#CMSS17-76" transform="translate(200.386733 0)scale(0.996264)"/>
      <use xlink:href="#CMSS17-61" transform="translate(243.386875 0)scale(0.996264)"/>
      <use xlink:href="#CMSS17-6c" transform="translate(288.308796 0)scale(0.996264)"/>
      <use xlink:href="#CMSS17-75" transform="translate(310.489519 0)scale(0.996264)"/>
      <use xlink:href="#CMSS17-65" transform="translate(358.694462 0)scale(0.996264)"/>
      <use xlink:href="#CMSS17-73" transform="translate(400.333284 0)scale(0.996264)"/>
     </g>
    </g>
   </g>
  </g>
 </g>
 <defs>
  <clipPath id="p3add7791ec">
   <rect x="50.45542" y="10.8" width="399.54458" height="308.144323"/>
  </clipPath>
 </defs>
</svg>
