<?xml version="1.0" encoding="utf-8" standalone="no"?>
<!DOCTYPE svg PUBLIC "-//W3C//DTD SVG 1.1//EN"
  "http://www.w3.org/Graphics/SVG/1.1/DTD/svg11.dtd">
<svg xmlns:xlink="http://www.w3.org/1999/xlink" width="460.8pt" height="345.6pt" viewBox="0 0 460.8 345.6" xmlns="http://www.w3.org/2000/svg" version="1.1">
 <metadata>
  <rdf:RDF xmlns:dc="http://purl.org/dc/elements/1.1/" xmlns:cc="http://creativecommons.org/ns#" xmlns:rdf="http://www.w3.org/1999/02/22-rdf-syntax-ns#">
   <cc:Work>
    <dc:type rdf:resource="http://purl.org/dc/dcmitype/StillImage"/>
    <dc:date>2023-03-13T13:11:59.050465</dc:date>
    <dc:format>image/svg+xml</dc:format>
    <dc:creator>
     <cc:Agent>
      <dc:title>Matplotlib v3.5.3, https://matplotlib.org/</dc:title>
     </cc:Agent>
    </dc:creator>
   </cc:Work>
  </rdf:RDF>
 </metadata>
 <defs>
  <style type="text/css">*{stroke-linejoin: round; stroke-linecap: butt}</style>
 </defs>
 <g id="figure_1">
  <g id="patch_1">
   <path d="M 0 345.6 
L 460.8 345.6 
L 460.8 0 
L 0 0 
z
" style="fill: #ffffff"/>
  </g>
  <g id="axes_1">
   <g id="patch_2">
    <path d="M 67.738889 301.660854 
L 450 301.660854 
L 450 13.39568 
L 67.738889 13.39568 
z
" style="fill: #ffffff"/>
   </g>
   <g id="matplotlib.axis_1">
    <g id="xtick_1">
     <g id="line2d_1">
      <defs>
       <path id="mf8e18a004e" d="M 0 0 
L 0 3.5 
" style="stroke: #000000; stroke-width: 0.8"/>
      </defs>
      <g>
       <use xlink:href="#mf8e18a004e" x="85.114394" y="301.660854" style="stroke: #000000; stroke-width: 0.8"/>
      </g>
     </g>
     <g id="text_1">
      <!-- $\mathdefault{0}$ -->
      <g transform="translate(82.623727 315.579352)scale(0.1 -0.1)">
       <defs>
        <path id="CMR17-30" d="M 2688 2038 
C 2688 2430 2682 3099 2413 3613 
C 2176 4063 1798 4224 1466 4224 
C 1158 4224 768 4082 525 3620 
C 269 3137 243 2539 243 2038 
C 243 1671 250 1112 448 623 
C 723 -39 1216 -128 1466 -128 
C 1760 -128 2208 -7 2470 604 
C 2662 1048 2688 1568 2688 2038 
z
M 1466 -26 
C 1056 -26 813 328 723 816 
C 653 1196 653 1749 653 2109 
C 653 2604 653 3015 736 3407 
C 858 3954 1216 4121 1466 4121 
C 1728 4121 2067 3947 2189 3420 
C 2272 3054 2278 2623 2278 2109 
C 2278 1691 2278 1176 2202 797 
C 2067 96 1690 -26 1466 -26 
z
" transform="scale(0.015625)"/>
       </defs>
       <use xlink:href="#CMR17-30" transform="scale(0.996264)"/>
      </g>
     </g>
    </g>
    <g id="xtick_2">
     <g id="line2d_2">
      <g>
       <use xlink:href="#mf8e18a004e" x="128.771442" y="301.660854" style="stroke: #000000; stroke-width: 0.8"/>
      </g>
     </g>
     <g id="text_2">
      <!-- $\mathdefault{25}$ -->
      <g transform="translate(123.790107 315.579352)scale(0.1 -0.1)">
       <defs>
        <path id="CMR17-32" d="M 2669 990 
L 2554 990 
C 2490 537 2438 460 2413 422 
C 2381 371 1920 371 1830 371 
L 602 371 
C 832 620 1280 1073 1824 1596 
C 2214 1966 2669 2400 2669 3033 
C 2669 3788 2067 4224 1395 4224 
C 691 4224 262 3603 262 3027 
C 262 2777 448 2745 525 2745 
C 589 2745 781 2783 781 3007 
C 781 3206 614 3264 525 3264 
C 486 3264 448 3257 422 3244 
C 544 3788 915 4057 1306 4057 
C 1862 4057 2227 3616 2227 3033 
C 2227 2477 1901 1998 1536 1583 
L 262 147 
L 262 0 
L 2515 0 
L 2669 990 
z
" transform="scale(0.015625)"/>
        <path id="CMR17-35" d="M 730 3750 
C 794 3724 1056 3641 1325 3641 
C 1920 3641 2246 3961 2432 4140 
C 2432 4191 2432 4224 2394 4224 
C 2387 4224 2374 4224 2323 4198 
C 2099 4102 1837 4032 1517 4032 
C 1325 4032 1037 4055 723 4191 
C 653 4224 640 4224 634 4224 
C 602 4224 595 4217 595 4090 
L 595 2231 
C 595 2113 595 2080 659 2080 
C 691 2080 704 2093 736 2139 
C 941 2435 1222 2560 1542 2560 
C 1766 2560 2246 2415 2246 1293 
C 2246 1087 2246 716 2054 422 
C 1894 159 1645 25 1370 25 
C 947 25 518 319 403 812 
C 429 806 480 793 506 793 
C 589 793 749 838 749 1036 
C 749 1209 627 1280 506 1280 
C 358 1280 262 1190 262 1011 
C 262 454 704 -128 1382 -128 
C 2042 -128 2669 441 2669 1267 
C 2669 2054 2170 2662 1549 2662 
C 1222 2662 947 2540 730 2304 
L 730 3750 
z
" transform="scale(0.015625)"/>
       </defs>
       <use xlink:href="#CMR17-32" transform="scale(0.996264)"/>
       <use xlink:href="#CMR17-35" transform="translate(45.690477 0)scale(0.996264)"/>
      </g>
     </g>
    </g>
    <g id="xtick_3">
     <g id="line2d_3">
      <g>
       <use xlink:href="#mf8e18a004e" x="172.42849" y="301.660854" style="stroke: #000000; stroke-width: 0.8"/>
      </g>
     </g>
     <g id="text_3">
      <!-- $\mathdefault{50}$ -->
      <g transform="translate(167.447155 315.579352)scale(0.1 -0.1)">
       <use xlink:href="#CMR17-35" transform="scale(0.996264)"/>
       <use xlink:href="#CMR17-30" transform="translate(45.690477 0)scale(0.996264)"/>
      </g>
     </g>
    </g>
    <g id="xtick_4">
     <g id="line2d_4">
      <g>
       <use xlink:href="#mf8e18a004e" x="216.085538" y="301.660854" style="stroke: #000000; stroke-width: 0.8"/>
      </g>
     </g>
     <g id="text_4">
      <!-- $\mathdefault{75}$ -->
      <g transform="translate(211.104203 315.579352)scale(0.1 -0.1)">
       <defs>
        <path id="CMR17-37" d="M 2886 3955 
L 2886 4096 
L 1382 4096 
C 634 4096 621 4166 595 4288 
L 480 4288 
L 294 3104 
L 410 3104 
C 429 3226 474 3552 550 3673 
C 589 3724 1062 3724 1171 3724 
L 2579 3724 
L 1869 2670 
C 1395 1961 1069 1003 1069 166 
C 1069 89 1069 -128 1299 -128 
C 1530 -128 1530 89 1530 172 
L 1530 466 
C 1530 1514 1709 2204 2003 2644 
L 2886 3955 
z
" transform="scale(0.015625)"/>
       </defs>
       <use xlink:href="#CMR17-37" transform="scale(0.996264)"/>
       <use xlink:href="#CMR17-35" transform="translate(45.690477 0)scale(0.996264)"/>
      </g>
     </g>
    </g>
    <g id="xtick_5">
     <g id="line2d_5">
      <g>
       <use xlink:href="#mf8e18a004e" x="259.742586" y="301.660854" style="stroke: #000000; stroke-width: 0.8"/>
      </g>
     </g>
     <g id="text_5">
      <!-- $\mathdefault{100}$ -->
      <g transform="translate(252.270583 315.579352)scale(0.1 -0.1)">
       <defs>
        <path id="CMR17-31" d="M 1702 4083 
C 1702 4217 1696 4224 1606 4224 
C 1357 3927 979 3833 621 3820 
C 602 3820 570 3820 563 3808 
C 557 3795 557 3782 557 3648 
C 755 3648 1088 3686 1344 3839 
L 1344 467 
C 1344 243 1331 166 781 166 
L 589 166 
L 589 0 
C 896 6 1216 12 1523 12 
C 1830 12 2150 6 2458 0 
L 2458 166 
L 2266 166 
C 1715 166 1702 236 1702 467 
L 1702 4083 
z
" transform="scale(0.015625)"/>
       </defs>
       <use xlink:href="#CMR17-31" transform="scale(0.996264)"/>
       <use xlink:href="#CMR17-30" transform="translate(45.690477 0)scale(0.996264)"/>
       <use xlink:href="#CMR17-30" transform="translate(91.380954 0)scale(0.996264)"/>
      </g>
     </g>
    </g>
    <g id="xtick_6">
     <g id="line2d_6">
      <g>
       <use xlink:href="#mf8e18a004e" x="303.399633" y="301.660854" style="stroke: #000000; stroke-width: 0.8"/>
      </g>
     </g>
     <g id="text_6">
      <!-- $\mathdefault{125}$ -->
      <g transform="translate(295.927631 315.579352)scale(0.1 -0.1)">
       <use xlink:href="#CMR17-31" transform="scale(0.996264)"/>
       <use xlink:href="#CMR17-32" transform="translate(45.690477 0)scale(0.996264)"/>
       <use xlink:href="#CMR17-35" transform="translate(91.380954 0)scale(0.996264)"/>
      </g>
     </g>
    </g>
    <g id="xtick_7">
     <g id="line2d_7">
      <g>
       <use xlink:href="#mf8e18a004e" x="347.056681" y="301.660854" style="stroke: #000000; stroke-width: 0.8"/>
      </g>
     </g>
     <g id="text_7">
      <!-- $\mathdefault{150}$ -->
      <g transform="translate(339.584678 315.579352)scale(0.1 -0.1)">
       <use xlink:href="#CMR17-31" transform="scale(0.996264)"/>
       <use xlink:href="#CMR17-35" transform="translate(45.690477 0)scale(0.996264)"/>
       <use xlink:href="#CMR17-30" transform="translate(91.380954 0)scale(0.996264)"/>
      </g>
     </g>
    </g>
    <g id="xtick_8">
     <g id="line2d_8">
      <g>
       <use xlink:href="#mf8e18a004e" x="390.713729" y="301.660854" style="stroke: #000000; stroke-width: 0.8"/>
      </g>
     </g>
     <g id="text_8">
      <!-- $\mathdefault{175}$ -->
      <g transform="translate(383.241726 315.579352)scale(0.1 -0.1)">
       <use xlink:href="#CMR17-31" transform="scale(0.996264)"/>
       <use xlink:href="#CMR17-37" transform="translate(45.690477 0)scale(0.996264)"/>
       <use xlink:href="#CMR17-35" transform="translate(91.380954 0)scale(0.996264)"/>
      </g>
     </g>
    </g>
    <g id="xtick_9">
     <g id="line2d_9">
      <g>
       <use xlink:href="#mf8e18a004e" x="434.370777" y="301.660854" style="stroke: #000000; stroke-width: 0.8"/>
      </g>
     </g>
     <g id="text_9">
      <!-- $\mathdefault{200}$ -->
      <g transform="translate(426.898774 315.579352)scale(0.1 -0.1)">
       <use xlink:href="#CMR17-32" transform="scale(0.996264)"/>
       <use xlink:href="#CMR17-30" transform="translate(45.690477 0)scale(0.996264)"/>
       <use xlink:href="#CMR17-30" transform="translate(91.380954 0)scale(0.996264)"/>
      </g>
     </g>
    </g>
    <g id="text_10">
     <!-- Inner Region Data -->
     <g transform="translate(203.098354 331.894255)scale(0.15 -0.15)">
      <defs>
       <path id="CMSS17-49" d="M 1094 4416 
L 557 4416 
L 557 0 
L 1094 0 
L 1094 4416 
z
" transform="scale(0.015625)"/>
       <path id="CMSS17-6e" d="M 2618 1878 
C 2618 2283 2522 2816 1798 2816 
C 1389 2816 1120 2604 941 2386 
L 941 2783 
L 474 2783 
L 474 0 
L 960 0 
L 960 1556 
C 960 1962 1114 2425 1549 2425 
C 2112 2425 2131 2045 2131 1826 
L 2131 0 
L 2618 0 
L 2618 1878 
z
" transform="scale(0.015625)"/>
       <path id="CMSS17-65" d="M 2502 1375 
C 2502 1587 2490 2001 2285 2347 
C 2061 2713 1696 2816 1421 2816 
C 755 2816 192 2184 192 1363 
C 192 579 774 -64 1510 -64 
C 1798 -64 2150 19 2470 249 
C 2470 275 2458 414 2451 421 
C 2451 433 2432 629 2432 655 
C 2125 408 1773 326 1517 326 
C 1107 326 666 667 646 1375 
L 2502 1375 
z
M 698 1728 
C 781 2086 1062 2425 1421 2425 
C 1517 2425 1965 2412 2080 1728 
L 698 1728 
z
" transform="scale(0.015625)"/>
       <path id="CMSS17-72" d="M 954 1369 
C 954 1974 1395 2379 1958 2392 
L 1958 2816 
C 1549 2809 1165 2604 934 2270 
L 934 2783 
L 480 2783 
L 480 0 
L 954 0 
L 954 1369 
z
" transform="scale(0.015625)"/>
       <path id="CMSS17-52" d="M 2522 2099 
L 2534 2105 
C 3533 2450 3539 3125 3539 3244 
C 3539 3838 2925 4416 2003 4416 
L 570 4416 
L 570 0 
L 1094 0 
L 1094 2041 
L 2035 2041 
L 3168 0 
L 3706 0 
L 2522 2099 
z
M 1094 2432 
L 1094 4057 
L 1933 4057 
C 2746 4057 3034 3607 3034 3244 
C 3034 2907 2778 2432 1933 2432 
L 1094 2432 
z
" transform="scale(0.015625)"/>
       <path id="CMSS17-67" d="M 2848 2816 
C 2483 2809 2170 2739 1914 2617 
C 1702 2783 1485 2816 1338 2816 
C 781 2816 358 2356 358 1824 
C 358 1481 550 1222 563 1209 
C 448 1049 384 876 384 684 
C 384 460 474 300 544 211 
C 211 6 166 -308 166 -429 
C 166 -896 749 -1280 1498 -1280 
C 2253 -1280 2835 -896 2835 -423 
C 2835 460 1856 467 1587 467 
L 1069 467 
C 973 467 717 467 717 793 
C 717 921 774 1004 781 1011 
C 877 940 1075 832 1338 832 
C 1869 832 2310 1279 2310 1824 
C 2310 2128 2170 2349 2112 2425 
L 2131 2425 
C 2150 2425 2419 2444 2515 2444 
C 2720 2444 2739 2438 2918 2419 
L 2848 2816 
z
M 1338 1184 
C 1120 1184 813 1317 813 1824 
C 813 2375 1165 2463 1331 2463 
C 1549 2463 1856 2330 1856 1824 
C 1856 1272 1504 1184 1338 1184 
z
M 1581 0 
C 1734 0 2381 0 2381 -436 
C 2381 -711 1984 -928 1504 -928 
C 1018 -928 621 -717 621 -429 
C 621 -397 621 0 1062 0 
L 1581 0 
z
" transform="scale(0.015625)"/>
       <path id="CMSS17-69" d="M 979 4224 
L 442 4224 
L 442 3686 
L 979 3686 
L 979 4224 
z
M 947 2752 
L 474 2752 
L 474 0 
L 947 0 
L 947 2752 
z
" transform="scale(0.015625)"/>
       <path id="CMSS17-6f" d="M 2829 1356 
C 2829 2175 2221 2816 1504 2816 
C 768 2816 173 2156 173 1356 
C 173 544 787 -64 1498 -64 
C 2227 -64 2829 563 2829 1356 
z
M 1504 339 
C 1050 339 659 710 659 1407 
C 659 2150 1114 2425 1498 2425 
C 1914 2425 2342 2124 2342 1407 
C 2342 684 1926 339 1504 339 
z
" transform="scale(0.015625)"/>
       <path id="CMSS17-44" d="M 570 4416 
L 570 0 
L 2144 0 
C 3194 0 4000 981 4000 2169 
C 4000 3396 3194 4416 2144 4416 
L 570 4416 
z
M 1094 358 
L 1094 4057 
L 2003 4057 
C 2861 4057 3475 3275 3475 2169 
C 3475 1108 2867 358 2003 358 
L 1094 358 
z
" transform="scale(0.015625)"/>
       <path id="CMSS17-61" d="M 2406 1789 
C 2406 2399 1978 2816 1402 2816 
C 1120 2816 813 2764 461 2559 
L 499 2133 
C 659 2250 934 2438 1395 2438 
C 1722 2438 1920 2185 1920 1782 
L 1920 1536 
C 896 1504 256 1209 256 711 
C 256 452 416 -64 947 -64 
C 1043 -64 1562 -52 1933 224 
L 1933 -13 
L 2406 -13 
L 2406 1789 
z
M 1920 824 
C 1920 711 1920 559 1728 446 
C 1562 339 1350 326 1261 326 
C 941 326 723 503 723 723 
C 723 1165 1722 1209 1920 1216 
L 1920 824 
z
" transform="scale(0.015625)"/>
       <path id="CMSS17-74" d="M 1069 2380 
L 1901 2380 
L 1901 2752 
L 1069 2752 
L 1069 3520 
L 614 3520 
L 614 2752 
L 109 2752 
L 109 2380 
L 602 2380 
L 602 751 
C 602 384 685 -64 1107 -64 
C 1427 -64 1722 25 2003 172 
L 1901 551 
C 1747 416 1562 339 1363 339 
C 1082 339 1069 699 1069 860 
L 1069 2380 
z
" transform="scale(0.015625)"/>
      </defs>
      <use xlink:href="#CMSS17-49" transform="scale(0.996264)"/>
      <use xlink:href="#CMSS17-6e" transform="translate(25.783926 0)scale(0.996264)"/>
      <use xlink:href="#CMSS17-6e" transform="translate(73.988869 0)scale(0.996264)"/>
      <use xlink:href="#CMSS17-65" transform="translate(122.193812 0)scale(0.996264)"/>
      <use xlink:href="#CMSS17-72" transform="translate(163.832634 0)scale(0.996264)"/>
      <use xlink:href="#CMSS17-52" transform="translate(226.971519 0)scale(0.996264)"/>
      <use xlink:href="#CMSS17-65" transform="translate(287.387674 0)scale(0.996264)"/>
      <use xlink:href="#CMSS17-67" transform="translate(329.026496 0)scale(0.996264)"/>
      <use xlink:href="#CMSS17-69" transform="translate(375.87012 0)scale(0.996264)"/>
      <use xlink:href="#CMSS17-6f" transform="translate(398.050843 0)scale(0.996264)"/>
      <use xlink:href="#CMSS17-6e" transform="translate(444.894466 0)scale(0.996264)"/>
      <use xlink:href="#CMSS17-44" transform="translate(524.328522 0)scale(0.996264)"/>
      <use xlink:href="#CMSS17-61" transform="translate(591.871364 0)scale(0.996264)"/>
      <use xlink:href="#CMSS17-74" transform="translate(636.793284 0)scale(0.996264)"/>
      <use xlink:href="#CMSS17-61" transform="translate(670.624851 0)scale(0.996264)"/>
     </g>
    </g>
   </g>
   <g id="matplotlib.axis_2">
    <g id="ytick_1">
     <g id="line2d_10">
      <defs>
       <path id="m1700a006cd" d="M 0 0 
L -3.5 0 
" style="stroke: #000000; stroke-width: 0.8"/>
      </defs>
      <g>
       <use xlink:href="#m1700a006cd" x="67.738889" y="274.233655" style="stroke: #000000; stroke-width: 0.8"/>
      </g>
     </g>
     <g id="text_11">
      <!-- $\mathdefault{0.00050}$ -->
      <g transform="translate(28.083469 277.692904)scale(0.1 -0.1)">
       <defs>
        <path id="CMMI12-3a" d="M 1178 307 
C 1178 492 1024 620 870 620 
C 685 620 557 467 557 313 
C 557 128 710 0 864 0 
C 1050 0 1178 153 1178 307 
z
" transform="scale(0.015625)"/>
       </defs>
       <use xlink:href="#CMR17-30" transform="scale(0.996264)"/>
       <use xlink:href="#CMMI12-3a" transform="translate(45.690477 0)scale(0.996264)"/>
       <use xlink:href="#CMR17-30" transform="translate(72.787654 0)scale(0.996264)"/>
       <use xlink:href="#CMR17-30" transform="translate(118.478131 0)scale(0.996264)"/>
       <use xlink:href="#CMR17-30" transform="translate(164.168608 0)scale(0.996264)"/>
       <use xlink:href="#CMR17-35" transform="translate(209.859086 0)scale(0.996264)"/>
       <use xlink:href="#CMR17-30" transform="translate(255.549563 0)scale(0.996264)"/>
      </g>
     </g>
    </g>
    <g id="ytick_2">
     <g id="line2d_11">
      <g>
       <use xlink:href="#m1700a006cd" x="67.738889" y="237.104724" style="stroke: #000000; stroke-width: 0.8"/>
      </g>
     </g>
     <g id="text_12">
      <!-- $\mathdefault{0.00075}$ -->
      <g transform="translate(28.083469 240.563973)scale(0.1 -0.1)">
       <use xlink:href="#CMR17-30" transform="scale(0.996264)"/>
       <use xlink:href="#CMMI12-3a" transform="translate(45.690477 0)scale(0.996264)"/>
       <use xlink:href="#CMR17-30" transform="translate(72.787654 0)scale(0.996264)"/>
       <use xlink:href="#CMR17-30" transform="translate(118.478131 0)scale(0.996264)"/>
       <use xlink:href="#CMR17-30" transform="translate(164.168608 0)scale(0.996264)"/>
       <use xlink:href="#CMR17-37" transform="translate(209.859086 0)scale(0.996264)"/>
       <use xlink:href="#CMR17-35" transform="translate(255.549563 0)scale(0.996264)"/>
      </g>
     </g>
    </g>
    <g id="ytick_3">
     <g id="line2d_12">
      <g>
       <use xlink:href="#m1700a006cd" x="67.738889" y="199.975793" style="stroke: #000000; stroke-width: 0.8"/>
      </g>
     </g>
     <g id="text_13">
      <!-- $\mathdefault{0.00100}$ -->
      <g transform="translate(28.083469 203.435042)scale(0.1 -0.1)">
       <use xlink:href="#CMR17-30" transform="scale(0.996264)"/>
       <use xlink:href="#CMMI12-3a" transform="translate(45.690477 0)scale(0.996264)"/>
       <use xlink:href="#CMR17-30" transform="translate(72.787654 0)scale(0.996264)"/>
       <use xlink:href="#CMR17-30" transform="translate(118.478131 0)scale(0.996264)"/>
       <use xlink:href="#CMR17-31" transform="translate(164.168608 0)scale(0.996264)"/>
       <use xlink:href="#CMR17-30" transform="translate(209.859086 0)scale(0.996264)"/>
       <use xlink:href="#CMR17-30" transform="translate(255.549563 0)scale(0.996264)"/>
      </g>
     </g>
    </g>
    <g id="ytick_4">
     <g id="line2d_13">
      <g>
       <use xlink:href="#m1700a006cd" x="67.738889" y="162.846862" style="stroke: #000000; stroke-width: 0.8"/>
      </g>
     </g>
     <g id="text_14">
      <!-- $\mathdefault{0.00125}$ -->
      <g transform="translate(28.083469 166.306112)scale(0.1 -0.1)">
       <use xlink:href="#CMR17-30" transform="scale(0.996264)"/>
       <use xlink:href="#CMMI12-3a" transform="translate(45.690477 0)scale(0.996264)"/>
       <use xlink:href="#CMR17-30" transform="translate(72.787654 0)scale(0.996264)"/>
       <use xlink:href="#CMR17-30" transform="translate(118.478131 0)scale(0.996264)"/>
       <use xlink:href="#CMR17-31" transform="translate(164.168608 0)scale(0.996264)"/>
       <use xlink:href="#CMR17-32" transform="translate(209.859086 0)scale(0.996264)"/>
       <use xlink:href="#CMR17-35" transform="translate(255.549563 0)scale(0.996264)"/>
      </g>
     </g>
    </g>
    <g id="ytick_5">
     <g id="line2d_14">
      <g>
       <use xlink:href="#m1700a006cd" x="67.738889" y="125.717932" style="stroke: #000000; stroke-width: 0.8"/>
      </g>
     </g>
     <g id="text_15">
      <!-- $\mathdefault{0.00150}$ -->
      <g transform="translate(28.083469 129.177181)scale(0.1 -0.1)">
       <use xlink:href="#CMR17-30" transform="scale(0.996264)"/>
       <use xlink:href="#CMMI12-3a" transform="translate(45.690477 0)scale(0.996264)"/>
       <use xlink:href="#CMR17-30" transform="translate(72.787654 0)scale(0.996264)"/>
       <use xlink:href="#CMR17-30" transform="translate(118.478131 0)scale(0.996264)"/>
       <use xlink:href="#CMR17-31" transform="translate(164.168608 0)scale(0.996264)"/>
       <use xlink:href="#CMR17-35" transform="translate(209.859086 0)scale(0.996264)"/>
       <use xlink:href="#CMR17-30" transform="translate(255.549563 0)scale(0.996264)"/>
      </g>
     </g>
    </g>
    <g id="ytick_6">
     <g id="line2d_15">
      <g>
       <use xlink:href="#m1700a006cd" x="67.738889" y="88.589001" style="stroke: #000000; stroke-width: 0.8"/>
      </g>
     </g>
     <g id="text_16">
      <!-- $\mathdefault{0.00175}$ -->
      <g transform="translate(28.083469 92.04825)scale(0.1 -0.1)">
       <use xlink:href="#CMR17-30" transform="scale(0.996264)"/>
       <use xlink:href="#CMMI12-3a" transform="translate(45.690477 0)scale(0.996264)"/>
       <use xlink:href="#CMR17-30" transform="translate(72.787654 0)scale(0.996264)"/>
       <use xlink:href="#CMR17-30" transform="translate(118.478131 0)scale(0.996264)"/>
       <use xlink:href="#CMR17-31" transform="translate(164.168608 0)scale(0.996264)"/>
       <use xlink:href="#CMR17-37" transform="translate(209.859086 0)scale(0.996264)"/>
       <use xlink:href="#CMR17-35" transform="translate(255.549563 0)scale(0.996264)"/>
      </g>
     </g>
    </g>
    <g id="ytick_7">
     <g id="line2d_16">
      <g>
       <use xlink:href="#m1700a006cd" x="67.738889" y="51.46007" style="stroke: #000000; stroke-width: 0.8"/>
      </g>
     </g>
     <g id="text_17">
      <!-- $\mathdefault{0.00200}$ -->
      <g transform="translate(28.083469 54.919319)scale(0.1 -0.1)">
       <use xlink:href="#CMR17-30" transform="scale(0.996264)"/>
       <use xlink:href="#CMMI12-3a" transform="translate(45.690477 0)scale(0.996264)"/>
       <use xlink:href="#CMR17-30" transform="translate(72.787654 0)scale(0.996264)"/>
       <use xlink:href="#CMR17-30" transform="translate(118.478131 0)scale(0.996264)"/>
       <use xlink:href="#CMR17-32" transform="translate(164.168608 0)scale(0.996264)"/>
       <use xlink:href="#CMR17-30" transform="translate(209.859086 0)scale(0.996264)"/>
       <use xlink:href="#CMR17-30" transform="translate(255.549563 0)scale(0.996264)"/>
      </g>
     </g>
    </g>
    <g id="ytick_8">
     <g id="line2d_17">
      <g>
       <use xlink:href="#m1700a006cd" x="67.738889" y="14.331139" style="stroke: #000000; stroke-width: 0.8"/>
      </g>
     </g>
     <g id="text_18">
      <!-- $\mathdefault{0.00225}$ -->
      <g transform="translate(28.083469 17.790388)scale(0.1 -0.1)">
       <use xlink:href="#CMR17-30" transform="scale(0.996264)"/>
       <use xlink:href="#CMMI12-3a" transform="translate(45.690477 0)scale(0.996264)"/>
       <use xlink:href="#CMR17-30" transform="translate(72.787654 0)scale(0.996264)"/>
       <use xlink:href="#CMR17-30" transform="translate(118.478131 0)scale(0.996264)"/>
       <use xlink:href="#CMR17-32" transform="translate(164.168608 0)scale(0.996264)"/>
       <use xlink:href="#CMR17-32" transform="translate(209.859086 0)scale(0.996264)"/>
       <use xlink:href="#CMR17-35" transform="translate(255.549563 0)scale(0.996264)"/>
      </g>
     </g>
    </g>
    <g id="text_19">
     <!-- Strain -->
     <g transform="translate(21.177725 175.697757)rotate(-90)scale(0.15 -0.15)">
      <defs>
       <path id="CMSS17-53" d="M 2797 4230 
C 2515 4396 2208 4544 1690 4544 
C 864 4544 333 3934 333 3309 
C 333 3064 403 2787 653 2504 
C 902 2220 1184 2143 1542 2053 
C 1690 2014 1939 1943 1984 1924 
C 2342 1782 2515 1454 2515 1144 
C 2515 738 2202 307 1645 307 
C 1453 307 890 339 358 829 
L 269 320 
C 794 -64 1363 -128 1651 -128 
C 2438 -128 3002 494 3002 1202 
C 3002 1460 2925 1789 2656 2092 
C 2394 2381 2163 2446 1638 2588 
C 1338 2665 1146 2717 986 2916 
C 877 3058 819 3193 819 3367 
C 819 3728 1126 4121 1690 4121 
C 1971 4121 2336 4063 2707 3715 
L 2797 4230 
z
" transform="scale(0.015625)"/>
      </defs>
      <use xlink:href="#CMSS17-53" transform="scale(0.996264)"/>
      <use xlink:href="#CMSS17-74" transform="translate(52.048516 0)scale(0.996264)"/>
      <use xlink:href="#CMSS17-72" transform="translate(85.880083 0)scale(0.996264)"/>
      <use xlink:href="#CMSS17-61" transform="translate(117.789855 0)scale(0.996264)"/>
      <use xlink:href="#CMSS17-69" transform="translate(162.711776 0)scale(0.996264)"/>
      <use xlink:href="#CMSS17-6e" transform="translate(184.892499 0)scale(0.996264)"/>
     </g>
    </g>
   </g>
   <g id="line2d_18">
    <path d="M 85.114394 110.657085 
L 86.860676 73.13898 
L 88.606958 148.470297 
L 90.35324 128.666307 
L 92.099522 45.156476 
L 93.845804 109.239503 
L 95.592086 153.650308 
L 97.338368 92.740097 
L 99.08465 105.256531 
L 100.830932 64.989574 
L 102.577214 163.773564 
L 104.323496 27.395549 
L 106.069777 56.018808 
L 107.816059 60.947471 
L 109.562341 123.615977 
L 111.308623 147.550991 
L 113.054905 152.220723 
L 114.801187 110.314871 
L 116.547469 106.884019 
L 118.293751 79.663991 
L 120.040033 96.804622 
L 121.786315 58.065343 
L 123.532597 137.334689 
L 125.278878 68.126061 
L 127.02516 160.110958 
L 128.771442 108.793504 
L 130.517724 106.362534 
L 132.264006 90.716123 
L 134.010288 98.149437 
L 135.75657 151.666645 
L 137.502852 33.475635 
L 139.249134 167.455599 
L 140.995416 134.263966 
L 142.741698 122.358181 
L 144.487979 126.953524 
L 146.234261 113.607428 
L 147.980543 94.818337 
L 149.726825 145.32144 
L 151.473107 58.655166 
L 153.219389 82.681504 
L 154.965671 116.291228 
L 156.711953 36.018178 
L 158.458235 94.121128 
L 160.204517 140.372516 
L 161.950799 80.742731 
L 163.697081 36.527266 
L 165.443362 90.749057 
L 167.189644 93.522017 
L 168.935926 128.623607 
L 170.682208 120.866031 
L 172.42849 174.307075 
L 174.174772 55.951813 
L 175.921054 147.837448 
L 177.667336 90.676305 
L 179.413618 104.027206 
L 181.1599 90.776381 
L 182.906182 75.746047 
L 184.652463 86.992571 
L 186.398745 100.103918 
L 188.145027 106.973967 
L 189.891309 84.839552 
L 191.637591 154.175645 
L 193.383873 73.133307 
L 195.130155 88.614574 
L 196.876437 75.9292 
L 198.622719 59.675254 
L 200.369001 118.314995 
L 202.115283 137.185096 
L 203.861564 58.21604 
L 205.607846 69.434353 
L 207.354128 105.932993 
L 209.10041 62.298489 
L 210.846692 97.704777 
L 212.592974 54.960036 
L 214.339256 130.896405 
L 216.085538 144.222884 
L 217.83182 131.782842 
L 219.578102 94.339564 
L 221.324384 158.511733 
L 223.070666 78.393419 
L 224.816947 67.173938 
L 226.563229 76.425358 
L 228.309511 163.559328 
L 230.055793 119.687696 
L 231.802075 117.933494 
L 233.548357 149.431582 
L 235.294639 125.810646 
L 237.040921 77.064609 
L 238.787203 73.64301 
L 240.533485 132.893486 
L 242.279767 78.455435 
L 244.026048 84.972862 
L 245.77233 106.211317 
L 247.518612 158.260684 
L 249.264894 99.568213 
L 251.011176 105.523307 
L 252.757458 98.029118 
L 254.50374 116.140064 
L 256.250022 46.919595 
L 257.996304 180.455425 
L 259.742586 184.142041 
L 261.488868 79.873425 
L 263.23515 95.421309 
L 264.981431 84.751451 
L 266.727713 68.86448 
L 268.473995 132.541887 
L 270.220277 73.364487 
L 271.966559 100.92559 
L 273.712841 43.287263 
L 275.459123 74.520574 
L 277.205405 88.506756 
L 278.951687 72.406014 
L 280.697969 74.831554 
L 282.444251 72.028162 
L 284.190532 73.794017 
L 285.936814 50.988404 
L 287.683096 144.48687 
L 289.429378 153.67717 
L 291.17566 31.344876 
L 292.921942 98.791409 
L 294.668224 117.304758 
L 296.414506 100.169695 
L 298.160788 121.594872 
L 299.90707 98.640665 
L 301.653352 116.425509 
L 303.399633 61.869904 
L 305.145915 64.995229 
L 306.892197 89.525786 
L 308.638479 109.809266 
L 310.384761 100.904282 
L 312.131043 128.844269 
L 313.877325 88.317137 
L 315.623607 135.475551 
L 317.369889 154.019028 
L 319.116171 157.511737 
L 320.862453 69.950288 
L 322.608735 87.74838 
L 324.355016 143.36376 
L 326.101298 115.17937 
L 327.84758 75.411853 
L 329.593862 143.742372 
L 331.340144 50.444584 
L 333.086426 41.062589 
L 334.832708 134.191529 
L 336.57899 105.806467 
L 338.325272 149.494657 
L 340.071554 116.994486 
L 341.817836 155.603204 
L 343.564117 73.41715 
L 345.310399 105.327807 
L 347.056681 95.543979 
L 348.802963 106.97102 
L 350.549245 154.26147 
L 352.295527 128.498078 
L 354.041809 127.662302 
L 355.788091 127.400872 
L 357.534373 105.715276 
L 359.280655 141.003462 
L 361.026937 119.500734 
L 362.773218 92.271471 
L 364.5195 66.793727 
L 366.265782 141.322213 
L 368.012064 76.087747 
L 369.758346 104.316711 
L 371.504628 103.995332 
L 373.25091 117.787405 
L 374.997192 166.230391 
L 376.743474 92.334696 
L 378.489756 125.454205 
L 380.236038 120.249526 
L 381.98232 64.892012 
L 383.728601 34.273816 
L 385.474883 99.087081 
L 387.221165 53.208969 
L 388.967447 138.532778 
L 390.713729 114.905444 
L 392.460011 157.944474 
L 394.206293 82.19585 
L 395.952575 150.695839 
L 397.698857 95.843476 
L 399.445139 143.979419 
L 401.191421 166.920569 
L 402.937702 88.006573 
L 404.683984 54.39403 
L 406.430266 155.975022 
L 408.176548 63.280121 
L 409.92283 124.814833 
L 411.669112 111.210634 
L 413.415394 135.744216 
L 415.161676 109.245169 
L 416.907958 108.126657 
L 418.65424 44.465708 
L 420.400522 45.131365 
L 422.146804 134.648927 
L 423.893085 80.281907 
L 425.639367 109.668681 
L 427.385649 149.249265 
L 429.131931 56.403067 
L 430.878213 83.742606 
L 432.624495 80.836395 
L 432.624495 80.836395 
" clip-path="url(#p5e48033646)" style="fill: none; stroke: #3c74ff; stroke-width: 1.5; stroke-linecap: square"/>
   </g>
   <g id="line2d_19">
    <path d="M 85.114394 44.930329 
L 86.860676 83.627921 
L 88.606958 134.911104 
L 90.35324 121.998544 
L 92.099522 45.782956 
L 93.845804 76.677823 
L 95.592086 142.079776 
L 97.338368 117.250735 
L 99.08465 147.466215 
L 100.830932 83.910192 
L 102.577214 143.287833 
L 104.323496 49.38348 
L 106.069777 46.909461 
L 107.816059 94.574686 
L 109.562341 152.12332 
L 111.308623 143.287833 
L 113.054905 177.222467 
L 114.801187 90.778824 
L 116.547469 85.821206 
L 118.293751 93.012137 
L 120.040033 107.237823 
L 121.786315 105.335064 
L 123.532597 79.91756 
L 125.278878 89.823658 
L 127.02516 111.706248 
L 128.771442 62.267372 
L 130.517724 81.360534 
L 132.264006 105.174971 
L 134.010288 50.343729 
L 135.75657 136.838394 
L 137.502852 42.670099 
L 139.249134 141.546031 
L 140.995416 129.321658 
L 142.741698 262.306723 
L 144.487979 258.761709 
L 146.234261 264.279888 
L 147.980543 90.630842 
L 149.726825 280.516262 
L 151.473107 57.541456 
L 153.219389 60.038927 
L 154.965671 93.012137 
L 156.711953 53.711816 
L 158.458235 90.089658 
L 160.204517 105.868808 
L 161.950799 111.24855 
L 163.697081 33.245335 
L 165.443362 103.51794 
L 168.935926 165.968596 
L 170.682208 106.559182 
L 172.42849 142.079776 
L 174.174772 58.894716 
L 175.921054 262.732365 
L 177.667336 81.860644 
L 179.413618 123.56292 
L 181.1599 95.349233 
L 182.906182 62.798179 
L 184.652463 73.71506 
L 186.398745 90.495519 
L 188.145027 93.492423 
L 189.891309 70.546206 
L 191.637591 147.475142 
L 193.383873 76.207158 
L 195.130155 98.653205 
L 196.876437 73.71506 
L 198.622719 88.129308 
L 200.369001 151.042403 
L 202.115283 259.10163 
L 203.861564 49.181289 
L 205.607846 88.967847 
L 207.354128 147.466215 
L 209.10041 107.409273 
L 210.846692 141.038978 
L 212.592974 26.498643 
L 214.339256 114.627121 
L 216.085538 129.374155 
L 217.83182 149.459658 
L 219.578102 101.379696 
L 221.324384 146.015122 
L 223.070666 70.178119 
L 224.816947 69.627784 
L 226.563229 108.087717 
L 228.309511 151.035263 
L 230.055793 87.753567 
L 231.802075 127.489187 
L 233.548357 129.275451 
L 235.294639 133.779625 
L 237.040921 93.831171 
L 238.787203 85.292869 
L 240.533485 152.12332 
L 242.279767 52.098011 
L 244.026048 71.882963 
L 245.77233 84.55782 
L 247.518612 152.12332 
L 249.264894 100.881868 
L 251.011176 114.039732 
L 252.757458 110.203235 
L 254.50374 86.221183 
L 256.250022 43.384159 
L 257.996304 178.34145 
L 259.742586 154.179366 
L 261.488868 77.022698 
L 263.23515 120.544144 
L 264.981431 88.516842 
L 266.727713 81.73121 
L 268.473995 125.01326 
L 270.220277 118.22245 
L 271.966559 106.121663 
L 273.712841 44.295919 
L 275.459123 63.99849 
L 277.205405 93.492423 
L 278.951687 52.098011 
L 280.697969 99.163079 
L 282.444251 46.909461 
L 284.190532 75.49285 
L 285.936814 77.112245 
L 287.683096 269.986394 
L 289.429378 280.635956 
L 291.17566 26.498643 
L 292.921942 83.910192 
L 294.668224 99.25988 
L 296.414506 105.779747 
L 298.160788 288.557891 
L 299.90707 100.931395 
L 301.653352 117.645757 
L 303.399633 54.632782 
L 305.145915 80.846815 
L 306.892197 92.265715 
L 308.638479 121.998544 
L 310.384761 122.055334 
L 312.131043 137.207285 
L 313.877325 88.967847 
L 315.623607 159.321253 
L 317.369889 154.863205 
L 319.116171 178.34145 
L 320.862453 81.860644 
L 322.608735 121.998544 
L 324.355016 147.466215 
L 326.101298 127.489187 
L 327.84758 80.229353 
L 329.593862 124.253531 
L 331.340144 55.277918 
L 333.086426 50.638539 
L 334.832708 104.393563 
L 336.57899 79.211129 
L 338.325272 111.706248 
L 340.071554 102.717795 
L 341.817836 157.663882 
L 343.564117 104.000974 
L 345.310399 97.985148 
L 347.056681 126.699131 
L 348.802963 105.868808 
L 350.549245 147.475142 
L 352.295527 265.771706 
L 354.041809 141.038978 
L 355.788091 110.428209 
L 357.534373 76.312867 
L 359.280655 133.492209 
L 361.026937 108.034335 
L 362.773218 60.602634 
L 364.5195 92.894693 
L 366.265782 141.546031 
L 368.012064 105.335064 
L 369.758346 133.943574 
L 371.504628 105.779747 
L 373.25091 116.545717 
L 374.997192 152.540467 
L 376.743474 117.146231 
L 378.489756 100.778969 
L 380.236038 90.65995 
L 381.98232 72.432476 
L 383.728601 33.02115 
L 385.474883 136.824967 
L 387.221165 26.498643 
L 388.967447 259.835167 
L 390.713729 106.731803 
L 392.460011 118.911152 
L 394.206293 93.302505 
L 395.952575 144.758112 
L 397.698857 80.056568 
L 399.445139 269.041257 
L 401.191421 110.310534 
L 402.937702 62.267372 
L 404.683984 66.118415 
L 406.430266 156.731959 
L 408.176548 81.022161 
L 409.92283 120.544144 
L 411.669112 253.429522 
L 413.415394 165.70936 
L 415.161676 117.001128 
L 416.907958 118.655467 
L 418.65424 74.946664 
L 420.400522 82.938025 
L 422.146804 115.828494 
L 423.893085 116.112273 
L 425.639367 130.568492 
L 427.385649 274.034043 
L 429.131931 45.147292 
L 430.878213 73.863557 
L 432.624495 78.780024 
L 432.624495 78.780024 
" clip-path="url(#p5e48033646)" style="fill: none; stroke-dasharray: 5.55,2.4; stroke-dashoffset: 0; stroke: #eea219; stroke-width: 1.5"/>
   </g>
   <g id="patch_3">
    <path d="M 67.738889 301.660854 
L 67.738889 13.39568 
" style="fill: none; stroke: #000000; stroke-width: 0.8; stroke-linejoin: miter; stroke-linecap: square"/>
   </g>
   <g id="patch_4">
    <path d="M 450 301.660854 
L 450 13.39568 
" style="fill: none; stroke: #000000; stroke-width: 0.8; stroke-linejoin: miter; stroke-linecap: square"/>
   </g>
   <g id="patch_5">
    <path d="M 67.738889 301.660854 
L 450 301.660854 
" style="fill: none; stroke: #000000; stroke-width: 0.8; stroke-linejoin: miter; stroke-linecap: square"/>
   </g>
   <g id="patch_6">
    <path d="M 67.738889 13.39568 
L 450 13.39568 
" style="fill: none; stroke: #000000; stroke-width: 0.8; stroke-linejoin: miter; stroke-linecap: square"/>
   </g>
   <g id="legend_1">
    <g id="patch_7">
     <path d="M 74.738889 296.660854 
L 174.540253 296.660854 
Q 176.540253 296.660854 176.540253 294.660854 
L 176.540253 267.786497 
Q 176.540253 265.786497 174.540253 265.786497 
L 74.738889 265.786497 
Q 72.738889 265.786497 72.738889 267.786497 
L 72.738889 294.660854 
Q 72.738889 296.660854 74.738889 296.660854 
z
" style="fill: #ffffff; opacity: 0.8; stroke: #cccccc; stroke-linejoin: miter"/>
    </g>
    <g id="line2d_20">
     <path d="M 76.738889 273.286497 
L 86.738889 273.286497 
L 96.738889 273.286497 
" style="fill: none; stroke: #3c74ff; stroke-width: 1.5; stroke-linecap: square"/>
    </g>
    <g id="text_20">
     <!-- Real values -->
     <g transform="translate(104.738889 276.786497)scale(0.1 -0.1)">
      <defs>
       <path id="CMSS17-6c" d="M 947 4416 
L 474 4416 
L 474 0 
L 947 0 
L 947 4416 
z
" transform="scale(0.015625)"/>
       <path id="CMSS17-76" d="M 2675 2752 
L 2176 2752 
L 1747 1555 
C 1613 1164 1421 627 1389 352 
L 1382 352 
C 1370 467 1318 633 1286 748 
C 1248 889 1197 1056 1158 1171 
L 595 2752 
L 83 2752 
L 1094 0 
L 1664 0 
L 2675 2752 
z
" transform="scale(0.015625)"/>
       <path id="CMSS17-75" d="M 2618 2752 
L 2131 2752 
L 2131 976 
C 2131 500 1786 307 1421 307 
C 998 307 960 448 960 712 
L 960 2752 
L 474 2752 
L 474 680 
C 474 179 646 -64 1088 -64 
C 1306 -64 1798 -13 2144 307 
L 2144 -13 
L 2618 -13 
L 2618 2752 
z
" transform="scale(0.015625)"/>
       <path id="CMSS17-73" d="M 2061 2623 
C 1683 2803 1389 2816 1197 2816 
C 742 2816 198 2655 198 2009 
C 198 1363 902 1222 1094 1183 
C 1389 1126 1715 1062 1715 742 
C 1715 339 1254 339 1171 339 
C 915 339 563 409 243 639 
L 166 211 
C 531 0 883 -64 1178 -64 
C 1965 -64 2163 416 2163 780 
C 2163 1094 1984 1305 1862 1401 
C 1651 1567 1574 1587 1050 1695 
C 960 1708 646 1779 646 2067 
C 646 2431 1050 2431 1139 2431 
C 1555 2431 1811 2303 1984 2207 
L 2061 2623 
z
" transform="scale(0.015625)"/>
      </defs>
      <use xlink:href="#CMSS17-52" transform="scale(0.996264)"/>
      <use xlink:href="#CMSS17-65" transform="translate(60.416155 0)scale(0.996264)"/>
      <use xlink:href="#CMSS17-61" transform="translate(102.054977 0)scale(0.996264)"/>
      <use xlink:href="#CMSS17-6c" transform="translate(146.976898 0)scale(0.996264)"/>
      <use xlink:href="#CMSS17-76" transform="translate(200.386733 0)scale(0.996264)"/>
      <use xlink:href="#CMSS17-61" transform="translate(243.386875 0)scale(0.996264)"/>
      <use xlink:href="#CMSS17-6c" transform="translate(288.308796 0)scale(0.996264)"/>
      <use xlink:href="#CMSS17-75" transform="translate(310.489519 0)scale(0.996264)"/>
      <use xlink:href="#CMSS17-65" transform="translate(358.694462 0)scale(0.996264)"/>
      <use xlink:href="#CMSS17-73" transform="translate(400.333284 0)scale(0.996264)"/>
     </g>
    </g>
    <g id="line2d_21">
     <path d="M 76.738889 287.223675 
L 86.738889 287.223675 
L 96.738889 287.223675 
" style="fill: none; stroke-dasharray: 5.55,2.4; stroke-dashoffset: 0; stroke: #eea219; stroke-width: 1.5"/>
    </g>
    <g id="text_21">
     <!-- Predicted values -->
     <g transform="translate(104.738889 290.723675)scale(0.1 -0.1)">
      <defs>
       <path id="CMSS17-50" d="M 2106 1856 
C 2874 1856 3501 2447 3501 3139 
C 3501 3818 2899 4416 2067 4416 
L 570 4416 
L 570 0 
L 1107 0 
L 1107 1856 
L 2106 1856 
z
M 1926 4057 
C 2669 4057 2995 3598 2995 3139 
C 2995 2711 2694 2227 1926 2227 
L 1094 2227 
L 1094 4057 
L 1926 4057 
z
" transform="scale(0.015625)"/>
       <path id="CMSS17-64" d="M 2611 4416 
L 2138 4416 
L 2138 2495 
C 1939 2662 1613 2816 1254 2816 
C 672 2816 211 2179 211 1375 
C 211 572 666 -64 1235 -64 
C 1677 -64 1971 172 2125 307 
L 2125 -13 
L 2611 -13 
L 2611 4416 
z
M 2125 851 
C 2125 760 2125 663 1926 488 
C 1798 378 1645 326 1498 326 
C 1152 326 698 585 698 1369 
C 698 2185 1210 2425 1562 2425 
C 1798 2425 1990 2308 2125 2114 
L 2125 851 
z
" transform="scale(0.015625)"/>
       <path id="CMSS17-63" d="M 2464 2540 
C 2464 2585 2170 2713 2093 2739 
C 1882 2816 1613 2816 1542 2816 
C 710 2816 211 2092 211 1363 
C 211 595 768 -64 1517 -64 
C 1946 -64 2253 76 2502 243 
L 2464 665 
C 2189 454 1869 339 1523 339 
C 1024 339 698 774 698 1369 
C 698 1830 909 2412 1549 2412 
C 1901 2412 2099 2342 2394 2143 
L 2464 2540 
z
" transform="scale(0.015625)"/>
      </defs>
      <use xlink:href="#CMSS17-50" transform="scale(0.996264)"/>
      <use xlink:href="#CMSS17-72" transform="translate(59.735586 0)scale(0.996264)"/>
      <use xlink:href="#CMSS17-65" transform="translate(91.645359 0)scale(0.996264)"/>
      <use xlink:href="#CMSS17-64" transform="translate(133.284181 0)scale(0.996264)"/>
      <use xlink:href="#CMSS17-69" transform="translate(181.489124 0)scale(0.996264)"/>
      <use xlink:href="#CMSS17-63" transform="translate(203.669847 0)scale(0.996264)"/>
      <use xlink:href="#CMSS17-74" transform="translate(245.308669 0)scale(0.996264)"/>
      <use xlink:href="#CMSS17-65" transform="translate(279.140236 0)scale(0.996264)"/>
      <use xlink:href="#CMSS17-64" transform="translate(320.779058 0)scale(0.996264)"/>
      <use xlink:href="#CMSS17-76" transform="translate(400.213114 0)scale(0.996264)"/>
      <use xlink:href="#CMSS17-61" transform="translate(443.213255 0)scale(0.996264)"/>
      <use xlink:href="#CMSS17-6c" transform="translate(488.135176 0)scale(0.996264)"/>
      <use xlink:href="#CMSS17-75" transform="translate(510.315899 0)scale(0.996264)"/>
      <use xlink:href="#CMSS17-65" transform="translate(558.520842 0)scale(0.996264)"/>
      <use xlink:href="#CMSS17-73" transform="translate(600.159664 0)scale(0.996264)"/>
     </g>
    </g>
   </g>
  </g>
 </g>
 <defs>
  <clipPath id="p5e48033646">
   <rect x="67.738889" y="13.39568" width="382.261111" height="288.265174"/>
  </clipPath>
 </defs>
</svg>
