<?xml version="1.0" encoding="utf-8" standalone="no"?>
<!DOCTYPE svg PUBLIC "-//W3C//DTD SVG 1.1//EN"
  "http://www.w3.org/Graphics/SVG/1.1/DTD/svg11.dtd">
<svg xmlns:xlink="http://www.w3.org/1999/xlink" width="460.8pt" height="345.6pt" viewBox="0 0 460.8 345.6" xmlns="http://www.w3.org/2000/svg" version="1.1">
 <metadata>
  <rdf:RDF xmlns:dc="http://purl.org/dc/elements/1.1/" xmlns:cc="http://creativecommons.org/ns#" xmlns:rdf="http://www.w3.org/1999/02/22-rdf-syntax-ns#">
   <cc:Work>
    <dc:type rdf:resource="http://purl.org/dc/dcmitype/StillImage"/>
    <dc:date>2023-03-09T14:04:40.617137</dc:date>
    <dc:format>image/svg+xml</dc:format>
    <dc:creator>
     <cc:Agent>
      <dc:title>Matplotlib v3.5.3, https://matplotlib.org/</dc:title>
     </cc:Agent>
    </dc:creator>
   </cc:Work>
  </rdf:RDF>
 </metadata>
 <defs>
  <style type="text/css">*{stroke-linejoin: round; stroke-linecap: butt}</style>
 </defs>
 <g id="figure_1">
  <g id="patch_1">
   <path d="M 0 345.6 
L 460.8 345.6 
L 460.8 0 
L 0 0 
z
" style="fill: #ffffff"/>
  </g>
  <g id="axes_1">
   <g id="patch_2">
    <path d="M 50.45542 318.944323 
L 450 318.944323 
L 450 14.015286 
L 50.45542 14.015286 
z
" style="fill: #ffffff"/>
   </g>
   <g id="matplotlib.axis_1">
    <g id="xtick_1">
     <g id="line2d_1">
      <defs>
       <path id="mb3e96d7e43" d="M 0 0 
L 0 3.5 
" style="stroke: #000000; stroke-width: 0.8"/>
      </defs>
      <g>
       <use xlink:href="#mb3e96d7e43" x="68.616537" y="318.944323" style="stroke: #000000; stroke-width: 0.8"/>
      </g>
     </g>
     <g id="text_1">
      <!-- $\mathdefault{0}$ -->
      <g transform="translate(66.12587 332.862822)scale(0.1 -0.1)">
       <defs>
        <path id="CMR17-30" d="M 2688 2038 
C 2688 2430 2682 3099 2413 3613 
C 2176 4063 1798 4224 1466 4224 
C 1158 4224 768 4082 525 3620 
C 269 3137 243 2539 243 2038 
C 243 1671 250 1112 448 623 
C 723 -39 1216 -128 1466 -128 
C 1760 -128 2208 -7 2470 604 
C 2662 1048 2688 1568 2688 2038 
z
M 1466 -26 
C 1056 -26 813 328 723 816 
C 653 1196 653 1749 653 2109 
C 653 2604 653 3015 736 3407 
C 858 3954 1216 4121 1466 4121 
C 1728 4121 2067 3947 2189 3420 
C 2272 3054 2278 2623 2278 2109 
C 2278 1691 2278 1176 2202 797 
C 2067 96 1690 -26 1466 -26 
z
" transform="scale(0.015625)"/>
       </defs>
       <use xlink:href="#CMR17-30" transform="scale(0.996264)"/>
      </g>
     </g>
    </g>
    <g id="xtick_2">
     <g id="line2d_2">
      <g>
       <use xlink:href="#mb3e96d7e43" x="114.133122" y="318.944323" style="stroke: #000000; stroke-width: 0.8"/>
      </g>
     </g>
     <g id="text_2">
      <!-- $\mathdefault{50}$ -->
      <g transform="translate(109.151787 332.862822)scale(0.1 -0.1)">
       <defs>
        <path id="CMR17-35" d="M 730 3750 
C 794 3724 1056 3641 1325 3641 
C 1920 3641 2246 3961 2432 4140 
C 2432 4191 2432 4224 2394 4224 
C 2387 4224 2374 4224 2323 4198 
C 2099 4102 1837 4032 1517 4032 
C 1325 4032 1037 4055 723 4191 
C 653 4224 640 4224 634 4224 
C 602 4224 595 4217 595 4090 
L 595 2231 
C 595 2113 595 2080 659 2080 
C 691 2080 704 2093 736 2139 
C 941 2435 1222 2560 1542 2560 
C 1766 2560 2246 2415 2246 1293 
C 2246 1087 2246 716 2054 422 
C 1894 159 1645 25 1370 25 
C 947 25 518 319 403 812 
C 429 806 480 793 506 793 
C 589 793 749 838 749 1036 
C 749 1209 627 1280 506 1280 
C 358 1280 262 1190 262 1011 
C 262 454 704 -128 1382 -128 
C 2042 -128 2669 441 2669 1267 
C 2669 2054 2170 2662 1549 2662 
C 1222 2662 947 2540 730 2304 
L 730 3750 
z
" transform="scale(0.015625)"/>
       </defs>
       <use xlink:href="#CMR17-35" transform="scale(0.996264)"/>
       <use xlink:href="#CMR17-30" transform="translate(45.690477 0)scale(0.996264)"/>
      </g>
     </g>
    </g>
    <g id="xtick_3">
     <g id="line2d_3">
      <g>
       <use xlink:href="#mb3e96d7e43" x="159.649707" y="318.944323" style="stroke: #000000; stroke-width: 0.8"/>
      </g>
     </g>
     <g id="text_3">
      <!-- $\mathdefault{100}$ -->
      <g transform="translate(152.177704 332.862822)scale(0.1 -0.1)">
       <defs>
        <path id="CMR17-31" d="M 1702 4083 
C 1702 4217 1696 4224 1606 4224 
C 1357 3927 979 3833 621 3820 
C 602 3820 570 3820 563 3808 
C 557 3795 557 3782 557 3648 
C 755 3648 1088 3686 1344 3839 
L 1344 467 
C 1344 243 1331 166 781 166 
L 589 166 
L 589 0 
C 896 6 1216 12 1523 12 
C 1830 12 2150 6 2458 0 
L 2458 166 
L 2266 166 
C 1715 166 1702 236 1702 467 
L 1702 4083 
z
" transform="scale(0.015625)"/>
       </defs>
       <use xlink:href="#CMR17-31" transform="scale(0.996264)"/>
       <use xlink:href="#CMR17-30" transform="translate(45.690477 0)scale(0.996264)"/>
       <use xlink:href="#CMR17-30" transform="translate(91.380954 0)scale(0.996264)"/>
      </g>
     </g>
    </g>
    <g id="xtick_4">
     <g id="line2d_4">
      <g>
       <use xlink:href="#mb3e96d7e43" x="205.166291" y="318.944323" style="stroke: #000000; stroke-width: 0.8"/>
      </g>
     </g>
     <g id="text_4">
      <!-- $\mathdefault{150}$ -->
      <g transform="translate(197.694288 332.862822)scale(0.1 -0.1)">
       <use xlink:href="#CMR17-31" transform="scale(0.996264)"/>
       <use xlink:href="#CMR17-35" transform="translate(45.690477 0)scale(0.996264)"/>
       <use xlink:href="#CMR17-30" transform="translate(91.380954 0)scale(0.996264)"/>
      </g>
     </g>
    </g>
    <g id="xtick_5">
     <g id="line2d_5">
      <g>
       <use xlink:href="#mb3e96d7e43" x="250.682876" y="318.944323" style="stroke: #000000; stroke-width: 0.8"/>
      </g>
     </g>
     <g id="text_5">
      <!-- $\mathdefault{200}$ -->
      <g transform="translate(243.210873 332.862822)scale(0.1 -0.1)">
       <defs>
        <path id="CMR17-32" d="M 2669 990 
L 2554 990 
C 2490 537 2438 460 2413 422 
C 2381 371 1920 371 1830 371 
L 602 371 
C 832 620 1280 1073 1824 1596 
C 2214 1966 2669 2400 2669 3033 
C 2669 3788 2067 4224 1395 4224 
C 691 4224 262 3603 262 3027 
C 262 2777 448 2745 525 2745 
C 589 2745 781 2783 781 3007 
C 781 3206 614 3264 525 3264 
C 486 3264 448 3257 422 3244 
C 544 3788 915 4057 1306 4057 
C 1862 4057 2227 3616 2227 3033 
C 2227 2477 1901 1998 1536 1583 
L 262 147 
L 262 0 
L 2515 0 
L 2669 990 
z
" transform="scale(0.015625)"/>
       </defs>
       <use xlink:href="#CMR17-32" transform="scale(0.996264)"/>
       <use xlink:href="#CMR17-30" transform="translate(45.690477 0)scale(0.996264)"/>
       <use xlink:href="#CMR17-30" transform="translate(91.380954 0)scale(0.996264)"/>
      </g>
     </g>
    </g>
    <g id="xtick_6">
     <g id="line2d_6">
      <g>
       <use xlink:href="#mb3e96d7e43" x="296.19946" y="318.944323" style="stroke: #000000; stroke-width: 0.8"/>
      </g>
     </g>
     <g id="text_6">
      <!-- $\mathdefault{250}$ -->
      <g transform="translate(288.727458 332.862822)scale(0.1 -0.1)">
       <use xlink:href="#CMR17-32" transform="scale(0.996264)"/>
       <use xlink:href="#CMR17-35" transform="translate(45.690477 0)scale(0.996264)"/>
       <use xlink:href="#CMR17-30" transform="translate(91.380954 0)scale(0.996264)"/>
      </g>
     </g>
    </g>
    <g id="xtick_7">
     <g id="line2d_7">
      <g>
       <use xlink:href="#mb3e96d7e43" x="341.716045" y="318.944323" style="stroke: #000000; stroke-width: 0.8"/>
      </g>
     </g>
     <g id="text_7">
      <!-- $\mathdefault{300}$ -->
      <g transform="translate(334.244042 332.862822)scale(0.1 -0.1)">
       <defs>
        <path id="CMR17-33" d="M 1414 2176 
C 1984 2176 2234 1673 2234 1094 
C 2234 322 1824 25 1453 25 
C 1114 25 563 193 390 691 
C 422 678 454 678 486 678 
C 640 678 755 780 755 947 
C 755 1132 614 1216 486 1216 
C 378 1216 211 1164 211 927 
C 211 335 787 -128 1466 -128 
C 2176 -128 2720 432 2720 1087 
C 2720 1718 2208 2176 1600 2246 
C 2086 2347 2554 2776 2554 3353 
C 2554 3856 2048 4224 1472 4224 
C 890 4224 378 3862 378 3347 
C 378 3123 544 3084 627 3084 
C 762 3084 877 3167 877 3334 
C 877 3500 762 3584 627 3584 
C 602 3584 570 3584 544 3571 
C 730 3999 1235 4076 1459 4076 
C 1683 4076 2106 3966 2106 3347 
C 2106 3167 2080 2851 1862 2574 
C 1670 2329 1453 2316 1242 2297 
C 1210 2297 1062 2284 1037 2284 
C 992 2278 966 2272 966 2227 
C 966 2182 973 2176 1101 2176 
L 1414 2176 
z
" transform="scale(0.015625)"/>
       </defs>
       <use xlink:href="#CMR17-33" transform="scale(0.996264)"/>
       <use xlink:href="#CMR17-30" transform="translate(45.690477 0)scale(0.996264)"/>
       <use xlink:href="#CMR17-30" transform="translate(91.380954 0)scale(0.996264)"/>
      </g>
     </g>
    </g>
    <g id="xtick_8">
     <g id="line2d_8">
      <g>
       <use xlink:href="#mb3e96d7e43" x="387.23263" y="318.944323" style="stroke: #000000; stroke-width: 0.8"/>
      </g>
     </g>
     <g id="text_8">
      <!-- $\mathdefault{350}$ -->
      <g transform="translate(379.760627 332.862822)scale(0.1 -0.1)">
       <use xlink:href="#CMR17-33" transform="scale(0.996264)"/>
       <use xlink:href="#CMR17-35" transform="translate(45.690477 0)scale(0.996264)"/>
       <use xlink:href="#CMR17-30" transform="translate(91.380954 0)scale(0.996264)"/>
      </g>
     </g>
    </g>
    <g id="xtick_9">
     <g id="line2d_9">
      <g>
       <use xlink:href="#mb3e96d7e43" x="432.749214" y="318.944323" style="stroke: #000000; stroke-width: 0.8"/>
      </g>
     </g>
     <g id="text_9">
      <!-- $\mathdefault{400}$ -->
      <g transform="translate(425.277212 332.862822)scale(0.1 -0.1)">
       <defs>
        <path id="CMR17-34" d="M 2150 4147 
C 2150 4281 2144 4288 2029 4288 
L 128 1254 
L 128 1088 
L 1779 1088 
L 1779 460 
C 1779 230 1766 166 1318 166 
L 1197 166 
L 1197 0 
C 1402 12 1747 12 1965 12 
C 2182 12 2528 12 2733 0 
L 2733 166 
L 2611 166 
C 2163 166 2150 230 2150 460 
L 2150 1088 
L 2803 1088 
L 2803 1254 
L 2150 1254 
L 2150 4147 
z
M 1798 3723 
L 1798 1254 
L 256 1254 
L 1798 3723 
z
" transform="scale(0.015625)"/>
       </defs>
       <use xlink:href="#CMR17-34" transform="scale(0.996264)"/>
       <use xlink:href="#CMR17-30" transform="translate(45.690477 0)scale(0.996264)"/>
       <use xlink:href="#CMR17-30" transform="translate(91.380954 0)scale(0.996264)"/>
      </g>
     </g>
    </g>
   </g>
   <g id="matplotlib.axis_2">
    <g id="ytick_1">
     <g id="line2d_10">
      <defs>
       <path id="md0358d1495" d="M 0 0 
L -3.5 0 
" style="stroke: #000000; stroke-width: 0.8"/>
      </defs>
      <g>
       <use xlink:href="#md0358d1495" x="50.45542" y="284.471597" style="stroke: #000000; stroke-width: 0.8"/>
      </g>
     </g>
     <g id="text_10">
      <!-- $\mathdefault{0.00050}$ -->
      <g transform="translate(10.8 287.930846)scale(0.1 -0.1)">
       <defs>
        <path id="CMMI12-3a" d="M 1178 307 
C 1178 492 1024 620 870 620 
C 685 620 557 467 557 313 
C 557 128 710 0 864 0 
C 1050 0 1178 153 1178 307 
z
" transform="scale(0.015625)"/>
       </defs>
       <use xlink:href="#CMR17-30" transform="scale(0.996264)"/>
       <use xlink:href="#CMMI12-3a" transform="translate(45.690477 0)scale(0.996264)"/>
       <use xlink:href="#CMR17-30" transform="translate(72.787654 0)scale(0.996264)"/>
       <use xlink:href="#CMR17-30" transform="translate(118.478131 0)scale(0.996264)"/>
       <use xlink:href="#CMR17-30" transform="translate(164.168608 0)scale(0.996264)"/>
       <use xlink:href="#CMR17-35" transform="translate(209.859086 0)scale(0.996264)"/>
       <use xlink:href="#CMR17-30" transform="translate(255.549563 0)scale(0.996264)"/>
      </g>
     </g>
    </g>
    <g id="ytick_2">
     <g id="line2d_11">
      <g>
       <use xlink:href="#md0358d1495" x="50.45542" y="245.874916" style="stroke: #000000; stroke-width: 0.8"/>
      </g>
     </g>
     <g id="text_11">
      <!-- $\mathdefault{0.00075}$ -->
      <g transform="translate(10.8 249.334166)scale(0.1 -0.1)">
       <defs>
        <path id="CMR17-37" d="M 2886 3955 
L 2886 4096 
L 1382 4096 
C 634 4096 621 4166 595 4288 
L 480 4288 
L 294 3104 
L 410 3104 
C 429 3226 474 3552 550 3673 
C 589 3724 1062 3724 1171 3724 
L 2579 3724 
L 1869 2670 
C 1395 1961 1069 1003 1069 166 
C 1069 89 1069 -128 1299 -128 
C 1530 -128 1530 89 1530 172 
L 1530 466 
C 1530 1514 1709 2204 2003 2644 
L 2886 3955 
z
" transform="scale(0.015625)"/>
       </defs>
       <use xlink:href="#CMR17-30" transform="scale(0.996264)"/>
       <use xlink:href="#CMMI12-3a" transform="translate(45.690477 0)scale(0.996264)"/>
       <use xlink:href="#CMR17-30" transform="translate(72.787654 0)scale(0.996264)"/>
       <use xlink:href="#CMR17-30" transform="translate(118.478131 0)scale(0.996264)"/>
       <use xlink:href="#CMR17-30" transform="translate(164.168608 0)scale(0.996264)"/>
       <use xlink:href="#CMR17-37" transform="translate(209.859086 0)scale(0.996264)"/>
       <use xlink:href="#CMR17-35" transform="translate(255.549563 0)scale(0.996264)"/>
      </g>
     </g>
    </g>
    <g id="ytick_3">
     <g id="line2d_12">
      <g>
       <use xlink:href="#md0358d1495" x="50.45542" y="207.278236" style="stroke: #000000; stroke-width: 0.8"/>
      </g>
     </g>
     <g id="text_12">
      <!-- $\mathdefault{0.00100}$ -->
      <g transform="translate(10.8 210.737485)scale(0.1 -0.1)">
       <use xlink:href="#CMR17-30" transform="scale(0.996264)"/>
       <use xlink:href="#CMMI12-3a" transform="translate(45.690477 0)scale(0.996264)"/>
       <use xlink:href="#CMR17-30" transform="translate(72.787654 0)scale(0.996264)"/>
       <use xlink:href="#CMR17-30" transform="translate(118.478131 0)scale(0.996264)"/>
       <use xlink:href="#CMR17-31" transform="translate(164.168608 0)scale(0.996264)"/>
       <use xlink:href="#CMR17-30" transform="translate(209.859086 0)scale(0.996264)"/>
       <use xlink:href="#CMR17-30" transform="translate(255.549563 0)scale(0.996264)"/>
      </g>
     </g>
    </g>
    <g id="ytick_4">
     <g id="line2d_13">
      <g>
       <use xlink:href="#md0358d1495" x="50.45542" y="168.681556" style="stroke: #000000; stroke-width: 0.8"/>
      </g>
     </g>
     <g id="text_13">
      <!-- $\mathdefault{0.00125}$ -->
      <g transform="translate(10.8 172.140805)scale(0.1 -0.1)">
       <use xlink:href="#CMR17-30" transform="scale(0.996264)"/>
       <use xlink:href="#CMMI12-3a" transform="translate(45.690477 0)scale(0.996264)"/>
       <use xlink:href="#CMR17-30" transform="translate(72.787654 0)scale(0.996264)"/>
       <use xlink:href="#CMR17-30" transform="translate(118.478131 0)scale(0.996264)"/>
       <use xlink:href="#CMR17-31" transform="translate(164.168608 0)scale(0.996264)"/>
       <use xlink:href="#CMR17-32" transform="translate(209.859086 0)scale(0.996264)"/>
       <use xlink:href="#CMR17-35" transform="translate(255.549563 0)scale(0.996264)"/>
      </g>
     </g>
    </g>
    <g id="ytick_5">
     <g id="line2d_14">
      <g>
       <use xlink:href="#md0358d1495" x="50.45542" y="130.084876" style="stroke: #000000; stroke-width: 0.8"/>
      </g>
     </g>
     <g id="text_14">
      <!-- $\mathdefault{0.00150}$ -->
      <g transform="translate(10.8 133.544125)scale(0.1 -0.1)">
       <use xlink:href="#CMR17-30" transform="scale(0.996264)"/>
       <use xlink:href="#CMMI12-3a" transform="translate(45.690477 0)scale(0.996264)"/>
       <use xlink:href="#CMR17-30" transform="translate(72.787654 0)scale(0.996264)"/>
       <use xlink:href="#CMR17-30" transform="translate(118.478131 0)scale(0.996264)"/>
       <use xlink:href="#CMR17-31" transform="translate(164.168608 0)scale(0.996264)"/>
       <use xlink:href="#CMR17-35" transform="translate(209.859086 0)scale(0.996264)"/>
       <use xlink:href="#CMR17-30" transform="translate(255.549563 0)scale(0.996264)"/>
      </g>
     </g>
    </g>
    <g id="ytick_6">
     <g id="line2d_15">
      <g>
       <use xlink:href="#md0358d1495" x="50.45542" y="91.488196" style="stroke: #000000; stroke-width: 0.8"/>
      </g>
     </g>
     <g id="text_15">
      <!-- $\mathdefault{0.00175}$ -->
      <g transform="translate(10.8 94.947445)scale(0.1 -0.1)">
       <use xlink:href="#CMR17-30" transform="scale(0.996264)"/>
       <use xlink:href="#CMMI12-3a" transform="translate(45.690477 0)scale(0.996264)"/>
       <use xlink:href="#CMR17-30" transform="translate(72.787654 0)scale(0.996264)"/>
       <use xlink:href="#CMR17-30" transform="translate(118.478131 0)scale(0.996264)"/>
       <use xlink:href="#CMR17-31" transform="translate(164.168608 0)scale(0.996264)"/>
       <use xlink:href="#CMR17-37" transform="translate(209.859086 0)scale(0.996264)"/>
       <use xlink:href="#CMR17-35" transform="translate(255.549563 0)scale(0.996264)"/>
      </g>
     </g>
    </g>
    <g id="ytick_7">
     <g id="line2d_16">
      <g>
       <use xlink:href="#md0358d1495" x="50.45542" y="52.891516" style="stroke: #000000; stroke-width: 0.8"/>
      </g>
     </g>
     <g id="text_16">
      <!-- $\mathdefault{0.00200}$ -->
      <g transform="translate(10.8 56.350765)scale(0.1 -0.1)">
       <use xlink:href="#CMR17-30" transform="scale(0.996264)"/>
       <use xlink:href="#CMMI12-3a" transform="translate(45.690477 0)scale(0.996264)"/>
       <use xlink:href="#CMR17-30" transform="translate(72.787654 0)scale(0.996264)"/>
       <use xlink:href="#CMR17-30" transform="translate(118.478131 0)scale(0.996264)"/>
       <use xlink:href="#CMR17-32" transform="translate(164.168608 0)scale(0.996264)"/>
       <use xlink:href="#CMR17-30" transform="translate(209.859086 0)scale(0.996264)"/>
       <use xlink:href="#CMR17-30" transform="translate(255.549563 0)scale(0.996264)"/>
      </g>
     </g>
    </g>
    <g id="ytick_8">
     <g id="line2d_17">
      <g>
       <use xlink:href="#md0358d1495" x="50.45542" y="14.294835" style="stroke: #000000; stroke-width: 0.8"/>
      </g>
     </g>
     <g id="text_17">
      <!-- $\mathdefault{0.00225}$ -->
      <g transform="translate(10.8 17.754085)scale(0.1 -0.1)">
       <use xlink:href="#CMR17-30" transform="scale(0.996264)"/>
       <use xlink:href="#CMMI12-3a" transform="translate(45.690477 0)scale(0.996264)"/>
       <use xlink:href="#CMR17-30" transform="translate(72.787654 0)scale(0.996264)"/>
       <use xlink:href="#CMR17-30" transform="translate(118.478131 0)scale(0.996264)"/>
       <use xlink:href="#CMR17-32" transform="translate(164.168608 0)scale(0.996264)"/>
       <use xlink:href="#CMR17-32" transform="translate(209.859086 0)scale(0.996264)"/>
       <use xlink:href="#CMR17-35" transform="translate(255.549563 0)scale(0.996264)"/>
      </g>
     </g>
    </g>
   </g>
   <g id="line2d_18">
    <path d="M 68.616537 279.070165 
L 69.526869 283.242691 
L 70.437201 71.576343 
L 71.347532 264.109167 
L 73.168196 275.140425 
L 74.078527 117.73599 
L 74.988859 91.570829 
L 75.899191 271.981072 
L 76.809522 277.453935 
L 77.719854 299.425371 
L 78.630186 265.629508 
L 79.540518 287.342304 
L 80.450849 141.229081 
L 81.361181 294.238573 
L 82.271513 271.680343 
L 83.181844 124.63186 
L 84.092176 166.515447 
L 85.002508 270.602367 
L 85.912839 280.683804 
L 86.823171 271.839456 
L 87.733503 277.826938 
L 88.643835 104.290314 
L 89.554166 294.249115 
L 90.464498 161.538064 
L 91.37483 294.805912 
L 92.285161 290.414861 
L 93.195493 115.947357 
L 94.105825 163.58537 
L 95.016156 82.177389 
L 95.926488 72.732148 
L 96.83682 265.094635 
L 97.747151 95.489703 
L 98.657483 285.580805 
L 99.567815 108.442701 
L 100.478147 266.737659 
L 101.388478 269.054433 
L 102.29881 292.778785 
L 103.209142 280.903502 
L 104.119473 282.930745 
L 105.029805 264.980427 
L 105.940137 262.339358 
L 106.850468 278.312695 
L 107.7608 94.828837 
L 108.671132 293.655698 
L 109.581463 59.005398 
L 110.491795 283.986745 
L 111.402127 268.570095 
L 112.312459 85.855802 
L 113.22279 57.460501 
L 114.133122 281.812175 
L 115.043454 34.196135 
L 115.953785 35.132531 
L 116.864117 263.55747 
L 117.774449 285.480012 
L 118.68478 104.160047 
L 119.595112 275.52208 
L 120.505444 160.382295 
L 121.415775 65.925594 
L 122.326107 285.95127 
L 123.236439 75.289895 
L 124.146771 118.886341 
L 125.057102 291.064961 
L 125.967434 280.534391 
L 126.877766 273.67856 
L 127.788097 96.234937 
L 128.698429 99.390245 
L 129.608761 88.278669 
L 130.519092 81.759506 
L 131.429424 286.223914 
L 132.339756 147.065182 
L 133.250087 280.925924 
L 134.160419 279.37035 
L 135.070751 95.964097 
L 135.981083 270.451167 
L 136.891414 116.955783 
L 137.801746 278.009529 
L 138.712078 277.208756 
L 139.622409 283.799433 
L 140.532741 272.552622 
L 141.443073 94.13444 
L 142.353404 109.964338 
L 143.263736 277.577747 
L 144.174068 262.290275 
L 145.084399 271.942247 
L 145.994731 143.096688 
L 146.905063 271.369424 
L 147.815395 276.293719 
L 148.725726 287.195556 
L 149.636058 267.488234 
L 150.54639 129.810724 
L 151.456721 287.126251 
L 152.367053 281.81989 
L 153.277385 86.450217 
L 154.187716 285.467277 
L 155.098048 113.753176 
L 156.00838 268.004089 
L 156.918711 284.322048 
L 157.829043 43.077483 
L 158.739375 276.168049 
L 159.649707 274.343719 
L 160.560038 50.647665 
L 161.47037 263.296946 
L 162.380702 86.624429 
L 163.291033 274.33317 
L 164.201365 92.462013 
L 165.111697 277.039491 
L 166.022028 103.526688 
L 166.93236 128.562586 
L 167.842692 97.229045 
L 168.753023 109.517816 
L 169.663355 112.85495 
L 170.573687 157.927169 
L 171.484019 96.296933 
L 172.39435 272.586697 
L 173.304682 126.592311 
L 174.215014 295.324453 
L 175.125345 72.112674 
L 176.035677 46.057599 
L 176.946009 117.509559 
L 177.85634 167.979435 
L 178.766672 272.252123 
L 179.677004 141.092092 
L 180.587335 279.886601 
L 181.497667 61.431456 
L 182.407999 287.318454 
L 183.318331 107.83764 
L 184.228662 277.405758 
L 185.138994 275.861808 
L 186.049326 264.841791 
L 186.959657 281.407894 
L 187.869989 119.749142 
L 188.780321 283.513945 
L 189.690652 280.367642 
L 190.600984 157.635353 
L 191.511316 267.218428 
L 192.421647 276.177814 
L 193.331979 33.956731 
L 194.242311 305.083912 
L 195.152643 267.703831 
L 196.062974 56.52984 
L 196.973306 275.104673 
L 197.883638 283.259603 
L 198.793969 278.252673 
L 199.704301 270.311751 
L 200.614633 93.733641 
L 201.524964 287.750628 
L 202.435296 273.287514 
L 203.345628 78.84371 
L 204.255959 276.815938 
L 205.166291 136.372232 
L 206.076623 274.81942 
L 206.986955 63.278763 
L 207.897286 273.1861 
L 208.807618 280.303804 
L 209.71795 97.710502 
L 210.628281 292.679028 
L 211.538613 281.553778 
L 212.448945 99.337252 
L 213.359276 120.758438 
L 214.269608 96.74036 
L 215.17994 86.937204 
L 216.090272 96.757874 
L 217.000603 269.569664 
L 217.910935 270.814328 
L 218.821267 295.1863 
L 219.731598 264.508176 
L 220.64193 161.327114 
L 221.552262 274.843408 
L 222.462593 105.462358 
L 223.372925 154.59437 
L 224.283257 103.699251 
L 225.193588 82.618466 
L 226.10392 121.174327 
L 227.014252 90.619737 
L 227.924584 287.323361 
L 228.834915 295.656313 
L 229.745247 298.743375 
L 230.655579 102.480279 
L 231.56591 127.280294 
L 232.476242 265.709477 
L 233.386574 96.937595 
L 234.296905 170.350001 
L 235.207237 267.646962 
L 236.117569 268.388027 
L 237.0279 154.801522 
L 237.938232 271.830413 
L 238.848564 280.495367 
L 239.758896 278.694789 
L 240.669227 284.102562 
L 241.579559 291.597827 
L 242.489891 118.067613 
L 243.400222 189.888025 
L 244.310554 118.214027 
L 245.220886 294.555851 
L 246.131217 38.955131 
L 247.041549 46.338733 
L 247.951881 112.120712 
L 248.862212 262.836283 
L 249.772544 94.577097 
L 250.682876 290.927575 
L 251.593208 79.464664 
L 252.503539 278.867573 
L 253.413871 150.75777 
L 254.324203 74.272688 
L 255.234534 264.056824 
L 256.144866 281.411386 
L 257.055198 286.804168 
L 257.965529 109.329711 
L 258.875861 104.482296 
L 259.786193 267.188831 
L 260.696524 100.67597 
L 261.606856 86.828991 
L 262.517188 147.093523 
L 263.42752 75.536241 
L 264.337851 291.126988 
L 265.248183 127.896936 
L 266.158515 118.24679 
L 267.068846 156.149742 
L 267.979178 270.544829 
L 268.88951 67.866825 
L 269.799841 120.606637 
L 270.710173 115.829662 
L 271.620505 87.729107 
L 272.530836 275.631276 
L 273.441168 276.59433 
L 274.3515 37.306574 
L 275.261832 118.844959 
L 276.172163 276.97278 
L 277.082495 102.651046 
L 277.992827 271.43316 
L 278.903158 271.460404 
L 279.81349 126.909933 
L 280.723822 276.331349 
L 281.634153 263.308775 
L 282.544485 263.115854 
L 283.454817 270.877901 
L 284.365148 271.11246 
L 285.27548 76.95377 
L 286.185812 271.762238 
L 287.096144 95.381962 
L 288.006475 273.32039 
L 288.916807 267.602195 
L 289.827139 128.892748 
L 290.73747 131.071007 
L 291.647802 281.05177 
L 292.558134 68.349861 
L 293.468465 285.743163 
L 294.378797 264.15348 
L 295.289129 283.008162 
L 296.19946 42.304598 
L 297.109792 296.170601 
L 298.020124 123.009017 
L 298.930456 279.187373 
L 299.840787 111.71908 
L 300.751119 110.596877 
L 301.661451 124.298091 
L 302.571782 277.192595 
L 303.482114 148.589361 
L 304.392446 115.545982 
L 305.302777 282.103448 
L 306.213109 58.230475 
L 307.123441 149.000637 
L 308.033772 296.879919 
L 308.944104 111.702227 
L 309.854436 260.073156 
L 310.764768 85.898219 
L 311.675099 71.768697 
L 312.585431 51.282377 
L 313.495763 113.234138 
L 314.406094 70.642511 
L 315.316426 72.600604 
L 316.226758 262.508125 
L 317.137089 281.655598 
L 318.047421 279.226569 
L 318.957753 62.795691 
L 319.868084 263.367997 
L 320.778416 140.228226 
L 321.688748 102.671278 
L 322.59908 271.269703 
L 323.509411 97.291387 
L 324.419743 123.621905 
L 325.330075 64.090881 
L 326.240406 185.435592 
L 327.150738 114.428656 
L 328.06107 56.738442 
L 328.971401 290.818332 
L 329.881733 264.486895 
L 330.792065 263.982079 
L 331.702397 276.580755 
L 332.612728 279.140958 
L 333.52306 268.299166 
L 334.433392 176.456465 
L 335.343723 290.508351 
L 336.254055 282.047063 
L 337.164387 27.875697 
L 338.074718 83.973979 
L 338.98505 265.12572 
L 339.895382 283.290345 
L 340.805713 131.734505 
L 341.716045 111.936068 
L 342.626377 137.020471 
L 343.536709 282.647929 
L 344.44704 131.620379 
L 345.357372 186.986206 
L 346.267704 93.641012 
L 347.178035 80.954038 
L 348.088367 148.332463 
L 348.998699 154.76514 
L 349.90903 277.749693 
L 350.819362 263.401931 
L 351.729694 86.327878 
L 352.640025 269.248147 
L 353.550357 152.288497 
L 354.460689 272.167023 
L 355.371021 146.011581 
L 356.281352 100.785314 
L 357.191684 166.923274 
L 358.102016 57.329407 
L 359.012347 264.603031 
L 359.922679 286.729532 
L 360.833011 107.681946 
L 361.743342 71.441777 
L 362.653674 273.820289 
L 363.564006 280.536631 
L 364.474337 258.929571 
L 365.384669 173.472481 
L 366.295001 62.108175 
L 367.205333 180.594804 
L 368.115664 122.671138 
L 369.025996 282.328868 
L 369.936328 297.356075 
L 370.846659 46.329186 
L 371.756991 101.26047 
L 372.667323 138.099587 
L 373.577654 260.516752 
L 374.487986 276.953794 
L 375.398318 85.19113 
L 376.308649 123.548468 
L 377.218981 277.200728 
L 378.129313 278.494055 
L 379.039645 264.915666 
L 379.949976 133.199688 
L 380.860308 165.837498 
L 381.77064 289.735383 
L 382.680971 272.757328 
L 383.591303 158.810007 
L 384.501635 69.226571 
L 385.411966 276.0687 
L 386.322298 266.70315 
L 387.23263 131.913277 
L 388.142961 56.36639 
L 389.053293 132.10611 
L 389.963625 290.345092 
L 390.873957 282.910664 
L 391.784288 77.874339 
L 392.69462 273.993412 
L 393.604952 126.277492 
L 394.515283 266.504613 
L 395.425615 145.318773 
L 396.335947 267.340788 
L 397.246278 133.624074 
L 398.15661 263.116498 
L 399.066942 282.366305 
L 399.977273 272.299069 
L 400.887605 139.015241 
L 401.797937 101.378859 
L 402.708269 92.77166 
L 403.6186 156.050189 
L 404.528932 82.244993 
L 405.439264 274.342535 
L 406.349595 285.176475 
L 407.259927 172.19884 
L 408.170259 269.712902 
L 409.08059 282.254673 
L 409.990922 93.698006 
L 410.901254 287.543808 
L 411.811585 273.419073 
L 412.721917 280.793742 
L 413.632249 111.757718 
L 414.542581 122.146578 
L 415.452912 127.054776 
L 416.363244 129.931655 
L 417.273576 274.775563 
L 418.183907 140.325178 
L 419.094239 81.52545 
L 420.004571 36.839188 
L 420.914902 298.785942 
L 421.825234 69.205919 
L 422.735566 289.838597 
L 423.645897 277.093651 
L 424.556229 72.708264 
L 425.466561 267.800686 
L 426.376893 299.440382 
L 427.287224 123.19247 
L 428.197556 90.050482 
L 429.107888 278.430611 
L 430.018219 124.922464 
L 430.928551 71.77742 
L 431.838883 257.92413 
L 431.838883 257.92413 
" clip-path="url(#p8a4ba9efe6)" style="fill: none; stroke: #3c74ff; stroke-width: 1.5; stroke-linecap: square"/>
   </g>
   <g id="patch_3">
    <path d="M 50.45542 318.944323 
L 50.45542 14.015286 
" style="fill: none; stroke: #000000; stroke-width: 0.8; stroke-linejoin: miter; stroke-linecap: square"/>
   </g>
   <g id="patch_4">
    <path d="M 450 318.944323 
L 450 14.015286 
" style="fill: none; stroke: #000000; stroke-width: 0.8; stroke-linejoin: miter; stroke-linecap: square"/>
   </g>
   <g id="patch_5">
    <path d="M 50.45542 318.944323 
L 450 318.944323 
" style="fill: none; stroke: #000000; stroke-width: 0.8; stroke-linejoin: miter; stroke-linecap: square"/>
   </g>
   <g id="patch_6">
    <path d="M 50.45542 14.015286 
L 450 14.015286 
" style="fill: none; stroke: #000000; stroke-width: 0.8; stroke-linejoin: miter; stroke-linecap: square"/>
   </g>
   <g id="legend_1">
    <g id="patch_7">
     <path d="M 364.49378 35.952464 
L 443 35.952464 
Q 445 35.952464 445 33.952464 
L 445 21.015286 
Q 445 19.015286 443 19.015286 
L 364.49378 19.015286 
Q 362.49378 19.015286 362.49378 21.015286 
L 362.49378 33.952464 
Q 362.49378 35.952464 364.49378 35.952464 
z
" style="fill: #ffffff; opacity: 0.8; stroke: #cccccc; stroke-linejoin: miter"/>
    </g>
    <g id="line2d_19">
     <path d="M 366.49378 26.515286 
L 376.49378 26.515286 
L 386.49378 26.515286 
" style="fill: none; stroke: #3c74ff; stroke-width: 1.5; stroke-linecap: square"/>
    </g>
    <g id="text_18">
     <!-- Real values -->
     <g transform="translate(394.49378 30.015286)scale(0.1 -0.1)">
      <defs>
       <path id="CMSS17-52" d="M 2522 2099 
L 2534 2105 
C 3533 2450 3539 3125 3539 3244 
C 3539 3838 2925 4416 2003 4416 
L 570 4416 
L 570 0 
L 1094 0 
L 1094 2041 
L 2035 2041 
L 3168 0 
L 3706 0 
L 2522 2099 
z
M 1094 2432 
L 1094 4057 
L 1933 4057 
C 2746 4057 3034 3607 3034 3244 
C 3034 2907 2778 2432 1933 2432 
L 1094 2432 
z
" transform="scale(0.015625)"/>
       <path id="CMSS17-65" d="M 2502 1375 
C 2502 1587 2490 2001 2285 2347 
C 2061 2713 1696 2816 1421 2816 
C 755 2816 192 2184 192 1363 
C 192 579 774 -64 1510 -64 
C 1798 -64 2150 19 2470 249 
C 2470 275 2458 414 2451 421 
C 2451 433 2432 629 2432 655 
C 2125 408 1773 326 1517 326 
C 1107 326 666 667 646 1375 
L 2502 1375 
z
M 698 1728 
C 781 2086 1062 2425 1421 2425 
C 1517 2425 1965 2412 2080 1728 
L 698 1728 
z
" transform="scale(0.015625)"/>
       <path id="CMSS17-61" d="M 2406 1789 
C 2406 2399 1978 2816 1402 2816 
C 1120 2816 813 2764 461 2559 
L 499 2133 
C 659 2250 934 2438 1395 2438 
C 1722 2438 1920 2185 1920 1782 
L 1920 1536 
C 896 1504 256 1209 256 711 
C 256 452 416 -64 947 -64 
C 1043 -64 1562 -52 1933 224 
L 1933 -13 
L 2406 -13 
L 2406 1789 
z
M 1920 824 
C 1920 711 1920 559 1728 446 
C 1562 339 1350 326 1261 326 
C 941 326 723 503 723 723 
C 723 1165 1722 1209 1920 1216 
L 1920 824 
z
" transform="scale(0.015625)"/>
       <path id="CMSS17-6c" d="M 947 4416 
L 474 4416 
L 474 0 
L 947 0 
L 947 4416 
z
" transform="scale(0.015625)"/>
       <path id="CMSS17-76" d="M 2675 2752 
L 2176 2752 
L 1747 1555 
C 1613 1164 1421 627 1389 352 
L 1382 352 
C 1370 467 1318 633 1286 748 
C 1248 889 1197 1056 1158 1171 
L 595 2752 
L 83 2752 
L 1094 0 
L 1664 0 
L 2675 2752 
z
" transform="scale(0.015625)"/>
       <path id="CMSS17-75" d="M 2618 2752 
L 2131 2752 
L 2131 976 
C 2131 500 1786 307 1421 307 
C 998 307 960 448 960 712 
L 960 2752 
L 474 2752 
L 474 680 
C 474 179 646 -64 1088 -64 
C 1306 -64 1798 -13 2144 307 
L 2144 -13 
L 2618 -13 
L 2618 2752 
z
" transform="scale(0.015625)"/>
       <path id="CMSS17-73" d="M 2061 2623 
C 1683 2803 1389 2816 1197 2816 
C 742 2816 198 2655 198 2009 
C 198 1363 902 1222 1094 1183 
C 1389 1126 1715 1062 1715 742 
C 1715 339 1254 339 1171 339 
C 915 339 563 409 243 639 
L 166 211 
C 531 0 883 -64 1178 -64 
C 1965 -64 2163 416 2163 780 
C 2163 1094 1984 1305 1862 1401 
C 1651 1567 1574 1587 1050 1695 
C 960 1708 646 1779 646 2067 
C 646 2431 1050 2431 1139 2431 
C 1555 2431 1811 2303 1984 2207 
L 2061 2623 
z
" transform="scale(0.015625)"/>
      </defs>
      <use xlink:href="#CMSS17-52" transform="scale(0.996264)"/>
      <use xlink:href="#CMSS17-65" transform="translate(60.416155 0)scale(0.996264)"/>
      <use xlink:href="#CMSS17-61" transform="translate(102.054977 0)scale(0.996264)"/>
      <use xlink:href="#CMSS17-6c" transform="translate(146.976898 0)scale(0.996264)"/>
      <use xlink:href="#CMSS17-76" transform="translate(200.386733 0)scale(0.996264)"/>
      <use xlink:href="#CMSS17-61" transform="translate(243.386875 0)scale(0.996264)"/>
      <use xlink:href="#CMSS17-6c" transform="translate(288.308796 0)scale(0.996264)"/>
      <use xlink:href="#CMSS17-75" transform="translate(310.489519 0)scale(0.996264)"/>
      <use xlink:href="#CMSS17-65" transform="translate(358.694462 0)scale(0.996264)"/>
      <use xlink:href="#CMSS17-73" transform="translate(400.333284 0)scale(0.996264)"/>
     </g>
    </g>
   </g>
  </g>
 </g>
 <defs>
  <clipPath id="p8a4ba9efe6">
   <rect x="50.45542" y="14.015286" width="399.54458" height="304.929037"/>
  </clipPath>
 </defs>
</svg>
