<?xml version="1.0" encoding="utf-8" standalone="no"?>
<!DOCTYPE svg PUBLIC "-//W3C//DTD SVG 1.1//EN"
  "http://www.w3.org/Graphics/SVG/1.1/DTD/svg11.dtd">
<svg xmlns:xlink="http://www.w3.org/1999/xlink" width="460.8pt" height="345.6pt" viewBox="0 0 460.8 345.6" xmlns="http://www.w3.org/2000/svg" version="1.1">
 <metadata>
  <rdf:RDF xmlns:dc="http://purl.org/dc/elements/1.1/" xmlns:cc="http://creativecommons.org/ns#" xmlns:rdf="http://www.w3.org/1999/02/22-rdf-syntax-ns#">
   <cc:Work>
    <dc:type rdf:resource="http://purl.org/dc/dcmitype/StillImage"/>
    <dc:date>2023-03-15T12:42:33.897672</dc:date>
    <dc:format>image/svg+xml</dc:format>
    <dc:creator>
     <cc:Agent>
      <dc:title>Matplotlib v3.5.3, https://matplotlib.org/</dc:title>
     </cc:Agent>
    </dc:creator>
   </cc:Work>
  </rdf:RDF>
 </metadata>
 <defs>
  <style type="text/css">*{stroke-linejoin: round; stroke-linecap: butt}</style>
 </defs>
 <g id="figure_1">
  <g id="patch_1">
   <path d="M 0 345.6 
L 460.8 345.6 
L 460.8 0 
L 0 0 
z
" style="fill: #ffffff"/>
  </g>
  <g id="axes_1">
   <g id="patch_2">
    <path d="M 62.757554 301.660854 
L 450 301.660854 
L 450 10.8 
L 62.757554 10.8 
z
" style="fill: #ffffff"/>
   </g>
   <g id="matplotlib.axis_1">
    <g id="xtick_1">
     <g id="line2d_1">
      <defs>
       <path id="me4e044d423" d="M 0 0 
L 0 3.5 
" style="stroke: #000000; stroke-width: 0.8"/>
      </defs>
      <g>
       <use xlink:href="#me4e044d423" x="80.359484" y="301.660854" style="stroke: #000000; stroke-width: 0.8"/>
      </g>
     </g>
     <g id="text_1">
      <!-- $\mathdefault{0}$ -->
      <g transform="translate(77.868816 315.579352)scale(0.1 -0.1)">
       <defs>
        <path id="CMR17-30" d="M 2688 2038 
C 2688 2430 2682 3099 2413 3613 
C 2176 4063 1798 4224 1466 4224 
C 1158 4224 768 4082 525 3620 
C 269 3137 243 2539 243 2038 
C 243 1671 250 1112 448 623 
C 723 -39 1216 -128 1466 -128 
C 1760 -128 2208 -7 2470 604 
C 2662 1048 2688 1568 2688 2038 
z
M 1466 -26 
C 1056 -26 813 328 723 816 
C 653 1196 653 1749 653 2109 
C 653 2604 653 3015 736 3407 
C 858 3954 1216 4121 1466 4121 
C 1728 4121 2067 3947 2189 3420 
C 2272 3054 2278 2623 2278 2109 
C 2278 1691 2278 1176 2202 797 
C 2067 96 1690 -26 1466 -26 
z
" transform="scale(0.015625)"/>
       </defs>
       <use xlink:href="#CMR17-30" transform="scale(0.996264)"/>
      </g>
     </g>
    </g>
    <g id="xtick_2">
     <g id="line2d_2">
      <g>
       <use xlink:href="#me4e044d423" x="124.585437" y="301.660854" style="stroke: #000000; stroke-width: 0.8"/>
      </g>
     </g>
     <g id="text_2">
      <!-- $\mathdefault{25}$ -->
      <g transform="translate(119.604101 315.579352)scale(0.1 -0.1)">
       <defs>
        <path id="CMR17-32" d="M 2669 990 
L 2554 990 
C 2490 537 2438 460 2413 422 
C 2381 371 1920 371 1830 371 
L 602 371 
C 832 620 1280 1073 1824 1596 
C 2214 1966 2669 2400 2669 3033 
C 2669 3788 2067 4224 1395 4224 
C 691 4224 262 3603 262 3027 
C 262 2777 448 2745 525 2745 
C 589 2745 781 2783 781 3007 
C 781 3206 614 3264 525 3264 
C 486 3264 448 3257 422 3244 
C 544 3788 915 4057 1306 4057 
C 1862 4057 2227 3616 2227 3033 
C 2227 2477 1901 1998 1536 1583 
L 262 147 
L 262 0 
L 2515 0 
L 2669 990 
z
" transform="scale(0.015625)"/>
        <path id="CMR17-35" d="M 730 3750 
C 794 3724 1056 3641 1325 3641 
C 1920 3641 2246 3961 2432 4140 
C 2432 4191 2432 4224 2394 4224 
C 2387 4224 2374 4224 2323 4198 
C 2099 4102 1837 4032 1517 4032 
C 1325 4032 1037 4055 723 4191 
C 653 4224 640 4224 634 4224 
C 602 4224 595 4217 595 4090 
L 595 2231 
C 595 2113 595 2080 659 2080 
C 691 2080 704 2093 736 2139 
C 941 2435 1222 2560 1542 2560 
C 1766 2560 2246 2415 2246 1293 
C 2246 1087 2246 716 2054 422 
C 1894 159 1645 25 1370 25 
C 947 25 518 319 403 812 
C 429 806 480 793 506 793 
C 589 793 749 838 749 1036 
C 749 1209 627 1280 506 1280 
C 358 1280 262 1190 262 1011 
C 262 454 704 -128 1382 -128 
C 2042 -128 2669 441 2669 1267 
C 2669 2054 2170 2662 1549 2662 
C 1222 2662 947 2540 730 2304 
L 730 3750 
z
" transform="scale(0.015625)"/>
       </defs>
       <use xlink:href="#CMR17-32" transform="scale(0.996264)"/>
       <use xlink:href="#CMR17-35" transform="translate(45.690477 0)scale(0.996264)"/>
      </g>
     </g>
    </g>
    <g id="xtick_3">
     <g id="line2d_3">
      <g>
       <use xlink:href="#me4e044d423" x="168.81139" y="301.660854" style="stroke: #000000; stroke-width: 0.8"/>
      </g>
     </g>
     <g id="text_3">
      <!-- $\mathdefault{50}$ -->
      <g transform="translate(163.830055 315.579352)scale(0.1 -0.1)">
       <use xlink:href="#CMR17-35" transform="scale(0.996264)"/>
       <use xlink:href="#CMR17-30" transform="translate(45.690477 0)scale(0.996264)"/>
      </g>
     </g>
    </g>
    <g id="xtick_4">
     <g id="line2d_4">
      <g>
       <use xlink:href="#me4e044d423" x="213.037343" y="301.660854" style="stroke: #000000; stroke-width: 0.8"/>
      </g>
     </g>
     <g id="text_4">
      <!-- $\mathdefault{75}$ -->
      <g transform="translate(208.056008 315.579352)scale(0.1 -0.1)">
       <defs>
        <path id="CMR17-37" d="M 2886 3955 
L 2886 4096 
L 1382 4096 
C 634 4096 621 4166 595 4288 
L 480 4288 
L 294 3104 
L 410 3104 
C 429 3226 474 3552 550 3673 
C 589 3724 1062 3724 1171 3724 
L 2579 3724 
L 1869 2670 
C 1395 1961 1069 1003 1069 166 
C 1069 89 1069 -128 1299 -128 
C 1530 -128 1530 89 1530 172 
L 1530 466 
C 1530 1514 1709 2204 2003 2644 
L 2886 3955 
z
" transform="scale(0.015625)"/>
       </defs>
       <use xlink:href="#CMR17-37" transform="scale(0.996264)"/>
       <use xlink:href="#CMR17-35" transform="translate(45.690477 0)scale(0.996264)"/>
      </g>
     </g>
    </g>
    <g id="xtick_5">
     <g id="line2d_5">
      <g>
       <use xlink:href="#me4e044d423" x="257.263296" y="301.660854" style="stroke: #000000; stroke-width: 0.8"/>
      </g>
     </g>
     <g id="text_5">
      <!-- $\mathdefault{100}$ -->
      <g transform="translate(249.791293 315.579352)scale(0.1 -0.1)">
       <defs>
        <path id="CMR17-31" d="M 1702 4083 
C 1702 4217 1696 4224 1606 4224 
C 1357 3927 979 3833 621 3820 
C 602 3820 570 3820 563 3808 
C 557 3795 557 3782 557 3648 
C 755 3648 1088 3686 1344 3839 
L 1344 467 
C 1344 243 1331 166 781 166 
L 589 166 
L 589 0 
C 896 6 1216 12 1523 12 
C 1830 12 2150 6 2458 0 
L 2458 166 
L 2266 166 
C 1715 166 1702 236 1702 467 
L 1702 4083 
z
" transform="scale(0.015625)"/>
       </defs>
       <use xlink:href="#CMR17-31" transform="scale(0.996264)"/>
       <use xlink:href="#CMR17-30" transform="translate(45.690477 0)scale(0.996264)"/>
       <use xlink:href="#CMR17-30" transform="translate(91.380954 0)scale(0.996264)"/>
      </g>
     </g>
    </g>
    <g id="xtick_6">
     <g id="line2d_6">
      <g>
       <use xlink:href="#me4e044d423" x="301.489249" y="301.660854" style="stroke: #000000; stroke-width: 0.8"/>
      </g>
     </g>
     <g id="text_6">
      <!-- $\mathdefault{125}$ -->
      <g transform="translate(294.017246 315.579352)scale(0.1 -0.1)">
       <use xlink:href="#CMR17-31" transform="scale(0.996264)"/>
       <use xlink:href="#CMR17-32" transform="translate(45.690477 0)scale(0.996264)"/>
       <use xlink:href="#CMR17-35" transform="translate(91.380954 0)scale(0.996264)"/>
      </g>
     </g>
    </g>
    <g id="xtick_7">
     <g id="line2d_7">
      <g>
       <use xlink:href="#me4e044d423" x="345.715202" y="301.660854" style="stroke: #000000; stroke-width: 0.8"/>
      </g>
     </g>
     <g id="text_7">
      <!-- $\mathdefault{150}$ -->
      <g transform="translate(338.2432 315.579352)scale(0.1 -0.1)">
       <use xlink:href="#CMR17-31" transform="scale(0.996264)"/>
       <use xlink:href="#CMR17-35" transform="translate(45.690477 0)scale(0.996264)"/>
       <use xlink:href="#CMR17-30" transform="translate(91.380954 0)scale(0.996264)"/>
      </g>
     </g>
    </g>
    <g id="xtick_8">
     <g id="line2d_8">
      <g>
       <use xlink:href="#me4e044d423" x="389.941156" y="301.660854" style="stroke: #000000; stroke-width: 0.8"/>
      </g>
     </g>
     <g id="text_8">
      <!-- $\mathdefault{175}$ -->
      <g transform="translate(382.469153 315.579352)scale(0.1 -0.1)">
       <use xlink:href="#CMR17-31" transform="scale(0.996264)"/>
       <use xlink:href="#CMR17-37" transform="translate(45.690477 0)scale(0.996264)"/>
       <use xlink:href="#CMR17-35" transform="translate(91.380954 0)scale(0.996264)"/>
      </g>
     </g>
    </g>
    <g id="xtick_9">
     <g id="line2d_9">
      <g>
       <use xlink:href="#me4e044d423" x="434.167109" y="301.660854" style="stroke: #000000; stroke-width: 0.8"/>
      </g>
     </g>
     <g id="text_9">
      <!-- $\mathdefault{200}$ -->
      <g transform="translate(426.695106 315.579352)scale(0.1 -0.1)">
       <use xlink:href="#CMR17-32" transform="scale(0.996264)"/>
       <use xlink:href="#CMR17-30" transform="translate(45.690477 0)scale(0.996264)"/>
       <use xlink:href="#CMR17-30" transform="translate(91.380954 0)scale(0.996264)"/>
      </g>
     </g>
    </g>
    <g id="text_10">
     <!-- Boundary Data -->
     <g transform="translate(206.793535 331.894255)scale(0.15 -0.15)">
      <defs>
       <path id="CMR17-42" d="M 333 4352 
L 333 4185 
C 774 4185 845 4185 845 3897 
L 845 451 
C 845 166 774 166 333 166 
L 333 0 
L 2534 0 
C 3354 0 3885 578 3885 1155 
C 3885 1726 3360 2214 2675 2259 
C 3290 2380 3718 2790 3718 3276 
C 3718 3808 3194 4352 2368 4352 
L 333 4352 
z
M 1248 2304 
L 1248 3936 
C 1248 4153 1261 4185 1517 4185 
L 2336 4185 
C 2970 4185 3251 3673 3251 3276 
C 3251 2790 2861 2304 2170 2304 
L 1248 2304 
z
M 1517 166 
C 1261 166 1248 198 1248 413 
L 1248 2201 
L 2432 2201 
C 3091 2201 3411 1624 3411 1161 
C 3411 698 3046 166 2349 166 
L 1517 166 
z
" transform="scale(0.015625)"/>
       <path id="CMR17-6f" d="M 2758 1356 
C 2758 2176 2163 2816 1466 2816 
C 768 2816 173 2176 173 1356 
C 173 550 768 -64 1466 -64 
C 2163 -64 2758 550 2758 1356 
z
M 1466 51 
C 1165 51 909 230 762 480 
C 602 768 582 1126 582 1408 
C 582 1676 595 2009 762 2297 
C 890 2508 1139 2713 1466 2713 
C 1754 2713 1997 2553 2150 2329 
C 2349 2028 2349 1606 2349 1408 
C 2349 1158 2336 774 2163 467 
C 1984 172 1709 51 1466 51 
z
" transform="scale(0.015625)"/>
       <path id="CMR17-75" d="M 1882 2745 
L 1882 2579 
C 2259 2579 2317 2540 2317 2229 
L 2317 1053 
C 2317 510 2029 38 1555 38 
C 1030 38 986 355 986 691 
L 986 2816 
L 211 2745 
L 211 2579 
C 467 2579 640 2579 646 2320 
L 646 1079 
C 646 646 646 368 813 187 
C 896 103 1056 -64 1517 -64 
C 2061 -64 2272 400 2323 536 
L 2330 536 
L 2330 -64 
L 3091 -13 
L 3091 154 
C 2714 154 2656 193 2656 503 
L 2656 2816 
L 1882 2745 
z
" transform="scale(0.015625)"/>
       <path id="CMR17-6e" d="M 2656 1954 
C 2656 2282 2592 2816 1837 2816 
C 1331 2816 1069 2424 973 2166 
L 966 2166 
L 966 2816 
L 211 2745 
L 211 2578 
C 589 2578 646 2540 646 2231 
L 646 443 
C 646 198 621 166 211 166 
L 211 0 
C 365 12 646 12 813 12 
C 979 12 1267 12 1421 0 
L 1421 166 
C 1011 166 986 192 986 443 
L 986 1678 
C 986 2269 1344 2713 1792 2713 
C 2266 2713 2317 2289 2317 1980 
L 2317 443 
C 2317 198 2291 166 1882 166 
L 1882 0 
C 2035 12 2317 12 2483 12 
C 2650 12 2938 12 3091 0 
L 3091 166 
C 2682 166 2656 192 2656 443 
L 2656 1954 
z
" transform="scale(0.015625)"/>
       <path id="CMR17-64" d="M 1869 4345 
L 1869 4179 
C 2246 4179 2304 4141 2304 3843 
L 2304 2371 
C 2278 2403 2016 2816 1498 2816 
C 845 2816 211 2228 211 1376 
C 211 529 806 -64 1434 -64 
C 1978 -64 2259 361 2291 406 
L 2291 -64 
L 3066 -13 
L 3066 154 
C 2688 154 2630 193 2630 503 
L 2630 4416 
L 1869 4345 
z
M 2291 762 
C 2291 568 2176 393 2029 264 
C 1811 70 1594 38 1472 38 
C 1286 38 621 135 621 1369 
C 621 2636 1363 2713 1530 2713 
C 1824 2713 2061 2545 2208 2313 
C 2291 2177 2291 2157 2291 2041 
L 2291 762 
z
" transform="scale(0.015625)"/>
       <path id="CMR17-61" d="M 2304 1656 
C 2304 2048 2304 2275 2035 2534 
C 1798 2751 1523 2816 1306 2816 
C 800 2816 435 2408 435 1977 
C 435 1740 627 1728 666 1728 
C 749 1728 896 1779 896 1958 
C 896 2118 774 2188 666 2188 
C 640 2188 608 2182 589 2176 
C 723 2594 1069 2713 1293 2713 
C 1613 2713 1965 2421 1965 1875 
L 1965 1632 
C 1587 1619 1133 1568 774 1373 
C 371 1147 256 822 256 576 
C 256 77 832 -64 1171 -64 
C 1523 -64 1850 135 1990 505 
C 2003 219 2182 -39 2464 -39 
C 2598 -39 2938 51 2938 563 
L 2938 926 
L 2822 926 
L 2822 557 
C 2822 161 2650 109 2566 109 
C 2304 109 2304 446 2304 732 
L 2304 1656 
z
M 1965 887 
C 1965 323 1568 38 1216 38 
C 896 38 646 278 646 576 
C 646 771 730 1114 1101 1322 
C 1408 1497 1760 1523 1965 1536 
L 1965 887 
z
" transform="scale(0.015625)"/>
       <path id="CMR17-72" d="M 960 1517 
C 960 2134 1222 2713 1702 2713 
C 1747 2713 1792 2707 1837 2687 
C 1837 2687 1696 2642 1696 2475 
C 1696 2321 1818 2257 1914 2257 
C 1990 2257 2131 2302 2131 2482 
C 2131 2687 1926 2816 1709 2816 
C 1222 2816 1011 2340 947 2115 
L 941 2115 
L 941 2816 
L 198 2745 
L 198 2578 
C 576 2578 634 2540 634 2231 
L 634 443 
C 634 198 608 166 198 166 
L 198 0 
C 352 12 646 12 813 12 
C 998 12 1325 12 1498 0 
L 1498 166 
C 1037 166 960 166 960 455 
L 960 1517 
z
" transform="scale(0.015625)"/>
       <path id="CMR17-79" d="M 2496 2183 
C 2656 2579 2944 2585 3034 2585 
L 3034 2752 
C 2912 2745 2752 2739 2630 2739 
C 2496 2739 2285 2739 2157 2752 
L 2157 2585 
C 2400 2566 2406 2384 2406 2332 
C 2406 2268 2394 2235 2362 2158 
L 1664 409 
L 902 2300 
C 870 2378 870 2423 870 2430 
C 870 2572 1018 2585 1171 2585 
L 1171 2752 
C 1018 2739 742 2739 582 2739 
C 410 2739 205 2739 64 2752 
L 64 2585 
C 410 2585 448 2553 531 2345 
L 1485 -31 
C 1197 -795 1030 -1242 627 -1242 
C 557 -1242 397 -1223 282 -1106 
C 429 -1093 493 -1002 493 -892 
C 493 -782 416 -685 288 -685 
C 147 -685 77 -782 77 -899 
C 77 -1158 339 -1344 627 -1344 
C 998 -1344 1229 -983 1357 -659 
L 2496 2183 
z
" transform="scale(0.015625)"/>
       <path id="CMR17-44" d="M 333 4352 
L 333 4185 
C 774 4185 845 4185 845 3898 
L 845 453 
C 845 166 774 166 333 166 
L 333 0 
L 2368 0 
C 3398 0 4224 943 4224 2140 
C 4224 3344 3411 4352 2368 4352 
L 333 4352 
z
M 1523 166 
C 1267 166 1254 198 1254 414 
L 1254 3936 
C 1254 4153 1267 4185 1523 4185 
L 2240 4185 
C 2771 4185 3750 3873 3750 2140 
C 3750 1242 3488 879 3366 707 
C 3213 510 2848 166 2240 166 
L 1523 166 
z
" transform="scale(0.015625)"/>
       <path id="CMR17-74" d="M 966 2585 
L 1862 2585 
L 1862 2752 
L 966 2752 
L 966 3968 
L 851 3968 
C 838 3292 614 2700 70 2687 
L 70 2585 
L 627 2585 
L 627 778 
C 627 655 627 -64 1370 -64 
C 1747 -64 1965 308 1965 784 
L 1965 1151 
L 1850 1151 
L 1850 790 
C 1850 347 1677 51 1408 51 
C 1222 51 966 179 966 765 
L 966 2585 
z
" transform="scale(0.015625)"/>
      </defs>
      <use xlink:href="#CMR17-42" transform="scale(0.996264)"/>
      <use xlink:href="#CMR17-6f" transform="translate(65.188754 0)scale(0.996264)"/>
      <use xlink:href="#CMR17-75" transform="translate(110.879232 0)scale(0.996264)"/>
      <use xlink:href="#CMR17-6e" transform="translate(161.774601 0)scale(0.996264)"/>
      <use xlink:href="#CMR17-64" transform="translate(212.669971 0)scale(0.996264)"/>
      <use xlink:href="#CMR17-61" transform="translate(263.565341 0)scale(0.996264)"/>
      <use xlink:href="#CMR17-72" transform="translate(309.255818 0)scale(0.996264)"/>
      <use xlink:href="#CMR17-79" transform="translate(344.536586 0)scale(0.996264)"/>
      <use xlink:href="#CMR17-44" transform="translate(422.905468 0)scale(0.996264)"/>
      <use xlink:href="#CMR17-61" transform="translate(493.299024 0)scale(0.996264)"/>
      <use xlink:href="#CMR17-74" transform="translate(538.989501 0)scale(0.996264)"/>
      <use xlink:href="#CMR17-61" transform="translate(574.270269 0)scale(0.996264)"/>
     </g>
    </g>
   </g>
   <g id="matplotlib.axis_2">
    <g id="ytick_1">
     <g id="line2d_10">
      <defs>
       <path id="m398e93cd02" d="M 0 0 
L -3.5 0 
" style="stroke: #000000; stroke-width: 0.8"/>
      </defs>
      <g>
       <use xlink:href="#m398e93cd02" x="62.757554" y="266.135853" style="stroke: #000000; stroke-width: 0.8"/>
      </g>
     </g>
     <g id="text_11">
      <!-- $\mathdefault{0.0010}$ -->
      <g transform="translate(28.083469 269.595102)scale(0.1 -0.1)">
       <defs>
        <path id="CMMI12-3a" d="M 1178 307 
C 1178 492 1024 620 870 620 
C 685 620 557 467 557 313 
C 557 128 710 0 864 0 
C 1050 0 1178 153 1178 307 
z
" transform="scale(0.015625)"/>
       </defs>
       <use xlink:href="#CMR17-30" transform="scale(0.996264)"/>
       <use xlink:href="#CMMI12-3a" transform="translate(45.690477 0)scale(0.996264)"/>
       <use xlink:href="#CMR17-30" transform="translate(72.787654 0)scale(0.996264)"/>
       <use xlink:href="#CMR17-30" transform="translate(118.478131 0)scale(0.996264)"/>
       <use xlink:href="#CMR17-31" transform="translate(164.168608 0)scale(0.996264)"/>
       <use xlink:href="#CMR17-30" transform="translate(209.859086 0)scale(0.996264)"/>
      </g>
     </g>
    </g>
    <g id="ytick_2">
     <g id="line2d_11">
      <g>
       <use xlink:href="#m398e93cd02" x="62.757554" y="208.166476" style="stroke: #000000; stroke-width: 0.8"/>
      </g>
     </g>
     <g id="text_12">
      <!-- $\mathdefault{0.0011}$ -->
      <g transform="translate(28.083469 211.625725)scale(0.1 -0.1)">
       <use xlink:href="#CMR17-30" transform="scale(0.996264)"/>
       <use xlink:href="#CMMI12-3a" transform="translate(45.690477 0)scale(0.996264)"/>
       <use xlink:href="#CMR17-30" transform="translate(72.787654 0)scale(0.996264)"/>
       <use xlink:href="#CMR17-30" transform="translate(118.478131 0)scale(0.996264)"/>
       <use xlink:href="#CMR17-31" transform="translate(164.168608 0)scale(0.996264)"/>
       <use xlink:href="#CMR17-31" transform="translate(209.859086 0)scale(0.996264)"/>
      </g>
     </g>
    </g>
    <g id="ytick_3">
     <g id="line2d_12">
      <g>
       <use xlink:href="#m398e93cd02" x="62.757554" y="150.1971" style="stroke: #000000; stroke-width: 0.8"/>
      </g>
     </g>
     <g id="text_13">
      <!-- $\mathdefault{0.0012}$ -->
      <g transform="translate(28.083469 153.656349)scale(0.1 -0.1)">
       <use xlink:href="#CMR17-30" transform="scale(0.996264)"/>
       <use xlink:href="#CMMI12-3a" transform="translate(45.690477 0)scale(0.996264)"/>
       <use xlink:href="#CMR17-30" transform="translate(72.787654 0)scale(0.996264)"/>
       <use xlink:href="#CMR17-30" transform="translate(118.478131 0)scale(0.996264)"/>
       <use xlink:href="#CMR17-31" transform="translate(164.168608 0)scale(0.996264)"/>
       <use xlink:href="#CMR17-32" transform="translate(209.859086 0)scale(0.996264)"/>
      </g>
     </g>
    </g>
    <g id="ytick_4">
     <g id="line2d_13">
      <g>
       <use xlink:href="#m398e93cd02" x="62.757554" y="92.227723" style="stroke: #000000; stroke-width: 0.8"/>
      </g>
     </g>
     <g id="text_14">
      <!-- $\mathdefault{0.0013}$ -->
      <g transform="translate(28.083469 95.686972)scale(0.1 -0.1)">
       <defs>
        <path id="CMR17-33" d="M 1414 2176 
C 1984 2176 2234 1673 2234 1094 
C 2234 322 1824 25 1453 25 
C 1114 25 563 193 390 691 
C 422 678 454 678 486 678 
C 640 678 755 780 755 947 
C 755 1132 614 1216 486 1216 
C 378 1216 211 1164 211 927 
C 211 335 787 -128 1466 -128 
C 2176 -128 2720 432 2720 1087 
C 2720 1718 2208 2176 1600 2246 
C 2086 2347 2554 2776 2554 3353 
C 2554 3856 2048 4224 1472 4224 
C 890 4224 378 3862 378 3347 
C 378 3123 544 3084 627 3084 
C 762 3084 877 3167 877 3334 
C 877 3500 762 3584 627 3584 
C 602 3584 570 3584 544 3571 
C 730 3999 1235 4076 1459 4076 
C 1683 4076 2106 3966 2106 3347 
C 2106 3167 2080 2851 1862 2574 
C 1670 2329 1453 2316 1242 2297 
C 1210 2297 1062 2284 1037 2284 
C 992 2278 966 2272 966 2227 
C 966 2182 973 2176 1101 2176 
L 1414 2176 
z
" transform="scale(0.015625)"/>
       </defs>
       <use xlink:href="#CMR17-30" transform="scale(0.996264)"/>
       <use xlink:href="#CMMI12-3a" transform="translate(45.690477 0)scale(0.996264)"/>
       <use xlink:href="#CMR17-30" transform="translate(72.787654 0)scale(0.996264)"/>
       <use xlink:href="#CMR17-30" transform="translate(118.478131 0)scale(0.996264)"/>
       <use xlink:href="#CMR17-31" transform="translate(164.168608 0)scale(0.996264)"/>
       <use xlink:href="#CMR17-33" transform="translate(209.859086 0)scale(0.996264)"/>
      </g>
     </g>
    </g>
    <g id="ytick_5">
     <g id="line2d_14">
      <g>
       <use xlink:href="#m398e93cd02" x="62.757554" y="34.258346" style="stroke: #000000; stroke-width: 0.8"/>
      </g>
     </g>
     <g id="text_15">
      <!-- $\mathdefault{0.0014}$ -->
      <g transform="translate(28.083469 37.717595)scale(0.1 -0.1)">
       <defs>
        <path id="CMR17-34" d="M 2150 4147 
C 2150 4281 2144 4288 2029 4288 
L 128 1254 
L 128 1088 
L 1779 1088 
L 1779 460 
C 1779 230 1766 166 1318 166 
L 1197 166 
L 1197 0 
C 1402 12 1747 12 1965 12 
C 2182 12 2528 12 2733 0 
L 2733 166 
L 2611 166 
C 2163 166 2150 230 2150 460 
L 2150 1088 
L 2803 1088 
L 2803 1254 
L 2150 1254 
L 2150 4147 
z
M 1798 3723 
L 1798 1254 
L 256 1254 
L 1798 3723 
z
" transform="scale(0.015625)"/>
       </defs>
       <use xlink:href="#CMR17-30" transform="scale(0.996264)"/>
       <use xlink:href="#CMMI12-3a" transform="translate(45.690477 0)scale(0.996264)"/>
       <use xlink:href="#CMR17-30" transform="translate(72.787654 0)scale(0.996264)"/>
       <use xlink:href="#CMR17-30" transform="translate(118.478131 0)scale(0.996264)"/>
       <use xlink:href="#CMR17-31" transform="translate(164.168608 0)scale(0.996264)"/>
       <use xlink:href="#CMR17-34" transform="translate(209.859086 0)scale(0.996264)"/>
      </g>
     </g>
    </g>
    <g id="text_16">
     <!-- Strain -->
     <g transform="translate(21.177725 175.740394)rotate(-90)scale(0.15 -0.15)">
      <defs>
       <path id="CMR17-53" d="M 2803 4351 
C 2803 4467 2797 4473 2758 4473 
C 2720 4473 2707 4447 2682 4390 
L 2490 3965 
C 2246 4320 1875 4480 1472 4480 
C 819 4480 294 3958 294 3301 
C 294 3101 339 2817 557 2546 
C 794 2250 1018 2198 1530 2063 
C 1722 2011 2042 1927 2106 1901 
C 2470 1747 2662 1360 2662 999 
C 2662 534 2336 38 1779 38 
C 1094 38 454 425 410 1328 
C 403 1431 397 1437 352 1437 
C 301 1437 294 1431 294 1302 
L 294 0 
C 294 -116 301 -122 339 -122 
C 384 -122 397 -90 486 109 
C 493 128 493 141 614 386 
C 934 -39 1472 -128 1779 -128 
C 2477 -128 2970 457 2970 1141 
C 2970 1476 2848 1734 2778 1850 
C 2509 2263 2221 2340 1914 2417 
C 1869 2437 1856 2437 1498 2527 
C 1152 2617 1005 2662 845 2836 
C 666 3036 602 3243 602 3449 
C 602 3868 934 4326 1478 4326 
C 2157 4326 2579 3842 2675 3036 
C 2694 2920 2701 2914 2746 2914 
C 2803 2914 2803 2933 2803 3043 
L 2803 4351 
z
" transform="scale(0.015625)"/>
       <path id="CMR17-69" d="M 992 3961 
C 992 4102 877 4224 730 4224 
C 589 4224 467 4108 467 3961 
C 467 3820 582 3699 730 3699 
C 870 3699 992 3814 992 3961 
z
M 243 2745 
L 243 2579 
C 602 2579 653 2540 653 2231 
L 653 443 
C 653 198 627 166 218 166 
L 218 0 
C 371 12 646 12 806 12 
C 960 12 1222 12 1370 0 
L 1370 166 
C 992 166 979 205 979 436 
L 979 2816 
L 243 2745 
z
" transform="scale(0.015625)"/>
      </defs>
      <use xlink:href="#CMR17-53" transform="scale(0.996264)"/>
      <use xlink:href="#CMR17-74" transform="translate(50.89537 0)scale(0.996264)"/>
      <use xlink:href="#CMR17-72" transform="translate(86.176138 0)scale(0.996264)"/>
      <use xlink:href="#CMR17-61" transform="translate(121.456905 0)scale(0.996264)"/>
      <use xlink:href="#CMR17-69" transform="translate(167.147382 0)scale(0.996264)"/>
      <use xlink:href="#CMR17-6e" transform="translate(192.018441 0)scale(0.996264)"/>
     </g>
    </g>
   </g>
   <g id="line2d_15">
    <path d="M 80.359484 116.407889 
L 82.128522 111.119881 
L 83.89756 172.800758 
L 85.666598 124.996462 
L 87.435636 145.807536 
L 89.204674 122.768058 
L 90.973712 206.537578 
L 92.74275 102.944105 
L 94.511789 216.591457 
L 96.280827 182.588562 
L 98.049865 212.241747 
L 99.818903 227.260564 
L 101.587941 179.31676 
L 103.356979 152.026524 
L 105.126017 174.840852 
L 106.895055 130.261924 
L 108.664094 95.442358 
L 110.433132 172.660617 
L 112.20217 81.024059 
L 113.971208 225.493871 
L 115.740246 74.829906 
L 117.509284 110.756766 
L 119.278322 89.50909 
L 121.04736 137.632738 
L 122.816399 194.561706 
L 124.585437 45.992855 
L 126.354475 66.575632 
L 128.123513 267.597001 
L 129.892551 158.813697 
L 131.661589 78.721854 
L 133.430627 130.94457 
L 135.199665 213.148532 
L 136.968704 166.520997 
L 138.737742 151.449797 
L 140.50678 165.116573 
L 142.275818 96.987271 
L 144.044856 247.739651 
L 145.813894 172.950343 
L 147.582932 125.299021 
L 149.35197 69.336595 
L 151.121009 217.370274 
L 152.890047 147.183703 
L 154.659085 209.924338 
L 156.428123 208.844307 
L 158.197161 248.803849 
L 159.966199 218.485201 
L 161.735237 77.157169 
L 163.504275 214.609811 
L 165.273314 255.405022 
L 167.042352 171.88419 
L 168.81139 200.498489 
L 172.349466 110.37963 
L 174.118504 74.336702 
L 175.887542 177.067981 
L 177.65658 40.613174 
L 179.425619 99.136267 
L 181.194657 174.011639 
L 182.963695 186.726065 
L 184.732733 94.993386 
L 186.501771 74.706815 
L 188.270809 189.358461 
L 190.039847 226.079772 
L 191.808885 193.666278 
L 193.577924 102.944519 
L 195.346962 231.47311 
L 197.116 132.836038 
L 198.885038 131.562876 
L 200.654076 191.384103 
L 202.423114 43.736807 
L 204.192152 288.439906 
L 205.961191 154.476611 
L 207.730229 131.48835 
L 209.499267 99.492776 
L 211.268305 119.881697 
L 213.037343 103.371634 
L 214.806381 88.659503 
L 216.575419 154.844351 
L 218.344457 216.380552 
L 220.113496 75.584546 
L 221.882534 78.682149 
L 223.651572 203.575879 
L 225.42061 110.083033 
L 227.189648 163.572272 
L 228.958686 191.971966 
L 230.727724 192.987718 
L 232.496762 231.38244 
L 234.265801 44.216324 
L 236.034839 156.431603 
L 237.803877 204.138988 
L 239.572915 54.552821 
L 241.341953 155.016671 
L 243.110991 24.020948 
L 244.880029 234.584023 
L 246.649067 99.558013 
L 248.418106 176.478586 
L 250.187144 166.631601 
L 251.956182 74.560326 
L 253.72522 103.679523 
L 255.494258 103.811675 
L 257.263296 152.566908 
L 259.032334 110.47585 
L 260.801372 200.974803 
L 262.570411 199.493333 
L 264.339449 189.433069 
L 266.108487 111.345358 
L 267.877525 195.948084 
L 269.646563 60.88312 
L 271.415601 117.916997 
L 273.184639 235.062935 
L 274.953677 141.89831 
L 276.722716 67.876474 
L 278.491754 207.454029 
L 280.260792 226.456186 
L 282.02983 230.846428 
L 283.798868 150.695207 
L 285.567906 185.951186 
L 287.336944 212.063885 
L 289.105982 133.452817 
L 290.875021 79.70979 
L 292.644059 157.504071 
L 294.413097 241.187939 
L 296.182135 106.666914 
L 297.951173 139.046297 
L 299.720211 177.29509 
L 301.489249 211.26571 
L 303.258287 123.465189 
L 305.027326 114.577505 
L 306.796364 144.211264 
L 308.565402 129.757272 
L 310.33444 152.191431 
L 312.103478 95.124526 
L 313.872516 139.119016 
L 315.641554 136.91953 
L 317.410592 113.873632 
L 319.179631 57.853721 
L 320.948669 126.32385 
L 322.717707 94.374228 
L 324.486745 164.685998 
L 326.255783 199.384447 
L 328.024821 187.179886 
L 329.793859 99.760487 
L 331.562897 54.272506 
L 333.331936 72.095026 
L 335.100974 213.814984 
L 336.870012 133.234408 
L 338.63905 86.812116 
L 340.408088 114.983116 
L 342.177126 177.535187 
L 343.946164 195.051991 
L 345.715202 86.202982 
L 347.484241 191.621545 
L 349.253279 142.096244 
L 351.022317 140.353794 
L 352.791355 100.534317 
L 354.560393 131.971229 
L 356.329431 38.375059 
L 358.098469 139.846598 
L 359.867507 138.097388 
L 361.636546 73.122124 
L 363.405584 197.300062 
L 365.174622 185.855856 
L 366.94366 118.057815 
L 368.712698 174.286801 
L 370.481736 169.505476 
L 372.250774 148.035946 
L 374.019812 171.60171 
L 375.788851 158.920168 
L 377.557889 159.434909 
L 379.326927 183.99497 
L 381.095965 178.256474 
L 382.865003 221.443261 
L 384.634041 192.367176 
L 386.403079 153.274888 
L 388.172117 92.846179 
L 389.941156 125.795014 
L 391.710194 127.14288 
L 393.479232 205.500314 
L 395.24827 120.30193 
L 397.017308 211.933051 
L 398.786346 81.887756 
L 400.555384 188.64745 
L 402.324423 173.046958 
L 404.093461 144.172908 
L 405.862499 191.094592 
L 407.631537 184.300845 
L 409.400575 188.180566 
L 411.169613 157.549148 
L 412.938651 189.878672 
L 414.707689 145.921894 
L 416.476728 67.90478 
L 420.014804 175.312653 
L 421.783842 82.240245 
L 423.55288 120.092347 
L 425.321918 147.356684 
L 427.090956 57.558066 
L 428.859994 56.18513 
L 430.629033 187.180519 
L 432.398071 211.833771 
L 432.398071 211.833771 
" clip-path="url(#p29a0f0fbe5)" style="fill: none; stroke: #3c74ff; stroke-width: 1.5; stroke-linecap: square"/>
   </g>
   <g id="line2d_16">
    <path d="M 80.359484 115.265705 
L 82.128522 113.382702 
L 83.89756 175.602782 
L 85.666598 131.482732 
L 87.435636 140.539734 
L 89.204674 123.81382 
L 90.973712 201.993824 
L 92.74275 103.754598 
L 94.511789 209.476615 
L 96.280827 178.75819 
L 98.049865 213.637812 
L 99.818903 225.20223 
L 101.587941 169.04689 
L 103.356979 147.743436 
L 105.126017 175.731656 
L 106.895055 113.252988 
L 108.664094 98.790032 
L 110.433132 171.096053 
L 112.20217 84.353747 
L 113.971208 225.60065 
L 115.740246 81.032686 
L 117.509284 113.469102 
L 119.278322 92.513237 
L 121.04736 133.115255 
L 122.816399 192.009112 
L 124.585437 55.034778 
L 126.354475 63.42477 
L 128.123513 255.300016 
L 131.661589 74.861535 
L 133.430627 130.62437 
L 135.199665 216.463746 
L 136.968704 171.886329 
L 138.737742 147.723371 
L 140.50678 161.756502 
L 142.275818 99.490899 
L 144.044856 240.031099 
L 145.813894 171.374385 
L 147.582932 117.820037 
L 149.35197 82.895185 
L 151.121009 218.645707 
L 152.890047 138.281284 
L 154.659085 209.572535 
L 156.428123 210.22565 
L 158.197161 250.112282 
L 159.966199 221.466073 
L 161.735237 78.204344 
L 163.504275 204.182951 
L 165.273314 250.726168 
L 167.042352 174.437906 
L 168.81139 202.7949 
L 170.580428 160.078953 
L 172.349466 110.833299 
L 174.118504 79.613322 
L 175.887542 177.513644 
L 177.65658 40.790639 
L 179.425619 101.961834 
L 181.194657 177.900311 
L 182.963695 183.613432 
L 184.732733 91.039815 
L 186.501771 74.405434 
L 188.270809 187.559117 
L 190.039847 221.295835 
L 191.808885 197.9604 
L 193.577924 106.027396 
L 195.346962 226.643024 
L 197.116 136.407403 
L 198.885038 128.104001 
L 200.654076 190.168763 
L 202.423114 57.550123 
L 204.192152 266.64775 
L 205.961191 158.391243 
L 207.730229 135.376132 
L 209.499267 101.991 
L 211.268305 118.914565 
L 213.037343 109.183994 
L 214.806381 83.041491 
L 216.575419 156.844477 
L 218.344457 217.963395 
L 220.113496 76.168484 
L 221.882534 84.498372 
L 223.651572 204.161119 
L 225.42061 111.483719 
L 227.189648 166.854698 
L 228.958686 191.763178 
L 230.727724 191.026303 
L 232.496762 231.126949 
L 234.265801 52.327695 
L 236.034839 159.063411 
L 237.803877 208.843308 
L 239.572915 56.660657 
L 241.341953 148.170329 
L 243.110991 32.492768 
L 244.880029 236.154312 
L 246.649067 108.629484 
L 248.418106 172.299109 
L 250.187144 175.764979 
L 251.956182 77.029584 
L 253.72522 94.862881 
L 255.494258 101.07691 
L 257.263296 153.32804 
L 259.032334 111.733945 
L 260.801372 195.80468 
L 262.570411 197.563054 
L 264.339449 195.027329 
L 266.108487 95.801956 
L 267.877525 193.520109 
L 269.646563 69.650834 
L 271.415601 119.099626 
L 273.184639 226.366757 
L 274.953677 144.742964 
L 276.722716 72.942075 
L 278.491754 203.364025 
L 280.260792 224.606065 
L 282.02983 223.331284 
L 283.798868 155.673755 
L 287.336944 205.035656 
L 289.105982 129.241121 
L 290.875021 75.852458 
L 294.413097 243.184181 
L 296.182135 112.061603 
L 297.951173 139.557445 
L 299.720211 183.291304 
L 301.489249 211.88578 
L 303.258287 125.157884 
L 305.027326 114.010894 
L 306.796364 144.934377 
L 308.565402 127.388954 
L 310.33444 146.137203 
L 312.103478 101.021965 
L 313.872516 127.252514 
L 315.641554 141.923703 
L 317.410592 115.049119 
L 319.179631 63.678725 
L 320.948669 128.371206 
L 322.717707 96.167757 
L 324.486745 166.212573 
L 326.255783 203.995916 
L 328.024821 192.405313 
L 329.793859 97.070205 
L 331.562897 58.507517 
L 333.331936 69.184374 
L 335.100974 209.349846 
L 336.870012 130.044347 
L 338.63905 88.926062 
L 340.408088 117.154248 
L 342.177126 174.773239 
L 343.946164 183.8857 
L 345.715202 90.934384 
L 347.484241 195.590629 
L 349.253279 133.637222 
L 351.022317 145.427792 
L 352.791355 85.733745 
L 354.560393 128.062451 
L 356.329431 55.019534 
L 358.098469 140.633154 
L 359.867507 137.036555 
L 361.636546 72.468369 
L 363.405584 198.217013 
L 365.174622 180.63165 
L 366.94366 121.223941 
L 368.712698 174.124851 
L 370.481736 172.53316 
L 372.250774 139.836011 
L 374.019812 166.67593 
L 375.788851 162.210961 
L 377.557889 161.27566 
L 379.326927 180.369441 
L 381.095965 179.81248 
L 382.865003 219.517521 
L 384.634041 195.649384 
L 386.403079 159.221574 
L 388.172117 97.119368 
L 389.941156 128.780673 
L 391.710194 119.95868 
L 393.479232 194.798027 
L 395.24827 119.908821 
L 397.017308 215.519571 
L 398.786346 87.100167 
L 400.555384 187.42419 
L 402.324423 167.683065 
L 404.093461 152.359265 
L 405.862499 189.37038 
L 407.631537 191.171525 
L 409.400575 196.04139 
L 411.169613 159.530182 
L 412.938651 188.413034 
L 414.707689 153.642846 
L 416.476728 67.770707 
L 418.245766 124.117705 
L 420.014804 176.228745 
L 421.783842 84.757319 
L 423.55288 122.057008 
L 425.321918 146.912218 
L 427.090956 59.101273 
L 428.859994 61.480018 
L 430.629033 190.12762 
L 432.398071 212.849557 
L 432.398071 212.849557 
" clip-path="url(#p29a0f0fbe5)" style="fill: none; stroke-dasharray: 5.55,2.4; stroke-dashoffset: 0; stroke: #eea219; stroke-width: 1.5"/>
   </g>
   <g id="patch_3">
    <path d="M 62.757554 301.660854 
L 62.757554 10.8 
" style="fill: none; stroke: #000000; stroke-width: 0.8; stroke-linejoin: miter; stroke-linecap: square"/>
   </g>
   <g id="patch_4">
    <path d="M 450 301.660854 
L 450 10.8 
" style="fill: none; stroke: #000000; stroke-width: 0.8; stroke-linejoin: miter; stroke-linecap: square"/>
   </g>
   <g id="patch_5">
    <path d="M 62.757554 301.660854 
L 450 301.660854 
" style="fill: none; stroke: #000000; stroke-width: 0.8; stroke-linejoin: miter; stroke-linecap: square"/>
   </g>
   <g id="patch_6">
    <path d="M 62.757554 10.8 
L 450 10.8 
" style="fill: none; stroke: #000000; stroke-width: 0.8; stroke-linejoin: miter; stroke-linecap: square"/>
   </g>
   <g id="legend_1">
    <g id="patch_7">
     <path d="M 297.641214 294.660854 
L 440.2 294.660854 
Q 443 294.660854 443 291.860854 
L 443 254.236797 
Q 443 251.436797 440.2 251.436797 
L 297.641214 251.436797 
Q 294.841214 251.436797 294.841214 254.236797 
L 294.841214 291.860854 
Q 294.841214 294.660854 297.641214 294.660854 
z
" style="fill: #ffffff; opacity: 0.8; stroke: #cccccc; stroke-linejoin: miter"/>
    </g>
    <g id="line2d_17">
     <path d="M 300.441214 261.936797 
L 314.441214 261.936797 
L 328.441214 261.936797 
" style="fill: none; stroke: #3c74ff; stroke-width: 1.5; stroke-linecap: square"/>
    </g>
    <g id="text_17">
     <!-- Real values -->
     <g transform="translate(339.641214 266.836797)scale(0.14 -0.14)">
      <defs>
       <path id="CMR17-52" d="M 2509 2156 
C 3117 2278 3629 2689 3629 3203 
C 3629 3806 2950 4352 2054 4352 
L 333 4352 
L 333 4185 
C 774 4185 845 4185 845 3896 
L 845 428 
C 845 140 774 140 333 140 
L 333 -26 
C 518 -13 851 -13 1050 -13 
C 1248 -13 1581 -13 1766 -26 
L 1766 140 
C 1325 140 1254 140 1254 428 
L 1254 2112 
L 2003 2112 
C 2368 2112 2573 1964 2662 1881 
C 2918 1632 2918 1459 2918 1024 
C 2918 595 2918 377 3110 160 
C 3354 -103 3680 -128 3821 -128 
C 4294 -128 4365 403 4365 512 
C 4365 550 4365 595 4307 595 
C 4256 595 4250 556 4250 531 
C 4218 115 4032 -26 3834 -26 
C 3482 -26 3443 377 3405 768 
C 3386 902 3373 998 3360 1139 
C 3322 1459 3270 1926 2509 2156 
z
M 1984 2214 
L 1254 2214 
L 1254 3935 
C 1254 4153 1267 4185 1523 4185 
L 1990 4185 
C 2522 4185 3142 3999 3142 3203 
C 3142 2374 2464 2214 1984 2214 
z
" transform="scale(0.015625)"/>
       <path id="CMR17-65" d="M 2438 1503 
C 2464 1529 2464 1542 2464 1606 
C 2464 2251 2118 2816 1389 2816 
C 710 2816 173 2175 173 1394 
C 173 554 781 -64 1459 -64 
C 2176 -64 2458 619 2458 755 
C 2458 800 2419 800 2406 800 
C 2362 800 2355 787 2330 709 
C 2189 270 1837 51 1504 51 
C 1229 51 954 206 781 490 
C 582 819 582 1200 582 1503 
L 2438 1503 
z
M 589 1600 
C 634 2511 1126 2713 1382 2713 
C 1818 2713 2112 2308 2118 1600 
L 589 1600 
z
" transform="scale(0.015625)"/>
       <path id="CMR17-6c" d="M 979 4416 
L 218 4345 
L 218 4179 
C 595 4179 653 4141 653 3835 
L 653 439 
C 653 198 627 166 218 166 
L 218 0 
C 371 12 653 12 813 12 
C 979 12 1261 12 1414 0 
L 1414 166 
C 1005 166 979 191 979 439 
L 979 4416 
z
" transform="scale(0.015625)"/>
       <path id="CMR17-76" d="M 2502 2173 
C 2560 2315 2662 2572 3034 2585 
L 3034 2752 
C 2912 2745 2752 2739 2630 2739 
C 2496 2739 2285 2739 2157 2752 
L 2157 2585 
C 2317 2572 2406 2495 2406 2328 
C 2406 2270 2406 2257 2368 2167 
L 1664 379 
L 902 2308 
C 864 2392 864 2405 864 2431 
C 864 2585 1075 2585 1171 2585 
L 1171 2752 
C 1018 2739 736 2739 576 2739 
C 403 2739 205 2739 64 2752 
L 64 2585 
C 307 2585 442 2585 518 2386 
L 1446 44 
C 1485 -52 1491 -64 1549 -64 
C 1606 -64 1613 -52 1651 44 
L 2502 2173 
z
" transform="scale(0.015625)"/>
       <path id="CMR17-73" d="M 1978 2688 
C 1978 2803 1971 2809 1933 2809 
C 1907 2809 1901 2803 1824 2707 
C 1805 2681 1747 2617 1728 2592 
C 1523 2809 1235 2816 1126 2816 
C 416 2816 160 2444 160 2073 
C 160 1497 813 1363 998 1324 
C 1402 1241 1542 1216 1677 1100 
C 1760 1024 1901 883 1901 652 
C 1901 384 1747 38 1158 38 
C 602 38 403 460 288 1024 
C 269 1113 269 1120 218 1120 
C 166 1120 160 1113 160 985 
L 160 64 
C 160 -52 166 -58 205 -58 
C 237 -58 243 -52 275 0 
C 314 57 410 211 448 275 
C 576 102 800 -64 1158 -64 
C 1792 -64 2131 281 2131 780 
C 2131 1107 1958 1280 1875 1356 
C 1683 1555 1459 1600 1190 1651 
C 838 1728 390 1817 390 2208 
C 390 2374 480 2726 1126 2726 
C 1811 2726 1850 2086 1862 1881 
C 1869 1849 1901 1843 1920 1843 
C 1978 1843 1978 1862 1978 1971 
L 1978 2688 
z
" transform="scale(0.015625)"/>
      </defs>
      <use xlink:href="#CMR17-52" transform="scale(0.996264)"/>
      <use xlink:href="#CMR17-65" transform="translate(67.791102 0)scale(0.996264)"/>
      <use xlink:href="#CMR17-61" transform="translate(108.276762 0)scale(0.996264)"/>
      <use xlink:href="#CMR17-6c" transform="translate(153.96724 0)scale(0.996264)"/>
      <use xlink:href="#CMR17-76" transform="translate(208.914264 0)scale(0.996264)"/>
      <use xlink:href="#CMR17-61" transform="translate(252.002364 0)scale(0.996264)"/>
      <use xlink:href="#CMR17-6c" transform="translate(297.692841 0)scale(0.996264)"/>
      <use xlink:href="#CMR17-75" transform="translate(322.563899 0)scale(0.996264)"/>
      <use xlink:href="#CMR17-65" transform="translate(373.459269 0)scale(0.996264)"/>
      <use xlink:href="#CMR17-73" transform="translate(413.944929 0)scale(0.996264)"/>
     </g>
    </g>
    <g id="line2d_18">
     <path d="M 300.441214 281.448825 
L 314.441214 281.448825 
L 328.441214 281.448825 
" style="fill: none; stroke-dasharray: 5.55,2.4; stroke-dashoffset: 0; stroke: #eea219; stroke-width: 1.5"/>
    </g>
    <g id="text_18">
     <!-- Predicted values -->
     <g transform="translate(339.641214 286.348825)scale(0.14 -0.14)">
      <defs>
       <path id="CMR17-50" d="M 1267 2048 
L 2291 2048 
C 3117 2048 3718 2583 3718 3187 
C 3718 3791 3130 4352 2291 4352 
L 333 4352 
L 333 4185 
C 774 4185 845 4185 845 3899 
L 845 453 
C 845 166 774 166 333 166 
L 333 0 
C 518 12 858 12 1056 12 
C 1254 12 1594 12 1779 0 
L 1779 166 
C 1338 166 1267 166 1267 453 
L 1267 2048 
z
M 1254 2182 
L 1254 3937 
C 1254 4153 1267 4185 1523 4185 
L 2170 4185 
C 2995 4185 3232 3715 3232 3187 
C 3232 2608 2950 2182 2170 2182 
L 1254 2182 
z
" transform="scale(0.015625)"/>
       <path id="CMR17-63" d="M 2234 2240 
C 2112 2240 1933 2240 1933 2015 
C 1933 1836 2080 1785 2163 1785 
C 2208 1785 2394 1804 2394 2028 
C 2394 2476 1958 2816 1466 2816 
C 787 2816 211 2201 211 1379 
C 211 521 813 -64 1466 -64 
C 2259 -64 2458 676 2458 747 
C 2458 773 2451 792 2406 792 
C 2362 792 2355 786 2330 702 
C 2163 180 1798 51 1523 51 
C 1114 51 621 431 621 1385 
C 621 2358 1094 2700 1472 2700 
C 1722 2700 2093 2582 2234 2240 
z
" transform="scale(0.015625)"/>
      </defs>
      <use xlink:href="#CMR17-50" transform="scale(0.996264)"/>
      <use xlink:href="#CMR17-72" transform="translate(62.586301 0)scale(0.996264)"/>
      <use xlink:href="#CMR17-65" transform="translate(97.867068 0)scale(0.996264)"/>
      <use xlink:href="#CMR17-64" transform="translate(138.352729 0)scale(0.996264)"/>
      <use xlink:href="#CMR17-69" transform="translate(189.248099 0)scale(0.996264)"/>
      <use xlink:href="#CMR17-63" transform="translate(214.119157 0)scale(0.996264)"/>
      <use xlink:href="#CMR17-74" transform="translate(254.604818 0)scale(0.996264)"/>
      <use xlink:href="#CMR17-65" transform="translate(289.885585 0)scale(0.996264)"/>
      <use xlink:href="#CMR17-64" transform="translate(330.371246 0)scale(0.996264)"/>
      <use xlink:href="#CMR17-76" transform="translate(411.342582 0)scale(0.996264)"/>
      <use xlink:href="#CMR17-61" transform="translate(454.430681 0)scale(0.996264)"/>
      <use xlink:href="#CMR17-6c" transform="translate(500.121158 0)scale(0.996264)"/>
      <use xlink:href="#CMR17-75" transform="translate(524.992217 0)scale(0.996264)"/>
      <use xlink:href="#CMR17-65" transform="translate(575.887586 0)scale(0.996264)"/>
      <use xlink:href="#CMR17-73" transform="translate(616.373247 0)scale(0.996264)"/>
     </g>
    </g>
   </g>
  </g>
 </g>
 <defs>
  <clipPath id="p29a0f0fbe5">
   <rect x="62.757554" y="10.8" width="387.242446" height="290.860854"/>
  </clipPath>
 </defs>
</svg>
