<?xml version="1.0" encoding="utf-8" standalone="no"?>
<!DOCTYPE svg PUBLIC "-//W3C//DTD SVG 1.1//EN"
  "http://www.w3.org/Graphics/SVG/1.1/DTD/svg11.dtd">
<svg xmlns:xlink="http://www.w3.org/1999/xlink" width="460.8pt" height="345.6pt" viewBox="0 0 460.8 345.6" xmlns="http://www.w3.org/2000/svg" version="1.1">
 <metadata>
  <rdf:RDF xmlns:dc="http://purl.org/dc/elements/1.1/" xmlns:cc="http://creativecommons.org/ns#" xmlns:rdf="http://www.w3.org/1999/02/22-rdf-syntax-ns#">
   <cc:Work>
    <dc:type rdf:resource="http://purl.org/dc/dcmitype/StillImage"/>
    <dc:date>2023-03-15T18:48:24.004188</dc:date>
    <dc:format>image/svg+xml</dc:format>
    <dc:creator>
     <cc:Agent>
      <dc:title>Matplotlib v3.5.3, https://matplotlib.org/</dc:title>
     </cc:Agent>
    </dc:creator>
   </cc:Work>
  </rdf:RDF>
 </metadata>
 <defs>
  <style type="text/css">*{stroke-linejoin: round; stroke-linecap: butt}</style>
 </defs>
 <g id="figure_1">
  <g id="patch_1">
   <path d="M 0 345.6 
L 460.8 345.6 
L 460.8 0 
L 0 0 
z
" style="fill: #ffffff"/>
  </g>
  <g id="axes_1">
   <g id="patch_2">
    <path d="M 62.757554 301.660854 
L 450 301.660854 
L 450 10.8 
L 62.757554 10.8 
z
" style="fill: #ffffff"/>
   </g>
   <g id="matplotlib.axis_1">
    <g id="xtick_1">
     <g id="line2d_1">
      <defs>
       <path id="m0dd022cd6d" d="M 0 0 
L 0 3.5 
" style="stroke: #000000; stroke-width: 0.8"/>
      </defs>
      <g>
       <use xlink:href="#m0dd022cd6d" x="80.359484" y="301.660854" style="stroke: #000000; stroke-width: 0.8"/>
      </g>
     </g>
     <g id="text_1">
      <!-- $\mathdefault{0}$ -->
      <g transform="translate(77.868816 315.579352)scale(0.1 -0.1)">
       <defs>
        <path id="CMR17-30" d="M 2688 2038 
C 2688 2430 2682 3099 2413 3613 
C 2176 4063 1798 4224 1466 4224 
C 1158 4224 768 4082 525 3620 
C 269 3137 243 2539 243 2038 
C 243 1671 250 1112 448 623 
C 723 -39 1216 -128 1466 -128 
C 1760 -128 2208 -7 2470 604 
C 2662 1048 2688 1568 2688 2038 
z
M 1466 -26 
C 1056 -26 813 328 723 816 
C 653 1196 653 1749 653 2109 
C 653 2604 653 3015 736 3407 
C 858 3954 1216 4121 1466 4121 
C 1728 4121 2067 3947 2189 3420 
C 2272 3054 2278 2623 2278 2109 
C 2278 1691 2278 1176 2202 797 
C 2067 96 1690 -26 1466 -26 
z
" transform="scale(0.015625)"/>
       </defs>
       <use xlink:href="#CMR17-30" transform="scale(0.996264)"/>
      </g>
     </g>
    </g>
    <g id="xtick_2">
     <g id="line2d_2">
      <g>
       <use xlink:href="#m0dd022cd6d" x="124.585437" y="301.660854" style="stroke: #000000; stroke-width: 0.8"/>
      </g>
     </g>
     <g id="text_2">
      <!-- $\mathdefault{25}$ -->
      <g transform="translate(119.604101 315.579352)scale(0.1 -0.1)">
       <defs>
        <path id="CMR17-32" d="M 2669 990 
L 2554 990 
C 2490 537 2438 460 2413 422 
C 2381 371 1920 371 1830 371 
L 602 371 
C 832 620 1280 1073 1824 1596 
C 2214 1966 2669 2400 2669 3033 
C 2669 3788 2067 4224 1395 4224 
C 691 4224 262 3603 262 3027 
C 262 2777 448 2745 525 2745 
C 589 2745 781 2783 781 3007 
C 781 3206 614 3264 525 3264 
C 486 3264 448 3257 422 3244 
C 544 3788 915 4057 1306 4057 
C 1862 4057 2227 3616 2227 3033 
C 2227 2477 1901 1998 1536 1583 
L 262 147 
L 262 0 
L 2515 0 
L 2669 990 
z
" transform="scale(0.015625)"/>
        <path id="CMR17-35" d="M 730 3750 
C 794 3724 1056 3641 1325 3641 
C 1920 3641 2246 3961 2432 4140 
C 2432 4191 2432 4224 2394 4224 
C 2387 4224 2374 4224 2323 4198 
C 2099 4102 1837 4032 1517 4032 
C 1325 4032 1037 4055 723 4191 
C 653 4224 640 4224 634 4224 
C 602 4224 595 4217 595 4090 
L 595 2231 
C 595 2113 595 2080 659 2080 
C 691 2080 704 2093 736 2139 
C 941 2435 1222 2560 1542 2560 
C 1766 2560 2246 2415 2246 1293 
C 2246 1087 2246 716 2054 422 
C 1894 159 1645 25 1370 25 
C 947 25 518 319 403 812 
C 429 806 480 793 506 793 
C 589 793 749 838 749 1036 
C 749 1209 627 1280 506 1280 
C 358 1280 262 1190 262 1011 
C 262 454 704 -128 1382 -128 
C 2042 -128 2669 441 2669 1267 
C 2669 2054 2170 2662 1549 2662 
C 1222 2662 947 2540 730 2304 
L 730 3750 
z
" transform="scale(0.015625)"/>
       </defs>
       <use xlink:href="#CMR17-32" transform="scale(0.996264)"/>
       <use xlink:href="#CMR17-35" transform="translate(45.690477 0)scale(0.996264)"/>
      </g>
     </g>
    </g>
    <g id="xtick_3">
     <g id="line2d_3">
      <g>
       <use xlink:href="#m0dd022cd6d" x="168.81139" y="301.660854" style="stroke: #000000; stroke-width: 0.8"/>
      </g>
     </g>
     <g id="text_3">
      <!-- $\mathdefault{50}$ -->
      <g transform="translate(163.830055 315.579352)scale(0.1 -0.1)">
       <use xlink:href="#CMR17-35" transform="scale(0.996264)"/>
       <use xlink:href="#CMR17-30" transform="translate(45.690477 0)scale(0.996264)"/>
      </g>
     </g>
    </g>
    <g id="xtick_4">
     <g id="line2d_4">
      <g>
       <use xlink:href="#m0dd022cd6d" x="213.037343" y="301.660854" style="stroke: #000000; stroke-width: 0.8"/>
      </g>
     </g>
     <g id="text_4">
      <!-- $\mathdefault{75}$ -->
      <g transform="translate(208.056008 315.579352)scale(0.1 -0.1)">
       <defs>
        <path id="CMR17-37" d="M 2886 3955 
L 2886 4096 
L 1382 4096 
C 634 4096 621 4166 595 4288 
L 480 4288 
L 294 3104 
L 410 3104 
C 429 3226 474 3552 550 3673 
C 589 3724 1062 3724 1171 3724 
L 2579 3724 
L 1869 2670 
C 1395 1961 1069 1003 1069 166 
C 1069 89 1069 -128 1299 -128 
C 1530 -128 1530 89 1530 172 
L 1530 466 
C 1530 1514 1709 2204 2003 2644 
L 2886 3955 
z
" transform="scale(0.015625)"/>
       </defs>
       <use xlink:href="#CMR17-37" transform="scale(0.996264)"/>
       <use xlink:href="#CMR17-35" transform="translate(45.690477 0)scale(0.996264)"/>
      </g>
     </g>
    </g>
    <g id="xtick_5">
     <g id="line2d_5">
      <g>
       <use xlink:href="#m0dd022cd6d" x="257.263296" y="301.660854" style="stroke: #000000; stroke-width: 0.8"/>
      </g>
     </g>
     <g id="text_5">
      <!-- $\mathdefault{100}$ -->
      <g transform="translate(249.791293 315.579352)scale(0.1 -0.1)">
       <defs>
        <path id="CMR17-31" d="M 1702 4083 
C 1702 4217 1696 4224 1606 4224 
C 1357 3927 979 3833 621 3820 
C 602 3820 570 3820 563 3808 
C 557 3795 557 3782 557 3648 
C 755 3648 1088 3686 1344 3839 
L 1344 467 
C 1344 243 1331 166 781 166 
L 589 166 
L 589 0 
C 896 6 1216 12 1523 12 
C 1830 12 2150 6 2458 0 
L 2458 166 
L 2266 166 
C 1715 166 1702 236 1702 467 
L 1702 4083 
z
" transform="scale(0.015625)"/>
       </defs>
       <use xlink:href="#CMR17-31" transform="scale(0.996264)"/>
       <use xlink:href="#CMR17-30" transform="translate(45.690477 0)scale(0.996264)"/>
       <use xlink:href="#CMR17-30" transform="translate(91.380954 0)scale(0.996264)"/>
      </g>
     </g>
    </g>
    <g id="xtick_6">
     <g id="line2d_6">
      <g>
       <use xlink:href="#m0dd022cd6d" x="301.489249" y="301.660854" style="stroke: #000000; stroke-width: 0.8"/>
      </g>
     </g>
     <g id="text_6">
      <!-- $\mathdefault{125}$ -->
      <g transform="translate(294.017246 315.579352)scale(0.1 -0.1)">
       <use xlink:href="#CMR17-31" transform="scale(0.996264)"/>
       <use xlink:href="#CMR17-32" transform="translate(45.690477 0)scale(0.996264)"/>
       <use xlink:href="#CMR17-35" transform="translate(91.380954 0)scale(0.996264)"/>
      </g>
     </g>
    </g>
    <g id="xtick_7">
     <g id="line2d_7">
      <g>
       <use xlink:href="#m0dd022cd6d" x="345.715202" y="301.660854" style="stroke: #000000; stroke-width: 0.8"/>
      </g>
     </g>
     <g id="text_7">
      <!-- $\mathdefault{150}$ -->
      <g transform="translate(338.2432 315.579352)scale(0.1 -0.1)">
       <use xlink:href="#CMR17-31" transform="scale(0.996264)"/>
       <use xlink:href="#CMR17-35" transform="translate(45.690477 0)scale(0.996264)"/>
       <use xlink:href="#CMR17-30" transform="translate(91.380954 0)scale(0.996264)"/>
      </g>
     </g>
    </g>
    <g id="xtick_8">
     <g id="line2d_8">
      <g>
       <use xlink:href="#m0dd022cd6d" x="389.941156" y="301.660854" style="stroke: #000000; stroke-width: 0.8"/>
      </g>
     </g>
     <g id="text_8">
      <!-- $\mathdefault{175}$ -->
      <g transform="translate(382.469153 315.579352)scale(0.1 -0.1)">
       <use xlink:href="#CMR17-31" transform="scale(0.996264)"/>
       <use xlink:href="#CMR17-37" transform="translate(45.690477 0)scale(0.996264)"/>
       <use xlink:href="#CMR17-35" transform="translate(91.380954 0)scale(0.996264)"/>
      </g>
     </g>
    </g>
    <g id="xtick_9">
     <g id="line2d_9">
      <g>
       <use xlink:href="#m0dd022cd6d" x="434.167109" y="301.660854" style="stroke: #000000; stroke-width: 0.8"/>
      </g>
     </g>
     <g id="text_9">
      <!-- $\mathdefault{200}$ -->
      <g transform="translate(426.695106 315.579352)scale(0.1 -0.1)">
       <use xlink:href="#CMR17-32" transform="scale(0.996264)"/>
       <use xlink:href="#CMR17-30" transform="translate(45.690477 0)scale(0.996264)"/>
       <use xlink:href="#CMR17-30" transform="translate(91.380954 0)scale(0.996264)"/>
      </g>
     </g>
    </g>
    <g id="text_10">
     <!-- Boundary Data -->
     <g transform="translate(206.793535 331.894255)scale(0.15 -0.15)">
      <defs>
       <path id="CMR17-42" d="M 333 4352 
L 333 4185 
C 774 4185 845 4185 845 3897 
L 845 451 
C 845 166 774 166 333 166 
L 333 0 
L 2534 0 
C 3354 0 3885 578 3885 1155 
C 3885 1726 3360 2214 2675 2259 
C 3290 2380 3718 2790 3718 3276 
C 3718 3808 3194 4352 2368 4352 
L 333 4352 
z
M 1248 2304 
L 1248 3936 
C 1248 4153 1261 4185 1517 4185 
L 2336 4185 
C 2970 4185 3251 3673 3251 3276 
C 3251 2790 2861 2304 2170 2304 
L 1248 2304 
z
M 1517 166 
C 1261 166 1248 198 1248 413 
L 1248 2201 
L 2432 2201 
C 3091 2201 3411 1624 3411 1161 
C 3411 698 3046 166 2349 166 
L 1517 166 
z
" transform="scale(0.015625)"/>
       <path id="CMR17-6f" d="M 2758 1356 
C 2758 2176 2163 2816 1466 2816 
C 768 2816 173 2176 173 1356 
C 173 550 768 -64 1466 -64 
C 2163 -64 2758 550 2758 1356 
z
M 1466 51 
C 1165 51 909 230 762 480 
C 602 768 582 1126 582 1408 
C 582 1676 595 2009 762 2297 
C 890 2508 1139 2713 1466 2713 
C 1754 2713 1997 2553 2150 2329 
C 2349 2028 2349 1606 2349 1408 
C 2349 1158 2336 774 2163 467 
C 1984 172 1709 51 1466 51 
z
" transform="scale(0.015625)"/>
       <path id="CMR17-75" d="M 1882 2745 
L 1882 2579 
C 2259 2579 2317 2540 2317 2229 
L 2317 1053 
C 2317 510 2029 38 1555 38 
C 1030 38 986 355 986 691 
L 986 2816 
L 211 2745 
L 211 2579 
C 467 2579 640 2579 646 2320 
L 646 1079 
C 646 646 646 368 813 187 
C 896 103 1056 -64 1517 -64 
C 2061 -64 2272 400 2323 536 
L 2330 536 
L 2330 -64 
L 3091 -13 
L 3091 154 
C 2714 154 2656 193 2656 503 
L 2656 2816 
L 1882 2745 
z
" transform="scale(0.015625)"/>
       <path id="CMR17-6e" d="M 2656 1954 
C 2656 2282 2592 2816 1837 2816 
C 1331 2816 1069 2424 973 2166 
L 966 2166 
L 966 2816 
L 211 2745 
L 211 2578 
C 589 2578 646 2540 646 2231 
L 646 443 
C 646 198 621 166 211 166 
L 211 0 
C 365 12 646 12 813 12 
C 979 12 1267 12 1421 0 
L 1421 166 
C 1011 166 986 192 986 443 
L 986 1678 
C 986 2269 1344 2713 1792 2713 
C 2266 2713 2317 2289 2317 1980 
L 2317 443 
C 2317 198 2291 166 1882 166 
L 1882 0 
C 2035 12 2317 12 2483 12 
C 2650 12 2938 12 3091 0 
L 3091 166 
C 2682 166 2656 192 2656 443 
L 2656 1954 
z
" transform="scale(0.015625)"/>
       <path id="CMR17-64" d="M 1869 4345 
L 1869 4179 
C 2246 4179 2304 4141 2304 3843 
L 2304 2371 
C 2278 2403 2016 2816 1498 2816 
C 845 2816 211 2228 211 1376 
C 211 529 806 -64 1434 -64 
C 1978 -64 2259 361 2291 406 
L 2291 -64 
L 3066 -13 
L 3066 154 
C 2688 154 2630 193 2630 503 
L 2630 4416 
L 1869 4345 
z
M 2291 762 
C 2291 568 2176 393 2029 264 
C 1811 70 1594 38 1472 38 
C 1286 38 621 135 621 1369 
C 621 2636 1363 2713 1530 2713 
C 1824 2713 2061 2545 2208 2313 
C 2291 2177 2291 2157 2291 2041 
L 2291 762 
z
" transform="scale(0.015625)"/>
       <path id="CMR17-61" d="M 2304 1656 
C 2304 2048 2304 2275 2035 2534 
C 1798 2751 1523 2816 1306 2816 
C 800 2816 435 2408 435 1977 
C 435 1740 627 1728 666 1728 
C 749 1728 896 1779 896 1958 
C 896 2118 774 2188 666 2188 
C 640 2188 608 2182 589 2176 
C 723 2594 1069 2713 1293 2713 
C 1613 2713 1965 2421 1965 1875 
L 1965 1632 
C 1587 1619 1133 1568 774 1373 
C 371 1147 256 822 256 576 
C 256 77 832 -64 1171 -64 
C 1523 -64 1850 135 1990 505 
C 2003 219 2182 -39 2464 -39 
C 2598 -39 2938 51 2938 563 
L 2938 926 
L 2822 926 
L 2822 557 
C 2822 161 2650 109 2566 109 
C 2304 109 2304 446 2304 732 
L 2304 1656 
z
M 1965 887 
C 1965 323 1568 38 1216 38 
C 896 38 646 278 646 576 
C 646 771 730 1114 1101 1322 
C 1408 1497 1760 1523 1965 1536 
L 1965 887 
z
" transform="scale(0.015625)"/>
       <path id="CMR17-72" d="M 960 1517 
C 960 2134 1222 2713 1702 2713 
C 1747 2713 1792 2707 1837 2687 
C 1837 2687 1696 2642 1696 2475 
C 1696 2321 1818 2257 1914 2257 
C 1990 2257 2131 2302 2131 2482 
C 2131 2687 1926 2816 1709 2816 
C 1222 2816 1011 2340 947 2115 
L 941 2115 
L 941 2816 
L 198 2745 
L 198 2578 
C 576 2578 634 2540 634 2231 
L 634 443 
C 634 198 608 166 198 166 
L 198 0 
C 352 12 646 12 813 12 
C 998 12 1325 12 1498 0 
L 1498 166 
C 1037 166 960 166 960 455 
L 960 1517 
z
" transform="scale(0.015625)"/>
       <path id="CMR17-79" d="M 2496 2183 
C 2656 2579 2944 2585 3034 2585 
L 3034 2752 
C 2912 2745 2752 2739 2630 2739 
C 2496 2739 2285 2739 2157 2752 
L 2157 2585 
C 2400 2566 2406 2384 2406 2332 
C 2406 2268 2394 2235 2362 2158 
L 1664 409 
L 902 2300 
C 870 2378 870 2423 870 2430 
C 870 2572 1018 2585 1171 2585 
L 1171 2752 
C 1018 2739 742 2739 582 2739 
C 410 2739 205 2739 64 2752 
L 64 2585 
C 410 2585 448 2553 531 2345 
L 1485 -31 
C 1197 -795 1030 -1242 627 -1242 
C 557 -1242 397 -1223 282 -1106 
C 429 -1093 493 -1002 493 -892 
C 493 -782 416 -685 288 -685 
C 147 -685 77 -782 77 -899 
C 77 -1158 339 -1344 627 -1344 
C 998 -1344 1229 -983 1357 -659 
L 2496 2183 
z
" transform="scale(0.015625)"/>
       <path id="CMR17-44" d="M 333 4352 
L 333 4185 
C 774 4185 845 4185 845 3898 
L 845 453 
C 845 166 774 166 333 166 
L 333 0 
L 2368 0 
C 3398 0 4224 943 4224 2140 
C 4224 3344 3411 4352 2368 4352 
L 333 4352 
z
M 1523 166 
C 1267 166 1254 198 1254 414 
L 1254 3936 
C 1254 4153 1267 4185 1523 4185 
L 2240 4185 
C 2771 4185 3750 3873 3750 2140 
C 3750 1242 3488 879 3366 707 
C 3213 510 2848 166 2240 166 
L 1523 166 
z
" transform="scale(0.015625)"/>
       <path id="CMR17-74" d="M 966 2585 
L 1862 2585 
L 1862 2752 
L 966 2752 
L 966 3968 
L 851 3968 
C 838 3292 614 2700 70 2687 
L 70 2585 
L 627 2585 
L 627 778 
C 627 655 627 -64 1370 -64 
C 1747 -64 1965 308 1965 784 
L 1965 1151 
L 1850 1151 
L 1850 790 
C 1850 347 1677 51 1408 51 
C 1222 51 966 179 966 765 
L 966 2585 
z
" transform="scale(0.015625)"/>
      </defs>
      <use xlink:href="#CMR17-42" transform="scale(0.996264)"/>
      <use xlink:href="#CMR17-6f" transform="translate(65.188754 0)scale(0.996264)"/>
      <use xlink:href="#CMR17-75" transform="translate(110.879232 0)scale(0.996264)"/>
      <use xlink:href="#CMR17-6e" transform="translate(161.774601 0)scale(0.996264)"/>
      <use xlink:href="#CMR17-64" transform="translate(212.669971 0)scale(0.996264)"/>
      <use xlink:href="#CMR17-61" transform="translate(263.565341 0)scale(0.996264)"/>
      <use xlink:href="#CMR17-72" transform="translate(309.255818 0)scale(0.996264)"/>
      <use xlink:href="#CMR17-79" transform="translate(344.536586 0)scale(0.996264)"/>
      <use xlink:href="#CMR17-44" transform="translate(422.905468 0)scale(0.996264)"/>
      <use xlink:href="#CMR17-61" transform="translate(493.299024 0)scale(0.996264)"/>
      <use xlink:href="#CMR17-74" transform="translate(538.989501 0)scale(0.996264)"/>
      <use xlink:href="#CMR17-61" transform="translate(574.270269 0)scale(0.996264)"/>
     </g>
    </g>
   </g>
   <g id="matplotlib.axis_2">
    <g id="ytick_1">
     <g id="line2d_10">
      <defs>
       <path id="m6327b8350b" d="M 0 0 
L -3.5 0 
" style="stroke: #000000; stroke-width: 0.8"/>
      </defs>
      <g>
       <use xlink:href="#m6327b8350b" x="62.757554" y="271.737628" style="stroke: #000000; stroke-width: 0.8"/>
      </g>
     </g>
     <g id="text_11">
      <!-- $\mathdefault{0.0009}$ -->
      <g transform="translate(28.083469 275.196877)scale(0.1 -0.1)">
       <defs>
        <path id="CMMI12-3a" d="M 1178 307 
C 1178 492 1024 620 870 620 
C 685 620 557 467 557 313 
C 557 128 710 0 864 0 
C 1050 0 1178 153 1178 307 
z
" transform="scale(0.015625)"/>
        <path id="CMR17-39" d="M 2253 1871 
C 2253 448 1670 25 1190 25 
C 1043 25 685 43 538 281 
C 704 256 826 345 826 505 
C 826 678 685 736 595 736 
C 538 736 365 710 365 492 
C 365 68 742 -128 1203 -128 
C 1939 -128 2688 665 2688 2090 
C 2688 3857 1971 4224 1485 4224 
C 851 4224 243 3664 243 2800 
C 243 2000 762 1408 1414 1408 
C 1952 1408 2189 1910 2253 2122 
L 2253 1871 
z
M 1427 1510 
C 1254 1510 1011 1542 813 1929 
C 678 2181 678 2477 678 2793 
C 678 3174 678 3438 858 3722 
C 947 3857 1114 4076 1485 4076 
C 2240 4076 2240 2909 2240 2651 
C 2240 2193 2035 1510 1427 1510 
z
" transform="scale(0.015625)"/>
       </defs>
       <use xlink:href="#CMR17-30" transform="scale(0.996264)"/>
       <use xlink:href="#CMMI12-3a" transform="translate(45.690477 0)scale(0.996264)"/>
       <use xlink:href="#CMR17-30" transform="translate(72.787654 0)scale(0.996264)"/>
       <use xlink:href="#CMR17-30" transform="translate(118.478131 0)scale(0.996264)"/>
       <use xlink:href="#CMR17-30" transform="translate(164.168608 0)scale(0.996264)"/>
       <use xlink:href="#CMR17-39" transform="translate(209.859086 0)scale(0.996264)"/>
      </g>
     </g>
    </g>
    <g id="ytick_2">
     <g id="line2d_11">
      <g>
       <use xlink:href="#m6327b8350b" x="62.757554" y="211.873817" style="stroke: #000000; stroke-width: 0.8"/>
      </g>
     </g>
     <g id="text_12">
      <!-- $\mathdefault{0.0010}$ -->
      <g transform="translate(28.083469 215.333066)scale(0.1 -0.1)">
       <use xlink:href="#CMR17-30" transform="scale(0.996264)"/>
       <use xlink:href="#CMMI12-3a" transform="translate(45.690477 0)scale(0.996264)"/>
       <use xlink:href="#CMR17-30" transform="translate(72.787654 0)scale(0.996264)"/>
       <use xlink:href="#CMR17-30" transform="translate(118.478131 0)scale(0.996264)"/>
       <use xlink:href="#CMR17-31" transform="translate(164.168608 0)scale(0.996264)"/>
       <use xlink:href="#CMR17-30" transform="translate(209.859086 0)scale(0.996264)"/>
      </g>
     </g>
    </g>
    <g id="ytick_3">
     <g id="line2d_12">
      <g>
       <use xlink:href="#m6327b8350b" x="62.757554" y="152.010007" style="stroke: #000000; stroke-width: 0.8"/>
      </g>
     </g>
     <g id="text_13">
      <!-- $\mathdefault{0.0011}$ -->
      <g transform="translate(28.083469 155.469256)scale(0.1 -0.1)">
       <use xlink:href="#CMR17-30" transform="scale(0.996264)"/>
       <use xlink:href="#CMMI12-3a" transform="translate(45.690477 0)scale(0.996264)"/>
       <use xlink:href="#CMR17-30" transform="translate(72.787654 0)scale(0.996264)"/>
       <use xlink:href="#CMR17-30" transform="translate(118.478131 0)scale(0.996264)"/>
       <use xlink:href="#CMR17-31" transform="translate(164.168608 0)scale(0.996264)"/>
       <use xlink:href="#CMR17-31" transform="translate(209.859086 0)scale(0.996264)"/>
      </g>
     </g>
    </g>
    <g id="ytick_4">
     <g id="line2d_13">
      <g>
       <use xlink:href="#m6327b8350b" x="62.757554" y="92.146196" style="stroke: #000000; stroke-width: 0.8"/>
      </g>
     </g>
     <g id="text_14">
      <!-- $\mathdefault{0.0012}$ -->
      <g transform="translate(28.083469 95.605445)scale(0.1 -0.1)">
       <use xlink:href="#CMR17-30" transform="scale(0.996264)"/>
       <use xlink:href="#CMMI12-3a" transform="translate(45.690477 0)scale(0.996264)"/>
       <use xlink:href="#CMR17-30" transform="translate(72.787654 0)scale(0.996264)"/>
       <use xlink:href="#CMR17-30" transform="translate(118.478131 0)scale(0.996264)"/>
       <use xlink:href="#CMR17-31" transform="translate(164.168608 0)scale(0.996264)"/>
       <use xlink:href="#CMR17-32" transform="translate(209.859086 0)scale(0.996264)"/>
      </g>
     </g>
    </g>
    <g id="ytick_5">
     <g id="line2d_14">
      <g>
       <use xlink:href="#m6327b8350b" x="62.757554" y="32.282385" style="stroke: #000000; stroke-width: 0.8"/>
      </g>
     </g>
     <g id="text_15">
      <!-- $\mathdefault{0.0013}$ -->
      <g transform="translate(28.083469 35.741634)scale(0.1 -0.1)">
       <defs>
        <path id="CMR17-33" d="M 1414 2176 
C 1984 2176 2234 1673 2234 1094 
C 2234 322 1824 25 1453 25 
C 1114 25 563 193 390 691 
C 422 678 454 678 486 678 
C 640 678 755 780 755 947 
C 755 1132 614 1216 486 1216 
C 378 1216 211 1164 211 927 
C 211 335 787 -128 1466 -128 
C 2176 -128 2720 432 2720 1087 
C 2720 1718 2208 2176 1600 2246 
C 2086 2347 2554 2776 2554 3353 
C 2554 3856 2048 4224 1472 4224 
C 890 4224 378 3862 378 3347 
C 378 3123 544 3084 627 3084 
C 762 3084 877 3167 877 3334 
C 877 3500 762 3584 627 3584 
C 602 3584 570 3584 544 3571 
C 730 3999 1235 4076 1459 4076 
C 1683 4076 2106 3966 2106 3347 
C 2106 3167 2080 2851 1862 2574 
C 1670 2329 1453 2316 1242 2297 
C 1210 2297 1062 2284 1037 2284 
C 992 2278 966 2272 966 2227 
C 966 2182 973 2176 1101 2176 
L 1414 2176 
z
" transform="scale(0.015625)"/>
       </defs>
       <use xlink:href="#CMR17-30" transform="scale(0.996264)"/>
       <use xlink:href="#CMMI12-3a" transform="translate(45.690477 0)scale(0.996264)"/>
       <use xlink:href="#CMR17-30" transform="translate(72.787654 0)scale(0.996264)"/>
       <use xlink:href="#CMR17-30" transform="translate(118.478131 0)scale(0.996264)"/>
       <use xlink:href="#CMR17-31" transform="translate(164.168608 0)scale(0.996264)"/>
       <use xlink:href="#CMR17-33" transform="translate(209.859086 0)scale(0.996264)"/>
      </g>
     </g>
    </g>
    <g id="text_16">
     <!-- Strain -->
     <g transform="translate(21.177725 175.740394)rotate(-90)scale(0.15 -0.15)">
      <defs>
       <path id="CMR17-53" d="M 2803 4351 
C 2803 4467 2797 4473 2758 4473 
C 2720 4473 2707 4447 2682 4390 
L 2490 3965 
C 2246 4320 1875 4480 1472 4480 
C 819 4480 294 3958 294 3301 
C 294 3101 339 2817 557 2546 
C 794 2250 1018 2198 1530 2063 
C 1722 2011 2042 1927 2106 1901 
C 2470 1747 2662 1360 2662 999 
C 2662 534 2336 38 1779 38 
C 1094 38 454 425 410 1328 
C 403 1431 397 1437 352 1437 
C 301 1437 294 1431 294 1302 
L 294 0 
C 294 -116 301 -122 339 -122 
C 384 -122 397 -90 486 109 
C 493 128 493 141 614 386 
C 934 -39 1472 -128 1779 -128 
C 2477 -128 2970 457 2970 1141 
C 2970 1476 2848 1734 2778 1850 
C 2509 2263 2221 2340 1914 2417 
C 1869 2437 1856 2437 1498 2527 
C 1152 2617 1005 2662 845 2836 
C 666 3036 602 3243 602 3449 
C 602 3868 934 4326 1478 4326 
C 2157 4326 2579 3842 2675 3036 
C 2694 2920 2701 2914 2746 2914 
C 2803 2914 2803 2933 2803 3043 
L 2803 4351 
z
" transform="scale(0.015625)"/>
       <path id="CMR17-69" d="M 992 3961 
C 992 4102 877 4224 730 4224 
C 589 4224 467 4108 467 3961 
C 467 3820 582 3699 730 3699 
C 870 3699 992 3814 992 3961 
z
M 243 2745 
L 243 2579 
C 602 2579 653 2540 653 2231 
L 653 443 
C 653 198 627 166 218 166 
L 218 0 
C 371 12 646 12 806 12 
C 960 12 1222 12 1370 0 
L 1370 166 
C 992 166 979 205 979 436 
L 979 2816 
L 243 2745 
z
" transform="scale(0.015625)"/>
      </defs>
      <use xlink:href="#CMR17-53" transform="scale(0.996264)"/>
      <use xlink:href="#CMR17-74" transform="translate(50.89537 0)scale(0.996264)"/>
      <use xlink:href="#CMR17-72" transform="translate(86.176138 0)scale(0.996264)"/>
      <use xlink:href="#CMR17-61" transform="translate(121.456905 0)scale(0.996264)"/>
      <use xlink:href="#CMR17-69" transform="translate(167.147382 0)scale(0.996264)"/>
      <use xlink:href="#CMR17-6e" transform="translate(192.018441 0)scale(0.996264)"/>
     </g>
    </g>
   </g>
   <g id="line2d_15">
    <path d="M 80.359484 205.882925 
L 82.128522 57.194594 
L 83.89756 191.681684 
L 85.666598 231.061999 
L 87.435636 200.937565 
L 89.204674 109.79267 
L 90.973712 217.581252 
L 92.74275 209.236528 
L 94.511789 231.809589 
L 96.280827 159.939785 
L 98.049865 190.347932 
L 99.818903 277.901437 
L 101.587941 262.310294 
L 103.356979 225.052084 
L 105.126017 179.285807 
L 106.895055 222.68476 
L 108.664094 143.824035 
L 110.433132 164.277593 
L 112.20217 208.047056 
L 113.971208 189.851149 
L 115.740246 237.327276 
L 117.509284 190.947177 
L 121.04736 200.451297 
L 122.816399 232.010501 
L 124.585437 246.20352 
L 126.354475 288.439906 
L 128.123513 253.053601 
L 129.892551 278.765728 
L 131.661589 202.165791 
L 133.430627 165.939347 
L 135.199665 87.310412 
L 136.968704 139.75923 
L 138.737742 196.867581 
L 140.50678 210.498763 
L 142.275818 206.440571 
L 144.044856 240.631534 
L 145.813894 196.210772 
L 147.582932 165.12723 
L 149.35197 189.312303 
L 151.121009 261.315908 
L 152.890047 76.014319 
L 154.659085 200.351287 
L 156.428123 169.272545 
L 158.197161 206.423924 
L 159.966199 106.266885 
L 161.735237 134.744456 
L 163.504275 113.281257 
L 165.273314 176.016203 
L 167.042352 94.959861 
L 168.81139 160.22979 
L 170.580428 194.30684 
L 172.349466 142.37535 
L 174.118504 132.440979 
L 175.887542 135.585004 
L 177.65658 207.55713 
L 179.425619 221.460406 
L 181.194657 138.748065 
L 182.963695 271.227216 
L 184.732733 202.346335 
L 188.270809 88.056696 
L 190.039847 122.448725 
L 191.808885 140.784884 
L 193.577924 134.320369 
L 195.346962 123.552775 
L 197.116 141.228203 
L 198.885038 117.651612 
L 200.654076 134.343012 
L 202.423114 98.245464 
L 204.192152 237.973451 
L 205.961191 154.814093 
L 207.730229 139.744658 
L 209.499267 193.958265 
L 211.268305 181.509053 
L 213.037343 213.281784 
L 214.806381 165.34766 
L 216.575419 92.10927 
L 218.344457 139.209161 
L 220.113496 103.439676 
L 221.882534 239.273482 
L 223.651572 227.276998 
L 225.42061 188.114966 
L 227.189648 163.124572 
L 228.958686 166.607739 
L 230.727724 148.59289 
L 232.496762 278.55442 
L 234.265801 246.503702 
L 236.034839 72.149077 
L 237.803877 122.989292 
L 239.572915 95.058663 
L 241.341953 161.62883 
L 243.110991 67.240447 
L 244.880029 220.816343 
L 246.649067 172.260307 
L 248.418106 215.648816 
L 250.187144 95.679605 
L 251.956182 128.598127 
L 253.72522 208.658571 
L 255.494258 136.240195 
L 257.263296 226.083019 
L 259.032334 201.23857 
L 260.801372 228.165394 
L 262.570411 138.975895 
L 264.339449 256.235365 
L 266.108487 143.908238 
L 267.877525 219.30186 
L 269.646563 145.760037 
L 271.415601 211.285817 
L 273.184639 106.590358 
L 274.953677 171.86414 
L 276.722716 97.199292 
L 278.491754 199.369419 
L 280.260792 195.314548 
L 282.02983 176.756127 
L 283.798868 124.055879 
L 285.567906 202.816916 
L 289.105982 109.251095 
L 290.875021 138.871465 
L 292.644059 82.450953 
L 294.413097 174.358515 
L 296.182135 114.463784 
L 297.951173 168.153756 
L 299.720211 210.177449 
L 301.489249 194.775119 
L 303.258287 171.290187 
L 305.027326 120.023473 
L 306.796364 143.960898 
L 308.565402 151.357751 
L 310.33444 206.663669 
L 312.103478 110.371651 
L 313.872516 118.879088 
L 315.641554 238.156229 
L 317.410592 122.948459 
L 319.179631 132.320266 
L 320.948669 159.962621 
L 322.717707 173.335261 
L 324.486745 222.030549 
L 326.255783 244.975853 
L 328.024821 197.783228 
L 329.793859 126.051341 
L 331.562897 111.35967 
L 333.331936 157.058619 
L 335.100974 209.41078 
L 336.870012 239.423631 
L 338.63905 231.445268 
L 340.408088 154.238531 
L 342.177126 273.535135 
L 343.946164 207.673633 
L 345.715202 236.269139 
L 347.484241 246.239443 
L 349.253279 202.399353 
L 351.022317 133.254146 
L 352.791355 105.698235 
L 354.560393 125.353939 
L 356.329431 97.872524 
L 358.098469 205.652068 
L 359.867507 215.526676 
L 361.636546 227.634169 
L 363.405584 219.106985 
L 365.174622 150.351185 
L 366.94366 228.309494 
L 368.712698 102.479545 
L 370.481736 219.623894 
L 372.250774 218.093188 
L 374.019812 137.643559 
L 375.788851 220.233408 
L 377.557889 127.910265 
L 379.326927 267.957137 
L 381.095965 135.983201 
L 382.865003 128.078699 
L 386.403079 214.496032 
L 388.172117 103.835888 
L 389.941156 125.505825 
L 391.710194 123.283912 
L 393.479232 197.088992 
L 395.24827 257.676515 
L 397.017308 154.398177 
L 398.786346 200.531443 
L 400.555384 232.874256 
L 402.324423 220.341532 
L 404.093461 111.31873 
L 405.862499 204.814292 
L 407.631537 207.666885 
L 409.400575 182.283932 
L 411.169613 168.636935 
L 412.938651 254.079833 
L 414.707689 112.4523 
L 416.476728 141.86541 
L 418.245766 265.234031 
L 420.014804 266.054779 
L 421.783842 94.798034 
L 423.55288 161.547742 
L 425.321918 185.658077 
L 427.090956 261.058475 
L 428.859994 171.886154 
L 430.629033 148.398418 
L 432.398071 163.882662 
L 432.398071 163.882662 
" clip-path="url(#p4ca1d99b5d)" style="fill: none; stroke: #3c74ff; stroke-width: 1.5; stroke-linecap: square"/>
   </g>
   <g id="line2d_16">
    <path d="M 80.359484 181.31566 
L 82.128522 48.260859 
L 83.89756 171.43185 
L 85.666598 118.599422 
L 87.435636 178.854849 
L 89.204674 87.801049 
L 90.973712 208.252658 
L 92.74275 187.429581 
L 94.511789 138.398284 
L 98.049865 160.324558 
L 99.818903 253.394401 
L 101.587941 253.193829 
L 103.356979 215.002875 
L 105.126017 171.140877 
L 106.895055 201.294266 
L 108.664094 143.406957 
L 110.433132 125.815284 
L 112.20217 180.739423 
L 113.971208 144.706661 
L 115.740246 240.266052 
L 117.509284 120.841368 
L 119.278322 194.026386 
L 121.04736 188.478113 
L 122.816399 223.820262 
L 124.585437 170.898399 
L 126.354475 236.422763 
L 128.123513 213.875943 
L 129.892551 162.395034 
L 131.661589 188.879762 
L 133.430627 144.448459 
L 135.199665 80.663566 
L 136.968704 109.253914 
L 138.737742 180.264158 
L 140.50678 176.468338 
L 142.275818 206.494097 
L 144.044856 226.639984 
L 145.813894 191.981283 
L 147.582932 154.64461 
L 149.35197 167.137042 
L 151.121009 165.127809 
L 152.890047 74.597344 
L 154.659085 194.549016 
L 156.428123 115.71943 
L 158.197161 198.632632 
L 159.966199 85.892367 
L 161.735237 99.56404 
L 163.504275 117.530941 
L 165.273314 166.343337 
L 167.042352 72.319501 
L 168.81139 126.041638 
L 170.580428 172.741279 
L 172.349466 130.823405 
L 174.118504 126.684713 
L 175.887542 136.873854 
L 177.65658 178.106503 
L 179.425619 210.337696 
L 181.194657 118.073245 
L 182.963695 186.426564 
L 184.732733 184.905883 
L 186.501771 140.321289 
L 188.270809 86.972672 
L 190.039847 116.109589 
L 191.808885 110.665299 
L 193.577924 69.33179 
L 195.346962 121.675003 
L 197.116 122.716249 
L 198.885038 120.395431 
L 200.654076 122.753836 
L 202.423114 100.353305 
L 204.192152 212.715009 
L 205.961191 141.299625 
L 207.730229 96.824462 
L 209.499267 194.648057 
L 211.268305 154.382528 
L 213.037343 188.623683 
L 214.806381 114.593444 
L 216.575419 75.268285 
L 218.344457 44.469029 
L 220.113496 90.178138 
L 221.882534 184.113337 
L 223.651572 103.003568 
L 225.42061 142.74975 
L 227.189648 158.604386 
L 228.958686 138.962095 
L 230.727724 72.147046 
L 232.496762 120.085931 
L 234.265801 138.412145 
L 236.034839 24.020948 
L 237.803877 84.186148 
L 239.572915 83.330135 
L 241.341953 116.004608 
L 243.110991 73.134425 
L 244.880029 196.439972 
L 246.649067 152.13213 
L 248.418106 214.863989 
L 250.187144 92.425788 
L 251.956182 95.289105 
L 253.72522 185.667518 
L 255.494258 88.807989 
L 257.263296 204.102763 
L 259.032334 173.178454 
L 260.801372 182.819932 
L 262.570411 97.64685 
L 264.339449 187.744198 
L 266.108487 119.6263 
L 267.877525 174.594606 
L 269.646563 126.840376 
L 271.415601 122.04384 
L 273.184639 83.470068 
L 274.953677 163.000197 
L 276.722716 95.767221 
L 278.491754 179.774525 
L 280.260792 192.779223 
L 282.02983 178.469819 
L 283.798868 100.810787 
L 285.567906 191.124057 
L 287.336944 95.528177 
L 289.105982 33.283056 
L 290.875021 130.430521 
L 292.644059 79.069101 
L 294.413097 161.58076 
L 296.182135 74.809897 
L 297.951173 160.710166 
L 299.720211 196.764193 
L 301.489249 173.289197 
L 303.258287 156.875729 
L 305.027326 106.040229 
L 306.796364 140.588332 
L 308.565402 137.662257 
L 310.33444 174.532029 
L 312.103478 98.11319 
L 313.872516 116.107415 
L 315.641554 206.371145 
L 317.410592 132.447261 
L 319.179631 124.956908 
L 320.948669 160.533169 
L 322.717707 117.698133 
L 324.486745 180.787242 
L 326.255783 234.045864 
L 328.024821 195.832172 
L 329.793859 125.685573 
L 331.562897 98.434776 
L 333.331936 158.284537 
L 335.100974 197.454071 
L 336.870012 228.850221 
L 338.63905 202.141794 
L 340.408088 151.784932 
L 342.177126 198.692049 
L 343.946164 158.710827 
L 345.715202 221.518856 
L 347.484241 140.919579 
L 349.253279 181.192242 
L 351.022317 108.399179 
L 352.791355 79.110194 
L 354.560393 103.780088 
L 356.329431 38.861262 
L 358.098469 196.957593 
L 359.867507 206.623255 
L 361.636546 221.503427 
L 363.405584 215.923523 
L 365.174622 132.584792 
L 366.94366 153.93936 
L 368.712698 99.065551 
L 370.481736 200.468802 
L 372.250774 208.933577 
L 374.019812 112.733364 
L 375.788851 186.85491 
L 377.557889 99.453261 
L 379.326927 251.194074 
L 381.095965 99.330274 
L 382.865003 135.400273 
L 384.634041 142.527235 
L 386.403079 192.06644 
L 388.172117 111.271085 
L 389.941156 93.653979 
L 391.710194 82.046474 
L 393.479232 151.990434 
L 395.24827 201.79534 
L 397.017308 114.096863 
L 398.786346 194.572425 
L 400.555384 225.464377 
L 402.324423 206.125246 
L 404.093461 67.3017 
L 405.862499 193.259014 
L 407.631537 202.223051 
L 409.400575 167.319918 
L 411.169613 173.261345 
L 412.938651 236.966487 
L 414.707689 105.235265 
L 416.476728 115.036749 
L 418.245766 217.000502 
L 420.014804 250.119173 
L 421.783842 95.90724 
L 423.55288 138.327653 
L 425.321918 174.414132 
L 427.090956 147.444765 
L 428.859994 124.746478 
L 430.629033 44.18978 
L 432.398071 162.043365 
L 432.398071 162.043365 
" clip-path="url(#p4ca1d99b5d)" style="fill: none; stroke-dasharray: 5.55,2.4; stroke-dashoffset: 0; stroke: #eea219; stroke-width: 1.5"/>
   </g>
   <g id="patch_3">
    <path d="M 62.757554 301.660854 
L 62.757554 10.8 
" style="fill: none; stroke: #000000; stroke-width: 0.8; stroke-linejoin: miter; stroke-linecap: square"/>
   </g>
   <g id="patch_4">
    <path d="M 450 301.660854 
L 450 10.8 
" style="fill: none; stroke: #000000; stroke-width: 0.8; stroke-linejoin: miter; stroke-linecap: square"/>
   </g>
   <g id="patch_5">
    <path d="M 62.757554 301.660854 
L 450 301.660854 
" style="fill: none; stroke: #000000; stroke-width: 0.8; stroke-linejoin: miter; stroke-linecap: square"/>
   </g>
   <g id="patch_6">
    <path d="M 62.757554 10.8 
L 450 10.8 
" style="fill: none; stroke: #000000; stroke-width: 0.8; stroke-linejoin: miter; stroke-linecap: square"/>
   </g>
   <g id="legend_1">
    <g id="patch_7">
     <path d="M 297.641214 61.024057 
L 440.2 61.024057 
Q 443 61.024057 443 58.224057 
L 443 20.6 
Q 443 17.8 440.2 17.8 
L 297.641214 17.8 
Q 294.841214 17.8 294.841214 20.6 
L 294.841214 58.224057 
Q 294.841214 61.024057 297.641214 61.024057 
z
" style="fill: #ffffff; opacity: 0.8; stroke: #cccccc; stroke-linejoin: miter"/>
    </g>
    <g id="line2d_17">
     <path d="M 300.441214 28.3 
L 314.441214 28.3 
L 328.441214 28.3 
" style="fill: none; stroke: #3c74ff; stroke-width: 1.5; stroke-linecap: square"/>
    </g>
    <g id="text_17">
     <!-- Real values -->
     <g transform="translate(339.641214 33.2)scale(0.14 -0.14)">
      <defs>
       <path id="CMR17-52" d="M 2509 2156 
C 3117 2278 3629 2689 3629 3203 
C 3629 3806 2950 4352 2054 4352 
L 333 4352 
L 333 4185 
C 774 4185 845 4185 845 3896 
L 845 428 
C 845 140 774 140 333 140 
L 333 -26 
C 518 -13 851 -13 1050 -13 
C 1248 -13 1581 -13 1766 -26 
L 1766 140 
C 1325 140 1254 140 1254 428 
L 1254 2112 
L 2003 2112 
C 2368 2112 2573 1964 2662 1881 
C 2918 1632 2918 1459 2918 1024 
C 2918 595 2918 377 3110 160 
C 3354 -103 3680 -128 3821 -128 
C 4294 -128 4365 403 4365 512 
C 4365 550 4365 595 4307 595 
C 4256 595 4250 556 4250 531 
C 4218 115 4032 -26 3834 -26 
C 3482 -26 3443 377 3405 768 
C 3386 902 3373 998 3360 1139 
C 3322 1459 3270 1926 2509 2156 
z
M 1984 2214 
L 1254 2214 
L 1254 3935 
C 1254 4153 1267 4185 1523 4185 
L 1990 4185 
C 2522 4185 3142 3999 3142 3203 
C 3142 2374 2464 2214 1984 2214 
z
" transform="scale(0.015625)"/>
       <path id="CMR17-65" d="M 2438 1503 
C 2464 1529 2464 1542 2464 1606 
C 2464 2251 2118 2816 1389 2816 
C 710 2816 173 2175 173 1394 
C 173 554 781 -64 1459 -64 
C 2176 -64 2458 619 2458 755 
C 2458 800 2419 800 2406 800 
C 2362 800 2355 787 2330 709 
C 2189 270 1837 51 1504 51 
C 1229 51 954 206 781 490 
C 582 819 582 1200 582 1503 
L 2438 1503 
z
M 589 1600 
C 634 2511 1126 2713 1382 2713 
C 1818 2713 2112 2308 2118 1600 
L 589 1600 
z
" transform="scale(0.015625)"/>
       <path id="CMR17-6c" d="M 979 4416 
L 218 4345 
L 218 4179 
C 595 4179 653 4141 653 3835 
L 653 439 
C 653 198 627 166 218 166 
L 218 0 
C 371 12 653 12 813 12 
C 979 12 1261 12 1414 0 
L 1414 166 
C 1005 166 979 191 979 439 
L 979 4416 
z
" transform="scale(0.015625)"/>
       <path id="CMR17-76" d="M 2502 2173 
C 2560 2315 2662 2572 3034 2585 
L 3034 2752 
C 2912 2745 2752 2739 2630 2739 
C 2496 2739 2285 2739 2157 2752 
L 2157 2585 
C 2317 2572 2406 2495 2406 2328 
C 2406 2270 2406 2257 2368 2167 
L 1664 379 
L 902 2308 
C 864 2392 864 2405 864 2431 
C 864 2585 1075 2585 1171 2585 
L 1171 2752 
C 1018 2739 736 2739 576 2739 
C 403 2739 205 2739 64 2752 
L 64 2585 
C 307 2585 442 2585 518 2386 
L 1446 44 
C 1485 -52 1491 -64 1549 -64 
C 1606 -64 1613 -52 1651 44 
L 2502 2173 
z
" transform="scale(0.015625)"/>
       <path id="CMR17-73" d="M 1978 2688 
C 1978 2803 1971 2809 1933 2809 
C 1907 2809 1901 2803 1824 2707 
C 1805 2681 1747 2617 1728 2592 
C 1523 2809 1235 2816 1126 2816 
C 416 2816 160 2444 160 2073 
C 160 1497 813 1363 998 1324 
C 1402 1241 1542 1216 1677 1100 
C 1760 1024 1901 883 1901 652 
C 1901 384 1747 38 1158 38 
C 602 38 403 460 288 1024 
C 269 1113 269 1120 218 1120 
C 166 1120 160 1113 160 985 
L 160 64 
C 160 -52 166 -58 205 -58 
C 237 -58 243 -52 275 0 
C 314 57 410 211 448 275 
C 576 102 800 -64 1158 -64 
C 1792 -64 2131 281 2131 780 
C 2131 1107 1958 1280 1875 1356 
C 1683 1555 1459 1600 1190 1651 
C 838 1728 390 1817 390 2208 
C 390 2374 480 2726 1126 2726 
C 1811 2726 1850 2086 1862 1881 
C 1869 1849 1901 1843 1920 1843 
C 1978 1843 1978 1862 1978 1971 
L 1978 2688 
z
" transform="scale(0.015625)"/>
      </defs>
      <use xlink:href="#CMR17-52" transform="scale(0.996264)"/>
      <use xlink:href="#CMR17-65" transform="translate(67.791102 0)scale(0.996264)"/>
      <use xlink:href="#CMR17-61" transform="translate(108.276762 0)scale(0.996264)"/>
      <use xlink:href="#CMR17-6c" transform="translate(153.96724 0)scale(0.996264)"/>
      <use xlink:href="#CMR17-76" transform="translate(208.914264 0)scale(0.996264)"/>
      <use xlink:href="#CMR17-61" transform="translate(252.002364 0)scale(0.996264)"/>
      <use xlink:href="#CMR17-6c" transform="translate(297.692841 0)scale(0.996264)"/>
      <use xlink:href="#CMR17-75" transform="translate(322.563899 0)scale(0.996264)"/>
      <use xlink:href="#CMR17-65" transform="translate(373.459269 0)scale(0.996264)"/>
      <use xlink:href="#CMR17-73" transform="translate(413.944929 0)scale(0.996264)"/>
     </g>
    </g>
    <g id="line2d_18">
     <path d="M 300.441214 47.812028 
L 314.441214 47.812028 
L 328.441214 47.812028 
" style="fill: none; stroke-dasharray: 5.55,2.4; stroke-dashoffset: 0; stroke: #eea219; stroke-width: 1.5"/>
    </g>
    <g id="text_18">
     <!-- Predicted values -->
     <g transform="translate(339.641214 52.712028)scale(0.14 -0.14)">
      <defs>
       <path id="CMR17-50" d="M 1267 2048 
L 2291 2048 
C 3117 2048 3718 2583 3718 3187 
C 3718 3791 3130 4352 2291 4352 
L 333 4352 
L 333 4185 
C 774 4185 845 4185 845 3899 
L 845 453 
C 845 166 774 166 333 166 
L 333 0 
C 518 12 858 12 1056 12 
C 1254 12 1594 12 1779 0 
L 1779 166 
C 1338 166 1267 166 1267 453 
L 1267 2048 
z
M 1254 2182 
L 1254 3937 
C 1254 4153 1267 4185 1523 4185 
L 2170 4185 
C 2995 4185 3232 3715 3232 3187 
C 3232 2608 2950 2182 2170 2182 
L 1254 2182 
z
" transform="scale(0.015625)"/>
       <path id="CMR17-63" d="M 2234 2240 
C 2112 2240 1933 2240 1933 2015 
C 1933 1836 2080 1785 2163 1785 
C 2208 1785 2394 1804 2394 2028 
C 2394 2476 1958 2816 1466 2816 
C 787 2816 211 2201 211 1379 
C 211 521 813 -64 1466 -64 
C 2259 -64 2458 676 2458 747 
C 2458 773 2451 792 2406 792 
C 2362 792 2355 786 2330 702 
C 2163 180 1798 51 1523 51 
C 1114 51 621 431 621 1385 
C 621 2358 1094 2700 1472 2700 
C 1722 2700 2093 2582 2234 2240 
z
" transform="scale(0.015625)"/>
      </defs>
      <use xlink:href="#CMR17-50" transform="scale(0.996264)"/>
      <use xlink:href="#CMR17-72" transform="translate(62.586301 0)scale(0.996264)"/>
      <use xlink:href="#CMR17-65" transform="translate(97.867068 0)scale(0.996264)"/>
      <use xlink:href="#CMR17-64" transform="translate(138.352729 0)scale(0.996264)"/>
      <use xlink:href="#CMR17-69" transform="translate(189.248099 0)scale(0.996264)"/>
      <use xlink:href="#CMR17-63" transform="translate(214.119157 0)scale(0.996264)"/>
      <use xlink:href="#CMR17-74" transform="translate(254.604818 0)scale(0.996264)"/>
      <use xlink:href="#CMR17-65" transform="translate(289.885585 0)scale(0.996264)"/>
      <use xlink:href="#CMR17-64" transform="translate(330.371246 0)scale(0.996264)"/>
      <use xlink:href="#CMR17-76" transform="translate(411.342582 0)scale(0.996264)"/>
      <use xlink:href="#CMR17-61" transform="translate(454.430681 0)scale(0.996264)"/>
      <use xlink:href="#CMR17-6c" transform="translate(500.121158 0)scale(0.996264)"/>
      <use xlink:href="#CMR17-75" transform="translate(524.992217 0)scale(0.996264)"/>
      <use xlink:href="#CMR17-65" transform="translate(575.887586 0)scale(0.996264)"/>
      <use xlink:href="#CMR17-73" transform="translate(616.373247 0)scale(0.996264)"/>
     </g>
    </g>
   </g>
  </g>
 </g>
 <defs>
  <clipPath id="p4ca1d99b5d">
   <rect x="62.757554" y="10.8" width="387.242446" height="290.860854"/>
  </clipPath>
 </defs>
</svg>
