<?xml version="1.0" encoding="utf-8" standalone="no"?>
<!DOCTYPE svg PUBLIC "-//W3C//DTD SVG 1.1//EN"
  "http://www.w3.org/Graphics/SVG/1.1/DTD/svg11.dtd">
<svg xmlns:xlink="http://www.w3.org/1999/xlink" width="460.8pt" height="345.6pt" viewBox="0 0 460.8 345.6" xmlns="http://www.w3.org/2000/svg" version="1.1">
 <metadata>
  <rdf:RDF xmlns:dc="http://purl.org/dc/elements/1.1/" xmlns:cc="http://creativecommons.org/ns#" xmlns:rdf="http://www.w3.org/1999/02/22-rdf-syntax-ns#">
   <cc:Work>
    <dc:type rdf:resource="http://purl.org/dc/dcmitype/StillImage"/>
    <dc:date>2023-03-08T11:55:27.055689</dc:date>
    <dc:format>image/svg+xml</dc:format>
    <dc:creator>
     <cc:Agent>
      <dc:title>Matplotlib v3.5.3, https://matplotlib.org/</dc:title>
     </cc:Agent>
    </dc:creator>
   </cc:Work>
  </rdf:RDF>
 </metadata>
 <defs>
  <style type="text/css">*{stroke-linejoin: round; stroke-linecap: butt}</style>
 </defs>
 <g id="figure_1">
  <g id="patch_1">
   <path d="M 0 345.6 
L 460.8 345.6 
L 460.8 0 
L 0 0 
z
" style="fill: #ffffff"/>
  </g>
  <g id="axes_1">
   <g id="patch_2">
    <path d="M 67.738889 301.660854 
L 450 301.660854 
L 450 10.8 
L 67.738889 10.8 
z
" style="fill: #ffffff"/>
   </g>
   <g id="matplotlib.axis_1">
    <g id="xtick_1">
     <g id="line2d_1">
      <defs>
       <path id="m95a73345bc" d="M 0 0 
L 0 3.5 
" style="stroke: #000000; stroke-width: 0.8"/>
      </defs>
      <g>
       <use xlink:href="#m95a73345bc" x="85.114394" y="301.660854" style="stroke: #000000; stroke-width: 0.8"/>
      </g>
     </g>
     <g id="text_1">
      <!-- $\mathdefault{0}$ -->
      <g transform="translate(82.623727 315.579352)scale(0.1 -0.1)">
       <defs>
        <path id="CMR17-30" d="M 2688 2038 
C 2688 2430 2682 3099 2413 3613 
C 2176 4063 1798 4224 1466 4224 
C 1158 4224 768 4082 525 3620 
C 269 3137 243 2539 243 2038 
C 243 1671 250 1112 448 623 
C 723 -39 1216 -128 1466 -128 
C 1760 -128 2208 -7 2470 604 
C 2662 1048 2688 1568 2688 2038 
z
M 1466 -26 
C 1056 -26 813 328 723 816 
C 653 1196 653 1749 653 2109 
C 653 2604 653 3015 736 3407 
C 858 3954 1216 4121 1466 4121 
C 1728 4121 2067 3947 2189 3420 
C 2272 3054 2278 2623 2278 2109 
C 2278 1691 2278 1176 2202 797 
C 2067 96 1690 -26 1466 -26 
z
" transform="scale(0.015625)"/>
       </defs>
       <use xlink:href="#CMR17-30" transform="scale(0.996264)"/>
      </g>
     </g>
    </g>
    <g id="xtick_2">
     <g id="line2d_2">
      <g>
       <use xlink:href="#m95a73345bc" x="128.771442" y="301.660854" style="stroke: #000000; stroke-width: 0.8"/>
      </g>
     </g>
     <g id="text_2">
      <!-- $\mathdefault{25}$ -->
      <g transform="translate(123.790107 315.579352)scale(0.1 -0.1)">
       <defs>
        <path id="CMR17-32" d="M 2669 990 
L 2554 990 
C 2490 537 2438 460 2413 422 
C 2381 371 1920 371 1830 371 
L 602 371 
C 832 620 1280 1073 1824 1596 
C 2214 1966 2669 2400 2669 3033 
C 2669 3788 2067 4224 1395 4224 
C 691 4224 262 3603 262 3027 
C 262 2777 448 2745 525 2745 
C 589 2745 781 2783 781 3007 
C 781 3206 614 3264 525 3264 
C 486 3264 448 3257 422 3244 
C 544 3788 915 4057 1306 4057 
C 1862 4057 2227 3616 2227 3033 
C 2227 2477 1901 1998 1536 1583 
L 262 147 
L 262 0 
L 2515 0 
L 2669 990 
z
" transform="scale(0.015625)"/>
        <path id="CMR17-35" d="M 730 3750 
C 794 3724 1056 3641 1325 3641 
C 1920 3641 2246 3961 2432 4140 
C 2432 4191 2432 4224 2394 4224 
C 2387 4224 2374 4224 2323 4198 
C 2099 4102 1837 4032 1517 4032 
C 1325 4032 1037 4055 723 4191 
C 653 4224 640 4224 634 4224 
C 602 4224 595 4217 595 4090 
L 595 2231 
C 595 2113 595 2080 659 2080 
C 691 2080 704 2093 736 2139 
C 941 2435 1222 2560 1542 2560 
C 1766 2560 2246 2415 2246 1293 
C 2246 1087 2246 716 2054 422 
C 1894 159 1645 25 1370 25 
C 947 25 518 319 403 812 
C 429 806 480 793 506 793 
C 589 793 749 838 749 1036 
C 749 1209 627 1280 506 1280 
C 358 1280 262 1190 262 1011 
C 262 454 704 -128 1382 -128 
C 2042 -128 2669 441 2669 1267 
C 2669 2054 2170 2662 1549 2662 
C 1222 2662 947 2540 730 2304 
L 730 3750 
z
" transform="scale(0.015625)"/>
       </defs>
       <use xlink:href="#CMR17-32" transform="scale(0.996264)"/>
       <use xlink:href="#CMR17-35" transform="translate(45.690477 0)scale(0.996264)"/>
      </g>
     </g>
    </g>
    <g id="xtick_3">
     <g id="line2d_3">
      <g>
       <use xlink:href="#m95a73345bc" x="172.42849" y="301.660854" style="stroke: #000000; stroke-width: 0.8"/>
      </g>
     </g>
     <g id="text_3">
      <!-- $\mathdefault{50}$ -->
      <g transform="translate(167.447155 315.579352)scale(0.1 -0.1)">
       <use xlink:href="#CMR17-35" transform="scale(0.996264)"/>
       <use xlink:href="#CMR17-30" transform="translate(45.690477 0)scale(0.996264)"/>
      </g>
     </g>
    </g>
    <g id="xtick_4">
     <g id="line2d_4">
      <g>
       <use xlink:href="#m95a73345bc" x="216.085538" y="301.660854" style="stroke: #000000; stroke-width: 0.8"/>
      </g>
     </g>
     <g id="text_4">
      <!-- $\mathdefault{75}$ -->
      <g transform="translate(211.104203 315.579352)scale(0.1 -0.1)">
       <defs>
        <path id="CMR17-37" d="M 2886 3955 
L 2886 4096 
L 1382 4096 
C 634 4096 621 4166 595 4288 
L 480 4288 
L 294 3104 
L 410 3104 
C 429 3226 474 3552 550 3673 
C 589 3724 1062 3724 1171 3724 
L 2579 3724 
L 1869 2670 
C 1395 1961 1069 1003 1069 166 
C 1069 89 1069 -128 1299 -128 
C 1530 -128 1530 89 1530 172 
L 1530 466 
C 1530 1514 1709 2204 2003 2644 
L 2886 3955 
z
" transform="scale(0.015625)"/>
       </defs>
       <use xlink:href="#CMR17-37" transform="scale(0.996264)"/>
       <use xlink:href="#CMR17-35" transform="translate(45.690477 0)scale(0.996264)"/>
      </g>
     </g>
    </g>
    <g id="xtick_5">
     <g id="line2d_5">
      <g>
       <use xlink:href="#m95a73345bc" x="259.742586" y="301.660854" style="stroke: #000000; stroke-width: 0.8"/>
      </g>
     </g>
     <g id="text_5">
      <!-- $\mathdefault{100}$ -->
      <g transform="translate(252.270583 315.579352)scale(0.1 -0.1)">
       <defs>
        <path id="CMR17-31" d="M 1702 4083 
C 1702 4217 1696 4224 1606 4224 
C 1357 3927 979 3833 621 3820 
C 602 3820 570 3820 563 3808 
C 557 3795 557 3782 557 3648 
C 755 3648 1088 3686 1344 3839 
L 1344 467 
C 1344 243 1331 166 781 166 
L 589 166 
L 589 0 
C 896 6 1216 12 1523 12 
C 1830 12 2150 6 2458 0 
L 2458 166 
L 2266 166 
C 1715 166 1702 236 1702 467 
L 1702 4083 
z
" transform="scale(0.015625)"/>
       </defs>
       <use xlink:href="#CMR17-31" transform="scale(0.996264)"/>
       <use xlink:href="#CMR17-30" transform="translate(45.690477 0)scale(0.996264)"/>
       <use xlink:href="#CMR17-30" transform="translate(91.380954 0)scale(0.996264)"/>
      </g>
     </g>
    </g>
    <g id="xtick_6">
     <g id="line2d_6">
      <g>
       <use xlink:href="#m95a73345bc" x="303.399633" y="301.660854" style="stroke: #000000; stroke-width: 0.8"/>
      </g>
     </g>
     <g id="text_6">
      <!-- $\mathdefault{125}$ -->
      <g transform="translate(295.927631 315.579352)scale(0.1 -0.1)">
       <use xlink:href="#CMR17-31" transform="scale(0.996264)"/>
       <use xlink:href="#CMR17-32" transform="translate(45.690477 0)scale(0.996264)"/>
       <use xlink:href="#CMR17-35" transform="translate(91.380954 0)scale(0.996264)"/>
      </g>
     </g>
    </g>
    <g id="xtick_7">
     <g id="line2d_7">
      <g>
       <use xlink:href="#m95a73345bc" x="347.056681" y="301.660854" style="stroke: #000000; stroke-width: 0.8"/>
      </g>
     </g>
     <g id="text_7">
      <!-- $\mathdefault{150}$ -->
      <g transform="translate(339.584678 315.579352)scale(0.1 -0.1)">
       <use xlink:href="#CMR17-31" transform="scale(0.996264)"/>
       <use xlink:href="#CMR17-35" transform="translate(45.690477 0)scale(0.996264)"/>
       <use xlink:href="#CMR17-30" transform="translate(91.380954 0)scale(0.996264)"/>
      </g>
     </g>
    </g>
    <g id="xtick_8">
     <g id="line2d_8">
      <g>
       <use xlink:href="#m95a73345bc" x="390.713729" y="301.660854" style="stroke: #000000; stroke-width: 0.8"/>
      </g>
     </g>
     <g id="text_8">
      <!-- $\mathdefault{175}$ -->
      <g transform="translate(383.241726 315.579352)scale(0.1 -0.1)">
       <use xlink:href="#CMR17-31" transform="scale(0.996264)"/>
       <use xlink:href="#CMR17-37" transform="translate(45.690477 0)scale(0.996264)"/>
       <use xlink:href="#CMR17-35" transform="translate(91.380954 0)scale(0.996264)"/>
      </g>
     </g>
    </g>
    <g id="xtick_9">
     <g id="line2d_9">
      <g>
       <use xlink:href="#m95a73345bc" x="434.370777" y="301.660854" style="stroke: #000000; stroke-width: 0.8"/>
      </g>
     </g>
     <g id="text_9">
      <!-- $\mathdefault{200}$ -->
      <g transform="translate(426.898774 315.579352)scale(0.1 -0.1)">
       <use xlink:href="#CMR17-32" transform="scale(0.996264)"/>
       <use xlink:href="#CMR17-30" transform="translate(45.690477 0)scale(0.996264)"/>
       <use xlink:href="#CMR17-30" transform="translate(91.380954 0)scale(0.996264)"/>
      </g>
     </g>
    </g>
    <g id="text_10">
     <!-- Inner Region Data -->
     <g transform="translate(203.098354 331.894255)scale(0.15 -0.15)">
      <defs>
       <path id="CMSS17-49" d="M 1094 4416 
L 557 4416 
L 557 0 
L 1094 0 
L 1094 4416 
z
" transform="scale(0.015625)"/>
       <path id="CMSS17-6e" d="M 2618 1878 
C 2618 2283 2522 2816 1798 2816 
C 1389 2816 1120 2604 941 2386 
L 941 2783 
L 474 2783 
L 474 0 
L 960 0 
L 960 1556 
C 960 1962 1114 2425 1549 2425 
C 2112 2425 2131 2045 2131 1826 
L 2131 0 
L 2618 0 
L 2618 1878 
z
" transform="scale(0.015625)"/>
       <path id="CMSS17-65" d="M 2502 1375 
C 2502 1587 2490 2001 2285 2347 
C 2061 2713 1696 2816 1421 2816 
C 755 2816 192 2184 192 1363 
C 192 579 774 -64 1510 -64 
C 1798 -64 2150 19 2470 249 
C 2470 275 2458 414 2451 421 
C 2451 433 2432 629 2432 655 
C 2125 408 1773 326 1517 326 
C 1107 326 666 667 646 1375 
L 2502 1375 
z
M 698 1728 
C 781 2086 1062 2425 1421 2425 
C 1517 2425 1965 2412 2080 1728 
L 698 1728 
z
" transform="scale(0.015625)"/>
       <path id="CMSS17-72" d="M 954 1369 
C 954 1974 1395 2379 1958 2392 
L 1958 2816 
C 1549 2809 1165 2604 934 2270 
L 934 2783 
L 480 2783 
L 480 0 
L 954 0 
L 954 1369 
z
" transform="scale(0.015625)"/>
       <path id="CMSS17-52" d="M 2522 2099 
L 2534 2105 
C 3533 2450 3539 3125 3539 3244 
C 3539 3838 2925 4416 2003 4416 
L 570 4416 
L 570 0 
L 1094 0 
L 1094 2041 
L 2035 2041 
L 3168 0 
L 3706 0 
L 2522 2099 
z
M 1094 2432 
L 1094 4057 
L 1933 4057 
C 2746 4057 3034 3607 3034 3244 
C 3034 2907 2778 2432 1933 2432 
L 1094 2432 
z
" transform="scale(0.015625)"/>
       <path id="CMSS17-67" d="M 2848 2816 
C 2483 2809 2170 2739 1914 2617 
C 1702 2783 1485 2816 1338 2816 
C 781 2816 358 2356 358 1824 
C 358 1481 550 1222 563 1209 
C 448 1049 384 876 384 684 
C 384 460 474 300 544 211 
C 211 6 166 -308 166 -429 
C 166 -896 749 -1280 1498 -1280 
C 2253 -1280 2835 -896 2835 -423 
C 2835 460 1856 467 1587 467 
L 1069 467 
C 973 467 717 467 717 793 
C 717 921 774 1004 781 1011 
C 877 940 1075 832 1338 832 
C 1869 832 2310 1279 2310 1824 
C 2310 2128 2170 2349 2112 2425 
L 2131 2425 
C 2150 2425 2419 2444 2515 2444 
C 2720 2444 2739 2438 2918 2419 
L 2848 2816 
z
M 1338 1184 
C 1120 1184 813 1317 813 1824 
C 813 2375 1165 2463 1331 2463 
C 1549 2463 1856 2330 1856 1824 
C 1856 1272 1504 1184 1338 1184 
z
M 1581 0 
C 1734 0 2381 0 2381 -436 
C 2381 -711 1984 -928 1504 -928 
C 1018 -928 621 -717 621 -429 
C 621 -397 621 0 1062 0 
L 1581 0 
z
" transform="scale(0.015625)"/>
       <path id="CMSS17-69" d="M 979 4224 
L 442 4224 
L 442 3686 
L 979 3686 
L 979 4224 
z
M 947 2752 
L 474 2752 
L 474 0 
L 947 0 
L 947 2752 
z
" transform="scale(0.015625)"/>
       <path id="CMSS17-6f" d="M 2829 1356 
C 2829 2175 2221 2816 1504 2816 
C 768 2816 173 2156 173 1356 
C 173 544 787 -64 1498 -64 
C 2227 -64 2829 563 2829 1356 
z
M 1504 339 
C 1050 339 659 710 659 1407 
C 659 2150 1114 2425 1498 2425 
C 1914 2425 2342 2124 2342 1407 
C 2342 684 1926 339 1504 339 
z
" transform="scale(0.015625)"/>
       <path id="CMSS17-44" d="M 570 4416 
L 570 0 
L 2144 0 
C 3194 0 4000 981 4000 2169 
C 4000 3396 3194 4416 2144 4416 
L 570 4416 
z
M 1094 358 
L 1094 4057 
L 2003 4057 
C 2861 4057 3475 3275 3475 2169 
C 3475 1108 2867 358 2003 358 
L 1094 358 
z
" transform="scale(0.015625)"/>
       <path id="CMSS17-61" d="M 2406 1789 
C 2406 2399 1978 2816 1402 2816 
C 1120 2816 813 2764 461 2559 
L 499 2133 
C 659 2250 934 2438 1395 2438 
C 1722 2438 1920 2185 1920 1782 
L 1920 1536 
C 896 1504 256 1209 256 711 
C 256 452 416 -64 947 -64 
C 1043 -64 1562 -52 1933 224 
L 1933 -13 
L 2406 -13 
L 2406 1789 
z
M 1920 824 
C 1920 711 1920 559 1728 446 
C 1562 339 1350 326 1261 326 
C 941 326 723 503 723 723 
C 723 1165 1722 1209 1920 1216 
L 1920 824 
z
" transform="scale(0.015625)"/>
       <path id="CMSS17-74" d="M 1069 2380 
L 1901 2380 
L 1901 2752 
L 1069 2752 
L 1069 3520 
L 614 3520 
L 614 2752 
L 109 2752 
L 109 2380 
L 602 2380 
L 602 751 
C 602 384 685 -64 1107 -64 
C 1427 -64 1722 25 2003 172 
L 1901 551 
C 1747 416 1562 339 1363 339 
C 1082 339 1069 699 1069 860 
L 1069 2380 
z
" transform="scale(0.015625)"/>
      </defs>
      <use xlink:href="#CMSS17-49" transform="scale(0.996264)"/>
      <use xlink:href="#CMSS17-6e" transform="translate(25.783926 0)scale(0.996264)"/>
      <use xlink:href="#CMSS17-6e" transform="translate(73.988869 0)scale(0.996264)"/>
      <use xlink:href="#CMSS17-65" transform="translate(122.193812 0)scale(0.996264)"/>
      <use xlink:href="#CMSS17-72" transform="translate(163.832634 0)scale(0.996264)"/>
      <use xlink:href="#CMSS17-52" transform="translate(226.971519 0)scale(0.996264)"/>
      <use xlink:href="#CMSS17-65" transform="translate(287.387674 0)scale(0.996264)"/>
      <use xlink:href="#CMSS17-67" transform="translate(329.026496 0)scale(0.996264)"/>
      <use xlink:href="#CMSS17-69" transform="translate(375.87012 0)scale(0.996264)"/>
      <use xlink:href="#CMSS17-6f" transform="translate(398.050843 0)scale(0.996264)"/>
      <use xlink:href="#CMSS17-6e" transform="translate(444.894466 0)scale(0.996264)"/>
      <use xlink:href="#CMSS17-44" transform="translate(524.328522 0)scale(0.996264)"/>
      <use xlink:href="#CMSS17-61" transform="translate(591.871364 0)scale(0.996264)"/>
      <use xlink:href="#CMSS17-74" transform="translate(636.793284 0)scale(0.996264)"/>
      <use xlink:href="#CMSS17-61" transform="translate(670.624851 0)scale(0.996264)"/>
     </g>
    </g>
   </g>
   <g id="matplotlib.axis_2">
    <g id="ytick_1">
     <g id="line2d_10">
      <defs>
       <path id="m30bbd653e1" d="M 0 0 
L -3.5 0 
" style="stroke: #000000; stroke-width: 0.8"/>
      </defs>
      <g>
       <use xlink:href="#m30bbd653e1" x="67.738889" y="276.34735" style="stroke: #000000; stroke-width: 0.8"/>
      </g>
     </g>
     <g id="text_11">
      <!-- $\mathdefault{0.00050}$ -->
      <g transform="translate(28.083469 279.8066)scale(0.1 -0.1)">
       <defs>
        <path id="CMMI12-3a" d="M 1178 307 
C 1178 492 1024 620 870 620 
C 685 620 557 467 557 313 
C 557 128 710 0 864 0 
C 1050 0 1178 153 1178 307 
z
" transform="scale(0.015625)"/>
       </defs>
       <use xlink:href="#CMR17-30" transform="scale(0.996264)"/>
       <use xlink:href="#CMMI12-3a" transform="translate(45.690477 0)scale(0.996264)"/>
       <use xlink:href="#CMR17-30" transform="translate(72.787654 0)scale(0.996264)"/>
       <use xlink:href="#CMR17-30" transform="translate(118.478131 0)scale(0.996264)"/>
       <use xlink:href="#CMR17-30" transform="translate(164.168608 0)scale(0.996264)"/>
       <use xlink:href="#CMR17-35" transform="translate(209.859086 0)scale(0.996264)"/>
       <use xlink:href="#CMR17-30" transform="translate(255.549563 0)scale(0.996264)"/>
      </g>
     </g>
    </g>
    <g id="ytick_2">
     <g id="line2d_11">
      <g>
       <use xlink:href="#m30bbd653e1" x="67.738889" y="238.246582" style="stroke: #000000; stroke-width: 0.8"/>
      </g>
     </g>
     <g id="text_12">
      <!-- $\mathdefault{0.00075}$ -->
      <g transform="translate(28.083469 241.705831)scale(0.1 -0.1)">
       <use xlink:href="#CMR17-30" transform="scale(0.996264)"/>
       <use xlink:href="#CMMI12-3a" transform="translate(45.690477 0)scale(0.996264)"/>
       <use xlink:href="#CMR17-30" transform="translate(72.787654 0)scale(0.996264)"/>
       <use xlink:href="#CMR17-30" transform="translate(118.478131 0)scale(0.996264)"/>
       <use xlink:href="#CMR17-30" transform="translate(164.168608 0)scale(0.996264)"/>
       <use xlink:href="#CMR17-37" transform="translate(209.859086 0)scale(0.996264)"/>
       <use xlink:href="#CMR17-35" transform="translate(255.549563 0)scale(0.996264)"/>
      </g>
     </g>
    </g>
    <g id="ytick_3">
     <g id="line2d_12">
      <g>
       <use xlink:href="#m30bbd653e1" x="67.738889" y="200.145813" style="stroke: #000000; stroke-width: 0.8"/>
      </g>
     </g>
     <g id="text_13">
      <!-- $\mathdefault{0.00100}$ -->
      <g transform="translate(28.083469 203.605062)scale(0.1 -0.1)">
       <use xlink:href="#CMR17-30" transform="scale(0.996264)"/>
       <use xlink:href="#CMMI12-3a" transform="translate(45.690477 0)scale(0.996264)"/>
       <use xlink:href="#CMR17-30" transform="translate(72.787654 0)scale(0.996264)"/>
       <use xlink:href="#CMR17-30" transform="translate(118.478131 0)scale(0.996264)"/>
       <use xlink:href="#CMR17-31" transform="translate(164.168608 0)scale(0.996264)"/>
       <use xlink:href="#CMR17-30" transform="translate(209.859086 0)scale(0.996264)"/>
       <use xlink:href="#CMR17-30" transform="translate(255.549563 0)scale(0.996264)"/>
      </g>
     </g>
    </g>
    <g id="ytick_4">
     <g id="line2d_13">
      <g>
       <use xlink:href="#m30bbd653e1" x="67.738889" y="162.045044" style="stroke: #000000; stroke-width: 0.8"/>
      </g>
     </g>
     <g id="text_14">
      <!-- $\mathdefault{0.00125}$ -->
      <g transform="translate(28.083469 165.504293)scale(0.1 -0.1)">
       <use xlink:href="#CMR17-30" transform="scale(0.996264)"/>
       <use xlink:href="#CMMI12-3a" transform="translate(45.690477 0)scale(0.996264)"/>
       <use xlink:href="#CMR17-30" transform="translate(72.787654 0)scale(0.996264)"/>
       <use xlink:href="#CMR17-30" transform="translate(118.478131 0)scale(0.996264)"/>
       <use xlink:href="#CMR17-31" transform="translate(164.168608 0)scale(0.996264)"/>
       <use xlink:href="#CMR17-32" transform="translate(209.859086 0)scale(0.996264)"/>
       <use xlink:href="#CMR17-35" transform="translate(255.549563 0)scale(0.996264)"/>
      </g>
     </g>
    </g>
    <g id="ytick_5">
     <g id="line2d_14">
      <g>
       <use xlink:href="#m30bbd653e1" x="67.738889" y="123.944275" style="stroke: #000000; stroke-width: 0.8"/>
      </g>
     </g>
     <g id="text_15">
      <!-- $\mathdefault{0.00150}$ -->
      <g transform="translate(28.083469 127.403524)scale(0.1 -0.1)">
       <use xlink:href="#CMR17-30" transform="scale(0.996264)"/>
       <use xlink:href="#CMMI12-3a" transform="translate(45.690477 0)scale(0.996264)"/>
       <use xlink:href="#CMR17-30" transform="translate(72.787654 0)scale(0.996264)"/>
       <use xlink:href="#CMR17-30" transform="translate(118.478131 0)scale(0.996264)"/>
       <use xlink:href="#CMR17-31" transform="translate(164.168608 0)scale(0.996264)"/>
       <use xlink:href="#CMR17-35" transform="translate(209.859086 0)scale(0.996264)"/>
       <use xlink:href="#CMR17-30" transform="translate(255.549563 0)scale(0.996264)"/>
      </g>
     </g>
    </g>
    <g id="ytick_6">
     <g id="line2d_15">
      <g>
       <use xlink:href="#m30bbd653e1" x="67.738889" y="85.843506" style="stroke: #000000; stroke-width: 0.8"/>
      </g>
     </g>
     <g id="text_16">
      <!-- $\mathdefault{0.00175}$ -->
      <g transform="translate(28.083469 89.302755)scale(0.1 -0.1)">
       <use xlink:href="#CMR17-30" transform="scale(0.996264)"/>
       <use xlink:href="#CMMI12-3a" transform="translate(45.690477 0)scale(0.996264)"/>
       <use xlink:href="#CMR17-30" transform="translate(72.787654 0)scale(0.996264)"/>
       <use xlink:href="#CMR17-30" transform="translate(118.478131 0)scale(0.996264)"/>
       <use xlink:href="#CMR17-31" transform="translate(164.168608 0)scale(0.996264)"/>
       <use xlink:href="#CMR17-37" transform="translate(209.859086 0)scale(0.996264)"/>
       <use xlink:href="#CMR17-35" transform="translate(255.549563 0)scale(0.996264)"/>
      </g>
     </g>
    </g>
    <g id="ytick_7">
     <g id="line2d_16">
      <g>
       <use xlink:href="#m30bbd653e1" x="67.738889" y="47.742737" style="stroke: #000000; stroke-width: 0.8"/>
      </g>
     </g>
     <g id="text_17">
      <!-- $\mathdefault{0.00200}$ -->
      <g transform="translate(28.083469 51.201987)scale(0.1 -0.1)">
       <use xlink:href="#CMR17-30" transform="scale(0.996264)"/>
       <use xlink:href="#CMMI12-3a" transform="translate(45.690477 0)scale(0.996264)"/>
       <use xlink:href="#CMR17-30" transform="translate(72.787654 0)scale(0.996264)"/>
       <use xlink:href="#CMR17-30" transform="translate(118.478131 0)scale(0.996264)"/>
       <use xlink:href="#CMR17-32" transform="translate(164.168608 0)scale(0.996264)"/>
       <use xlink:href="#CMR17-30" transform="translate(209.859086 0)scale(0.996264)"/>
       <use xlink:href="#CMR17-30" transform="translate(255.549563 0)scale(0.996264)"/>
      </g>
     </g>
    </g>
    <g id="text_18">
     <!-- Strain -->
     <g transform="translate(21.177725 174.399916)rotate(-90)scale(0.15 -0.15)">
      <defs>
       <path id="CMSS17-53" d="M 2797 4230 
C 2515 4396 2208 4544 1690 4544 
C 864 4544 333 3934 333 3309 
C 333 3064 403 2787 653 2504 
C 902 2220 1184 2143 1542 2053 
C 1690 2014 1939 1943 1984 1924 
C 2342 1782 2515 1454 2515 1144 
C 2515 738 2202 307 1645 307 
C 1453 307 890 339 358 829 
L 269 320 
C 794 -64 1363 -128 1651 -128 
C 2438 -128 3002 494 3002 1202 
C 3002 1460 2925 1789 2656 2092 
C 2394 2381 2163 2446 1638 2588 
C 1338 2665 1146 2717 986 2916 
C 877 3058 819 3193 819 3367 
C 819 3728 1126 4121 1690 4121 
C 1971 4121 2336 4063 2707 3715 
L 2797 4230 
z
" transform="scale(0.015625)"/>
      </defs>
      <use xlink:href="#CMSS17-53" transform="scale(0.996264)"/>
      <use xlink:href="#CMSS17-74" transform="translate(52.048516 0)scale(0.996264)"/>
      <use xlink:href="#CMSS17-72" transform="translate(85.880083 0)scale(0.996264)"/>
      <use xlink:href="#CMSS17-61" transform="translate(117.789855 0)scale(0.996264)"/>
      <use xlink:href="#CMSS17-69" transform="translate(162.711776 0)scale(0.996264)"/>
      <use xlink:href="#CMSS17-6e" transform="translate(184.892499 0)scale(0.996264)"/>
     </g>
    </g>
   </g>
   <g id="line2d_17">
    <path d="M 85.114394 49.760665 
L 86.860676 108.79469 
L 88.606958 117.107413 
L 90.35324 104.581567 
L 92.099522 140.791147 
L 93.845804 83.035588 
L 95.592086 95.23709 
L 97.338368 109.697485 
L 99.08465 88.74662 
L 100.830932 72.635535 
L 102.577214 81.577881 
L 104.323496 81.340322 
L 106.069777 49.649808 
L 107.816059 82.063929 
L 109.562341 78.653837 
L 111.308623 76.001455 
L 113.054905 50.120207 
L 114.801187 123.319367 
L 116.547469 123.098959 
L 118.293751 170.587637 
L 120.040033 142.818831 
L 121.786315 66.309104 
L 123.532597 126.220525 
L 125.278878 83.007829 
L 127.02516 116.137201 
L 128.771442 105.558655 
L 130.517724 122.516884 
L 132.264006 69.395401 
L 134.010288 38.489857 
L 135.75657 142.807525 
L 137.502852 137.418689 
L 139.249134 152.267568 
L 140.995416 169.448745 
L 142.741698 91.817785 
L 144.487979 115.42533 
L 146.234261 24.020948 
L 147.980543 91.903234 
L 149.726825 133.737677 
L 151.473107 53.544297 
L 153.219389 116.358134 
L 154.965671 101.100014 
L 156.711953 167.600032 
L 158.458235 106.316951 
L 160.204517 107.133813 
L 161.950799 65.812238 
L 163.697081 72.795436 
L 165.443362 66.38806 
L 167.189644 97.198351 
L 168.935926 106.817354 
L 170.682208 64.697282 
L 172.42849 146.767484 
L 174.174772 79.315332 
L 175.921054 72.814637 
L 177.667336 66.786835 
L 179.413618 85.315914 
L 181.1599 56.638098 
L 184.652463 158.292624 
L 186.398745 116.268925 
L 188.145027 82.840317 
L 189.891309 101.916407 
L 191.637591 155.768086 
L 193.383873 69.075896 
L 195.130155 77.228397 
L 196.876437 128.700798 
L 198.622719 34.756313 
L 200.369001 129.2999 
L 202.115283 90.126863 
L 203.861564 121.035027 
L 205.607846 36.248841 
L 207.354128 126.178162 
L 209.10041 118.640381 
L 210.846692 98.922512 
L 212.592974 89.830957 
L 214.339256 97.467059 
L 216.085538 108.648326 
L 217.83182 137.577664 
L 219.578102 71.815996 
L 221.324384 109.836359 
L 223.070666 140.361253 
L 224.816947 100.037214 
L 226.563229 86.654236 
L 228.309511 98.598038 
L 230.055793 124.777997 
L 231.802075 66.277253 
L 233.548357 140.221072 
L 235.294639 80.079069 
L 237.040921 144.546562 
L 238.787203 89.836521 
L 240.533485 90.254284 
L 242.279767 95.605229 
L 244.026048 105.544859 
L 245.77233 153.408169 
L 247.518612 98.263797 
L 249.264894 110.229786 
L 251.011176 155.851267 
L 252.757458 127.100206 
L 254.50374 112.335755 
L 256.250022 37.018769 
L 257.996304 174.461325 
L 259.742586 80.081399 
L 261.488868 71.913919 
L 263.23515 154.2578 
L 264.981431 104.302036 
L 266.727713 136.155746 
L 268.473995 35.565932 
L 270.220277 68.732298 
L 271.966559 107.658657 
L 273.712841 77.716204 
L 275.459123 183.603964 
L 277.205405 144.944304 
L 278.951687 170.308432 
L 280.697969 106.187088 
L 282.444251 71.396165 
L 284.190532 92.928731 
L 285.936814 95.953139 
L 287.683096 118.238643 
L 289.429378 120.611348 
L 291.17566 89.068599 
L 292.921942 48.446676 
L 294.668224 42.325985 
L 296.414506 117.419128 
L 298.160788 69.206444 
L 299.90707 93.627598 
L 301.653352 43.280623 
L 303.399633 70.333488 
L 305.145915 149.666309 
L 306.892197 68.661261 
L 308.638479 97.661382 
L 310.384761 69.894984 
L 312.131043 74.373547 
L 313.877325 88.681645 
L 315.623607 104.328743 
L 317.369889 146.593372 
L 319.116171 102.756199 
L 320.862453 65.900722 
L 322.608735 88.412302 
L 324.355016 86.09124 
L 326.101298 79.702714 
L 327.84758 139.631672 
L 329.593862 115.874721 
L 331.340144 169.062261 
L 333.086426 114.596842 
L 334.832708 67.547017 
L 336.57899 97.433042 
L 338.325272 78.681982 
L 340.071554 98.165435 
L 341.817836 90.610751 
L 343.564117 85.060546 
L 345.310399 119.923082 
L 347.056681 138.485944 
L 348.802963 79.473804 
L 350.549245 84.676696 
L 352.295527 81.655267 
L 354.041809 155.794063 
L 355.788091 63.141626 
L 357.534373 53.95751 
L 359.280655 151.36601 
L 361.026937 127.113598 
L 362.773218 104.437527 
L 364.5195 93.649056 
L 366.265782 49.706459 
L 368.012064 131.592562 
L 369.758346 132.262565 
L 371.504628 173.968326 
L 373.25091 116.327418 
L 374.997192 117.686847 
L 376.743474 75.606557 
L 378.489756 150.923465 
L 380.236038 50.130434 
L 381.98232 72.157354 
L 383.728601 120.466622 
L 385.474883 161.63323 
L 387.221165 146.901669 
L 388.967447 69.253551 
L 390.713729 67.305896 
L 392.460011 103.330332 
L 394.206293 101.173747 
L 395.952575 108.382576 
L 397.698857 57.966256 
L 399.445139 96.284002 
L 401.191421 33.78245 
L 402.937702 144.604365 
L 404.683984 49.869368 
L 406.430266 69.526607 
L 408.176548 111.37569 
L 409.92283 140.658309 
L 411.669112 93.052055 
L 413.415394 128.211494 
L 415.161676 117.5392 
L 416.907958 40.636413 
L 418.65424 67.129702 
L 420.400522 45.95593 
L 422.146804 72.345811 
L 423.893085 167.378818 
L 425.639367 61.640631 
L 429.131931 40.554948 
L 430.878213 148.435302 
L 432.624495 42.754243 
L 432.624495 42.754243 
" clip-path="url(#p266b27cb52)" style="fill: none; stroke: #3c74ff; stroke-width: 1.5; stroke-linecap: square"/>
   </g>
   <g id="line2d_18">
    <path d="M 85.114394 48.544174 
L 88.606958 131.402907 
L 90.35324 256.098218 
L 92.099522 152.740711 
L 93.845804 94.721266 
L 95.592086 126.028359 
L 97.338368 99.957587 
L 99.08465 71.419592 
L 100.830932 61.967311 
L 102.577214 72.207052 
L 104.323496 95.153566 
L 106.069777 49.519738 
L 107.816059 98.40896 
L 109.562341 115.660428 
L 111.308623 83.267181 
L 113.054905 62.362722 
L 114.801187 113.840099 
L 116.547469 120.183034 
L 118.293751 167.972341 
L 120.040033 164.086023 
L 121.786315 60.597711 
L 123.532597 146.487029 
L 125.278878 63.155312 
L 127.02516 127.740026 
L 128.771442 100.474213 
L 130.517724 91.769717 
L 132.264006 79.24883 
L 134.010288 43.556088 
L 135.75657 288.439906 
L 137.502852 142.781015 
L 139.249134 148.433899 
L 140.995416 128.170232 
L 142.741698 93.379338 
L 144.487979 265.076086 
L 146.234261 54.848435 
L 147.980543 101.902079 
L 149.726825 127.740026 
L 151.473107 49.376556 
L 153.219389 117.99179 
L 154.965671 161.881366 
L 156.711953 287.410916 
L 158.458235 123.539131 
L 160.204517 122.940923 
L 161.950799 99.957587 
L 163.697081 98.671093 
L 165.443362 80.776439 
L 167.189644 129.118536 
L 168.935926 110.456931 
L 170.682208 57.723129 
L 172.42849 141.777416 
L 174.174772 57.523254 
L 175.921054 84.884227 
L 177.667336 105.931626 
L 179.413618 77.93001 
L 181.1599 44.993089 
L 182.906182 117.99179 
L 184.652463 152.740711 
L 186.398745 67.007756 
L 188.145027 91.3456 
L 189.891309 108.733356 
L 191.637591 132.227004 
L 193.383873 79.721585 
L 195.130155 77.885825 
L 196.876437 139.261183 
L 198.622719 33.485996 
L 200.369001 93.583838 
L 202.115283 64.353729 
L 203.861564 90.135008 
L 205.607846 49.376556 
L 207.354128 138.54853 
L 209.10041 125.388022 
L 212.592974 74.558034 
L 214.339256 83.077952 
L 216.085538 99.957587 
L 217.83182 265.844886 
L 219.578102 76.077913 
L 221.324384 146.312861 
L 223.070666 146.404949 
L 224.816947 126.028359 
L 226.563229 132.227004 
L 228.309511 87.949338 
L 230.055793 60.842882 
L 231.802075 67.007756 
L 233.548357 135.099979 
L 235.294639 127.225252 
L 237.040921 170.153263 
L 238.787203 112.927703 
L 240.533485 46.348378 
L 242.279767 83.077952 
L 244.026048 139.665997 
L 245.77233 137.782533 
L 249.264894 75.999171 
L 251.011176 118.185252 
L 252.757458 135.587239 
L 254.50374 126.127909 
L 256.250022 55.044452 
L 257.996304 145.235876 
L 259.742586 77.669822 
L 261.488868 70.167781 
L 263.23515 140.043151 
L 264.981431 278.840581 
L 266.727713 149.122112 
L 268.473995 39.859203 
L 270.220277 69.959057 
L 271.966559 257.660647 
L 273.712841 70.167781 
L 275.459123 132.227004 
L 277.205405 124.287019 
L 278.951687 147.678668 
L 280.697969 106.702434 
L 282.444251 88.251767 
L 284.190532 99.957587 
L 285.936814 87.410202 
L 287.683096 106.533926 
L 289.429378 267.850881 
L 291.17566 105.799393 
L 292.921942 63.555814 
L 294.668224 39.732909 
L 296.414506 110.35372 
L 298.160788 96.342301 
L 299.90707 105.799393 
L 301.653352 31.697268 
L 303.399633 105.799393 
L 305.145915 152.120905 
L 306.892197 83.267181 
L 308.638479 73.436395 
L 310.384761 70.306821 
L 312.131043 81.553824 
L 313.877325 86.223261 
L 315.623607 73.619508 
L 317.369889 142.781015 
L 319.116171 129.118536 
L 320.862453 80.211956 
L 322.608735 114.533624 
L 324.355016 85.731246 
L 326.101298 89.986953 
L 327.84758 75.999171 
L 329.593862 148.970281 
L 331.340144 270.471742 
L 333.086426 129.993853 
L 334.832708 91.033996 
L 336.57899 110.682143 
L 338.325272 96.063423 
L 340.071554 100.426944 
L 341.817836 262.513372 
L 343.564117 105.990216 
L 345.310399 146.923657 
L 347.056681 265.029314 
L 348.802963 87.949338 
L 350.549245 77.900258 
L 352.295527 79.789288 
L 354.041809 125.365844 
L 355.788091 92.834253 
L 357.534373 67.697542 
L 359.280655 139.261183 
L 361.026937 129.782158 
L 362.773218 90.086174 
L 364.5195 102.292336 
L 366.265782 38.976772 
L 368.012064 266.981852 
L 369.758346 111.240117 
L 371.504628 132.393002 
L 373.25091 90.673241 
L 374.997192 123.967066 
L 376.743474 67.697542 
L 378.489756 95.781353 
L 380.236038 74.408392 
L 381.98232 79.792592 
L 383.728601 95.781353 
L 385.474883 164.151566 
L 387.221165 139.315884 
L 388.967447 59.170948 
L 390.713729 102.034677 
L 392.460011 108.619015 
L 394.206293 126.028359 
L 395.952575 67.007756 
L 397.698857 63.155312 
L 399.445139 108.182434 
L 401.191421 39.732909 
L 402.937702 92.834253 
L 404.683984 92.834253 
L 406.430266 63.555814 
L 408.176548 136.911622 
L 409.92283 120.747751 
L 411.669112 67.007756 
L 413.415394 75.999171 
L 415.161676 76.793711 
L 416.907958 86.882268 
L 418.65424 83.633478 
L 420.400522 66.156652 
L 422.146804 119.635007 
L 423.893085 132.393002 
L 425.639367 41.318037 
L 427.385649 75.335145 
L 429.131931 34.837847 
L 430.878213 129.993853 
L 432.624495 41.318037 
L 432.624495 41.318037 
" clip-path="url(#p266b27cb52)" style="fill: none; stroke-dasharray: 5.55,2.4; stroke-dashoffset: 0; stroke: #eea219; stroke-width: 1.5"/>
   </g>
   <g id="patch_3">
    <path d="M 67.738889 301.660854 
L 67.738889 10.8 
" style="fill: none; stroke: #000000; stroke-width: 0.8; stroke-linejoin: miter; stroke-linecap: square"/>
   </g>
   <g id="patch_4">
    <path d="M 450 301.660854 
L 450 10.8 
" style="fill: none; stroke: #000000; stroke-width: 0.8; stroke-linejoin: miter; stroke-linecap: square"/>
   </g>
   <g id="patch_5">
    <path d="M 67.738889 301.660854 
L 450 301.660854 
" style="fill: none; stroke: #000000; stroke-width: 0.8; stroke-linejoin: miter; stroke-linecap: square"/>
   </g>
   <g id="patch_6">
    <path d="M 67.738889 10.8 
L 450 10.8 
" style="fill: none; stroke: #000000; stroke-width: 0.8; stroke-linejoin: miter; stroke-linecap: square"/>
   </g>
   <g id="legend_1">
    <g id="patch_7">
     <path d="M 343.198637 296.660854 
L 443 296.660854 
Q 445 296.660854 445 294.660854 
L 445 267.786497 
Q 445 265.786497 443 265.786497 
L 343.198637 265.786497 
Q 341.198637 265.786497 341.198637 267.786497 
L 341.198637 294.660854 
Q 341.198637 296.660854 343.198637 296.660854 
z
" style="fill: #ffffff; opacity: 0.8; stroke: #cccccc; stroke-linejoin: miter"/>
    </g>
    <g id="line2d_19">
     <path d="M 345.198637 273.286497 
L 355.198637 273.286497 
L 365.198637 273.286497 
" style="fill: none; stroke: #3c74ff; stroke-width: 1.5; stroke-linecap: square"/>
    </g>
    <g id="text_19">
     <!-- Real values -->
     <g transform="translate(373.198637 276.786497)scale(0.1 -0.1)">
      <defs>
       <path id="CMSS17-6c" d="M 947 4416 
L 474 4416 
L 474 0 
L 947 0 
L 947 4416 
z
" transform="scale(0.015625)"/>
       <path id="CMSS17-76" d="M 2675 2752 
L 2176 2752 
L 1747 1555 
C 1613 1164 1421 627 1389 352 
L 1382 352 
C 1370 467 1318 633 1286 748 
C 1248 889 1197 1056 1158 1171 
L 595 2752 
L 83 2752 
L 1094 0 
L 1664 0 
L 2675 2752 
z
" transform="scale(0.015625)"/>
       <path id="CMSS17-75" d="M 2618 2752 
L 2131 2752 
L 2131 976 
C 2131 500 1786 307 1421 307 
C 998 307 960 448 960 712 
L 960 2752 
L 474 2752 
L 474 680 
C 474 179 646 -64 1088 -64 
C 1306 -64 1798 -13 2144 307 
L 2144 -13 
L 2618 -13 
L 2618 2752 
z
" transform="scale(0.015625)"/>
       <path id="CMSS17-73" d="M 2061 2623 
C 1683 2803 1389 2816 1197 2816 
C 742 2816 198 2655 198 2009 
C 198 1363 902 1222 1094 1183 
C 1389 1126 1715 1062 1715 742 
C 1715 339 1254 339 1171 339 
C 915 339 563 409 243 639 
L 166 211 
C 531 0 883 -64 1178 -64 
C 1965 -64 2163 416 2163 780 
C 2163 1094 1984 1305 1862 1401 
C 1651 1567 1574 1587 1050 1695 
C 960 1708 646 1779 646 2067 
C 646 2431 1050 2431 1139 2431 
C 1555 2431 1811 2303 1984 2207 
L 2061 2623 
z
" transform="scale(0.015625)"/>
      </defs>
      <use xlink:href="#CMSS17-52" transform="scale(0.996264)"/>
      <use xlink:href="#CMSS17-65" transform="translate(60.416155 0)scale(0.996264)"/>
      <use xlink:href="#CMSS17-61" transform="translate(102.054977 0)scale(0.996264)"/>
      <use xlink:href="#CMSS17-6c" transform="translate(146.976898 0)scale(0.996264)"/>
      <use xlink:href="#CMSS17-76" transform="translate(200.386733 0)scale(0.996264)"/>
      <use xlink:href="#CMSS17-61" transform="translate(243.386875 0)scale(0.996264)"/>
      <use xlink:href="#CMSS17-6c" transform="translate(288.308796 0)scale(0.996264)"/>
      <use xlink:href="#CMSS17-75" transform="translate(310.489519 0)scale(0.996264)"/>
      <use xlink:href="#CMSS17-65" transform="translate(358.694462 0)scale(0.996264)"/>
      <use xlink:href="#CMSS17-73" transform="translate(400.333284 0)scale(0.996264)"/>
     </g>
    </g>
    <g id="line2d_20">
     <path d="M 345.198637 287.223675 
L 355.198637 287.223675 
L 365.198637 287.223675 
" style="fill: none; stroke-dasharray: 5.55,2.4; stroke-dashoffset: 0; stroke: #eea219; stroke-width: 1.5"/>
    </g>
    <g id="text_20">
     <!-- Predicted values -->
     <g transform="translate(373.198637 290.723675)scale(0.1 -0.1)">
      <defs>
       <path id="CMSS17-50" d="M 2106 1856 
C 2874 1856 3501 2447 3501 3139 
C 3501 3818 2899 4416 2067 4416 
L 570 4416 
L 570 0 
L 1107 0 
L 1107 1856 
L 2106 1856 
z
M 1926 4057 
C 2669 4057 2995 3598 2995 3139 
C 2995 2711 2694 2227 1926 2227 
L 1094 2227 
L 1094 4057 
L 1926 4057 
z
" transform="scale(0.015625)"/>
       <path id="CMSS17-64" d="M 2611 4416 
L 2138 4416 
L 2138 2495 
C 1939 2662 1613 2816 1254 2816 
C 672 2816 211 2179 211 1375 
C 211 572 666 -64 1235 -64 
C 1677 -64 1971 172 2125 307 
L 2125 -13 
L 2611 -13 
L 2611 4416 
z
M 2125 851 
C 2125 760 2125 663 1926 488 
C 1798 378 1645 326 1498 326 
C 1152 326 698 585 698 1369 
C 698 2185 1210 2425 1562 2425 
C 1798 2425 1990 2308 2125 2114 
L 2125 851 
z
" transform="scale(0.015625)"/>
       <path id="CMSS17-63" d="M 2464 2540 
C 2464 2585 2170 2713 2093 2739 
C 1882 2816 1613 2816 1542 2816 
C 710 2816 211 2092 211 1363 
C 211 595 768 -64 1517 -64 
C 1946 -64 2253 76 2502 243 
L 2464 665 
C 2189 454 1869 339 1523 339 
C 1024 339 698 774 698 1369 
C 698 1830 909 2412 1549 2412 
C 1901 2412 2099 2342 2394 2143 
L 2464 2540 
z
" transform="scale(0.015625)"/>
      </defs>
      <use xlink:href="#CMSS17-50" transform="scale(0.996264)"/>
      <use xlink:href="#CMSS17-72" transform="translate(59.735586 0)scale(0.996264)"/>
      <use xlink:href="#CMSS17-65" transform="translate(91.645359 0)scale(0.996264)"/>
      <use xlink:href="#CMSS17-64" transform="translate(133.284181 0)scale(0.996264)"/>
      <use xlink:href="#CMSS17-69" transform="translate(181.489124 0)scale(0.996264)"/>
      <use xlink:href="#CMSS17-63" transform="translate(203.669847 0)scale(0.996264)"/>
      <use xlink:href="#CMSS17-74" transform="translate(245.308669 0)scale(0.996264)"/>
      <use xlink:href="#CMSS17-65" transform="translate(279.140236 0)scale(0.996264)"/>
      <use xlink:href="#CMSS17-64" transform="translate(320.779058 0)scale(0.996264)"/>
      <use xlink:href="#CMSS17-76" transform="translate(400.213114 0)scale(0.996264)"/>
      <use xlink:href="#CMSS17-61" transform="translate(443.213255 0)scale(0.996264)"/>
      <use xlink:href="#CMSS17-6c" transform="translate(488.135176 0)scale(0.996264)"/>
      <use xlink:href="#CMSS17-75" transform="translate(510.315899 0)scale(0.996264)"/>
      <use xlink:href="#CMSS17-65" transform="translate(558.520842 0)scale(0.996264)"/>
      <use xlink:href="#CMSS17-73" transform="translate(600.159664 0)scale(0.996264)"/>
     </g>
    </g>
   </g>
  </g>
 </g>
 <defs>
  <clipPath id="p266b27cb52">
   <rect x="67.738889" y="10.8" width="382.261111" height="290.860854"/>
  </clipPath>
 </defs>
</svg>
