<?xml version="1.0" encoding="utf-8" standalone="no"?>
<!DOCTYPE svg PUBLIC "-//W3C//DTD SVG 1.1//EN"
  "http://www.w3.org/Graphics/SVG/1.1/DTD/svg11.dtd">
<svg xmlns:xlink="http://www.w3.org/1999/xlink" width="460.8pt" height="345.6pt" viewBox="0 0 460.8 345.6" xmlns="http://www.w3.org/2000/svg" version="1.1">
 <metadata>
  <rdf:RDF xmlns:dc="http://purl.org/dc/elements/1.1/" xmlns:cc="http://creativecommons.org/ns#" xmlns:rdf="http://www.w3.org/1999/02/22-rdf-syntax-ns#">
   <cc:Work>
    <dc:type rdf:resource="http://purl.org/dc/dcmitype/StillImage"/>
    <dc:date>2023-03-13T13:38:48.481112</dc:date>
    <dc:format>image/svg+xml</dc:format>
    <dc:creator>
     <cc:Agent>
      <dc:title>Matplotlib v3.5.3, https://matplotlib.org/</dc:title>
     </cc:Agent>
    </dc:creator>
   </cc:Work>
  </rdf:RDF>
 </metadata>
 <defs>
  <style type="text/css">*{stroke-linejoin: round; stroke-linecap: butt}</style>
 </defs>
 <g id="figure_1">
  <g id="patch_1">
   <path d="M 0 345.6 
L 460.8 345.6 
L 460.8 0 
L 0 0 
z
" style="fill: #ffffff"/>
  </g>
  <g id="axes_1">
   <g id="patch_2">
    <path d="M 50.45542 318.944323 
L 450 318.944323 
L 450 10.8 
L 50.45542 10.8 
z
" style="fill: #ffffff"/>
   </g>
   <g id="matplotlib.axis_1">
    <g id="xtick_1">
     <g id="line2d_1">
      <defs>
       <path id="madddd73afc" d="M 0 0 
L 0 3.5 
" style="stroke: #000000; stroke-width: 0.8"/>
      </defs>
      <g>
       <use xlink:href="#madddd73afc" x="68.616537" y="318.944323" style="stroke: #000000; stroke-width: 0.8"/>
      </g>
     </g>
     <g id="text_1">
      <!-- $\mathdefault{0}$ -->
      <g transform="translate(66.12587 332.862822)scale(0.1 -0.1)">
       <defs>
        <path id="CMR17-30" d="M 2688 2038 
C 2688 2430 2682 3099 2413 3613 
C 2176 4063 1798 4224 1466 4224 
C 1158 4224 768 4082 525 3620 
C 269 3137 243 2539 243 2038 
C 243 1671 250 1112 448 623 
C 723 -39 1216 -128 1466 -128 
C 1760 -128 2208 -7 2470 604 
C 2662 1048 2688 1568 2688 2038 
z
M 1466 -26 
C 1056 -26 813 328 723 816 
C 653 1196 653 1749 653 2109 
C 653 2604 653 3015 736 3407 
C 858 3954 1216 4121 1466 4121 
C 1728 4121 2067 3947 2189 3420 
C 2272 3054 2278 2623 2278 2109 
C 2278 1691 2278 1176 2202 797 
C 2067 96 1690 -26 1466 -26 
z
" transform="scale(0.015625)"/>
       </defs>
       <use xlink:href="#CMR17-30" transform="scale(0.996264)"/>
      </g>
     </g>
    </g>
    <g id="xtick_2">
     <g id="line2d_2">
      <g>
       <use xlink:href="#madddd73afc" x="114.133122" y="318.944323" style="stroke: #000000; stroke-width: 0.8"/>
      </g>
     </g>
     <g id="text_2">
      <!-- $\mathdefault{50}$ -->
      <g transform="translate(109.151787 332.862822)scale(0.1 -0.1)">
       <defs>
        <path id="CMR17-35" d="M 730 3750 
C 794 3724 1056 3641 1325 3641 
C 1920 3641 2246 3961 2432 4140 
C 2432 4191 2432 4224 2394 4224 
C 2387 4224 2374 4224 2323 4198 
C 2099 4102 1837 4032 1517 4032 
C 1325 4032 1037 4055 723 4191 
C 653 4224 640 4224 634 4224 
C 602 4224 595 4217 595 4090 
L 595 2231 
C 595 2113 595 2080 659 2080 
C 691 2080 704 2093 736 2139 
C 941 2435 1222 2560 1542 2560 
C 1766 2560 2246 2415 2246 1293 
C 2246 1087 2246 716 2054 422 
C 1894 159 1645 25 1370 25 
C 947 25 518 319 403 812 
C 429 806 480 793 506 793 
C 589 793 749 838 749 1036 
C 749 1209 627 1280 506 1280 
C 358 1280 262 1190 262 1011 
C 262 454 704 -128 1382 -128 
C 2042 -128 2669 441 2669 1267 
C 2669 2054 2170 2662 1549 2662 
C 1222 2662 947 2540 730 2304 
L 730 3750 
z
" transform="scale(0.015625)"/>
       </defs>
       <use xlink:href="#CMR17-35" transform="scale(0.996264)"/>
       <use xlink:href="#CMR17-30" transform="translate(45.690477 0)scale(0.996264)"/>
      </g>
     </g>
    </g>
    <g id="xtick_3">
     <g id="line2d_3">
      <g>
       <use xlink:href="#madddd73afc" x="159.649707" y="318.944323" style="stroke: #000000; stroke-width: 0.8"/>
      </g>
     </g>
     <g id="text_3">
      <!-- $\mathdefault{100}$ -->
      <g transform="translate(152.177704 332.862822)scale(0.1 -0.1)">
       <defs>
        <path id="CMR17-31" d="M 1702 4083 
C 1702 4217 1696 4224 1606 4224 
C 1357 3927 979 3833 621 3820 
C 602 3820 570 3820 563 3808 
C 557 3795 557 3782 557 3648 
C 755 3648 1088 3686 1344 3839 
L 1344 467 
C 1344 243 1331 166 781 166 
L 589 166 
L 589 0 
C 896 6 1216 12 1523 12 
C 1830 12 2150 6 2458 0 
L 2458 166 
L 2266 166 
C 1715 166 1702 236 1702 467 
L 1702 4083 
z
" transform="scale(0.015625)"/>
       </defs>
       <use xlink:href="#CMR17-31" transform="scale(0.996264)"/>
       <use xlink:href="#CMR17-30" transform="translate(45.690477 0)scale(0.996264)"/>
       <use xlink:href="#CMR17-30" transform="translate(91.380954 0)scale(0.996264)"/>
      </g>
     </g>
    </g>
    <g id="xtick_4">
     <g id="line2d_4">
      <g>
       <use xlink:href="#madddd73afc" x="205.166291" y="318.944323" style="stroke: #000000; stroke-width: 0.8"/>
      </g>
     </g>
     <g id="text_4">
      <!-- $\mathdefault{150}$ -->
      <g transform="translate(197.694288 332.862822)scale(0.1 -0.1)">
       <use xlink:href="#CMR17-31" transform="scale(0.996264)"/>
       <use xlink:href="#CMR17-35" transform="translate(45.690477 0)scale(0.996264)"/>
       <use xlink:href="#CMR17-30" transform="translate(91.380954 0)scale(0.996264)"/>
      </g>
     </g>
    </g>
    <g id="xtick_5">
     <g id="line2d_5">
      <g>
       <use xlink:href="#madddd73afc" x="250.682876" y="318.944323" style="stroke: #000000; stroke-width: 0.8"/>
      </g>
     </g>
     <g id="text_5">
      <!-- $\mathdefault{200}$ -->
      <g transform="translate(243.210873 332.862822)scale(0.1 -0.1)">
       <defs>
        <path id="CMR17-32" d="M 2669 990 
L 2554 990 
C 2490 537 2438 460 2413 422 
C 2381 371 1920 371 1830 371 
L 602 371 
C 832 620 1280 1073 1824 1596 
C 2214 1966 2669 2400 2669 3033 
C 2669 3788 2067 4224 1395 4224 
C 691 4224 262 3603 262 3027 
C 262 2777 448 2745 525 2745 
C 589 2745 781 2783 781 3007 
C 781 3206 614 3264 525 3264 
C 486 3264 448 3257 422 3244 
C 544 3788 915 4057 1306 4057 
C 1862 4057 2227 3616 2227 3033 
C 2227 2477 1901 1998 1536 1583 
L 262 147 
L 262 0 
L 2515 0 
L 2669 990 
z
" transform="scale(0.015625)"/>
       </defs>
       <use xlink:href="#CMR17-32" transform="scale(0.996264)"/>
       <use xlink:href="#CMR17-30" transform="translate(45.690477 0)scale(0.996264)"/>
       <use xlink:href="#CMR17-30" transform="translate(91.380954 0)scale(0.996264)"/>
      </g>
     </g>
    </g>
    <g id="xtick_6">
     <g id="line2d_6">
      <g>
       <use xlink:href="#madddd73afc" x="296.19946" y="318.944323" style="stroke: #000000; stroke-width: 0.8"/>
      </g>
     </g>
     <g id="text_6">
      <!-- $\mathdefault{250}$ -->
      <g transform="translate(288.727458 332.862822)scale(0.1 -0.1)">
       <use xlink:href="#CMR17-32" transform="scale(0.996264)"/>
       <use xlink:href="#CMR17-35" transform="translate(45.690477 0)scale(0.996264)"/>
       <use xlink:href="#CMR17-30" transform="translate(91.380954 0)scale(0.996264)"/>
      </g>
     </g>
    </g>
    <g id="xtick_7">
     <g id="line2d_7">
      <g>
       <use xlink:href="#madddd73afc" x="341.716045" y="318.944323" style="stroke: #000000; stroke-width: 0.8"/>
      </g>
     </g>
     <g id="text_7">
      <!-- $\mathdefault{300}$ -->
      <g transform="translate(334.244042 332.862822)scale(0.1 -0.1)">
       <defs>
        <path id="CMR17-33" d="M 1414 2176 
C 1984 2176 2234 1673 2234 1094 
C 2234 322 1824 25 1453 25 
C 1114 25 563 193 390 691 
C 422 678 454 678 486 678 
C 640 678 755 780 755 947 
C 755 1132 614 1216 486 1216 
C 378 1216 211 1164 211 927 
C 211 335 787 -128 1466 -128 
C 2176 -128 2720 432 2720 1087 
C 2720 1718 2208 2176 1600 2246 
C 2086 2347 2554 2776 2554 3353 
C 2554 3856 2048 4224 1472 4224 
C 890 4224 378 3862 378 3347 
C 378 3123 544 3084 627 3084 
C 762 3084 877 3167 877 3334 
C 877 3500 762 3584 627 3584 
C 602 3584 570 3584 544 3571 
C 730 3999 1235 4076 1459 4076 
C 1683 4076 2106 3966 2106 3347 
C 2106 3167 2080 2851 1862 2574 
C 1670 2329 1453 2316 1242 2297 
C 1210 2297 1062 2284 1037 2284 
C 992 2278 966 2272 966 2227 
C 966 2182 973 2176 1101 2176 
L 1414 2176 
z
" transform="scale(0.015625)"/>
       </defs>
       <use xlink:href="#CMR17-33" transform="scale(0.996264)"/>
       <use xlink:href="#CMR17-30" transform="translate(45.690477 0)scale(0.996264)"/>
       <use xlink:href="#CMR17-30" transform="translate(91.380954 0)scale(0.996264)"/>
      </g>
     </g>
    </g>
    <g id="xtick_8">
     <g id="line2d_8">
      <g>
       <use xlink:href="#madddd73afc" x="387.23263" y="318.944323" style="stroke: #000000; stroke-width: 0.8"/>
      </g>
     </g>
     <g id="text_8">
      <!-- $\mathdefault{350}$ -->
      <g transform="translate(379.760627 332.862822)scale(0.1 -0.1)">
       <use xlink:href="#CMR17-33" transform="scale(0.996264)"/>
       <use xlink:href="#CMR17-35" transform="translate(45.690477 0)scale(0.996264)"/>
       <use xlink:href="#CMR17-30" transform="translate(91.380954 0)scale(0.996264)"/>
      </g>
     </g>
    </g>
    <g id="xtick_9">
     <g id="line2d_9">
      <g>
       <use xlink:href="#madddd73afc" x="432.749214" y="318.944323" style="stroke: #000000; stroke-width: 0.8"/>
      </g>
     </g>
     <g id="text_9">
      <!-- $\mathdefault{400}$ -->
      <g transform="translate(425.277212 332.862822)scale(0.1 -0.1)">
       <defs>
        <path id="CMR17-34" d="M 2150 4147 
C 2150 4281 2144 4288 2029 4288 
L 128 1254 
L 128 1088 
L 1779 1088 
L 1779 460 
C 1779 230 1766 166 1318 166 
L 1197 166 
L 1197 0 
C 1402 12 1747 12 1965 12 
C 2182 12 2528 12 2733 0 
L 2733 166 
L 2611 166 
C 2163 166 2150 230 2150 460 
L 2150 1088 
L 2803 1088 
L 2803 1254 
L 2150 1254 
L 2150 4147 
z
M 1798 3723 
L 1798 1254 
L 256 1254 
L 1798 3723 
z
" transform="scale(0.015625)"/>
       </defs>
       <use xlink:href="#CMR17-34" transform="scale(0.996264)"/>
       <use xlink:href="#CMR17-30" transform="translate(45.690477 0)scale(0.996264)"/>
       <use xlink:href="#CMR17-30" transform="translate(91.380954 0)scale(0.996264)"/>
      </g>
     </g>
    </g>
   </g>
   <g id="matplotlib.axis_2">
    <g id="ytick_1">
     <g id="line2d_10">
      <defs>
       <path id="m7c502f25df" d="M 0 0 
L -3.5 0 
" style="stroke: #000000; stroke-width: 0.8"/>
      </defs>
      <g>
       <use xlink:href="#m7c502f25df" x="50.45542" y="283.799061" style="stroke: #000000; stroke-width: 0.8"/>
      </g>
     </g>
     <g id="text_10">
      <!-- $\mathdefault{0.00050}$ -->
      <g transform="translate(10.8 287.25831)scale(0.1 -0.1)">
       <defs>
        <path id="CMMI12-3a" d="M 1178 307 
C 1178 492 1024 620 870 620 
C 685 620 557 467 557 313 
C 557 128 710 0 864 0 
C 1050 0 1178 153 1178 307 
z
" transform="scale(0.015625)"/>
       </defs>
       <use xlink:href="#CMR17-30" transform="scale(0.996264)"/>
       <use xlink:href="#CMMI12-3a" transform="translate(45.690477 0)scale(0.996264)"/>
       <use xlink:href="#CMR17-30" transform="translate(72.787654 0)scale(0.996264)"/>
       <use xlink:href="#CMR17-30" transform="translate(118.478131 0)scale(0.996264)"/>
       <use xlink:href="#CMR17-30" transform="translate(164.168608 0)scale(0.996264)"/>
       <use xlink:href="#CMR17-35" transform="translate(209.859086 0)scale(0.996264)"/>
       <use xlink:href="#CMR17-30" transform="translate(255.549563 0)scale(0.996264)"/>
      </g>
     </g>
    </g>
    <g id="ytick_2">
     <g id="line2d_11">
      <g>
       <use xlink:href="#m7c502f25df" x="50.45542" y="246.511011" style="stroke: #000000; stroke-width: 0.8"/>
      </g>
     </g>
     <g id="text_11">
      <!-- $\mathdefault{0.00075}$ -->
      <g transform="translate(10.8 249.97026)scale(0.1 -0.1)">
       <defs>
        <path id="CMR17-37" d="M 2886 3955 
L 2886 4096 
L 1382 4096 
C 634 4096 621 4166 595 4288 
L 480 4288 
L 294 3104 
L 410 3104 
C 429 3226 474 3552 550 3673 
C 589 3724 1062 3724 1171 3724 
L 2579 3724 
L 1869 2670 
C 1395 1961 1069 1003 1069 166 
C 1069 89 1069 -128 1299 -128 
C 1530 -128 1530 89 1530 172 
L 1530 466 
C 1530 1514 1709 2204 2003 2644 
L 2886 3955 
z
" transform="scale(0.015625)"/>
       </defs>
       <use xlink:href="#CMR17-30" transform="scale(0.996264)"/>
       <use xlink:href="#CMMI12-3a" transform="translate(45.690477 0)scale(0.996264)"/>
       <use xlink:href="#CMR17-30" transform="translate(72.787654 0)scale(0.996264)"/>
       <use xlink:href="#CMR17-30" transform="translate(118.478131 0)scale(0.996264)"/>
       <use xlink:href="#CMR17-30" transform="translate(164.168608 0)scale(0.996264)"/>
       <use xlink:href="#CMR17-37" transform="translate(209.859086 0)scale(0.996264)"/>
       <use xlink:href="#CMR17-35" transform="translate(255.549563 0)scale(0.996264)"/>
      </g>
     </g>
    </g>
    <g id="ytick_3">
     <g id="line2d_12">
      <g>
       <use xlink:href="#m7c502f25df" x="50.45542" y="209.222961" style="stroke: #000000; stroke-width: 0.8"/>
      </g>
     </g>
     <g id="text_12">
      <!-- $\mathdefault{0.00100}$ -->
      <g transform="translate(10.8 212.68221)scale(0.1 -0.1)">
       <use xlink:href="#CMR17-30" transform="scale(0.996264)"/>
       <use xlink:href="#CMMI12-3a" transform="translate(45.690477 0)scale(0.996264)"/>
       <use xlink:href="#CMR17-30" transform="translate(72.787654 0)scale(0.996264)"/>
       <use xlink:href="#CMR17-30" transform="translate(118.478131 0)scale(0.996264)"/>
       <use xlink:href="#CMR17-31" transform="translate(164.168608 0)scale(0.996264)"/>
       <use xlink:href="#CMR17-30" transform="translate(209.859086 0)scale(0.996264)"/>
       <use xlink:href="#CMR17-30" transform="translate(255.549563 0)scale(0.996264)"/>
      </g>
     </g>
    </g>
    <g id="ytick_4">
     <g id="line2d_13">
      <g>
       <use xlink:href="#m7c502f25df" x="50.45542" y="171.934911" style="stroke: #000000; stroke-width: 0.8"/>
      </g>
     </g>
     <g id="text_13">
      <!-- $\mathdefault{0.00125}$ -->
      <g transform="translate(10.8 175.39416)scale(0.1 -0.1)">
       <use xlink:href="#CMR17-30" transform="scale(0.996264)"/>
       <use xlink:href="#CMMI12-3a" transform="translate(45.690477 0)scale(0.996264)"/>
       <use xlink:href="#CMR17-30" transform="translate(72.787654 0)scale(0.996264)"/>
       <use xlink:href="#CMR17-30" transform="translate(118.478131 0)scale(0.996264)"/>
       <use xlink:href="#CMR17-31" transform="translate(164.168608 0)scale(0.996264)"/>
       <use xlink:href="#CMR17-32" transform="translate(209.859086 0)scale(0.996264)"/>
       <use xlink:href="#CMR17-35" transform="translate(255.549563 0)scale(0.996264)"/>
      </g>
     </g>
    </g>
    <g id="ytick_5">
     <g id="line2d_14">
      <g>
       <use xlink:href="#m7c502f25df" x="50.45542" y="134.64686" style="stroke: #000000; stroke-width: 0.8"/>
      </g>
     </g>
     <g id="text_14">
      <!-- $\mathdefault{0.00150}$ -->
      <g transform="translate(10.8 138.10611)scale(0.1 -0.1)">
       <use xlink:href="#CMR17-30" transform="scale(0.996264)"/>
       <use xlink:href="#CMMI12-3a" transform="translate(45.690477 0)scale(0.996264)"/>
       <use xlink:href="#CMR17-30" transform="translate(72.787654 0)scale(0.996264)"/>
       <use xlink:href="#CMR17-30" transform="translate(118.478131 0)scale(0.996264)"/>
       <use xlink:href="#CMR17-31" transform="translate(164.168608 0)scale(0.996264)"/>
       <use xlink:href="#CMR17-35" transform="translate(209.859086 0)scale(0.996264)"/>
       <use xlink:href="#CMR17-30" transform="translate(255.549563 0)scale(0.996264)"/>
      </g>
     </g>
    </g>
    <g id="ytick_6">
     <g id="line2d_15">
      <g>
       <use xlink:href="#m7c502f25df" x="50.45542" y="97.35881" style="stroke: #000000; stroke-width: 0.8"/>
      </g>
     </g>
     <g id="text_15">
      <!-- $\mathdefault{0.00175}$ -->
      <g transform="translate(10.8 100.81806)scale(0.1 -0.1)">
       <use xlink:href="#CMR17-30" transform="scale(0.996264)"/>
       <use xlink:href="#CMMI12-3a" transform="translate(45.690477 0)scale(0.996264)"/>
       <use xlink:href="#CMR17-30" transform="translate(72.787654 0)scale(0.996264)"/>
       <use xlink:href="#CMR17-30" transform="translate(118.478131 0)scale(0.996264)"/>
       <use xlink:href="#CMR17-31" transform="translate(164.168608 0)scale(0.996264)"/>
       <use xlink:href="#CMR17-37" transform="translate(209.859086 0)scale(0.996264)"/>
       <use xlink:href="#CMR17-35" transform="translate(255.549563 0)scale(0.996264)"/>
      </g>
     </g>
    </g>
    <g id="ytick_7">
     <g id="line2d_16">
      <g>
       <use xlink:href="#m7c502f25df" x="50.45542" y="60.07076" style="stroke: #000000; stroke-width: 0.8"/>
      </g>
     </g>
     <g id="text_16">
      <!-- $\mathdefault{0.00200}$ -->
      <g transform="translate(10.8 63.530009)scale(0.1 -0.1)">
       <use xlink:href="#CMR17-30" transform="scale(0.996264)"/>
       <use xlink:href="#CMMI12-3a" transform="translate(45.690477 0)scale(0.996264)"/>
       <use xlink:href="#CMR17-30" transform="translate(72.787654 0)scale(0.996264)"/>
       <use xlink:href="#CMR17-30" transform="translate(118.478131 0)scale(0.996264)"/>
       <use xlink:href="#CMR17-32" transform="translate(164.168608 0)scale(0.996264)"/>
       <use xlink:href="#CMR17-30" transform="translate(209.859086 0)scale(0.996264)"/>
       <use xlink:href="#CMR17-30" transform="translate(255.549563 0)scale(0.996264)"/>
      </g>
     </g>
    </g>
    <g id="ytick_8">
     <g id="line2d_17">
      <g>
       <use xlink:href="#m7c502f25df" x="50.45542" y="22.78271" style="stroke: #000000; stroke-width: 0.8"/>
      </g>
     </g>
     <g id="text_17">
      <!-- $\mathdefault{0.00225}$ -->
      <g transform="translate(10.8 26.241959)scale(0.1 -0.1)">
       <use xlink:href="#CMR17-30" transform="scale(0.996264)"/>
       <use xlink:href="#CMMI12-3a" transform="translate(45.690477 0)scale(0.996264)"/>
       <use xlink:href="#CMR17-30" transform="translate(72.787654 0)scale(0.996264)"/>
       <use xlink:href="#CMR17-30" transform="translate(118.478131 0)scale(0.996264)"/>
       <use xlink:href="#CMR17-32" transform="translate(164.168608 0)scale(0.996264)"/>
       <use xlink:href="#CMR17-32" transform="translate(209.859086 0)scale(0.996264)"/>
       <use xlink:href="#CMR17-35" transform="translate(255.549563 0)scale(0.996264)"/>
      </g>
     </g>
    </g>
   </g>
   <g id="line2d_18">
    <path d="M 68.616537 107.252797 
L 69.526869 94.652248 
L 70.437201 276.247945 
L 71.347532 108.924601 
L 72.257864 155.56766 
L 73.168196 109.11145 
L 74.078527 94.571841 
L 74.988859 291.240751 
L 75.899191 290.202963 
L 76.809522 291.51105 
L 77.719854 268.902307 
L 78.630186 117.272353 
L 79.540518 95.426238 
L 80.450849 278.467325 
L 81.361181 78.628447 
L 82.271513 74.856099 
L 83.181844 265.741952 
L 84.092176 61.771052 
L 85.002508 270.356107 
L 85.912839 282.034879 
L 86.823171 276.991914 
L 87.733503 262.713669 
L 88.643835 284.937702 
L 89.554166 150.576461 
L 90.464498 124.796052 
L 91.37483 89.750592 
L 92.285161 283.393684 
L 93.195493 145.564604 
L 94.105825 267.262658 
L 95.016156 124.751978 
L 95.926488 285.446429 
L 96.83682 279.100008 
L 97.747151 277.489564 
L 98.657483 132.392978 
L 99.567815 285.447477 
L 100.478147 273.559601 
L 101.388478 288.405584 
L 102.29881 286.447802 
L 103.209142 118.948381 
L 104.119473 115.165194 
L 105.029805 276.028373 
L 105.940137 267.379527 
L 106.850468 285.689469 
L 107.7608 165.791845 
L 108.671132 279.454193 
L 109.581463 297.733401 
L 110.491795 284.438527 
L 111.402127 279.811946 
L 112.312459 81.076629 
L 113.22279 51.325287 
L 114.133122 259.240331 
L 115.043454 55.973415 
L 115.953785 295.549382 
L 116.864117 97.564344 
L 117.774449 285.925038 
L 118.68478 103.174752 
L 119.595112 126.309631 
L 120.505444 94.445395 
L 121.415775 273.345183 
L 122.326107 276.093181 
L 123.236439 89.939045 
L 124.146771 267.784451 
L 125.057102 262.581726 
L 125.967434 289.185592 
L 126.877766 268.519556 
L 127.788097 102.743541 
L 128.698429 141.946394 
L 129.608761 273.024232 
L 130.519092 110.69266 
L 131.429424 84.013233 
L 132.339756 264.74688 
L 133.250087 284.974602 
L 134.160419 85.216352 
L 135.070751 110.519625 
L 135.981083 156.692338 
L 136.891414 278.114469 
L 137.801746 78.209921 
L 138.712078 275.775563 
L 139.622409 272.223844 
L 140.532741 148.806866 
L 141.443073 271.007915 
L 142.353404 263.177672 
L 143.263736 88.741896 
L 144.174068 274.85251 
L 145.084399 127.006317 
L 145.994731 151.422793 
L 146.905063 284.345247 
L 147.815395 102.438583 
L 148.725726 145.036082 
L 149.636058 270.242878 
L 150.54639 142.787715 
L 151.456721 155.275325 
L 152.367053 80.621151 
L 153.277385 278.656047 
L 154.187716 92.951683 
L 155.098048 63.028113 
L 156.00838 130.114137 
L 156.918711 102.711635 
L 157.829043 277.793601 
L 158.739375 289.423425 
L 159.649707 277.840731 
L 160.560038 280.246348 
L 161.47037 57.379764 
L 162.380702 281.970203 
L 163.291033 105.661079 
L 164.201365 283.311143 
L 165.111697 134.035282 
L 166.022028 292.839959 
L 166.93236 273.217729 
L 167.842692 282.213843 
L 169.663355 60.772152 
L 170.573687 285.705339 
L 171.484019 47.361347 
L 172.39435 105.04211 
L 173.304682 267.369894 
L 174.215014 293.26316 
L 175.125345 80.612597 
L 176.035677 97.570704 
L 176.946009 291.940914 
L 177.85634 167.891141 
L 178.766672 279.536186 
L 179.677004 267.079264 
L 180.587335 269.045426 
L 181.497667 133.417504 
L 182.407999 276.714521 
L 183.318331 277.676892 
L 184.228662 145.9644 
L 185.138994 299.887048 
L 186.049326 277.979093 
L 186.959657 100.51511 
L 187.869989 290.681555 
L 188.780321 108.009642 
L 189.690652 146.942314 
L 190.600984 46.404351 
L 191.511316 284.741209 
L 192.421647 123.285959 
L 193.331979 280.819279 
L 194.242311 274.655698 
L 195.152643 83.745937 
L 196.062974 271.640179 
L 196.973306 80.179856 
L 197.883638 78.241091 
L 198.793969 276.563723 
L 199.704301 129.265015 
L 200.614633 266.706909 
L 201.524964 288.417903 
L 202.435296 92.140607 
L 203.345628 283.354659 
L 204.255959 168.262533 
L 205.166291 290.537952 
L 206.076623 279.05335 
L 206.986955 124.925616 
L 207.897286 266.434742 
L 208.807618 103.127402 
L 209.71795 272.768221 
L 210.628281 65.57314 
L 211.538613 279.900316 
L 212.448945 133.700512 
L 213.359276 153.107743 
L 214.269608 148.040724 
L 215.17994 150.033226 
L 216.090272 280.561383 
L 217.000603 280.366193 
L 217.910935 281.009415 
L 218.821267 123.218707 
L 219.731598 290.285057 
L 220.64193 277.174483 
L 221.552262 290.191496 
L 222.462593 262.907597 
L 223.372925 280.494722 
L 224.283257 91.837539 
L 225.193588 121.826864 
L 226.10392 259.296503 
L 227.014252 148.939596 
L 227.924584 82.153535 
L 228.834915 78.924842 
L 229.745247 269.691185 
L 230.655579 86.314065 
L 231.56591 265.77347 
L 232.476242 87.964979 
L 233.386574 269.925936 
L 234.296905 75.546532 
L 235.207237 162.222461 
L 236.117569 276.415295 
L 237.0279 126.496583 
L 237.938232 111.631172 
L 238.848564 277.402635 
L 239.758896 180.295283 
L 240.669227 146.597851 
L 241.579559 62.045644 
L 242.489891 284.726533 
L 243.400222 76.327427 
L 244.310554 104.413595 
L 245.220886 154.361757 
L 247.041549 52.231787 
L 247.951881 278.41297 
L 248.862212 66.389175 
L 249.772544 38.382514 
L 250.682876 290.631428 
L 251.593208 99.611848 
L 252.503539 286.870031 
L 253.413871 80.700291 
L 254.324203 148.009269 
L 255.234534 156.703263 
L 256.144866 92.892272 
L 257.055198 276.811028 
L 257.965529 281.438501 
L 258.875861 275.863226 
L 259.786193 89.40487 
L 260.696524 262.194523 
L 261.606856 114.921298 
L 262.517188 167.557665 
L 263.42752 151.509516 
L 264.337851 170.950846 
L 265.248183 171.619153 
L 266.158515 131.934859 
L 267.068846 103.669988 
L 267.979178 98.385487 
L 268.88951 97.128924 
L 269.799841 263.409285 
L 270.710173 276.86565 
L 271.620505 287.160029 
L 272.530836 97.166688 
L 273.441168 279.367476 
L 274.3515 277.721372 
L 275.261832 114.444339 
L 276.172163 281.191905 
L 277.082495 108.265875 
L 277.992827 279.829147 
L 278.903158 120.129313 
L 279.81349 282.606833 
L 280.723822 286.945109 
L 281.634153 270.017893 
L 282.544485 83.964595 
L 283.454817 271.135331 
L 284.365148 277.939346 
L 286.185812 269.571598 
L 287.096144 147.046021 
L 288.006475 293.278279 
L 288.916807 91.994796 
L 289.827139 111.171827 
L 290.73747 107.73948 
L 291.647802 268.76455 
L 292.558134 269.72273 
L 293.468465 285.506423 
L 294.378797 150.402335 
L 295.289129 287.120936 
L 296.19946 281.633387 
L 297.109792 262.904238 
L 298.020124 109.417903 
L 298.930456 106.088082 
L 299.840787 92.403741 
L 300.751119 84.827336 
L 301.661451 91.847385 
L 302.571782 130.771983 
L 303.482114 282.668584 
L 304.392446 285.836098 
L 305.302777 101.261206 
L 306.213109 96.842472 
L 307.123441 281.998061 
L 308.033772 131.235629 
L 308.944104 54.178199 
L 309.854436 143.982237 
L 310.764768 139.888246 
L 311.675099 71.974718 
L 312.585431 291.245735 
L 313.495763 275.02155 
L 314.406094 271.05462 
L 315.316426 265.672211 
L 316.226758 271.278791 
L 317.137089 301.699686 
L 318.047421 97.647564 
L 318.957753 286.61555 
L 319.868084 87.849545 
L 320.778416 280.218322 
L 321.688748 140.769066 
L 322.59908 285.875399 
L 323.509411 144.536991 
L 324.419743 98.070712 
L 325.330075 119.192154 
L 326.240406 129.010682 
L 327.150738 278.034005 
L 328.06107 261.691829 
L 328.971401 74.510331 
L 329.881733 126.652097 
L 330.792065 278.054518 
L 331.702397 277.018116 
L 332.612728 278.77245 
L 333.52306 288.253357 
L 334.433392 108.734424 
L 335.343723 127.834584 
L 336.254055 281.325732 
L 337.164387 121.447212 
L 338.074718 102.085523 
L 338.98505 278.460825 
L 339.895382 265.584833 
L 340.805713 290.133876 
L 341.716045 131.523565 
L 342.626377 24.80656 
L 343.536709 271.266012 
L 344.44704 260.631526 
L 345.357372 110.695173 
L 346.267704 288.965404 
L 347.178035 162.882845 
L 348.088367 269.331077 
L 348.998699 259.07313 
L 349.90903 275.993169 
L 350.819362 269.564091 
L 351.729694 94.142018 
L 352.640025 296.741256 
L 353.550357 136.833097 
L 354.460689 286.076918 
L 355.371021 304.937763 
L 356.281352 274.04885 
L 357.191684 105.242103 
L 358.102016 282.38508 
L 359.012347 256.269135 
L 359.922679 279.340466 
L 360.833011 77.754824 
L 361.743342 271.591463 
L 362.653674 133.316127 
L 363.564006 103.15861 
L 364.474337 276.68483 
L 365.384669 274.792616 
L 366.295001 109.615152 
L 367.205333 274.795123 
L 368.115664 141.052566 
L 369.025996 127.739972 
L 369.936328 291.998983 
L 370.846659 267.276153 
L 371.756991 126.55229 
L 372.667323 88.502055 
L 373.577654 268.058188 
L 374.487986 133.138356 
L 375.398318 88.927468 
L 376.308649 126.268012 
L 377.218981 117.934725 
L 378.129313 280.905668 
L 379.039645 109.636524 
L 379.949976 264.950254 
L 380.860308 91.026227 
L 381.77064 131.025363 
L 382.680971 272.115087 
L 383.591303 261.993003 
L 384.501635 110.764073 
L 385.411966 94.83744 
L 386.322298 93.842277 
L 387.23263 104.891185 
L 388.142961 282.584842 
L 389.053293 150.713651 
L 389.963625 275.239261 
L 391.784288 299.480331 
L 392.69462 282.582235 
L 393.604952 275.841339 
L 394.515283 273.413941 
L 395.425615 141.496611 
L 396.335947 277.304825 
L 397.246278 280.444992 
L 398.15661 171.388294 
L 399.066942 136.038107 
L 399.977273 73.835874 
L 400.887605 276.708926 
L 401.797937 137.08365 
L 402.708269 132.1326 
L 403.6186 152.012933 
L 404.528932 113.074841 
L 405.439264 288.589024 
L 406.349595 128.378411 
L 407.259927 268.662822 
L 408.170259 99.872812 
L 409.08059 133.366112 
L 409.990922 55.703826 
L 410.901254 286.036208 
L 411.811585 67.024888 
L 412.721917 283.312045 
L 413.632249 275.345304 
L 414.542581 115.008456 
L 415.452912 104.630416 
L 416.363244 106.655036 
L 417.273576 274.852038 
L 418.183907 280.393447 
L 419.094239 111.529823 
L 420.004571 121.657256 
L 420.914902 273.467384 
L 421.825234 165.873252 
L 422.735566 286.952217 
L 423.645897 280.006294 
L 424.556229 278.61054 
L 425.466561 281.463918 
L 426.376893 260.108897 
L 427.287224 294.873228 
L 428.197556 45.578812 
L 429.107888 265.740522 
L 430.018219 275.148137 
L 430.928551 166.964164 
L 431.838883 263.256364 
L 431.838883 263.256364 
" clip-path="url(#p84db73ab32)" style="fill: none; stroke: #3c74ff; stroke-width: 1.5; stroke-linecap: square"/>
   </g>
   <g id="patch_3">
    <path d="M 50.45542 318.944323 
L 50.45542 10.8 
" style="fill: none; stroke: #000000; stroke-width: 0.8; stroke-linejoin: miter; stroke-linecap: square"/>
   </g>
   <g id="patch_4">
    <path d="M 450 318.944323 
L 450 10.8 
" style="fill: none; stroke: #000000; stroke-width: 0.8; stroke-linejoin: miter; stroke-linecap: square"/>
   </g>
   <g id="patch_5">
    <path d="M 50.45542 318.944323 
L 450 318.944323 
" style="fill: none; stroke: #000000; stroke-width: 0.8; stroke-linejoin: miter; stroke-linecap: square"/>
   </g>
   <g id="patch_6">
    <path d="M 50.45542 10.8 
L 450 10.8 
" style="fill: none; stroke: #000000; stroke-width: 0.8; stroke-linejoin: miter; stroke-linecap: square"/>
   </g>
   <g id="legend_1">
    <g id="patch_7">
     <path d="M 364.49378 32.737178 
L 443 32.737178 
Q 445 32.737178 445 30.737178 
L 445 17.8 
Q 445 15.8 443 15.8 
L 364.49378 15.8 
Q 362.49378 15.8 362.49378 17.8 
L 362.49378 30.737178 
Q 362.49378 32.737178 364.49378 32.737178 
z
" style="fill: #ffffff; opacity: 0.8; stroke: #cccccc; stroke-linejoin: miter"/>
    </g>
    <g id="line2d_19">
     <path d="M 366.49378 23.3 
L 376.49378 23.3 
L 386.49378 23.3 
" style="fill: none; stroke: #3c74ff; stroke-width: 1.5; stroke-linecap: square"/>
    </g>
    <g id="text_18">
     <!-- Real values -->
     <g transform="translate(394.49378 26.8)scale(0.1 -0.1)">
      <defs>
       <path id="CMSS17-52" d="M 2522 2099 
L 2534 2105 
C 3533 2450 3539 3125 3539 3244 
C 3539 3838 2925 4416 2003 4416 
L 570 4416 
L 570 0 
L 1094 0 
L 1094 2041 
L 2035 2041 
L 3168 0 
L 3706 0 
L 2522 2099 
z
M 1094 2432 
L 1094 4057 
L 1933 4057 
C 2746 4057 3034 3607 3034 3244 
C 3034 2907 2778 2432 1933 2432 
L 1094 2432 
z
" transform="scale(0.015625)"/>
       <path id="CMSS17-65" d="M 2502 1375 
C 2502 1587 2490 2001 2285 2347 
C 2061 2713 1696 2816 1421 2816 
C 755 2816 192 2184 192 1363 
C 192 579 774 -64 1510 -64 
C 1798 -64 2150 19 2470 249 
C 2470 275 2458 414 2451 421 
C 2451 433 2432 629 2432 655 
C 2125 408 1773 326 1517 326 
C 1107 326 666 667 646 1375 
L 2502 1375 
z
M 698 1728 
C 781 2086 1062 2425 1421 2425 
C 1517 2425 1965 2412 2080 1728 
L 698 1728 
z
" transform="scale(0.015625)"/>
       <path id="CMSS17-61" d="M 2406 1789 
C 2406 2399 1978 2816 1402 2816 
C 1120 2816 813 2764 461 2559 
L 499 2133 
C 659 2250 934 2438 1395 2438 
C 1722 2438 1920 2185 1920 1782 
L 1920 1536 
C 896 1504 256 1209 256 711 
C 256 452 416 -64 947 -64 
C 1043 -64 1562 -52 1933 224 
L 1933 -13 
L 2406 -13 
L 2406 1789 
z
M 1920 824 
C 1920 711 1920 559 1728 446 
C 1562 339 1350 326 1261 326 
C 941 326 723 503 723 723 
C 723 1165 1722 1209 1920 1216 
L 1920 824 
z
" transform="scale(0.015625)"/>
       <path id="CMSS17-6c" d="M 947 4416 
L 474 4416 
L 474 0 
L 947 0 
L 947 4416 
z
" transform="scale(0.015625)"/>
       <path id="CMSS17-76" d="M 2675 2752 
L 2176 2752 
L 1747 1555 
C 1613 1164 1421 627 1389 352 
L 1382 352 
C 1370 467 1318 633 1286 748 
C 1248 889 1197 1056 1158 1171 
L 595 2752 
L 83 2752 
L 1094 0 
L 1664 0 
L 2675 2752 
z
" transform="scale(0.015625)"/>
       <path id="CMSS17-75" d="M 2618 2752 
L 2131 2752 
L 2131 976 
C 2131 500 1786 307 1421 307 
C 998 307 960 448 960 712 
L 960 2752 
L 474 2752 
L 474 680 
C 474 179 646 -64 1088 -64 
C 1306 -64 1798 -13 2144 307 
L 2144 -13 
L 2618 -13 
L 2618 2752 
z
" transform="scale(0.015625)"/>
       <path id="CMSS17-73" d="M 2061 2623 
C 1683 2803 1389 2816 1197 2816 
C 742 2816 198 2655 198 2009 
C 198 1363 902 1222 1094 1183 
C 1389 1126 1715 1062 1715 742 
C 1715 339 1254 339 1171 339 
C 915 339 563 409 243 639 
L 166 211 
C 531 0 883 -64 1178 -64 
C 1965 -64 2163 416 2163 780 
C 2163 1094 1984 1305 1862 1401 
C 1651 1567 1574 1587 1050 1695 
C 960 1708 646 1779 646 2067 
C 646 2431 1050 2431 1139 2431 
C 1555 2431 1811 2303 1984 2207 
L 2061 2623 
z
" transform="scale(0.015625)"/>
      </defs>
      <use xlink:href="#CMSS17-52" transform="scale(0.996264)"/>
      <use xlink:href="#CMSS17-65" transform="translate(60.416155 0)scale(0.996264)"/>
      <use xlink:href="#CMSS17-61" transform="translate(102.054977 0)scale(0.996264)"/>
      <use xlink:href="#CMSS17-6c" transform="translate(146.976898 0)scale(0.996264)"/>
      <use xlink:href="#CMSS17-76" transform="translate(200.386733 0)scale(0.996264)"/>
      <use xlink:href="#CMSS17-61" transform="translate(243.386875 0)scale(0.996264)"/>
      <use xlink:href="#CMSS17-6c" transform="translate(288.308796 0)scale(0.996264)"/>
      <use xlink:href="#CMSS17-75" transform="translate(310.489519 0)scale(0.996264)"/>
      <use xlink:href="#CMSS17-65" transform="translate(358.694462 0)scale(0.996264)"/>
      <use xlink:href="#CMSS17-73" transform="translate(400.333284 0)scale(0.996264)"/>
     </g>
    </g>
   </g>
  </g>
 </g>
 <defs>
  <clipPath id="p84db73ab32">
   <rect x="50.45542" y="10.8" width="399.54458" height="308.144323"/>
  </clipPath>
 </defs>
</svg>
