<?xml version="1.0" encoding="utf-8" standalone="no"?>
<!DOCTYPE svg PUBLIC "-//W3C//DTD SVG 1.1//EN"
  "http://www.w3.org/Graphics/SVG/1.1/DTD/svg11.dtd">
<svg xmlns:xlink="http://www.w3.org/1999/xlink" width="460.8pt" height="345.6pt" viewBox="0 0 460.8 345.6" xmlns="http://www.w3.org/2000/svg" version="1.1">
 <metadata>
  <rdf:RDF xmlns:dc="http://purl.org/dc/elements/1.1/" xmlns:cc="http://creativecommons.org/ns#" xmlns:rdf="http://www.w3.org/1999/02/22-rdf-syntax-ns#">
   <cc:Work>
    <dc:type rdf:resource="http://purl.org/dc/dcmitype/StillImage"/>
    <dc:date>2023-03-13T13:38:50.607339</dc:date>
    <dc:format>image/svg+xml</dc:format>
    <dc:creator>
     <cc:Agent>
      <dc:title>Matplotlib v3.5.3, https://matplotlib.org/</dc:title>
     </cc:Agent>
    </dc:creator>
   </cc:Work>
  </rdf:RDF>
 </metadata>
 <defs>
  <style type="text/css">*{stroke-linejoin: round; stroke-linecap: butt}</style>
 </defs>
 <g id="figure_1">
  <g id="patch_1">
   <path d="M 0 345.6 
L 460.8 345.6 
L 460.8 0 
L 0 0 
z
" style="fill: #ffffff"/>
  </g>
  <g id="axes_1">
   <g id="patch_2">
    <path d="M 67.738889 301.660854 
L 450 301.660854 
L 450 10.8 
L 67.738889 10.8 
z
" style="fill: #ffffff"/>
   </g>
   <g id="matplotlib.axis_1">
    <g id="xtick_1">
     <g id="line2d_1">
      <defs>
       <path id="m6f2468374a" d="M 0 0 
L 0 3.5 
" style="stroke: #000000; stroke-width: 0.8"/>
      </defs>
      <g>
       <use xlink:href="#m6f2468374a" x="85.114394" y="301.660854" style="stroke: #000000; stroke-width: 0.8"/>
      </g>
     </g>
     <g id="text_1">
      <!-- $\mathdefault{0}$ -->
      <g transform="translate(82.623727 315.579352)scale(0.1 -0.1)">
       <defs>
        <path id="CMR17-30" d="M 2688 2038 
C 2688 2430 2682 3099 2413 3613 
C 2176 4063 1798 4224 1466 4224 
C 1158 4224 768 4082 525 3620 
C 269 3137 243 2539 243 2038 
C 243 1671 250 1112 448 623 
C 723 -39 1216 -128 1466 -128 
C 1760 -128 2208 -7 2470 604 
C 2662 1048 2688 1568 2688 2038 
z
M 1466 -26 
C 1056 -26 813 328 723 816 
C 653 1196 653 1749 653 2109 
C 653 2604 653 3015 736 3407 
C 858 3954 1216 4121 1466 4121 
C 1728 4121 2067 3947 2189 3420 
C 2272 3054 2278 2623 2278 2109 
C 2278 1691 2278 1176 2202 797 
C 2067 96 1690 -26 1466 -26 
z
" transform="scale(0.015625)"/>
       </defs>
       <use xlink:href="#CMR17-30" transform="scale(0.996264)"/>
      </g>
     </g>
    </g>
    <g id="xtick_2">
     <g id="line2d_2">
      <g>
       <use xlink:href="#m6f2468374a" x="128.771442" y="301.660854" style="stroke: #000000; stroke-width: 0.8"/>
      </g>
     </g>
     <g id="text_2">
      <!-- $\mathdefault{25}$ -->
      <g transform="translate(123.790107 315.579352)scale(0.1 -0.1)">
       <defs>
        <path id="CMR17-32" d="M 2669 990 
L 2554 990 
C 2490 537 2438 460 2413 422 
C 2381 371 1920 371 1830 371 
L 602 371 
C 832 620 1280 1073 1824 1596 
C 2214 1966 2669 2400 2669 3033 
C 2669 3788 2067 4224 1395 4224 
C 691 4224 262 3603 262 3027 
C 262 2777 448 2745 525 2745 
C 589 2745 781 2783 781 3007 
C 781 3206 614 3264 525 3264 
C 486 3264 448 3257 422 3244 
C 544 3788 915 4057 1306 4057 
C 1862 4057 2227 3616 2227 3033 
C 2227 2477 1901 1998 1536 1583 
L 262 147 
L 262 0 
L 2515 0 
L 2669 990 
z
" transform="scale(0.015625)"/>
        <path id="CMR17-35" d="M 730 3750 
C 794 3724 1056 3641 1325 3641 
C 1920 3641 2246 3961 2432 4140 
C 2432 4191 2432 4224 2394 4224 
C 2387 4224 2374 4224 2323 4198 
C 2099 4102 1837 4032 1517 4032 
C 1325 4032 1037 4055 723 4191 
C 653 4224 640 4224 634 4224 
C 602 4224 595 4217 595 4090 
L 595 2231 
C 595 2113 595 2080 659 2080 
C 691 2080 704 2093 736 2139 
C 941 2435 1222 2560 1542 2560 
C 1766 2560 2246 2415 2246 1293 
C 2246 1087 2246 716 2054 422 
C 1894 159 1645 25 1370 25 
C 947 25 518 319 403 812 
C 429 806 480 793 506 793 
C 589 793 749 838 749 1036 
C 749 1209 627 1280 506 1280 
C 358 1280 262 1190 262 1011 
C 262 454 704 -128 1382 -128 
C 2042 -128 2669 441 2669 1267 
C 2669 2054 2170 2662 1549 2662 
C 1222 2662 947 2540 730 2304 
L 730 3750 
z
" transform="scale(0.015625)"/>
       </defs>
       <use xlink:href="#CMR17-32" transform="scale(0.996264)"/>
       <use xlink:href="#CMR17-35" transform="translate(45.690477 0)scale(0.996264)"/>
      </g>
     </g>
    </g>
    <g id="xtick_3">
     <g id="line2d_3">
      <g>
       <use xlink:href="#m6f2468374a" x="172.42849" y="301.660854" style="stroke: #000000; stroke-width: 0.8"/>
      </g>
     </g>
     <g id="text_3">
      <!-- $\mathdefault{50}$ -->
      <g transform="translate(167.447155 315.579352)scale(0.1 -0.1)">
       <use xlink:href="#CMR17-35" transform="scale(0.996264)"/>
       <use xlink:href="#CMR17-30" transform="translate(45.690477 0)scale(0.996264)"/>
      </g>
     </g>
    </g>
    <g id="xtick_4">
     <g id="line2d_4">
      <g>
       <use xlink:href="#m6f2468374a" x="216.085538" y="301.660854" style="stroke: #000000; stroke-width: 0.8"/>
      </g>
     </g>
     <g id="text_4">
      <!-- $\mathdefault{75}$ -->
      <g transform="translate(211.104203 315.579352)scale(0.1 -0.1)">
       <defs>
        <path id="CMR17-37" d="M 2886 3955 
L 2886 4096 
L 1382 4096 
C 634 4096 621 4166 595 4288 
L 480 4288 
L 294 3104 
L 410 3104 
C 429 3226 474 3552 550 3673 
C 589 3724 1062 3724 1171 3724 
L 2579 3724 
L 1869 2670 
C 1395 1961 1069 1003 1069 166 
C 1069 89 1069 -128 1299 -128 
C 1530 -128 1530 89 1530 172 
L 1530 466 
C 1530 1514 1709 2204 2003 2644 
L 2886 3955 
z
" transform="scale(0.015625)"/>
       </defs>
       <use xlink:href="#CMR17-37" transform="scale(0.996264)"/>
       <use xlink:href="#CMR17-35" transform="translate(45.690477 0)scale(0.996264)"/>
      </g>
     </g>
    </g>
    <g id="xtick_5">
     <g id="line2d_5">
      <g>
       <use xlink:href="#m6f2468374a" x="259.742586" y="301.660854" style="stroke: #000000; stroke-width: 0.8"/>
      </g>
     </g>
     <g id="text_5">
      <!-- $\mathdefault{100}$ -->
      <g transform="translate(252.270583 315.579352)scale(0.1 -0.1)">
       <defs>
        <path id="CMR17-31" d="M 1702 4083 
C 1702 4217 1696 4224 1606 4224 
C 1357 3927 979 3833 621 3820 
C 602 3820 570 3820 563 3808 
C 557 3795 557 3782 557 3648 
C 755 3648 1088 3686 1344 3839 
L 1344 467 
C 1344 243 1331 166 781 166 
L 589 166 
L 589 0 
C 896 6 1216 12 1523 12 
C 1830 12 2150 6 2458 0 
L 2458 166 
L 2266 166 
C 1715 166 1702 236 1702 467 
L 1702 4083 
z
" transform="scale(0.015625)"/>
       </defs>
       <use xlink:href="#CMR17-31" transform="scale(0.996264)"/>
       <use xlink:href="#CMR17-30" transform="translate(45.690477 0)scale(0.996264)"/>
       <use xlink:href="#CMR17-30" transform="translate(91.380954 0)scale(0.996264)"/>
      </g>
     </g>
    </g>
    <g id="xtick_6">
     <g id="line2d_6">
      <g>
       <use xlink:href="#m6f2468374a" x="303.399633" y="301.660854" style="stroke: #000000; stroke-width: 0.8"/>
      </g>
     </g>
     <g id="text_6">
      <!-- $\mathdefault{125}$ -->
      <g transform="translate(295.927631 315.579352)scale(0.1 -0.1)">
       <use xlink:href="#CMR17-31" transform="scale(0.996264)"/>
       <use xlink:href="#CMR17-32" transform="translate(45.690477 0)scale(0.996264)"/>
       <use xlink:href="#CMR17-35" transform="translate(91.380954 0)scale(0.996264)"/>
      </g>
     </g>
    </g>
    <g id="xtick_7">
     <g id="line2d_7">
      <g>
       <use xlink:href="#m6f2468374a" x="347.056681" y="301.660854" style="stroke: #000000; stroke-width: 0.8"/>
      </g>
     </g>
     <g id="text_7">
      <!-- $\mathdefault{150}$ -->
      <g transform="translate(339.584678 315.579352)scale(0.1 -0.1)">
       <use xlink:href="#CMR17-31" transform="scale(0.996264)"/>
       <use xlink:href="#CMR17-35" transform="translate(45.690477 0)scale(0.996264)"/>
       <use xlink:href="#CMR17-30" transform="translate(91.380954 0)scale(0.996264)"/>
      </g>
     </g>
    </g>
    <g id="xtick_8">
     <g id="line2d_8">
      <g>
       <use xlink:href="#m6f2468374a" x="390.713729" y="301.660854" style="stroke: #000000; stroke-width: 0.8"/>
      </g>
     </g>
     <g id="text_8">
      <!-- $\mathdefault{175}$ -->
      <g transform="translate(383.241726 315.579352)scale(0.1 -0.1)">
       <use xlink:href="#CMR17-31" transform="scale(0.996264)"/>
       <use xlink:href="#CMR17-37" transform="translate(45.690477 0)scale(0.996264)"/>
       <use xlink:href="#CMR17-35" transform="translate(91.380954 0)scale(0.996264)"/>
      </g>
     </g>
    </g>
    <g id="xtick_9">
     <g id="line2d_9">
      <g>
       <use xlink:href="#m6f2468374a" x="434.370777" y="301.660854" style="stroke: #000000; stroke-width: 0.8"/>
      </g>
     </g>
     <g id="text_9">
      <!-- $\mathdefault{200}$ -->
      <g transform="translate(426.898774 315.579352)scale(0.1 -0.1)">
       <use xlink:href="#CMR17-32" transform="scale(0.996264)"/>
       <use xlink:href="#CMR17-30" transform="translate(45.690477 0)scale(0.996264)"/>
       <use xlink:href="#CMR17-30" transform="translate(91.380954 0)scale(0.996264)"/>
      </g>
     </g>
    </g>
    <g id="text_10">
     <!-- Inner Region Data -->
     <g transform="translate(203.098354 331.894255)scale(0.15 -0.15)">
      <defs>
       <path id="CMSS17-49" d="M 1094 4416 
L 557 4416 
L 557 0 
L 1094 0 
L 1094 4416 
z
" transform="scale(0.015625)"/>
       <path id="CMSS17-6e" d="M 2618 1878 
C 2618 2283 2522 2816 1798 2816 
C 1389 2816 1120 2604 941 2386 
L 941 2783 
L 474 2783 
L 474 0 
L 960 0 
L 960 1556 
C 960 1962 1114 2425 1549 2425 
C 2112 2425 2131 2045 2131 1826 
L 2131 0 
L 2618 0 
L 2618 1878 
z
" transform="scale(0.015625)"/>
       <path id="CMSS17-65" d="M 2502 1375 
C 2502 1587 2490 2001 2285 2347 
C 2061 2713 1696 2816 1421 2816 
C 755 2816 192 2184 192 1363 
C 192 579 774 -64 1510 -64 
C 1798 -64 2150 19 2470 249 
C 2470 275 2458 414 2451 421 
C 2451 433 2432 629 2432 655 
C 2125 408 1773 326 1517 326 
C 1107 326 666 667 646 1375 
L 2502 1375 
z
M 698 1728 
C 781 2086 1062 2425 1421 2425 
C 1517 2425 1965 2412 2080 1728 
L 698 1728 
z
" transform="scale(0.015625)"/>
       <path id="CMSS17-72" d="M 954 1369 
C 954 1974 1395 2379 1958 2392 
L 1958 2816 
C 1549 2809 1165 2604 934 2270 
L 934 2783 
L 480 2783 
L 480 0 
L 954 0 
L 954 1369 
z
" transform="scale(0.015625)"/>
       <path id="CMSS17-52" d="M 2522 2099 
L 2534 2105 
C 3533 2450 3539 3125 3539 3244 
C 3539 3838 2925 4416 2003 4416 
L 570 4416 
L 570 0 
L 1094 0 
L 1094 2041 
L 2035 2041 
L 3168 0 
L 3706 0 
L 2522 2099 
z
M 1094 2432 
L 1094 4057 
L 1933 4057 
C 2746 4057 3034 3607 3034 3244 
C 3034 2907 2778 2432 1933 2432 
L 1094 2432 
z
" transform="scale(0.015625)"/>
       <path id="CMSS17-67" d="M 2848 2816 
C 2483 2809 2170 2739 1914 2617 
C 1702 2783 1485 2816 1338 2816 
C 781 2816 358 2356 358 1824 
C 358 1481 550 1222 563 1209 
C 448 1049 384 876 384 684 
C 384 460 474 300 544 211 
C 211 6 166 -308 166 -429 
C 166 -896 749 -1280 1498 -1280 
C 2253 -1280 2835 -896 2835 -423 
C 2835 460 1856 467 1587 467 
L 1069 467 
C 973 467 717 467 717 793 
C 717 921 774 1004 781 1011 
C 877 940 1075 832 1338 832 
C 1869 832 2310 1279 2310 1824 
C 2310 2128 2170 2349 2112 2425 
L 2131 2425 
C 2150 2425 2419 2444 2515 2444 
C 2720 2444 2739 2438 2918 2419 
L 2848 2816 
z
M 1338 1184 
C 1120 1184 813 1317 813 1824 
C 813 2375 1165 2463 1331 2463 
C 1549 2463 1856 2330 1856 1824 
C 1856 1272 1504 1184 1338 1184 
z
M 1581 0 
C 1734 0 2381 0 2381 -436 
C 2381 -711 1984 -928 1504 -928 
C 1018 -928 621 -717 621 -429 
C 621 -397 621 0 1062 0 
L 1581 0 
z
" transform="scale(0.015625)"/>
       <path id="CMSS17-69" d="M 979 4224 
L 442 4224 
L 442 3686 
L 979 3686 
L 979 4224 
z
M 947 2752 
L 474 2752 
L 474 0 
L 947 0 
L 947 2752 
z
" transform="scale(0.015625)"/>
       <path id="CMSS17-6f" d="M 2829 1356 
C 2829 2175 2221 2816 1504 2816 
C 768 2816 173 2156 173 1356 
C 173 544 787 -64 1498 -64 
C 2227 -64 2829 563 2829 1356 
z
M 1504 339 
C 1050 339 659 710 659 1407 
C 659 2150 1114 2425 1498 2425 
C 1914 2425 2342 2124 2342 1407 
C 2342 684 1926 339 1504 339 
z
" transform="scale(0.015625)"/>
       <path id="CMSS17-44" d="M 570 4416 
L 570 0 
L 2144 0 
C 3194 0 4000 981 4000 2169 
C 4000 3396 3194 4416 2144 4416 
L 570 4416 
z
M 1094 358 
L 1094 4057 
L 2003 4057 
C 2861 4057 3475 3275 3475 2169 
C 3475 1108 2867 358 2003 358 
L 1094 358 
z
" transform="scale(0.015625)"/>
       <path id="CMSS17-61" d="M 2406 1789 
C 2406 2399 1978 2816 1402 2816 
C 1120 2816 813 2764 461 2559 
L 499 2133 
C 659 2250 934 2438 1395 2438 
C 1722 2438 1920 2185 1920 1782 
L 1920 1536 
C 896 1504 256 1209 256 711 
C 256 452 416 -64 947 -64 
C 1043 -64 1562 -52 1933 224 
L 1933 -13 
L 2406 -13 
L 2406 1789 
z
M 1920 824 
C 1920 711 1920 559 1728 446 
C 1562 339 1350 326 1261 326 
C 941 326 723 503 723 723 
C 723 1165 1722 1209 1920 1216 
L 1920 824 
z
" transform="scale(0.015625)"/>
       <path id="CMSS17-74" d="M 1069 2380 
L 1901 2380 
L 1901 2752 
L 1069 2752 
L 1069 3520 
L 614 3520 
L 614 2752 
L 109 2752 
L 109 2380 
L 602 2380 
L 602 751 
C 602 384 685 -64 1107 -64 
C 1427 -64 1722 25 2003 172 
L 1901 551 
C 1747 416 1562 339 1363 339 
C 1082 339 1069 699 1069 860 
L 1069 2380 
z
" transform="scale(0.015625)"/>
      </defs>
      <use xlink:href="#CMSS17-49" transform="scale(0.996264)"/>
      <use xlink:href="#CMSS17-6e" transform="translate(25.783926 0)scale(0.996264)"/>
      <use xlink:href="#CMSS17-6e" transform="translate(73.988869 0)scale(0.996264)"/>
      <use xlink:href="#CMSS17-65" transform="translate(122.193812 0)scale(0.996264)"/>
      <use xlink:href="#CMSS17-72" transform="translate(163.832634 0)scale(0.996264)"/>
      <use xlink:href="#CMSS17-52" transform="translate(226.971519 0)scale(0.996264)"/>
      <use xlink:href="#CMSS17-65" transform="translate(287.387674 0)scale(0.996264)"/>
      <use xlink:href="#CMSS17-67" transform="translate(329.026496 0)scale(0.996264)"/>
      <use xlink:href="#CMSS17-69" transform="translate(375.87012 0)scale(0.996264)"/>
      <use xlink:href="#CMSS17-6f" transform="translate(398.050843 0)scale(0.996264)"/>
      <use xlink:href="#CMSS17-6e" transform="translate(444.894466 0)scale(0.996264)"/>
      <use xlink:href="#CMSS17-44" transform="translate(524.328522 0)scale(0.996264)"/>
      <use xlink:href="#CMSS17-61" transform="translate(591.871364 0)scale(0.996264)"/>
      <use xlink:href="#CMSS17-74" transform="translate(636.793284 0)scale(0.996264)"/>
      <use xlink:href="#CMSS17-61" transform="translate(670.624851 0)scale(0.996264)"/>
     </g>
    </g>
   </g>
   <g id="matplotlib.axis_2">
    <g id="ytick_1">
     <g id="line2d_10">
      <defs>
       <path id="m1724cd0209" d="M 0 0 
L -3.5 0 
" style="stroke: #000000; stroke-width: 0.8"/>
      </defs>
      <g>
       <use xlink:href="#m1724cd0209" x="67.738889" y="274.675255" style="stroke: #000000; stroke-width: 0.8"/>
      </g>
     </g>
     <g id="text_11">
      <!-- $\mathdefault{0.00050}$ -->
      <g transform="translate(28.083469 278.134504)scale(0.1 -0.1)">
       <defs>
        <path id="CMMI12-3a" d="M 1178 307 
C 1178 492 1024 620 870 620 
C 685 620 557 467 557 313 
C 557 128 710 0 864 0 
C 1050 0 1178 153 1178 307 
z
" transform="scale(0.015625)"/>
       </defs>
       <use xlink:href="#CMR17-30" transform="scale(0.996264)"/>
       <use xlink:href="#CMMI12-3a" transform="translate(45.690477 0)scale(0.996264)"/>
       <use xlink:href="#CMR17-30" transform="translate(72.787654 0)scale(0.996264)"/>
       <use xlink:href="#CMR17-30" transform="translate(118.478131 0)scale(0.996264)"/>
       <use xlink:href="#CMR17-30" transform="translate(164.168608 0)scale(0.996264)"/>
       <use xlink:href="#CMR17-35" transform="translate(209.859086 0)scale(0.996264)"/>
       <use xlink:href="#CMR17-30" transform="translate(255.549563 0)scale(0.996264)"/>
      </g>
     </g>
    </g>
    <g id="ytick_2">
     <g id="line2d_11">
      <g>
       <use xlink:href="#m1724cd0209" x="67.738889" y="238.587684" style="stroke: #000000; stroke-width: 0.8"/>
      </g>
     </g>
     <g id="text_12">
      <!-- $\mathdefault{0.00075}$ -->
      <g transform="translate(28.083469 242.046933)scale(0.1 -0.1)">
       <use xlink:href="#CMR17-30" transform="scale(0.996264)"/>
       <use xlink:href="#CMMI12-3a" transform="translate(45.690477 0)scale(0.996264)"/>
       <use xlink:href="#CMR17-30" transform="translate(72.787654 0)scale(0.996264)"/>
       <use xlink:href="#CMR17-30" transform="translate(118.478131 0)scale(0.996264)"/>
       <use xlink:href="#CMR17-30" transform="translate(164.168608 0)scale(0.996264)"/>
       <use xlink:href="#CMR17-37" transform="translate(209.859086 0)scale(0.996264)"/>
       <use xlink:href="#CMR17-35" transform="translate(255.549563 0)scale(0.996264)"/>
      </g>
     </g>
    </g>
    <g id="ytick_3">
     <g id="line2d_12">
      <g>
       <use xlink:href="#m1724cd0209" x="67.738889" y="202.500112" style="stroke: #000000; stroke-width: 0.8"/>
      </g>
     </g>
     <g id="text_13">
      <!-- $\mathdefault{0.00100}$ -->
      <g transform="translate(28.083469 205.959361)scale(0.1 -0.1)">
       <use xlink:href="#CMR17-30" transform="scale(0.996264)"/>
       <use xlink:href="#CMMI12-3a" transform="translate(45.690477 0)scale(0.996264)"/>
       <use xlink:href="#CMR17-30" transform="translate(72.787654 0)scale(0.996264)"/>
       <use xlink:href="#CMR17-30" transform="translate(118.478131 0)scale(0.996264)"/>
       <use xlink:href="#CMR17-31" transform="translate(164.168608 0)scale(0.996264)"/>
       <use xlink:href="#CMR17-30" transform="translate(209.859086 0)scale(0.996264)"/>
       <use xlink:href="#CMR17-30" transform="translate(255.549563 0)scale(0.996264)"/>
      </g>
     </g>
    </g>
    <g id="ytick_4">
     <g id="line2d_13">
      <g>
       <use xlink:href="#m1724cd0209" x="67.738889" y="166.412541" style="stroke: #000000; stroke-width: 0.8"/>
      </g>
     </g>
     <g id="text_14">
      <!-- $\mathdefault{0.00125}$ -->
      <g transform="translate(28.083469 169.87179)scale(0.1 -0.1)">
       <use xlink:href="#CMR17-30" transform="scale(0.996264)"/>
       <use xlink:href="#CMMI12-3a" transform="translate(45.690477 0)scale(0.996264)"/>
       <use xlink:href="#CMR17-30" transform="translate(72.787654 0)scale(0.996264)"/>
       <use xlink:href="#CMR17-30" transform="translate(118.478131 0)scale(0.996264)"/>
       <use xlink:href="#CMR17-31" transform="translate(164.168608 0)scale(0.996264)"/>
       <use xlink:href="#CMR17-32" transform="translate(209.859086 0)scale(0.996264)"/>
       <use xlink:href="#CMR17-35" transform="translate(255.549563 0)scale(0.996264)"/>
      </g>
     </g>
    </g>
    <g id="ytick_5">
     <g id="line2d_14">
      <g>
       <use xlink:href="#m1724cd0209" x="67.738889" y="130.324969" style="stroke: #000000; stroke-width: 0.8"/>
      </g>
     </g>
     <g id="text_15">
      <!-- $\mathdefault{0.00150}$ -->
      <g transform="translate(28.083469 133.784219)scale(0.1 -0.1)">
       <use xlink:href="#CMR17-30" transform="scale(0.996264)"/>
       <use xlink:href="#CMMI12-3a" transform="translate(45.690477 0)scale(0.996264)"/>
       <use xlink:href="#CMR17-30" transform="translate(72.787654 0)scale(0.996264)"/>
       <use xlink:href="#CMR17-30" transform="translate(118.478131 0)scale(0.996264)"/>
       <use xlink:href="#CMR17-31" transform="translate(164.168608 0)scale(0.996264)"/>
       <use xlink:href="#CMR17-35" transform="translate(209.859086 0)scale(0.996264)"/>
       <use xlink:href="#CMR17-30" transform="translate(255.549563 0)scale(0.996264)"/>
      </g>
     </g>
    </g>
    <g id="ytick_6">
     <g id="line2d_15">
      <g>
       <use xlink:href="#m1724cd0209" x="67.738889" y="94.237398" style="stroke: #000000; stroke-width: 0.8"/>
      </g>
     </g>
     <g id="text_16">
      <!-- $\mathdefault{0.00175}$ -->
      <g transform="translate(28.083469 97.696647)scale(0.1 -0.1)">
       <use xlink:href="#CMR17-30" transform="scale(0.996264)"/>
       <use xlink:href="#CMMI12-3a" transform="translate(45.690477 0)scale(0.996264)"/>
       <use xlink:href="#CMR17-30" transform="translate(72.787654 0)scale(0.996264)"/>
       <use xlink:href="#CMR17-30" transform="translate(118.478131 0)scale(0.996264)"/>
       <use xlink:href="#CMR17-31" transform="translate(164.168608 0)scale(0.996264)"/>
       <use xlink:href="#CMR17-37" transform="translate(209.859086 0)scale(0.996264)"/>
       <use xlink:href="#CMR17-35" transform="translate(255.549563 0)scale(0.996264)"/>
      </g>
     </g>
    </g>
    <g id="ytick_7">
     <g id="line2d_16">
      <g>
       <use xlink:href="#m1724cd0209" x="67.738889" y="58.149827" style="stroke: #000000; stroke-width: 0.8"/>
      </g>
     </g>
     <g id="text_17">
      <!-- $\mathdefault{0.00200}$ -->
      <g transform="translate(28.083469 61.609076)scale(0.1 -0.1)">
       <use xlink:href="#CMR17-30" transform="scale(0.996264)"/>
       <use xlink:href="#CMMI12-3a" transform="translate(45.690477 0)scale(0.996264)"/>
       <use xlink:href="#CMR17-30" transform="translate(72.787654 0)scale(0.996264)"/>
       <use xlink:href="#CMR17-30" transform="translate(118.478131 0)scale(0.996264)"/>
       <use xlink:href="#CMR17-32" transform="translate(164.168608 0)scale(0.996264)"/>
       <use xlink:href="#CMR17-30" transform="translate(209.859086 0)scale(0.996264)"/>
       <use xlink:href="#CMR17-30" transform="translate(255.549563 0)scale(0.996264)"/>
      </g>
     </g>
    </g>
    <g id="ytick_8">
     <g id="line2d_17">
      <g>
       <use xlink:href="#m1724cd0209" x="67.738889" y="22.062255" style="stroke: #000000; stroke-width: 0.8"/>
      </g>
     </g>
     <g id="text_18">
      <!-- $\mathdefault{0.00225}$ -->
      <g transform="translate(28.083469 25.521504)scale(0.1 -0.1)">
       <use xlink:href="#CMR17-30" transform="scale(0.996264)"/>
       <use xlink:href="#CMMI12-3a" transform="translate(45.690477 0)scale(0.996264)"/>
       <use xlink:href="#CMR17-30" transform="translate(72.787654 0)scale(0.996264)"/>
       <use xlink:href="#CMR17-30" transform="translate(118.478131 0)scale(0.996264)"/>
       <use xlink:href="#CMR17-32" transform="translate(164.168608 0)scale(0.996264)"/>
       <use xlink:href="#CMR17-32" transform="translate(209.859086 0)scale(0.996264)"/>
       <use xlink:href="#CMR17-35" transform="translate(255.549563 0)scale(0.996264)"/>
      </g>
     </g>
    </g>
    <g id="text_19">
     <!-- Strain -->
     <g transform="translate(21.177725 174.399916)rotate(-90)scale(0.15 -0.15)">
      <defs>
       <path id="CMSS17-53" d="M 2797 4230 
C 2515 4396 2208 4544 1690 4544 
C 864 4544 333 3934 333 3309 
C 333 3064 403 2787 653 2504 
C 902 2220 1184 2143 1542 2053 
C 1690 2014 1939 1943 1984 1924 
C 2342 1782 2515 1454 2515 1144 
C 2515 738 2202 307 1645 307 
C 1453 307 890 339 358 829 
L 269 320 
C 794 -64 1363 -128 1651 -128 
C 2438 -128 3002 494 3002 1202 
C 3002 1460 2925 1789 2656 2092 
C 2394 2381 2163 2446 1638 2588 
C 1338 2665 1146 2717 986 2916 
C 877 3058 819 3193 819 3367 
C 819 3728 1126 4121 1690 4121 
C 1971 4121 2336 4063 2707 3715 
L 2797 4230 
z
" transform="scale(0.015625)"/>
      </defs>
      <use xlink:href="#CMSS17-53" transform="scale(0.996264)"/>
      <use xlink:href="#CMSS17-74" transform="translate(52.048516 0)scale(0.996264)"/>
      <use xlink:href="#CMSS17-72" transform="translate(85.880083 0)scale(0.996264)"/>
      <use xlink:href="#CMSS17-61" transform="translate(117.789855 0)scale(0.996264)"/>
      <use xlink:href="#CMSS17-69" transform="translate(162.711776 0)scale(0.996264)"/>
      <use xlink:href="#CMSS17-6e" transform="translate(184.892499 0)scale(0.996264)"/>
     </g>
    </g>
   </g>
   <g id="line2d_18">
    <path d="M 85.114394 103.81285 
L 86.860676 91.617972 
L 88.606958 105.430832 
L 90.35324 150.57223 
L 92.099522 105.611665 
L 93.845804 91.540155 
L 95.592086 113.509829 
L 97.338368 92.367044 
L 99.08465 76.110054 
L 100.830932 72.459155 
L 102.577214 59.795378 
L 104.323496 145.741721 
L 106.069777 120.791305 
L 107.816059 86.874124 
L 109.562341 140.891219 
L 111.308623 120.74865 
L 113.054905 128.14365 
L 114.801187 115.131898 
L 116.547469 111.47051 
L 118.293751 160.46725 
L 120.040033 78.479417 
L 121.786315 49.685911 
L 123.532597 54.184395 
L 125.278878 94.436315 
L 127.02516 99.866097 
L 128.771442 122.256155 
L 130.517724 91.417779 
L 132.264006 87.05651 
L 134.010288 99.448768 
L 135.75657 137.389496 
L 137.502852 107.141968 
L 139.249134 81.321477 
L 140.995416 82.485863 
L 142.741698 106.974504 
L 144.487979 151.660699 
L 146.234261 75.705002 
L 147.980543 144.029097 
L 149.726825 85.897903 
L 151.473107 122.930411 
L 153.219389 146.560805 
L 154.965671 99.153629 
L 156.711953 140.379713 
L 158.458235 138.203732 
L 160.204517 150.289306 
L 161.950799 78.038603 
L 163.697081 89.972157 
L 165.443362 61.011968 
L 167.189644 125.938175 
L 168.935926 99.41789 
L 170.682208 55.545467 
L 172.42849 102.272377 
L 174.174772 129.733081 
L 175.921054 171.67401 
L 177.667336 58.828637 
L 179.413618 45.849589 
L 181.1599 101.673336 
L 182.906182 78.030324 
L 184.652463 94.44247 
L 186.398745 162.498959 
L 188.145027 129.135192 
L 189.891309 141.278144 
L 191.637591 97.292081 
L 193.383873 104.545329 
L 195.130155 142.224575 
L 196.876437 44.923404 
L 198.622719 119.329829 
L 200.369001 81.062787 
L 202.115283 77.611516 
L 203.861564 75.735169 
L 205.607846 125.116391 
L 207.354128 89.187193 
L 209.10041 162.858394 
L 210.846692 120.916698 
L 212.592974 99.820271 
L 214.339256 63.475058 
L 216.085538 129.409088 
L 217.83182 148.191509 
L 219.578102 143.287621 
L 221.324384 145.215975 
L 223.070666 119.264742 
L 224.816947 88.893882 
L 226.563229 117.917709 
L 228.309511 144.157554 
L 230.055793 79.521652 
L 231.802075 76.396906 
L 233.548357 83.548236 
L 235.294639 85.145999 
L 237.040921 73.12736 
L 238.787203 157.012781 
L 240.533485 122.437088 
L 242.279767 108.050265 
L 244.026048 174.503754 
L 245.77233 141.891201 
L 247.518612 60.061129 
L 249.264894 73.883114 
L 251.011176 101.065056 
L 252.757458 149.40515 
L 256.250022 50.563227 
L 257.996304 64.264822 
L 259.742586 37.159828 
L 261.488868 96.4179 
L 263.23515 78.115195 
L 264.981431 143.257179 
L 266.727713 151.671272 
L 268.473995 89.914659 
L 270.220277 86.539533 
L 271.966559 111.234466 
L 273.712841 162.176219 
L 275.459123 146.644737 
L 277.205405 165.460158 
L 278.951687 166.106949 
L 280.697969 127.70028 
L 282.444251 100.345389 
L 284.190532 95.231021 
L 285.936814 94.014913 
L 287.683096 94.051461 
L 289.429378 110.772863 
L 291.17566 104.793313 
L 292.921942 116.274811 
L 294.668224 81.274405 
L 296.414506 142.324943 
L 298.160788 89.046076 
L 299.90707 107.605709 
L 301.653352 104.283865 
L 303.399633 145.5732 
L 305.145915 105.908251 
L 306.892197 102.685633 
L 308.638479 89.441856 
L 310.384761 82.109371 
L 312.131043 88.903412 
L 313.877325 126.574843 
L 315.623607 98.014157 
L 317.369889 93.737683 
L 319.116171 127.023561 
L 320.862453 52.446975 
L 322.608735 139.359796 
L 324.355016 135.39761 
L 326.101298 69.670539 
L 327.84758 94.516855 
L 329.593862 85.034281 
L 331.340144 136.250072 
L 333.086426 139.89669 
L 334.832708 94.92638 
L 336.57899 115.367823 
L 338.325272 124.870246 
L 340.071554 72.124519 
L 341.817836 122.587595 
L 343.564117 105.246777 
L 345.310399 123.732012 
L 347.056681 117.55028 
L 348.802963 98.811936 
L 350.549245 127.302227 
L 352.295527 24.020948 
L 354.041809 107.144401 
L 355.788091 157.651904 
L 357.534373 91.124169 
L 359.280655 132.440821 
L 361.026937 101.866891 
L 362.773218 75.264557 
L 364.5195 129.037078 
L 366.265782 99.850475 
L 368.012064 106.09915 
L 369.758346 136.524445 
L 371.504628 123.640447 
L 373.25091 122.491001 
L 374.997192 85.665783 
L 376.743474 128.865031 
L 378.489756 86.0775 
L 380.236038 122.215876 
L 383.728601 106.119834 
L 385.474883 88.10869 
L 387.221165 126.820065 
L 388.967447 107.211082 
L 390.713729 91.797202 
L 392.460011 90.834078 
L 394.206293 101.52727 
L 395.952575 145.874494 
L 397.698857 136.954194 
L 399.445139 165.883522 
L 401.191421 131.671425 
L 402.937702 71.471776 
L 404.683984 132.683307 
L 406.430266 127.891655 
L 408.176548 147.131946 
L 409.92283 109.447456 
L 411.669112 124.258331 
L 413.415394 96.670462 
L 415.161676 129.085454 
L 416.907958 53.923485 
L 418.65424 64.880068 
L 420.400522 111.318818 
L 422.146804 101.274896 
L 423.893085 103.234334 
L 425.639367 107.952179 
L 427.385649 117.753561 
L 429.131931 160.546035 
L 430.878213 44.124443 
L 432.624495 161.601826 
L 432.624495 161.601826 
" clip-path="url(#p085cdbac5d)" style="fill: none; stroke: #3c74ff; stroke-width: 1.5; stroke-linecap: square"/>
   </g>
   <g id="line2d_19">
    <path d="M 85.114394 258.809761 
L 86.860676 271.770652 
L 88.606958 288.280118 
L 90.35324 265.696784 
L 92.099522 114.002762 
L 93.845804 270.918715 
L 95.592086 156.448 
L 97.338368 288.280118 
L 99.08465 270.211119 
L 100.830932 58.908916 
L 102.577214 257.465806 
L 104.323496 270.795734 
L 106.069777 274.994966 
L 107.816059 126.057304 
L 109.562341 75.518149 
L 111.308623 114.002762 
L 113.054905 265.696784 
L 114.801187 265.751909 
L 116.547469 155.878612 
L 118.293751 114.002762 
L 120.040033 60.828109 
L 121.786315 104.846417 
L 123.532597 67.14144 
L 125.278878 255.137368 
L 127.02516 274.994966 
L 128.771442 266.877675 
L 130.517724 60.828109 
L 132.264006 114.002762 
L 134.010288 125.301327 
L 135.75657 114.002762 
L 137.502852 60.828109 
L 139.249134 126.057304 
L 140.995416 158.245524 
L 142.741698 61.165432 
L 144.487979 60.828109 
L 146.234261 265.751909 
L 147.980543 125.301327 
L 149.726825 288.280118 
L 151.473107 288.280118 
L 153.219389 78.910123 
L 154.965671 104.846417 
L 156.711953 75.518149 
L 158.458235 250.654941 
L 160.204517 126.057304 
L 161.950799 114.002762 
L 163.697081 136.21767 
L 165.443362 270.211119 
L 167.189644 250.654941 
L 168.935926 157.750308 
L 170.682208 269.732856 
L 172.42849 270.918715 
L 174.174772 274.994966 
L 175.921054 114.002762 
L 177.667336 136.21767 
L 179.413618 114.002762 
L 181.1599 60.828109 
L 182.906182 60.828109 
L 184.652463 120.1632 
L 186.398745 251.739484 
L 188.145027 257.52425 
L 189.891309 285.955759 
L 191.637591 260.94865 
L 193.383873 270.918715 
L 195.130155 60.828109 
L 196.876437 270.918715 
L 198.622719 265.696784 
L 200.369001 114.002762 
L 202.115283 75.492901 
L 203.861564 265.751909 
L 205.607846 60.164089 
L 207.354128 90.502347 
L 209.10041 126.057304 
L 210.846692 60.828109 
L 212.592974 70.826763 
L 214.339256 265.751909 
L 216.085538 273.377506 
L 217.83182 260.94865 
L 219.578102 158.245524 
L 221.324384 75.518149 
L 223.070666 265.696784 
L 224.816947 125.301327 
L 226.563229 125.301327 
L 228.309511 260.044376 
L 230.055793 125.301327 
L 231.802075 265.751909 
L 233.548357 136.21767 
L 235.294639 114.002762 
L 237.040921 136.21767 
L 238.787203 125.301327 
L 240.533485 269.214144 
L 242.279767 265.751909 
L 244.026048 260.32588 
L 245.77233 260.044376 
L 247.518612 265.751909 
L 249.264894 125.301327 
L 251.011176 75.518149 
L 252.757458 125.301327 
L 254.50374 288.439906 
L 256.250022 66.067976 
L 257.996304 136.21767 
L 259.742586 136.21767 
L 261.488868 114.002762 
L 263.23515 158.245524 
L 264.981431 114.002762 
L 266.727713 250.825389 
L 268.473995 125.301327 
L 270.220277 273.377506 
L 271.966559 273.377506 
L 273.712841 125.301327 
L 275.459123 125.301327 
L 277.205405 250.825389 
L 278.951687 86.495602 
L 280.697969 125.301327 
L 282.444251 114.002762 
L 284.190532 267.236215 
L 285.936814 270.918715 
L 287.683096 136.21767 
L 289.429378 125.301327 
L 291.17566 157.750308 
L 292.921942 60.009787 
L 294.668224 250.654941 
L 296.414506 60.828109 
L 298.160788 136.21767 
L 299.90707 163.14928 
L 301.653352 142.189677 
L 303.399633 265.696784 
L 305.145915 250.654941 
L 306.892197 92.645852 
L 308.638479 126.057304 
L 310.384761 60.828109 
L 312.131043 126.057304 
L 313.877325 288.280118 
L 315.623607 265.751909 
L 317.369889 60.828109 
L 319.116171 270.918715 
L 320.862453 70.826763 
L 322.608735 125.301327 
L 324.355016 99.271773 
L 326.101298 60.828109 
L 327.84758 262.249495 
L 329.593862 260.044376 
L 331.340144 125.301327 
L 333.086426 271.922987 
L 334.832708 126.057304 
L 336.57899 122.681801 
L 338.325272 260.044376 
L 340.071554 265.751909 
L 341.817836 58.908916 
L 343.564117 114.002762 
L 345.310399 60.828109 
L 347.056681 158.245524 
L 348.802963 114.002762 
L 350.549245 270.918715 
L 352.295527 288.439906 
L 354.041809 270.918715 
L 355.788091 60.828109 
L 357.534373 125.301327 
L 359.280655 260.044376 
L 361.026937 76.512408 
L 362.773218 255.973387 
L 364.5195 260.94865 
L 366.265782 267.236215 
L 368.012064 274.994966 
L 369.758346 114.002762 
L 371.504628 92.977044 
L 373.25091 251.739484 
L 374.997192 280.848074 
L 376.743474 92.977044 
L 378.489756 136.21767 
L 380.236038 273.377506 
L 381.98232 114.002762 
L 383.728601 114.002762 
L 385.474883 60.828109 
L 387.221165 270.211119 
L 388.967447 265.751909 
L 390.713729 60.828109 
L 392.460011 114.002762 
L 394.206293 158.245524 
L 395.952575 126.057304 
L 397.698857 114.002762 
L 399.445139 60.828109 
L 401.191421 260.94865 
L 402.937702 60.828109 
L 404.683984 125.301327 
L 406.430266 260.94865 
L 408.176548 125.301327 
L 409.92283 98.019427 
L 411.669112 76.187658 
L 413.415394 126.516251 
L 415.161676 60.828109 
L 416.907958 93.269997 
L 418.65424 136.21767 
L 420.400522 90.502347 
L 422.146804 270.918715 
L 423.893085 126.057304 
L 425.639367 286.213364 
L 427.385649 114.002762 
L 429.131931 258.809761 
L 430.878213 280.848074 
L 432.624495 126.057304 
L 432.624495 126.057304 
" clip-path="url(#p085cdbac5d)" style="fill: none; stroke-dasharray: 5.55,2.4; stroke-dashoffset: 0; stroke: #eea219; stroke-width: 1.5"/>
   </g>
   <g id="patch_3">
    <path d="M 67.738889 301.660854 
L 67.738889 10.8 
" style="fill: none; stroke: #000000; stroke-width: 0.8; stroke-linejoin: miter; stroke-linecap: square"/>
   </g>
   <g id="patch_4">
    <path d="M 450 301.660854 
L 450 10.8 
" style="fill: none; stroke: #000000; stroke-width: 0.8; stroke-linejoin: miter; stroke-linecap: square"/>
   </g>
   <g id="patch_5">
    <path d="M 67.738889 301.660854 
L 450 301.660854 
" style="fill: none; stroke: #000000; stroke-width: 0.8; stroke-linejoin: miter; stroke-linecap: square"/>
   </g>
   <g id="patch_6">
    <path d="M 67.738889 10.8 
L 450 10.8 
" style="fill: none; stroke: #000000; stroke-width: 0.8; stroke-linejoin: miter; stroke-linecap: square"/>
   </g>
   <g id="legend_1">
    <g id="patch_7">
     <path d="M 74.738889 46.674357 
L 174.540253 46.674357 
Q 176.540253 46.674357 176.540253 44.674357 
L 176.540253 17.8 
Q 176.540253 15.8 174.540253 15.8 
L 74.738889 15.8 
Q 72.738889 15.8 72.738889 17.8 
L 72.738889 44.674357 
Q 72.738889 46.674357 74.738889 46.674357 
z
" style="fill: #ffffff; opacity: 0.8; stroke: #cccccc; stroke-linejoin: miter"/>
    </g>
    <g id="line2d_20">
     <path d="M 76.738889 23.3 
L 86.738889 23.3 
L 96.738889 23.3 
" style="fill: none; stroke: #3c74ff; stroke-width: 1.5; stroke-linecap: square"/>
    </g>
    <g id="text_20">
     <!-- Real values -->
     <g transform="translate(104.738889 26.8)scale(0.1 -0.1)">
      <defs>
       <path id="CMSS17-6c" d="M 947 4416 
L 474 4416 
L 474 0 
L 947 0 
L 947 4416 
z
" transform="scale(0.015625)"/>
       <path id="CMSS17-76" d="M 2675 2752 
L 2176 2752 
L 1747 1555 
C 1613 1164 1421 627 1389 352 
L 1382 352 
C 1370 467 1318 633 1286 748 
C 1248 889 1197 1056 1158 1171 
L 595 2752 
L 83 2752 
L 1094 0 
L 1664 0 
L 2675 2752 
z
" transform="scale(0.015625)"/>
       <path id="CMSS17-75" d="M 2618 2752 
L 2131 2752 
L 2131 976 
C 2131 500 1786 307 1421 307 
C 998 307 960 448 960 712 
L 960 2752 
L 474 2752 
L 474 680 
C 474 179 646 -64 1088 -64 
C 1306 -64 1798 -13 2144 307 
L 2144 -13 
L 2618 -13 
L 2618 2752 
z
" transform="scale(0.015625)"/>
       <path id="CMSS17-73" d="M 2061 2623 
C 1683 2803 1389 2816 1197 2816 
C 742 2816 198 2655 198 2009 
C 198 1363 902 1222 1094 1183 
C 1389 1126 1715 1062 1715 742 
C 1715 339 1254 339 1171 339 
C 915 339 563 409 243 639 
L 166 211 
C 531 0 883 -64 1178 -64 
C 1965 -64 2163 416 2163 780 
C 2163 1094 1984 1305 1862 1401 
C 1651 1567 1574 1587 1050 1695 
C 960 1708 646 1779 646 2067 
C 646 2431 1050 2431 1139 2431 
C 1555 2431 1811 2303 1984 2207 
L 2061 2623 
z
" transform="scale(0.015625)"/>
      </defs>
      <use xlink:href="#CMSS17-52" transform="scale(0.996264)"/>
      <use xlink:href="#CMSS17-65" transform="translate(60.416155 0)scale(0.996264)"/>
      <use xlink:href="#CMSS17-61" transform="translate(102.054977 0)scale(0.996264)"/>
      <use xlink:href="#CMSS17-6c" transform="translate(146.976898 0)scale(0.996264)"/>
      <use xlink:href="#CMSS17-76" transform="translate(200.386733 0)scale(0.996264)"/>
      <use xlink:href="#CMSS17-61" transform="translate(243.386875 0)scale(0.996264)"/>
      <use xlink:href="#CMSS17-6c" transform="translate(288.308796 0)scale(0.996264)"/>
      <use xlink:href="#CMSS17-75" transform="translate(310.489519 0)scale(0.996264)"/>
      <use xlink:href="#CMSS17-65" transform="translate(358.694462 0)scale(0.996264)"/>
      <use xlink:href="#CMSS17-73" transform="translate(400.333284 0)scale(0.996264)"/>
     </g>
    </g>
    <g id="line2d_21">
     <path d="M 76.738889 37.237178 
L 86.738889 37.237178 
L 96.738889 37.237178 
" style="fill: none; stroke-dasharray: 5.55,2.4; stroke-dashoffset: 0; stroke: #eea219; stroke-width: 1.5"/>
    </g>
    <g id="text_21">
     <!-- Predicted values -->
     <g transform="translate(104.738889 40.737178)scale(0.1 -0.1)">
      <defs>
       <path id="CMSS17-50" d="M 2106 1856 
C 2874 1856 3501 2447 3501 3139 
C 3501 3818 2899 4416 2067 4416 
L 570 4416 
L 570 0 
L 1107 0 
L 1107 1856 
L 2106 1856 
z
M 1926 4057 
C 2669 4057 2995 3598 2995 3139 
C 2995 2711 2694 2227 1926 2227 
L 1094 2227 
L 1094 4057 
L 1926 4057 
z
" transform="scale(0.015625)"/>
       <path id="CMSS17-64" d="M 2611 4416 
L 2138 4416 
L 2138 2495 
C 1939 2662 1613 2816 1254 2816 
C 672 2816 211 2179 211 1375 
C 211 572 666 -64 1235 -64 
C 1677 -64 1971 172 2125 307 
L 2125 -13 
L 2611 -13 
L 2611 4416 
z
M 2125 851 
C 2125 760 2125 663 1926 488 
C 1798 378 1645 326 1498 326 
C 1152 326 698 585 698 1369 
C 698 2185 1210 2425 1562 2425 
C 1798 2425 1990 2308 2125 2114 
L 2125 851 
z
" transform="scale(0.015625)"/>
       <path id="CMSS17-63" d="M 2464 2540 
C 2464 2585 2170 2713 2093 2739 
C 1882 2816 1613 2816 1542 2816 
C 710 2816 211 2092 211 1363 
C 211 595 768 -64 1517 -64 
C 1946 -64 2253 76 2502 243 
L 2464 665 
C 2189 454 1869 339 1523 339 
C 1024 339 698 774 698 1369 
C 698 1830 909 2412 1549 2412 
C 1901 2412 2099 2342 2394 2143 
L 2464 2540 
z
" transform="scale(0.015625)"/>
      </defs>
      <use xlink:href="#CMSS17-50" transform="scale(0.996264)"/>
      <use xlink:href="#CMSS17-72" transform="translate(59.735586 0)scale(0.996264)"/>
      <use xlink:href="#CMSS17-65" transform="translate(91.645359 0)scale(0.996264)"/>
      <use xlink:href="#CMSS17-64" transform="translate(133.284181 0)scale(0.996264)"/>
      <use xlink:href="#CMSS17-69" transform="translate(181.489124 0)scale(0.996264)"/>
      <use xlink:href="#CMSS17-63" transform="translate(203.669847 0)scale(0.996264)"/>
      <use xlink:href="#CMSS17-74" transform="translate(245.308669 0)scale(0.996264)"/>
      <use xlink:href="#CMSS17-65" transform="translate(279.140236 0)scale(0.996264)"/>
      <use xlink:href="#CMSS17-64" transform="translate(320.779058 0)scale(0.996264)"/>
      <use xlink:href="#CMSS17-76" transform="translate(400.213114 0)scale(0.996264)"/>
      <use xlink:href="#CMSS17-61" transform="translate(443.213255 0)scale(0.996264)"/>
      <use xlink:href="#CMSS17-6c" transform="translate(488.135176 0)scale(0.996264)"/>
      <use xlink:href="#CMSS17-75" transform="translate(510.315899 0)scale(0.996264)"/>
      <use xlink:href="#CMSS17-65" transform="translate(558.520842 0)scale(0.996264)"/>
      <use xlink:href="#CMSS17-73" transform="translate(600.159664 0)scale(0.996264)"/>
     </g>
    </g>
   </g>
  </g>
 </g>
 <defs>
  <clipPath id="p085cdbac5d">
   <rect x="67.738889" y="10.8" width="382.261111" height="290.860854"/>
  </clipPath>
 </defs>
</svg>
