<?xml version="1.0" encoding="utf-8" standalone="no"?>
<!DOCTYPE svg PUBLIC "-//W3C//DTD SVG 1.1//EN"
  "http://www.w3.org/Graphics/SVG/1.1/DTD/svg11.dtd">
<svg xmlns:xlink="http://www.w3.org/1999/xlink" width="460.8pt" height="345.6pt" viewBox="0 0 460.8 345.6" xmlns="http://www.w3.org/2000/svg" version="1.1">
 <metadata>
  <rdf:RDF xmlns:dc="http://purl.org/dc/elements/1.1/" xmlns:cc="http://creativecommons.org/ns#" xmlns:rdf="http://www.w3.org/1999/02/22-rdf-syntax-ns#">
   <cc:Work>
    <dc:type rdf:resource="http://purl.org/dc/dcmitype/StillImage"/>
    <dc:date>2023-03-15T12:42:44.605843</dc:date>
    <dc:format>image/svg+xml</dc:format>
    <dc:creator>
     <cc:Agent>
      <dc:title>Matplotlib v3.5.3, https://matplotlib.org/</dc:title>
     </cc:Agent>
    </dc:creator>
   </cc:Work>
  </rdf:RDF>
 </metadata>
 <defs>
  <style type="text/css">*{stroke-linejoin: round; stroke-linecap: butt}</style>
 </defs>
 <g id="figure_1">
  <g id="patch_1">
   <path d="M 0 345.6 
L 460.8 345.6 
L 460.8 0 
L 0 0 
z
" style="fill: #ffffff"/>
  </g>
  <g id="axes_1">
   <g id="patch_2">
    <path d="M 45.474085 318.944323 
L 450 318.944323 
L 450 10.8 
L 45.474085 10.8 
z
" style="fill: #ffffff"/>
   </g>
   <g id="matplotlib.axis_1">
    <g id="xtick_1">
     <g id="line2d_1">
      <defs>
       <path id="mf377a10242" d="M 0 0 
L 0 3.5 
" style="stroke: #000000; stroke-width: 0.8"/>
      </defs>
      <g>
       <use xlink:href="#mf377a10242" x="63.861626" y="318.944323" style="stroke: #000000; stroke-width: 0.8"/>
      </g>
     </g>
     <g id="text_1">
      <!-- $\mathdefault{0}$ -->
      <g transform="translate(61.370959 332.862822)scale(0.1 -0.1)">
       <defs>
        <path id="CMR17-30" d="M 2688 2038 
C 2688 2430 2682 3099 2413 3613 
C 2176 4063 1798 4224 1466 4224 
C 1158 4224 768 4082 525 3620 
C 269 3137 243 2539 243 2038 
C 243 1671 250 1112 448 623 
C 723 -39 1216 -128 1466 -128 
C 1760 -128 2208 -7 2470 604 
C 2662 1048 2688 1568 2688 2038 
z
M 1466 -26 
C 1056 -26 813 328 723 816 
C 653 1196 653 1749 653 2109 
C 653 2604 653 3015 736 3407 
C 858 3954 1216 4121 1466 4121 
C 1728 4121 2067 3947 2189 3420 
C 2272 3054 2278 2623 2278 2109 
C 2278 1691 2278 1176 2202 797 
C 2067 96 1690 -26 1466 -26 
z
" transform="scale(0.015625)"/>
       </defs>
       <use xlink:href="#CMR17-30" transform="scale(0.996264)"/>
      </g>
     </g>
    </g>
    <g id="xtick_2">
     <g id="line2d_2">
      <g>
       <use xlink:href="#mf377a10242" x="109.945691" y="318.944323" style="stroke: #000000; stroke-width: 0.8"/>
      </g>
     </g>
     <g id="text_2">
      <!-- $\mathdefault{50}$ -->
      <g transform="translate(104.964355 332.862822)scale(0.1 -0.1)">
       <defs>
        <path id="CMR17-35" d="M 730 3750 
C 794 3724 1056 3641 1325 3641 
C 1920 3641 2246 3961 2432 4140 
C 2432 4191 2432 4224 2394 4224 
C 2387 4224 2374 4224 2323 4198 
C 2099 4102 1837 4032 1517 4032 
C 1325 4032 1037 4055 723 4191 
C 653 4224 640 4224 634 4224 
C 602 4224 595 4217 595 4090 
L 595 2231 
C 595 2113 595 2080 659 2080 
C 691 2080 704 2093 736 2139 
C 941 2435 1222 2560 1542 2560 
C 1766 2560 2246 2415 2246 1293 
C 2246 1087 2246 716 2054 422 
C 1894 159 1645 25 1370 25 
C 947 25 518 319 403 812 
C 429 806 480 793 506 793 
C 589 793 749 838 749 1036 
C 749 1209 627 1280 506 1280 
C 358 1280 262 1190 262 1011 
C 262 454 704 -128 1382 -128 
C 2042 -128 2669 441 2669 1267 
C 2669 2054 2170 2662 1549 2662 
C 1222 2662 947 2540 730 2304 
L 730 3750 
z
" transform="scale(0.015625)"/>
       </defs>
       <use xlink:href="#CMR17-35" transform="scale(0.996264)"/>
       <use xlink:href="#CMR17-30" transform="translate(45.690477 0)scale(0.996264)"/>
      </g>
     </g>
    </g>
    <g id="xtick_3">
     <g id="line2d_3">
      <g>
       <use xlink:href="#mf377a10242" x="156.029755" y="318.944323" style="stroke: #000000; stroke-width: 0.8"/>
      </g>
     </g>
     <g id="text_3">
      <!-- $\mathdefault{100}$ -->
      <g transform="translate(148.557752 332.862822)scale(0.1 -0.1)">
       <defs>
        <path id="CMR17-31" d="M 1702 4083 
C 1702 4217 1696 4224 1606 4224 
C 1357 3927 979 3833 621 3820 
C 602 3820 570 3820 563 3808 
C 557 3795 557 3782 557 3648 
C 755 3648 1088 3686 1344 3839 
L 1344 467 
C 1344 243 1331 166 781 166 
L 589 166 
L 589 0 
C 896 6 1216 12 1523 12 
C 1830 12 2150 6 2458 0 
L 2458 166 
L 2266 166 
C 1715 166 1702 236 1702 467 
L 1702 4083 
z
" transform="scale(0.015625)"/>
       </defs>
       <use xlink:href="#CMR17-31" transform="scale(0.996264)"/>
       <use xlink:href="#CMR17-30" transform="translate(45.690477 0)scale(0.996264)"/>
       <use xlink:href="#CMR17-30" transform="translate(91.380954 0)scale(0.996264)"/>
      </g>
     </g>
    </g>
    <g id="xtick_4">
     <g id="line2d_4">
      <g>
       <use xlink:href="#mf377a10242" x="202.113819" y="318.944323" style="stroke: #000000; stroke-width: 0.8"/>
      </g>
     </g>
     <g id="text_4">
      <!-- $\mathdefault{150}$ -->
      <g transform="translate(194.641816 332.862822)scale(0.1 -0.1)">
       <use xlink:href="#CMR17-31" transform="scale(0.996264)"/>
       <use xlink:href="#CMR17-35" transform="translate(45.690477 0)scale(0.996264)"/>
       <use xlink:href="#CMR17-30" transform="translate(91.380954 0)scale(0.996264)"/>
      </g>
     </g>
    </g>
    <g id="xtick_5">
     <g id="line2d_5">
      <g>
       <use xlink:href="#mf377a10242" x="248.197883" y="318.944323" style="stroke: #000000; stroke-width: 0.8"/>
      </g>
     </g>
     <g id="text_5">
      <!-- $\mathdefault{200}$ -->
      <g transform="translate(240.72588 332.862822)scale(0.1 -0.1)">
       <defs>
        <path id="CMR17-32" d="M 2669 990 
L 2554 990 
C 2490 537 2438 460 2413 422 
C 2381 371 1920 371 1830 371 
L 602 371 
C 832 620 1280 1073 1824 1596 
C 2214 1966 2669 2400 2669 3033 
C 2669 3788 2067 4224 1395 4224 
C 691 4224 262 3603 262 3027 
C 262 2777 448 2745 525 2745 
C 589 2745 781 2783 781 3007 
C 781 3206 614 3264 525 3264 
C 486 3264 448 3257 422 3244 
C 544 3788 915 4057 1306 4057 
C 1862 4057 2227 3616 2227 3033 
C 2227 2477 1901 1998 1536 1583 
L 262 147 
L 262 0 
L 2515 0 
L 2669 990 
z
" transform="scale(0.015625)"/>
       </defs>
       <use xlink:href="#CMR17-32" transform="scale(0.996264)"/>
       <use xlink:href="#CMR17-30" transform="translate(45.690477 0)scale(0.996264)"/>
       <use xlink:href="#CMR17-30" transform="translate(91.380954 0)scale(0.996264)"/>
      </g>
     </g>
    </g>
    <g id="xtick_6">
     <g id="line2d_6">
      <g>
       <use xlink:href="#mf377a10242" x="294.281947" y="318.944323" style="stroke: #000000; stroke-width: 0.8"/>
      </g>
     </g>
     <g id="text_6">
      <!-- $\mathdefault{250}$ -->
      <g transform="translate(286.809944 332.862822)scale(0.1 -0.1)">
       <use xlink:href="#CMR17-32" transform="scale(0.996264)"/>
       <use xlink:href="#CMR17-35" transform="translate(45.690477 0)scale(0.996264)"/>
       <use xlink:href="#CMR17-30" transform="translate(91.380954 0)scale(0.996264)"/>
      </g>
     </g>
    </g>
    <g id="xtick_7">
     <g id="line2d_7">
      <g>
       <use xlink:href="#mf377a10242" x="340.366011" y="318.944323" style="stroke: #000000; stroke-width: 0.8"/>
      </g>
     </g>
     <g id="text_7">
      <!-- $\mathdefault{300}$ -->
      <g transform="translate(332.894008 332.862822)scale(0.1 -0.1)">
       <defs>
        <path id="CMR17-33" d="M 1414 2176 
C 1984 2176 2234 1673 2234 1094 
C 2234 322 1824 25 1453 25 
C 1114 25 563 193 390 691 
C 422 678 454 678 486 678 
C 640 678 755 780 755 947 
C 755 1132 614 1216 486 1216 
C 378 1216 211 1164 211 927 
C 211 335 787 -128 1466 -128 
C 2176 -128 2720 432 2720 1087 
C 2720 1718 2208 2176 1600 2246 
C 2086 2347 2554 2776 2554 3353 
C 2554 3856 2048 4224 1472 4224 
C 890 4224 378 3862 378 3347 
C 378 3123 544 3084 627 3084 
C 762 3084 877 3167 877 3334 
C 877 3500 762 3584 627 3584 
C 602 3584 570 3584 544 3571 
C 730 3999 1235 4076 1459 4076 
C 1683 4076 2106 3966 2106 3347 
C 2106 3167 2080 2851 1862 2574 
C 1670 2329 1453 2316 1242 2297 
C 1210 2297 1062 2284 1037 2284 
C 992 2278 966 2272 966 2227 
C 966 2182 973 2176 1101 2176 
L 1414 2176 
z
" transform="scale(0.015625)"/>
       </defs>
       <use xlink:href="#CMR17-33" transform="scale(0.996264)"/>
       <use xlink:href="#CMR17-30" transform="translate(45.690477 0)scale(0.996264)"/>
       <use xlink:href="#CMR17-30" transform="translate(91.380954 0)scale(0.996264)"/>
      </g>
     </g>
    </g>
    <g id="xtick_8">
     <g id="line2d_8">
      <g>
       <use xlink:href="#mf377a10242" x="386.450076" y="318.944323" style="stroke: #000000; stroke-width: 0.8"/>
      </g>
     </g>
     <g id="text_8">
      <!-- $\mathdefault{350}$ -->
      <g transform="translate(378.978073 332.862822)scale(0.1 -0.1)">
       <use xlink:href="#CMR17-33" transform="scale(0.996264)"/>
       <use xlink:href="#CMR17-35" transform="translate(45.690477 0)scale(0.996264)"/>
       <use xlink:href="#CMR17-30" transform="translate(91.380954 0)scale(0.996264)"/>
      </g>
     </g>
    </g>
    <g id="xtick_9">
     <g id="line2d_9">
      <g>
       <use xlink:href="#mf377a10242" x="432.53414" y="318.944323" style="stroke: #000000; stroke-width: 0.8"/>
      </g>
     </g>
     <g id="text_9">
      <!-- $\mathdefault{400}$ -->
      <g transform="translate(425.062137 332.862822)scale(0.1 -0.1)">
       <defs>
        <path id="CMR17-34" d="M 2150 4147 
C 2150 4281 2144 4288 2029 4288 
L 128 1254 
L 128 1088 
L 1779 1088 
L 1779 460 
C 1779 230 1766 166 1318 166 
L 1197 166 
L 1197 0 
C 1402 12 1747 12 1965 12 
C 2182 12 2528 12 2733 0 
L 2733 166 
L 2611 166 
C 2163 166 2150 230 2150 460 
L 2150 1088 
L 2803 1088 
L 2803 1254 
L 2150 1254 
L 2150 4147 
z
M 1798 3723 
L 1798 1254 
L 256 1254 
L 1798 3723 
z
" transform="scale(0.015625)"/>
       </defs>
       <use xlink:href="#CMR17-34" transform="scale(0.996264)"/>
       <use xlink:href="#CMR17-30" transform="translate(45.690477 0)scale(0.996264)"/>
       <use xlink:href="#CMR17-30" transform="translate(91.380954 0)scale(0.996264)"/>
      </g>
     </g>
    </g>
   </g>
   <g id="matplotlib.axis_2">
    <g id="ytick_1">
     <g id="line2d_10">
      <defs>
       <path id="mdc7a0106ac" d="M 0 0 
L -3.5 0 
" style="stroke: #000000; stroke-width: 0.8"/>
      </defs>
      <g>
       <use xlink:href="#mdc7a0106ac" x="45.474085" y="296.093891" style="stroke: #000000; stroke-width: 0.8"/>
      </g>
     </g>
     <g id="text_10">
      <!-- $\mathdefault{0.0010}$ -->
      <g transform="translate(10.8 299.55314)scale(0.1 -0.1)">
       <defs>
        <path id="CMMI12-3a" d="M 1178 307 
C 1178 492 1024 620 870 620 
C 685 620 557 467 557 313 
C 557 128 710 0 864 0 
C 1050 0 1178 153 1178 307 
z
" transform="scale(0.015625)"/>
       </defs>
       <use xlink:href="#CMR17-30" transform="scale(0.996264)"/>
       <use xlink:href="#CMMI12-3a" transform="translate(45.690477 0)scale(0.996264)"/>
       <use xlink:href="#CMR17-30" transform="translate(72.787654 0)scale(0.996264)"/>
       <use xlink:href="#CMR17-30" transform="translate(118.478131 0)scale(0.996264)"/>
       <use xlink:href="#CMR17-31" transform="translate(164.168608 0)scale(0.996264)"/>
       <use xlink:href="#CMR17-30" transform="translate(209.859086 0)scale(0.996264)"/>
      </g>
     </g>
    </g>
    <g id="ytick_2">
     <g id="line2d_11">
      <g>
       <use xlink:href="#mdc7a0106ac" x="45.474085" y="250.122536" style="stroke: #000000; stroke-width: 0.8"/>
      </g>
     </g>
     <g id="text_11">
      <!-- $\mathdefault{0.0012}$ -->
      <g transform="translate(10.8 253.581785)scale(0.1 -0.1)">
       <use xlink:href="#CMR17-30" transform="scale(0.996264)"/>
       <use xlink:href="#CMMI12-3a" transform="translate(45.690477 0)scale(0.996264)"/>
       <use xlink:href="#CMR17-30" transform="translate(72.787654 0)scale(0.996264)"/>
       <use xlink:href="#CMR17-30" transform="translate(118.478131 0)scale(0.996264)"/>
       <use xlink:href="#CMR17-31" transform="translate(164.168608 0)scale(0.996264)"/>
       <use xlink:href="#CMR17-32" transform="translate(209.859086 0)scale(0.996264)"/>
      </g>
     </g>
    </g>
    <g id="ytick_3">
     <g id="line2d_12">
      <g>
       <use xlink:href="#mdc7a0106ac" x="45.474085" y="204.151181" style="stroke: #000000; stroke-width: 0.8"/>
      </g>
     </g>
     <g id="text_12">
      <!-- $\mathdefault{0.0014}$ -->
      <g transform="translate(10.8 207.61043)scale(0.1 -0.1)">
       <use xlink:href="#CMR17-30" transform="scale(0.996264)"/>
       <use xlink:href="#CMMI12-3a" transform="translate(45.690477 0)scale(0.996264)"/>
       <use xlink:href="#CMR17-30" transform="translate(72.787654 0)scale(0.996264)"/>
       <use xlink:href="#CMR17-30" transform="translate(118.478131 0)scale(0.996264)"/>
       <use xlink:href="#CMR17-31" transform="translate(164.168608 0)scale(0.996264)"/>
       <use xlink:href="#CMR17-34" transform="translate(209.859086 0)scale(0.996264)"/>
      </g>
     </g>
    </g>
    <g id="ytick_4">
     <g id="line2d_13">
      <g>
       <use xlink:href="#mdc7a0106ac" x="45.474085" y="158.179826" style="stroke: #000000; stroke-width: 0.8"/>
      </g>
     </g>
     <g id="text_13">
      <!-- $\mathdefault{0.0016}$ -->
      <g transform="translate(10.8 161.639075)scale(0.1 -0.1)">
       <defs>
        <path id="CMR17-36" d="M 678 2198 
C 678 3712 1395 4076 1811 4076 
C 1946 4076 2272 4049 2400 3782 
C 2298 3782 2106 3782 2106 3558 
C 2106 3385 2246 3328 2336 3328 
C 2394 3328 2566 3353 2566 3571 
C 2566 3987 2246 4224 1805 4224 
C 1043 4224 243 3411 243 2011 
C 243 257 966 -128 1478 -128 
C 2099 -128 2688 431 2688 1295 
C 2688 2101 2170 2688 1517 2688 
C 1126 2688 838 2430 678 1979 
L 678 2198 
z
M 1478 25 
C 691 25 691 1212 691 1450 
C 691 1914 909 2585 1504 2585 
C 1613 2585 1926 2585 2138 2140 
C 2253 1889 2253 1624 2253 1302 
C 2253 954 2253 696 2118 438 
C 1978 173 1773 25 1478 25 
z
" transform="scale(0.015625)"/>
       </defs>
       <use xlink:href="#CMR17-30" transform="scale(0.996264)"/>
       <use xlink:href="#CMMI12-3a" transform="translate(45.690477 0)scale(0.996264)"/>
       <use xlink:href="#CMR17-30" transform="translate(72.787654 0)scale(0.996264)"/>
       <use xlink:href="#CMR17-30" transform="translate(118.478131 0)scale(0.996264)"/>
       <use xlink:href="#CMR17-31" transform="translate(164.168608 0)scale(0.996264)"/>
       <use xlink:href="#CMR17-36" transform="translate(209.859086 0)scale(0.996264)"/>
      </g>
     </g>
    </g>
    <g id="ytick_5">
     <g id="line2d_14">
      <g>
       <use xlink:href="#mdc7a0106ac" x="45.474085" y="112.208471" style="stroke: #000000; stroke-width: 0.8"/>
      </g>
     </g>
     <g id="text_14">
      <!-- $\mathdefault{0.0018}$ -->
      <g transform="translate(10.8 115.667721)scale(0.1 -0.1)">
       <defs>
        <path id="CMR17-38" d="M 1741 2289 
C 2144 2494 2554 2803 2554 3298 
C 2554 3884 1990 4224 1472 4224 
C 890 4224 378 3800 378 3215 
C 378 3054 416 2777 666 2533 
C 730 2469 998 2276 1171 2154 
C 883 2006 211 1652 211 945 
C 211 282 838 -128 1459 -128 
C 2144 -128 2720 366 2720 1022 
C 2720 1607 2330 1877 2074 2051 
L 1741 2289 
z
M 902 2855 
C 851 2887 595 3086 595 3388 
C 595 3781 998 4076 1459 4076 
C 1965 4076 2336 3716 2336 3298 
C 2336 2700 1670 2359 1638 2359 
C 1632 2359 1626 2359 1574 2398 
L 902 2855 
z
M 2080 1536 
C 2176 1466 2483 1253 2483 861 
C 2483 385 2010 25 1472 25 
C 890 25 448 443 448 951 
C 448 1459 838 1884 1280 2083 
L 2080 1536 
z
" transform="scale(0.015625)"/>
       </defs>
       <use xlink:href="#CMR17-30" transform="scale(0.996264)"/>
       <use xlink:href="#CMMI12-3a" transform="translate(45.690477 0)scale(0.996264)"/>
       <use xlink:href="#CMR17-30" transform="translate(72.787654 0)scale(0.996264)"/>
       <use xlink:href="#CMR17-30" transform="translate(118.478131 0)scale(0.996264)"/>
       <use xlink:href="#CMR17-31" transform="translate(164.168608 0)scale(0.996264)"/>
       <use xlink:href="#CMR17-38" transform="translate(209.859086 0)scale(0.996264)"/>
      </g>
     </g>
    </g>
    <g id="ytick_6">
     <g id="line2d_15">
      <g>
       <use xlink:href="#mdc7a0106ac" x="45.474085" y="66.237117" style="stroke: #000000; stroke-width: 0.8"/>
      </g>
     </g>
     <g id="text_15">
      <!-- $\mathdefault{0.0020}$ -->
      <g transform="translate(10.8 69.696366)scale(0.1 -0.1)">
       <use xlink:href="#CMR17-30" transform="scale(0.996264)"/>
       <use xlink:href="#CMMI12-3a" transform="translate(45.690477 0)scale(0.996264)"/>
       <use xlink:href="#CMR17-30" transform="translate(72.787654 0)scale(0.996264)"/>
       <use xlink:href="#CMR17-30" transform="translate(118.478131 0)scale(0.996264)"/>
       <use xlink:href="#CMR17-32" transform="translate(164.168608 0)scale(0.996264)"/>
       <use xlink:href="#CMR17-30" transform="translate(209.859086 0)scale(0.996264)"/>
      </g>
     </g>
    </g>
    <g id="ytick_7">
     <g id="line2d_16">
      <g>
       <use xlink:href="#mdc7a0106ac" x="45.474085" y="20.265762" style="stroke: #000000; stroke-width: 0.8"/>
      </g>
     </g>
     <g id="text_16">
      <!-- $\mathdefault{0.0022}$ -->
      <g transform="translate(10.8 23.725011)scale(0.1 -0.1)">
       <use xlink:href="#CMR17-30" transform="scale(0.996264)"/>
       <use xlink:href="#CMMI12-3a" transform="translate(45.690477 0)scale(0.996264)"/>
       <use xlink:href="#CMR17-30" transform="translate(72.787654 0)scale(0.996264)"/>
       <use xlink:href="#CMR17-30" transform="translate(118.478131 0)scale(0.996264)"/>
       <use xlink:href="#CMR17-32" transform="translate(164.168608 0)scale(0.996264)"/>
       <use xlink:href="#CMR17-32" transform="translate(209.859086 0)scale(0.996264)"/>
      </g>
     </g>
    </g>
   </g>
   <g id="line2d_17">
    <path d="M 63.861626 168.544491 
L 64.783308 181.442177 
L 65.704989 95.413637 
L 66.62667 229.201867 
L 67.548351 267.089621 
L 68.470033 142.58942 
L 69.391714 266.686861 
L 70.313395 240.250096 
L 71.235077 232.397889 
L 72.156758 268.799527 
L 73.078439 191.849232 
L 74.00012 184.59858 
L 74.921802 125.147251 
L 75.843483 245.729919 
L 76.765164 205.783516 
L 77.686846 238.268679 
L 78.608527 186.716947 
L 79.530208 251.342922 
L 80.451889 45.175968 
L 81.373571 129.438309 
L 82.295252 229.876194 
L 83.216933 199.715292 
L 84.138615 256.639048 
L 85.060296 280.679289 
L 85.981977 231.730059 
L 86.903658 223.176682 
L 87.82534 255.425981 
L 88.747021 235.719768 
L 89.668702 228.233483 
L 90.590384 242.733803 
L 91.512065 239.522955 
L 92.433746 201.806635 
L 93.355427 245.140589 
L 94.277109 120.368109 
L 95.19879 200.091908 
L 96.120471 185.733828 
L 97.042153 176.216892 
L 97.963834 255.867589 
L 98.885515 218.910129 
L 99.807196 101.433224 
L 100.728878 234.717271 
L 101.650559 222.173321 
L 102.57224 256.038318 
L 103.493922 218.060203 
L 104.415603 173.899512 
L 105.337284 97.259482 
L 106.258965 235.998863 
L 107.180647 159.127309 
L 108.102328 279.97877 
L 109.024009 230.43054 
L 109.945691 95.476848 
L 110.867372 201.7276 
L 111.789053 268.263448 
L 112.710734 221.781591 
L 113.632416 188.174975 
L 114.554097 215.456217 
L 115.475778 115.659596 
L 116.397459 167.057731 
L 117.319141 201.219015 
L 118.240822 140.594625 
L 119.162503 259.144519 
L 120.084185 134.317209 
L 121.005866 236.724636 
L 121.927547 101.913055 
L 122.849228 259.182828 
L 123.77091 74.716771 
L 124.692591 251.819423 
L 125.614272 236.712656 
L 126.535954 248.427357 
L 127.457635 247.749068 
L 128.379316 296.673257 
L 129.300997 275.663087 
L 130.222679 263.645153 
L 131.14436 242.704252 
L 132.066041 42.037082 
L 132.987723 275.347927 
L 133.909404 269.626015 
L 134.831085 217.492468 
L 135.752766 85.984586 
L 136.674448 220.238378 
L 137.596129 273.80523 
L 138.51781 134.244866 
L 139.439492 265.368643 
L 140.361173 210.412538 
L 141.282854 135.375403 
L 142.204535 238.475438 
L 143.126217 265.650569 
L 144.047898 259.565338 
L 144.969579 213.652305 
L 145.891261 233.653621 
L 146.812942 243.396589 
L 147.734623 234.216741 
L 148.656304 264.606787 
L 149.577986 266.453765 
L 150.499667 197.204349 
L 151.421348 142.937901 
L 152.34303 102.692482 
L 153.264711 213.507081 
L 154.186392 239.246533 
L 155.108073 238.185576 
L 156.029755 248.996271 
L 156.951436 176.344455 
L 157.873117 271.287977 
L 158.794799 242.017856 
L 159.71648 220.042816 
L 160.638161 111.373629 
L 161.559842 117.717743 
L 162.481524 212.087079 
L 163.403205 236.159694 
L 164.324886 99.446924 
L 165.246568 134.573359 
L 166.168249 242.217957 
L 167.08993 117.457194 
L 168.011611 197.176217 
L 168.933293 152.535163 
L 169.854974 224.747964 
L 170.776655 121.095175 
L 171.698336 259.085206 
L 172.620018 267.71373 
L 173.541699 253.037727 
L 174.46338 234.627866 
L 175.385062 275.083669 
L 176.306743 179.01269 
L 177.228424 67.773095 
L 178.150105 288.799537 
L 179.071787 117.648299 
L 179.993468 131.950487 
L 180.915149 68.982354 
L 181.836831 203.317002 
L 182.758512 259.674443 
L 183.680193 229.024087 
L 184.601874 104.783852 
L 185.523556 250.847929 
L 186.445237 217.812811 
L 187.366918 224.989494 
L 188.2886 264.241047 
L 189.210281 118.743948 
L 190.131962 273.376983 
L 191.053643 274.562348 
L 191.975325 230.017555 
L 192.897006 113.755113 
L 193.818687 170.364964 
L 194.740369 208.09966 
L 195.66205 274.724116 
L 196.583731 259.894132 
L 197.505412 172.560178 
L 198.427094 168.691052 
L 199.348775 53.016146 
L 200.270456 130.985594 
L 201.192138 228.411507 
L 202.113819 168.671673 
L 203.0355 277.199734 
L 203.957181 163.092647 
L 204.878863 215.004825 
L 205.800544 120.723045 
L 206.722225 152.864562 
L 207.643907 158.22415 
L 208.565588 96.10625 
L 209.487269 196.4773 
L 210.40895 77.809332 
L 211.330632 245.701085 
L 212.252313 169.81425 
L 213.173994 176.13873 
L 214.095676 184.458896 
L 215.017357 69.83828 
L 215.939038 222.694447 
L 216.860719 172.003197 
L 217.782401 199.196373 
L 218.704082 304.937763 
L 219.625763 272.051042 
L 220.547445 192.318031 
L 221.469126 168.317093 
L 222.390807 187.601393 
L 223.312488 103.744681 
L 224.23417 240.981212 
L 225.155851 201.758161 
L 226.077532 230.043422 
L 226.999213 93.893637 
L 227.920895 246.219526 
L 228.842576 227.987978 
L 229.764257 251.965237 
L 230.685939 231.386056 
L 231.60762 176.821229 
L 232.529301 246.018416 
L 233.450982 116.534783 
L 234.372664 195.936071 
L 235.294345 113.942237 
L 236.216026 219.85203 
L 237.137708 171.456841 
L 238.059389 138.689731 
L 238.98107 67.318024 
L 239.902751 271.511257 
L 240.824433 123.167828 
L 241.746114 185.925329 
L 242.667795 162.029151 
L 243.589477 172.72451 
L 244.511158 145.922507 
L 245.432839 109.97191 
L 247.276202 264.786734 
L 248.197883 121.376505 
L 249.119564 224.557996 
L 250.041246 52.281773 
L 250.962927 260.543517 
L 251.884608 257.77858 
L 252.806289 270.067748 
L 253.727971 24.80656 
L 255.571333 253.581356 
L 256.493015 246.910432 
L 257.414696 249.213177 
L 258.336377 260.867272 
L 259.258058 282.313671 
L 260.17974 191.272369 
L 261.101421 260.77722 
L 262.023102 282.101135 
L 262.944784 265.680152 
L 263.866465 219.561219 
L 264.788146 272.462332 
L 265.709827 238.10205 
L 266.631509 278.372646 
L 267.55319 109.868476 
L 268.474871 264.299537 
L 269.396553 122.520437 
L 270.318234 263.523869 
L 271.239915 47.201701 
L 272.161596 276.757649 
L 273.083278 140.82687 
L 274.004959 220.131486 
L 274.92664 216.965442 
L 275.848322 214.70828 
L 276.770003 253.019853 
L 277.691684 108.784962 
L 278.613365 244.857792 
L 279.535047 269.66919 
L 280.456728 266.843568 
L 281.378409 76.626617 
L 282.30009 240.656455 
L 283.221772 231.555577 
L 284.143453 248.927682 
L 285.065134 221.765847 
L 285.986816 212.845461 
L 286.908497 58.713389 
L 287.830178 250.619248 
L 288.751859 197.860065 
L 289.673541 184.920813 
L 290.595222 259.029638 
L 291.516903 223.036915 
L 293.360266 110.42188 
L 294.281947 163.553705 
L 295.203628 232.862202 
L 296.12531 120.650824 
L 297.046991 250.320043 
L 297.968672 237.323019 
L 298.890354 252.425753 
L 299.812035 206.67096 
L 300.733716 110.127201 
L 301.655397 283.583144 
L 302.577079 230.969335 
L 303.49876 97.227018 
L 304.420441 110.730666 
L 305.342123 243.483191 
L 306.263804 223.883151 
L 307.185485 160.748619 
L 308.107166 276.36521 
L 309.028848 251.062199 
L 309.950529 260.081208 
L 310.87221 253.785458 
L 311.793892 274.653591 
L 312.715573 180.514046 
L 313.637254 243.23863 
L 314.558935 283.773039 
L 315.480617 126.864785 
L 316.402298 158.122271 
L 317.323979 114.439669 
L 318.245661 289.221506 
L 319.167342 176.030818 
L 320.089023 220.537604 
L 321.010704 280.211088 
L 321.932386 212.198227 
L 322.854067 172.187869 
L 323.775748 213.389849 
L 324.69743 188.969407 
L 325.619111 240.130127 
L 326.540792 261.248475 
L 327.462473 237.387674 
L 328.384155 71.7374 
L 329.305836 231.883973 
L 330.227517 106.402132 
L 331.149199 256.595192 
L 332.07088 266.547914 
L 332.992561 163.054091 
L 333.914242 135.309368 
L 334.835924 227.382085 
L 335.757605 237.113166 
L 336.679286 272.825718 
L 337.600967 240.446764 
L 338.522649 265.856841 
L 339.44433 262.966209 
L 340.366011 194.474403 
L 341.287693 234.372499 
L 342.209374 248.382012 
L 343.131055 189.910666 
L 344.052736 286.20169 
L 344.974418 267.35868 
L 345.896099 77.289015 
L 347.739462 265.183517 
L 348.661143 249.265608 
L 349.582824 276.448837 
L 350.504505 105.405533 
L 351.426187 226.058882 
L 352.347868 172.479652 
L 353.269549 154.617398 
L 354.191231 291.838965 
L 355.112912 124.018056 
L 356.034593 109.048203 
L 356.956274 134.387361 
L 357.877956 241.707934 
L 358.799637 226.884851 
L 359.721318 175.920451 
L 360.643 225.722009 
L 361.564681 69.198833 
L 362.486362 231.38622 
L 363.408043 58.524485 
L 364.329725 242.488636 
L 365.251406 221.161171 
L 366.173087 230.123706 
L 367.094769 280.360342 
L 368.01645 258.721774 
L 368.938131 139.06104 
L 369.859812 128.565447 
L 370.781494 187.921381 
L 371.703175 258.609767 
L 372.624856 149.010626 
L 373.546538 110.544757 
L 374.468219 127.981837 
L 375.3899 97.451577 
L 376.311581 175.569555 
L 377.233263 224.596753 
L 378.154944 246.831948 
L 379.998307 69.444536 
L 380.919988 207.366404 
L 381.841669 173.755836 
L 382.76335 282.349623 
L 383.685032 98.680073 
L 384.606713 220.189571 
L 385.528394 67.298808 
L 386.450076 97.907093 
L 387.371757 270.256613 
L 388.293438 200.110433 
L 389.215119 242.89572 
L 390.136801 264.786985 
L 391.058482 96.367265 
L 391.980163 260.962474 
L 392.901844 71.039028 
L 393.823526 179.805403 
L 394.745207 208.80408 
L 396.58857 250.913317 
L 397.510251 228.285482 
L 398.431932 261.668893 
L 399.353613 69.434181 
L 401.196976 40.707499 
L 402.118657 83.774536 
L 403.040339 219.15396 
L 403.96202 252.033564 
L 404.883701 49.538482 
L 405.805382 266.33897 
L 406.727064 234.334346 
L 407.648745 58.067483 
L 408.570426 136.192406 
L 409.492108 238.143086 
L 410.413789 217.481244 
L 411.33547 85.994965 
L 412.257151 274.337103 
L 413.178833 274.601713 
L 414.100514 181.20986 
L 415.022195 212.955797 
L 415.943877 264.261737 
L 416.865558 220.719988 
L 417.787239 231.677659 
L 418.70892 119.211479 
L 420.552283 237.378855 
L 421.473964 243.173315 
L 422.395646 212.325385 
L 423.317327 245.324829 
L 424.239008 207.909525 
L 425.160689 253.539139 
L 426.082371 89.022636 
L 427.004052 267.908135 
L 427.925733 177.692071 
L 428.847415 252.594605 
L 429.769096 191.037264 
L 430.690777 247.733859 
L 431.612458 234.483886 
L 431.612458 234.483886 
" clip-path="url(#p76049984bf)" style="fill: none; stroke: #3c74ff; stroke-width: 1.5; stroke-linecap: square"/>
   </g>
   <g id="patch_3">
    <path d="M 45.474085 318.944323 
L 45.474085 10.8 
" style="fill: none; stroke: #000000; stroke-width: 0.8; stroke-linejoin: miter; stroke-linecap: square"/>
   </g>
   <g id="patch_4">
    <path d="M 450 318.944323 
L 450 10.8 
" style="fill: none; stroke: #000000; stroke-width: 0.8; stroke-linejoin: miter; stroke-linecap: square"/>
   </g>
   <g id="patch_5">
    <path d="M 45.474085 318.944323 
L 450 318.944323 
" style="fill: none; stroke: #000000; stroke-width: 0.8; stroke-linejoin: miter; stroke-linecap: square"/>
   </g>
   <g id="patch_6">
    <path d="M 45.474085 10.8 
L 450 10.8 
" style="fill: none; stroke: #000000; stroke-width: 0.8; stroke-linejoin: miter; stroke-linecap: square"/>
   </g>
   <g id="legend_1">
    <g id="patch_7">
     <path d="M 55.274085 41.512028 
L 167.484032 41.512028 
Q 170.284032 41.512028 170.284032 38.712028 
L 170.284032 20.6 
Q 170.284032 17.8 167.484032 17.8 
L 55.274085 17.8 
Q 52.474085 17.8 52.474085 20.6 
L 52.474085 38.712028 
Q 52.474085 41.512028 55.274085 41.512028 
z
" style="fill: #ffffff; opacity: 0.8; stroke: #cccccc; stroke-linejoin: miter"/>
    </g>
    <g id="line2d_18">
     <path d="M 58.074085 28.3 
L 72.074085 28.3 
L 86.074085 28.3 
" style="fill: none; stroke: #3c74ff; stroke-width: 1.5; stroke-linecap: square"/>
    </g>
    <g id="text_17">
     <!-- Real values -->
     <g transform="translate(97.274085 33.2)scale(0.14 -0.14)">
      <defs>
       <path id="CMR17-52" d="M 2509 2156 
C 3117 2278 3629 2689 3629 3203 
C 3629 3806 2950 4352 2054 4352 
L 333 4352 
L 333 4185 
C 774 4185 845 4185 845 3896 
L 845 428 
C 845 140 774 140 333 140 
L 333 -26 
C 518 -13 851 -13 1050 -13 
C 1248 -13 1581 -13 1766 -26 
L 1766 140 
C 1325 140 1254 140 1254 428 
L 1254 2112 
L 2003 2112 
C 2368 2112 2573 1964 2662 1881 
C 2918 1632 2918 1459 2918 1024 
C 2918 595 2918 377 3110 160 
C 3354 -103 3680 -128 3821 -128 
C 4294 -128 4365 403 4365 512 
C 4365 550 4365 595 4307 595 
C 4256 595 4250 556 4250 531 
C 4218 115 4032 -26 3834 -26 
C 3482 -26 3443 377 3405 768 
C 3386 902 3373 998 3360 1139 
C 3322 1459 3270 1926 2509 2156 
z
M 1984 2214 
L 1254 2214 
L 1254 3935 
C 1254 4153 1267 4185 1523 4185 
L 1990 4185 
C 2522 4185 3142 3999 3142 3203 
C 3142 2374 2464 2214 1984 2214 
z
" transform="scale(0.015625)"/>
       <path id="CMR17-65" d="M 2438 1503 
C 2464 1529 2464 1542 2464 1606 
C 2464 2251 2118 2816 1389 2816 
C 710 2816 173 2175 173 1394 
C 173 554 781 -64 1459 -64 
C 2176 -64 2458 619 2458 755 
C 2458 800 2419 800 2406 800 
C 2362 800 2355 787 2330 709 
C 2189 270 1837 51 1504 51 
C 1229 51 954 206 781 490 
C 582 819 582 1200 582 1503 
L 2438 1503 
z
M 589 1600 
C 634 2511 1126 2713 1382 2713 
C 1818 2713 2112 2308 2118 1600 
L 589 1600 
z
" transform="scale(0.015625)"/>
       <path id="CMR17-61" d="M 2304 1656 
C 2304 2048 2304 2275 2035 2534 
C 1798 2751 1523 2816 1306 2816 
C 800 2816 435 2408 435 1977 
C 435 1740 627 1728 666 1728 
C 749 1728 896 1779 896 1958 
C 896 2118 774 2188 666 2188 
C 640 2188 608 2182 589 2176 
C 723 2594 1069 2713 1293 2713 
C 1613 2713 1965 2421 1965 1875 
L 1965 1632 
C 1587 1619 1133 1568 774 1373 
C 371 1147 256 822 256 576 
C 256 77 832 -64 1171 -64 
C 1523 -64 1850 135 1990 505 
C 2003 219 2182 -39 2464 -39 
C 2598 -39 2938 51 2938 563 
L 2938 926 
L 2822 926 
L 2822 557 
C 2822 161 2650 109 2566 109 
C 2304 109 2304 446 2304 732 
L 2304 1656 
z
M 1965 887 
C 1965 323 1568 38 1216 38 
C 896 38 646 278 646 576 
C 646 771 730 1114 1101 1322 
C 1408 1497 1760 1523 1965 1536 
L 1965 887 
z
" transform="scale(0.015625)"/>
       <path id="CMR17-6c" d="M 979 4416 
L 218 4345 
L 218 4179 
C 595 4179 653 4141 653 3835 
L 653 439 
C 653 198 627 166 218 166 
L 218 0 
C 371 12 653 12 813 12 
C 979 12 1261 12 1414 0 
L 1414 166 
C 1005 166 979 191 979 439 
L 979 4416 
z
" transform="scale(0.015625)"/>
       <path id="CMR17-76" d="M 2502 2173 
C 2560 2315 2662 2572 3034 2585 
L 3034 2752 
C 2912 2745 2752 2739 2630 2739 
C 2496 2739 2285 2739 2157 2752 
L 2157 2585 
C 2317 2572 2406 2495 2406 2328 
C 2406 2270 2406 2257 2368 2167 
L 1664 379 
L 902 2308 
C 864 2392 864 2405 864 2431 
C 864 2585 1075 2585 1171 2585 
L 1171 2752 
C 1018 2739 736 2739 576 2739 
C 403 2739 205 2739 64 2752 
L 64 2585 
C 307 2585 442 2585 518 2386 
L 1446 44 
C 1485 -52 1491 -64 1549 -64 
C 1606 -64 1613 -52 1651 44 
L 2502 2173 
z
" transform="scale(0.015625)"/>
       <path id="CMR17-75" d="M 1882 2745 
L 1882 2579 
C 2259 2579 2317 2540 2317 2229 
L 2317 1053 
C 2317 510 2029 38 1555 38 
C 1030 38 986 355 986 691 
L 986 2816 
L 211 2745 
L 211 2579 
C 467 2579 640 2579 646 2320 
L 646 1079 
C 646 646 646 368 813 187 
C 896 103 1056 -64 1517 -64 
C 2061 -64 2272 400 2323 536 
L 2330 536 
L 2330 -64 
L 3091 -13 
L 3091 154 
C 2714 154 2656 193 2656 503 
L 2656 2816 
L 1882 2745 
z
" transform="scale(0.015625)"/>
       <path id="CMR17-73" d="M 1978 2688 
C 1978 2803 1971 2809 1933 2809 
C 1907 2809 1901 2803 1824 2707 
C 1805 2681 1747 2617 1728 2592 
C 1523 2809 1235 2816 1126 2816 
C 416 2816 160 2444 160 2073 
C 160 1497 813 1363 998 1324 
C 1402 1241 1542 1216 1677 1100 
C 1760 1024 1901 883 1901 652 
C 1901 384 1747 38 1158 38 
C 602 38 403 460 288 1024 
C 269 1113 269 1120 218 1120 
C 166 1120 160 1113 160 985 
L 160 64 
C 160 -52 166 -58 205 -58 
C 237 -58 243 -52 275 0 
C 314 57 410 211 448 275 
C 576 102 800 -64 1158 -64 
C 1792 -64 2131 281 2131 780 
C 2131 1107 1958 1280 1875 1356 
C 1683 1555 1459 1600 1190 1651 
C 838 1728 390 1817 390 2208 
C 390 2374 480 2726 1126 2726 
C 1811 2726 1850 2086 1862 1881 
C 1869 1849 1901 1843 1920 1843 
C 1978 1843 1978 1862 1978 1971 
L 1978 2688 
z
" transform="scale(0.015625)"/>
      </defs>
      <use xlink:href="#CMR17-52" transform="scale(0.996264)"/>
      <use xlink:href="#CMR17-65" transform="translate(67.791102 0)scale(0.996264)"/>
      <use xlink:href="#CMR17-61" transform="translate(108.276762 0)scale(0.996264)"/>
      <use xlink:href="#CMR17-6c" transform="translate(153.96724 0)scale(0.996264)"/>
      <use xlink:href="#CMR17-76" transform="translate(208.914264 0)scale(0.996264)"/>
      <use xlink:href="#CMR17-61" transform="translate(252.002364 0)scale(0.996264)"/>
      <use xlink:href="#CMR17-6c" transform="translate(297.692841 0)scale(0.996264)"/>
      <use xlink:href="#CMR17-75" transform="translate(322.563899 0)scale(0.996264)"/>
      <use xlink:href="#CMR17-65" transform="translate(373.459269 0)scale(0.996264)"/>
      <use xlink:href="#CMR17-73" transform="translate(413.944929 0)scale(0.996264)"/>
     </g>
    </g>
   </g>
  </g>
 </g>
 <defs>
  <clipPath id="p76049984bf">
   <rect x="45.474085" y="10.8" width="404.525915" height="308.144323"/>
  </clipPath>
 </defs>
</svg>
