<?xml version="1.0" encoding="utf-8" standalone="no"?>
<!DOCTYPE svg PUBLIC "-//W3C//DTD SVG 1.1//EN"
  "http://www.w3.org/Graphics/SVG/1.1/DTD/svg11.dtd">
<svg xmlns:xlink="http://www.w3.org/1999/xlink" width="460.8pt" height="345.6pt" viewBox="0 0 460.8 345.6" xmlns="http://www.w3.org/2000/svg" version="1.1">
 <metadata>
  <rdf:RDF xmlns:dc="http://purl.org/dc/elements/1.1/" xmlns:cc="http://creativecommons.org/ns#" xmlns:rdf="http://www.w3.org/1999/02/22-rdf-syntax-ns#">
   <cc:Work>
    <dc:type rdf:resource="http://purl.org/dc/dcmitype/StillImage"/>
    <dc:date>2023-03-09T12:11:15.327884</dc:date>
    <dc:format>image/svg+xml</dc:format>
    <dc:creator>
     <cc:Agent>
      <dc:title>Matplotlib v3.5.3, https://matplotlib.org/</dc:title>
     </cc:Agent>
    </dc:creator>
   </cc:Work>
  </rdf:RDF>
 </metadata>
 <defs>
  <style type="text/css">*{stroke-linejoin: round; stroke-linecap: butt}</style>
 </defs>
 <g id="figure_1">
  <g id="patch_1">
   <path d="M 0 345.6 
L 460.8 345.6 
L 460.8 0 
L 0 0 
z
" style="fill: #ffffff"/>
  </g>
  <g id="axes_1">
   <g id="patch_2">
    <path d="M 50.45542 318.944323 
L 450 318.944323 
L 450 10.8 
L 50.45542 10.8 
z
" style="fill: #ffffff"/>
   </g>
   <g id="matplotlib.axis_1">
    <g id="xtick_1">
     <g id="line2d_1">
      <defs>
       <path id="mb5325e868c" d="M 0 0 
L 0 3.5 
" style="stroke: #000000; stroke-width: 0.8"/>
      </defs>
      <g>
       <use xlink:href="#mb5325e868c" x="68.616537" y="318.944323" style="stroke: #000000; stroke-width: 0.8"/>
      </g>
     </g>
     <g id="text_1">
      <!-- $\mathdefault{0}$ -->
      <g transform="translate(66.12587 332.862822)scale(0.1 -0.1)">
       <defs>
        <path id="CMR17-30" d="M 2688 2038 
C 2688 2430 2682 3099 2413 3613 
C 2176 4063 1798 4224 1466 4224 
C 1158 4224 768 4082 525 3620 
C 269 3137 243 2539 243 2038 
C 243 1671 250 1112 448 623 
C 723 -39 1216 -128 1466 -128 
C 1760 -128 2208 -7 2470 604 
C 2662 1048 2688 1568 2688 2038 
z
M 1466 -26 
C 1056 -26 813 328 723 816 
C 653 1196 653 1749 653 2109 
C 653 2604 653 3015 736 3407 
C 858 3954 1216 4121 1466 4121 
C 1728 4121 2067 3947 2189 3420 
C 2272 3054 2278 2623 2278 2109 
C 2278 1691 2278 1176 2202 797 
C 2067 96 1690 -26 1466 -26 
z
" transform="scale(0.015625)"/>
       </defs>
       <use xlink:href="#CMR17-30" transform="scale(0.996264)"/>
      </g>
     </g>
    </g>
    <g id="xtick_2">
     <g id="line2d_2">
      <g>
       <use xlink:href="#mb5325e868c" x="114.133122" y="318.944323" style="stroke: #000000; stroke-width: 0.8"/>
      </g>
     </g>
     <g id="text_2">
      <!-- $\mathdefault{50}$ -->
      <g transform="translate(109.151787 332.862822)scale(0.1 -0.1)">
       <defs>
        <path id="CMR17-35" d="M 730 3750 
C 794 3724 1056 3641 1325 3641 
C 1920 3641 2246 3961 2432 4140 
C 2432 4191 2432 4224 2394 4224 
C 2387 4224 2374 4224 2323 4198 
C 2099 4102 1837 4032 1517 4032 
C 1325 4032 1037 4055 723 4191 
C 653 4224 640 4224 634 4224 
C 602 4224 595 4217 595 4090 
L 595 2231 
C 595 2113 595 2080 659 2080 
C 691 2080 704 2093 736 2139 
C 941 2435 1222 2560 1542 2560 
C 1766 2560 2246 2415 2246 1293 
C 2246 1087 2246 716 2054 422 
C 1894 159 1645 25 1370 25 
C 947 25 518 319 403 812 
C 429 806 480 793 506 793 
C 589 793 749 838 749 1036 
C 749 1209 627 1280 506 1280 
C 358 1280 262 1190 262 1011 
C 262 454 704 -128 1382 -128 
C 2042 -128 2669 441 2669 1267 
C 2669 2054 2170 2662 1549 2662 
C 1222 2662 947 2540 730 2304 
L 730 3750 
z
" transform="scale(0.015625)"/>
       </defs>
       <use xlink:href="#CMR17-35" transform="scale(0.996264)"/>
       <use xlink:href="#CMR17-30" transform="translate(45.690477 0)scale(0.996264)"/>
      </g>
     </g>
    </g>
    <g id="xtick_3">
     <g id="line2d_3">
      <g>
       <use xlink:href="#mb5325e868c" x="159.649707" y="318.944323" style="stroke: #000000; stroke-width: 0.8"/>
      </g>
     </g>
     <g id="text_3">
      <!-- $\mathdefault{100}$ -->
      <g transform="translate(152.177704 332.862822)scale(0.1 -0.1)">
       <defs>
        <path id="CMR17-31" d="M 1702 4083 
C 1702 4217 1696 4224 1606 4224 
C 1357 3927 979 3833 621 3820 
C 602 3820 570 3820 563 3808 
C 557 3795 557 3782 557 3648 
C 755 3648 1088 3686 1344 3839 
L 1344 467 
C 1344 243 1331 166 781 166 
L 589 166 
L 589 0 
C 896 6 1216 12 1523 12 
C 1830 12 2150 6 2458 0 
L 2458 166 
L 2266 166 
C 1715 166 1702 236 1702 467 
L 1702 4083 
z
" transform="scale(0.015625)"/>
       </defs>
       <use xlink:href="#CMR17-31" transform="scale(0.996264)"/>
       <use xlink:href="#CMR17-30" transform="translate(45.690477 0)scale(0.996264)"/>
       <use xlink:href="#CMR17-30" transform="translate(91.380954 0)scale(0.996264)"/>
      </g>
     </g>
    </g>
    <g id="xtick_4">
     <g id="line2d_4">
      <g>
       <use xlink:href="#mb5325e868c" x="205.166291" y="318.944323" style="stroke: #000000; stroke-width: 0.8"/>
      </g>
     </g>
     <g id="text_4">
      <!-- $\mathdefault{150}$ -->
      <g transform="translate(197.694288 332.862822)scale(0.1 -0.1)">
       <use xlink:href="#CMR17-31" transform="scale(0.996264)"/>
       <use xlink:href="#CMR17-35" transform="translate(45.690477 0)scale(0.996264)"/>
       <use xlink:href="#CMR17-30" transform="translate(91.380954 0)scale(0.996264)"/>
      </g>
     </g>
    </g>
    <g id="xtick_5">
     <g id="line2d_5">
      <g>
       <use xlink:href="#mb5325e868c" x="250.682876" y="318.944323" style="stroke: #000000; stroke-width: 0.8"/>
      </g>
     </g>
     <g id="text_5">
      <!-- $\mathdefault{200}$ -->
      <g transform="translate(243.210873 332.862822)scale(0.1 -0.1)">
       <defs>
        <path id="CMR17-32" d="M 2669 990 
L 2554 990 
C 2490 537 2438 460 2413 422 
C 2381 371 1920 371 1830 371 
L 602 371 
C 832 620 1280 1073 1824 1596 
C 2214 1966 2669 2400 2669 3033 
C 2669 3788 2067 4224 1395 4224 
C 691 4224 262 3603 262 3027 
C 262 2777 448 2745 525 2745 
C 589 2745 781 2783 781 3007 
C 781 3206 614 3264 525 3264 
C 486 3264 448 3257 422 3244 
C 544 3788 915 4057 1306 4057 
C 1862 4057 2227 3616 2227 3033 
C 2227 2477 1901 1998 1536 1583 
L 262 147 
L 262 0 
L 2515 0 
L 2669 990 
z
" transform="scale(0.015625)"/>
       </defs>
       <use xlink:href="#CMR17-32" transform="scale(0.996264)"/>
       <use xlink:href="#CMR17-30" transform="translate(45.690477 0)scale(0.996264)"/>
       <use xlink:href="#CMR17-30" transform="translate(91.380954 0)scale(0.996264)"/>
      </g>
     </g>
    </g>
    <g id="xtick_6">
     <g id="line2d_6">
      <g>
       <use xlink:href="#mb5325e868c" x="296.19946" y="318.944323" style="stroke: #000000; stroke-width: 0.8"/>
      </g>
     </g>
     <g id="text_6">
      <!-- $\mathdefault{250}$ -->
      <g transform="translate(288.727458 332.862822)scale(0.1 -0.1)">
       <use xlink:href="#CMR17-32" transform="scale(0.996264)"/>
       <use xlink:href="#CMR17-35" transform="translate(45.690477 0)scale(0.996264)"/>
       <use xlink:href="#CMR17-30" transform="translate(91.380954 0)scale(0.996264)"/>
      </g>
     </g>
    </g>
    <g id="xtick_7">
     <g id="line2d_7">
      <g>
       <use xlink:href="#mb5325e868c" x="341.716045" y="318.944323" style="stroke: #000000; stroke-width: 0.8"/>
      </g>
     </g>
     <g id="text_7">
      <!-- $\mathdefault{300}$ -->
      <g transform="translate(334.244042 332.862822)scale(0.1 -0.1)">
       <defs>
        <path id="CMR17-33" d="M 1414 2176 
C 1984 2176 2234 1673 2234 1094 
C 2234 322 1824 25 1453 25 
C 1114 25 563 193 390 691 
C 422 678 454 678 486 678 
C 640 678 755 780 755 947 
C 755 1132 614 1216 486 1216 
C 378 1216 211 1164 211 927 
C 211 335 787 -128 1466 -128 
C 2176 -128 2720 432 2720 1087 
C 2720 1718 2208 2176 1600 2246 
C 2086 2347 2554 2776 2554 3353 
C 2554 3856 2048 4224 1472 4224 
C 890 4224 378 3862 378 3347 
C 378 3123 544 3084 627 3084 
C 762 3084 877 3167 877 3334 
C 877 3500 762 3584 627 3584 
C 602 3584 570 3584 544 3571 
C 730 3999 1235 4076 1459 4076 
C 1683 4076 2106 3966 2106 3347 
C 2106 3167 2080 2851 1862 2574 
C 1670 2329 1453 2316 1242 2297 
C 1210 2297 1062 2284 1037 2284 
C 992 2278 966 2272 966 2227 
C 966 2182 973 2176 1101 2176 
L 1414 2176 
z
" transform="scale(0.015625)"/>
       </defs>
       <use xlink:href="#CMR17-33" transform="scale(0.996264)"/>
       <use xlink:href="#CMR17-30" transform="translate(45.690477 0)scale(0.996264)"/>
       <use xlink:href="#CMR17-30" transform="translate(91.380954 0)scale(0.996264)"/>
      </g>
     </g>
    </g>
    <g id="xtick_8">
     <g id="line2d_8">
      <g>
       <use xlink:href="#mb5325e868c" x="387.23263" y="318.944323" style="stroke: #000000; stroke-width: 0.8"/>
      </g>
     </g>
     <g id="text_8">
      <!-- $\mathdefault{350}$ -->
      <g transform="translate(379.760627 332.862822)scale(0.1 -0.1)">
       <use xlink:href="#CMR17-33" transform="scale(0.996264)"/>
       <use xlink:href="#CMR17-35" transform="translate(45.690477 0)scale(0.996264)"/>
       <use xlink:href="#CMR17-30" transform="translate(91.380954 0)scale(0.996264)"/>
      </g>
     </g>
    </g>
    <g id="xtick_9">
     <g id="line2d_9">
      <g>
       <use xlink:href="#mb5325e868c" x="432.749214" y="318.944323" style="stroke: #000000; stroke-width: 0.8"/>
      </g>
     </g>
     <g id="text_9">
      <!-- $\mathdefault{400}$ -->
      <g transform="translate(425.277212 332.862822)scale(0.1 -0.1)">
       <defs>
        <path id="CMR17-34" d="M 2150 4147 
C 2150 4281 2144 4288 2029 4288 
L 128 1254 
L 128 1088 
L 1779 1088 
L 1779 460 
C 1779 230 1766 166 1318 166 
L 1197 166 
L 1197 0 
C 1402 12 1747 12 1965 12 
C 2182 12 2528 12 2733 0 
L 2733 166 
L 2611 166 
C 2163 166 2150 230 2150 460 
L 2150 1088 
L 2803 1088 
L 2803 1254 
L 2150 1254 
L 2150 4147 
z
M 1798 3723 
L 1798 1254 
L 256 1254 
L 1798 3723 
z
" transform="scale(0.015625)"/>
       </defs>
       <use xlink:href="#CMR17-34" transform="scale(0.996264)"/>
       <use xlink:href="#CMR17-30" transform="translate(45.690477 0)scale(0.996264)"/>
       <use xlink:href="#CMR17-30" transform="translate(91.380954 0)scale(0.996264)"/>
      </g>
     </g>
    </g>
   </g>
   <g id="matplotlib.axis_2">
    <g id="ytick_1">
     <g id="line2d_10">
      <defs>
       <path id="m77a2118ca5" d="M 0 0 
L -3.5 0 
" style="stroke: #000000; stroke-width: 0.8"/>
      </defs>
      <g>
       <use xlink:href="#m77a2118ca5" x="50.45542" y="287.652717" style="stroke: #000000; stroke-width: 0.8"/>
      </g>
     </g>
     <g id="text_10">
      <!-- $\mathdefault{0.00050}$ -->
      <g transform="translate(10.8 291.111966)scale(0.1 -0.1)">
       <defs>
        <path id="CMMI12-3a" d="M 1178 307 
C 1178 492 1024 620 870 620 
C 685 620 557 467 557 313 
C 557 128 710 0 864 0 
C 1050 0 1178 153 1178 307 
z
" transform="scale(0.015625)"/>
       </defs>
       <use xlink:href="#CMR17-30" transform="scale(0.996264)"/>
       <use xlink:href="#CMMI12-3a" transform="translate(45.690477 0)scale(0.996264)"/>
       <use xlink:href="#CMR17-30" transform="translate(72.787654 0)scale(0.996264)"/>
       <use xlink:href="#CMR17-30" transform="translate(118.478131 0)scale(0.996264)"/>
       <use xlink:href="#CMR17-30" transform="translate(164.168608 0)scale(0.996264)"/>
       <use xlink:href="#CMR17-35" transform="translate(209.859086 0)scale(0.996264)"/>
       <use xlink:href="#CMR17-30" transform="translate(255.549563 0)scale(0.996264)"/>
      </g>
     </g>
    </g>
    <g id="ytick_2">
     <g id="line2d_11">
      <g>
       <use xlink:href="#m77a2118ca5" x="50.45542" y="249.809843" style="stroke: #000000; stroke-width: 0.8"/>
      </g>
     </g>
     <g id="text_11">
      <!-- $\mathdefault{0.00075}$ -->
      <g transform="translate(10.8 253.269092)scale(0.1 -0.1)">
       <defs>
        <path id="CMR17-37" d="M 2886 3955 
L 2886 4096 
L 1382 4096 
C 634 4096 621 4166 595 4288 
L 480 4288 
L 294 3104 
L 410 3104 
C 429 3226 474 3552 550 3673 
C 589 3724 1062 3724 1171 3724 
L 2579 3724 
L 1869 2670 
C 1395 1961 1069 1003 1069 166 
C 1069 89 1069 -128 1299 -128 
C 1530 -128 1530 89 1530 172 
L 1530 466 
C 1530 1514 1709 2204 2003 2644 
L 2886 3955 
z
" transform="scale(0.015625)"/>
       </defs>
       <use xlink:href="#CMR17-30" transform="scale(0.996264)"/>
       <use xlink:href="#CMMI12-3a" transform="translate(45.690477 0)scale(0.996264)"/>
       <use xlink:href="#CMR17-30" transform="translate(72.787654 0)scale(0.996264)"/>
       <use xlink:href="#CMR17-30" transform="translate(118.478131 0)scale(0.996264)"/>
       <use xlink:href="#CMR17-30" transform="translate(164.168608 0)scale(0.996264)"/>
       <use xlink:href="#CMR17-37" transform="translate(209.859086 0)scale(0.996264)"/>
       <use xlink:href="#CMR17-35" transform="translate(255.549563 0)scale(0.996264)"/>
      </g>
     </g>
    </g>
    <g id="ytick_3">
     <g id="line2d_12">
      <g>
       <use xlink:href="#m77a2118ca5" x="50.45542" y="211.966968" style="stroke: #000000; stroke-width: 0.8"/>
      </g>
     </g>
     <g id="text_12">
      <!-- $\mathdefault{0.00100}$ -->
      <g transform="translate(10.8 215.426217)scale(0.1 -0.1)">
       <use xlink:href="#CMR17-30" transform="scale(0.996264)"/>
       <use xlink:href="#CMMI12-3a" transform="translate(45.690477 0)scale(0.996264)"/>
       <use xlink:href="#CMR17-30" transform="translate(72.787654 0)scale(0.996264)"/>
       <use xlink:href="#CMR17-30" transform="translate(118.478131 0)scale(0.996264)"/>
       <use xlink:href="#CMR17-31" transform="translate(164.168608 0)scale(0.996264)"/>
       <use xlink:href="#CMR17-30" transform="translate(209.859086 0)scale(0.996264)"/>
       <use xlink:href="#CMR17-30" transform="translate(255.549563 0)scale(0.996264)"/>
      </g>
     </g>
    </g>
    <g id="ytick_4">
     <g id="line2d_13">
      <g>
       <use xlink:href="#m77a2118ca5" x="50.45542" y="174.124094" style="stroke: #000000; stroke-width: 0.8"/>
      </g>
     </g>
     <g id="text_13">
      <!-- $\mathdefault{0.00125}$ -->
      <g transform="translate(10.8 177.583343)scale(0.1 -0.1)">
       <use xlink:href="#CMR17-30" transform="scale(0.996264)"/>
       <use xlink:href="#CMMI12-3a" transform="translate(45.690477 0)scale(0.996264)"/>
       <use xlink:href="#CMR17-30" transform="translate(72.787654 0)scale(0.996264)"/>
       <use xlink:href="#CMR17-30" transform="translate(118.478131 0)scale(0.996264)"/>
       <use xlink:href="#CMR17-31" transform="translate(164.168608 0)scale(0.996264)"/>
       <use xlink:href="#CMR17-32" transform="translate(209.859086 0)scale(0.996264)"/>
       <use xlink:href="#CMR17-35" transform="translate(255.549563 0)scale(0.996264)"/>
      </g>
     </g>
    </g>
    <g id="ytick_5">
     <g id="line2d_14">
      <g>
       <use xlink:href="#m77a2118ca5" x="50.45542" y="136.281219" style="stroke: #000000; stroke-width: 0.8"/>
      </g>
     </g>
     <g id="text_14">
      <!-- $\mathdefault{0.00150}$ -->
      <g transform="translate(10.8 139.740469)scale(0.1 -0.1)">
       <use xlink:href="#CMR17-30" transform="scale(0.996264)"/>
       <use xlink:href="#CMMI12-3a" transform="translate(45.690477 0)scale(0.996264)"/>
       <use xlink:href="#CMR17-30" transform="translate(72.787654 0)scale(0.996264)"/>
       <use xlink:href="#CMR17-30" transform="translate(118.478131 0)scale(0.996264)"/>
       <use xlink:href="#CMR17-31" transform="translate(164.168608 0)scale(0.996264)"/>
       <use xlink:href="#CMR17-35" transform="translate(209.859086 0)scale(0.996264)"/>
       <use xlink:href="#CMR17-30" transform="translate(255.549563 0)scale(0.996264)"/>
      </g>
     </g>
    </g>
    <g id="ytick_6">
     <g id="line2d_15">
      <g>
       <use xlink:href="#m77a2118ca5" x="50.45542" y="98.438345" style="stroke: #000000; stroke-width: 0.8"/>
      </g>
     </g>
     <g id="text_15">
      <!-- $\mathdefault{0.00175}$ -->
      <g transform="translate(10.8 101.897594)scale(0.1 -0.1)">
       <use xlink:href="#CMR17-30" transform="scale(0.996264)"/>
       <use xlink:href="#CMMI12-3a" transform="translate(45.690477 0)scale(0.996264)"/>
       <use xlink:href="#CMR17-30" transform="translate(72.787654 0)scale(0.996264)"/>
       <use xlink:href="#CMR17-30" transform="translate(118.478131 0)scale(0.996264)"/>
       <use xlink:href="#CMR17-31" transform="translate(164.168608 0)scale(0.996264)"/>
       <use xlink:href="#CMR17-37" transform="translate(209.859086 0)scale(0.996264)"/>
       <use xlink:href="#CMR17-35" transform="translate(255.549563 0)scale(0.996264)"/>
      </g>
     </g>
    </g>
    <g id="ytick_7">
     <g id="line2d_16">
      <g>
       <use xlink:href="#m77a2118ca5" x="50.45542" y="60.595471" style="stroke: #000000; stroke-width: 0.8"/>
      </g>
     </g>
     <g id="text_16">
      <!-- $\mathdefault{0.00200}$ -->
      <g transform="translate(10.8 64.05472)scale(0.1 -0.1)">
       <use xlink:href="#CMR17-30" transform="scale(0.996264)"/>
       <use xlink:href="#CMMI12-3a" transform="translate(45.690477 0)scale(0.996264)"/>
       <use xlink:href="#CMR17-30" transform="translate(72.787654 0)scale(0.996264)"/>
       <use xlink:href="#CMR17-30" transform="translate(118.478131 0)scale(0.996264)"/>
       <use xlink:href="#CMR17-32" transform="translate(164.168608 0)scale(0.996264)"/>
       <use xlink:href="#CMR17-30" transform="translate(209.859086 0)scale(0.996264)"/>
       <use xlink:href="#CMR17-30" transform="translate(255.549563 0)scale(0.996264)"/>
      </g>
     </g>
    </g>
    <g id="ytick_8">
     <g id="line2d_17">
      <g>
       <use xlink:href="#m77a2118ca5" x="50.45542" y="22.752596" style="stroke: #000000; stroke-width: 0.8"/>
      </g>
     </g>
     <g id="text_17">
      <!-- $\mathdefault{0.00225}$ -->
      <g transform="translate(10.8 26.211846)scale(0.1 -0.1)">
       <use xlink:href="#CMR17-30" transform="scale(0.996264)"/>
       <use xlink:href="#CMMI12-3a" transform="translate(45.690477 0)scale(0.996264)"/>
       <use xlink:href="#CMR17-30" transform="translate(72.787654 0)scale(0.996264)"/>
       <use xlink:href="#CMR17-30" transform="translate(118.478131 0)scale(0.996264)"/>
       <use xlink:href="#CMR17-32" transform="translate(164.168608 0)scale(0.996264)"/>
       <use xlink:href="#CMR17-32" transform="translate(209.859086 0)scale(0.996264)"/>
       <use xlink:href="#CMR17-35" transform="translate(255.549563 0)scale(0.996264)"/>
      </g>
     </g>
    </g>
   </g>
   <g id="line2d_18">
    <path d="M 68.616537 146.530406 
L 69.526869 81.025158 
L 70.437201 279.093935 
L 71.347532 266.277459 
L 72.257864 173.569343 
L 73.168196 135.581379 
L 74.078527 300.296411 
L 74.988859 92.428388 
L 75.899191 293.495672 
L 76.809522 169.079385 
L 77.719854 290.242895 
L 78.630186 280.929569 
L 79.540518 287.132892 
L 80.450849 163.077794 
L 81.361181 276.471583 
L 82.271513 139.709766 
L 83.181844 125.62518 
L 84.092176 40.029745 
L 85.002508 43.783017 
L 85.912839 295.974649 
L 86.823171 291.063694 
L 87.733503 145.165401 
L 88.643835 138.499986 
L 89.554166 297.877851 
L 90.464498 290.511113 
L 91.37483 104.324443 
L 92.285161 152.882121 
L 93.195493 281.039418 
L 94.105825 97.279433 
L 95.016156 89.110012 
L 95.926488 273.984327 
L 96.83682 285.430117 
L 97.747151 293.360768 
L 98.657483 130.561178 
L 99.567815 132.287245 
L 100.478147 277.167311 
L 101.388478 295.242114 
L 102.29881 90.366055 
L 103.209142 133.106332 
L 104.119473 281.618551 
L 105.029805 74.723761 
L 105.940137 84.844831 
L 106.850468 101.220609 
L 107.7608 262.558878 
L 108.671132 77.58796 
L 109.581463 276.226224 
L 110.491795 273.276102 
L 111.402127 282.400196 
L 112.312459 276.341205 
L 113.22279 150.983842 
L 114.133122 114.023244 
L 115.043454 286.638561 
L 115.953785 278.070979 
L 116.864117 276.913941 
L 117.774449 116.771934 
L 118.68478 148.757347 
L 119.595112 145.585727 
L 120.505444 302.266253 
L 121.415775 294.637618 
L 122.326107 77.435254 
L 123.236439 295.025099 
L 124.146771 267.511356 
L 125.057102 280.883444 
L 125.967434 87.614986 
L 126.877766 98.243364 
L 127.788097 273.132432 
L 128.698429 130.325023 
L 129.608761 279.730678 
L 130.519092 97.116687 
L 131.429424 136.214382 
L 132.339756 272.599647 
L 133.250087 177.925721 
L 134.160419 278.490941 
L 135.070751 158.654721 
L 135.981083 134.676367 
L 137.801746 169.525982 
L 138.712078 280.958075 
L 139.622409 81.372402 
L 140.532741 279.588594 
L 141.443073 260.199714 
L 142.353404 271.540652 
L 143.263736 105.766677 
L 144.174068 124.32239 
L 145.084399 44.939716 
L 145.994731 49.598635 
L 146.905063 276.327287 
L 147.815395 273.894826 
L 148.725726 287.987978 
L 149.636058 285.681081 
L 150.54639 164.267129 
L 151.456721 287.576731 
L 152.367053 56.484079 
L 153.277385 274.797026 
L 154.187716 276.594915 
L 155.098048 268.577268 
L 156.00838 293.528073 
L 156.918711 161.134403 
L 157.829043 105.475612 
L 158.739375 101.649115 
L 159.649707 286.999498 
L 160.560038 271.749777 
L 161.47037 98.653392 
L 162.380702 268.708943 
L 163.291033 56.43716 
L 164.201365 56.632898 
L 165.111697 286.71987 
L 166.022028 268.168921 
L 166.93236 273.205939 
L 167.842692 107.768346 
L 168.753023 126.415329 
L 169.663355 280.09993 
L 170.573687 132.605836 
L 171.484019 84.505783 
L 172.39435 281.80188 
L 173.304682 278.631931 
L 174.215014 281.863735 
L 175.125345 119.897445 
L 176.035677 285.190968 
L 176.946009 286.727412 
L 177.85634 275.233644 
L 178.766672 276.989542 
L 179.677004 94.201593 
L 180.587335 291.687168 
L 181.497667 141.684187 
L 182.407999 193.564926 
L 183.318331 295.205135 
L 184.228662 269.022138 
L 185.138994 266.512428 
L 186.049326 288.688161 
L 186.959657 281.226706 
L 187.869989 269.807162 
L 188.780321 289.324597 
L 189.690652 289.923151 
L 190.600984 286.591768 
L 191.511316 266.4504 
L 192.421647 143.689366 
L 193.331979 275.715558 
L 194.242311 158.777011 
L 195.152643 114.142751 
L 196.062974 82.030284 
L 196.973306 287.333376 
L 197.883638 290.823032 
L 198.793969 95.621862 
L 199.704301 92.661206 
L 200.614633 271.249328 
L 201.524964 77.815729 
L 202.435296 111.85489 
L 203.345628 127.40431 
L 204.255959 270.729763 
L 205.166291 116.98673 
L 206.076623 102.398806 
L 206.986955 284.266595 
L 207.897286 56.076169 
L 208.807618 82.36555 
L 209.71795 112.97002 
L 210.628281 295.664284 
L 211.538613 49.94409 
L 212.448945 73.45468 
L 213.359276 292.340285 
L 214.269608 297.257636 
L 215.17994 132.899788 
L 216.090272 268.60008 
L 217.000603 125.253821 
L 217.910935 268.041188 
L 218.821267 266.724494 
L 219.731598 277.956476 
L 220.64193 301.868745 
L 221.552262 146.008333 
L 222.462593 280.904638 
L 223.372925 112.535979 
L 224.283257 79.851209 
L 225.193588 282.73401 
L 226.10392 289.853716 
L 227.014252 304.937763 
L 227.924584 129.887609 
L 228.834915 124.056468 
L 229.745247 181.477682 
L 230.655579 273.220819 
L 231.56591 278.361185 
L 232.476242 106.864147 
L 233.386574 175.672209 
L 234.296905 281.557899 
L 235.207237 92.339119 
L 236.117569 280.340852 
L 237.0279 92.011536 
L 237.938232 118.176228 
L 238.848564 292.005659 
L 239.758896 117.643718 
L 240.669227 103.593702 
L 241.579559 102.819268 
L 242.489891 281.705813 
L 243.400222 272.022353 
L 244.310554 85.72041 
L 245.220886 119.584543 
L 246.131217 272.893372 
L 247.041549 273.065525 
L 247.951881 133.42031 
L 248.862212 146.391841 
L 249.772544 288.20703 
L 250.682876 281.994124 
L 251.593208 66.357761 
L 252.503539 149.826365 
L 253.413871 294.867653 
L 254.324203 133.391663 
L 255.234534 181.396935 
L 256.144866 282.883745 
L 257.055198 106.235968 
L 257.965529 79.510664 
L 258.875861 24.80656 
L 259.786193 102.288361 
L 260.696524 94.981469 
L 261.606856 283.846719 
L 262.517188 179.421765 
L 263.42752 147.767157 
L 264.337851 157.139105 
L 265.248183 280.744284 
L 266.158515 266.315688 
L 267.068846 285.62424 
L 267.979178 286.309496 
L 268.88951 277.113072 
L 269.799841 70.145349 
L 270.710173 277.74311 
L 271.620505 280.044176 
L 272.530836 173.306163 
L 273.441168 272.063632 
L 274.3515 292.958008 
L 275.261832 275.689847 
L 276.172163 268.789473 
L 277.082495 298.717999 
L 277.992827 72.144686 
L 278.903158 84.906126 
L 279.81349 66.094309 
L 280.723822 92.357862 
L 281.634153 284.299211 
L 282.544485 91.670548 
L 283.454817 284.580556 
L 284.365148 122.885168 
L 285.27548 135.441625 
L 286.185812 274.928415 
L 287.096144 284.213576 
L 288.006475 81.913894 
L 288.916807 120.349155 
L 289.827139 265.726716 
L 290.73747 286.043912 
L 291.647802 124.379393 
L 292.558134 95.69151 
L 293.468465 93.142498 
L 294.378797 273.573168 
L 295.289129 118.006344 
L 296.19946 153.394782 
L 297.109792 99.470076 
L 298.020124 284.535997 
L 298.930456 287.645676 
L 299.840787 68.89876 
L 300.751119 275.151251 
L 301.661451 119.165098 
L 302.571782 274.765491 
L 303.482114 269.167472 
L 304.392446 270.718667 
L 305.302777 279.851841 
L 306.213109 99.480298 
L 307.123441 282.586919 
L 308.033772 283.2432 
L 308.944104 176.213258 
L 309.854436 290.950162 
L 310.764768 271.592755 
L 311.675099 279.832178 
L 312.585431 110.67687 
L 313.495763 284.268677 
L 314.406094 79.809582 
L 315.316426 94.869488 
L 316.226758 284.992881 
L 317.137089 291.100419 
L 318.047421 275.578016 
L 318.957753 105.811769 
L 319.868084 287.054553 
L 320.778416 286.147419 
L 321.688748 82.630482 
L 322.59908 105.429414 
L 323.509411 141.600594 
L 324.419743 105.618456 
L 325.330075 287.071477 
L 326.240406 278.640683 
L 327.150738 161.288634 
L 328.06107 283.059584 
L 328.971401 277.130955 
L 329.881733 268.579695 
L 330.792065 117.426794 
L 331.702397 268.31705 
L 332.612728 275.273406 
L 333.52306 62.59974 
L 334.433392 286.432722 
L 335.343723 290.805268 
L 336.254055 266.253587 
L 337.164387 148.723027 
L 338.074718 46.725713 
L 338.98505 98.646937 
L 339.895382 122.025645 
L 340.805713 270.472006 
L 341.716045 263.558503 
L 342.626377 100.529923 
L 343.536709 86.297088 
L 344.44704 301.919322 
L 345.357372 92.318399 
L 346.267704 276.863754 
L 347.178035 147.845375 
L 348.088367 290.85279 
L 348.998699 291.010751 
L 349.90903 276.558212 
L 350.819362 152.482354 
L 351.729694 282.852171 
L 352.640025 133.729548 
L 353.550357 264.324516 
L 354.460689 280.542833 
L 356.281352 93.409547 
L 357.191684 294.768746 
L 358.102016 157.216623 
L 359.012347 64.933893 
L 359.922679 279.509834 
L 360.833011 130.819296 
L 361.743342 281.161116 
L 362.653674 84.62292 
L 363.564006 80.026212 
L 364.474337 286.689572 
L 365.384669 289.759949 
L 366.295001 140.051278 
L 367.205333 273.334924 
L 368.115664 121.720913 
L 369.025996 84.089754 
L 369.936328 271.57281 
L 370.846659 74.565401 
L 371.756991 128.526989 
L 372.667323 285.825121 
L 373.577654 280.105803 
L 374.487986 87.080632 
L 375.398318 287.069056 
L 376.308649 297.696686 
L 377.218981 94.521621 
L 378.129313 64.930689 
L 379.039645 87.046023 
L 379.949976 105.598101 
L 380.860308 115.714408 
L 381.77064 129.490635 
L 382.680971 273.895167 
L 383.591303 285.251603 
L 384.501635 282.701508 
L 385.411966 76.301513 
L 386.322298 108.133994 
L 387.23263 269.358916 
L 388.142961 275.900654 
L 389.053293 98.087022 
L 389.963625 279.25633 
L 390.873957 103.870816 
L 391.784288 138.754267 
L 392.69462 278.873073 
L 393.604952 90.319987 
L 395.425615 95.455484 
L 396.335947 161.992409 
L 397.246278 102.428392 
L 398.15661 160.415195 
L 399.066942 100.521642 
L 400.887605 123.412952 
L 401.797937 155.016789 
L 402.708269 108.589644 
L 403.6186 109.638074 
L 404.528932 112.467162 
L 405.439264 286.798133 
L 406.349595 63.404026 
L 407.259927 295.972868 
L 408.170259 45.551666 
L 409.08059 85.032012 
L 409.990922 270.68414 
L 410.901254 280.133187 
L 411.811585 296.217541 
L 412.721917 281.104345 
L 413.632249 284.16877 
L 414.542581 283.066962 
L 415.452912 282.641152 
L 416.363244 153.535745 
L 417.273576 288.739666 
L 418.183907 85.295966 
L 419.094239 288.833674 
L 420.004571 302.671339 
L 420.914902 280.391594 
L 421.825234 107.490628 
L 422.735566 82.101573 
L 423.645897 279.873391 
L 424.556229 283.014966 
L 425.466561 280.560706 
L 426.376893 135.428587 
L 427.287224 287.152513 
L 428.197556 84.061971 
L 429.107888 139.42909 
L 430.018219 286.2851 
L 430.928551 164.937339 
L 431.838883 281.309895 
L 431.838883 281.309895 
" clip-path="url(#p20dc94002e)" style="fill: none; stroke: #3c74ff; stroke-width: 1.5; stroke-linecap: square"/>
   </g>
   <g id="patch_3">
    <path d="M 50.45542 318.944323 
L 50.45542 10.8 
" style="fill: none; stroke: #000000; stroke-width: 0.8; stroke-linejoin: miter; stroke-linecap: square"/>
   </g>
   <g id="patch_4">
    <path d="M 450 318.944323 
L 450 10.8 
" style="fill: none; stroke: #000000; stroke-width: 0.8; stroke-linejoin: miter; stroke-linecap: square"/>
   </g>
   <g id="patch_5">
    <path d="M 50.45542 318.944323 
L 450 318.944323 
" style="fill: none; stroke: #000000; stroke-width: 0.8; stroke-linejoin: miter; stroke-linecap: square"/>
   </g>
   <g id="patch_6">
    <path d="M 50.45542 10.8 
L 450 10.8 
" style="fill: none; stroke: #000000; stroke-width: 0.8; stroke-linejoin: miter; stroke-linecap: square"/>
   </g>
   <g id="legend_1">
    <g id="patch_7">
     <path d="M 364.49378 32.737178 
L 443 32.737178 
Q 445 32.737178 445 30.737178 
L 445 17.8 
Q 445 15.8 443 15.8 
L 364.49378 15.8 
Q 362.49378 15.8 362.49378 17.8 
L 362.49378 30.737178 
Q 362.49378 32.737178 364.49378 32.737178 
z
" style="fill: #ffffff; opacity: 0.8; stroke: #cccccc; stroke-linejoin: miter"/>
    </g>
    <g id="line2d_19">
     <path d="M 366.49378 23.3 
L 376.49378 23.3 
L 386.49378 23.3 
" style="fill: none; stroke: #3c74ff; stroke-width: 1.5; stroke-linecap: square"/>
    </g>
    <g id="text_18">
     <!-- Real values -->
     <g transform="translate(394.49378 26.8)scale(0.1 -0.1)">
      <defs>
       <path id="CMSS17-52" d="M 2522 2099 
L 2534 2105 
C 3533 2450 3539 3125 3539 3244 
C 3539 3838 2925 4416 2003 4416 
L 570 4416 
L 570 0 
L 1094 0 
L 1094 2041 
L 2035 2041 
L 3168 0 
L 3706 0 
L 2522 2099 
z
M 1094 2432 
L 1094 4057 
L 1933 4057 
C 2746 4057 3034 3607 3034 3244 
C 3034 2907 2778 2432 1933 2432 
L 1094 2432 
z
" transform="scale(0.015625)"/>
       <path id="CMSS17-65" d="M 2502 1375 
C 2502 1587 2490 2001 2285 2347 
C 2061 2713 1696 2816 1421 2816 
C 755 2816 192 2184 192 1363 
C 192 579 774 -64 1510 -64 
C 1798 -64 2150 19 2470 249 
C 2470 275 2458 414 2451 421 
C 2451 433 2432 629 2432 655 
C 2125 408 1773 326 1517 326 
C 1107 326 666 667 646 1375 
L 2502 1375 
z
M 698 1728 
C 781 2086 1062 2425 1421 2425 
C 1517 2425 1965 2412 2080 1728 
L 698 1728 
z
" transform="scale(0.015625)"/>
       <path id="CMSS17-61" d="M 2406 1789 
C 2406 2399 1978 2816 1402 2816 
C 1120 2816 813 2764 461 2559 
L 499 2133 
C 659 2250 934 2438 1395 2438 
C 1722 2438 1920 2185 1920 1782 
L 1920 1536 
C 896 1504 256 1209 256 711 
C 256 452 416 -64 947 -64 
C 1043 -64 1562 -52 1933 224 
L 1933 -13 
L 2406 -13 
L 2406 1789 
z
M 1920 824 
C 1920 711 1920 559 1728 446 
C 1562 339 1350 326 1261 326 
C 941 326 723 503 723 723 
C 723 1165 1722 1209 1920 1216 
L 1920 824 
z
" transform="scale(0.015625)"/>
       <path id="CMSS17-6c" d="M 947 4416 
L 474 4416 
L 474 0 
L 947 0 
L 947 4416 
z
" transform="scale(0.015625)"/>
       <path id="CMSS17-76" d="M 2675 2752 
L 2176 2752 
L 1747 1555 
C 1613 1164 1421 627 1389 352 
L 1382 352 
C 1370 467 1318 633 1286 748 
C 1248 889 1197 1056 1158 1171 
L 595 2752 
L 83 2752 
L 1094 0 
L 1664 0 
L 2675 2752 
z
" transform="scale(0.015625)"/>
       <path id="CMSS17-75" d="M 2618 2752 
L 2131 2752 
L 2131 976 
C 2131 500 1786 307 1421 307 
C 998 307 960 448 960 712 
L 960 2752 
L 474 2752 
L 474 680 
C 474 179 646 -64 1088 -64 
C 1306 -64 1798 -13 2144 307 
L 2144 -13 
L 2618 -13 
L 2618 2752 
z
" transform="scale(0.015625)"/>
       <path id="CMSS17-73" d="M 2061 2623 
C 1683 2803 1389 2816 1197 2816 
C 742 2816 198 2655 198 2009 
C 198 1363 902 1222 1094 1183 
C 1389 1126 1715 1062 1715 742 
C 1715 339 1254 339 1171 339 
C 915 339 563 409 243 639 
L 166 211 
C 531 0 883 -64 1178 -64 
C 1965 -64 2163 416 2163 780 
C 2163 1094 1984 1305 1862 1401 
C 1651 1567 1574 1587 1050 1695 
C 960 1708 646 1779 646 2067 
C 646 2431 1050 2431 1139 2431 
C 1555 2431 1811 2303 1984 2207 
L 2061 2623 
z
" transform="scale(0.015625)"/>
      </defs>
      <use xlink:href="#CMSS17-52" transform="scale(0.996264)"/>
      <use xlink:href="#CMSS17-65" transform="translate(60.416155 0)scale(0.996264)"/>
      <use xlink:href="#CMSS17-61" transform="translate(102.054977 0)scale(0.996264)"/>
      <use xlink:href="#CMSS17-6c" transform="translate(146.976898 0)scale(0.996264)"/>
      <use xlink:href="#CMSS17-76" transform="translate(200.386733 0)scale(0.996264)"/>
      <use xlink:href="#CMSS17-61" transform="translate(243.386875 0)scale(0.996264)"/>
      <use xlink:href="#CMSS17-6c" transform="translate(288.308796 0)scale(0.996264)"/>
      <use xlink:href="#CMSS17-75" transform="translate(310.489519 0)scale(0.996264)"/>
      <use xlink:href="#CMSS17-65" transform="translate(358.694462 0)scale(0.996264)"/>
      <use xlink:href="#CMSS17-73" transform="translate(400.333284 0)scale(0.996264)"/>
     </g>
    </g>
   </g>
  </g>
 </g>
 <defs>
  <clipPath id="p20dc94002e">
   <rect x="50.45542" y="10.8" width="399.54458" height="308.144323"/>
  </clipPath>
 </defs>
</svg>
