<?xml version="1.0" encoding="utf-8" standalone="no"?>
<!DOCTYPE svg PUBLIC "-//W3C//DTD SVG 1.1//EN"
  "http://www.w3.org/Graphics/SVG/1.1/DTD/svg11.dtd">
<svg xmlns:xlink="http://www.w3.org/1999/xlink" width="460.8pt" height="345.6pt" viewBox="0 0 460.8 345.6" xmlns="http://www.w3.org/2000/svg" version="1.1">
 <metadata>
  <rdf:RDF xmlns:dc="http://purl.org/dc/elements/1.1/" xmlns:cc="http://creativecommons.org/ns#" xmlns:rdf="http://www.w3.org/1999/02/22-rdf-syntax-ns#">
   <cc:Work>
    <dc:type rdf:resource="http://purl.org/dc/dcmitype/StillImage"/>
    <dc:date>2023-03-16T12:19:12.432248</dc:date>
    <dc:format>image/svg+xml</dc:format>
    <dc:creator>
     <cc:Agent>
      <dc:title>Matplotlib v3.5.3, https://matplotlib.org/</dc:title>
     </cc:Agent>
    </dc:creator>
   </cc:Work>
  </rdf:RDF>
 </metadata>
 <defs>
  <style type="text/css">*{stroke-linejoin: round; stroke-linecap: butt}</style>
 </defs>
 <g id="figure_1">
  <g id="patch_1">
   <path d="M 0 345.6 
L 460.8 345.6 
L 460.8 0 
L 0 0 
z
" style="fill: #ffffff"/>
  </g>
  <g id="axes_1">
   <g id="patch_2">
    <path d="M 50.45542 318.944323 
L 450 318.944323 
L 450 10.8 
L 50.45542 10.8 
z
" style="fill: #ffffff"/>
   </g>
   <g id="matplotlib.axis_1">
    <g id="xtick_1">
     <g id="line2d_1">
      <defs>
       <path id="m09c3b80783" d="M 0 0 
L 0 3.5 
" style="stroke: #000000; stroke-width: 0.8"/>
      </defs>
      <g>
       <use xlink:href="#m09c3b80783" x="68.616537" y="318.944323" style="stroke: #000000; stroke-width: 0.8"/>
      </g>
     </g>
     <g id="text_1">
      <!-- $\mathdefault{0}$ -->
      <g transform="translate(66.12587 332.862822)scale(0.1 -0.1)">
       <defs>
        <path id="CMR17-30" d="M 2688 2038 
C 2688 2430 2682 3099 2413 3613 
C 2176 4063 1798 4224 1466 4224 
C 1158 4224 768 4082 525 3620 
C 269 3137 243 2539 243 2038 
C 243 1671 250 1112 448 623 
C 723 -39 1216 -128 1466 -128 
C 1760 -128 2208 -7 2470 604 
C 2662 1048 2688 1568 2688 2038 
z
M 1466 -26 
C 1056 -26 813 328 723 816 
C 653 1196 653 1749 653 2109 
C 653 2604 653 3015 736 3407 
C 858 3954 1216 4121 1466 4121 
C 1728 4121 2067 3947 2189 3420 
C 2272 3054 2278 2623 2278 2109 
C 2278 1691 2278 1176 2202 797 
C 2067 96 1690 -26 1466 -26 
z
" transform="scale(0.015625)"/>
       </defs>
       <use xlink:href="#CMR17-30" transform="scale(0.996264)"/>
      </g>
     </g>
    </g>
    <g id="xtick_2">
     <g id="line2d_2">
      <g>
       <use xlink:href="#m09c3b80783" x="114.133122" y="318.944323" style="stroke: #000000; stroke-width: 0.8"/>
      </g>
     </g>
     <g id="text_2">
      <!-- $\mathdefault{50}$ -->
      <g transform="translate(109.151787 332.862822)scale(0.1 -0.1)">
       <defs>
        <path id="CMR17-35" d="M 730 3750 
C 794 3724 1056 3641 1325 3641 
C 1920 3641 2246 3961 2432 4140 
C 2432 4191 2432 4224 2394 4224 
C 2387 4224 2374 4224 2323 4198 
C 2099 4102 1837 4032 1517 4032 
C 1325 4032 1037 4055 723 4191 
C 653 4224 640 4224 634 4224 
C 602 4224 595 4217 595 4090 
L 595 2231 
C 595 2113 595 2080 659 2080 
C 691 2080 704 2093 736 2139 
C 941 2435 1222 2560 1542 2560 
C 1766 2560 2246 2415 2246 1293 
C 2246 1087 2246 716 2054 422 
C 1894 159 1645 25 1370 25 
C 947 25 518 319 403 812 
C 429 806 480 793 506 793 
C 589 793 749 838 749 1036 
C 749 1209 627 1280 506 1280 
C 358 1280 262 1190 262 1011 
C 262 454 704 -128 1382 -128 
C 2042 -128 2669 441 2669 1267 
C 2669 2054 2170 2662 1549 2662 
C 1222 2662 947 2540 730 2304 
L 730 3750 
z
" transform="scale(0.015625)"/>
       </defs>
       <use xlink:href="#CMR17-35" transform="scale(0.996264)"/>
       <use xlink:href="#CMR17-30" transform="translate(45.690477 0)scale(0.996264)"/>
      </g>
     </g>
    </g>
    <g id="xtick_3">
     <g id="line2d_3">
      <g>
       <use xlink:href="#m09c3b80783" x="159.649707" y="318.944323" style="stroke: #000000; stroke-width: 0.8"/>
      </g>
     </g>
     <g id="text_3">
      <!-- $\mathdefault{100}$ -->
      <g transform="translate(152.177704 332.862822)scale(0.1 -0.1)">
       <defs>
        <path id="CMR17-31" d="M 1702 4083 
C 1702 4217 1696 4224 1606 4224 
C 1357 3927 979 3833 621 3820 
C 602 3820 570 3820 563 3808 
C 557 3795 557 3782 557 3648 
C 755 3648 1088 3686 1344 3839 
L 1344 467 
C 1344 243 1331 166 781 166 
L 589 166 
L 589 0 
C 896 6 1216 12 1523 12 
C 1830 12 2150 6 2458 0 
L 2458 166 
L 2266 166 
C 1715 166 1702 236 1702 467 
L 1702 4083 
z
" transform="scale(0.015625)"/>
       </defs>
       <use xlink:href="#CMR17-31" transform="scale(0.996264)"/>
       <use xlink:href="#CMR17-30" transform="translate(45.690477 0)scale(0.996264)"/>
       <use xlink:href="#CMR17-30" transform="translate(91.380954 0)scale(0.996264)"/>
      </g>
     </g>
    </g>
    <g id="xtick_4">
     <g id="line2d_4">
      <g>
       <use xlink:href="#m09c3b80783" x="205.166291" y="318.944323" style="stroke: #000000; stroke-width: 0.8"/>
      </g>
     </g>
     <g id="text_4">
      <!-- $\mathdefault{150}$ -->
      <g transform="translate(197.694288 332.862822)scale(0.1 -0.1)">
       <use xlink:href="#CMR17-31" transform="scale(0.996264)"/>
       <use xlink:href="#CMR17-35" transform="translate(45.690477 0)scale(0.996264)"/>
       <use xlink:href="#CMR17-30" transform="translate(91.380954 0)scale(0.996264)"/>
      </g>
     </g>
    </g>
    <g id="xtick_5">
     <g id="line2d_5">
      <g>
       <use xlink:href="#m09c3b80783" x="250.682876" y="318.944323" style="stroke: #000000; stroke-width: 0.8"/>
      </g>
     </g>
     <g id="text_5">
      <!-- $\mathdefault{200}$ -->
      <g transform="translate(243.210873 332.862822)scale(0.1 -0.1)">
       <defs>
        <path id="CMR17-32" d="M 2669 990 
L 2554 990 
C 2490 537 2438 460 2413 422 
C 2381 371 1920 371 1830 371 
L 602 371 
C 832 620 1280 1073 1824 1596 
C 2214 1966 2669 2400 2669 3033 
C 2669 3788 2067 4224 1395 4224 
C 691 4224 262 3603 262 3027 
C 262 2777 448 2745 525 2745 
C 589 2745 781 2783 781 3007 
C 781 3206 614 3264 525 3264 
C 486 3264 448 3257 422 3244 
C 544 3788 915 4057 1306 4057 
C 1862 4057 2227 3616 2227 3033 
C 2227 2477 1901 1998 1536 1583 
L 262 147 
L 262 0 
L 2515 0 
L 2669 990 
z
" transform="scale(0.015625)"/>
       </defs>
       <use xlink:href="#CMR17-32" transform="scale(0.996264)"/>
       <use xlink:href="#CMR17-30" transform="translate(45.690477 0)scale(0.996264)"/>
       <use xlink:href="#CMR17-30" transform="translate(91.380954 0)scale(0.996264)"/>
      </g>
     </g>
    </g>
    <g id="xtick_6">
     <g id="line2d_6">
      <g>
       <use xlink:href="#m09c3b80783" x="296.19946" y="318.944323" style="stroke: #000000; stroke-width: 0.8"/>
      </g>
     </g>
     <g id="text_6">
      <!-- $\mathdefault{250}$ -->
      <g transform="translate(288.727458 332.862822)scale(0.1 -0.1)">
       <use xlink:href="#CMR17-32" transform="scale(0.996264)"/>
       <use xlink:href="#CMR17-35" transform="translate(45.690477 0)scale(0.996264)"/>
       <use xlink:href="#CMR17-30" transform="translate(91.380954 0)scale(0.996264)"/>
      </g>
     </g>
    </g>
    <g id="xtick_7">
     <g id="line2d_7">
      <g>
       <use xlink:href="#m09c3b80783" x="341.716045" y="318.944323" style="stroke: #000000; stroke-width: 0.8"/>
      </g>
     </g>
     <g id="text_7">
      <!-- $\mathdefault{300}$ -->
      <g transform="translate(334.244042 332.862822)scale(0.1 -0.1)">
       <defs>
        <path id="CMR17-33" d="M 1414 2176 
C 1984 2176 2234 1673 2234 1094 
C 2234 322 1824 25 1453 25 
C 1114 25 563 193 390 691 
C 422 678 454 678 486 678 
C 640 678 755 780 755 947 
C 755 1132 614 1216 486 1216 
C 378 1216 211 1164 211 927 
C 211 335 787 -128 1466 -128 
C 2176 -128 2720 432 2720 1087 
C 2720 1718 2208 2176 1600 2246 
C 2086 2347 2554 2776 2554 3353 
C 2554 3856 2048 4224 1472 4224 
C 890 4224 378 3862 378 3347 
C 378 3123 544 3084 627 3084 
C 762 3084 877 3167 877 3334 
C 877 3500 762 3584 627 3584 
C 602 3584 570 3584 544 3571 
C 730 3999 1235 4076 1459 4076 
C 1683 4076 2106 3966 2106 3347 
C 2106 3167 2080 2851 1862 2574 
C 1670 2329 1453 2316 1242 2297 
C 1210 2297 1062 2284 1037 2284 
C 992 2278 966 2272 966 2227 
C 966 2182 973 2176 1101 2176 
L 1414 2176 
z
" transform="scale(0.015625)"/>
       </defs>
       <use xlink:href="#CMR17-33" transform="scale(0.996264)"/>
       <use xlink:href="#CMR17-30" transform="translate(45.690477 0)scale(0.996264)"/>
       <use xlink:href="#CMR17-30" transform="translate(91.380954 0)scale(0.996264)"/>
      </g>
     </g>
    </g>
    <g id="xtick_8">
     <g id="line2d_8">
      <g>
       <use xlink:href="#m09c3b80783" x="387.23263" y="318.944323" style="stroke: #000000; stroke-width: 0.8"/>
      </g>
     </g>
     <g id="text_8">
      <!-- $\mathdefault{350}$ -->
      <g transform="translate(379.760627 332.862822)scale(0.1 -0.1)">
       <use xlink:href="#CMR17-33" transform="scale(0.996264)"/>
       <use xlink:href="#CMR17-35" transform="translate(45.690477 0)scale(0.996264)"/>
       <use xlink:href="#CMR17-30" transform="translate(91.380954 0)scale(0.996264)"/>
      </g>
     </g>
    </g>
    <g id="xtick_9">
     <g id="line2d_9">
      <g>
       <use xlink:href="#m09c3b80783" x="432.749214" y="318.944323" style="stroke: #000000; stroke-width: 0.8"/>
      </g>
     </g>
     <g id="text_9">
      <!-- $\mathdefault{400}$ -->
      <g transform="translate(425.277212 332.862822)scale(0.1 -0.1)">
       <defs>
        <path id="CMR17-34" d="M 2150 4147 
C 2150 4281 2144 4288 2029 4288 
L 128 1254 
L 128 1088 
L 1779 1088 
L 1779 460 
C 1779 230 1766 166 1318 166 
L 1197 166 
L 1197 0 
C 1402 12 1747 12 1965 12 
C 2182 12 2528 12 2733 0 
L 2733 166 
L 2611 166 
C 2163 166 2150 230 2150 460 
L 2150 1088 
L 2803 1088 
L 2803 1254 
L 2150 1254 
L 2150 4147 
z
M 1798 3723 
L 1798 1254 
L 256 1254 
L 1798 3723 
z
" transform="scale(0.015625)"/>
       </defs>
       <use xlink:href="#CMR17-34" transform="scale(0.996264)"/>
       <use xlink:href="#CMR17-30" transform="translate(45.690477 0)scale(0.996264)"/>
       <use xlink:href="#CMR17-30" transform="translate(91.380954 0)scale(0.996264)"/>
      </g>
     </g>
    </g>
   </g>
   <g id="matplotlib.axis_2">
    <g id="ytick_1">
     <g id="line2d_10">
      <defs>
       <path id="mcf18810d61" d="M 0 0 
L -3.5 0 
" style="stroke: #000000; stroke-width: 0.8"/>
      </defs>
      <g>
       <use xlink:href="#mcf18810d61" x="50.45542" y="284.947757" style="stroke: #000000; stroke-width: 0.8"/>
      </g>
     </g>
     <g id="text_10">
      <!-- $\mathdefault{0.00050}$ -->
      <g transform="translate(10.8 288.407007)scale(0.1 -0.1)">
       <defs>
        <path id="CMMI12-3a" d="M 1178 307 
C 1178 492 1024 620 870 620 
C 685 620 557 467 557 313 
C 557 128 710 0 864 0 
C 1050 0 1178 153 1178 307 
z
" transform="scale(0.015625)"/>
       </defs>
       <use xlink:href="#CMR17-30" transform="scale(0.996264)"/>
       <use xlink:href="#CMMI12-3a" transform="translate(45.690477 0)scale(0.996264)"/>
       <use xlink:href="#CMR17-30" transform="translate(72.787654 0)scale(0.996264)"/>
       <use xlink:href="#CMR17-30" transform="translate(118.478131 0)scale(0.996264)"/>
       <use xlink:href="#CMR17-30" transform="translate(164.168608 0)scale(0.996264)"/>
       <use xlink:href="#CMR17-35" transform="translate(209.859086 0)scale(0.996264)"/>
       <use xlink:href="#CMR17-30" transform="translate(255.549563 0)scale(0.996264)"/>
      </g>
     </g>
    </g>
    <g id="ytick_2">
     <g id="line2d_11">
      <g>
       <use xlink:href="#mcf18810d61" x="50.45542" y="245.191791" style="stroke: #000000; stroke-width: 0.8"/>
      </g>
     </g>
     <g id="text_11">
      <!-- $\mathdefault{0.00075}$ -->
      <g transform="translate(10.8 248.65104)scale(0.1 -0.1)">
       <defs>
        <path id="CMR17-37" d="M 2886 3955 
L 2886 4096 
L 1382 4096 
C 634 4096 621 4166 595 4288 
L 480 4288 
L 294 3104 
L 410 3104 
C 429 3226 474 3552 550 3673 
C 589 3724 1062 3724 1171 3724 
L 2579 3724 
L 1869 2670 
C 1395 1961 1069 1003 1069 166 
C 1069 89 1069 -128 1299 -128 
C 1530 -128 1530 89 1530 172 
L 1530 466 
C 1530 1514 1709 2204 2003 2644 
L 2886 3955 
z
" transform="scale(0.015625)"/>
       </defs>
       <use xlink:href="#CMR17-30" transform="scale(0.996264)"/>
       <use xlink:href="#CMMI12-3a" transform="translate(45.690477 0)scale(0.996264)"/>
       <use xlink:href="#CMR17-30" transform="translate(72.787654 0)scale(0.996264)"/>
       <use xlink:href="#CMR17-30" transform="translate(118.478131 0)scale(0.996264)"/>
       <use xlink:href="#CMR17-30" transform="translate(164.168608 0)scale(0.996264)"/>
       <use xlink:href="#CMR17-37" transform="translate(209.859086 0)scale(0.996264)"/>
       <use xlink:href="#CMR17-35" transform="translate(255.549563 0)scale(0.996264)"/>
      </g>
     </g>
    </g>
    <g id="ytick_3">
     <g id="line2d_12">
      <g>
       <use xlink:href="#mcf18810d61" x="50.45542" y="205.435824" style="stroke: #000000; stroke-width: 0.8"/>
      </g>
     </g>
     <g id="text_12">
      <!-- $\mathdefault{0.00100}$ -->
      <g transform="translate(10.8 208.895073)scale(0.1 -0.1)">
       <use xlink:href="#CMR17-30" transform="scale(0.996264)"/>
       <use xlink:href="#CMMI12-3a" transform="translate(45.690477 0)scale(0.996264)"/>
       <use xlink:href="#CMR17-30" transform="translate(72.787654 0)scale(0.996264)"/>
       <use xlink:href="#CMR17-30" transform="translate(118.478131 0)scale(0.996264)"/>
       <use xlink:href="#CMR17-31" transform="translate(164.168608 0)scale(0.996264)"/>
       <use xlink:href="#CMR17-30" transform="translate(209.859086 0)scale(0.996264)"/>
       <use xlink:href="#CMR17-30" transform="translate(255.549563 0)scale(0.996264)"/>
      </g>
     </g>
    </g>
    <g id="ytick_4">
     <g id="line2d_13">
      <g>
       <use xlink:href="#mcf18810d61" x="50.45542" y="165.679857" style="stroke: #000000; stroke-width: 0.8"/>
      </g>
     </g>
     <g id="text_13">
      <!-- $\mathdefault{0.00125}$ -->
      <g transform="translate(10.8 169.139106)scale(0.1 -0.1)">
       <use xlink:href="#CMR17-30" transform="scale(0.996264)"/>
       <use xlink:href="#CMMI12-3a" transform="translate(45.690477 0)scale(0.996264)"/>
       <use xlink:href="#CMR17-30" transform="translate(72.787654 0)scale(0.996264)"/>
       <use xlink:href="#CMR17-30" transform="translate(118.478131 0)scale(0.996264)"/>
       <use xlink:href="#CMR17-31" transform="translate(164.168608 0)scale(0.996264)"/>
       <use xlink:href="#CMR17-32" transform="translate(209.859086 0)scale(0.996264)"/>
       <use xlink:href="#CMR17-35" transform="translate(255.549563 0)scale(0.996264)"/>
      </g>
     </g>
    </g>
    <g id="ytick_5">
     <g id="line2d_14">
      <g>
       <use xlink:href="#mcf18810d61" x="50.45542" y="125.92389" style="stroke: #000000; stroke-width: 0.8"/>
      </g>
     </g>
     <g id="text_14">
      <!-- $\mathdefault{0.00150}$ -->
      <g transform="translate(10.8 129.38314)scale(0.1 -0.1)">
       <use xlink:href="#CMR17-30" transform="scale(0.996264)"/>
       <use xlink:href="#CMMI12-3a" transform="translate(45.690477 0)scale(0.996264)"/>
       <use xlink:href="#CMR17-30" transform="translate(72.787654 0)scale(0.996264)"/>
       <use xlink:href="#CMR17-30" transform="translate(118.478131 0)scale(0.996264)"/>
       <use xlink:href="#CMR17-31" transform="translate(164.168608 0)scale(0.996264)"/>
       <use xlink:href="#CMR17-35" transform="translate(209.859086 0)scale(0.996264)"/>
       <use xlink:href="#CMR17-30" transform="translate(255.549563 0)scale(0.996264)"/>
      </g>
     </g>
    </g>
    <g id="ytick_6">
     <g id="line2d_15">
      <g>
       <use xlink:href="#mcf18810d61" x="50.45542" y="86.167924" style="stroke: #000000; stroke-width: 0.8"/>
      </g>
     </g>
     <g id="text_15">
      <!-- $\mathdefault{0.00175}$ -->
      <g transform="translate(10.8 89.627173)scale(0.1 -0.1)">
       <use xlink:href="#CMR17-30" transform="scale(0.996264)"/>
       <use xlink:href="#CMMI12-3a" transform="translate(45.690477 0)scale(0.996264)"/>
       <use xlink:href="#CMR17-30" transform="translate(72.787654 0)scale(0.996264)"/>
       <use xlink:href="#CMR17-30" transform="translate(118.478131 0)scale(0.996264)"/>
       <use xlink:href="#CMR17-31" transform="translate(164.168608 0)scale(0.996264)"/>
       <use xlink:href="#CMR17-37" transform="translate(209.859086 0)scale(0.996264)"/>
       <use xlink:href="#CMR17-35" transform="translate(255.549563 0)scale(0.996264)"/>
      </g>
     </g>
    </g>
    <g id="ytick_7">
     <g id="line2d_16">
      <g>
       <use xlink:href="#mcf18810d61" x="50.45542" y="46.411957" style="stroke: #000000; stroke-width: 0.8"/>
      </g>
     </g>
     <g id="text_16">
      <!-- $\mathdefault{0.00200}$ -->
      <g transform="translate(10.8 49.871206)scale(0.1 -0.1)">
       <use xlink:href="#CMR17-30" transform="scale(0.996264)"/>
       <use xlink:href="#CMMI12-3a" transform="translate(45.690477 0)scale(0.996264)"/>
       <use xlink:href="#CMR17-30" transform="translate(72.787654 0)scale(0.996264)"/>
       <use xlink:href="#CMR17-30" transform="translate(118.478131 0)scale(0.996264)"/>
       <use xlink:href="#CMR17-32" transform="translate(164.168608 0)scale(0.996264)"/>
       <use xlink:href="#CMR17-30" transform="translate(209.859086 0)scale(0.996264)"/>
       <use xlink:href="#CMR17-30" transform="translate(255.549563 0)scale(0.996264)"/>
      </g>
     </g>
    </g>
   </g>
   <g id="line2d_17">
    <path d="M 68.616537 269.844353 
L 69.526869 289.20161 
L 70.437201 75.295597 
L 71.347532 99.815115 
L 72.257864 62.479814 
L 73.168196 139.386383 
L 74.078527 124.613169 
L 74.988859 133.904439 
L 75.899191 276.17995 
L 76.809522 273.107692 
L 77.719854 142.328605 
L 78.630186 265.350693 
L 79.540518 155.944506 
L 80.450849 274.627525 
L 81.361181 275.934487 
L 82.271513 42.249062 
L 83.181844 31.845198 
L 84.092176 277.018659 
L 85.002508 275.56062 
L 85.912839 99.279253 
L 86.823171 142.292789 
L 87.733503 271.445876 
L 88.643835 278.059733 
L 89.554166 289.944631 
L 90.464498 156.137086 
L 91.37483 139.79769 
L 92.285161 292.406039 
L 93.195493 77.879599 
L 94.105825 269.223262 
L 95.016156 80.291724 
L 95.926488 277.266251 
L 96.83682 113.739362 
L 97.747151 276.219527 
L 98.657483 66.28338 
L 99.567815 284.104937 
L 100.478147 64.050278 
L 101.388478 277.705624 
L 102.29881 108.383138 
L 103.209142 278.962645 
L 104.119473 137.473838 
L 105.029805 48.460987 
L 105.940137 107.128725 
L 106.850468 278.220665 
L 107.7608 293.34321 
L 108.671132 270.375235 
L 109.581463 77.254283 
L 110.491795 139.954291 
L 111.402127 153.050524 
L 113.22279 93.914101 
L 114.133122 268.606794 
L 115.043454 271.388794 
L 115.953785 275.199239 
L 116.864117 280.400539 
L 117.774449 71.09396 
L 118.68478 69.282591 
L 119.595112 125.907259 
L 120.505444 265.664471 
L 121.415775 300.300081 
L 122.326107 127.430357 
L 123.236439 285.895123 
L 124.146771 119.712813 
L 125.057102 288.320305 
L 125.967434 167.306235 
L 126.877766 75.17069 
L 127.788097 56.617365 
L 128.698429 114.339017 
L 129.608761 97.235639 
L 130.519092 72.807051 
L 131.429424 93.506852 
L 132.339756 294.329464 
L 133.250087 261.255464 
L 134.160419 41.755996 
L 135.070751 259.00317 
L 135.981083 276.664622 
L 136.891414 271.544831 
L 137.801746 118.195846 
L 138.712078 115.421104 
L 139.622409 264.049416 
L 140.532741 274.030597 
L 141.443073 275.956299 
L 142.353404 29.700601 
L 143.263736 286.089656 
L 144.174068 269.762483 
L 145.084399 258.823492 
L 145.994731 39.70815 
L 146.905063 146.943621 
L 147.815395 94.945538 
L 148.725726 283.833174 
L 149.636058 49.565042 
L 150.54639 90.63736 
L 151.456721 94.359744 
L 152.367053 280.615646 
L 153.277385 124.43449 
L 154.187716 266.108282 
L 155.098048 102.591258 
L 156.00838 276.54891 
L 156.918711 284.337133 
L 157.829043 284.362615 
L 158.739375 285.629547 
L 159.649707 78.056153 
L 160.560038 95.882437 
L 161.47037 290.316339 
L 162.380702 55.693755 
L 163.291033 275.322821 
L 164.201365 81.695005 
L 165.111697 111.681003 
L 166.022028 63.666236 
L 166.93236 283.366361 
L 167.842692 74.311101 
L 168.753023 288.917527 
L 169.663355 256.106907 
L 170.573687 261.377354 
L 171.484019 76.029286 
L 172.39435 275.724271 
L 173.304682 279.994697 
L 174.215014 97.523683 
L 175.125345 92.368794 
L 176.946009 32.861368 
L 177.85634 287.376374 
L 178.766672 59.825385 
L 179.677004 118.202659 
L 180.587335 258.218005 
L 181.497667 104.985714 
L 182.407999 91.583902 
L 183.318331 80.604352 
L 184.228662 271.258886 
L 185.138994 266.207293 
L 186.049326 106.488027 
L 186.959657 267.169287 
L 187.869989 109.490015 
L 188.780321 65.867282 
L 189.690652 159.217006 
L 190.600984 283.650396 
L 191.511316 75.895924 
L 192.421647 129.764595 
L 193.331979 283.027558 
L 194.242311 123.520834 
L 195.152643 82.224151 
L 196.062974 153.289223 
L 196.973306 104.384262 
L 197.883638 277.169827 
L 198.793969 126.032164 
L 199.704301 90.64586 
L 200.614633 276.677387 
L 201.524964 281.592323 
L 202.435296 277.718015 
L 203.345628 86.475788 
L 204.255959 94.290177 
L 205.166291 125.416148 
L 206.076623 281.243797 
L 206.986955 109.963445 
L 207.897286 290.054745 
L 208.807618 111.742926 
L 209.71795 152.019765 
L 210.628281 100.387464 
L 211.538613 106.097729 
L 212.448945 281.568285 
L 213.359276 65.62582 
L 214.269608 62.253443 
L 215.17994 102.278114 
L 216.090272 111.772473 
L 217.000603 283.946149 
L 217.910935 273.872953 
L 218.821267 301.660057 
L 219.731598 304.058337 
L 220.64193 267.600741 
L 221.552262 268.422833 
L 222.462593 24.80656 
L 223.372925 130.376489 
L 224.283257 281.915714 
L 225.193588 282.168047 
L 226.10392 43.542857 
L 227.014252 76.980697 
L 227.924584 123.268755 
L 228.834915 279.68284 
L 229.745247 72.792319 
L 230.655579 72.36115 
L 231.56591 152.763358 
L 232.476242 72.351666 
L 233.386574 135.131505 
L 234.296905 142.907794 
L 235.207237 279.625866 
L 236.117569 292.28577 
L 237.0279 41.778208 
L 237.938232 268.240867 
L 238.848564 137.397446 
L 239.758896 85.35095 
L 240.669227 92.896808 
L 241.579559 262.02784 
L 242.489891 86.900197 
L 243.400222 267.708227 
L 244.310554 54.333465 
L 245.220886 281.615991 
L 246.131217 282.112749 
L 247.041549 69.956284 
L 247.951881 103.164743 
L 248.862212 264.626361 
L 249.772544 270.494714 
L 250.682876 78.695284 
L 251.593208 273.402515 
L 252.503539 276.581251 
L 253.413871 137.040162 
L 254.324203 111.260444 
L 255.234534 285.411087 
L 256.144866 283.666087 
L 257.055198 69.585427 
L 257.965529 80.44889 
L 258.875861 264.937256 
L 259.786193 284.687391 
L 260.696524 87.262551 
L 261.606856 270.138672 
L 262.517188 283.257622 
L 263.42752 293.667186 
L 264.337851 136.042787 
L 265.248183 44.547526 
L 266.158515 279.928233 
L 267.979178 261.698462 
L 268.88951 137.020188 
L 269.799841 288.142633 
L 270.710173 284.599508 
L 271.620505 294.13795 
L 272.530836 287.116309 
L 273.441168 275.589305 
L 274.3515 278.23384 
L 275.261832 293.170166 
L 276.172163 272.369412 
L 277.082495 263.20848 
L 277.992827 120.389582 
L 278.903158 262.961538 
L 279.81349 286.705274 
L 280.723822 281.973478 
L 281.634153 283.331878 
L 282.544485 83.380231 
L 283.454817 281.66105 
L 284.365148 262.466825 
L 285.27548 102.540695 
L 286.185812 128.254824 
L 287.096144 289.520756 
L 288.006475 95.01968 
L 288.916807 277.36267 
L 289.827139 91.706265 
L 290.73747 276.20019 
L 291.647802 65.026115 
L 292.558134 283.669391 
L 293.468465 65.613665 
L 294.378797 283.536632 
L 295.289129 268.661034 
L 296.19946 286.459002 
L 297.109792 296.75487 
L 298.020124 109.950743 
L 298.930456 274.881629 
L 299.840787 81.691886 
L 300.751119 32.946443 
L 301.661451 281.842908 
L 302.571782 122.052395 
L 303.482114 264.622886 
L 304.392446 119.58505 
L 305.302777 102.232313 
L 306.213109 68.257058 
L 307.123441 106.153179 
L 308.033772 116.595769 
L 308.944104 263.103766 
L 309.854436 112.684616 
L 310.764768 279.823029 
L 311.675099 111.640276 
L 312.585431 277.394325 
L 313.495763 265.796204 
L 314.406094 274.361784 
L 315.316426 116.079371 
L 316.226758 273.894083 
L 317.137089 61.807213 
L 318.047421 39.692991 
L 318.957753 261.546342 
L 319.868084 122.918352 
L 320.778416 288.259681 
L 321.688748 283.967751 
L 322.59908 145.578948 
L 323.509411 277.832249 
L 324.419743 280.485196 
L 325.330075 271.01956 
L 326.240406 121.625547 
L 327.150738 173.405195 
L 328.06107 270.49506 
L 328.971401 281.720288 
L 329.881733 268.405532 
L 330.792065 304.937763 
L 331.702397 292.920825 
L 332.612728 118.790017 
L 333.52306 275.310752 
L 334.433392 67.233651 
L 335.343723 272.380122 
L 336.254055 300.725624 
L 337.164387 300.30006 
L 338.074718 262.242003 
L 338.98505 281.529626 
L 339.895382 122.754872 
L 340.805713 117.915102 
L 341.716045 275.324286 
L 342.626377 292.132663 
L 343.536709 281.877343 
L 344.44704 48.401876 
L 345.357372 276.486688 
L 346.267704 162.237214 
L 347.178035 124.505082 
L 348.088367 279.94934 
L 348.998699 185.87344 
L 349.90903 282.162949 
L 350.819362 91.14227 
L 351.729694 93.397232 
L 352.640025 74.416123 
L 353.550357 299.882456 
L 354.460689 275.056602 
L 355.371021 125.18867 
L 356.281352 279.580195 
L 357.191684 273.459795 
L 358.102016 268.944194 
L 359.012347 283.518088 
L 359.922679 283.302109 
L 360.833011 119.20706 
L 361.743342 98.499199 
L 362.653674 272.407132 
L 363.564006 129.370273 
L 364.474337 34.133249 
L 365.384669 276.752519 
L 366.295001 79.738592 
L 367.205333 278.662586 
L 368.115664 85.963085 
L 369.025996 285.108094 
L 369.936328 270.229809 
L 370.846659 98.016052 
L 371.756991 286.889733 
L 372.667323 108.05293 
L 373.577654 95.431356 
L 374.487986 160.849294 
L 375.398318 106.344197 
L 376.308649 103.062482 
L 377.218981 101.384904 
L 378.129313 93.512416 
L 379.039645 284.473943 
L 379.949976 271.779076 
L 380.860308 105.701277 
L 381.77064 276.370035 
L 382.680971 283.066812 
L 383.591303 114.428729 
L 384.501635 35.547621 
L 385.411966 266.8985 
L 386.322298 106.990747 
L 387.23263 282.356722 
L 388.142961 116.170381 
L 389.053293 280.193378 
L 389.963625 276.070022 
L 390.873957 81.797736 
L 391.784288 99.235453 
L 392.69462 76.597831 
L 393.604952 110.781161 
L 394.515283 284.422267 
L 395.425615 148.451895 
L 396.335947 47.24821 
L 397.246278 276.954578 
L 398.15661 119.240562 
L 399.066942 152.688736 
L 399.977273 277.193818 
L 400.887605 269.133701 
L 401.797937 264.285125 
L 402.708269 69.142175 
L 403.6186 261.487839 
L 404.528932 299.948547 
L 405.439264 116.598221 
L 406.349595 288.234183 
L 407.259927 284.33459 
L 408.170259 276.672157 
L 409.08059 279.002666 
L 409.990922 276.299842 
L 410.901254 136.142744 
L 411.811585 85.79884 
L 412.721917 89.226054 
L 413.632249 284.284007 
L 414.542581 271.608477 
L 415.452912 68.382125 
L 416.363244 277.928571 
L 417.273576 285.53801 
L 418.183907 83.061683 
L 419.094239 79.286757 
L 420.004571 268.842131 
L 420.914902 303.746831 
L 421.825234 275.480133 
L 422.735566 277.690078 
L 423.645897 83.078834 
L 424.556229 93.462366 
L 425.466561 127.624863 
L 426.376893 269.21765 
L 427.287224 278.127983 
L 428.197556 280.715094 
L 429.107888 138.757356 
L 430.018219 147.836216 
L 430.928551 66.513899 
L 431.838883 276.264126 
L 431.838883 276.264126 
" clip-path="url(#p02a06e50ae)" style="fill: none; stroke: #3c74ff; stroke-width: 1.5; stroke-linecap: square"/>
   </g>
   <g id="patch_3">
    <path d="M 50.45542 318.944323 
L 50.45542 10.8 
" style="fill: none; stroke: #000000; stroke-width: 0.8; stroke-linejoin: miter; stroke-linecap: square"/>
   </g>
   <g id="patch_4">
    <path d="M 450 318.944323 
L 450 10.8 
" style="fill: none; stroke: #000000; stroke-width: 0.8; stroke-linejoin: miter; stroke-linecap: square"/>
   </g>
   <g id="patch_5">
    <path d="M 50.45542 318.944323 
L 450 318.944323 
" style="fill: none; stroke: #000000; stroke-width: 0.8; stroke-linejoin: miter; stroke-linecap: square"/>
   </g>
   <g id="patch_6">
    <path d="M 50.45542 10.8 
L 450 10.8 
" style="fill: none; stroke: #000000; stroke-width: 0.8; stroke-linejoin: miter; stroke-linecap: square"/>
   </g>
   <g id="legend_1">
    <g id="patch_7">
     <path d="M 194.122736 176.728176 
L 306.332684 176.728176 
Q 309.132684 176.728176 309.132684 173.928176 
L 309.132684 155.816147 
Q 309.132684 153.016147 306.332684 153.016147 
L 194.122736 153.016147 
Q 191.322736 153.016147 191.322736 155.816147 
L 191.322736 173.928176 
Q 191.322736 176.728176 194.122736 176.728176 
z
" style="fill: #ffffff; opacity: 0.8; stroke: #cccccc; stroke-linejoin: miter"/>
    </g>
    <g id="line2d_18">
     <path d="M 196.922736 163.516147 
L 210.922736 163.516147 
L 224.922736 163.516147 
" style="fill: none; stroke: #3c74ff; stroke-width: 1.5; stroke-linecap: square"/>
    </g>
    <g id="text_17">
     <!-- Real values -->
     <g transform="translate(236.122736 168.416147)scale(0.14 -0.14)">
      <defs>
       <path id="CMR17-52" d="M 2509 2156 
C 3117 2278 3629 2689 3629 3203 
C 3629 3806 2950 4352 2054 4352 
L 333 4352 
L 333 4185 
C 774 4185 845 4185 845 3896 
L 845 428 
C 845 140 774 140 333 140 
L 333 -26 
C 518 -13 851 -13 1050 -13 
C 1248 -13 1581 -13 1766 -26 
L 1766 140 
C 1325 140 1254 140 1254 428 
L 1254 2112 
L 2003 2112 
C 2368 2112 2573 1964 2662 1881 
C 2918 1632 2918 1459 2918 1024 
C 2918 595 2918 377 3110 160 
C 3354 -103 3680 -128 3821 -128 
C 4294 -128 4365 403 4365 512 
C 4365 550 4365 595 4307 595 
C 4256 595 4250 556 4250 531 
C 4218 115 4032 -26 3834 -26 
C 3482 -26 3443 377 3405 768 
C 3386 902 3373 998 3360 1139 
C 3322 1459 3270 1926 2509 2156 
z
M 1984 2214 
L 1254 2214 
L 1254 3935 
C 1254 4153 1267 4185 1523 4185 
L 1990 4185 
C 2522 4185 3142 3999 3142 3203 
C 3142 2374 2464 2214 1984 2214 
z
" transform="scale(0.015625)"/>
       <path id="CMR17-65" d="M 2438 1503 
C 2464 1529 2464 1542 2464 1606 
C 2464 2251 2118 2816 1389 2816 
C 710 2816 173 2175 173 1394 
C 173 554 781 -64 1459 -64 
C 2176 -64 2458 619 2458 755 
C 2458 800 2419 800 2406 800 
C 2362 800 2355 787 2330 709 
C 2189 270 1837 51 1504 51 
C 1229 51 954 206 781 490 
C 582 819 582 1200 582 1503 
L 2438 1503 
z
M 589 1600 
C 634 2511 1126 2713 1382 2713 
C 1818 2713 2112 2308 2118 1600 
L 589 1600 
z
" transform="scale(0.015625)"/>
       <path id="CMR17-61" d="M 2304 1656 
C 2304 2048 2304 2275 2035 2534 
C 1798 2751 1523 2816 1306 2816 
C 800 2816 435 2408 435 1977 
C 435 1740 627 1728 666 1728 
C 749 1728 896 1779 896 1958 
C 896 2118 774 2188 666 2188 
C 640 2188 608 2182 589 2176 
C 723 2594 1069 2713 1293 2713 
C 1613 2713 1965 2421 1965 1875 
L 1965 1632 
C 1587 1619 1133 1568 774 1373 
C 371 1147 256 822 256 576 
C 256 77 832 -64 1171 -64 
C 1523 -64 1850 135 1990 505 
C 2003 219 2182 -39 2464 -39 
C 2598 -39 2938 51 2938 563 
L 2938 926 
L 2822 926 
L 2822 557 
C 2822 161 2650 109 2566 109 
C 2304 109 2304 446 2304 732 
L 2304 1656 
z
M 1965 887 
C 1965 323 1568 38 1216 38 
C 896 38 646 278 646 576 
C 646 771 730 1114 1101 1322 
C 1408 1497 1760 1523 1965 1536 
L 1965 887 
z
" transform="scale(0.015625)"/>
       <path id="CMR17-6c" d="M 979 4416 
L 218 4345 
L 218 4179 
C 595 4179 653 4141 653 3835 
L 653 439 
C 653 198 627 166 218 166 
L 218 0 
C 371 12 653 12 813 12 
C 979 12 1261 12 1414 0 
L 1414 166 
C 1005 166 979 191 979 439 
L 979 4416 
z
" transform="scale(0.015625)"/>
       <path id="CMR17-76" d="M 2502 2173 
C 2560 2315 2662 2572 3034 2585 
L 3034 2752 
C 2912 2745 2752 2739 2630 2739 
C 2496 2739 2285 2739 2157 2752 
L 2157 2585 
C 2317 2572 2406 2495 2406 2328 
C 2406 2270 2406 2257 2368 2167 
L 1664 379 
L 902 2308 
C 864 2392 864 2405 864 2431 
C 864 2585 1075 2585 1171 2585 
L 1171 2752 
C 1018 2739 736 2739 576 2739 
C 403 2739 205 2739 64 2752 
L 64 2585 
C 307 2585 442 2585 518 2386 
L 1446 44 
C 1485 -52 1491 -64 1549 -64 
C 1606 -64 1613 -52 1651 44 
L 2502 2173 
z
" transform="scale(0.015625)"/>
       <path id="CMR17-75" d="M 1882 2745 
L 1882 2579 
C 2259 2579 2317 2540 2317 2229 
L 2317 1053 
C 2317 510 2029 38 1555 38 
C 1030 38 986 355 986 691 
L 986 2816 
L 211 2745 
L 211 2579 
C 467 2579 640 2579 646 2320 
L 646 1079 
C 646 646 646 368 813 187 
C 896 103 1056 -64 1517 -64 
C 2061 -64 2272 400 2323 536 
L 2330 536 
L 2330 -64 
L 3091 -13 
L 3091 154 
C 2714 154 2656 193 2656 503 
L 2656 2816 
L 1882 2745 
z
" transform="scale(0.015625)"/>
       <path id="CMR17-73" d="M 1978 2688 
C 1978 2803 1971 2809 1933 2809 
C 1907 2809 1901 2803 1824 2707 
C 1805 2681 1747 2617 1728 2592 
C 1523 2809 1235 2816 1126 2816 
C 416 2816 160 2444 160 2073 
C 160 1497 813 1363 998 1324 
C 1402 1241 1542 1216 1677 1100 
C 1760 1024 1901 883 1901 652 
C 1901 384 1747 38 1158 38 
C 602 38 403 460 288 1024 
C 269 1113 269 1120 218 1120 
C 166 1120 160 1113 160 985 
L 160 64 
C 160 -52 166 -58 205 -58 
C 237 -58 243 -52 275 0 
C 314 57 410 211 448 275 
C 576 102 800 -64 1158 -64 
C 1792 -64 2131 281 2131 780 
C 2131 1107 1958 1280 1875 1356 
C 1683 1555 1459 1600 1190 1651 
C 838 1728 390 1817 390 2208 
C 390 2374 480 2726 1126 2726 
C 1811 2726 1850 2086 1862 1881 
C 1869 1849 1901 1843 1920 1843 
C 1978 1843 1978 1862 1978 1971 
L 1978 2688 
z
" transform="scale(0.015625)"/>
      </defs>
      <use xlink:href="#CMR17-52" transform="scale(0.996264)"/>
      <use xlink:href="#CMR17-65" transform="translate(67.791102 0)scale(0.996264)"/>
      <use xlink:href="#CMR17-61" transform="translate(108.276762 0)scale(0.996264)"/>
      <use xlink:href="#CMR17-6c" transform="translate(153.96724 0)scale(0.996264)"/>
      <use xlink:href="#CMR17-76" transform="translate(208.914264 0)scale(0.996264)"/>
      <use xlink:href="#CMR17-61" transform="translate(252.002364 0)scale(0.996264)"/>
      <use xlink:href="#CMR17-6c" transform="translate(297.692841 0)scale(0.996264)"/>
      <use xlink:href="#CMR17-75" transform="translate(322.563899 0)scale(0.996264)"/>
      <use xlink:href="#CMR17-65" transform="translate(373.459269 0)scale(0.996264)"/>
      <use xlink:href="#CMR17-73" transform="translate(413.944929 0)scale(0.996264)"/>
     </g>
    </g>
   </g>
  </g>
 </g>
 <defs>
  <clipPath id="p02a06e50ae">
   <rect x="50.45542" y="10.8" width="399.54458" height="308.144323"/>
  </clipPath>
 </defs>
</svg>
