<?xml version="1.0" encoding="utf-8" standalone="no"?>
<!DOCTYPE svg PUBLIC "-//W3C//DTD SVG 1.1//EN"
  "http://www.w3.org/Graphics/SVG/1.1/DTD/svg11.dtd">
<svg xmlns:xlink="http://www.w3.org/1999/xlink" width="460.8pt" height="345.6pt" viewBox="0 0 460.8 345.6" xmlns="http://www.w3.org/2000/svg" version="1.1">
 <metadata>
  <rdf:RDF xmlns:dc="http://purl.org/dc/elements/1.1/" xmlns:cc="http://creativecommons.org/ns#" xmlns:rdf="http://www.w3.org/1999/02/22-rdf-syntax-ns#">
   <cc:Work>
    <dc:type rdf:resource="http://purl.org/dc/dcmitype/StillImage"/>
    <dc:date>2023-03-08T11:55:25.118314</dc:date>
    <dc:format>image/svg+xml</dc:format>
    <dc:creator>
     <cc:Agent>
      <dc:title>Matplotlib v3.5.3, https://matplotlib.org/</dc:title>
     </cc:Agent>
    </dc:creator>
   </cc:Work>
  </rdf:RDF>
 </metadata>
 <defs>
  <style type="text/css">*{stroke-linejoin: round; stroke-linecap: butt}</style>
 </defs>
 <g id="figure_1">
  <g id="patch_1">
   <path d="M 0 345.6 
L 460.8 345.6 
L 460.8 0 
L 0 0 
z
" style="fill: #ffffff"/>
  </g>
  <g id="axes_1">
   <g id="patch_2">
    <path d="M 50.45542 318.944323 
L 450 318.944323 
L 450 10.8 
L 50.45542 10.8 
z
" style="fill: #ffffff"/>
   </g>
   <g id="matplotlib.axis_1">
    <g id="xtick_1">
     <g id="line2d_1">
      <defs>
       <path id="m142c5403da" d="M 0 0 
L 0 3.5 
" style="stroke: #000000; stroke-width: 0.8"/>
      </defs>
      <g>
       <use xlink:href="#m142c5403da" x="68.616537" y="318.944323" style="stroke: #000000; stroke-width: 0.8"/>
      </g>
     </g>
     <g id="text_1">
      <!-- $\mathdefault{0}$ -->
      <g transform="translate(66.12587 332.862822)scale(0.1 -0.1)">
       <defs>
        <path id="CMR17-30" d="M 2688 2038 
C 2688 2430 2682 3099 2413 3613 
C 2176 4063 1798 4224 1466 4224 
C 1158 4224 768 4082 525 3620 
C 269 3137 243 2539 243 2038 
C 243 1671 250 1112 448 623 
C 723 -39 1216 -128 1466 -128 
C 1760 -128 2208 -7 2470 604 
C 2662 1048 2688 1568 2688 2038 
z
M 1466 -26 
C 1056 -26 813 328 723 816 
C 653 1196 653 1749 653 2109 
C 653 2604 653 3015 736 3407 
C 858 3954 1216 4121 1466 4121 
C 1728 4121 2067 3947 2189 3420 
C 2272 3054 2278 2623 2278 2109 
C 2278 1691 2278 1176 2202 797 
C 2067 96 1690 -26 1466 -26 
z
" transform="scale(0.015625)"/>
       </defs>
       <use xlink:href="#CMR17-30" transform="scale(0.996264)"/>
      </g>
     </g>
    </g>
    <g id="xtick_2">
     <g id="line2d_2">
      <g>
       <use xlink:href="#m142c5403da" x="114.133122" y="318.944323" style="stroke: #000000; stroke-width: 0.8"/>
      </g>
     </g>
     <g id="text_2">
      <!-- $\mathdefault{50}$ -->
      <g transform="translate(109.151787 332.862822)scale(0.1 -0.1)">
       <defs>
        <path id="CMR17-35" d="M 730 3750 
C 794 3724 1056 3641 1325 3641 
C 1920 3641 2246 3961 2432 4140 
C 2432 4191 2432 4224 2394 4224 
C 2387 4224 2374 4224 2323 4198 
C 2099 4102 1837 4032 1517 4032 
C 1325 4032 1037 4055 723 4191 
C 653 4224 640 4224 634 4224 
C 602 4224 595 4217 595 4090 
L 595 2231 
C 595 2113 595 2080 659 2080 
C 691 2080 704 2093 736 2139 
C 941 2435 1222 2560 1542 2560 
C 1766 2560 2246 2415 2246 1293 
C 2246 1087 2246 716 2054 422 
C 1894 159 1645 25 1370 25 
C 947 25 518 319 403 812 
C 429 806 480 793 506 793 
C 589 793 749 838 749 1036 
C 749 1209 627 1280 506 1280 
C 358 1280 262 1190 262 1011 
C 262 454 704 -128 1382 -128 
C 2042 -128 2669 441 2669 1267 
C 2669 2054 2170 2662 1549 2662 
C 1222 2662 947 2540 730 2304 
L 730 3750 
z
" transform="scale(0.015625)"/>
       </defs>
       <use xlink:href="#CMR17-35" transform="scale(0.996264)"/>
       <use xlink:href="#CMR17-30" transform="translate(45.690477 0)scale(0.996264)"/>
      </g>
     </g>
    </g>
    <g id="xtick_3">
     <g id="line2d_3">
      <g>
       <use xlink:href="#m142c5403da" x="159.649707" y="318.944323" style="stroke: #000000; stroke-width: 0.8"/>
      </g>
     </g>
     <g id="text_3">
      <!-- $\mathdefault{100}$ -->
      <g transform="translate(152.177704 332.862822)scale(0.1 -0.1)">
       <defs>
        <path id="CMR17-31" d="M 1702 4083 
C 1702 4217 1696 4224 1606 4224 
C 1357 3927 979 3833 621 3820 
C 602 3820 570 3820 563 3808 
C 557 3795 557 3782 557 3648 
C 755 3648 1088 3686 1344 3839 
L 1344 467 
C 1344 243 1331 166 781 166 
L 589 166 
L 589 0 
C 896 6 1216 12 1523 12 
C 1830 12 2150 6 2458 0 
L 2458 166 
L 2266 166 
C 1715 166 1702 236 1702 467 
L 1702 4083 
z
" transform="scale(0.015625)"/>
       </defs>
       <use xlink:href="#CMR17-31" transform="scale(0.996264)"/>
       <use xlink:href="#CMR17-30" transform="translate(45.690477 0)scale(0.996264)"/>
       <use xlink:href="#CMR17-30" transform="translate(91.380954 0)scale(0.996264)"/>
      </g>
     </g>
    </g>
    <g id="xtick_4">
     <g id="line2d_4">
      <g>
       <use xlink:href="#m142c5403da" x="205.166291" y="318.944323" style="stroke: #000000; stroke-width: 0.8"/>
      </g>
     </g>
     <g id="text_4">
      <!-- $\mathdefault{150}$ -->
      <g transform="translate(197.694288 332.862822)scale(0.1 -0.1)">
       <use xlink:href="#CMR17-31" transform="scale(0.996264)"/>
       <use xlink:href="#CMR17-35" transform="translate(45.690477 0)scale(0.996264)"/>
       <use xlink:href="#CMR17-30" transform="translate(91.380954 0)scale(0.996264)"/>
      </g>
     </g>
    </g>
    <g id="xtick_5">
     <g id="line2d_5">
      <g>
       <use xlink:href="#m142c5403da" x="250.682876" y="318.944323" style="stroke: #000000; stroke-width: 0.8"/>
      </g>
     </g>
     <g id="text_5">
      <!-- $\mathdefault{200}$ -->
      <g transform="translate(243.210873 332.862822)scale(0.1 -0.1)">
       <defs>
        <path id="CMR17-32" d="M 2669 990 
L 2554 990 
C 2490 537 2438 460 2413 422 
C 2381 371 1920 371 1830 371 
L 602 371 
C 832 620 1280 1073 1824 1596 
C 2214 1966 2669 2400 2669 3033 
C 2669 3788 2067 4224 1395 4224 
C 691 4224 262 3603 262 3027 
C 262 2777 448 2745 525 2745 
C 589 2745 781 2783 781 3007 
C 781 3206 614 3264 525 3264 
C 486 3264 448 3257 422 3244 
C 544 3788 915 4057 1306 4057 
C 1862 4057 2227 3616 2227 3033 
C 2227 2477 1901 1998 1536 1583 
L 262 147 
L 262 0 
L 2515 0 
L 2669 990 
z
" transform="scale(0.015625)"/>
       </defs>
       <use xlink:href="#CMR17-32" transform="scale(0.996264)"/>
       <use xlink:href="#CMR17-30" transform="translate(45.690477 0)scale(0.996264)"/>
       <use xlink:href="#CMR17-30" transform="translate(91.380954 0)scale(0.996264)"/>
      </g>
     </g>
    </g>
    <g id="xtick_6">
     <g id="line2d_6">
      <g>
       <use xlink:href="#m142c5403da" x="296.19946" y="318.944323" style="stroke: #000000; stroke-width: 0.8"/>
      </g>
     </g>
     <g id="text_6">
      <!-- $\mathdefault{250}$ -->
      <g transform="translate(288.727458 332.862822)scale(0.1 -0.1)">
       <use xlink:href="#CMR17-32" transform="scale(0.996264)"/>
       <use xlink:href="#CMR17-35" transform="translate(45.690477 0)scale(0.996264)"/>
       <use xlink:href="#CMR17-30" transform="translate(91.380954 0)scale(0.996264)"/>
      </g>
     </g>
    </g>
    <g id="xtick_7">
     <g id="line2d_7">
      <g>
       <use xlink:href="#m142c5403da" x="341.716045" y="318.944323" style="stroke: #000000; stroke-width: 0.8"/>
      </g>
     </g>
     <g id="text_7">
      <!-- $\mathdefault{300}$ -->
      <g transform="translate(334.244042 332.862822)scale(0.1 -0.1)">
       <defs>
        <path id="CMR17-33" d="M 1414 2176 
C 1984 2176 2234 1673 2234 1094 
C 2234 322 1824 25 1453 25 
C 1114 25 563 193 390 691 
C 422 678 454 678 486 678 
C 640 678 755 780 755 947 
C 755 1132 614 1216 486 1216 
C 378 1216 211 1164 211 927 
C 211 335 787 -128 1466 -128 
C 2176 -128 2720 432 2720 1087 
C 2720 1718 2208 2176 1600 2246 
C 2086 2347 2554 2776 2554 3353 
C 2554 3856 2048 4224 1472 4224 
C 890 4224 378 3862 378 3347 
C 378 3123 544 3084 627 3084 
C 762 3084 877 3167 877 3334 
C 877 3500 762 3584 627 3584 
C 602 3584 570 3584 544 3571 
C 730 3999 1235 4076 1459 4076 
C 1683 4076 2106 3966 2106 3347 
C 2106 3167 2080 2851 1862 2574 
C 1670 2329 1453 2316 1242 2297 
C 1210 2297 1062 2284 1037 2284 
C 992 2278 966 2272 966 2227 
C 966 2182 973 2176 1101 2176 
L 1414 2176 
z
" transform="scale(0.015625)"/>
       </defs>
       <use xlink:href="#CMR17-33" transform="scale(0.996264)"/>
       <use xlink:href="#CMR17-30" transform="translate(45.690477 0)scale(0.996264)"/>
       <use xlink:href="#CMR17-30" transform="translate(91.380954 0)scale(0.996264)"/>
      </g>
     </g>
    </g>
    <g id="xtick_8">
     <g id="line2d_8">
      <g>
       <use xlink:href="#m142c5403da" x="387.23263" y="318.944323" style="stroke: #000000; stroke-width: 0.8"/>
      </g>
     </g>
     <g id="text_8">
      <!-- $\mathdefault{350}$ -->
      <g transform="translate(379.760627 332.862822)scale(0.1 -0.1)">
       <use xlink:href="#CMR17-33" transform="scale(0.996264)"/>
       <use xlink:href="#CMR17-35" transform="translate(45.690477 0)scale(0.996264)"/>
       <use xlink:href="#CMR17-30" transform="translate(91.380954 0)scale(0.996264)"/>
      </g>
     </g>
    </g>
    <g id="xtick_9">
     <g id="line2d_9">
      <g>
       <use xlink:href="#m142c5403da" x="432.749214" y="318.944323" style="stroke: #000000; stroke-width: 0.8"/>
      </g>
     </g>
     <g id="text_9">
      <!-- $\mathdefault{400}$ -->
      <g transform="translate(425.277212 332.862822)scale(0.1 -0.1)">
       <defs>
        <path id="CMR17-34" d="M 2150 4147 
C 2150 4281 2144 4288 2029 4288 
L 128 1254 
L 128 1088 
L 1779 1088 
L 1779 460 
C 1779 230 1766 166 1318 166 
L 1197 166 
L 1197 0 
C 1402 12 1747 12 1965 12 
C 2182 12 2528 12 2733 0 
L 2733 166 
L 2611 166 
C 2163 166 2150 230 2150 460 
L 2150 1088 
L 2803 1088 
L 2803 1254 
L 2150 1254 
L 2150 4147 
z
M 1798 3723 
L 1798 1254 
L 256 1254 
L 1798 3723 
z
" transform="scale(0.015625)"/>
       </defs>
       <use xlink:href="#CMR17-34" transform="scale(0.996264)"/>
       <use xlink:href="#CMR17-30" transform="translate(45.690477 0)scale(0.996264)"/>
       <use xlink:href="#CMR17-30" transform="translate(91.380954 0)scale(0.996264)"/>
      </g>
     </g>
    </g>
   </g>
   <g id="matplotlib.axis_2">
    <g id="ytick_1">
     <g id="line2d_10">
      <defs>
       <path id="m352f35ee35" d="M 0 0 
L -3.5 0 
" style="stroke: #000000; stroke-width: 0.8"/>
      </defs>
      <g>
       <use xlink:href="#m352f35ee35" x="50.45542" y="286.863791" style="stroke: #000000; stroke-width: 0.8"/>
      </g>
     </g>
     <g id="text_10">
      <!-- $\mathdefault{0.00050}$ -->
      <g transform="translate(10.8 290.32304)scale(0.1 -0.1)">
       <defs>
        <path id="CMMI12-3a" d="M 1178 307 
C 1178 492 1024 620 870 620 
C 685 620 557 467 557 313 
C 557 128 710 0 864 0 
C 1050 0 1178 153 1178 307 
z
" transform="scale(0.015625)"/>
       </defs>
       <use xlink:href="#CMR17-30" transform="scale(0.996264)"/>
       <use xlink:href="#CMMI12-3a" transform="translate(45.690477 0)scale(0.996264)"/>
       <use xlink:href="#CMR17-30" transform="translate(72.787654 0)scale(0.996264)"/>
       <use xlink:href="#CMR17-30" transform="translate(118.478131 0)scale(0.996264)"/>
       <use xlink:href="#CMR17-30" transform="translate(164.168608 0)scale(0.996264)"/>
       <use xlink:href="#CMR17-35" transform="translate(209.859086 0)scale(0.996264)"/>
       <use xlink:href="#CMR17-30" transform="translate(255.549563 0)scale(0.996264)"/>
      </g>
     </g>
    </g>
    <g id="ytick_2">
     <g id="line2d_11">
      <g>
       <use xlink:href="#m352f35ee35" x="50.45542" y="247.293687" style="stroke: #000000; stroke-width: 0.8"/>
      </g>
     </g>
     <g id="text_11">
      <!-- $\mathdefault{0.00075}$ -->
      <g transform="translate(10.8 250.752936)scale(0.1 -0.1)">
       <defs>
        <path id="CMR17-37" d="M 2886 3955 
L 2886 4096 
L 1382 4096 
C 634 4096 621 4166 595 4288 
L 480 4288 
L 294 3104 
L 410 3104 
C 429 3226 474 3552 550 3673 
C 589 3724 1062 3724 1171 3724 
L 2579 3724 
L 1869 2670 
C 1395 1961 1069 1003 1069 166 
C 1069 89 1069 -128 1299 -128 
C 1530 -128 1530 89 1530 172 
L 1530 466 
C 1530 1514 1709 2204 2003 2644 
L 2886 3955 
z
" transform="scale(0.015625)"/>
       </defs>
       <use xlink:href="#CMR17-30" transform="scale(0.996264)"/>
       <use xlink:href="#CMMI12-3a" transform="translate(45.690477 0)scale(0.996264)"/>
       <use xlink:href="#CMR17-30" transform="translate(72.787654 0)scale(0.996264)"/>
       <use xlink:href="#CMR17-30" transform="translate(118.478131 0)scale(0.996264)"/>
       <use xlink:href="#CMR17-30" transform="translate(164.168608 0)scale(0.996264)"/>
       <use xlink:href="#CMR17-37" transform="translate(209.859086 0)scale(0.996264)"/>
       <use xlink:href="#CMR17-35" transform="translate(255.549563 0)scale(0.996264)"/>
      </g>
     </g>
    </g>
    <g id="ytick_3">
     <g id="line2d_12">
      <g>
       <use xlink:href="#m352f35ee35" x="50.45542" y="207.723583" style="stroke: #000000; stroke-width: 0.8"/>
      </g>
     </g>
     <g id="text_12">
      <!-- $\mathdefault{0.00100}$ -->
      <g transform="translate(10.8 211.182832)scale(0.1 -0.1)">
       <use xlink:href="#CMR17-30" transform="scale(0.996264)"/>
       <use xlink:href="#CMMI12-3a" transform="translate(45.690477 0)scale(0.996264)"/>
       <use xlink:href="#CMR17-30" transform="translate(72.787654 0)scale(0.996264)"/>
       <use xlink:href="#CMR17-30" transform="translate(118.478131 0)scale(0.996264)"/>
       <use xlink:href="#CMR17-31" transform="translate(164.168608 0)scale(0.996264)"/>
       <use xlink:href="#CMR17-30" transform="translate(209.859086 0)scale(0.996264)"/>
       <use xlink:href="#CMR17-30" transform="translate(255.549563 0)scale(0.996264)"/>
      </g>
     </g>
    </g>
    <g id="ytick_4">
     <g id="line2d_13">
      <g>
       <use xlink:href="#m352f35ee35" x="50.45542" y="168.153479" style="stroke: #000000; stroke-width: 0.8"/>
      </g>
     </g>
     <g id="text_13">
      <!-- $\mathdefault{0.00125}$ -->
      <g transform="translate(10.8 171.612728)scale(0.1 -0.1)">
       <use xlink:href="#CMR17-30" transform="scale(0.996264)"/>
       <use xlink:href="#CMMI12-3a" transform="translate(45.690477 0)scale(0.996264)"/>
       <use xlink:href="#CMR17-30" transform="translate(72.787654 0)scale(0.996264)"/>
       <use xlink:href="#CMR17-30" transform="translate(118.478131 0)scale(0.996264)"/>
       <use xlink:href="#CMR17-31" transform="translate(164.168608 0)scale(0.996264)"/>
       <use xlink:href="#CMR17-32" transform="translate(209.859086 0)scale(0.996264)"/>
       <use xlink:href="#CMR17-35" transform="translate(255.549563 0)scale(0.996264)"/>
      </g>
     </g>
    </g>
    <g id="ytick_5">
     <g id="line2d_14">
      <g>
       <use xlink:href="#m352f35ee35" x="50.45542" y="128.583375" style="stroke: #000000; stroke-width: 0.8"/>
      </g>
     </g>
     <g id="text_14">
      <!-- $\mathdefault{0.00150}$ -->
      <g transform="translate(10.8 132.042624)scale(0.1 -0.1)">
       <use xlink:href="#CMR17-30" transform="scale(0.996264)"/>
       <use xlink:href="#CMMI12-3a" transform="translate(45.690477 0)scale(0.996264)"/>
       <use xlink:href="#CMR17-30" transform="translate(72.787654 0)scale(0.996264)"/>
       <use xlink:href="#CMR17-30" transform="translate(118.478131 0)scale(0.996264)"/>
       <use xlink:href="#CMR17-31" transform="translate(164.168608 0)scale(0.996264)"/>
       <use xlink:href="#CMR17-35" transform="translate(209.859086 0)scale(0.996264)"/>
       <use xlink:href="#CMR17-30" transform="translate(255.549563 0)scale(0.996264)"/>
      </g>
     </g>
    </g>
    <g id="ytick_6">
     <g id="line2d_15">
      <g>
       <use xlink:href="#m352f35ee35" x="50.45542" y="89.013271" style="stroke: #000000; stroke-width: 0.8"/>
      </g>
     </g>
     <g id="text_15">
      <!-- $\mathdefault{0.00175}$ -->
      <g transform="translate(10.8 92.47252)scale(0.1 -0.1)">
       <use xlink:href="#CMR17-30" transform="scale(0.996264)"/>
       <use xlink:href="#CMMI12-3a" transform="translate(45.690477 0)scale(0.996264)"/>
       <use xlink:href="#CMR17-30" transform="translate(72.787654 0)scale(0.996264)"/>
       <use xlink:href="#CMR17-30" transform="translate(118.478131 0)scale(0.996264)"/>
       <use xlink:href="#CMR17-31" transform="translate(164.168608 0)scale(0.996264)"/>
       <use xlink:href="#CMR17-37" transform="translate(209.859086 0)scale(0.996264)"/>
       <use xlink:href="#CMR17-35" transform="translate(255.549563 0)scale(0.996264)"/>
      </g>
     </g>
    </g>
    <g id="ytick_7">
     <g id="line2d_16">
      <g>
       <use xlink:href="#m352f35ee35" x="50.45542" y="49.443167" style="stroke: #000000; stroke-width: 0.8"/>
      </g>
     </g>
     <g id="text_16">
      <!-- $\mathdefault{0.00200}$ -->
      <g transform="translate(10.8 52.902416)scale(0.1 -0.1)">
       <use xlink:href="#CMR17-30" transform="scale(0.996264)"/>
       <use xlink:href="#CMMI12-3a" transform="translate(45.690477 0)scale(0.996264)"/>
       <use xlink:href="#CMR17-30" transform="translate(72.787654 0)scale(0.996264)"/>
       <use xlink:href="#CMR17-30" transform="translate(118.478131 0)scale(0.996264)"/>
       <use xlink:href="#CMR17-32" transform="translate(164.168608 0)scale(0.996264)"/>
       <use xlink:href="#CMR17-30" transform="translate(209.859086 0)scale(0.996264)"/>
       <use xlink:href="#CMR17-30" transform="translate(255.549563 0)scale(0.996264)"/>
      </g>
     </g>
    </g>
   </g>
   <g id="line2d_17">
    <path d="M 68.616537 271.816082 
L 69.526869 291.946902 
L 70.437201 275.4646 
L 71.347532 51.538915 
L 72.257864 278.902297 
L 73.168196 291.765309 
L 74.078527 297.366188 
L 74.988859 112.849554 
L 75.899191 121.482853 
L 76.809522 280.226869 
L 77.719854 284.89887 
L 78.630186 293.746734 
L 79.540518 108.473955 
L 80.450849 278.810036 
L 81.361181 279.785554 
L 82.271513 283.65141 
L 83.181844 283.713851 
L 84.092176 146.079937 
L 85.002508 291.973723 
L 85.912839 282.16099 
L 86.823171 86.097067 
L 87.733503 98.769114 
L 88.643835 258.157774 
L 89.554166 113.787165 
L 90.464498 92.028342 
L 91.37483 280.488564 
L 92.285161 283.146634 
L 93.195493 279.533718 
L 94.105825 260.624615 
L 95.016156 75.295941 
L 95.926488 275.36464 
L 96.83682 284.289682 
L 97.747151 84.583144 
L 98.657483 284.539747 
L 99.567815 284.353085 
L 100.478147 295.241023 
L 101.388478 84.336425 
L 102.29881 51.423783 
L 103.209142 279.271255 
L 104.119473 268.868167 
L 105.029805 85.087937 
L 105.940137 299.232888 
L 106.850468 269.662538 
L 107.7608 81.546336 
L 108.671132 275.314276 
L 109.581463 78.791667 
L 110.491795 280.211718 
L 111.402127 51.912322 
L 112.312459 127.934368 
L 113.22279 277.671264 
L 114.133122 127.70546 
L 115.043454 177.025512 
L 115.953785 290.178806 
L 116.864117 148.185818 
L 117.774449 68.725535 
L 118.68478 266.917698 
L 119.595112 271.646553 
L 120.505444 130.947407 
L 121.415775 284.295239 
L 122.326107 279.530857 
L 123.236439 86.068237 
L 124.146771 120.475225 
L 125.057102 290.430452 
L 125.967434 109.488724 
L 126.877766 269.590192 
L 127.788097 127.100938 
L 128.698429 281.456657 
L 129.608761 277.780125 
L 130.519092 296.011018 
L 131.429424 296.923143 
L 132.339756 71.930854 
L 133.250087 39.833455 
L 134.160419 271.430797 
L 135.070751 293.659616 
L 135.981083 260.861659 
L 136.891414 148.174076 
L 137.801746 300.478952 
L 138.712078 142.577422 
L 139.622409 157.998941 
L 140.532741 175.8427 
L 141.443073 95.217945 
L 142.353404 119.735902 
L 143.263736 283.26768 
L 144.174068 277.271839 
L 145.084399 24.80656 
L 145.994731 263.51355 
L 146.905063 95.306689 
L 147.815395 138.754454 
L 148.725726 55.468461 
L 149.636058 291.097756 
L 150.54639 295.787929 
L 151.456721 120.704678 
L 152.367053 104.858138 
L 153.277385 173.922692 
L 154.187716 110.276263 
L 155.098048 284.909599 
L 156.00838 269.966299 
L 156.918711 111.124627 
L 157.829043 301.781554 
L 158.739375 68.209508 
L 159.649707 75.462009 
L 160.560038 283.500117 
L 161.47037 281.763021 
L 162.380702 293.5863 
L 163.291033 280.978452 
L 164.201365 68.807537 
L 165.111697 100.806009 
L 166.022028 110.795963 
L 166.93236 67.051555 
L 167.842692 152.286748 
L 168.753023 82.233342 
L 169.663355 281.723174 
L 170.573687 75.481951 
L 171.484019 265.92663 
L 172.39435 69.22169 
L 173.304682 268.210939 
L 174.215014 286.925474 
L 175.125345 279.655515 
L 176.035677 287.472508 
L 176.946009 88.465333 
L 177.85634 58.681572 
L 179.677004 164.256349 
L 180.587335 271.212809 
L 181.497667 120.612029 
L 182.407999 273.960777 
L 183.318331 286.433604 
L 184.228662 286.158982 
L 185.138994 85.894266 
L 186.049326 295.50393 
L 186.959657 105.706014 
L 187.869989 285.664128 
L 188.780321 161.634454 
L 189.690652 283.986012 
L 190.600984 71.599028 
L 191.511316 274.324044 
L 192.421647 80.065925 
L 193.331979 133.523331 
L 194.242311 282.782694 
L 195.152643 35.955929 
L 196.062974 134.145537 
L 196.973306 93.461813 
L 197.883638 278.632085 
L 198.793969 125.561933 
L 199.704301 37.506016 
L 200.614633 130.903411 
L 201.524964 267.670655 
L 202.435296 285.144038 
L 203.345628 294.915392 
L 204.255959 269.597873 
L 205.166291 123.07494 
L 206.076623 272.239206 
L 206.986955 289.190315 
L 207.897286 102.596661 
L 208.807618 261.669866 
L 209.71795 93.154496 
L 210.628281 277.914368 
L 211.538613 101.08508 
L 212.448945 290.50652 
L 213.359276 112.697546 
L 214.269608 290.209922 
L 215.17994 283.604817 
L 216.090272 142.742528 
L 217.000603 74.444798 
L 217.910935 273.421339 
L 218.821267 273.909079 
L 219.731598 270.935045 
L 220.64193 113.931395 
L 221.552262 281.321403 
L 222.462593 145.633464 
L 223.372925 275.713926 
L 224.283257 103.754351 
L 225.193588 272.297114 
L 226.10392 265.923977 
L 227.014252 89.855266 
L 227.924584 102.259675 
L 228.834915 282.340025 
L 229.745247 129.449249 
L 230.655579 68.692457 
L 231.56591 145.487878 
L 232.476242 83.026531 
L 233.386574 287.451284 
L 234.296905 149.980178 
L 235.207237 93.160274 
L 236.117569 290.122706 
L 237.0279 291.960232 
L 237.938232 93.594149 
L 238.848564 266.645603 
L 239.758896 281.205749 
L 240.669227 99.15145 
L 241.579559 109.474396 
L 242.489891 277.031364 
L 243.400222 268.5377 
L 244.310554 159.183528 
L 245.220886 301.280624 
L 246.131217 284.284868 
L 247.041549 276.492301 
L 247.951881 101.912544 
L 248.862212 114.339994 
L 249.772544 277.431276 
L 250.682876 260.80205 
L 251.593208 161.720842 
L 252.503539 131.861012 
L 253.413871 273.56371 
L 254.324203 284.385735 
L 255.234534 116.527179 
L 256.144866 289.674636 
L 257.055198 38.305635 
L 257.965529 290.165875 
L 258.875861 269.025375 
L 259.786193 282.422092 
L 260.696524 291.959926 
L 261.606856 284.228927 
L 262.517188 287.479306 
L 263.42752 273.919462 
L 265.248183 83.028951 
L 266.158515 300.598057 
L 267.068846 284.74273 
L 267.979178 74.546497 
L 268.88951 277.454349 
L 269.799841 160.065924 
L 270.710173 278.971762 
L 271.620505 108.183644 
L 272.530836 141.265774 
L 273.441168 274.727931 
L 274.3515 274.582133 
L 275.261832 36.79677 
L 276.172163 274.915768 
L 277.082495 71.242178 
L 277.992827 111.669711 
L 278.903158 291.269922 
L 279.81349 286.180757 
L 280.723822 294.167498 
L 281.634153 80.572544 
L 282.544485 190.543807 
L 283.454817 277.892658 
L 284.365148 286.02491 
L 285.27548 279.877419 
L 286.185812 292.411226 
L 287.096144 150.393259 
L 288.006475 176.73554 
L 288.916807 110.141392 
L 289.827139 74.008776 
L 290.73747 299.023952 
L 291.647802 269.429148 
L 292.558134 304.937763 
L 293.468465 264.348193 
L 294.378797 278.175882 
L 295.289129 285.509508 
L 296.19946 96.371734 
L 297.109792 285.181556 
L 298.020124 99.512776 
L 298.930456 282.014363 
L 299.840787 287.012616 
L 300.751119 122.657709 
L 301.661451 282.969546 
L 302.571782 125.121916 
L 303.482114 92.362738 
L 304.392446 271.594739 
L 305.302777 50.174253 
L 306.213109 43.81752 
L 307.123441 121.806589 
L 308.033772 71.734609 
L 308.944104 97.097552 
L 309.854436 44.808974 
L 310.764768 286.346969 
L 311.675099 72.905117 
L 312.585431 297.174612 
L 313.495763 155.297365 
L 314.406094 71.168402 
L 315.316426 101.286896 
L 316.226758 72.449703 
L 317.137089 289.778986 
L 318.047421 77.100979 
L 319.868084 108.211381 
L 320.778416 263.079501 
L 321.688748 152.105922 
L 322.59908 286.652613 
L 323.509411 299.19436 
L 324.419743 275.770128 
L 325.330075 283.807731 
L 326.240406 106.578193 
L 327.150738 68.301405 
L 328.06107 281.529548 
L 328.971401 290.468853 
L 329.881733 91.681131 
L 330.792065 89.270559 
L 331.702397 264.552895 
L 332.612728 82.635663 
L 333.52306 144.875747 
L 334.433392 120.202624 
L 335.343723 175.441311 
L 336.254055 284.239247 
L 337.164387 118.875464 
L 338.074718 277.308806 
L 338.98505 70.011188 
L 339.895382 101.049751 
L 340.805713 81.575567 
L 341.716045 278.62688 
L 342.626377 101.810388 
L 343.536709 93.964362 
L 344.44704 282.131639 
L 345.357372 292.973431 
L 346.267704 289.165248 
L 347.178035 88.200117 
L 348.088367 281.888741 
L 348.998699 298.434116 
L 349.90903 302.144341 
L 350.819362 272.571546 
L 351.729694 124.407107 
L 352.640025 266.068214 
L 353.550357 143.685836 
L 354.460689 82.397925 
L 355.371021 289.237852 
L 356.281352 87.801463 
L 357.191684 84.663514 
L 358.102016 279.833784 
L 359.012347 278.349249 
L 359.922679 273.493935 
L 360.833011 161.661432 
L 361.743342 65.435905 
L 362.653674 55.897609 
L 364.474337 265.689769 
L 365.384669 131.874921 
L 366.295001 279.781548 
L 367.205333 280.999289 
L 368.115664 265.440453 
L 369.025996 277.54909 
L 369.936328 285.416592 
L 370.846659 269.711716 
L 371.756991 266.920235 
L 372.667323 108.32436 
L 373.577654 273.436859 
L 374.487986 97.119837 
L 375.398318 51.482618 
L 376.308649 290.619692 
L 377.218981 136.526614 
L 378.129313 137.222456 
L 379.039645 290.160231 
L 379.949976 289.909478 
L 380.860308 274.945044 
L 381.77064 180.536575 
L 382.680971 120.672778 
L 383.591303 122.084632 
L 384.501635 78.38154 
L 385.411966 156.603002 
L 386.322298 51.922945 
L 387.23263 74.79932 
L 388.142961 124.971608 
L 389.053293 278.220756 
L 389.963625 287.214354 
L 390.873957 167.725784 
L 391.784288 152.426108 
L 392.69462 276.546531 
L 393.604952 71.783534 
L 394.515283 295.60631 
L 395.425615 259.634273 
L 396.335947 282.650915 
L 397.246278 266.637398 
L 398.15661 294.808589 
L 399.066942 69.760769 
L 399.977273 107.174466 
L 400.887605 273.558724 
L 401.797937 104.934714 
L 402.708269 112.421547 
L 403.6186 60.06095 
L 404.528932 99.856399 
L 405.439264 280.338361 
L 406.349595 34.944509 
L 407.259927 292.092911 
L 408.170259 150.04021 
L 409.08059 51.651811 
L 409.990922 72.06712 
L 410.901254 265.180525 
L 411.811585 275.702443 
L 412.721917 115.530089 
L 413.632249 145.941977 
L 414.542581 260.712358 
L 415.452912 303.497959 
L 416.363244 96.499813 
L 417.273576 133.015157 
L 418.183907 286.32024 
L 419.094239 121.931292 
L 420.004571 42.062792 
L 420.914902 69.577779 
L 421.825234 47.587453 
L 422.735566 74.995045 
L 423.645897 263.261126 
L 424.556229 173.692947 
L 425.466561 63.877026 
L 426.376893 284.55734 
L 427.287224 52.749785 
L 428.197556 41.978184 
L 429.107888 280.540807 
L 430.018219 266.660739 
L 431.838883 44.262294 
L 431.838883 44.262294 
" clip-path="url(#pf9ac908cab)" style="fill: none; stroke: #3c74ff; stroke-width: 1.5; stroke-linecap: square"/>
   </g>
   <g id="patch_3">
    <path d="M 50.45542 318.944323 
L 50.45542 10.8 
" style="fill: none; stroke: #000000; stroke-width: 0.8; stroke-linejoin: miter; stroke-linecap: square"/>
   </g>
   <g id="patch_4">
    <path d="M 450 318.944323 
L 450 10.8 
" style="fill: none; stroke: #000000; stroke-width: 0.8; stroke-linejoin: miter; stroke-linecap: square"/>
   </g>
   <g id="patch_5">
    <path d="M 50.45542 318.944323 
L 450 318.944323 
" style="fill: none; stroke: #000000; stroke-width: 0.8; stroke-linejoin: miter; stroke-linecap: square"/>
   </g>
   <g id="patch_6">
    <path d="M 50.45542 10.8 
L 450 10.8 
" style="fill: none; stroke: #000000; stroke-width: 0.8; stroke-linejoin: miter; stroke-linecap: square"/>
   </g>
   <g id="legend_1">
    <g id="patch_7">
     <path d="M 364.49378 32.737178 
L 443 32.737178 
Q 445 32.737178 445 30.737178 
L 445 17.8 
Q 445 15.8 443 15.8 
L 364.49378 15.8 
Q 362.49378 15.8 362.49378 17.8 
L 362.49378 30.737178 
Q 362.49378 32.737178 364.49378 32.737178 
z
" style="fill: #ffffff; opacity: 0.8; stroke: #cccccc; stroke-linejoin: miter"/>
    </g>
    <g id="line2d_18">
     <path d="M 366.49378 23.3 
L 376.49378 23.3 
L 386.49378 23.3 
" style="fill: none; stroke: #3c74ff; stroke-width: 1.5; stroke-linecap: square"/>
    </g>
    <g id="text_17">
     <!-- Real values -->
     <g transform="translate(394.49378 26.8)scale(0.1 -0.1)">
      <defs>
       <path id="CMSS17-52" d="M 2522 2099 
L 2534 2105 
C 3533 2450 3539 3125 3539 3244 
C 3539 3838 2925 4416 2003 4416 
L 570 4416 
L 570 0 
L 1094 0 
L 1094 2041 
L 2035 2041 
L 3168 0 
L 3706 0 
L 2522 2099 
z
M 1094 2432 
L 1094 4057 
L 1933 4057 
C 2746 4057 3034 3607 3034 3244 
C 3034 2907 2778 2432 1933 2432 
L 1094 2432 
z
" transform="scale(0.015625)"/>
       <path id="CMSS17-65" d="M 2502 1375 
C 2502 1587 2490 2001 2285 2347 
C 2061 2713 1696 2816 1421 2816 
C 755 2816 192 2184 192 1363 
C 192 579 774 -64 1510 -64 
C 1798 -64 2150 19 2470 249 
C 2470 275 2458 414 2451 421 
C 2451 433 2432 629 2432 655 
C 2125 408 1773 326 1517 326 
C 1107 326 666 667 646 1375 
L 2502 1375 
z
M 698 1728 
C 781 2086 1062 2425 1421 2425 
C 1517 2425 1965 2412 2080 1728 
L 698 1728 
z
" transform="scale(0.015625)"/>
       <path id="CMSS17-61" d="M 2406 1789 
C 2406 2399 1978 2816 1402 2816 
C 1120 2816 813 2764 461 2559 
L 499 2133 
C 659 2250 934 2438 1395 2438 
C 1722 2438 1920 2185 1920 1782 
L 1920 1536 
C 896 1504 256 1209 256 711 
C 256 452 416 -64 947 -64 
C 1043 -64 1562 -52 1933 224 
L 1933 -13 
L 2406 -13 
L 2406 1789 
z
M 1920 824 
C 1920 711 1920 559 1728 446 
C 1562 339 1350 326 1261 326 
C 941 326 723 503 723 723 
C 723 1165 1722 1209 1920 1216 
L 1920 824 
z
" transform="scale(0.015625)"/>
       <path id="CMSS17-6c" d="M 947 4416 
L 474 4416 
L 474 0 
L 947 0 
L 947 4416 
z
" transform="scale(0.015625)"/>
       <path id="CMSS17-76" d="M 2675 2752 
L 2176 2752 
L 1747 1555 
C 1613 1164 1421 627 1389 352 
L 1382 352 
C 1370 467 1318 633 1286 748 
C 1248 889 1197 1056 1158 1171 
L 595 2752 
L 83 2752 
L 1094 0 
L 1664 0 
L 2675 2752 
z
" transform="scale(0.015625)"/>
       <path id="CMSS17-75" d="M 2618 2752 
L 2131 2752 
L 2131 976 
C 2131 500 1786 307 1421 307 
C 998 307 960 448 960 712 
L 960 2752 
L 474 2752 
L 474 680 
C 474 179 646 -64 1088 -64 
C 1306 -64 1798 -13 2144 307 
L 2144 -13 
L 2618 -13 
L 2618 2752 
z
" transform="scale(0.015625)"/>
       <path id="CMSS17-73" d="M 2061 2623 
C 1683 2803 1389 2816 1197 2816 
C 742 2816 198 2655 198 2009 
C 198 1363 902 1222 1094 1183 
C 1389 1126 1715 1062 1715 742 
C 1715 339 1254 339 1171 339 
C 915 339 563 409 243 639 
L 166 211 
C 531 0 883 -64 1178 -64 
C 1965 -64 2163 416 2163 780 
C 2163 1094 1984 1305 1862 1401 
C 1651 1567 1574 1587 1050 1695 
C 960 1708 646 1779 646 2067 
C 646 2431 1050 2431 1139 2431 
C 1555 2431 1811 2303 1984 2207 
L 2061 2623 
z
" transform="scale(0.015625)"/>
      </defs>
      <use xlink:href="#CMSS17-52" transform="scale(0.996264)"/>
      <use xlink:href="#CMSS17-65" transform="translate(60.416155 0)scale(0.996264)"/>
      <use xlink:href="#CMSS17-61" transform="translate(102.054977 0)scale(0.996264)"/>
      <use xlink:href="#CMSS17-6c" transform="translate(146.976898 0)scale(0.996264)"/>
      <use xlink:href="#CMSS17-76" transform="translate(200.386733 0)scale(0.996264)"/>
      <use xlink:href="#CMSS17-61" transform="translate(243.386875 0)scale(0.996264)"/>
      <use xlink:href="#CMSS17-6c" transform="translate(288.308796 0)scale(0.996264)"/>
      <use xlink:href="#CMSS17-75" transform="translate(310.489519 0)scale(0.996264)"/>
      <use xlink:href="#CMSS17-65" transform="translate(358.694462 0)scale(0.996264)"/>
      <use xlink:href="#CMSS17-73" transform="translate(400.333284 0)scale(0.996264)"/>
     </g>
    </g>
   </g>
  </g>
 </g>
 <defs>
  <clipPath id="pf9ac908cab">
   <rect x="50.45542" y="10.8" width="399.54458" height="308.144323"/>
  </clipPath>
 </defs>
</svg>
