<?xml version="1.0" encoding="utf-8" standalone="no"?>
<!DOCTYPE svg PUBLIC "-//W3C//DTD SVG 1.1//EN"
  "http://www.w3.org/Graphics/SVG/1.1/DTD/svg11.dtd">
<svg xmlns:xlink="http://www.w3.org/1999/xlink" width="460.8pt" height="345.6pt" viewBox="0 0 460.8 345.6" xmlns="http://www.w3.org/2000/svg" version="1.1">
 <metadata>
  <rdf:RDF xmlns:dc="http://purl.org/dc/elements/1.1/" xmlns:cc="http://creativecommons.org/ns#" xmlns:rdf="http://www.w3.org/1999/02/22-rdf-syntax-ns#">
   <cc:Work>
    <dc:type rdf:resource="http://purl.org/dc/dcmitype/StillImage"/>
    <dc:date>2023-03-16T09:06:25.235011</dc:date>
    <dc:format>image/svg+xml</dc:format>
    <dc:creator>
     <cc:Agent>
      <dc:title>Matplotlib v3.5.3, https://matplotlib.org/</dc:title>
     </cc:Agent>
    </dc:creator>
   </cc:Work>
  </rdf:RDF>
 </metadata>
 <defs>
  <style type="text/css">*{stroke-linejoin: round; stroke-linecap: butt}</style>
 </defs>
 <g id="figure_1">
  <g id="patch_1">
   <path d="M 0 345.6 
L 460.8 345.6 
L 460.8 0 
L 0 0 
z
" style="fill: #ffffff"/>
  </g>
  <g id="axes_1">
   <g id="patch_2">
    <path d="M 50.45542 318.944323 
L 450 318.944323 
L 450 10.8 
L 50.45542 10.8 
z
" style="fill: #ffffff"/>
   </g>
   <g id="matplotlib.axis_1">
    <g id="xtick_1">
     <g id="line2d_1">
      <defs>
       <path id="m945c66d223" d="M 0 0 
L 0 3.5 
" style="stroke: #000000; stroke-width: 0.8"/>
      </defs>
      <g>
       <use xlink:href="#m945c66d223" x="68.616537" y="318.944323" style="stroke: #000000; stroke-width: 0.8"/>
      </g>
     </g>
     <g id="text_1">
      <!-- $\mathdefault{0}$ -->
      <g transform="translate(66.12587 332.862822)scale(0.1 -0.1)">
       <defs>
        <path id="CMR17-30" d="M 2688 2038 
C 2688 2430 2682 3099 2413 3613 
C 2176 4063 1798 4224 1466 4224 
C 1158 4224 768 4082 525 3620 
C 269 3137 243 2539 243 2038 
C 243 1671 250 1112 448 623 
C 723 -39 1216 -128 1466 -128 
C 1760 -128 2208 -7 2470 604 
C 2662 1048 2688 1568 2688 2038 
z
M 1466 -26 
C 1056 -26 813 328 723 816 
C 653 1196 653 1749 653 2109 
C 653 2604 653 3015 736 3407 
C 858 3954 1216 4121 1466 4121 
C 1728 4121 2067 3947 2189 3420 
C 2272 3054 2278 2623 2278 2109 
C 2278 1691 2278 1176 2202 797 
C 2067 96 1690 -26 1466 -26 
z
" transform="scale(0.015625)"/>
       </defs>
       <use xlink:href="#CMR17-30" transform="scale(0.996264)"/>
      </g>
     </g>
    </g>
    <g id="xtick_2">
     <g id="line2d_2">
      <g>
       <use xlink:href="#m945c66d223" x="114.133122" y="318.944323" style="stroke: #000000; stroke-width: 0.8"/>
      </g>
     </g>
     <g id="text_2">
      <!-- $\mathdefault{50}$ -->
      <g transform="translate(109.151787 332.862822)scale(0.1 -0.1)">
       <defs>
        <path id="CMR17-35" d="M 730 3750 
C 794 3724 1056 3641 1325 3641 
C 1920 3641 2246 3961 2432 4140 
C 2432 4191 2432 4224 2394 4224 
C 2387 4224 2374 4224 2323 4198 
C 2099 4102 1837 4032 1517 4032 
C 1325 4032 1037 4055 723 4191 
C 653 4224 640 4224 634 4224 
C 602 4224 595 4217 595 4090 
L 595 2231 
C 595 2113 595 2080 659 2080 
C 691 2080 704 2093 736 2139 
C 941 2435 1222 2560 1542 2560 
C 1766 2560 2246 2415 2246 1293 
C 2246 1087 2246 716 2054 422 
C 1894 159 1645 25 1370 25 
C 947 25 518 319 403 812 
C 429 806 480 793 506 793 
C 589 793 749 838 749 1036 
C 749 1209 627 1280 506 1280 
C 358 1280 262 1190 262 1011 
C 262 454 704 -128 1382 -128 
C 2042 -128 2669 441 2669 1267 
C 2669 2054 2170 2662 1549 2662 
C 1222 2662 947 2540 730 2304 
L 730 3750 
z
" transform="scale(0.015625)"/>
       </defs>
       <use xlink:href="#CMR17-35" transform="scale(0.996264)"/>
       <use xlink:href="#CMR17-30" transform="translate(45.690477 0)scale(0.996264)"/>
      </g>
     </g>
    </g>
    <g id="xtick_3">
     <g id="line2d_3">
      <g>
       <use xlink:href="#m945c66d223" x="159.649707" y="318.944323" style="stroke: #000000; stroke-width: 0.8"/>
      </g>
     </g>
     <g id="text_3">
      <!-- $\mathdefault{100}$ -->
      <g transform="translate(152.177704 332.862822)scale(0.1 -0.1)">
       <defs>
        <path id="CMR17-31" d="M 1702 4083 
C 1702 4217 1696 4224 1606 4224 
C 1357 3927 979 3833 621 3820 
C 602 3820 570 3820 563 3808 
C 557 3795 557 3782 557 3648 
C 755 3648 1088 3686 1344 3839 
L 1344 467 
C 1344 243 1331 166 781 166 
L 589 166 
L 589 0 
C 896 6 1216 12 1523 12 
C 1830 12 2150 6 2458 0 
L 2458 166 
L 2266 166 
C 1715 166 1702 236 1702 467 
L 1702 4083 
z
" transform="scale(0.015625)"/>
       </defs>
       <use xlink:href="#CMR17-31" transform="scale(0.996264)"/>
       <use xlink:href="#CMR17-30" transform="translate(45.690477 0)scale(0.996264)"/>
       <use xlink:href="#CMR17-30" transform="translate(91.380954 0)scale(0.996264)"/>
      </g>
     </g>
    </g>
    <g id="xtick_4">
     <g id="line2d_4">
      <g>
       <use xlink:href="#m945c66d223" x="205.166291" y="318.944323" style="stroke: #000000; stroke-width: 0.8"/>
      </g>
     </g>
     <g id="text_4">
      <!-- $\mathdefault{150}$ -->
      <g transform="translate(197.694288 332.862822)scale(0.1 -0.1)">
       <use xlink:href="#CMR17-31" transform="scale(0.996264)"/>
       <use xlink:href="#CMR17-35" transform="translate(45.690477 0)scale(0.996264)"/>
       <use xlink:href="#CMR17-30" transform="translate(91.380954 0)scale(0.996264)"/>
      </g>
     </g>
    </g>
    <g id="xtick_5">
     <g id="line2d_5">
      <g>
       <use xlink:href="#m945c66d223" x="250.682876" y="318.944323" style="stroke: #000000; stroke-width: 0.8"/>
      </g>
     </g>
     <g id="text_5">
      <!-- $\mathdefault{200}$ -->
      <g transform="translate(243.210873 332.862822)scale(0.1 -0.1)">
       <defs>
        <path id="CMR17-32" d="M 2669 990 
L 2554 990 
C 2490 537 2438 460 2413 422 
C 2381 371 1920 371 1830 371 
L 602 371 
C 832 620 1280 1073 1824 1596 
C 2214 1966 2669 2400 2669 3033 
C 2669 3788 2067 4224 1395 4224 
C 691 4224 262 3603 262 3027 
C 262 2777 448 2745 525 2745 
C 589 2745 781 2783 781 3007 
C 781 3206 614 3264 525 3264 
C 486 3264 448 3257 422 3244 
C 544 3788 915 4057 1306 4057 
C 1862 4057 2227 3616 2227 3033 
C 2227 2477 1901 1998 1536 1583 
L 262 147 
L 262 0 
L 2515 0 
L 2669 990 
z
" transform="scale(0.015625)"/>
       </defs>
       <use xlink:href="#CMR17-32" transform="scale(0.996264)"/>
       <use xlink:href="#CMR17-30" transform="translate(45.690477 0)scale(0.996264)"/>
       <use xlink:href="#CMR17-30" transform="translate(91.380954 0)scale(0.996264)"/>
      </g>
     </g>
    </g>
    <g id="xtick_6">
     <g id="line2d_6">
      <g>
       <use xlink:href="#m945c66d223" x="296.19946" y="318.944323" style="stroke: #000000; stroke-width: 0.8"/>
      </g>
     </g>
     <g id="text_6">
      <!-- $\mathdefault{250}$ -->
      <g transform="translate(288.727458 332.862822)scale(0.1 -0.1)">
       <use xlink:href="#CMR17-32" transform="scale(0.996264)"/>
       <use xlink:href="#CMR17-35" transform="translate(45.690477 0)scale(0.996264)"/>
       <use xlink:href="#CMR17-30" transform="translate(91.380954 0)scale(0.996264)"/>
      </g>
     </g>
    </g>
    <g id="xtick_7">
     <g id="line2d_7">
      <g>
       <use xlink:href="#m945c66d223" x="341.716045" y="318.944323" style="stroke: #000000; stroke-width: 0.8"/>
      </g>
     </g>
     <g id="text_7">
      <!-- $\mathdefault{300}$ -->
      <g transform="translate(334.244042 332.862822)scale(0.1 -0.1)">
       <defs>
        <path id="CMR17-33" d="M 1414 2176 
C 1984 2176 2234 1673 2234 1094 
C 2234 322 1824 25 1453 25 
C 1114 25 563 193 390 691 
C 422 678 454 678 486 678 
C 640 678 755 780 755 947 
C 755 1132 614 1216 486 1216 
C 378 1216 211 1164 211 927 
C 211 335 787 -128 1466 -128 
C 2176 -128 2720 432 2720 1087 
C 2720 1718 2208 2176 1600 2246 
C 2086 2347 2554 2776 2554 3353 
C 2554 3856 2048 4224 1472 4224 
C 890 4224 378 3862 378 3347 
C 378 3123 544 3084 627 3084 
C 762 3084 877 3167 877 3334 
C 877 3500 762 3584 627 3584 
C 602 3584 570 3584 544 3571 
C 730 3999 1235 4076 1459 4076 
C 1683 4076 2106 3966 2106 3347 
C 2106 3167 2080 2851 1862 2574 
C 1670 2329 1453 2316 1242 2297 
C 1210 2297 1062 2284 1037 2284 
C 992 2278 966 2272 966 2227 
C 966 2182 973 2176 1101 2176 
L 1414 2176 
z
" transform="scale(0.015625)"/>
       </defs>
       <use xlink:href="#CMR17-33" transform="scale(0.996264)"/>
       <use xlink:href="#CMR17-30" transform="translate(45.690477 0)scale(0.996264)"/>
       <use xlink:href="#CMR17-30" transform="translate(91.380954 0)scale(0.996264)"/>
      </g>
     </g>
    </g>
    <g id="xtick_8">
     <g id="line2d_8">
      <g>
       <use xlink:href="#m945c66d223" x="387.23263" y="318.944323" style="stroke: #000000; stroke-width: 0.8"/>
      </g>
     </g>
     <g id="text_8">
      <!-- $\mathdefault{350}$ -->
      <g transform="translate(379.760627 332.862822)scale(0.1 -0.1)">
       <use xlink:href="#CMR17-33" transform="scale(0.996264)"/>
       <use xlink:href="#CMR17-35" transform="translate(45.690477 0)scale(0.996264)"/>
       <use xlink:href="#CMR17-30" transform="translate(91.380954 0)scale(0.996264)"/>
      </g>
     </g>
    </g>
    <g id="xtick_9">
     <g id="line2d_9">
      <g>
       <use xlink:href="#m945c66d223" x="432.749214" y="318.944323" style="stroke: #000000; stroke-width: 0.8"/>
      </g>
     </g>
     <g id="text_9">
      <!-- $\mathdefault{400}$ -->
      <g transform="translate(425.277212 332.862822)scale(0.1 -0.1)">
       <defs>
        <path id="CMR17-34" d="M 2150 4147 
C 2150 4281 2144 4288 2029 4288 
L 128 1254 
L 128 1088 
L 1779 1088 
L 1779 460 
C 1779 230 1766 166 1318 166 
L 1197 166 
L 1197 0 
C 1402 12 1747 12 1965 12 
C 2182 12 2528 12 2733 0 
L 2733 166 
L 2611 166 
C 2163 166 2150 230 2150 460 
L 2150 1088 
L 2803 1088 
L 2803 1254 
L 2150 1254 
L 2150 4147 
z
M 1798 3723 
L 1798 1254 
L 256 1254 
L 1798 3723 
z
" transform="scale(0.015625)"/>
       </defs>
       <use xlink:href="#CMR17-34" transform="scale(0.996264)"/>
       <use xlink:href="#CMR17-30" transform="translate(45.690477 0)scale(0.996264)"/>
       <use xlink:href="#CMR17-30" transform="translate(91.380954 0)scale(0.996264)"/>
      </g>
     </g>
    </g>
   </g>
   <g id="matplotlib.axis_2">
    <g id="ytick_1">
     <g id="line2d_10">
      <defs>
       <path id="mb49e00cb6e" d="M 0 0 
L -3.5 0 
" style="stroke: #000000; stroke-width: 0.8"/>
      </defs>
      <g>
       <use xlink:href="#mb49e00cb6e" x="50.45542" y="282.849027" style="stroke: #000000; stroke-width: 0.8"/>
      </g>
     </g>
     <g id="text_10">
      <!-- $\mathdefault{0.00050}$ -->
      <g transform="translate(10.8 286.308276)scale(0.1 -0.1)">
       <defs>
        <path id="CMMI12-3a" d="M 1178 307 
C 1178 492 1024 620 870 620 
C 685 620 557 467 557 313 
C 557 128 710 0 864 0 
C 1050 0 1178 153 1178 307 
z
" transform="scale(0.015625)"/>
       </defs>
       <use xlink:href="#CMR17-30" transform="scale(0.996264)"/>
       <use xlink:href="#CMMI12-3a" transform="translate(45.690477 0)scale(0.996264)"/>
       <use xlink:href="#CMR17-30" transform="translate(72.787654 0)scale(0.996264)"/>
       <use xlink:href="#CMR17-30" transform="translate(118.478131 0)scale(0.996264)"/>
       <use xlink:href="#CMR17-30" transform="translate(164.168608 0)scale(0.996264)"/>
       <use xlink:href="#CMR17-35" transform="translate(209.859086 0)scale(0.996264)"/>
       <use xlink:href="#CMR17-30" transform="translate(255.549563 0)scale(0.996264)"/>
      </g>
     </g>
    </g>
    <g id="ytick_2">
     <g id="line2d_11">
      <g>
       <use xlink:href="#mb49e00cb6e" x="50.45542" y="243.885144" style="stroke: #000000; stroke-width: 0.8"/>
      </g>
     </g>
     <g id="text_11">
      <!-- $\mathdefault{0.00075}$ -->
      <g transform="translate(10.8 247.344393)scale(0.1 -0.1)">
       <defs>
        <path id="CMR17-37" d="M 2886 3955 
L 2886 4096 
L 1382 4096 
C 634 4096 621 4166 595 4288 
L 480 4288 
L 294 3104 
L 410 3104 
C 429 3226 474 3552 550 3673 
C 589 3724 1062 3724 1171 3724 
L 2579 3724 
L 1869 2670 
C 1395 1961 1069 1003 1069 166 
C 1069 89 1069 -128 1299 -128 
C 1530 -128 1530 89 1530 172 
L 1530 466 
C 1530 1514 1709 2204 2003 2644 
L 2886 3955 
z
" transform="scale(0.015625)"/>
       </defs>
       <use xlink:href="#CMR17-30" transform="scale(0.996264)"/>
       <use xlink:href="#CMMI12-3a" transform="translate(45.690477 0)scale(0.996264)"/>
       <use xlink:href="#CMR17-30" transform="translate(72.787654 0)scale(0.996264)"/>
       <use xlink:href="#CMR17-30" transform="translate(118.478131 0)scale(0.996264)"/>
       <use xlink:href="#CMR17-30" transform="translate(164.168608 0)scale(0.996264)"/>
       <use xlink:href="#CMR17-37" transform="translate(209.859086 0)scale(0.996264)"/>
       <use xlink:href="#CMR17-35" transform="translate(255.549563 0)scale(0.996264)"/>
      </g>
     </g>
    </g>
    <g id="ytick_3">
     <g id="line2d_12">
      <g>
       <use xlink:href="#mb49e00cb6e" x="50.45542" y="204.921261" style="stroke: #000000; stroke-width: 0.8"/>
      </g>
     </g>
     <g id="text_12">
      <!-- $\mathdefault{0.00100}$ -->
      <g transform="translate(10.8 208.38051)scale(0.1 -0.1)">
       <use xlink:href="#CMR17-30" transform="scale(0.996264)"/>
       <use xlink:href="#CMMI12-3a" transform="translate(45.690477 0)scale(0.996264)"/>
       <use xlink:href="#CMR17-30" transform="translate(72.787654 0)scale(0.996264)"/>
       <use xlink:href="#CMR17-30" transform="translate(118.478131 0)scale(0.996264)"/>
       <use xlink:href="#CMR17-31" transform="translate(164.168608 0)scale(0.996264)"/>
       <use xlink:href="#CMR17-30" transform="translate(209.859086 0)scale(0.996264)"/>
       <use xlink:href="#CMR17-30" transform="translate(255.549563 0)scale(0.996264)"/>
      </g>
     </g>
    </g>
    <g id="ytick_4">
     <g id="line2d_13">
      <g>
       <use xlink:href="#mb49e00cb6e" x="50.45542" y="165.957378" style="stroke: #000000; stroke-width: 0.8"/>
      </g>
     </g>
     <g id="text_13">
      <!-- $\mathdefault{0.00125}$ -->
      <g transform="translate(10.8 169.416628)scale(0.1 -0.1)">
       <use xlink:href="#CMR17-30" transform="scale(0.996264)"/>
       <use xlink:href="#CMMI12-3a" transform="translate(45.690477 0)scale(0.996264)"/>
       <use xlink:href="#CMR17-30" transform="translate(72.787654 0)scale(0.996264)"/>
       <use xlink:href="#CMR17-30" transform="translate(118.478131 0)scale(0.996264)"/>
       <use xlink:href="#CMR17-31" transform="translate(164.168608 0)scale(0.996264)"/>
       <use xlink:href="#CMR17-32" transform="translate(209.859086 0)scale(0.996264)"/>
       <use xlink:href="#CMR17-35" transform="translate(255.549563 0)scale(0.996264)"/>
      </g>
     </g>
    </g>
    <g id="ytick_5">
     <g id="line2d_14">
      <g>
       <use xlink:href="#mb49e00cb6e" x="50.45542" y="126.993496" style="stroke: #000000; stroke-width: 0.8"/>
      </g>
     </g>
     <g id="text_14">
      <!-- $\mathdefault{0.00150}$ -->
      <g transform="translate(10.8 130.452745)scale(0.1 -0.1)">
       <use xlink:href="#CMR17-30" transform="scale(0.996264)"/>
       <use xlink:href="#CMMI12-3a" transform="translate(45.690477 0)scale(0.996264)"/>
       <use xlink:href="#CMR17-30" transform="translate(72.787654 0)scale(0.996264)"/>
       <use xlink:href="#CMR17-30" transform="translate(118.478131 0)scale(0.996264)"/>
       <use xlink:href="#CMR17-31" transform="translate(164.168608 0)scale(0.996264)"/>
       <use xlink:href="#CMR17-35" transform="translate(209.859086 0)scale(0.996264)"/>
       <use xlink:href="#CMR17-30" transform="translate(255.549563 0)scale(0.996264)"/>
      </g>
     </g>
    </g>
    <g id="ytick_6">
     <g id="line2d_15">
      <g>
       <use xlink:href="#mb49e00cb6e" x="50.45542" y="88.029613" style="stroke: #000000; stroke-width: 0.8"/>
      </g>
     </g>
     <g id="text_15">
      <!-- $\mathdefault{0.00175}$ -->
      <g transform="translate(10.8 91.488862)scale(0.1 -0.1)">
       <use xlink:href="#CMR17-30" transform="scale(0.996264)"/>
       <use xlink:href="#CMMI12-3a" transform="translate(45.690477 0)scale(0.996264)"/>
       <use xlink:href="#CMR17-30" transform="translate(72.787654 0)scale(0.996264)"/>
       <use xlink:href="#CMR17-30" transform="translate(118.478131 0)scale(0.996264)"/>
       <use xlink:href="#CMR17-31" transform="translate(164.168608 0)scale(0.996264)"/>
       <use xlink:href="#CMR17-37" transform="translate(209.859086 0)scale(0.996264)"/>
       <use xlink:href="#CMR17-35" transform="translate(255.549563 0)scale(0.996264)"/>
      </g>
     </g>
    </g>
    <g id="ytick_7">
     <g id="line2d_16">
      <g>
       <use xlink:href="#mb49e00cb6e" x="50.45542" y="49.06573" style="stroke: #000000; stroke-width: 0.8"/>
      </g>
     </g>
     <g id="text_16">
      <!-- $\mathdefault{0.00200}$ -->
      <g transform="translate(10.8 52.524979)scale(0.1 -0.1)">
       <use xlink:href="#CMR17-30" transform="scale(0.996264)"/>
       <use xlink:href="#CMMI12-3a" transform="translate(45.690477 0)scale(0.996264)"/>
       <use xlink:href="#CMR17-30" transform="translate(72.787654 0)scale(0.996264)"/>
       <use xlink:href="#CMR17-30" transform="translate(118.478131 0)scale(0.996264)"/>
       <use xlink:href="#CMR17-32" transform="translate(164.168608 0)scale(0.996264)"/>
       <use xlink:href="#CMR17-30" transform="translate(209.859086 0)scale(0.996264)"/>
       <use xlink:href="#CMR17-30" transform="translate(255.549563 0)scale(0.996264)"/>
      </g>
     </g>
    </g>
   </g>
   <g id="line2d_17">
    <path d="M 68.616537 277.639249 
L 69.526869 83.128344 
L 70.437201 265.959725 
L 71.347532 91.026814 
L 72.257864 74.522435 
L 73.168196 268.834586 
L 74.078527 50.882986 
L 74.988859 57.151719 
L 75.899191 278.480349 
L 76.809522 105.218371 
L 77.719854 263.246923 
L 78.630186 298.395537 
L 79.540518 131.357382 
L 80.450849 124.638317 
L 81.361181 96.092715 
L 82.271513 279.465838 
L 83.181844 280.409259 
L 84.092176 269.468374 
L 85.002508 273.440426 
L 85.912839 173.445661 
L 86.823171 268.68359 
L 87.733503 100.129351 
L 88.643835 279.574517 
L 89.554166 275.764749 
L 90.464498 98.109588 
L 91.37483 287.86739 
L 92.285161 113.034378 
L 93.195493 272.015582 
L 94.105825 79.108746 
L 95.016156 92.929555 
L 95.926488 276.255962 
L 96.83682 38.098827 
L 97.747151 286.361047 
L 98.657483 272.149376 
L 99.567815 91.603614 
L 100.478147 289.626522 
L 101.388478 153.225088 
L 102.29881 95.285491 
L 103.209142 81.884634 
L 104.119473 38.027959 
L 105.029805 73.278947 
L 105.940137 263.237208 
L 106.850468 260.840576 
L 107.7608 126.071273 
L 108.671132 77.373902 
L 109.581463 281.577513 
L 110.491795 265.583531 
L 111.402127 294.99069 
L 112.312459 103.677896 
L 113.22279 276.908952 
L 114.133122 263.980379 
L 115.043454 268.028361 
L 115.953785 262.405144 
L 116.864117 264.871136 
L 117.774449 104.687794 
L 118.68478 279.806037 
L 119.595112 291.394733 
L 120.505444 114.001545 
L 121.415775 71.208902 
L 122.326107 138.007731 
L 123.236439 277.596505 
L 124.146771 286.069975 
L 125.057102 274.796822 
L 125.967434 259.62877 
L 126.877766 51.240537 
L 127.788097 44.524302 
L 128.698429 283.970248 
L 129.608761 276.840315 
L 130.519092 257.098239 
L 131.429424 155.198627 
L 132.339756 269.942713 
L 133.250087 270.385491 
L 134.160419 275.628435 
L 135.070751 277.362011 
L 135.981083 278.008163 
L 136.891414 105.912575 
L 137.801746 275.926721 
L 138.712078 286.058015 
L 139.622409 111.07927 
L 140.532741 141.789892 
L 141.443073 288.311475 
L 142.353404 91.693551 
L 143.263736 102.246516 
L 144.174068 269.608883 
L 145.084399 267.360884 
L 145.994731 283.41976 
L 146.905063 25.618463 
L 147.815395 125.708889 
L 148.725726 110.589481 
L 149.636058 103.707136 
L 150.54639 259.607959 
L 151.456721 35.785119 
L 152.367053 131.746303 
L 153.277385 279.107358 
L 154.187716 275.528529 
L 155.098048 148.767425 
L 156.00838 260.815997 
L 156.918711 58.774008 
L 157.829043 269.948754 
L 158.739375 66.053018 
L 159.649707 36.033965 
L 160.560038 280.110399 
L 161.47037 50.107208 
L 162.380702 269.580047 
L 163.291033 73.227371 
L 164.201365 97.350049 
L 165.111697 52.586457 
L 166.022028 276.573664 
L 166.93236 261.383082 
L 167.842692 268.334993 
L 168.753023 268.839878 
L 169.663355 279.560445 
L 170.573687 109.802219 
L 171.484019 99.641684 
L 172.39435 271.533808 
L 173.304682 279.364742 
L 174.215014 101.843592 
L 175.125345 129.277988 
L 176.035677 279.583641 
L 176.946009 68.891876 
L 177.85634 120.786516 
L 178.766672 263.610014 
L 179.677004 276.009538 
L 180.587335 77.964606 
L 181.497667 278.352384 
L 182.407999 290.907615 
L 183.318331 85.201409 
L 184.228662 103.818829 
L 185.138994 116.440365 
L 186.049326 88.90525 
L 186.959657 83.642754 
L 187.869989 73.684331 
L 188.780321 279.290354 
L 189.690652 279.498997 
L 190.600984 267.73081 
L 191.511316 92.890517 
L 192.421647 155.958409 
L 193.331979 58.162601 
L 194.242311 87.789395 
L 195.152643 125.750167 
L 196.062974 82.270488 
L 196.973306 267.261999 
L 197.883638 150.029761 
L 198.793969 277.5127 
L 199.704301 81.515615 
L 200.614633 86.668804 
L 201.524964 290.175852 
L 202.435296 274.546023 
L 203.345628 178.654931 
L 204.255959 284.138502 
L 205.166291 262.716502 
L 206.076623 267.272954 
L 206.986955 125.069607 
L 207.897286 84.355036 
L 208.807618 75.528698 
L 209.71795 258.283474 
L 210.628281 93.623009 
L 211.538613 281.271059 
L 212.448945 113.198405 
L 213.359276 97.063708 
L 214.269608 95.736158 
L 215.17994 287.002989 
L 216.090272 90.383908 
L 217.000603 80.276382 
L 217.910935 44.034475 
L 218.821267 97.647524 
L 219.731598 131.315185 
L 220.64193 44.502533 
L 221.552262 89.6318 
L 222.462593 278.539171 
L 223.372925 70.539715 
L 224.283257 274.399834 
L 225.193588 279.998616 
L 226.10392 265.413344 
L 227.014252 291.415643 
L 227.924584 263.550605 
L 228.834915 262.599588 
L 229.745247 271.925321 
L 230.655579 107.944865 
L 231.56591 67.88487 
L 232.476242 71.34308 
L 233.386574 266.005231 
L 234.296905 285.115226 
L 235.207237 82.081339 
L 236.117569 82.576888 
L 237.0279 107.616689 
L 237.938232 47.238445 
L 238.848564 276.824872 
L 239.758896 265.377794 
L 240.669227 98.444354 
L 241.579559 90.998492 
L 242.489891 119.296721 
L 243.400222 86.26251 
L 244.310554 100.630676 
L 245.220886 126.551771 
L 246.131217 278.287766 
L 247.041549 36.626708 
L 247.951881 103.631734 
L 248.862212 276.425368 
L 249.772544 264.917533 
L 250.682876 119.419423 
L 251.593208 270.803452 
L 252.503539 277.791778 
L 253.413871 282.176458 
L 254.324203 149.868807 
L 255.234534 265.403803 
L 256.144866 266.474999 
L 257.055198 273.279704 
L 257.965529 262.647591 
L 259.786193 67.635056 
L 260.696524 118.517584 
L 261.606856 108.632715 
L 262.517188 297.895455 
L 263.42752 266.29279 
L 264.337851 111.368917 
L 265.248183 40.874451 
L 266.158515 260.872137 
L 267.068846 271.463663 
L 267.979178 275.533093 
L 268.88951 267.966298 
L 269.799841 152.514834 
L 270.710173 263.231999 
L 271.620505 141.145238 
L 272.530836 265.707804 
L 273.441168 263.816199 
L 274.3515 278.601261 
L 275.261832 279.536885 
L 276.172163 56.110383 
L 277.082495 268.466382 
L 277.992827 289.729101 
L 278.903158 142.713324 
L 279.81349 119.4261 
L 280.723822 109.370348 
L 281.634153 291.417477 
L 282.544485 270.14369 
L 283.454817 62.753065 
L 284.365148 70.1006 
L 285.27548 274.294694 
L 286.185812 112.315632 
L 287.096144 294.148123 
L 288.006475 136.017661 
L 288.916807 141.030363 
L 289.827139 83.645811 
L 290.73747 142.131649 
L 291.647802 89.010041 
L 292.558134 135.500224 
L 293.468465 126.49587 
L 294.378797 39.92721 
L 295.289129 55.909558 
L 296.19946 137.403621 
L 297.109792 97.681216 
L 298.020124 69.072062 
L 298.930456 261.300853 
L 299.840787 275.249574 
L 300.751119 73.255978 
L 301.661451 294.242093 
L 302.571782 100.83679 
L 303.482114 165.627429 
L 304.392446 81.769009 
L 305.302777 274.743432 
L 306.213109 104.125734 
L 307.123441 265.214647 
L 308.033772 78.424949 
L 308.944104 98.012473 
L 309.854436 91.993676 
L 310.764768 81.728377 
L 311.675099 275.604009 
L 312.585431 270.708659 
L 313.495763 67.185887 
L 314.406094 51.954708 
L 315.316426 266.210408 
L 316.226758 263.999218 
L 317.137089 83.795759 
L 318.047421 188.004683 
L 318.957753 278.469423 
L 319.868084 84.98526 
L 320.778416 271.609831 
L 321.688748 112.418513 
L 322.59908 70.622412 
L 323.509411 117.369661 
L 324.419743 264.001391 
L 325.330075 276.88856 
L 326.240406 74.226148 
L 327.150738 275.415062 
L 328.06107 286.739704 
L 328.971401 270.097782 
L 329.881733 50.73656 
L 330.792065 173.13356 
L 331.702397 107.192156 
L 332.612728 279.839786 
L 333.52306 121.104011 
L 334.433392 286.460068 
L 335.343723 268.594774 
L 336.254055 262.105269 
L 337.164387 82.260199 
L 338.074718 53.845269 
L 338.98505 270.748836 
L 339.895382 78.092974 
L 340.805713 262.232627 
L 341.716045 51.073936 
L 342.626377 304.937763 
L 343.536709 270.186196 
L 344.44704 148.549063 
L 345.357372 72.816318 
L 346.267704 286.736713 
L 347.178035 257.245252 
L 348.088367 274.533662 
L 348.998699 273.154939 
L 349.90903 150.155673 
L 350.819362 291.457609 
L 351.729694 272.520662 
L 352.640025 264.704305 
L 353.550357 68.541242 
L 354.460689 301.273554 
L 355.371021 274.649212 
L 356.281352 144.523387 
L 357.191684 276.298866 
L 358.102016 259.61253 
L 359.012347 264.474838 
L 359.922679 162.119953 
L 360.833011 273.804405 
L 361.743342 276.189857 
L 362.653674 295.919615 
L 363.564006 24.80656 
L 364.474337 129.234776 
L 365.384669 117.851225 
L 366.295001 137.868714 
L 367.205333 254.582791 
L 368.115664 34.785113 
L 369.025996 98.756795 
L 369.936328 263.739005 
L 370.846659 283.787924 
L 371.756991 260.678123 
L 372.667323 266.681213 
L 373.577654 98.481046 
L 374.487986 70.475597 
L 375.398318 83.424416 
L 376.308649 279.674185 
L 377.218981 264.627276 
L 378.129313 169.038201 
L 379.039645 270.103007 
L 379.949976 292.754268 
L 380.860308 281.005557 
L 381.77064 280.09105 
L 382.680971 79.161995 
L 383.591303 267.052013 
L 384.501635 277.588406 
L 385.411966 264.079042 
L 386.322298 256.036671 
L 388.142961 270.988952 
L 389.053293 119.204091 
L 389.963625 273.809306 
L 390.873957 298.392465 
L 391.784288 271.740466 
L 392.69462 255.231675 
L 393.604952 273.797331 
L 394.515283 112.622199 
L 395.425615 285.070551 
L 396.335947 96.058222 
L 397.246278 51.507517 
L 398.15661 147.70173 
L 399.066942 280.924773 
L 399.977273 263.804467 
L 400.887605 274.255906 
L 401.797937 274.46493 
L 402.708269 123.199135 
L 403.6186 150.041176 
L 404.528932 143.674552 
L 405.439264 114.739105 
L 406.349595 278.652659 
L 407.259927 50.927152 
L 408.170259 267.032521 
L 409.08059 138.819678 
L 409.990922 262.460753 
L 410.901254 258.829781 
L 411.811585 90.174623 
L 412.721917 138.900213 
L 413.632249 259.909433 
L 414.542581 91.919613 
L 415.452912 285.61681 
L 416.363244 278.029083 
L 417.273576 274.958542 
L 418.183907 275.133413 
L 419.094239 285.018681 
L 420.004571 74.920499 
L 420.914902 44.778967 
L 421.825234 80.677072 
L 422.735566 38.785153 
L 423.645897 95.628025 
L 424.556229 288.110647 
L 425.466561 280.760461 
L 426.376893 279.877393 
L 427.287224 110.124389 
L 428.197556 113.059739 
L 429.107888 269.920884 
L 430.018219 123.638065 
L 430.928551 143.782375 
L 431.838883 130.234614 
L 431.838883 130.234614 
" clip-path="url(#p5ab65cd199)" style="fill: none; stroke: #3c74ff; stroke-width: 1.5; stroke-linecap: square"/>
   </g>
   <g id="patch_3">
    <path d="M 50.45542 318.944323 
L 50.45542 10.8 
" style="fill: none; stroke: #000000; stroke-width: 0.8; stroke-linejoin: miter; stroke-linecap: square"/>
   </g>
   <g id="patch_4">
    <path d="M 450 318.944323 
L 450 10.8 
" style="fill: none; stroke: #000000; stroke-width: 0.8; stroke-linejoin: miter; stroke-linecap: square"/>
   </g>
   <g id="patch_5">
    <path d="M 50.45542 318.944323 
L 450 318.944323 
" style="fill: none; stroke: #000000; stroke-width: 0.8; stroke-linejoin: miter; stroke-linecap: square"/>
   </g>
   <g id="patch_6">
    <path d="M 50.45542 10.8 
L 450 10.8 
" style="fill: none; stroke: #000000; stroke-width: 0.8; stroke-linejoin: miter; stroke-linecap: square"/>
   </g>
   <g id="legend_1">
    <g id="patch_7">
     <path d="M 327.990052 41.512028 
L 440.2 41.512028 
Q 443 41.512028 443 38.712028 
L 443 20.6 
Q 443 17.8 440.2 17.8 
L 327.990052 17.8 
Q 325.190052 17.8 325.190052 20.6 
L 325.190052 38.712028 
Q 325.190052 41.512028 327.990052 41.512028 
z
" style="fill: #ffffff; opacity: 0.8; stroke: #cccccc; stroke-linejoin: miter"/>
    </g>
    <g id="line2d_18">
     <path d="M 330.790052 28.3 
L 344.790052 28.3 
L 358.790052 28.3 
" style="fill: none; stroke: #3c74ff; stroke-width: 1.5; stroke-linecap: square"/>
    </g>
    <g id="text_17">
     <!-- Real values -->
     <g transform="translate(369.990052 33.2)scale(0.14 -0.14)">
      <defs>
       <path id="CMR17-52" d="M 2509 2156 
C 3117 2278 3629 2689 3629 3203 
C 3629 3806 2950 4352 2054 4352 
L 333 4352 
L 333 4185 
C 774 4185 845 4185 845 3896 
L 845 428 
C 845 140 774 140 333 140 
L 333 -26 
C 518 -13 851 -13 1050 -13 
C 1248 -13 1581 -13 1766 -26 
L 1766 140 
C 1325 140 1254 140 1254 428 
L 1254 2112 
L 2003 2112 
C 2368 2112 2573 1964 2662 1881 
C 2918 1632 2918 1459 2918 1024 
C 2918 595 2918 377 3110 160 
C 3354 -103 3680 -128 3821 -128 
C 4294 -128 4365 403 4365 512 
C 4365 550 4365 595 4307 595 
C 4256 595 4250 556 4250 531 
C 4218 115 4032 -26 3834 -26 
C 3482 -26 3443 377 3405 768 
C 3386 902 3373 998 3360 1139 
C 3322 1459 3270 1926 2509 2156 
z
M 1984 2214 
L 1254 2214 
L 1254 3935 
C 1254 4153 1267 4185 1523 4185 
L 1990 4185 
C 2522 4185 3142 3999 3142 3203 
C 3142 2374 2464 2214 1984 2214 
z
" transform="scale(0.015625)"/>
       <path id="CMR17-65" d="M 2438 1503 
C 2464 1529 2464 1542 2464 1606 
C 2464 2251 2118 2816 1389 2816 
C 710 2816 173 2175 173 1394 
C 173 554 781 -64 1459 -64 
C 2176 -64 2458 619 2458 755 
C 2458 800 2419 800 2406 800 
C 2362 800 2355 787 2330 709 
C 2189 270 1837 51 1504 51 
C 1229 51 954 206 781 490 
C 582 819 582 1200 582 1503 
L 2438 1503 
z
M 589 1600 
C 634 2511 1126 2713 1382 2713 
C 1818 2713 2112 2308 2118 1600 
L 589 1600 
z
" transform="scale(0.015625)"/>
       <path id="CMR17-61" d="M 2304 1656 
C 2304 2048 2304 2275 2035 2534 
C 1798 2751 1523 2816 1306 2816 
C 800 2816 435 2408 435 1977 
C 435 1740 627 1728 666 1728 
C 749 1728 896 1779 896 1958 
C 896 2118 774 2188 666 2188 
C 640 2188 608 2182 589 2176 
C 723 2594 1069 2713 1293 2713 
C 1613 2713 1965 2421 1965 1875 
L 1965 1632 
C 1587 1619 1133 1568 774 1373 
C 371 1147 256 822 256 576 
C 256 77 832 -64 1171 -64 
C 1523 -64 1850 135 1990 505 
C 2003 219 2182 -39 2464 -39 
C 2598 -39 2938 51 2938 563 
L 2938 926 
L 2822 926 
L 2822 557 
C 2822 161 2650 109 2566 109 
C 2304 109 2304 446 2304 732 
L 2304 1656 
z
M 1965 887 
C 1965 323 1568 38 1216 38 
C 896 38 646 278 646 576 
C 646 771 730 1114 1101 1322 
C 1408 1497 1760 1523 1965 1536 
L 1965 887 
z
" transform="scale(0.015625)"/>
       <path id="CMR17-6c" d="M 979 4416 
L 218 4345 
L 218 4179 
C 595 4179 653 4141 653 3835 
L 653 439 
C 653 198 627 166 218 166 
L 218 0 
C 371 12 653 12 813 12 
C 979 12 1261 12 1414 0 
L 1414 166 
C 1005 166 979 191 979 439 
L 979 4416 
z
" transform="scale(0.015625)"/>
       <path id="CMR17-76" d="M 2502 2173 
C 2560 2315 2662 2572 3034 2585 
L 3034 2752 
C 2912 2745 2752 2739 2630 2739 
C 2496 2739 2285 2739 2157 2752 
L 2157 2585 
C 2317 2572 2406 2495 2406 2328 
C 2406 2270 2406 2257 2368 2167 
L 1664 379 
L 902 2308 
C 864 2392 864 2405 864 2431 
C 864 2585 1075 2585 1171 2585 
L 1171 2752 
C 1018 2739 736 2739 576 2739 
C 403 2739 205 2739 64 2752 
L 64 2585 
C 307 2585 442 2585 518 2386 
L 1446 44 
C 1485 -52 1491 -64 1549 -64 
C 1606 -64 1613 -52 1651 44 
L 2502 2173 
z
" transform="scale(0.015625)"/>
       <path id="CMR17-75" d="M 1882 2745 
L 1882 2579 
C 2259 2579 2317 2540 2317 2229 
L 2317 1053 
C 2317 510 2029 38 1555 38 
C 1030 38 986 355 986 691 
L 986 2816 
L 211 2745 
L 211 2579 
C 467 2579 640 2579 646 2320 
L 646 1079 
C 646 646 646 368 813 187 
C 896 103 1056 -64 1517 -64 
C 2061 -64 2272 400 2323 536 
L 2330 536 
L 2330 -64 
L 3091 -13 
L 3091 154 
C 2714 154 2656 193 2656 503 
L 2656 2816 
L 1882 2745 
z
" transform="scale(0.015625)"/>
       <path id="CMR17-73" d="M 1978 2688 
C 1978 2803 1971 2809 1933 2809 
C 1907 2809 1901 2803 1824 2707 
C 1805 2681 1747 2617 1728 2592 
C 1523 2809 1235 2816 1126 2816 
C 416 2816 160 2444 160 2073 
C 160 1497 813 1363 998 1324 
C 1402 1241 1542 1216 1677 1100 
C 1760 1024 1901 883 1901 652 
C 1901 384 1747 38 1158 38 
C 602 38 403 460 288 1024 
C 269 1113 269 1120 218 1120 
C 166 1120 160 1113 160 985 
L 160 64 
C 160 -52 166 -58 205 -58 
C 237 -58 243 -52 275 0 
C 314 57 410 211 448 275 
C 576 102 800 -64 1158 -64 
C 1792 -64 2131 281 2131 780 
C 2131 1107 1958 1280 1875 1356 
C 1683 1555 1459 1600 1190 1651 
C 838 1728 390 1817 390 2208 
C 390 2374 480 2726 1126 2726 
C 1811 2726 1850 2086 1862 1881 
C 1869 1849 1901 1843 1920 1843 
C 1978 1843 1978 1862 1978 1971 
L 1978 2688 
z
" transform="scale(0.015625)"/>
      </defs>
      <use xlink:href="#CMR17-52" transform="scale(0.996264)"/>
      <use xlink:href="#CMR17-65" transform="translate(67.791102 0)scale(0.996264)"/>
      <use xlink:href="#CMR17-61" transform="translate(108.276762 0)scale(0.996264)"/>
      <use xlink:href="#CMR17-6c" transform="translate(153.96724 0)scale(0.996264)"/>
      <use xlink:href="#CMR17-76" transform="translate(208.914264 0)scale(0.996264)"/>
      <use xlink:href="#CMR17-61" transform="translate(252.002364 0)scale(0.996264)"/>
      <use xlink:href="#CMR17-6c" transform="translate(297.692841 0)scale(0.996264)"/>
      <use xlink:href="#CMR17-75" transform="translate(322.563899 0)scale(0.996264)"/>
      <use xlink:href="#CMR17-65" transform="translate(373.459269 0)scale(0.996264)"/>
      <use xlink:href="#CMR17-73" transform="translate(413.944929 0)scale(0.996264)"/>
     </g>
    </g>
   </g>
  </g>
 </g>
 <defs>
  <clipPath id="p5ab65cd199">
   <rect x="50.45542" y="10.8" width="399.54458" height="308.144323"/>
  </clipPath>
 </defs>
</svg>
